<svg viewBox="0 0 520.39 1046.57" xmlns="http://www.w3.org/2000/svg"><path d="m10.69 5c-.34.44-.89 1.28-1.33 2v.76a12.56 12.56 0 0 1 7.51-2.76 6.8 6.8 0 0 1 7.13 7c0 5.2-3.25 8.32-9.64 9.6l-1.54-3.12c4.53-.71 7.75-2.53 7.75-6.56a3.92 3.92 0 0 0 -4.19-3.82 10.78 10.78 0 0 0 -7.3 3.3c-.08.69-.08 1.42-.08 2.09 0 2.11 0 4.27.15 6.69 0 .47.13 1.4.18 2h-3.53c0-.54.08-1.48.08-1.9 0-2 0-3.48.1-5.66-1.09 1.63-2.37 3.51-3.25 4.75l-2-2.86c1.46-1.76 4.06-5.2 5.51-7.35l.11-1.8-4.68.6-.31-3.3h2.23c.76 0 1.87-.18 3-.34 0-1 .1-1.69.1-2a13.73 13.73 0 0 0 -.16-2.32l3.77.1c-.16.73-.37 2.06-.58 3.67z"/><path d="m41.39 6.11c-1.53.34-3.27.62-5 .83-.23 1.12-.49 2.26-.78 3.3a83.54 83.54 0 0 1 -4.08 11.91l-3.61-1.15a56.57 56.57 0 0 0 4.45-11.6c.18-.68.36-1.4.55-2.13-.6 0-1.17 0-1.69 0-1.25 0-2.21 0-3.12-.1l-.11-3.17a24.57 24.57 0 0 0 3.25.21c.75 0 1.51 0 2.29-.08.1-.57.18-1.06.23-1.48a12.71 12.71 0 0 0 .13-2.65l3.93.31c-.18.7-.42 1.85-.55 2.42l-.2 1c1.45-.24 2.91-.52 4.31-.86zm-.52 8.45a8.83 8.83 0 0 0 -.36 2.16c0 1.12.65 2 3.4 2a29.71 29.71 0 0 0 5.36-.52l-.13 3.3a41.73 41.73 0 0 1 -5.25.36c-4.34 0-6.55-1.5-6.55-4.1a17.67 17.67 0 0 1 .44-3.44zm-1.51-6.47c1.43-.13 3.28-.26 4.94-.26a43.63 43.63 0 0 1 4.53.23l-.08 3.09a38.46 38.46 0 0 0 -4.42-.31 37.65 37.65 0 0 0 -5 .29z"/><path d="m61.2.44a25.65 25.65 0 0 0 -.33 3.43c-.13 2.76-.32 8.53-.32 11.73 0 2.6 1.56 3.43 3.54 3.43 4.26 0 7-2.44 8.81-5.25l2.34 2.89a13.39 13.39 0 0 1 -11.18 5.87c-4.21 0-6.94-1.84-6.94-6.24 0-3.46.26-10.22.26-12.43a15.74 15.74 0 0 0 -.38-3.48z"/><path d="m93.39 6.11c-1.53.34-3.27.62-5 .83-.23 1.12-.49 2.26-.78 3.3a83.54 83.54 0 0 1 -4.08 11.91l-3.61-1.15a56.57 56.57 0 0 0 4.45-11.6c.18-.68.36-1.4.55-2.13-.6 0-1.17 0-1.69 0-1.25 0-2.21 0-3.12-.1l-.11-3.17a24.57 24.57 0 0 0 3.25.21c.75 0 1.51 0 2.29-.08.1-.57.18-1.06.23-1.48a12.71 12.71 0 0 0 .13-2.65l3.93.31c-.18.7-.42 1.85-.55 2.42l-.2 1c1.45-.24 2.91-.52 4.31-.86zm-.52 8.45a8.83 8.83 0 0 0 -.36 2.16c0 1.12.65 2 3.4 2a29.71 29.71 0 0 0 5.36-.52l-.13 3.3a41.73 41.73 0 0 1 -5.25.36c-4.34 0-6.55-1.5-6.55-4.1a17.67 17.67 0 0 1 .44-3.44zm-1.51-6.47c1.43-.13 3.28-.26 4.94-.26a43.63 43.63 0 0 1 4.53.23l-.08 3.09a38.46 38.46 0 0 0 -4.42-.31 37.65 37.65 0 0 0 -5 .29z"/><path d="m124.1 5.64c-2.68.42-6.76.91-10.22 1.09a45.12 45.12 0 0 1 -1.17 4.45 12.56 12.56 0 0 1 6.4-1.61c4.16 0 6.91 2.23 6.91 5.51 0 5.8-5.56 7.88-13.88 7l-.91-3.32c5.64.91 11.33.23 11.33-3.57 0-1.53-1.35-2.83-3.84-2.83a8.86 8.86 0 0 0 -7.13 3 8.35 8.35 0 0 0 -.73 1.12l-3-1.09a42.12 42.12 0 0 0 2.94-8.63c-1.64 0-3.15-.13-4.45-.26v-3.17a35.68 35.68 0 0 0 5 .49c0-.39.13-.73.15-1a15.32 15.32 0 0 0 .13-2.6l3.64.16c-.28.91-.41 1.77-.59 2.62l-.16.78a60.84 60.84 0 0 0 9.52-1.22z"/><path d="m136.94 1a20.16 20.16 0 0 0 -.62 2.29 68 68 0 0 0 -1.22 10 11.7 11.7 0 0 0 .1 1.67c.34-.91.75-1.77 1.14-2.63l1.59 1.28a61.9 61.9 0 0 0 -1.85 6.13 6 6 0 0 0 -.13 1.2v1.06l-2.91.21a31 31 0 0 1 -1-8.21 76.45 76.45 0 0 1 1.08-10.8 20.16 20.16 0 0 0 .23-2.52zm15.81 19.42a27.06 27.06 0 0 0 -3.12-2.57c-.16 2.44-1.56 4.21-5 4.21s-5.78-1.51-5.78-4.21 2.21-4.42 5.72-4.42a11.3 11.3 0 0 1 1.69.1c-.07-1.59-.15-3.46-.18-5.28-.62 0-1.25 0-1.84 0-1.51 0-3 0-4.5-.16v-3.09a41.56 41.56 0 0 0 4.5.24h1.82c0-1.27 0-2.31-.06-2.86a14 14 0 0 0 -.19-1.68h3.69c-.08.5-.13 1.12-.16 1.67s-.07 1.53-.07 2.67a39.69 39.69 0 0 0 4-.59v3.19c-1.24.19-2.6.34-4 .45 0 2.49.18 4.55.29 6.29a16.23 16.23 0 0 1 5 3.33zm-6.4-4.19a8 8 0 0 0 -2.08-.28c-1.45 0-2.44.6-2.44 1.56s1 1.51 2.39 1.51c1.59 0 2.13-.84 2.13-2.34z"/><path d="m22.88 64.81a10.13 10.13 0 0 0 -.88 1.87 27.11 27.11 0 0 1 -4.52 8.69 24.55 24.55 0 0 1 -10.48 7.33l-3.07-2.76a20.67 20.67 0 0 0 10.47-6.42 18.56 18.56 0 0 0 3.7-7.1h-7.31a29.53 29.53 0 0 1 -6.55 6.29l-2.91-2.15a22.92 22.92 0 0 0 8.11-8.38 12.68 12.68 0 0 0 1.17-2.73l3.79 1.25c-.62.91-1.27 2.08-1.58 2.65l-.08.13h5.26a8.45 8.45 0 0 0 2.26-.31z"/><path d="m32.32 61c0 .57-.08 1.14-.08 2v8.8c0 .65 0 1.67.08 2.27h-3.85c0-.5.13-1.51.13-2.29v-8.78a19.73 19.73 0 0 0 -.1-2zm12-.23c0 .72-.1 1.56-.1 2.6v5.14c0 5.59-1.09 8-3 10.12a15.09 15.09 0 0 1 -6.31 3.77l-2.73-2.86a12.2 12.2 0 0 0 6.37-3.28c1.76-2 2.1-3.9 2.1-8v-4.85a19 19 0 0 0 -.15-2.6z"/><path d="m71.06 76.9a14.62 14.62 0 0 0 2.42-.21v3.77a21.06 21.06 0 0 0 -2.42-.13h-17.14a22.4 22.4 0 0 0 -2.54.13v-3.77a13.61 13.61 0 0 0 2.54.21h6.61v-10.61h-5c-.7 0-1.82 0-2.47.11v-3.57a18.09 18.09 0 0 0 2.47.16h14.12c.78 0 1.69-.08 2.45-.16v3.57c-.78-.06-1.69-.11-2.45-.11h-5.48v10.61z"/><path d="m91.55 78.72a18.16 18.16 0 0 0 .23 3.41h-4.11a28.11 28.11 0 0 0 .18-3.41v-8.53a50.44 50.44 0 0 1 -8.94 3.54l-1.91-3.17a40.08 40.08 0 0 0 11.83-4.71 27.33 27.33 0 0 0 6.82-5.85l2.79 2.53a43.49 43.49 0 0 1 -6.89 5.59z"/><path d="m123.16 67.85a20.78 20.78 0 0 0 2.37-.15v3.38c-.65-.06-1.64-.08-2.37-.08h-6.26a16.47 16.47 0 0 1 -1.67 6.68 12.44 12.44 0 0 1 -5.22 5l-3.01-2.22a10.76 10.76 0 0 0 4.71-3.72 11.08 11.08 0 0 0 1.57-5.74h-7.15c-.75 0-1.77 0-2.49.1v-3.4c.78.07 1.69.15 2.49.15zm-13.7-3.56c-.91 0-2 0-2.78.1v-3.39a19.35 19.35 0 0 0 2.75.18h10.46a20.25 20.25 0 0 0 2.8-.18v3.35c-.91 0-1.89-.1-2.8-.1z"/><path d="m147.55 67.1a32.15 32.15 0 0 1 -5.85 4.7v8.66a15 15 0 0 0 .18 2.81h-3.88a26.67 26.67 0 0 0 .13-2.81v-6.68a47.47 47.47 0 0 1 -7.33 2.83l-1.74-3a35 35 0 0 0 9.18-3.51 25.9 25.9 0 0 0 6.76-5.42z"/><path d="m171.6 62.91 1.64 1.09a11.67 11.67 0 0 0 -.57 1.79c-.6 2.55-1.72 6.58-3.9 9.47a20.55 20.55 0 0 1 -10.46 7.17l-2.83-3.09c5.17-1.22 8.09-3.46 10.19-6.11a16.64 16.64 0 0 0 3.07-7.33h-12.12c-1.19 0-2.41.05-3.09.1v-3.69a27.45 27.45 0 0 0 3.09.21h12a11.25 11.25 0 0 0 1.22-.05 28.7 28.7 0 0 0 -1.41-2.47l2.13-.89a33.75 33.75 0 0 1 2 3.44zm2.6-4.5c.65.94 1.59 2.53 2.08 3.44l-2.16.93a30.76 30.76 0 0 0 -2.12-3.48z"/><path d="m198.46 76.9a14.62 14.62 0 0 0 2.42-.21v3.77a21.06 21.06 0 0 0 -2.42-.13h-17.14a22.4 22.4 0 0 0 -2.54.13v-3.77a13.61 13.61 0 0 0 2.54.21h6.61v-10.61h-5c-.7 0-1.82 0-2.47.11v-3.57a18.09 18.09 0 0 0 2.47.16h14.14c.78 0 1.69-.08 2.45-.16v3.57c-.78-.06-1.69-.11-2.45-.11h-5.48v10.61z"/><path d="m205.22 68.94c.93.08 2.83.16 4.18.16h14c1.19 0 2.36-.1 3-.16v4.06c-.63 0-1.95-.13-3-.13h-14c-1.48 0-3.22 0-4.18.13z"/><path d="m238.45 70.11-1.9 2.89c-1.48-1-4.19-2.79-5.93-3.72l1.87-2.86c1.77.96 4.63 2.76 5.96 3.69zm2.08 5.89a26.27 26.27 0 0 0 10.11-9.75l2 3.54a31.36 31.36 0 0 1 -10.32 9.36 33 33 0 0 1 -8.68 3.2l-1.95-3.35a27.82 27.82 0 0 0 8.84-3zm1.89-11.8-1.92 2.9c-1.46-1-4.16-2.76-5.88-3.72l1.88-2.86c1.71.94 4.57 2.78 5.92 3.72zm7.75.8-2.26 1a23.13 23.13 0 0 0 -2.29-4.09l2.16-.91a41.87 41.87 0 0 1 2.39 4zm3.64-1.4-2.21 1a24.86 24.86 0 0 0 -2.44-3.95l2.21-.91a34 34 0 0 1 2.44 3.9z"/><path d="m274.59 78.44a19.63 19.63 0 0 0 2-.16v3.41a12.37 12.37 0 0 0 -2-.13h-14.36a14.47 14.47 0 0 0 -2.13.13v-3.41a19.63 19.63 0 0 0 2.13.16h5.31v-8.38h-4.06c-.54 0-1.48 0-2.05.11v-3.28a14.11 14.11 0 0 0 2.05.13h11.91a17.15 17.15 0 0 0 2-.13v3.28c-.65-.06-1.46-.11-2-.11h-4.45v8.38z"/><path d="m292.76 75.13a24.64 24.64 0 0 0 9.47-10.13l2 3.66a27.55 27.55 0 0 1 -9.62 9.62 28 28 0 0 1 -9.61 3.72l-2.19-3.43a26.7 26.7 0 0 0 9.95-3.44zm0-8.42-2.65 2.73a53.77 53.77 0 0 0 -6.5-5.62l2.44-2.6a54.62 54.62 0 0 1 6.71 5.49z"/><path d="m315.74 70-1.89 2.92a67.44 67.44 0 0 0 -5.93-3.7l1.9-2.88c1.74.91 4.6 2.71 5.92 3.66zm2.11 6a26.51 26.51 0 0 0 10.15-9.81l2 3.53a30.82 30.82 0 0 1 -19 12.56l-2-3.43a28.76 28.76 0 0 0 8.85-2.91zm1.9-11.83-1.95 2.83c-1.46-1-4.16-2.78-5.88-3.74l1.9-2.86c1.72.95 4.58 2.77 5.93 3.71z"/><path d="m334.18 68.94c.93.08 2.83.16 4.18.16h14c1.19 0 2.36-.1 3-.16v4.06c-.62 0-1.95-.13-3-.13h-14c-1.48 0-3.22 0-4.18.13z"/><path d="m362.21 63.07c2.15-.18 6.42-.57 11.13-1 2.65-.21 5.46-.36 7.28-.44v3.33a26.63 26.63 0 0 0 -5 .33 7.83 7.83 0 0 0 -5.44 7.21c0 4.23 3.95 5.77 8.32 6l-1.19 3.56c-5.41-.34-10.51-3.25-10.51-8.84a10.18 10.18 0 0 1 3.8-7.93c-2.24.23-7.65.8-10.64 1.45l-.33-3.53c1.1-.04 2.08-.09 2.58-.14zm16.9 7.93-2 .88a19.55 19.55 0 0 0 -2-3.61l1.93-.81a36.49 36.49 0 0 1 2.07 3.54zm3-1.28-1.95.94a22.87 22.87 0 0 0 -2.16-3.51l1.9-.88a38 38 0 0 1 2.22 3.45z"/><path d="m403.21 66.73c-.13.29-.31.84-.47 1.33 3 1 5 3.3 5 6.32 0 3.61-2.16 7.18-8.48 8.11l-1.71-2.7c5-.55 7-3.05 7-5.57a3.82 3.82 0 0 0 -2.65-3.61 20 20 0 0 1 -5.44 7.8c.18.67.39 1.3.6 1.92l-3 .89c-.11-.32-.24-.68-.34-1a9.14 9.14 0 0 1 -4 1c-1.9 0-3.48-1.15-3.48-3.77 0-3.28 2.73-6.76 6.31-8.45.08-1.1.16-2.19.26-3.23h-.81c-1.35 0-3.35-.1-4.55-.15l-.1-3a42.5 42.5 0 0 0 4.76.33h1l.15-1.37a11.61 11.61 0 0 0 .08-1.54l3.38.08a9.16 9.16 0 0 0 -.36 1.38 11.73 11.73 0 0 0 -.26 1.38 43 43 0 0 0 8.73-1.1v3a73.27 73.27 0 0 1 -9.16.93c-.07.76-.15 1.54-.18 2.32a17.12 17.12 0 0 1 3.85-.47h.44a14.65 14.65 0 0 0 .22-1.56zm-10.14 10.51a35 35 0 0 1 -.55-5.15c-1.92 1.3-3.22 3.28-3.22 4.73 0 .81.36 1.25 1.19 1.25a5.54 5.54 0 0 0 2.58-.83zm2.34-6.45a30.24 30.24 0 0 0 .28 4.26 14.45 14.45 0 0 0 3.25-4.88 12.41 12.41 0 0 0 -3.53.57z"/><path d="m417.66 60.18a43.72 43.72 0 0 0 -1 5.33c1.23-2 3.46-4.16 6.37-4.16 3.59 0 6.37 3.51 6.37 9.18 0 7.28-4.47 10.76-11.28 12l-1.95-3c5.72-.88 9.72-2.75 9.72-9 0-4-1.32-6.19-3.45-6.19-3 0-5.7 4.57-5.83 7.95a16.67 16.67 0 0 0 .13 2.73l-3.2.21a33.34 33.34 0 0 1 -.31-4.29 62.43 62.43 0 0 1 .73-8.24c.13-.94.18-2 .21-2.7z"/><path d="m439.82 82.78a49.16 49.16 0 0 0 -5.59-5.78l2.7-2.34a49 49 0 0 1 5.67 5.69z"/><path d="m20.9 128.16a20.5 20.5 0 0 0 2.37-.15v3.38c-.65 0-1.64-.08-2.37-.08h-6.26a16.47 16.47 0 0 1 -1.64 6.69 12.44 12.44 0 0 1 -5.22 5l-3-2.21a10.63 10.63 0 0 0 4.7-3.71 11.14 11.14 0 0 0 1.52-5.77h-7.13c-.75 0-1.76.05-2.49.1v-3.41a20.55 20.55 0 0 0 2.49.15zm-13.72-3.53c-.89 0-2 0-2.79.08v-3.36a19.59 19.59 0 0 0 2.79.21h8.5a20.56 20.56 0 0 0 2.81-.21v3.36c-.89-.06-1.9-.08-2.81-.08zm12.82-.63a35.92 35.92 0 0 0 -2-3.58l2.08-.86a40.59 40.59 0 0 1 2.05 3.56zm3.12-1.2a30.93 30.93 0 0 0 -2.08-3.58l2.05-.86a33.67 33.67 0 0 1 2.08 3.53z"/><path d="m35.65 130.11-1.9 2.89c-1.48-1-4.19-2.79-5.93-3.72l1.87-2.86c1.77.96 4.63 2.76 5.96 3.69zm2.08 5.89a26.27 26.27 0 0 0 10.11-9.75l2 3.54a31.36 31.36 0 0 1 -10.32 9.36 33 33 0 0 1 -8.68 3.2l-1.95-3.35a27.82 27.82 0 0 0 8.84-3zm1.89-11.8-1.92 2.9c-1.46-1-4.16-2.76-5.88-3.72l1.88-2.86c1.71.94 4.57 2.78 5.92 3.72zm7.75.8-2.26 1a23.13 23.13 0 0 0 -2.29-4.09l2.18-.91a41.87 41.87 0 0 1 2.37 4zm3.64-1.4-2.21 1a24.86 24.86 0 0 0 -2.44-3.95l2.21-.91a34 34 0 0 1 2.43 3.9z"/><path d="m75.92 124.39a12.78 12.78 0 0 0 -.86 1.85 29.48 29.48 0 0 1 -3.59 7.12c1 .6 1.85 1.2 2.5 1.67l-2.37 3a29.41 29.41 0 0 0 -2.41-1.85 24.8 24.8 0 0 1 -9.6 6.48l-3-2.63a21.88 21.88 0 0 0 9.69-5.82c-1.76-1.15-3.53-2.21-4.86-3l2.21-2.47c1.38.71 3.15 1.69 4.89 2.73a18.91 18.91 0 0 0 2.7-5.53h-7.47a30.76 30.76 0 0 1 -6.86 6.7l-2.81-2.15a23.71 23.71 0 0 0 8.29-8.64 11.27 11.27 0 0 0 1.17-2.73l3.77 1.17c-.62.91-1.3 2.11-1.61 2.66h5.3a8.36 8.36 0 0 0 2.26-.28z"/><path d="m79.59 140a12.31 12.31 0 0 0 4.41-6.19c.72-2.24.75-7.15.75-10.3a9.89 9.89 0 0 0 -.23-2.37h3.82a16.26 16.26 0 0 0 -.18 2.34c0 3.07-.08 8.56-.78 11.18a15.14 15.14 0 0 1 -4.63 7.47zm12 .39a9.38 9.38 0 0 0 .21-1.92v-15.14a11.18 11.18 0 0 0 -.21-2.24h3.91a12.85 12.85 0 0 0 -.18 2.26v13.65a16.49 16.49 0 0 0 6.42-5.48l2 2.86a28.72 28.72 0 0 1 -8.81 7.09 6.29 6.29 0 0 0 -1.15.79z"/><path d="m122.38 122.52a11 11 0 0 0 1.48-.1 3.68 3.68 0 0 1 0-.5 3.11 3.11 0 1 1 3.12 3.1 1.34 1.34 0 0 1 -.34 0l-.2.78c-.6 2.55-1.72 6.58-3.9 9.47a20.55 20.55 0 0 1 -10.54 7.14l-2.83-3.09c5.17-1.22 8.09-3.46 10.19-6.11a16.64 16.64 0 0 0 3.07-7.33h-12.09c-1.19 0-2.41.05-3.09.1v-3.67a27.45 27.45 0 0 0 3.09.21zm6-.6a1.5 1.5 0 1 0 -3 0 1.5 1.5 0 0 0 3 0z"/><path d="m153.92 137.81c0 1 .05 3.51.05 3.61h-3.59v-1.43h-12.5v1.43h-3.58c0-.13.07-2.39.07-3.64v-12.71c0-.73 0-1.79 0-2.52h2.76 14.3 2.57c-.05.78-.05 1.74-.05 2.52zm-16-11.91v10.79h12.56v-10.79z"/><path d="m178.44 123.82 1.9 1.17a13 13 0 0 0 -.86 1.87 28.18 28.18 0 0 1 -3.59 7.1c1 .63 1.85 1.2 2.5 1.67l-2.34 3.06c-.63-.54-1.49-1.17-2.42-1.84a25 25 0 0 1 -9.6 6.47l-3-2.62a21.78 21.78 0 0 0 9.67-5.83c-1.74-1.14-3.51-2.21-4.84-3l2.19-2.47c1.38.7 3.14 1.69 4.89 2.73a19.08 19.08 0 0 0 2.7-5.54h-7.46a31.13 31.13 0 0 1 -6.84 6.71l-2.81-2.16a24.18 24.18 0 0 0 8.27-8.63 12 12 0 0 0 1.17-2.73l3.77 1.17c-.62.91-1.27 2.08-1.59 2.65h5.33a8.35 8.35 0 0 0 2.05-.24 29 29 0 0 0 -1.71-3l2.05-.83a39 39 0 0 1 2.06 3.56zm2.47-5.35a36.08 36.08 0 0 1 2.09 3.53l-2.08.89a25.25 25.25 0 0 0 -2.09-3.59z"/><path d="m207 124.81a10.13 10.13 0 0 0 -.86 1.87 27.11 27.11 0 0 1 -4.52 8.69 24.55 24.55 0 0 1 -10.51 7.33l-3.11-2.76a20.67 20.67 0 0 0 10.47-6.42 18.56 18.56 0 0 0 3.7-7.1h-7.31a29.53 29.53 0 0 1 -6.55 6.29l-2.91-2.15a22.92 22.92 0 0 0 8.11-8.38 12.68 12.68 0 0 0 1.17-2.73l3.79 1.25c-.62.91-1.27 2.08-1.58 2.65l-.08.13h5.23a8.45 8.45 0 0 0 2.26-.31z"/><path d="m219.54 130-1.89 2.92a67.44 67.44 0 0 0 -5.93-3.7l1.9-2.88c1.74.91 4.6 2.71 5.92 3.66zm2.11 6a26.48 26.48 0 0 0 10.11-9.75l2 3.53a30.8 30.8 0 0 1 -19 12.56l-1.95-3.43a28.76 28.76 0 0 0 8.84-2.97zm1.9-11.83-2 2.88c-1.46-1-4.16-2.78-5.88-3.74l1.9-2.86c1.77.9 4.63 2.72 5.98 3.66z"/><path d="m254.07 141.17v1.76h-3.28a10.3 10.3 0 0 0 0-1h-9.79c-.72 0-1.79.05-2.23.08v-3.2a22.38 22.38 0 0 0 2.26.11h9.83v-3.46h-8.3c-1 0-2.23 0-2.83.05v-3.11c.68 0 1.85.08 2.83.08h8.3v-3.15h-8.58c-1 0-2.6.06-3.23.11v-3.15c.68.08 2.27.13 3.23.13h9.83 2v1.74z"/><path d="m270.92 135.13a24.64 24.64 0 0 0 9.47-10.13l2 3.66a27.55 27.55 0 0 1 -9.62 9.62 28 28 0 0 1 -9.64 3.67l-2.13-3.41a26.7 26.7 0 0 0 9.92-3.41zm0-8.42-2.65 2.73a53.77 53.77 0 0 0 -6.5-5.62l2.44-2.6a54.62 54.62 0 0 1 6.71 5.49z"/><path d="m288.37 123.07c2.15-.18 6.42-.57 11.13-1 2.65-.21 5.46-.36 7.28-.44v3.33a26.63 26.63 0 0 0 -5 .33 7.83 7.83 0 0 0 -5.44 7.21c0 4.23 4 5.77 8.32 6l-1.19 3.56c-5.41-.34-10.51-3.25-10.51-8.84a10.18 10.18 0 0 1 3.8-7.93c-2.24.23-7.65.8-10.64 1.45l-.33-3.53c1.1-.04 2.08-.09 2.58-.14zm16.9 7.93-2 .88a19.55 19.55 0 0 0 -2-3.61l1.93-.81a36.49 36.49 0 0 1 2.07 3.54zm3-1.28-1.95.94a22.87 22.87 0 0 0 -2.13-3.51l1.9-.88a38 38 0 0 1 2.19 3.45z"/><path d="m329.37 126.73c-.13.29-.31.84-.47 1.33 3 1 5 3.3 5 6.32 0 3.61-2.16 7.18-8.48 8.11l-1.71-2.7c5-.55 7-3 7-5.57a3.82 3.82 0 0 0 -2.65-3.61 20 20 0 0 1 -5.44 7.8c.19.67.39 1.3.6 1.92l-3 .89c-.11-.32-.24-.68-.34-1a9.14 9.14 0 0 1 -4 1c-1.9 0-3.48-1.15-3.48-3.77 0-3.28 2.73-6.76 6.31-8.45.08-1.1.16-2.19.26-3.23h-.83c-1.35 0-3.35-.1-4.55-.15l-.1-3a42.5 42.5 0 0 0 4.76.33h1l.15-1.37a10.13 10.13 0 0 0 .08-1.54l3.38.08a9.16 9.16 0 0 0 -.36 1.38 11.73 11.73 0 0 0 -.26 1.38 43 43 0 0 0 8.73-1.1v3a73.27 73.27 0 0 1 -9.16.93c-.07.76-.15 1.54-.18 2.32a17.19 17.19 0 0 1 3.85-.47h.52a14.65 14.65 0 0 0 .24-1.53zm-10.14 10.51a35 35 0 0 1 -.55-5.15c-1.92 1.3-3.22 3.28-3.22 4.73 0 .81.36 1.25 1.19 1.25a5.54 5.54 0 0 0 2.58-.83zm2.34-6.45a30.24 30.24 0 0 0 .28 4.26 14.45 14.45 0 0 0 3.25-4.88 12.41 12.41 0 0 0 -3.53.57z"/><path d="m344.35 120.18a40.22 40.22 0 0 0 -1 5.33c1.22-2 3.45-4.16 6.37-4.16 3.58 0 6.37 3.51 6.37 9.18 0 7.28-4.48 10.76-11.29 12l-1.95-3c5.72-.88 9.73-2.75 9.73-9 0-4-1.33-6.19-3.46-6.19-3 0-5.7 4.57-5.83 7.95a16.67 16.67 0 0 0 .13 2.73l-3.19.21a33 33 0 0 1 -.32-4.29 62.43 62.43 0 0 1 .73-8.24c.13-.94.18-2 .21-2.7z"/><path d="m367.54 142.78a49.16 49.16 0 0 0 -5.54-5.78l2.7-2.34a49 49 0 0 1 5.67 5.69z"/><path d="m20.9 188.16a20.5 20.5 0 0 0 2.37-.15v3.38c-.65 0-1.64-.08-2.37-.08h-6.26a16.47 16.47 0 0 1 -1.64 6.69 12.44 12.44 0 0 1 -5.22 5l-3-2.21a10.63 10.63 0 0 0 4.7-3.71 11.14 11.14 0 0 0 1.52-5.77h-7.13c-.75 0-1.76.05-2.49.1v-3.41a20.55 20.55 0 0 0 2.49.15zm-13.72-3.53c-.89 0-2 0-2.79.08v-3.36a19.59 19.59 0 0 0 2.79.21h8.5a20.56 20.56 0 0 0 2.81-.21v3.36c-.89-.06-1.9-.08-2.81-.08zm12.82-.63a35.92 35.92 0 0 0 -2-3.58l2.08-.86a40.59 40.59 0 0 1 2.05 3.56zm3.12-1.2a30.93 30.93 0 0 0 -2.08-3.58l2.05-.86a33.67 33.67 0 0 1 2.08 3.53z"/><path d="m47.48 185.85a15 15 0 0 0 2.86-.21v3.46c-.58 0-1.49-.08-2.84-.08h-2v.86c0 6.45-1.53 10.37-7.82 13.16l-2.79-2.63c5-1.77 7.23-4 7.23-10.4v-1h-6.12v3.54c0 1.17.08 2.21.1 2.73h-3.63a20.51 20.51 0 0 0 .16-2.73v-3.55h-2.21c-1.3 0-2.24 0-2.81.11v-3.54a16.23 16.23 0 0 0 2.81.26h2.21v-2.6a19 19 0 0 0 -.16-2.34h3.7a18.85 18.85 0 0 0 -.16 2.37v2.57h6.16v-2.76a17.94 17.94 0 0 0 -.17-2.37h3.71a17.16 17.16 0 0 0 -.18 2.39v2.76zm-.11-1a34.53 34.53 0 0 0 -1.32-3.56l1.74-.58a27.25 27.25 0 0 1 1.38 3.57zm2.73-.85a23.7 23.7 0 0 0 -1.4-3.54l1.77-.57c.49 1 1.09 2.55 1.43 3.54z"/><path d="m68.67 198.72a18.16 18.16 0 0 0 .23 3.41h-4.11a28.11 28.11 0 0 0 .18-3.41v-8.53a50.44 50.44 0 0 1 -8.97 3.54l-1.87-3.17a39.81 39.81 0 0 0 11.87-4.71 27.33 27.33 0 0 0 6.77-5.85l2.79 2.53a43.49 43.49 0 0 1 -6.89 5.59z"/><path d="m91 195.13a24.54 24.54 0 0 0 9.46-10.13l2 3.66a27.65 27.65 0 0 1 -9.62 9.63 28.16 28.16 0 0 1 -9.61 3.71l-2.23-3.46a26.7 26.7 0 0 0 10-3.41zm0-8.42-2.65 2.73a53.77 53.77 0 0 0 -6.5-5.62l2.44-2.6a54.62 54.62 0 0 1 6.71 5.49z"/><path d="m125.19 183.35a12 12 0 0 0 -.91 1.62 38.35 38.35 0 0 1 -4.08 7.15 72.6 72.6 0 0 1 7.25 7.43l-3 2.58a59.89 59.89 0 0 0 -6.55-7.36 34.18 34.18 0 0 1 -9.78 7.3l-2.68-2.8a29.55 29.55 0 0 0 10.66-7.46 20.35 20.35 0 0 0 3.88-6.38h-8.78c-1.09 0-2.52.16-3.07.19v-3.7a27.65 27.65 0 0 0 3.07.19h9.15a9.46 9.46 0 0 0 2.71-.34z"/><path d="m152.88 184.39a12.78 12.78 0 0 0 -.86 1.85 29.48 29.48 0 0 1 -3.59 7.12c1 .6 1.85 1.2 2.5 1.67l-2.37 3a27.44 27.44 0 0 0 -2.41-1.84 24.9 24.9 0 0 1 -9.6 6.47l-3-2.63a21.88 21.88 0 0 0 9.69-5.82c-1.76-1.15-3.53-2.21-4.86-3l2.21-2.47c1.38.71 3.15 1.69 4.89 2.73a18.91 18.91 0 0 0 2.7-5.53h-7.46a30.76 30.76 0 0 1 -6.86 6.7l-2.86-2.08a23.71 23.71 0 0 0 8.29-8.64 11.27 11.27 0 0 0 1.17-2.73l3.77 1.17c-.62.91-1.3 2.11-1.61 2.66h5.38a8.36 8.36 0 0 0 2.26-.28z"/><path d="m166.17 190.11-1.9 2.92c-1.48-1-4.19-2.79-5.93-3.72l1.87-2.86c1.79.93 4.63 2.73 5.96 3.66zm2.08 5.93a26.27 26.27 0 0 0 10.11-9.75l2 3.54a31.36 31.36 0 0 1 -10.36 9.36 33 33 0 0 1 -8.68 3.2l-2-3.41a27.82 27.82 0 0 0 8.93-2.98zm1.89-11.8-1.92 2.86c-1.46-1-4.16-2.76-5.88-3.72l1.88-2.86c1.71.94 4.57 2.78 5.92 3.72zm7.75.8-2.26 1a23.13 23.13 0 0 0 -2.29-4.09l2.16-.91a41.87 41.87 0 0 1 2.39 3.96zm3.64-1.4-2.21 1a24.86 24.86 0 0 0 -2.44-3.95l2.21-.91a32.63 32.63 0 0 1 2.44 3.86z"/><path d="m203.45 184.65a20.74 20.74 0 0 0 2.7-.2v3.45c-.83 0-1.82-.07-2.52-.07h-3.35c.08 3.79.18 8.14.23 11.65 0 1.66-.93 2.62-2.91 2.62-1.59 0-3 0-4.52-.16l-.29-3.38a21.9 21.9 0 0 0 3.46.32c.65 0 .91-.34.91-1.1 0-1.74 0-4.34 0-7a35.71 35.71 0 0 1 -10.61 8.79l-2.39-2.7a31.4 31.4 0 0 0 11.44-9h-7.1c-.94 0-2.06 0-3 .1v-3.46a23.84 23.84 0 0 0 2.89.18h8.61c0-.67-.06-1.3-.08-1.87-.05-.75-.13-1.71-.26-2.62h3.69a23 23 0 0 0 -.16 2.62v1.87z"/><path d="m213 183.07c2.15-.18 6.42-.57 11.12-1 2.66-.21 5.46-.36 7.28-.44v3.33a26.79 26.79 0 0 0 -5 .33 7.82 7.82 0 0 0 -5.43 7.21c0 4.23 3.95 5.77 8.32 6l-1.2 3.56c-5.4-.34-10.5-3.25-10.5-8.84a10.18 10.18 0 0 1 3.8-7.93c-2.24.23-7.65.8-10.64 1.45l-.34-3.53c1.07-.04 2.06-.09 2.59-.14zm16.9 7.93-2 .88a20.15 20.15 0 0 0 -2-3.61l1.93-.81a36.49 36.49 0 0 1 2.04 3.54zm3-1.27-1.95.93a22.87 22.87 0 0 0 -2.13-3.51l1.9-.88a36.77 36.77 0 0 1 2.16 3.46z"/><path d="m254 186.73c-.13.29-.31.84-.47 1.33 3 1 5 3.3 5 6.32 0 3.61-2.16 7.18-8.48 8.11l-1.72-2.7c5-.55 7-3 7-5.57a3.82 3.82 0 0 0 -2.65-3.61 20 20 0 0 1 -5.44 7.8c.18.67.39 1.3.6 1.92l-3 .89c-.11-.32-.24-.68-.34-1a9.14 9.14 0 0 1 -4 1c-1.9 0-3.48-1.15-3.48-3.77 0-3.28 2.73-6.76 6.31-8.45.08-1.1.16-2.19.26-3.23h-.83c-1.35 0-3.35-.1-4.55-.15l-.1-3a42.5 42.5 0 0 0 4.76.33h1l.16-1.37a11.61 11.61 0 0 0 .08-1.54l3.38.08a10.76 10.76 0 0 0 -.37 1.38c-.1.41-.18.88-.26 1.38a43.08 43.08 0 0 0 8.74-1.1v3a73.47 73.47 0 0 1 -9.16.93c-.07.76-.15 1.54-.18 2.32a17.12 17.12 0 0 1 3.85-.47h.44a14.65 14.65 0 0 0 .24-1.53zm-10.14 10.51a35 35 0 0 1 -.55-5.15c-1.92 1.3-3.22 3.28-3.22 4.73 0 .81.36 1.25 1.19 1.25a5.54 5.54 0 0 0 2.55-.83zm2.34-6.45a30.49 30.49 0 0 0 .28 4.27 14.6 14.6 0 0 0 3.25-4.89 12.41 12.41 0 0 0 -3.53.57z"/><path d="m268.94 180.18a43.72 43.72 0 0 0 -1 5.33c1.23-2 3.46-4.16 6.37-4.16 3.59 0 6.38 3.51 6.38 9.18 0 7.28-4.48 10.77-11.29 12l-1.95-3c5.72-.88 9.73-2.75 9.73-9 0-4-1.33-6.19-3.46-6.19-3 0-5.7 4.57-5.83 7.95a16.82 16.82 0 0 0 .13 2.74l-3.2.2a33.34 33.34 0 0 1 -.31-4.29 62.43 62.43 0 0 1 .73-8.24c.13-.94.18-2 .21-2.7z"/><path d="m292.14 202.78a49.16 49.16 0 0 0 -5.59-5.75l2.7-2.34a48.33 48.33 0 0 1 5.67 5.7z"/><path d="m20.28 242.91 1.64 1.09a11.67 11.67 0 0 0 -.57 1.79c-.6 2.55-1.72 6.58-3.9 9.47a20.55 20.55 0 0 1 -10.45 7.15l-2.83-3.09c5.17-1.22 8.09-3.46 10.19-6.11a16.64 16.64 0 0 0 3.07-7.33h-12.13c-1.19 0-2.41.05-3.09.1v-3.67a27.45 27.45 0 0 0 3.09.21h12a11.25 11.25 0 0 0 1.22-.05 28.7 28.7 0 0 0 -1.41-2.47l2.13-.89a33.75 33.75 0 0 1 2 3.44zm2.6-4.5c.65.94 1.59 2.53 2.08 3.44l-2.16.93a30.76 30.76 0 0 0 -2.08-3.48z"/><path d="m48.49 248.58a9.82 9.82 0 0 0 -.49 1.09 18.64 18.64 0 0 1 -3.85 7.2 19.42 19.42 0 0 1 -9.28 5.62l-2.6-2.94a17.5 17.5 0 0 0 9-4.55 11.34 11.34 0 0 0 2.73-4.5h-12.59c-.63 0-1.93 0-3 .13v-3.38c1.09.11 2.21.16 3 .16h12.87a5.43 5.43 0 0 0 1.9-.26zm-17.71-7.58a22.79 22.79 0 0 0 2.71.13h10a25.59 25.59 0 0 0 2.81-.13v3.35c-.71 0-1.93-.07-2.86-.07h-10c-.83 0-2 0-2.71.07z"/><path d="m64 255.13a24.54 24.54 0 0 0 9.42-10.13l2 3.66a27.65 27.65 0 0 1 -9.62 9.63 28.16 28.16 0 0 1 -9.61 3.71l-2.19-3.46a26.7 26.7 0 0 0 10-3.41zm0-8.42-2.65 2.73a53.77 53.77 0 0 0 -6.5-5.62l2.44-2.6a54.62 54.62 0 0 1 6.71 5.49z"/><path d="m87.39 247.72a90.65 90.65 0 0 1 10.86 4.06l-1.45 3.61a69.57 69.57 0 0 0 -9.41-3.87v7.36c0 .72.13 2.55.26 3.61h-4.09a27.39 27.39 0 0 0 .26-3.61v-14.95a17.62 17.62 0 0 0 -.26-3.15h4.06a29.24 29.24 0 0 0 -.23 3.15zm6.91-1.14a20.67 20.67 0 0 0 -2.29-4l2.19-.93a43.32 43.32 0 0 1 2.36 3.92zm3.56-1.46a24.24 24.24 0 0 0 -2.41-3.9l2.15-1a33.94 33.94 0 0 1 2.45 3.85z"/><path d="m120.87 261.56c0-.42 0-.86 0-1.36h-11.87c-1 0-2.49.08-3.35.16v-3.72c.91.08 2.08.16 3.25.16h12v-10.8h-11.65c-1.09 0-2.49.05-3.22.11v-3.62c1 .11 2.31.16 3.22.16h13.08c.75 0 1.85 0 2.29-.05 0 .59-.08 1.63-.08 2.39v13.47c0 .91 0 2.28.1 3.07z"/><path d="m141.44 255.13a24.54 24.54 0 0 0 9.46-10.13l2 3.66a27.65 27.65 0 0 1 -9.62 9.63 28.16 28.16 0 0 1 -9.64 3.66l-2.19-3.43a26.7 26.7 0 0 0 9.99-3.39zm0-8.42-2.65 2.73a53.77 53.77 0 0 0 -6.5-5.62l2.44-2.6a54.62 54.62 0 0 1 6.71 5.49z"/><path d="m175.84 245.43a15.42 15.42 0 0 0 2.86-.18v3.46c-.57-.05-1.48-.08-2.86-.08h-1.93v.86c0 6.45-1.56 10.37-7.82 13.13l-2.78-2.62c5-1.74 7.22-4 7.22-10.37v-1h-6.16v3.54c0 1.14.08 2.21.11 2.73h-3.64a22.89 22.89 0 0 0 .15-2.73v-3.54h-2.21c-1.3 0-2.23.05-2.81.11v-3.54a17.14 17.14 0 0 0 2.81.23h2.22v-2.57a21.84 21.84 0 0 0 -.15-2.34h3.69a15.64 15.64 0 0 0 -.16 2.37v2.54h6.16v-2.73a16.91 16.91 0 0 0 -.15-2.41h3.69a22.48 22.48 0 0 0 -.16 2.41v2.73z"/><path d="m182 260a12.31 12.31 0 0 0 4.42-6.21c.72-2.24.75-7.15.75-10.3a9.89 9.89 0 0 0 -.23-2.37h3.82a16.26 16.26 0 0 0 -.18 2.34c0 3.07-.08 8.56-.78 11.18a15.14 15.14 0 0 1 -4.63 7.47zm12 .39a9.38 9.38 0 0 0 .21-1.92v-15.14a11.18 11.18 0 0 0 -.21-2.24h3.88a12.85 12.85 0 0 0 -.18 2.26v13.65a16.49 16.49 0 0 0 6.42-5.48l2 2.86a28.9 28.9 0 0 1 -8.81 7.1 6.33 6.33 0 0 0 -1.15.77z"/><path d="m229.24 247.85a20.78 20.78 0 0 0 2.37-.15v3.38c-.61-.08-1.61-.08-2.37-.08h-6.24a16.47 16.47 0 0 1 -1.67 6.68 12.44 12.44 0 0 1 -5.22 5l-3.11-2.22a10.76 10.76 0 0 0 4.71-3.72 11.08 11.08 0 0 0 1.61-5.74h-7.15c-.75 0-1.77.05-2.49.1v-3.4c.78.07 1.69.15 2.49.15zm-13.7-3.56c-.91 0-2 .05-2.78.1v-3.39a19.35 19.35 0 0 0 2.75.18h10.49a20.25 20.25 0 0 0 2.8-.18v3.35c-.91 0-1.89-.1-2.8-.1z"/><path d="m254.15 247.1a32.15 32.15 0 0 1 -5.85 4.7v8.66a15 15 0 0 0 .18 2.81h-3.85a26.67 26.67 0 0 0 .13-2.81v-6.68a47.47 47.47 0 0 1 -7.33 2.83l-1.74-3a35 35 0 0 0 9.18-3.51 25.9 25.9 0 0 0 6.68-5.41z"/><path d="m271.44 255.13a24.54 24.54 0 0 0 9.46-10.13l2 3.66a27.65 27.65 0 0 1 -9.62 9.63 28.16 28.16 0 0 1 -9.64 3.66l-2.19-3.43a26.7 26.7 0 0 0 9.99-3.39zm0-8.42-2.65 2.73a53.77 53.77 0 0 0 -6.5-5.62l2.44-2.6a54.62 54.62 0 0 1 6.71 5.49z"/><path d="m304.85 244.06 2.21 1.35a10.8 10.8 0 0 0 -.86 1.84 26.19 26.19 0 0 1 -4.55 8.69 24.23 24.23 0 0 1 -10.48 7.36l-3.06-2.76a20.78 20.78 0 0 0 10.47-6.45 18.45 18.45 0 0 0 3.7-7.07h-7.34a28.29 28.29 0 0 1 -6.55 6.29l-2.91-2.18a22.18 22.18 0 0 0 8.11-8.35 11 11 0 0 0 1.17-2.73l3.82 1.25c-.62.91-1.3 2.08-1.61 2.65l-.07.13h5.22a8.22 8.22 0 0 0 2.26-.31l.18.1a28.86 28.86 0 0 0 -1.89-3.35l2.05-.83a36.64 36.64 0 0 1 2 3.56zm2.94-5.54a36.47 36.47 0 0 1 2.11 3.53l-2.09.89a23.91 23.91 0 0 0 -2.08-3.59z"/><path d="m333.58 243.67a10.72 10.72 0 0 0 -.57 1.82c-.6 2.54-1.74 6.57-3.9 9.46a20.84 20.84 0 0 1 -10.45 7.18l-2.84-3.13c5.15-1.2 8.09-3.46 10.2-6.09a16.55 16.55 0 0 0 3-7.33h-12.08c-1.17 0-2.42 0-3.09.1v-3.68c.78.08 2.26.21 3.12.21h12a8.79 8.79 0 0 0 2-.21z"/><path d="m358.54 248a8.28 8.28 0 0 0 -.78 1 29.78 29.78 0 0 1 -5.17 6.16l-2.6-1.82a14.57 14.57 0 0 0 3.74-3.95h-11.28a26 26 0 0 0 -2.71.15v-3.35a18.47 18.47 0 0 0 2.71.21h12.06a10.51 10.51 0 0 0 2.11-.18zm-8.92 2.73c-.15 4.86-.15 9.44-6.24 12.77l-2.75-2.22a9.58 9.58 0 0 0 2.1-1.11c2.94-2 3.49-4.32 3.49-7.6a9.71 9.71 0 0 0 -.19-1.84z"/><path d="m363.82 248.94c.93.08 2.83.16 4.18.16h14c1.19 0 2.36-.1 3-.16v4.06c-.62 0-1.95-.13-3-.13h-14c-1.48 0-3.22 0-4.18.13z"/><path d="m408.69 262.15c-.33-.88-.75-1.95-1.22-3.07-4.24.5-12.11 1.33-15.39 1.67l-2.44.31-.6-3.79h2.86.7c1.51-3.85 3.74-11 4.5-13.67a19.49 19.49 0 0 0 .62-3l4.14.83a28.28 28.28 0 0 0 -1.12 2.88c-.83 2.55-2.94 9.16-4.24 12.64 3.17-.31 6.86-.73 9.49-1a31.69 31.69 0 0 0 -2.73-4.76l3.25-1.32a79.59 79.59 0 0 1 5.7 10.81z"/><path d="m416.81 243.07c2.15-.18 6.42-.57 11.13-1 2.65-.21 5.46-.36 7.28-.44v3.33a26.79 26.79 0 0 0 -5 .33 7.82 7.82 0 0 0 -5.43 7.21c0 4.23 4 5.77 8.32 6l-1.11 3.55c-5.41-.34-10.51-3.25-10.51-8.84a10.18 10.18 0 0 1 3.8-7.93c-2.24.23-7.65.8-10.64 1.45l-.34-3.53c1.01-.03 2-.08 2.5-.13zm16.9 7.93-2 .88a20.15 20.15 0 0 0 -2-3.61l1.93-.81a36.49 36.49 0 0 1 2.07 3.54zm3-1.28-2 .94a22.87 22.87 0 0 0 -2.13-3.51l1.9-.88a38 38 0 0 1 2.24 3.45z"/><path d="m457.81 246.73c-.13.29-.31.84-.47 1.33 3 1 5 3.3 5 6.32 0 3.61-2.16 7.18-8.48 8.11l-1.72-2.7c5-.55 7-3.05 7-5.57a3.82 3.82 0 0 0 -2.65-3.61 20 20 0 0 1 -5.44 7.8c.18.67.39 1.3.6 1.92l-3 .89c-.11-.32-.24-.68-.34-1a9.14 9.14 0 0 1 -4 1c-1.9 0-3.48-1.15-3.48-3.77 0-3.28 2.73-6.76 6.31-8.45.08-1.1.16-2.19.26-3.23h-.83c-1.35 0-3.35-.1-4.55-.15l-.1-3a42.5 42.5 0 0 0 4.76.33h1l.16-1.37a11.61 11.61 0 0 0 .08-1.54l3.38.08a10.76 10.76 0 0 0 -.37 1.38c-.1.41-.18.88-.25 1.38a43 43 0 0 0 8.73-1.1v3a73.27 73.27 0 0 1 -9.16.93c-.07.76-.15 1.54-.18 2.32a17.12 17.12 0 0 1 3.85-.47h.44a14.65 14.65 0 0 0 .24-1.53zm-10.14 10.51a35 35 0 0 1 -.55-5.15c-1.92 1.3-3.22 3.28-3.22 4.73 0 .81.36 1.25 1.19 1.25a5.54 5.54 0 0 0 2.58-.83zm2.34-6.45a30.24 30.24 0 0 0 .28 4.26 14.45 14.45 0 0 0 3.25-4.88 12.41 12.41 0 0 0 -3.53.57z"/><path d="m473.82 240.18a43.72 43.72 0 0 0 -1 5.33c1.23-2 3.46-4.16 6.37-4.16 3.59 0 6.37 3.51 6.37 9.18 0 7.28-4.47 10.76-11.28 12l-1.95-3c5.72-.88 9.73-2.75 9.73-9 0-4-1.33-6.19-3.46-6.19-3.05 0-5.7 4.57-5.83 7.95a16.67 16.67 0 0 0 .13 2.73l-3.2.21a33.34 33.34 0 0 1 -.31-4.29 62.43 62.43 0 0 1 .73-8.24c.13-.94.18-2 .21-2.7z"/><path d="m497 262.78a49.16 49.16 0 0 0 -5.59-5.75l2.7-2.34a48.33 48.33 0 0 1 5.67 5.7z"/><path d="m15.63 318.72a18.16 18.16 0 0 0 .23 3.41h-4.11a28.11 28.11 0 0 0 .18-3.41v-8.53a50.44 50.44 0 0 1 -8.93 3.54l-1.87-3.17a40.08 40.08 0 0 0 11.87-4.71 27.33 27.33 0 0 0 6.73-5.85l2.79 2.53a43.49 43.49 0 0 1 -6.89 5.59z"/><path d="m44 304.86a36.38 36.38 0 0 1 -4.89 9.54 25.92 25.92 0 0 1 -9.86 7.54l-3-3a22.57 22.57 0 0 0 9.88-6.76 26.26 26.26 0 0 0 4.91-11.23l4.06 1a29.89 29.89 0 0 0 -1.1 2.91z"/><path d="m52 311.62c1.2-1.19 3.23-3.74 5-5.87 1.56-1.85 3-2 5.09-.24a69.53 69.53 0 0 1 5.31 5.28c1.74 1.9 4.52 4.86 6.39 7l-2.78 3c-1.66-2.14-4-5-5.56-6.81a56.58 56.58 0 0 0 -4.79-5.15c-.91-.78-1.35-.78-2.1.15-1 1.3-2.89 3.88-4 5.31-.59.8-1.22 1.74-1.66 2.41l-3.07-3.14c.79-.56 1.36-1.16 2.17-1.94zm17.81-4.5-2.34 1a24.23 24.23 0 0 0 -2.36-4.24l2.26-.94a42.27 42.27 0 0 1 2.41 4.18zm3.57-1.53-2.27 1.09a27 27 0 0 0 -2.49-4.13l2.23-1a37.33 37.33 0 0 1 2.5 4.04z"/><path d="m77.3 308.94c.93.08 2.83.16 4.18.16h14c1.19 0 2.36-.1 3-.16v4.06c-.63 0-1.95-.13-3-.13h-14c-1.48 0-3.22.05-4.18.13z"/><path d="m110.86 310-1.86 2.9a67.44 67.44 0 0 0 -5.93-3.7l1.9-2.88c1.71.93 4.57 2.73 5.89 3.68zm2.11 6a26.48 26.48 0 0 0 10.11-9.75l2 3.53a30.8 30.8 0 0 1 -19 12.56l-2-3.43a28.76 28.76 0 0 0 8.92-2.97zm1.9-11.83-2 2.88c-1.46-1-4.16-2.78-5.88-3.74l1.9-2.86c1.77.9 4.63 2.72 5.98 3.66z"/><path d="m145.91 321.16v1.77h-3.28a10.3 10.3 0 0 0 0-1h-9.86c-.72 0-1.79.05-2.23.08v-3.2a22.38 22.38 0 0 0 2.26.11h9.83v-3.46h-8.3c-1 0-2.23 0-2.83.05v-3.11c.68.05 1.85.08 2.83.08h8.3v-3.15h-8.58c-1 0-2.6.06-3.23.11v-3.15c.68.08 2.27.13 3.23.13h9.83c.62 0 1.58 0 2-.05v1.74z"/><path d="m163.28 315.13a24.54 24.54 0 0 0 9.46-10.13l2 3.66a27.65 27.65 0 0 1 -9.62 9.63 28.16 28.16 0 0 1 -9.64 3.66l-2.19-3.43a26.7 26.7 0 0 0 9.99-3.39zm0-8.42-2.65 2.73a53.77 53.77 0 0 0 -6.5-5.62l2.44-2.6a54.62 54.62 0 0 1 6.71 5.49z"/><path d="m199.29 308.58a9.82 9.82 0 0 0 -.49 1.09 18.64 18.64 0 0 1 -3.85 7.2 19.42 19.42 0 0 1 -9.28 5.62l-2.6-2.94a17.5 17.5 0 0 0 9-4.55 11.34 11.34 0 0 0 2.68-4.5h-12.54c-.63 0-1.93 0-3 .13v-3.38c1.09.11 2.21.16 3 .16h12.87a5.43 5.43 0 0 0 1.9-.26zm-17.71-7.58a22.79 22.79 0 0 0 2.71.13h10a25.59 25.59 0 0 0 2.81-.13v3.35c-.71-.05-1.93-.07-2.86-.07h-10c-.83 0-1.95 0-2.71.07z"/><path d="m211.17 311.65a40.46 40.46 0 0 1 -5 7.25l-2.8-1.92a27.16 27.16 0 0 0 4.88-6.71zm5.88-3.69v12.09c0 1.51-.86 2.44-2.71 2.44a38.84 38.84 0 0 1 -4.23-.23l-.32-3.23a18 18 0 0 0 2.89.32c.68 0 .94-.27 1-.94 0-1 0-9.21 0-10.43h-6.61c-.78 0-1.79 0-2.52.1v-3.48a19.17 19.17 0 0 0 2.52.21h6.61v-2.08a12.73 12.73 0 0 0 -.24-2.26h3.85a21.57 21.57 0 0 0 -.23 2.26v2.08h6.06a20.94 20.94 0 0 0 2.54-.18v3.37c-.8 0-1.82-.07-2.52-.07zm5.3 2.23a60.3 60.3 0 0 1 4.45 6.81l-3.07 1.66a49.25 49.25 0 0 0 -4.21-7zm-.26-5.95a27.91 27.91 0 0 0 -2-3.43l2.06-.86a33.07 33.07 0 0 1 2 3.4zm3.46-.76a25.76 25.76 0 0 0 -2-3.43l2.06-.83a28.39 28.39 0 0 1 2 3.35z"/><path d="m233.77 303.07c2.15-.18 6.42-.57 11.12-1 2.66-.21 5.46-.36 7.28-.44v3.33a26.79 26.79 0 0 0 -5 .33 7.82 7.82 0 0 0 -5.43 7.21c0 4.23 3.95 5.77 8.32 6l-1.2 3.56c-5.4-.34-10.5-3.25-10.5-8.84a10.18 10.18 0 0 1 3.8-7.93c-2.24.23-7.65.8-10.64 1.45l-.34-3.53c1.1-.04 2.09-.09 2.59-.14zm16.9 7.93-2 .88a20.15 20.15 0 0 0 -2-3.61l1.93-.81a36.49 36.49 0 0 1 2.07 3.54zm3-1.28-2 .94a22.87 22.87 0 0 0 -2.13-3.51l1.9-.88a38 38 0 0 1 2.24 3.45z"/><path d="m274.77 306.73c-.13.29-.31.84-.47 1.33 3 1 5 3.3 5 6.32 0 3.61-2.16 7.18-8.48 8.11l-1.72-2.7c5-.55 7-3.05 7-5.57a3.82 3.82 0 0 0 -2.65-3.61 20 20 0 0 1 -5.44 7.8c.18.67.39 1.3.6 1.92l-3 .89c-.11-.32-.24-.68-.34-1a9.14 9.14 0 0 1 -4 1c-1.9 0-3.48-1.15-3.48-3.77 0-3.28 2.73-6.76 6.31-8.45.08-1.1.16-2.19.27-3.23h-.84c-1.35 0-3.35-.1-4.55-.15l-.1-3a42.5 42.5 0 0 0 4.76.33h1l.16-1.37a11.61 11.61 0 0 0 .08-1.54l3.38.08a10.76 10.76 0 0 0 -.37 1.38c-.1.41-.18.88-.25 1.38a43 43 0 0 0 8.73-1.1v3a73.27 73.27 0 0 1 -9.16.93c-.07.76-.15 1.54-.18 2.32a17.12 17.12 0 0 1 3.85-.47h.44a14.65 14.65 0 0 0 .24-1.53zm-10.14 10.51a35 35 0 0 1 -.55-5.15c-1.92 1.3-3.22 3.28-3.22 4.73 0 .81.36 1.25 1.19 1.25a5.54 5.54 0 0 0 2.58-.83zm2.34-6.45a30.24 30.24 0 0 0 .28 4.26 14.45 14.45 0 0 0 3.25-4.88 12.41 12.41 0 0 0 -3.53.57z"/><path d="m290.27 300.18a40.22 40.22 0 0 0 -1 5.33c1.22-2 3.45-4.16 6.37-4.16 3.58 0 6.37 3.51 6.37 9.18 0 7.28-4.48 10.76-11.29 12l-1.95-3c5.72-.88 9.73-2.75 9.73-9 0-4-1.33-6.19-3.46-6.19-3 0-5.7 4.57-5.83 7.95a16.67 16.67 0 0 0 .13 2.73l-3.2.21a35.26 35.26 0 0 1 -.31-4.29 62.43 62.43 0 0 1 .73-8.24c.13-.94.18-2 .21-2.7z"/><path d="m313.46 322.78a49.16 49.16 0 0 0 -5.59-5.75l2.7-2.34a48.33 48.33 0 0 1 5.67 5.7z"/><path d="m21.48 361.9a19.24 19.24 0 0 0 -1.07 2.31 37 37 0 0 1 -3.51 7.07 68.82 68.82 0 0 1 6.19 5.72l-2.68 3a52.62 52.62 0 0 0 -5.75-5.72 32.24 32.24 0 0 1 -9.67 8l-3-2.68a28.37 28.37 0 0 0 9.89-7.6 64.56 64.56 0 0 0 -7-4.91l2.24-2.68c2.08 1.3 4.76 3.12 6.86 4.68a28.22 28.22 0 0 0 2.86-6.16 18 18 0 0 0 .63-2.4z"/><path d="m46.9 368.16a20.5 20.5 0 0 0 2.37-.15v3.38c-.65-.05-1.64-.08-2.37-.08h-6.26a16.47 16.47 0 0 1 -1.64 6.69 12.44 12.44 0 0 1 -5.22 5l-3-2.21a10.63 10.63 0 0 0 4.7-3.71 11.14 11.14 0 0 0 1.52-5.77h-7.13c-.75 0-1.76.05-2.49.1v-3.41a20.55 20.55 0 0 0 2.49.15zm-13.72-3.53c-.89 0-2 0-2.79.08v-3.36a19.59 19.59 0 0 0 2.79.21h8.5a20.56 20.56 0 0 0 2.81-.21v3.36c-.89-.06-1.9-.08-2.81-.08zm12.82-.63a35.92 35.92 0 0 0 -2-3.58l2.08-.86a40.59 40.59 0 0 1 2.05 3.56zm3.12-1.2a30.93 30.93 0 0 0 -2.08-3.58l2-.86a33.67 33.67 0 0 1 2.08 3.53z"/><path d="m71.63 367.1a32.15 32.15 0 0 1 -5.85 4.7v8.66a15 15 0 0 0 .18 2.81h-3.85a26.67 26.67 0 0 0 .13-2.81v-6.68a47.47 47.47 0 0 1 -7.33 2.83l-1.74-3a35 35 0 0 0 9.18-3.51 25.9 25.9 0 0 0 6.65-5.42z"/><path d="m100.26 363.38a13.64 13.64 0 0 0 -1 1.35 26.16 26.16 0 0 1 -6.26 7.13l-2.7-2.16a15.38 15.38 0 0 0 4.78-4.84h-13.54c-1.1 0-2 .08-3.18.18v-3.61a20.17 20.17 0 0 0 3.18.26h14a13.47 13.47 0 0 0 2.63-.23zm-10.61 3.51c0 6.45-.13 11.75-7.23 15.55l-3-2.47a10.3 10.3 0 0 0 2.73-1.43c3.31-2.29 3.93-5.05 3.93-9.31a14.36 14.36 0 0 0 -.18-2.34z"/><path d="m126.26 363.38a13.64 13.64 0 0 0 -1 1.35 26.16 26.16 0 0 1 -6.26 7.13l-2.68-2.16a15.38 15.38 0 0 0 4.78-4.84h-13.56c-1.1 0-2 .08-3.18.18v-3.61a20.17 20.17 0 0 0 3.18.26h14a13.47 13.47 0 0 0 2.63-.23zm-10.61 3.51c0 6.45-.13 11.75-7.23 15.55l-3-2.47a10.3 10.3 0 0 0 2.73-1.43c3.31-2.29 3.93-5.05 3.93-9.31a14.36 14.36 0 0 0 -.18-2.34z"/><path d="m129.82 368.94c.93.08 2.83.16 4.18.16h14c1.19 0 2.36-.1 3-.16v4.06c-.63 0-1.95-.13-3-.13h-14c-1.48 0-3.22.05-4.18.13z"/><path d="m175.16 367.85a20.78 20.78 0 0 0 2.37-.15v3.38c-.65-.06-1.64-.08-2.37-.08h-6.26a16.47 16.47 0 0 1 -1.67 6.68 12.44 12.44 0 0 1 -5.22 5l-3-2.21a10.76 10.76 0 0 0 4.71-3.72 11.08 11.08 0 0 0 1.61-5.74h-7.15c-.75 0-1.77.05-2.49.1v-3.4c.78.07 1.69.15 2.49.15zm-13.7-3.56c-.91 0-2 0-2.78.1v-3.39a19.35 19.35 0 0 0 2.75.18h10.46a20.25 20.25 0 0 0 2.8-.18v3.35c-.91-.05-1.89-.1-2.8-.1z"/><path d="m200.59 367.1a32.15 32.15 0 0 1 -5.85 4.7v8.66a15 15 0 0 0 .18 2.81h-3.85a26.67 26.67 0 0 0 .13-2.81v-6.68a47.47 47.47 0 0 1 -7.33 2.83l-1.74-3a35 35 0 0 0 9.18-3.51 25.9 25.9 0 0 0 6.68-5.41z"/><path d="m225.55 363.35a12 12 0 0 0 -.91 1.62 38.35 38.35 0 0 1 -4.08 7.15 72.6 72.6 0 0 1 7.25 7.43l-3 2.58a59.17 59.17 0 0 0 -6.55-7.36 34.18 34.18 0 0 1 -9.78 7.3l-2.68-2.8a29.45 29.45 0 0 0 10.66-7.47 20.2 20.2 0 0 0 3.88-6.37h-8.82c-1.09 0-2.52.16-3.07.19v-3.7a27.65 27.65 0 0 0 3.07.19h9.15a9.46 9.46 0 0 0 2.71-.34z"/><path d="m250.46 375a75.43 75.43 0 0 0 -9.39-3.87v7.36c0 .75.13 2.57.24 3.61h-4.06a27 27 0 0 0 .26-3.61v-14.93a18.31 18.31 0 0 0 -.26-3.14h4.06a26.77 26.77 0 0 0 -.24 3.14v3.82a85.41 85.41 0 0 1 10.87 4z"/><path d="m276 368.68c.54 0 1.79-.1 2.36-.15v3.35c-.7-.05-1.58-.1-2.28-.1h-6.74a13 13 0 0 1 -6.66 10.69l-3.3-2.24c4-1.82 6-4.6 6.53-8.45h-7.15c-.81 0-1.77.05-2.45.1v-3.35a22.39 22.39 0 0 0 2.4.15h7.33v-3.68c-2.5.21-5.23.29-7 .34l-.81-3a61 61 0 0 0 8.87-.41 28.37 28.37 0 0 0 6.55-1.56l2.13 2.86-2 .49a40.29 40.29 0 0 1 -4.37.86v4.13z"/><path d="m282.7 368.94c.93.08 2.83.16 4.18.16h14c1.19 0 2.36-.1 3-.16v4.06c-.62 0-1.95-.13-3-.13h-14c-1.48 0-3.22.05-4.18.13z"/><path d="m327.57 382.15c-.33-.88-.75-1.95-1.22-3.07-4.24.5-12.11 1.33-15.39 1.67l-2.44.31-.6-3.79h2.86.7c1.51-3.85 3.74-11 4.5-13.67a19.49 19.49 0 0 0 .62-3l4.14.83a28.28 28.28 0 0 0 -1.12 2.88c-.83 2.55-2.94 9.16-4.24 12.64 3.17-.31 6.86-.73 9.49-1a31.69 31.69 0 0 0 -2.73-4.76l3.25-1.32a79.59 79.59 0 0 1 5.7 10.81z"/><path d="m336.73 363.07c2.15-.18 6.42-.57 11.12-1 2.66-.21 5.46-.36 7.29-.44v3.33a26.79 26.79 0 0 0 -5 .33 7.82 7.82 0 0 0 -5.43 7.21c0 4.23 3.95 5.77 8.32 6l-1.19 3.56c-5.41-.34-10.51-3.25-10.51-8.84a10.18 10.18 0 0 1 3.8-7.93c-2.24.23-7.65.8-10.64 1.45l-.34-3.53c1.09-.04 2.08-.09 2.58-.14zm16.9 7.93-2 .88a20.15 20.15 0 0 0 -2-3.61l1.93-.81a36.49 36.49 0 0 1 2.07 3.54zm3-1.28-1.95.94a22.87 22.87 0 0 0 -2.13-3.51l1.9-.88a38 38 0 0 1 2.19 3.45z"/><path d="m377.21 366.73c-.13.29-.31.84-.47 1.33 3 1 5 3.3 5 6.32 0 3.61-2.16 7.18-8.48 8.11l-1.71-2.7c5-.55 7-3.05 7-5.57a3.82 3.82 0 0 0 -2.65-3.61 20 20 0 0 1 -5.44 7.8c.18.67.39 1.3.6 1.92l-3 .89c-.11-.32-.24-.68-.34-1a9.14 9.14 0 0 1 -4 1c-1.9 0-3.48-1.15-3.48-3.77 0-3.28 2.73-6.76 6.31-8.45.08-1.1.16-2.19.26-3.23h-.81c-1.35 0-3.35-.1-4.55-.15l-.1-3a42.5 42.5 0 0 0 4.76.33h1l.15-1.37a11.61 11.61 0 0 0 .08-1.54l3.38.08a9.16 9.16 0 0 0 -.36 1.38 11.73 11.73 0 0 0 -.26 1.38 43 43 0 0 0 8.73-1.1v3a73.27 73.27 0 0 1 -9.16.93c-.07.76-.15 1.54-.18 2.32a17.12 17.12 0 0 1 3.85-.47h.44a14.65 14.65 0 0 0 .22-1.56zm-10.14 10.51a35 35 0 0 1 -.55-5.15c-1.92 1.3-3.22 3.28-3.22 4.73 0 .81.36 1.25 1.19 1.25a5.54 5.54 0 0 0 2.58-.83zm2.34-6.45a30.24 30.24 0 0 0 .28 4.26 14.45 14.45 0 0 0 3.25-4.88 12.41 12.41 0 0 0 -3.53.57z"/><path d="m392.19 360.18a40.22 40.22 0 0 0 -1 5.33c1.22-2 3.45-4.16 6.37-4.16 3.58 0 6.37 3.51 6.37 9.18 0 7.28-4.48 10.76-11.29 12l-2-3c5.72-.88 9.73-2.75 9.73-9 0-4-1.33-6.19-3.46-6.19-3 0-5.7 4.57-5.83 7.95a16.67 16.67 0 0 0 .13 2.73l-3.2.21a35.26 35.26 0 0 1 -.31-4.29 62.43 62.43 0 0 1 .73-8.24c.13-.94.18-2 .21-2.7z"/><path d="m415.38 382.78a49.16 49.16 0 0 0 -5.59-5.75l2.7-2.34a48.33 48.33 0 0 1 5.67 5.7z"/><path d="m8.5 436.35h-4.5v2.14h-2.73v-17h7.23zm-4.5-11.98v9.12h1.8v-9.12zm20.54 10h-6.26v5.36c0 1.64-.37 2.44-1.41 2.91a10.79 10.79 0 0 1 -4.62.57 12.48 12.48 0 0 0 -1.1-3c1.43.08 2.94.08 3.41.06s.62-.14.62-.58v-5.33h-5.9v-2.91h5.9v-8.16c-1.82.2-3.61.33-5.3.44a9.73 9.73 0 0 0 -.83-2.58 69.61 69.61 0 0 0 12.76-1.87l2.09 2.52a43.63 43.63 0 0 1 -5.62 1.12v8.53h6.21zm-12.37-10a20.31 20.31 0 0 1 2 5.72l-2.73.94a19.16 19.16 0 0 0 -1.75-5.8zm6.81 5.88a38.9 38.9 0 0 0 2.13-6.25l3 .83a61.11 61.11 0 0 1 -2.74 6.17z"/><path d="m32.73 421.27a23 23 0 0 0 -.62 2.32 67.94 67.94 0 0 0 -1.22 10 12.09 12.09 0 0 0 .1 1.66c.34-.91.78-1.79 1.15-2.65l1.61 1.27c-.75 2.13-1.56 4.69-1.87 6.13a6.94 6.94 0 0 0 -.13 1.19v1.1l-2.88.18a29.35 29.35 0 0 1 -1-8.19 81.76 81.76 0 0 1 1.06-10.74 22.13 22.13 0 0 0 .26-2.52zm16.27 6.73c-1.23.18-2.6.31-4 .41 0 2.47.18 4.55.29 6.29a16.85 16.85 0 0 1 5 3.33l-1.74 2.73a28.09 28.09 0 0 0 -3.15-2.57c-.15 2.44-1.56 4.21-5 4.21s-5.75-1.51-5.75-4.21 2.19-4.45 5.72-4.45a11.24 11.24 0 0 1 1.67.11c-.08-1.59-.16-3.44-.19-5.26-.62 0-1.22 0-1.82 0-1.5 0-3-.05-4.49-.16v-3.09a41.69 41.69 0 0 0 4.52.23h1.8c0-1.25 0-2.29 0-2.84a10.71 10.71 0 0 0 -.26-1.73h3.69a14.27 14.27 0 0 0 -.15 1.64c0 .57-.08 1.54-.08 2.68a35.09 35.09 0 0 0 4-.6zm-6.89 8.55a8 8 0 0 0 -2.06-.28c-1.45 0-2.47.62-2.47 1.55s1 1.51 2.42 1.51c1.56 0 2.11-.8 2.11-2.34zm4.89-12.49a26.36 26.36 0 0 0 -1.32-3.62l1.77-.54a29.79 29.79 0 0 1 1.37 3.53zm2.76-.89a32.49 32.49 0 0 0 -1.4-3.56l1.76-.55a33.21 33.21 0 0 1 1.43 3.54z"/><path d="m77.25 439.5a6.82 6.82 0 0 1 -4.84 1.95c-1.92 0-3.22-1.43-3.22-3.9 0-2.81.91-6.58.91-8.92 0-1.27-.65-1.9-1.72-1.9-1.92 0-4.73 2.37-6.81 4.68v2.08c0 2.11 0 4.27.15 6.69 0 .47.13 1.4.18 2h-3.58c0-.54.08-1.48.08-1.89.05-2 .05-3.49.1-5.67-1.12 1.64-2.37 3.53-3.25 4.76l-2-2.87c1.46-1.76 4.06-5.2 5.51-7.35l.11-1.8-4.68.6-.31-3.3h2.23s1.87-.18 3-.34c.05-1 .1-1.69.1-2a13.73 13.73 0 0 0 -.1-2.29l3.77.1c-.16.73-.37 2.06-.58 3.67l1 1.22c-.34.44-.89 1.28-1.33 1.95a5.11 5.11 0 0 1 -.05.55c2-1.77 5-3.82 7.49-3.82 2.75 0 4.05 1.63 4.05 3.79 0 2.68-.86 6.45-.86 9.13 0 .68.34 1.12 1 1.12a5.17 5.17 0 0 0 3.3-1.82z"/><path d="m90.17 426.06c-.08 1.12-.16 2.26-.29 3.38h10a12.67 12.67 0 0 1 -.11 1.35c-.46 7.07-1 10-2 11.13a3.83 3.83 0 0 1 -2.77 1.19 34 34 0 0 1 -4.44 0 7.25 7.25 0 0 0 -1.1-3 42.8 42.8 0 0 0 4.37.19 1.7 1.7 0 0 0 1.25-.34c.68-.57 1.14-2.84 1.51-7.57h-7.2c-1 4.39-3.15 8.45-8.35 11.08a10 10 0 0 0 -2.18-2.63c7-3.25 7.62-9.18 7.9-14.74h-7.43v-3h10v-4.23h3.2v4.23h10.27v3z"/><path d="m111.46 421a20.16 20.16 0 0 0 -.62 2.29 68 68 0 0 0 -1.22 10 11.7 11.7 0 0 0 .1 1.67c.34-.91.75-1.77 1.14-2.63l1.59 1.28a61.9 61.9 0 0 0 -1.85 6.13 6 6 0 0 0 -.13 1.2v1.06l-2.91.21a31 31 0 0 1 -1-8.21 76.45 76.45 0 0 1 1.07-10.74 20.16 20.16 0 0 0 .23-2.52zm15.81 19.42a27.06 27.06 0 0 0 -3.12-2.57c-.16 2.44-1.56 4.21-5 4.21s-5.78-1.51-5.78-4.21 2.21-4.42 5.72-4.42a11.3 11.3 0 0 1 1.69.1c-.07-1.58-.15-3.46-.18-5.28-.62 0-1.25 0-1.84 0-1.51 0-3 0-4.5-.16v-3.09a41.56 41.56 0 0 0 4.5.24h1.82c0-1.27 0-2.31-.06-2.86a14 14 0 0 0 -.15-1.69h3.63c-.08.5-.13 1.12-.16 1.67s-.07 1.53-.07 2.67a39.69 39.69 0 0 0 4-.59v3.19c-1.24.19-2.6.34-4 .45 0 2.49.18 4.55.29 6.29a16.23 16.23 0 0 1 5 3.33zm-6.4-4.18a7.63 7.63 0 0 0 -2.08-.29c-1.45 0-2.44.6-2.44 1.56s1 1.51 2.39 1.51c1.59 0 2.13-.83 2.13-2.34z"/><path d="m143.7 431.34s0 .75 0 1.11c-.26 6.27-.52 8.77-1.25 9.65a2.69 2.69 0 0 1 -2 1 18.74 18.74 0 0 1 -3.15.08 6.34 6.34 0 0 0 -.78-2.68 21 21 0 0 0 2.55.13 1 1 0 0 0 .86-.33c.39-.45.62-2.11.8-6.22h-2.88c-.6 3.56-1.82 6.89-4.58 9.23a8 8 0 0 0 -2.05-2.26c3.4-2.81 3.92-7.49 4.13-11.81h-2.6v-9h10.69v9h-5.04c-.05.71-.11 1.43-.16 2.14zm-8.11-4.89h4.89v-3.56h-4.89zm12.84 10.29h-3v-14.63h3zm6.17-17.26v20c0 1.82-.37 2.68-1.43 3.17s-2.81.6-5.18.6a11.57 11.57 0 0 0 -1.06-3.2c1.69.05 3.35.05 3.9.05s.7-.15.7-.62v-20z"/><path d="m165.28 421.14a20.16 20.16 0 0 0 -.62 2.29 63 63 0 0 0 -1.25 9.44 13.79 13.79 0 0 0 .1 1.66c.37-.91.78-1.76 1.15-2.59l1.61 1.24a61.74 61.74 0 0 0 -1.85 6.32 8.52 8.52 0 0 0 -.15 1.2v1.06l-3 .21a32.79 32.79 0 0 1 -1-8.42 70.81 70.81 0 0 1 1.07-10.2 19.69 19.69 0 0 0 .26-2.52zm6 12.72a8.78 8.78 0 0 0 -.28 2.14c0 1.14 1 1.82 3.59 1.82a29.62 29.62 0 0 0 6.45-.68l.08 3.49a36.23 36.23 0 0 1 -6.66.51c-4.45 0-6.55-1.61-6.55-4.23a15.91 15.91 0 0 1 .44-3.36zm9-11v3.33a70.28 70.28 0 0 1 -11.05 0v-3.33a51.91 51.91 0 0 0 11.08-.03z"/><path d="m190.22 442.78a49.16 49.16 0 0 0 -5.59-5.75l2.7-2.34a48.33 48.33 0 0 1 5.67 5.7z"/><path d="m218.79 425.82a37.42 37.42 0 0 1 -4.47.89 47.53 47.53 0 0 1 -5.51 11l-3.15-1.58a39.34 39.34 0 0 0 5.25-9.1c-.44 0-.88 0-1.32 0-1.07 0-2.11 0-3.23-.08l-.23-3a32.63 32.63 0 0 0 3.43.18c.75 0 1.53 0 2.31-.08a22.12 22.12 0 0 0 .71-4.31l3.56.36c-.21.83-.52 2.13-.89 3.51a26 26 0 0 0 3.46-.81zm3.38 2.32c-.08 1.09 0 2.16 0 3.3 0 .73.08 2 .16 3.25a17.11 17.11 0 0 1 5.33 3.3l-1.72 2.76a23.33 23.33 0 0 0 -3.48-2.73v.23c0 2.4-1.3 4.27-5 4.27-3.2 0-5.72-1.43-5.72-4.27 0-2.52 2.11-4.47 5.69-4.47.6 0 1.2.05 1.75.1-.08-1.92-.21-4.18-.29-5.74zm-2.83 8.53a9 9 0 0 0 -2.08-.26c-1.49 0-2.45.62-2.45 1.53s.81 1.61 2.21 1.61a2.09 2.09 0 0 0 2.32-2.39zm7.25-7.15a34 34 0 0 0 -6.19-3.67l1.67-2.55a46.63 46.63 0 0 1 6.34 3.49z"/><path d="m244.19 422.63c-1.27 1.84-3.22 5.43-4.5 7.69a6 6 0 0 1 2.94-.78c1.93 0 3.1 1.25 3.2 3.38 0 1.15 0 3.23.13 4.29a1.46 1.46 0 0 0 1.64 1.41c2.21 0 3.61-2.89 4.34-6.09l2.78 2.26c-1.32 4.45-3.72 7.36-7.69 7.36-2.81 0-4.16-1.71-4.27-3.59-.1-1.37-.08-3.48-.15-4.52a1.39 1.39 0 0 0 -1.51-1.43c-1.77 0-3.2 1.77-4.11 3.87a50.34 50.34 0 0 0 -2 5.72l-3.59-1.2c1.9-5.15 7.33-16 8.68-18.41.34-.7.81-1.53 1.28-2.62l3.66 1.48c-.26.29-.54.76-.83 1.18z"/><path d="m259.25 423.07c2.15-.18 6.42-.57 11.13-1 2.65-.21 5.46-.36 7.28-.44v3.33a26.63 26.63 0 0 0 -5 .33 7.83 7.83 0 0 0 -5.44 7.21c0 4.23 4 5.77 8.32 6l-1.19 3.56c-5.41-.34-10.51-3.25-10.51-8.84a10.21 10.21 0 0 1 3.8-7.93c-2.24.23-7.65.8-10.64 1.45l-.33-3.53c1.1-.04 2.08-.09 2.58-.14zm16.9 7.93-2 .88a19.55 19.55 0 0 0 -2-3.61l1.93-.81a36.49 36.49 0 0 1 2.07 3.54zm3-1.28-2 .94a22.87 22.87 0 0 0 -2.13-3.51l1.9-.88a38 38 0 0 1 2.24 3.45z"/><path d="m301.42 429.57a9.55 9.55 0 0 1 2.5 6.19c0 3.87-3.49 6.68-9.13 6.68-4.06 0-6.92-1.77-6.92-6.06 0-.62.08-1.53.19-2.6a28.69 28.69 0 0 1 -4.95-.86l.19-3.12a22.14 22.14 0 0 0 5.07 1c.15-1.15.28-2.34.44-3.51a33.72 33.72 0 0 1 -5.12-.91l.18-3a24.25 24.25 0 0 0 5.28 1c.1-.78.15-1.48.2-2.06a15.21 15.21 0 0 0 .06-2.28l3.61.2c-.21.94-.34 1.62-.44 2.29-.08.44-.16 1.12-.29 2a37 37 0 0 0 4.73-.31l-.1 3.07a47.82 47.82 0 0 1 -5 .23c-.15 1.15-.31 2.37-.44 3.51h.18a51.69 51.69 0 0 0 5.18-.31l-.08 3.07c-1.46.13-3 .23-4.55.23h-1c0 .76-.1 1.41-.1 1.87 0 2.11 1.3 3.28 3.84 3.28 3.59 0 5.57-1.64 5.57-3.77 0-1.74-1-3.4-2.65-5z"/><path d="m313.33 425.59c0 1.66 0 3.61.15 5.46.37 3.72 1.15 6.24 2.76 6.24 1.22 0 2.24-3 2.73-5l2.6 3.12c-1.72 4.47-3.33 6.06-5.41 6.06-2.81 0-5.28-2.55-6-9.47-.23-2.37-.28-5.36-.28-6.94a15.51 15.51 0 0 0 -.18-2.6l3.95.05a20.66 20.66 0 0 0 -.32 3.08zm17.89 10.58-3.41 1.3c-.39-4.13-1.77-10.19-4.58-13.36l3.28-1.09c2.49 2.98 4.42 9.2 4.71 13.15z"/><path d="m339.33 425.59c0 1.66 0 3.61.15 5.46.37 3.72 1.15 6.24 2.76 6.24 1.22 0 2.24-3 2.73-5l2.6 3.12c-1.72 4.47-3.33 6.06-5.41 6.06-2.81 0-5.28-2.55-6-9.47-.23-2.37-.28-5.36-.28-6.94a15.51 15.51 0 0 0 -.18-2.6l3.95.05a20.66 20.66 0 0 0 -.32 3.08zm17.89 10.58-3.41 1.3c-.39-4.13-1.77-10.19-4.58-13.36l3.28-1.09c2.49 2.98 4.42 9.2 4.71 13.15z"/><path d="m373.15 422.63c-1.27 1.84-3.22 5.43-4.5 7.69a6 6 0 0 1 2.94-.78c1.93 0 3.1 1.25 3.2 3.38 0 1.15 0 3.23.13 4.29a1.46 1.46 0 0 0 1.64 1.41c2.21 0 3.61-2.89 4.34-6.09l2.78 2.26c-1.32 4.45-3.71 7.36-7.69 7.36-2.81 0-4.16-1.71-4.27-3.59-.1-1.37-.07-3.48-.15-4.52a1.39 1.39 0 0 0 -1.51-1.43c-1.77 0-3.2 1.77-4.11 3.87a50.34 50.34 0 0 0 -1.95 5.72l-3.64-1.2c1.9-5.15 7.33-16 8.69-18.41.33-.7.8-1.53 1.27-2.62l3.66 1.48c-.25.29-.54.76-.83 1.18z"/><path d="m389.25 423.07c2.15-.18 6.42-.57 11.13-1 2.65-.21 5.46-.36 7.28-.44v3.33a26.63 26.63 0 0 0 -5 .33 7.83 7.83 0 0 0 -5.44 7.21c0 4.23 4 5.77 8.32 6l-1.19 3.56c-5.41-.34-10.51-3.25-10.51-8.84a10.21 10.21 0 0 1 3.8-7.93c-2.24.23-7.65.8-10.64 1.45l-.33-3.53c1.1-.04 2.08-.09 2.58-.14zm16.9 7.93-2 .88a19.55 19.55 0 0 0 -2-3.61l1.93-.81a36.49 36.49 0 0 1 2.07 3.54zm3-1.28-2 .94a22.87 22.87 0 0 0 -2.13-3.51l1.9-.88a38 38 0 0 1 2.24 3.45z"/><path d="m435 426.14c-1.56-.08-4-.13-7.46-.13v3.82a6.34 6.34 0 0 1 1 3.56c0 3.35-2 7.62-8.26 9.39l-2.75-2.78c2.61-.54 4.87-1.4 6.3-2.94a5.52 5.52 0 0 1 -1.17.13 4.53 4.53 0 0 1 -4.45-4.73 4.85 4.85 0 0 1 5.15-4.81 6.36 6.36 0 0 1 1 .08v-1.72c-3.9.05-7.88.21-11.05.39l-.08-3.12c2.94 0 7.62-.13 11.08-.18a5.73 5.73 0 0 0 0-.78 18.13 18.13 0 0 0 -.23-2.24h3.74c-.08.42-.16 1.8-.18 2.21v.78h7.46zm-11.73 8.21c1.07 0 2-.8 1.69-3a1.84 1.84 0 0 0 -1.69-.91 2 2 0 0 0 0 4z"/><path d="m446.06 438.75a4.2 4.2 0 1 1 -4.21-4.22 4.21 4.21 0 0 1 4.21 4.22zm-1.87 0a2.33 2.33 0 1 0 -2.34 2.31 2.31 2.31 0 0 0 2.34-2.31z"/><path d="m14.9 549.13c1.71 5.07 4.86 9.15 9.72 11.13a12.27 12.27 0 0 0 -2.29 2.91c-4.7-2.21-7.72-6-9.75-11a17.88 17.88 0 0 1 -9.72 11.05 9.17 9.17 0 0 0 -2.31-2.62 15.59 15.59 0 0 0 9.45-11.47h-9v-3.2h9.5c.26-2.45.24-4.81.26-6.94h3.38c0 2.13-.05 4.52-.31 6.94h10.22v3.2z"/><path d="m52.08 556h-2.71v4.52h-3.14v-1.06h-4.68v.8c0 1.53-.37 2.16-1.38 2.6a13.7 13.7 0 0 1 -4.6.44 9.79 9.79 0 0 0 -1-2.44h3.2s.65-.18.65-.65v-.8h-7.92v-2.24h7.9v-1.17h-10.29v-2.37h10.29v-1.12h-7.69v-2.08h7.69v-1.14h-7v-5.15h7v-1.07h-9.7v-2.44h9.7v-1.63h3.15v1.69h9.93v2.44h-9.93v1.07h7.38v5.15h-7.38v1.14h7.82v3.2h2.71zm-13.68-8.64v-1.25h-4.08v1.25zm3.15-1.25v1.25h4.21v-1.25zm0 7.54h4.68v-1.12h-4.68zm4.68 2.35h-4.68v1.22h4.68z"/><path d="m69.55 545.82a37.42 37.42 0 0 1 -4.47.89 47.53 47.53 0 0 1 -5.51 11l-3.15-1.58a39.34 39.34 0 0 0 5.25-9.1c-.44 0-.88 0-1.32 0-1.07 0-2.11 0-3.23-.08l-.23-3a32.63 32.63 0 0 0 3.43.18c.75 0 1.53 0 2.31-.08a22.12 22.12 0 0 0 .71-4.31l3.56.36c-.21.83-.52 2.13-.89 3.51a26 26 0 0 0 3.46-.81zm3.38 2.32c-.08 1.09 0 2.16 0 3.3 0 .73.08 2 .16 3.25a17.11 17.11 0 0 1 5.33 3.3l-1.72 2.76a23.33 23.33 0 0 0 -3.48-2.75v.23c0 2.4-1.3 4.27-5 4.27-3.2 0-5.72-1.43-5.72-4.27 0-2.52 2.11-4.47 5.69-4.47.6 0 1.2.05 1.75.1-.08-1.92-.21-4.18-.29-5.74zm-2.83 8.53a9 9 0 0 0 -2.08-.26c-1.49 0-2.45.62-2.45 1.53s.81 1.61 2.21 1.61a2.09 2.09 0 0 0 2.32-2.39zm7.25-7.15a34 34 0 0 0 -6.19-3.67l1.67-2.55a46.63 46.63 0 0 1 6.34 3.49z"/><path d="m88 553.05a10.89 10.89 0 0 0 -.44 2.6c0 1.64 1.56 2.84 5.28 2.84a36.25 36.25 0 0 0 9.05-1v3.62a39.7 39.7 0 0 1 -8.89.89c-5.91 0-8.87-2-8.87-5.51a16.43 16.43 0 0 1 .52-3.72zm-2.18-10.92a66.86 66.86 0 0 0 7 .31c2.54 0 5.48-.15 7.46-.36v3.46c-1.8.13-5 .31-7.44.31-2.7 0-4.94-.13-7-.29z"/><path d="m127.17 545.85c-.78.47-1.62.91-2.55 1.38a77.08 77.08 0 0 0 -7.18 3.82c-2.16 1.4-3.59 2.89-3.59 4.68s1.8 2.83 5.36 2.83a43 43 0 0 0 8.42-.93v3.72a50.8 50.8 0 0 1 -8.27.62c-5.12 0-9-1.43-9-5.85 0-2.86 1.79-5 4.26-6.79-1.19-2.21-2.44-4.94-3.61-7.67l3.25-1.32a60 60 0 0 0 3.22 7.12c2.11-1.22 4.34-2.36 5.57-3a17.23 17.23 0 0 0 2.36-1.56z"/><path d="m139.54 541a20.16 20.16 0 0 0 -.62 2.29 68 68 0 0 0 -1.22 10 11.7 11.7 0 0 0 .1 1.67c.34-.91.75-1.77 1.14-2.63l1.59 1.28a61.9 61.9 0 0 0 -1.85 6.13 6 6 0 0 0 -.13 1.2v1.06l-2.91.21a31 31 0 0 1 -1-8.21 76.45 76.45 0 0 1 1.07-10.74 20.16 20.16 0 0 0 .23-2.52zm15.81 19.42a27.06 27.06 0 0 0 -3.12-2.57c-.16 2.44-1.56 4.21-5 4.21s-5.78-1.51-5.78-4.21 2.21-4.42 5.72-4.42a11.3 11.3 0 0 1 1.69.1c-.07-1.58-.15-3.46-.18-5.28-.62 0-1.25 0-1.84 0-1.51 0-3 0-4.5-.16v-3.09a41.56 41.56 0 0 0 4.5.24h1.82c0-1.27 0-2.31-.06-2.86a14 14 0 0 0 -.15-1.69h3.69c-.08.5-.13 1.12-.16 1.67s-.07 1.53-.07 2.67a39.69 39.69 0 0 0 4-.59v3.19c-1.24.19-2.6.34-4 .45 0 2.49.18 4.55.29 6.29a16.23 16.23 0 0 1 5 3.33zm-6.4-4.18a7.63 7.63 0 0 0 -2.08-.29c-1.45 0-2.44.6-2.44 1.56s1 1.51 2.39 1.51c1.59 0 2.13-.83 2.13-2.34z"/><path d="m164.74 562.78a49.16 49.16 0 0 0 -5.59-5.75l2.7-2.34a48.33 48.33 0 0 1 5.67 5.7z"/><path d="m2 620.88-2-2.81a27.68 27.68 0 0 0 6.55-5l2 2.54a33.75 33.75 0 0 1 -6.55 5.27zm5-2.42a13.9 13.9 0 0 0 4 .62c1.3 0 2.21-.46 2.21-1.68 0-1.57-1.79-3.91-2.94-5a22.83 22.83 0 0 0 -2.39-2l2.55-2.13c.75.78 1.43 1.4 2.08 2.08 2.75 2.78 4.26 5.09 4.26 7.46 0 3.46-2.44 4.47-5.12 4.47a23.43 23.43 0 0 1 -4.13-.36zm4.37-11.86c.62-.41 1.25-.91 1.61-1.19a26.08 26.08 0 0 0 -5.15-2.5l1.93-2.39a41.2 41.2 0 0 1 6.63 3.07l.78 2c-.7.57-2.68 2.15-3.69 2.88zm9.88 13.84a25.6 25.6 0 0 0 -4.12-8.44l2.81-1.48a32.26 32.26 0 0 1 4.37 8.29zm.68-13.58-2.08.91a38.84 38.84 0 0 0 -2.06-3.64l2.06-.83a38.62 38.62 0 0 1 2.02 3.56zm3.07-1.19-2.08.88a27.91 27.91 0 0 0 -2.09-3.55l2.05-.83a36.58 36.58 0 0 1 2.12 3.5z"/><path d="m31 609.26c1.74-.52 6.11-2 9.23-2 4 0 6.78 2.42 6.78 6.32 0 4.66-4.08 7.86-12.27 8.35l-1.35-3.2c5.85-.16 10.22-1.69 10.22-5.2 0-1.92-1.46-3.28-3.69-3.28-3 0-8.12 2.14-10.33 3.07l-1.32-3.38a22.13 22.13 0 0 0 2.73-.68z"/><path d="m74.59 618a7.17 7.17 0 0 0 1.75 1.8c-.44 2.73-1.46 3.72-3.18 3.38-4.47-.6-5.48-5.18-5.82-10.56h-2.78v10.22h-3v-10.18h-3c-.19 3.62-1 7.57-4.58 10.58a11.37 11.37 0 0 0 -2.29-2.08 11.3 11.3 0 0 0 3.9-8.5h-3.38v-2.81h3.4v-2.23c-.72.31-1.48.62-2.18.86a16.52 16.52 0 0 0 -1.74-2.37 18.43 18.43 0 0 0 6.63-2.89l2.62 1a15.91 15.91 0 0 1 -2.54 1.92h.15v3.69h3v-6.24h3v6.24h5.55a40.34 40.34 0 0 0 .23 4.17l.44-.45.52.26a18.78 18.78 0 0 0 1.93-2.65l2.65 1.25c-1 .91-2 1.79-2.71 2.39a18.9 18.9 0 0 1 2.84 1.81zm-.78-11.25a24.57 24.57 0 0 0 -3.58-2.5c.59 2.18 1.69 3.82 3.61 4 .34.05.55-.7.7-1.85a8.91 8.91 0 0 0 1.74 1.69c-.44 2.29-1.48 3.15-3.09 2.84-4.16-.52-5.51-4-6.08-8.06h-13.63v-2.76h16.15c.05.88.13 1.77.26 2.6l.83-.78a32.5 32.5 0 0 1 4.91 3zm.34 11.7a25 25 0 0 0 -3.51-2.39c.52 2.44 1.46 4.18 3.23 4.34.33 0 .54-.91.7-2.4zm1.69-17.71c-1 .94-2 1.85-2.75 2.44l-1.82-1a16.71 16.71 0 0 0 1.92-2.68z"/><path d="m92.87 602.63c-1.27 1.84-3.22 5.43-4.5 7.69a6 6 0 0 1 2.94-.78c1.93 0 3.1 1.25 3.2 3.38 0 1.15 0 3.23.13 4.29a1.46 1.46 0 0 0 1.64 1.41c2.21 0 3.61-2.89 4.34-6.09l2.78 2.26c-1.32 4.45-3.72 7.36-7.69 7.36-2.81 0-4.16-1.71-4.27-3.59-.1-1.37-.08-3.48-.15-4.52a1.39 1.39 0 0 0 -1.51-1.43c-1.77 0-3.2 1.77-4.11 3.87a50.34 50.34 0 0 0 -2 5.72l-3.59-1.2c1.9-5.15 7.33-16 8.68-18.41.34-.7.81-1.53 1.28-2.62l3.66 1.48c-.26.29-.54.76-.83 1.18z"/><path d="m119.65 606.4a45 45 0 0 1 -5 .85c-.23 1.1-.49 2.24-.78 3.31a85.75 85.75 0 0 1 -4.08 11.91l-3.62-1.2a56.8 56.8 0 0 0 4.45-11.6c.18-.7.39-1.43.55-2.16-.6 0-1.17.06-1.69.06-1.25 0-2.21-.06-3.12-.11l-.08-3.2a24.28 24.28 0 0 0 3.25.19c.75 0 1.51 0 2.29-.08.1-.55.18-1.07.23-1.46a12.86 12.86 0 0 0 .1-2.62l3.93.31c-.18.73-.42 1.87-.55 2.44l-.2 1a43.73 43.73 0 0 0 4.31-.83zm-.52 8.45a8.92 8.92 0 0 0 -.36 2.15c0 1.12.65 2 3.4 2a32.7 32.7 0 0 0 5.36-.52l-.13 3.3a41.53 41.53 0 0 1 -5.25.37c-4.34 0-6.55-1.51-6.55-4.11a16.89 16.89 0 0 1 .44-3.43zm-1.51-6.45a47.44 47.44 0 0 1 4.94-.26 43.55 43.55 0 0 1 4.53.21l-.08 3.12a36 36 0 0 0 -4.42-.34 43.65 43.65 0 0 0 -5 .28zm6.76-2.65a29.24 29.24 0 0 0 -2-3.62l2-.86a34.31 34.31 0 0 1 2 3.57zm3.1-5.65a30.89 30.89 0 0 1 2.1 3.54l-2.05.88a27.33 27.33 0 0 0 -2.11-3.58z"/><path d="m155.38 603.38a13.64 13.64 0 0 0 -1 1.35 26.16 26.16 0 0 1 -6.26 7.13l-2.68-2.16a15.38 15.38 0 0 0 4.78-4.84h-13.56c-1.1 0-1.95.08-3.18.18v-3.61a20.17 20.17 0 0 0 3.18.26h14a13.47 13.47 0 0 0 2.63-.23zm-10.61 3.51c0 6.45-.13 11.75-7.23 15.55l-3-2.47a10.3 10.3 0 0 0 2.73-1.43c3.31-2.29 3.93-5 3.93-9.31a14.36 14.36 0 0 0 -.18-2.34z"/><path d="m172.67 618.72a18.16 18.16 0 0 0 .23 3.41h-4.11a28.11 28.11 0 0 0 .18-3.41v-8.53a50.44 50.44 0 0 1 -8.94 3.54l-1.87-3.17a40.08 40.08 0 0 0 11.84-4.71 27.33 27.33 0 0 0 6.78-5.88l2.79 2.53a43.49 43.49 0 0 1 -6.89 5.59z"/><path d="m203.94 608.16a20.5 20.5 0 0 0 2.37-.15v3.38c-.65 0-1.64-.08-2.37-.08h-6.26a16.47 16.47 0 0 1 -1.68 6.69 12.44 12.44 0 0 1 -5.22 5l-3-2.21a10.63 10.63 0 0 0 4.7-3.71 11.14 11.14 0 0 0 1.61-5.75h-7.15c-.75 0-1.76.05-2.49.1v-3.43a20.55 20.55 0 0 0 2.49.15zm-13.72-3.53c-.89 0-2 0-2.79.08v-3.36a19.59 19.59 0 0 0 2.79.21h8.5a20.56 20.56 0 0 0 2.81-.21v3.36c-.89-.06-1.9-.08-2.81-.08zm12.84-.6a35.92 35.92 0 0 0 -2.05-3.61l2.08-.86a40.59 40.59 0 0 1 2 3.56zm3.12-1.2a30.93 30.93 0 0 0 -2.08-3.58l2.05-.86a33.67 33.67 0 0 1 2.08 3.53z"/><path d="m234.42 603.38a13.64 13.64 0 0 0 -1 1.35 26.16 26.16 0 0 1 -6.26 7.13l-2.68-2.16a15.38 15.38 0 0 0 4.78-4.84h-13.56c-1.1 0-1.95.08-3.18.18v-3.61a20.17 20.17 0 0 0 3.18.26h14a13.47 13.47 0 0 0 2.63-.23zm-10.61 3.51c0 6.45-.13 11.75-7.23 15.55l-3-2.47a10.3 10.3 0 0 0 2.73-1.43c3.31-2.29 3.93-5 3.93-9.31a14.36 14.36 0 0 0 -.18-2.34z"/><path d="m249.73 617.24c.05-.76.08-2 .1-3.07-1.89 1-2.93 2.06-2.93 3.33 0 1.43 1.22 1.82 3.74 1.82a39.29 39.29 0 0 0 7.31-.76l-.11 3.36a70.43 70.43 0 0 1 -7.28.42c-4 0-7.07-1-7.07-4.3s3.12-5.35 6.06-6.86a2 2 0 0 0 -1.8-.88 6.41 6.41 0 0 0 -4 1.76 34 34 0 0 0 -2.39 2.84l-2.75-2.06a25 25 0 0 0 5.66-7.07h-.31c-1 0-2.94 0-4.34-.18v-3a32.67 32.67 0 0 0 4.52.29h1.25a14.05 14.05 0 0 0 .52-2.94l3.38.29c-.13.62-.31 1.51-.62 2.55a58.59 58.59 0 0 0 7.28-.76v3a83.87 83.87 0 0 1 -8.4.67 14.89 14.89 0 0 1 -1.48 2.6 8.27 8.27 0 0 1 2.91-.52 3.53 3.53 0 0 1 3.44 2c1.32-.63 2.41-1.07 3.48-1.54s1.9-.88 2.83-1.32l1.31 3a24.11 24.11 0 0 0 -3.07 1.09c-1.15.44-2.6 1-4.19 1.74 0 1.43.08 3.33.1 4.5z"/><path d="m278.07 608.84c-1.12.86-2.29 1.66-3.48 2.42a58.17 58.17 0 0 0 7.67-1.33l1.89 2a66.13 66.13 0 0 1 -11.64 1.66l-.32 1.33h12a11.75 11.75 0 0 1 -.16 1.3c-.62 3.51-1.25 5.28-2.13 6.06a3.41 3.41 0 0 1 -2.5.91 31.14 31.14 0 0 1 -3.9 0 6.41 6.41 0 0 0 -1-2.86c1.51.16 3.15.21 3.83.21a1.9 1.9 0 0 0 1.14-.26 5.33 5.33 0 0 0 1.17-2.86h-9.13l-.31 1.19-3.09-.44c.36-1.09.75-2.5 1.12-4-1.41.68-2.84 1.3-4.27 1.88a18.1 18.1 0 0 0 -1.9-2.37 49 49 0 0 0 7-3l.13-.6.83.11c.81-.44 1.58-.91 2.34-1.38h-9.1v-2.6h8v-2.08h-6v-2.52h6v-2.61h3.07v2.68h5.46v1.32a33.37 33.37 0 0 0 2.57-3l2.5 1.38a38.72 38.72 0 0 1 -4.58 4.86h5.65v2.6zm-1-2.6c.86-.68 1.69-1.35 2.47-2.08h-4.21v2.08z"/><path d="m306.52 609.46c-1.17 1-3.59 3.23-4.19 3.88a2.69 2.69 0 0 1 1 .21 2.5 2.5 0 0 1 1.59 1.74c.23.7.47 1.69.7 2.34a1.63 1.63 0 0 0 1.82 1.19 26.62 26.62 0 0 0 5-.44l-.21 3.38a37.13 37.13 0 0 1 -5 .37c-2.44 0-3.77-.52-4.39-2.21-.29-.76-.57-1.95-.76-2.6-.31-.91-.85-1.25-1.38-1.25a2.66 2.66 0 0 0 -1.66 1 65 65 0 0 0 -4.6 5.25l-3.07-2.13a19.09 19.09 0 0 0 1.79-1.59c1.33-1.35 6.58-6.58 8.95-9.07-1.82.08-4.89.34-6.37.47a18.58 18.58 0 0 0 -2.21.31l-.31-3.56c.59.05 1.53.07 2.47.07 1.22 0 7.07-.26 9.2-.54a8.56 8.56 0 0 0 1.46-.31l1.9 2.15c-.72.51-1.25.98-1.73 1.34zm.78-8.24-.42 3c-2.7-.23-7.52-.78-10.58-1.3l.49-3a100.31 100.31 0 0 0 10.51 1.3z"/><path d="m321.52 611.31a12.6 12.6 0 0 1 7.56-2.44c4.53 0 7.15 2.78 7.15 5.9 0 4.71-3.71 8.32-14.43 7.38l-1-3.38c7.73 1.09 11.81-.8 11.81-4.08 0-1.66-1.59-2.89-3.85-2.89a9 9 0 0 0 -7.1 3 5.55 5.55 0 0 0 -1 1.51l-3-.76a93.36 93.36 0 0 0 1.34-10.71l3.49.46c-.35 1.43-.79 4.53-.97 6.01zm.8-11.18a82.55 82.55 0 0 0 10.3 2l-.78 3.17c-2.6-.33-8.35-1.53-10.35-2z"/><path d="m364.81 619.5a6.82 6.82 0 0 1 -4.84 2c-1.92 0-3.22-1.43-3.22-3.9 0-2.81.91-6.58.91-8.92 0-1.27-.65-1.9-1.72-1.9-1.92 0-4.73 2.37-6.81 4.68 0 .73-.05 1.43-.05 2.08 0 2.11 0 4.27.15 6.69 0 .47.13 1.4.18 2h-3.53c.05-.54.08-1.48.08-1.89.05-2 .05-3.49.1-5.67-1.12 1.64-2.37 3.53-3.25 4.76l-2-2.87c1.46-1.76 4.06-5.2 5.51-7.35l.11-1.8-4.68.6-.31-3.3h2.23s1.87-.18 3-.34c.05-1 .1-1.69.1-2a13.73 13.73 0 0 0 -.1-2.29l3.77.1c-.16.73-.37 2.06-.57 3.67l1 1.22c-.34.44-.89 1.28-1.33 2a5.11 5.11 0 0 1 -.05.55c2-1.77 5-3.82 7.49-3.82 2.75 0 4.05 1.63 4.05 3.79 0 2.68-.86 6.45-.86 9.13 0 .68.34 1.12 1 1.12a5.21 5.21 0 0 0 3.31-1.82z"/><path d="m370.08 603c2.14-.21 6.4-.58 11.11-1 2.65-.21 5.48-.37 7.28-.44v3.32a26.7 26.7 0 0 0 -5 .34 7.85 7.85 0 0 0 -5.44 7.2c0 4.24 4 5.75 8.32 6l-1.13 3.58c-5.41-.37-10.51-3.28-10.51-8.84a10.28 10.28 0 0 1 3.8-7.93c-2.21.23-7.65.8-10.64 1.45l-.31-3.53c1.02-.03 2-.08 2.52-.15z"/><path d="m398.22 622.78a49.16 49.16 0 0 0 -5.59-5.75l2.7-2.34a48.33 48.33 0 0 1 5.67 5.7z"/><path d="m8.4 661.25c1.09 0 5.93-.24 7.49-.42a10.63 10.63 0 0 0 1.79-.31l2 2.37c-.52.36-1.48 1-2 1.43-1.85 1.45-4.4 3.58-6.14 5 3.46-.36 7.7-.62 10.84-.62v3a38.19 38.19 0 0 0 -6.6 0c-2.37.34-4.34 2-4.34 4.11s1.58 2.81 3.9 3.09a22.85 22.85 0 0 0 3.92.06l-.67 3.38c-6.61.28-10.46-1.69-10.46-6a6 6 0 0 1 1.87-3.99c-2.34.18-5.23.57-7.8 1l-.32-3.12c1.38-.13 3.18-.36 4.5-.52a71.71 71.71 0 0 0 7.26-5.85c-1 .08-4.22.24-5.26.34-.65 0-1.5.16-2.31.24l-.07-3.3a24 24 0 0 0 2.4.11z"/><path d="m51.25 679.5a6.82 6.82 0 0 1 -4.84 2c-1.92 0-3.22-1.43-3.22-3.9 0-2.81.91-6.58.91-8.92 0-1.27-.65-1.9-1.72-1.9-1.92 0-4.73 2.37-6.81 4.68v2.08c0 2.11 0 4.27.15 6.69 0 .47.13 1.4.18 2h-3.58c0-.54.08-1.48.08-1.89.05-2 .05-3.49.1-5.67-1.12 1.64-2.37 3.53-3.25 4.76l-2-2.87c1.46-1.76 4.06-5.2 5.51-7.35l.11-1.8-4.68.6-.31-3.3h2.23s1.87-.18 3-.34c.05-1 .1-1.69.1-2a13.73 13.73 0 0 0 -.1-2.29l3.77.1c-.16.73-.37 2.06-.58 3.67l1 1.22c-.34.44-.89 1.28-1.33 2a5.11 5.11 0 0 1 -.05.55c2-1.77 5-3.82 7.49-3.82 2.75 0 4 1.63 4 3.79 0 2.68-.86 6.45-.86 9.13 0 .68.34 1.12 1 1.12a5.17 5.17 0 0 0 3.3-1.82z"/><path d="m65.13 677.24c.05-.76.08-2 .1-3.07-1.89 1-2.93 2.06-2.93 3.33 0 1.43 1.22 1.82 3.74 1.82a39.37 39.37 0 0 0 7.31-.76l-.11 3.36a70.43 70.43 0 0 1 -7.28.42c-4 0-7.07-1-7.07-4.3s3.11-5.35 6.11-6.86a2 2 0 0 0 -1.8-.88 6.41 6.41 0 0 0 -4 1.76 34 34 0 0 0 -2.39 2.84l-2.81-2.06a25 25 0 0 0 5.66-7.07h-.31c-1 0-2.94 0-4.34-.18v-3a32.67 32.67 0 0 0 4.52.29h1.25a14.05 14.05 0 0 0 .52-2.94l3.38.29c-.13.62-.31 1.51-.62 2.55a58.59 58.59 0 0 0 7.28-.76v3a83.87 83.87 0 0 1 -8.4.67 14.89 14.89 0 0 1 -1.48 2.6 8.27 8.27 0 0 1 2.91-.52 3.53 3.53 0 0 1 3.44 2c1.32-.63 2.41-1.07 3.48-1.54s1.9-.88 2.83-1.32l1.3 3a24.55 24.55 0 0 0 -3.11 1.09c-1.15.44-2.6 1-4.19 1.74 0 1.43.08 3.33.1 4.5z"/><path d="m88.11 660a39.88 39.88 0 0 1 -2.49 5.41v17.81h-3.12v-13c-.55.65-1.09 1.3-1.61 1.87a21.32 21.32 0 0 0 -1.72-3.3 27 27 0 0 0 5.93-9.73zm8.25 6.14v2.73h6.73v2.8h-6.73v2.94h7.07v2.86h-7.07v5.77h-3.18v-17.1h-1a28.91 28.91 0 0 1 -3.41 5 21.51 21.51 0 0 0 -2.35-2.14 25.77 25.77 0 0 0 5.52-9.8l3 .75a30.53 30.53 0 0 1 -1.28 3.23h10.09v2.94z"/><path d="m125.68 663.15c-.62.39-1.22.78-1.79 1.17-1.38 1-4.08 3.25-5.69 4.55a8.37 8.37 0 0 1 2.41-.29c4.37 0 7.7 2.73 7.7 6.47 0 4.06-3.09 7.29-9.31 7.29-3.59 0-6.29-1.64-6.29-4.22 0-2.08 1.9-4 4.63-4a5.18 5.18 0 0 1 5.48 4.39 3.74 3.74 0 0 0 2.11-3.51c0-2.31-2.34-3.87-5.33-3.87-3.95 0-6.53 2.1-9.28 5.22l-2.32-2.41c1.82-1.49 4.91-4.11 6.45-5.36s4.1-3.35 5.38-4.47c-1.33 0-4.86.18-6.22.28a18.65 18.65 0 0 0 -2.1.21l-.11-3.35a23.1 23.1 0 0 0 2.34.13c1.36 0 6.87-.13 8.32-.26a12.38 12.38 0 0 0 2-.26zm-5.82 16.2c-.16-1.67-1.12-2.76-2.52-2.76-1 0-1.59.57-1.59 1.22 0 1 1.09 1.61 2.6 1.61a14.19 14.19 0 0 0 1.51-.07z"/><path d="m139 673.05a10.89 10.89 0 0 0 -.44 2.6c0 1.64 1.56 2.84 5.28 2.84a36.11 36.11 0 0 0 9-1v3.62a39.7 39.7 0 0 1 -8.94.88c-5.91 0-8.87-2-8.87-5.51a16.43 16.43 0 0 1 .52-3.72zm-2.18-10.92a66.86 66.86 0 0 0 7 .31c2.54 0 5.48-.15 7.46-.36v3.46c-1.8.13-5 .31-7.44.31-2.7 0-4.94-.13-7-.29z"/><path d="m177.61 665.85c-.78.47-1.62.91-2.55 1.38a77.08 77.08 0 0 0 -7.18 3.82c-2.16 1.4-3.59 2.89-3.59 4.68s1.8 2.83 5.36 2.83a43 43 0 0 0 8.42-.93v3.72a50.8 50.8 0 0 1 -8.27.62c-5.12 0-9-1.43-9-5.85 0-2.86 1.79-5 4.26-6.79-1.19-2.21-2.44-4.94-3.61-7.67l3.25-1.32a60 60 0 0 0 3.22 7.12c2.11-1.22 4.34-2.36 5.57-3a17.23 17.23 0 0 0 2.36-1.56z"/><path d="m194.38 660.7c-.16.68-.32 1.48-.45 2.13s-.36 1.72-.54 2.66c.86-.06 1.64-.11 2.16-.11 2.73 0 4.65 1.22 4.65 4.92 0 3-.36 7.15-1.46 9.38-.85 1.8-2.26 2.37-4.23 2.37a15.09 15.09 0 0 1 -3.07-.36l-.57-3.41a15.22 15.22 0 0 0 3.17.54 1.89 1.89 0 0 0 1.92-1.11c.7-1.43 1-4.5 1-7.05 0-2-.88-2.34-2.49-2.34-.42 0-1 0-1.77.1-1 3.9-2.89 10-5.25 13.76l-3.36-1.35c2.5-3.38 4.27-8.53 5.18-12-.91.1-1.72.21-2.21.28-.73.08-2.06.26-2.86.39l-.2-3.5a22.61 22.61 0 0 0 2.73 0c.81 0 2-.1 3.33-.21a28.44 28.44 0 0 0 .54-5.46zm9.23 3.07a51.61 51.61 0 0 1 4.18 9l-3.27 1.53c-.68-2.86-2.5-7.41-4.35-9.69l2.4-1a29 29 0 0 0 -1.77-3.07l2-.85c.65 1 1.56 2.6 2.08 3.56zm2.36-.86a26.74 26.74 0 0 0 -2.1-3.59l2-.85a31.55 31.55 0 0 1 2.13 3.53z"/><path d="m213.49 663.07c2.15-.18 6.42-.57 11.12-1 2.66-.21 5.46-.36 7.29-.44v3.33a26.79 26.79 0 0 0 -5 .33 7.82 7.82 0 0 0 -5.43 7.21c0 4.23 3.95 5.77 8.32 6l-1.2 3.56c-5.4-.34-10.5-3.25-10.5-8.84a10.18 10.18 0 0 1 3.8-7.93c-2.24.23-7.65.8-10.64 1.45l-.25-3.54c1-.03 2-.08 2.49-.13zm16.9 7.93-2 .88a20.15 20.15 0 0 0 -2-3.61l1.93-.81a36.49 36.49 0 0 1 2.07 3.54zm3-1.28-2 .94a22.87 22.87 0 0 0 -2.13-3.51l1.9-.88a38 38 0 0 1 2.24 3.45z"/><path d="m258.7 669.13a30.93 30.93 0 0 1 -4 1c.65 1.37 1.38 2.88 2.13 4.29l-1.53 1.95c-1.43-.26-3.9-.65-5.62-.86l.29-2.47c1 .13 2 .21 2.73.28l-1.17-2.67a64.71 64.71 0 0 1 -11.31.15l-.13-3a52.71 52.71 0 0 0 10.27 0l-.44-1-.63-1.46a51 51 0 0 1 -8.86-.1l-.16-2.94a48.65 48.65 0 0 0 7.8.28 21.26 21.26 0 0 0 -1.25-2.21l3.67-.7a21.29 21.29 0 0 0 .81 2.57 31.86 31.86 0 0 0 4.94-1.2l.54 2.89a37.66 37.66 0 0 1 -4.42 1l.5 1.12.6 1.3a27 27 0 0 0 4.6-1.28zm-14.43 4.87a7.55 7.55 0 0 0 -.62 2.5c0 1.61 1.14 2.7 4.49 2.7a37.88 37.88 0 0 0 6.82-.57l-.11 3.3a44.56 44.56 0 0 1 -6.63.5c-4.81 0-7.77-1.64-7.77-5.2a13.61 13.61 0 0 1 .62-3.51z"/><path d="m281.69 663.15q-.94.58-1.8 1.17c-1.38 1-4.08 3.25-5.69 4.55a8.41 8.41 0 0 1 2.41-.29c4.37 0 7.7 2.73 7.7 6.47 0 4.06-3.09 7.29-9.31 7.29-3.59 0-6.29-1.64-6.29-4.22 0-2.08 1.9-4 4.63-4a5.17 5.17 0 0 1 5.48 4.39 3.74 3.74 0 0 0 2.11-3.51c0-2.31-2.34-3.87-5.33-3.87-4 0-6.53 2.1-9.28 5.22l-2.32-2.41c1.82-1.49 4.91-4.11 6.45-5.36s4.1-3.35 5.38-4.47c-1.33 0-4.86.18-6.22.28a18.65 18.65 0 0 0 -2.1.21l-.11-3.35a23.13 23.13 0 0 0 2.35.13c1.35 0 6.86-.13 8.32-.26a12.38 12.38 0 0 0 2-.26zm-5.83 16.2c-.16-1.67-1.12-2.76-2.52-2.76-1 0-1.59.57-1.59 1.22 0 1 1.1 1.61 2.6 1.61a14.19 14.19 0 0 0 1.51-.07z"/><path d="m309.69 665.85c-.78.47-1.62.91-2.55 1.38a77.08 77.08 0 0 0 -7.18 3.82c-2.15 1.4-3.59 2.89-3.59 4.68s1.8 2.83 5.36 2.83a43 43 0 0 0 8.42-.93v3.72a50.8 50.8 0 0 1 -8.27.62c-5.12 0-9-1.43-9-5.85 0-2.86 1.79-5 4.26-6.79-1.19-2.21-2.44-4.94-3.61-7.67l3.25-1.32a60 60 0 0 0 3.22 7.12c2.11-1.22 4.35-2.36 5.57-3a17.23 17.23 0 0 0 2.36-1.56z"/><path d="m321.13 665.59c0 1.66 0 3.61.15 5.46.37 3.72 1.15 6.24 2.76 6.24 1.22 0 2.23-3 2.73-5l2.6 3.12c-1.72 4.47-3.33 6.06-5.41 6.06-2.81 0-5.28-2.55-6-9.47-.23-2.37-.28-5.36-.28-6.94a15.51 15.51 0 0 0 -.18-2.6l3.95.05a20.66 20.66 0 0 0 -.32 3.08zm17.87 10.58-3.41 1.3c-.39-4.13-1.77-10.19-4.58-13.36l3.28-1.09c2.46 2.98 4.44 9.2 4.71 13.15z"/><path d="m355.16 669.36a23.16 23.16 0 0 0 -6.71 1.25c-.75.23-1.74.62-2.49.88l-1-3.66a23.83 23.83 0 0 0 2.81-.45 36.12 36.12 0 0 1 7.78-1.17c4.08 0 6.94 2.32 6.94 6.35 0 5.51-5.1 8.94-12.25 9.93l-1.87-3.22c6.4-.73 10.48-2.81 10.48-6.84.03-1.69-1.27-3.1-3.69-3.07zm5.2-8.14-.52 3.17c-3-.2-8.61-.7-11.57-1.22l.52-3.12a72.73 72.73 0 0 0 11.57 1.17z"/><path d="m374 673.05a10.89 10.89 0 0 0 -.44 2.6c0 1.64 1.56 2.84 5.28 2.84a36.25 36.25 0 0 0 9-1v3.62a39.64 39.64 0 0 1 -8.84.89c-5.91 0-8.87-2-8.87-5.51a16.43 16.43 0 0 1 .52-3.72zm-2.18-10.92a66.86 66.86 0 0 0 7 .31c2.55 0 5.48-.15 7.46-.36v3.46c-1.8.13-5 .31-7.44.31-2.7 0-4.94-.13-7-.29z"/><path d="m413.17 665.85c-.78.47-1.61.91-2.55 1.38a77.08 77.08 0 0 0 -7.18 3.82c-2.16 1.4-3.59 2.89-3.59 4.68s1.8 2.83 5.36 2.83a43.17 43.17 0 0 0 8.43-.93l-.06 3.72a50.8 50.8 0 0 1 -8.27.62c-5.12 0-9-1.43-9-5.85 0-2.86 1.79-5 4.26-6.79-1.19-2.21-2.44-4.94-3.61-7.67l3.25-1.32a60 60 0 0 0 3.22 7.12c2.11-1.22 4.34-2.36 5.57-3a17.23 17.23 0 0 0 2.36-1.56z"/><path d="m427.34 678.75a4.2 4.2 0 1 1 -4.22-4.22 4.22 4.22 0 0 1 4.22 4.22zm-1.88 0a2.33 2.33 0 1 0 -2.34 2.31 2.31 2.31 0 0 0 2.34-2.31z"/><path d="m19.27 726.6c-.78.47-1.59.91-2.55 1.38a70 70 0 0 0 -6.37 3.46c-2.13 1.4-3.56 2.89-3.56 4.68s1.76 2.88 5.35 2.88a43 43 0 0 0 8.4-.93l-.05 3.69a47.42 47.42 0 0 1 -8.27.65c-5.12 0-9-1.43-9-5.88 0-2.83 1.8-4.94 4.27-6.76-1.17-2.18-2.42-4.94-3.59-7.67l3.25-1.32a60 60 0 0 0 3.22 7.12c1.9-1.12 3.72-2 4.92-2.73a16.67 16.67 0 0 0 2.36-1.53zm.39-6.34a40.61 40.61 0 0 1 2.08 3.56l-2.11.89a31.67 31.67 0 0 0 -2-3.62zm3.09-1.2a34 34 0 0 1 2.08 3.57l-2 .88a28.12 28.12 0 0 0 -2.11-3.59z"/><path d="m39.83 722.63c-1.27 1.84-3.22 5.43-4.5 7.69a6 6 0 0 1 2.94-.78c1.93 0 3.1 1.25 3.2 3.38.05 1.15 0 3.23.13 4.29a1.46 1.46 0 0 0 1.64 1.41c2.21 0 3.61-2.89 4.34-6.09l2.78 2.26c-1.32 4.45-3.72 7.36-7.69 7.36-2.81 0-4.16-1.71-4.27-3.59-.1-1.37-.08-3.48-.15-4.52a1.39 1.39 0 0 0 -1.51-1.43c-1.77 0-3.2 1.77-4.11 3.87a50.34 50.34 0 0 0 -2 5.72l-3.63-1.2c1.9-5.15 7.33-16 8.68-18.41.34-.7.81-1.53 1.28-2.62l3.66 1.48c-.22.29-.5.76-.79 1.18z"/><path d="m66.43 725.82a37.42 37.42 0 0 1 -4.47.89 47.53 47.53 0 0 1 -5.51 11l-3.15-1.58a39.34 39.34 0 0 0 5.25-9.1c-.44 0-.88 0-1.32 0-1.07 0-2.11 0-3.23-.08l-.23-3a32.63 32.63 0 0 0 3.43.18c.75 0 1.53 0 2.31-.08a22.12 22.12 0 0 0 .71-4.31l3.56.36c-.21.83-.52 2.13-.89 3.51a26 26 0 0 0 3.46-.81zm3.38 2.32c-.08 1.09 0 2.16 0 3.3 0 .73.08 2 .16 3.25a17.11 17.11 0 0 1 5.33 3.31l-1.72 2.76a23.33 23.33 0 0 0 -3.48-2.76v.23c0 2.4-1.3 4.27-5 4.27-3.2 0-5.72-1.43-5.72-4.27 0-2.52 2.11-4.47 5.69-4.47.6 0 1.2.05 1.75.1-.08-1.92-.21-4.18-.29-5.74zm-2.81 8.53a9 9 0 0 0 -2.08-.26c-1.49 0-2.45.62-2.45 1.53s.81 1.61 2.21 1.61a2.09 2.09 0 0 0 2.32-2.39zm7.25-7.15a34 34 0 0 0 -6.25-3.67l1.67-2.55a46.63 46.63 0 0 1 6.34 3.49z"/><path d="m91.86 731.8v11.44h-3v-11.44h-3c-.13 4.24-.83 8.46-3.9 11.65a12.09 12.09 0 0 0 -2.26-2.13c2.49-2.65 3.14-6 3.3-9.52h-3v-2.86h3v-5.59h-2.58v-2.88h13.58v2.88h-2.14v5.59h2.49v2.86zm-3-2.86v-5.59h-3v5.59zm15.47 5.54a23.23 23.23 0 0 1 -9.41 8.74 11.38 11.38 0 0 0 -2.16-2.52 18.56 18.56 0 0 0 8.63-7.36zm-1-14a26.57 26.57 0 0 1 -7.46 6.4 10.09 10.09 0 0 0 -2.19-2.19 19.38 19.38 0 0 0 6.71-5.41zm.42 7.1a27.91 27.91 0 0 1 -7.54 6.76 13.35 13.35 0 0 0 -2.16-2.16 21.07 21.07 0 0 0 6.86-5.75z"/><path d="m114.84 721.14a20.16 20.16 0 0 0 -.62 2.29 63 63 0 0 0 -1.25 9.44 13.79 13.79 0 0 0 .1 1.66c.37-.91.78-1.76 1.15-2.59l1.61 1.24a61.74 61.74 0 0 0 -1.83 6.32 8.52 8.52 0 0 0 -.15 1.2v1.06l-3 .21a32.79 32.79 0 0 1 -1-8.42 70.81 70.81 0 0 1 1.07-10.2 19.69 19.69 0 0 0 .26-2.52zm6 12.72a8.78 8.78 0 0 0 -.31 2.16c0 1.14 1 1.82 3.59 1.82a29.62 29.62 0 0 0 6.45-.68l.08 3.49a36.23 36.23 0 0 1 -6.66.51c-4.45 0-6.55-1.61-6.55-4.23a15.91 15.91 0 0 1 .44-3.36zm9-11v3.33a70.28 70.28 0 0 1 -11.05 0v-3.33a51.91 51.91 0 0 0 11.08-.03z"/><path d="m148.07 725.82a37.42 37.42 0 0 1 -4.47.89 47.53 47.53 0 0 1 -5.51 11l-3.15-1.58a39.34 39.34 0 0 0 5.25-9.1c-.44 0-.88 0-1.32 0-1.07 0-2.11 0-3.23-.08l-.23-3a32.63 32.63 0 0 0 3.43.18c.75 0 1.53 0 2.31-.08a22.12 22.12 0 0 0 .71-4.31l3.56.36c-.21.83-.52 2.13-.89 3.51a26 26 0 0 0 3.46-.81zm3.38 2.32c-.08 1.09 0 2.16 0 3.3 0 .73.08 2 .16 3.25a17.11 17.11 0 0 1 5.33 3.3l-1.72 2.76a23.33 23.33 0 0 0 -3.48-2.73v.23c0 2.4-1.3 4.27-5 4.27-3.2 0-5.72-1.43-5.72-4.27 0-2.52 2.11-4.47 5.69-4.47.6 0 1.2.05 1.75.1-.08-1.92-.21-4.18-.29-5.74zm-2.83 8.53a9 9 0 0 0 -2.08-.26c-1.49 0-2.45.62-2.45 1.53s.81 1.61 2.21 1.61a2.09 2.09 0 0 0 2.32-2.39zm7.25-7.15a34 34 0 0 0 -6.19-3.67l1.67-2.55a46.63 46.63 0 0 1 6.34 3.49z"/><path d="m179.24 723.15c-.62.39-1.22.78-1.79 1.17-1.38 1-4.08 3.25-5.69 4.55a8.37 8.37 0 0 1 2.41-.29c4.37 0 7.7 2.73 7.7 6.47 0 4.06-3.09 7.29-9.31 7.29-3.59 0-6.29-1.64-6.29-4.22 0-2.08 1.9-4 4.63-4a5.18 5.18 0 0 1 5.48 4.39 3.74 3.74 0 0 0 2.11-3.51c0-2.31-2.34-3.87-5.33-3.87-3.95 0-6.53 2.1-9.28 5.22l-2.34-2.41c1.82-1.49 4.91-4.11 6.45-5.36s4.1-3.35 5.38-4.47c-1.33 0-4.86.18-6.22.28a18.65 18.65 0 0 0 -2.1.21l-.11-3.35a23.1 23.1 0 0 0 2.34.13c1.36 0 6.87-.13 8.32-.26a12.38 12.38 0 0 0 2-.26zm-5.82 16.2c-.16-1.67-1.12-2.76-2.52-2.76-1 0-1.59.57-1.59 1.22 0 1 1.09 1.61 2.6 1.61a14.19 14.19 0 0 0 1.51-.07z"/><path d="m192.84 721.14a20.16 20.16 0 0 0 -.62 2.29 63 63 0 0 0 -1.25 9.44 13.79 13.79 0 0 0 .1 1.66c.37-.91.78-1.76 1.15-2.59l1.61 1.24a61.74 61.74 0 0 0 -1.83 6.32 8.52 8.52 0 0 0 -.15 1.2v1.06l-3 .21a32.79 32.79 0 0 1 -1-8.42 70.81 70.81 0 0 1 1.07-10.2 19.69 19.69 0 0 0 .26-2.52zm6 12.72a8.78 8.78 0 0 0 -.31 2.16c0 1.14 1 1.82 3.59 1.82a29.62 29.62 0 0 0 6.45-.68l.08 3.49a36.23 36.23 0 0 1 -6.66.51c-4.45 0-6.55-1.61-6.55-4.23a15.91 15.91 0 0 1 .44-3.36zm9-11v3.33a70.28 70.28 0 0 1 -11.05 0v-3.33a51.91 51.91 0 0 0 11.08-.03z"/><path d="m220.84 720.44a25.65 25.65 0 0 0 -.33 3.43c-.13 2.76-.32 8.53-.32 11.73 0 2.6 1.56 3.43 3.54 3.43 4.26 0 7-2.44 8.81-5.25l2.34 2.89a13.39 13.39 0 0 1 -11.18 5.87c-4.21 0-6.94-1.84-6.94-6.24 0-3.46.26-10.22.26-12.43a15.74 15.74 0 0 0 -.34-3.48z"/><path d="m244.61 721.53c1.35 0 6.47-.07 8.19-.18a13 13 0 0 0 1.85-.28l1.71 2.26c-.49.26-1.07.62-1.43.86-1.48 1.06-4 2.86-5.9 4.55a9.64 9.64 0 0 1 2.6-.37c4.5 0 7.64 2.63 7.64 6.22 0 5-4.16 8.39-13.49 7.64l-.94-3.35c6.92.91 10.9-.81 10.9-4.29 0-2-1.9-3.46-4.81-3.46-4.48 0-7.15 2.83-9.6 5.56l-2.39-2.54c3.15-2.89 9.31-8.07 11.34-9.91-1.38 0-4.27.23-5.52.28-.65.06-1.48.16-2 .24l-.13-3.36a14.63 14.63 0 0 0 1.98.13z"/><path d="m269.26 742.78a49.16 49.16 0 0 0 -5.59-5.75l2.7-2.34a48.33 48.33 0 0 1 5.67 5.7z"/><path d="m19.27 786.6c-.78.47-1.59.91-2.55 1.38a70 70 0 0 0 -6.37 3.46c-2.13 1.4-3.56 2.89-3.56 4.68s1.76 2.88 5.35 2.88a43 43 0 0 0 8.4-.93l-.05 3.69a47.42 47.42 0 0 1 -8.27.65c-5.12 0-9-1.43-9-5.88 0-2.83 1.8-4.94 4.27-6.76-1.17-2.18-2.42-4.94-3.59-7.67l3.25-1.32a60 60 0 0 0 3.22 7.12c1.9-1.12 3.72-2 4.92-2.73a16.67 16.67 0 0 0 2.36-1.53zm.39-6.34a40.61 40.61 0 0 1 2.08 3.56l-2.11.89a31.67 31.67 0 0 0 -2-3.62zm3.09-1.2a34 34 0 0 1 2.08 3.57l-2 .88a28.12 28.12 0 0 0 -2.11-3.59z"/><path d="m39.83 782.63c-1.27 1.84-3.22 5.43-4.5 7.69a6 6 0 0 1 2.94-.78c1.93 0 3.1 1.25 3.2 3.38.05 1.15 0 3.23.13 4.29a1.46 1.46 0 0 0 1.64 1.41c2.21 0 3.61-2.89 4.34-6.09l2.78 2.26c-1.32 4.45-3.72 7.36-7.69 7.36-2.81 0-4.16-1.71-4.27-3.59-.1-1.37-.08-3.48-.15-4.52a1.39 1.39 0 0 0 -1.51-1.43c-1.77 0-3.2 1.77-4.11 3.87a50.34 50.34 0 0 0 -2 5.72l-3.63-1.2c1.9-5.15 7.33-16 8.68-18.41.34-.7.81-1.53 1.28-2.62l3.66 1.48c-.22.29-.5.76-.79 1.18z"/><path d="m66.43 785.82a37.42 37.42 0 0 1 -4.47.89 47.53 47.53 0 0 1 -5.51 11l-3.15-1.58a39.34 39.34 0 0 0 5.25-9.1c-.44 0-.88 0-1.32 0-1.07 0-2.11 0-3.23-.08l-.23-3a32.63 32.63 0 0 0 3.43.18c.75 0 1.53 0 2.31-.08a22.12 22.12 0 0 0 .71-4.31l3.56.36c-.21.83-.52 2.13-.89 3.51a26 26 0 0 0 3.46-.81zm3.38 2.32c-.08 1.09 0 2.16 0 3.3 0 .73.08 2 .16 3.25a17.11 17.11 0 0 1 5.33 3.31l-1.72 2.76a23.33 23.33 0 0 0 -3.48-2.76v.23c0 2.4-1.3 4.27-5 4.27-3.2 0-5.72-1.43-5.72-4.27 0-2.52 2.11-4.47 5.69-4.47.6 0 1.2.05 1.75.1-.08-1.92-.21-4.18-.29-5.74zm-2.81 8.53a9 9 0 0 0 -2.08-.26c-1.49 0-2.45.62-2.45 1.53s.81 1.61 2.21 1.61a2.09 2.09 0 0 0 2.32-2.39zm7.25-7.15a34 34 0 0 0 -6.25-3.67l1.67-2.55a46.63 46.63 0 0 1 6.34 3.49z"/><path d="m88.63 780a39.88 39.88 0 0 1 -2.49 5.41v17.81h-3.14v-13c-.55.65-1.09 1.3-1.61 1.87a21.32 21.32 0 0 0 -1.72-3.3 27 27 0 0 0 5.93-9.73zm8.25 6.14v2.73h6.73v2.8h-6.73v2.94h7.12v2.86h-7.12v5.77h-3.18v-17.1h-1a28.91 28.91 0 0 1 -3.41 5 21.51 21.51 0 0 0 -2.35-2.14 25.77 25.77 0 0 0 5.52-9.8l3 .75a30.53 30.53 0 0 1 -1.28 3.23h10.09v2.94z"/><path d="m114.5 780.18a43.72 43.72 0 0 0 -1 5.33c1.23-2 3.46-4.16 6.37-4.16 3.59 0 6.37 3.51 6.37 9.18 0 7.28-4.47 10.76-11.28 12l-2-3c5.72-.88 9.72-2.75 9.72-9 0-4-1.32-6.19-3.45-6.19-3 0-5.7 4.57-5.83 8a16.67 16.67 0 0 0 .13 2.73l-3.2.21a33.34 33.34 0 0 1 -.33-4.28 62.43 62.43 0 0 1 .73-8.24c.13-.94.18-2 .21-2.7z"/><path d="m142.17 786.06c-.08 1.12-.16 2.26-.29 3.38h10a12.67 12.67 0 0 1 -.11 1.35c-.46 7.07-1 10-2.05 11.13a3.83 3.83 0 0 1 -2.81 1.19 34 34 0 0 1 -4.44 0 7.25 7.25 0 0 0 -1.1-3 42.8 42.8 0 0 0 4.37.19 1.7 1.7 0 0 0 1.25-.34c.68-.57 1.14-2.84 1.51-7.57h-7.15c-1 4.39-3.15 8.45-8.35 11.08a10 10 0 0 0 -2.18-2.63c7-3.25 7.62-9.18 7.9-14.74h-7.43v-3h9.95v-4.23h3.2v4.23h10.27v3z"/><path d="m170.17 797.24c.05-.76.08-2 .1-3.07-1.89 1-2.93 2.06-2.93 3.33 0 1.43 1.22 1.82 3.74 1.82a39.37 39.37 0 0 0 7.31-.76l-.11 3.36a70.43 70.43 0 0 1 -7.28.42c-4 0-7.07-1-7.07-4.3s3.12-5.35 6.06-6.86a2 2 0 0 0 -1.8-.88 6.41 6.41 0 0 0 -4 1.76 34 34 0 0 0 -2.39 2.84l-2.8-2.06a25 25 0 0 0 5.66-7.07h-.31c-1 0-2.94 0-4.34-.18v-3a32.67 32.67 0 0 0 4.52.29h1.25a14.05 14.05 0 0 0 .52-2.94l3.38.29c-.13.62-.31 1.51-.62 2.55a58.59 58.59 0 0 0 7.28-.76v3a83.87 83.87 0 0 1 -8.4.67 14.89 14.89 0 0 1 -1.48 2.6 8.27 8.27 0 0 1 2.91-.52 3.53 3.53 0 0 1 3.44 2c1.32-.63 2.41-1.07 3.48-1.54s1.9-.88 2.83-1.32l1.3 3a24.55 24.55 0 0 0 -3.06 1.09c-1.15.44-2.6 1-4.19 1.74 0 1.43.08 3.33.1 4.5z"/><path d="m207.25 786.14c-1.56-.08-4-.13-7.47-.13v3.82a6.34 6.34 0 0 1 1 3.56c0 3.35-2 7.62-8.27 9.39l-2.74-2.78c2.6-.54 4.87-1.4 6.3-2.94a5.52 5.52 0 0 1 -1.17.13 4.53 4.53 0 0 1 -4.45-4.73 4.85 4.85 0 0 1 5.15-4.81 6.36 6.36 0 0 1 1 .08v-1.72c-3.9.05-7.88.21-11.05.39l-.08-3.12c2.94 0 7.62-.13 11.07-.18 0-.31 0-.6 0-.78a16.1 16.1 0 0 0 -.24-2.24h3.7c-.08.42-.16 1.8-.18 2.21v.78h7.46zm-11.73 8.21c1.07 0 2-.8 1.69-3a1.84 1.84 0 0 0 -1.69-.91 2 2 0 1 0 0 4z"/><path d="m228.64 783.15c-.62.39-1.22.78-1.79 1.17-1.38 1-4.08 3.25-5.69 4.55a8.37 8.37 0 0 1 2.41-.29c4.37 0 7.7 2.73 7.7 6.47 0 4.06-3.09 7.29-9.31 7.29-3.59 0-6.29-1.64-6.29-4.22 0-2.08 1.9-4 4.63-4a5.18 5.18 0 0 1 5.48 4.39 3.74 3.74 0 0 0 2.11-3.51c0-2.31-2.34-3.87-5.33-3.87-3.95 0-6.53 2.1-9.28 5.22l-2.34-2.41c1.82-1.49 4.91-4.11 6.45-5.36s4.1-3.35 5.38-4.47c-1.33 0-4.86.18-6.22.28a18.65 18.65 0 0 0 -2.1.21l-.11-3.35a23.1 23.1 0 0 0 2.34.13c1.36 0 6.87-.13 8.32-.26a12.38 12.38 0 0 0 2-.26zm-5.82 16.2c-.16-1.67-1.12-2.76-2.52-2.76-1 0-1.59.57-1.59 1.22 0 1 1.09 1.61 2.6 1.61a14.19 14.19 0 0 0 1.51-.07z"/><path d="m242.76 781.14a20.16 20.16 0 0 0 -.62 2.29 63 63 0 0 0 -1.25 9.44 13.79 13.79 0 0 0 .1 1.66c.37-.91.78-1.76 1.15-2.59l1.61 1.24a61.74 61.74 0 0 0 -1.85 6.32 8.52 8.52 0 0 0 -.15 1.2c0 .28 0 .7.05 1.06l-3 .21a32.79 32.79 0 0 1 -1-8.42 70.81 70.81 0 0 1 1.07-10.2 19.69 19.69 0 0 0 .26-2.52zm6 12.72a8.78 8.78 0 0 0 -.31 2.16c0 1.14 1 1.82 3.59 1.82a29.62 29.62 0 0 0 6.45-.68l.08 3.49a36.23 36.23 0 0 1 -6.66.51c-4.45 0-6.55-1.61-6.55-4.23a15.91 15.91 0 0 1 .44-3.36zm9-11v3.33a70.28 70.28 0 0 1 -11.05 0v-3.33a51.91 51.91 0 0 0 11.08-.03z"/><path d="m271.28 780.44a25.65 25.65 0 0 0 -.33 3.43c-.13 2.76-.31 8.53-.31 11.73 0 2.6 1.55 3.43 3.53 3.43 4.27 0 7-2.44 8.81-5.25l2.35 2.89a13.42 13.42 0 0 1 -11.18 5.87c-4.22 0-6.95-1.84-6.95-6.24 0-3.46.26-10.22.26-12.43a15.74 15.74 0 0 0 -.34-3.48z"/><path d="m295.57 781.53c1.35 0 6.47-.07 8.19-.18a12.68 12.68 0 0 0 1.84-.28l1.72 2.26c-.49.26-1.06.62-1.43.86-1.48 1.06-3.95 2.86-5.9 4.55a9.64 9.64 0 0 1 2.6-.37c4.5 0 7.64 2.63 7.64 6.22 0 5-4.16 8.39-13.49 7.64l-.94-3.35c6.92.91 10.9-.81 10.9-4.29 0-2-1.9-3.46-4.81-3.46-4.48 0-7.15 2.83-9.6 5.56l-2.39-2.54c3.15-2.89 9.31-8.07 11.34-9.91-1.38 0-4.27.23-5.51.28-.66.06-1.49.16-2 .24l-.13-3.36a14.76 14.76 0 0 0 1.97.13z"/><path d="m320.22 802.78a49.16 49.16 0 0 0 -5.59-5.75l2.7-2.34a48.33 48.33 0 0 1 5.67 5.7z"/><path d="m17.58 856.2v-1h-3.49v1.07h-3.09v-8h-3.56v10.43h16.22v3h-16.22v1.63h-3.2v-15h-3.69v-3h3.69v-5.46h3.2v5.46h3.56v-6h3.12v6h3.49v-5.77h3.09v5.77h3.84v3h-3.84v8zm0-3.93v-4.08h-3.49v4.08z"/><path d="m44.12 850.89a18.41 18.41 0 0 0 7.13 3.51 14.3 14.3 0 0 0 -2.06 2.66 19.11 19.11 0 0 1 -4.39-2.06v8.22h-3.23v-9.22h2a15.78 15.78 0 0 1 -3-3.13h-2.77a17.28 17.28 0 0 1 -3.12 3.1h2.21v1.79c0 2.47-.75 5.75-5.92 7.65a11.3 11.3 0 0 0 -2.14-2.5c4.35-1.43 4.87-3.61 4.87-5.28v-.93a20.76 20.76 0 0 1 -4.7 2.43 14.53 14.53 0 0 0 -2-2.54 19.55 19.55 0 0 0 7-3.7h-4.18v-11h18.54v11zm-11.2-6.68h4.55v-1.87h-4.55zm0 4.19h4.55v-1.87h-4.55zm12.22-6.06h-4.55v1.87h4.55zm0 4.19h-4.55v1.87h4.55z"/><path d="m76.26 843.46v13h-3.26v-1.3h-5.87v8.11h-3.27v-8.11h-5.86v1.43h-3.11v-13.1h9v-4.49h3.27v4.5zm-12.4 8.63v-5.59h-5.86v5.59zm9.15 0v-5.59h-5.88v5.59z"/><path d="m91.83 859a22.91 22.91 0 0 0 2.39-.42c3.31-.78 5.85-3.15 5.85-6.89 0-3.56-1.92-6.21-5.38-6.81a55 55 0 0 1 -1.53 7c-1.54 5.2-3.77 8.38-6.58 8.38s-5.25-3.15-5.25-7.49c0-5.93 5.17-11 11.85-11 6.37 0 10.4 4.45 10.4 10.06 0 5.41-3.32 9.26-9.82 10.25zm-2-7.8a41 41 0 0 0 1.38-6.2 8.06 8.06 0 0 0 -6.53 7.46c0 2.6 1 3.87 2 3.87s2.11-1.64 3.15-5.12z"/><path d="m120 839.56c0 .41 0 .93-.07 1.48.2 3.59 1.5 14.79 11.2 19.35a10 10 0 0 0 -2.43 2.61c-5.88-2.91-8.79-8.27-10.24-13a22.24 22.24 0 0 1 -9.62 13 10.87 10.87 0 0 0 -2.6-2.47c10.37-5.75 10-17.55 10.19-21z"/><path d="m143.42 840.7c-.16.68-.32 1.48-.45 2.13s-.36 1.72-.54 2.66c.86-.06 1.64-.11 2.16-.11 2.73 0 4.65 1.22 4.65 4.92 0 3-.36 7.15-1.46 9.38-.85 1.8-2.26 2.37-4.23 2.37a15.09 15.09 0 0 1 -3.07-.36l-.57-3.41a15.22 15.22 0 0 0 3.17.54 1.89 1.89 0 0 0 1.92-1.11c.7-1.43 1-4.5 1-7.05 0-2-.88-2.34-2.49-2.34-.42 0-1 0-1.77.1-1 3.9-2.89 10-5.25 13.76l-3.36-1.35c2.5-3.38 4.27-8.53 5.18-12-.91.1-1.72.21-2.21.28-.73.08-2.06.26-2.86.39l-.24-3.5a22.61 22.61 0 0 0 2.73 0c.81 0 2-.1 3.33-.21a28.44 28.44 0 0 0 .54-5.46zm9.23 3.07a51.61 51.61 0 0 1 4.18 9l-3.27 1.53c-.68-2.86-2.5-7.41-4.35-9.69l2.4-1a29 29 0 0 0 -1.77-3.07l2-.85c.65 1 1.56 2.6 2.08 3.56zm2.36-.86a26.74 26.74 0 0 0 -2.1-3.59l2.05-.85a31.55 31.55 0 0 1 2.11 3.53z"/><path d="m182.29 842.89a9.08 9.08 0 0 1 -2.19 3 18.47 18.47 0 0 0 4.42 1.43 9.4 9.4 0 0 0 -1.71 2.23 17.4 17.4 0 0 1 -4.92-2 21 21 0 0 1 -4.34 1.77 12 12 0 0 0 -1.51-2.13 3.19 3.19 0 0 1 -.54 1.53 1.84 1.84 0 0 1 -1.36.68 19.53 19.53 0 0 1 -2.1 0 6.37 6.37 0 0 0 -.16-.86h-5.69v-2.86c-.26.21-.55.41-.86.62a7 7 0 0 0 -1.61-1.64 7.07 7.07 0 0 0 2.86-2.65l.57.11v-.45h-2.65v-1.77h2.65v-.9h2.5v.94h2.23v-.94h2.5v.94h2.62v1.76h-2.62v.78h-2.5v-.78h-2.23v.78h-.81l-.21.37h7.37a10.3 10.3 0 0 0 3.25-3.85l2.62.68a10.81 10.81 0 0 1 -.6 1.09h6.58v2.16zm1 14s-.05.65-.1 1c-.31 2.73-.65 4.08-1.22 4.63a2.5 2.5 0 0 1 -1.59.73 16.57 16.57 0 0 1 -2.57 0 5.66 5.66 0 0 0 -.37-1.66l-1 .41a12.45 12.45 0 0 0 -1.48-2.39l2-.76a10.34 10.34 0 0 1 1.59 2.24h-.08.34a.82.82 0 0 0 .67-.21 4.49 4.49 0 0 0 .65-2.19h-13.7v.08h-2.91l1.87.81a8.31 8.31 0 0 1 -3 3.69l-2.39-1.58a7.45 7.45 0 0 0 2.89-3.2l.6.26v-9.23h17.57v1.82h-7.28v.83h6.53v1.53h-6.53v.81h6.56v1.49h-6.56v.83zm-15-9.36h.44a.6.6 0 0 0 .57-.23c.21-.23.34-1 .44-2.89h-6.21c-.18.21-.39.42-.6.63h5.36zm-2.11-1.17h-1.95v.86h1.95zm.26 5v.83h4.4v-.83zm4.4 2.36h-4.4v.81h4.4zm-4.4 3.17h4.4v-.89h-4.4zm2.47 2.45a16.19 16.19 0 0 1 .76 3.2l-2.6.46a19.76 19.76 0 0 0 -.63-3.3zm4.19-.11a14.77 14.77 0 0 1 1.14 2.84l-2.42.65a15.82 15.82 0 0 0 -1-3zm2.68-13.28a13.12 13.12 0 0 1 -1.49-1.59 8.73 8.73 0 0 1 -.85.7 15.13 15.13 0 0 0 -1.1-1c-.07 1.38-.18 2.37-.28 3.12a17.07 17.07 0 0 0 3.73-1.25zm.36-3a8.87 8.87 0 0 0 1.79 1.71 6.56 6.56 0 0 0 1.49-1.71z"/><path d="m207.74 849.13a31.38 31.38 0 0 1 -4 1c.65 1.37 1.38 2.88 2.14 4.29l-1.54 1.95c-1.43-.26-3.9-.65-5.62-.86l.29-2.47c1 .13 2 .21 2.73.28l-1.17-2.67a64.71 64.71 0 0 1 -11.31.15l-.13-3a52.71 52.71 0 0 0 10.27 0l-.44-1-.63-1.46a51 51 0 0 1 -8.86-.1l-.16-2.94a48.65 48.65 0 0 0 7.8.28 21.26 21.26 0 0 0 -1.25-2.21l3.67-.7a21.29 21.29 0 0 0 .81 2.57 31.86 31.86 0 0 0 4.94-1.2l.54 2.89a37.66 37.66 0 0 1 -4.42 1l.5 1.12.59 1.3a26.91 26.91 0 0 0 4.61-1.28zm-14.43 4.87a7.55 7.55 0 0 0 -.62 2.5c0 1.61 1.14 2.7 4.49 2.7a37.88 37.88 0 0 0 6.82-.57l-.11 3.3a44.56 44.56 0 0 1 -6.63.5c-4.81 0-7.77-1.64-7.77-5.2a13.61 13.61 0 0 1 .62-3.51z"/><path d="m232.13 855.39a13 13 0 0 1 -4.11 4 46.07 46.07 0 0 0 8.53 1.15 12.42 12.42 0 0 0 -1.77 2.75 36.12 36.12 0 0 1 -10.17-2.21 40.46 40.46 0 0 1 -10 2.24 12.23 12.23 0 0 0 -1.58-2.55 43.22 43.22 0 0 0 8.45-1.33 14.07 14.07 0 0 1 -2.34-1.82 29.22 29.22 0 0 1 -3.46 1.64 18.82 18.82 0 0 0 -2.13-2 19.35 19.35 0 0 0 7.88-4.35c-1.15-.31-1.46-1.09-1.46-2.57v-1.79h2.83v1.79c0 .6.19.65 1 .65h2.73c.65 0 .84-.16.91-1.22a8.27 8.27 0 0 0 2.37.8c-.29 2-1 2.55-2.94 2.55h-2.39l.16.05c-.32.39-.65.78-1 1.15h6l.52-.08zm-15.63-5.69h-2.94v-4.7h4.44a14.67 14.67 0 0 0 -1.33-2.24l.29-.13c-.71 0-1.41 0-2.11 0a8 8 0 0 0 -.6-2.23 122.48 122.48 0 0 0 18.2-1.49l2.06 2.06c-1 .21-2.14.39-3.33.57l2.34.73c-.65.93-1.33 1.87-1.95 2.68h4.18v5.09h-2.45a11.24 11.24 0 0 1 1.66 1.88l-2.21 1.66a19.41 19.41 0 0 0 -4-4.16l2.08-1.46c.6.44 1.25 1 1.88 1.54v-2.19h-7.08a10.06 10.06 0 0 1 1.77 1.15l-1.56 1.71a15.28 15.28 0 0 0 -3.69-2.23l.57-.63h-6.22zm-2.21 2.42a8.21 8.21 0 0 0 3.3-3.67l2.32 1a9.76 9.76 0 0 1 -3.49 4.42zm9.34-7.15a11.86 11.86 0 0 0 -1.2-2.6l-2.65.15a7.78 7.78 0 0 1 1.12 2.11l-.78.34zm-2.21 11.41a13.26 13.26 0 0 0 3.25 1.9 13 13 0 0 0 3-1.9zm7.15-11.38a28.23 28.23 0 0 0 1.79-3.31c-1.59.21-3.28.37-5 .52a8.77 8.77 0 0 1 1 2.27l-1.36.52z"/><path d="m247.36 840.44a25.65 25.65 0 0 0 -.33 3.43c-.13 2.76-.32 8.53-.32 11.73 0 2.6 1.56 3.43 3.54 3.43 4.26 0 7-2.44 8.81-5.25l2.34 2.89a13.39 13.39 0 0 1 -11.18 5.87c-4.21 0-6.94-1.84-6.94-6.24 0-3.46.26-10.22.26-12.43a15.74 15.74 0 0 0 -.34-3.48z"/><path d="m267.12 843c2.14-.21 6.4-.58 11.11-1 2.65-.21 5.48-.37 7.28-.44v3.32a26.64 26.64 0 0 0 -5 .34 7.85 7.85 0 0 0 -5.44 7.2c0 4.24 4 5.75 8.32 6l-1.13 3.58c-5.41-.37-10.51-3.28-10.51-8.84a10.28 10.28 0 0 1 3.8-7.93c-2.21.23-7.65.8-10.64 1.45l-.31-3.53c1.02-.03 2-.08 2.52-.15z"/><path d="m306.62 842.31c-.81.6-1.66 1.28-2.26 1.75-1.67 1.35-5.07 4-6.79 5.46-1.38 1.17-1.35 1.45.05 2.65 1.93 1.64 6.89 5.56 9.44 8l-3 2.76c-.73-.81-1.53-1.61-2.26-2.39-1.41-1.49-5.33-4.84-7.7-6.84-2.55-2.16-2.34-3.59.24-5.72 2-1.64 5.54-4.5 7.28-6.22a18.3 18.3 0 0 0 2-2.15z"/><path d="m338.29 859.5a6.82 6.82 0 0 1 -4.84 2c-1.92 0-3.22-1.43-3.22-3.9 0-2.81.91-6.58.91-8.92 0-1.27-.65-1.9-1.72-1.9-1.92 0-4.73 2.37-6.81 4.68 0 .73-.05 1.43-.05 2.08 0 2.11 0 4.27.15 6.69 0 .47.13 1.4.18 2h-3.53c.05-.54.08-1.48.08-1.89.05-2 .05-3.49.1-5.67-1.12 1.64-2.37 3.53-3.25 4.76l-2-2.87c1.46-1.76 4.06-5.2 5.51-7.35l.11-1.8-4.68.6-.31-3.3h2.23c.76-.05 1.87-.18 3-.34.05-1 .1-1.69.1-2a13.73 13.73 0 0 0 -.1-2.29l3.77.1c-.16.73-.37 2.06-.58 3.67l1 1.22c-.34.44-.89 1.28-1.33 2a5.11 5.11 0 0 1 -.05.55c2-1.77 5-3.82 7.49-3.82 2.75 0 4.05 1.63 4.05 3.79 0 2.68-.85 6.45-.85 9.13 0 .68.33 1.12 1 1.12a5.21 5.21 0 0 0 3.31-1.82z"/><path d="m358.65 843.15q-.94.58-1.8 1.17c-1.38 1-4.08 3.25-5.69 4.55a8.41 8.41 0 0 1 2.41-.29c4.37 0 7.7 2.73 7.7 6.47 0 4.06-3.09 7.29-9.31 7.29-3.59 0-6.29-1.64-6.29-4.22 0-2.08 1.9-4 4.63-4a5.17 5.17 0 0 1 5.48 4.39 3.74 3.74 0 0 0 2.11-3.51c0-2.31-2.34-3.87-5.33-3.87-3.95 0-6.53 2.1-9.28 5.22l-2.34-2.41c1.82-1.49 4.91-4.11 6.45-5.36s4.1-3.35 5.38-4.47c-1.33 0-4.86.18-6.21.28a18.6 18.6 0 0 0 -2.11.21l-.11-3.35a23.13 23.13 0 0 0 2.35.13c1.35 0 6.86-.13 8.32-.26a12.38 12.38 0 0 0 2-.26zm-5.83 16.2c-.16-1.67-1.12-2.76-2.52-2.76-1 0-1.59.57-1.59 1.22 0 1 1.1 1.61 2.6 1.61a14.19 14.19 0 0 0 1.51-.07z"/><path d="m384.72 861.11a19.87 19.87 0 0 0 -5.69-4v.89c0 2.26-1.17 4.44-5.48 4.44-3.67 0-6.68-1.19-6.68-4.7 0-2.68 2.28-4.81 7-4.81a15.24 15.24 0 0 1 1.53.07c-.08-2-.18-4.21-.18-5.56 0-1.56 0-3.09-.05-4.19a17.23 17.23 0 0 0 -.26-3h3.87c-.1.75-.18 2-.23 3v1.88c2-.06 5-.16 7.17-.39l.13 3.06c-2.16.21-5.22.32-7.3.37.05 1.56.15 3.59.28 5.48a20.44 20.44 0 0 1 7.87 4.35zm-9.18-5.11a14.56 14.56 0 0 0 -2.13-.18c-2 0-3.2.68-3.2 1.77 0 1.27 1.3 1.74 3.1 1.74s2.26-.75 2.26-2.44c0-.28 0-.59-.03-.89z"/><path d="m403.52 849.36a23.16 23.16 0 0 0 -6.71 1.25c-.75.23-1.74.62-2.49.88l-1-3.66a23.83 23.83 0 0 0 2.81-.45 36.12 36.12 0 0 1 7.78-1.17c4.08 0 6.94 2.32 6.94 6.35 0 5.51-5.1 8.94-12.25 9.93l-1.87-3.22c6.4-.73 10.48-2.81 10.48-6.84.03-1.69-1.27-3.1-3.69-3.07zm5.2-8.14-.52 3.17c-3-.2-8.61-.7-11.57-1.22l.52-3.12a72.73 72.73 0 0 0 11.57 1.17z"/><path d="m429.91 845.82a37.42 37.42 0 0 1 -4.47.89 47.53 47.53 0 0 1 -5.51 11l-3.15-1.58a39.34 39.34 0 0 0 5.25-9.1c-.44 0-.88 0-1.32 0-1.07 0-2.11 0-3.23-.08l-.23-3a32.63 32.63 0 0 0 3.43.18c.76 0 1.54 0 2.31-.08a21.39 21.39 0 0 0 .71-4.31l3.56.36c-.21.83-.52 2.13-.88 3.51a26.2 26.2 0 0 0 3.45-.81zm3.38 2.32c-.08 1.09 0 2.16 0 3.3 0 .73.08 2 .16 3.25a17.11 17.11 0 0 1 5.33 3.3l-1.72 2.76a23.33 23.33 0 0 0 -3.48-2.73v.23c0 2.4-1.3 4.27-5 4.27-3.2 0-5.72-1.43-5.72-4.27 0-2.52 2.11-4.47 5.7-4.47.59 0 1.19.05 1.74.1-.08-1.92-.21-4.18-.29-5.74zm-2.83 8.53a9 9 0 0 0 -2.08-.26c-1.48 0-2.45.62-2.45 1.53s.81 1.61 2.21 1.61c1.75 0 2.32-1 2.32-2.39zm7.25-7.15a34 34 0 0 0 -6.19-3.67l1.67-2.55a46.63 46.63 0 0 1 6.34 3.49z"/><path d="m466.15 853.75a52.94 52.94 0 0 1 -5.22 3.23 13.23 13.23 0 0 0 6.45 3.54 12.07 12.07 0 0 0 -2 2.75c-5.61-1.71-8.6-5.38-10.45-10.92a24.88 24.88 0 0 1 -3.59 2.39v4.63c2-.29 4.22-.6 6.32-.88l.13 2.7c-4 .65-8.45 1.28-11.62 1.72l-.44-2.84c.75-.08 1.61-.18 2.52-.31v-3.48a34 34 0 0 1 -3.69 1.32 18.2 18.2 0 0 0 -2-2.55 31.12 31.12 0 0 0 9.08-3.74h-8.12v-2.63h9.88v-1.4h-7.4v-2.47h7.46v-1.35h-8.73v-2.63h8.73v-1.83h3.1v1.87h9.07v2.63h-9.07v1.35h8v2.47h-8v1.4h10v2.63h-8.96a18.44 18.44 0 0 0 1.74 3.72 34.9 34.9 0 0 0 4.24-3.17z"/><path d="m479.83 856.85-9.44 2.75-.78-2.91c1-.23 2.32-.57 3.72-.93v-5.23h-2.89v-2.83h2.89v-4.53h-3.12v-2.86h9.1v2.86h-3v4.53h2.69v2.83h-2.7v4.47l3.09-.86zm11.54 3.61c.47 0 .58-.41.63-3a8.07 8.07 0 0 0 2.57 1.14c-.26 3.56-.93 4.52-2.86 4.52h-1.95c-2.39 0-2.91-.88-2.91-3.51v-5.09h-1.59c-.46 4.24-1.66 7.25-7.2 8.89a9.28 9.28 0 0 0 -1.71-2.55c4.7-1.17 5.53-3.3 5.87-6.34h-1.9v-14.52h12.68v14.56h-3.2v5.09c0 .76.06.86.5.86zm-8.16-16.38h6.79v-1.61h-6.79zm0 3.95h6.79v-1.61h-6.79zm0 4h6.79v-1.62h-6.79z"/><path d="m508.69 857.24c.05-.76.08-2 .11-3.07-1.9 1-2.94 2.06-2.94 3.33 0 1.43 1.22 1.82 3.74 1.82a39.29 39.29 0 0 0 7.31-.76l-.11 3.36a70.43 70.43 0 0 1 -7.28.42c-4 0-7.07-1-7.07-4.3s3.12-5.35 6.06-6.86a2 2 0 0 0 -1.79-.88 6.37 6.37 0 0 0 -4 1.76 32.1 32.1 0 0 0 -2.4 2.84l-2.75-2.06a25 25 0 0 0 5.66-7.07h-.31c-1 0-2.94 0-4.34-.18v-3a32.67 32.67 0 0 0 4.52.29h1.25a13.42 13.42 0 0 0 .52-2.94l3.38.29c-.13.62-.31 1.51-.62 2.55a58.59 58.59 0 0 0 7.28-.76v3a83.87 83.87 0 0 1 -8.4.67 14.89 14.89 0 0 1 -1.48 2.6 8.29 8.29 0 0 1 2.92-.52 3.52 3.52 0 0 1 3.43 2c1.32-.63 2.41-1.07 3.48-1.54s1.9-.88 2.84-1.32l1.3 3a24.11 24.11 0 0 0 -3.07 1.09c-1.15.44-2.6 1-4.19 1.74 0 1.43.08 3.33.1 4.5z"/><path d="m15.42 916.87c1.84 2.08 4.76 3.28 8.86 3.72a12.25 12.25 0 0 0 -1.82 2.71c-4.94-.78-8-2.63-10.08-5.85-1.54 2.31-4.42 4.36-9.73 5.79a12.81 12.81 0 0 0 -1.92-2.49c4.37-1 6.86-2.34 8.29-3.88h-7.82v-2.67h9.33a11.88 11.88 0 0 0 .26-1.64h-6.66v-2.5h6.69v-1.56h-7.1v-1.71h-2.32v-5.54h9.49v-2.25h3.18v2.26h9.51v5.54h-2.08v1.71h-7.59v1.56h7.09v2.5h-7.1a8.45 8.45 0 0 1 -.2 1.64h10.3v2.67zm-4.6-10.87v-1.49h3.09v1.49h6.47v-2h-15.91v2z"/><path d="m36.79 916.85-9.44 2.75-.78-2.91c1-.23 2.32-.57 3.72-.93v-5.23h-2.89v-2.83h2.89v-4.53h-3.12v-2.86h9.1v2.86h-3v4.53h2.73v2.83h-2.7v4.47l3.09-.86zm11.54 3.61c.47 0 .58-.41.63-3a8.07 8.07 0 0 0 2.57 1.14c-.26 3.56-.93 4.52-2.86 4.52h-2c-2.39 0-2.91-.88-2.91-3.51v-5.09h-1.54c-.46 4.24-1.66 7.25-7.2 8.89a9.28 9.28 0 0 0 -1.71-2.55c4.7-1.17 5.53-3.3 5.87-6.34h-1.9v-14.52h12.72v14.56h-3.2v5.09c0 .76.06.86.5.86zm-8.16-16.38h6.83v-1.61h-6.83zm0 3.95h6.83v-1.61h-6.83zm0 4h6.83v-1.62h-6.83z"/><path d="m62.24 900.44a25.65 25.65 0 0 0 -.33 3.43c-.13 2.76-.32 8.53-.32 11.73 0 2.6 1.56 3.43 3.54 3.43 4.26 0 7-2.44 8.81-5.25l2.34 2.89a13.39 13.39 0 0 1 -11.18 5.87c-4.21 0-6.94-1.84-6.94-6.24 0-3.46.26-10.22.26-12.43a15.74 15.74 0 0 0 -.34-3.48z"/><path d="m82 903c2.14-.21 6.4-.58 11.11-1 2.65-.21 5.48-.37 7.28-.44v3.32a26.64 26.64 0 0 0 -5 .34 7.85 7.85 0 0 0 -5.44 7.2c0 4.24 4 5.75 8.32 6l-1.13 3.58c-5.41-.37-10.51-3.28-10.51-8.84a10.28 10.28 0 0 1 3.8-7.93c-2.21.23-7.65.8-10.64 1.45l-.31-3.53c1.02-.03 2-.08 2.52-.15z"/><path d="m110 905.59c0 1.66 0 3.61.15 5.46.37 3.72 1.15 6.24 2.76 6.24 1.22 0 2.23-3 2.73-5l2.6 3.12c-1.72 4.47-3.33 6.06-5.41 6.06-2.81 0-5.28-2.55-6-9.47-.23-2.37-.28-5.36-.28-6.94a15.51 15.51 0 0 0 -.18-2.6l3.95.05a20.66 20.66 0 0 0 -.32 3.08zm17.89 10.58-3.41 1.3c-.39-4.13-1.77-10.19-4.58-13.36l3.28-1.09c2.45 2.98 4.43 9.2 4.72 13.15z"/><path d="m152.1 909.13a31.38 31.38 0 0 1 -4 1c.65 1.37 1.38 2.88 2.13 4.29l-1.53 1.95c-1.43-.26-3.9-.65-5.62-.86l.29-2.47c1 .13 2 .21 2.73.28l-1.1-2.63a64.71 64.71 0 0 1 -11.31.15l-.13-3a52.71 52.71 0 0 0 10.27 0l-.44-1-.63-1.46a51 51 0 0 1 -8.86-.1l-.16-2.94a48.65 48.65 0 0 0 7.8.28 21.26 21.26 0 0 0 -1.25-2.21l3.67-.7a21.29 21.29 0 0 0 .81 2.57 31.86 31.86 0 0 0 4.94-1.2l.54 2.89a37.66 37.66 0 0 1 -4.42 1l.5 1.12.59 1.3a26.91 26.91 0 0 0 4.61-1.28zm-14.43 4.87a7.55 7.55 0 0 0 -.62 2.5c0 1.61 1.14 2.7 4.49 2.7a37.88 37.88 0 0 0 6.82-.57l-.11 3.3a44.56 44.56 0 0 1 -6.63.5c-4.81 0-7.77-1.64-7.77-5.2a13.61 13.61 0 0 1 .62-3.51z"/><path d="m175.84 921.11a19.69 19.69 0 0 0 -5.2-3.56v.91c0 2.21-1.66 3.9-5.07 3.9-4.1 0-6.29-1.56-6.29-4.29s2.39-4.42 6.37-4.42c.55 0 1.07 0 1.59.08 0-.78-.08-1.59-.11-2.34h-1.32c-1.51 0-4.47-.13-6.19-.34v-3a47.63 47.63 0 0 0 6.21.47h1.22v-2.72h-1.22a43.54 43.54 0 0 1 -5.59-.39v-2.94a34.43 34.43 0 0 0 5.59.49h1.28v-1.17a10.66 10.66 0 0 0 -.11-1.79h3.51a15.35 15.35 0 0 0 -.18 1.82v1a56.5 56.5 0 0 0 6.14-.62l.07 3c-1.69.16-3.77.36-6.24.49v2.68c2.6-.1 4.76-.34 6.86-.6v3.05c-2.31.26-4.31.44-6.81.52 0 1 .1 2 .18 3a19.77 19.77 0 0 1 7.2 3.9zm-8.48-4.63a14.27 14.27 0 0 0 -2.1-.18c-1.82 0-2.81.7-2.81 1.59s.91 1.59 2.68 1.59c1.37 0 2.26-.42 2.26-1.9 0-.29 0-.65-.03-1.1z"/><path d="m204.65 906.14c-1.56-.08-4-.13-7.47-.13v3.82a6.34 6.34 0 0 1 1 3.56c0 3.35-2 7.62-8.27 9.39l-2.74-2.78c2.6-.54 4.87-1.4 6.3-2.94a5.52 5.52 0 0 1 -1.17.13 4.53 4.53 0 0 1 -4.45-4.73 4.85 4.85 0 0 1 5.15-4.81 6.36 6.36 0 0 1 1 .08v-1.72c-3.9.05-7.88.21-11.05.39l-.08-3.12c2.94 0 7.62-.13 11.07-.18 0-.31 0-.6 0-.78a16.1 16.1 0 0 0 -.24-2.24h3.75c-.08.42-.16 1.8-.18 2.21v.78h7.46zm-11.73 8.21c1.07 0 2-.8 1.69-3a1.84 1.84 0 0 0 -1.69-.91 2 2 0 1 0 0 4z"/><path d="m215.7 918.75a4.2 4.2 0 1 1 -4.22-4.22 4.22 4.22 0 0 1 4.22 4.22zm-1.88 0a2.33 2.33 0 1 0 -2.34 2.31 2.31 2.31 0 0 0 2.34-2.31z"/><path d="m1.87 1021.74h3.85v16h7.8v3.26h-11.65z"/><path d="m15.65 1033.73c0-4.73 3.3-7.67 6.79-7.67 4 0 6.08 2.94 6.08 7a7.33 7.33 0 0 1 -.18 1.74h-9a3.82 3.82 0 0 0 4 3.64 6.08 6.08 0 0 0 3.28-1l1.3 2.33a9.19 9.19 0 0 1 -5.1 1.62c-4-.04-7.17-2.88-7.17-7.66zm9.6-1.48c0-2-.89-3.23-2.76-3.23-1.53 0-2.89 1.09-3.17 3.23z"/><path d="m32.21 1035.89v-6.45h-2.05v-2.84l2.24-.18.44-3.9h3.16v3.9h3.58v3h-3.58v6.45c0 1.66.67 2.44 2 2.44a4.15 4.15 0 0 0 1.43-.31l.63 2.78a9.43 9.43 0 0 1 -3.07.55c-3.45.02-4.78-2.17-4.78-5.44z"/><path d="m42.93 1024.32-.13-3.62h3.9l-.13 3.62-.76 5.59h-2.13z"/><path d="m49.66 1039.29 1.74-2.39a6.36 6.36 0 0 0 3.9 1.59c1.46 0 2.11-.63 2.11-1.54 0-1.09-1.51-1.58-3-2.18-1.85-.7-4-1.82-4-4.24 0-2.63 2.13-4.47 5.41-4.47a8.13 8.13 0 0 1 5 1.79l-1.71 2.32a5.61 5.61 0 0 0 -3.15-1.25c-1.3 0-1.92.57-1.92 1.4 0 1.07 1.43 1.46 3 2 1.92.73 4.06 1.69 4.06 4.39 0 2.55-2 4.61-5.8 4.61a9.16 9.16 0 0 1 -5.64-2.03z"/><path d="m69.81 1026.42h3.12l.26 1.95h.1a6.17 6.17 0 0 1 4.48-2.31 4 4 0 0 1 4 2.55c1.33-1.41 2.73-2.55 4.63-2.55 3.09 0 4.52 2.18 4.52 5.85v9.09h-3.82v-8.6c0-2.24-.65-3.05-2-3.05a4.27 4.27 0 0 0 -2.81 1.64v10h-3.85v-8.6c0-2.24-.65-3.05-2-3.05a4.29 4.29 0 0 0 -2.84 1.66v10h-3.79z"/><path d="m94.15 1037c0-3.12 2.52-4.76 8.37-5.38 0-1.43-.68-2.52-2.47-2.52a8.23 8.23 0 0 0 -4 1.37l-1.38-2.47a11.64 11.64 0 0 1 6.08-1.92c3.69 0 5.59 2.21 5.59 6.42v8.5h-3.12l-.29-1.56h-.08a6.8 6.8 0 0 1 -4.39 1.93 4.13 4.13 0 0 1 -4.31-4.37zm8.37-.1v-2.9c-3.54.47-4.73 1.43-4.73 2.73 0 1.14.8 1.64 1.92 1.64a3.87 3.87 0 0 0 2.81-1.44z"/><path d="m110.24 1020.23h3.76v12.48h.1l5-6.29h4.17l-5 6 5.51 8.6h-4.18l-3.54-6-2.1 2.39v3.59h-3.72z"/><path d="m125.06 1033.73c0-4.73 3.3-7.67 6.78-7.67 4 0 6.09 2.94 6.09 7a7.33 7.33 0 0 1 -.18 1.74h-9a3.82 3.82 0 0 0 4 3.64 6.08 6.08 0 0 0 3.27-1l1.3 2.33a9.16 9.16 0 0 1 -5.09 1.62c-4-.04-7.17-2.88-7.17-7.66zm9.59-1.48c0-2-.88-3.23-2.75-3.23-1.54 0-2.89 1.09-3.18 3.23z"/><path d="m145.6 1039.29 1.74-2.39a6.36 6.36 0 0 0 3.9 1.59c1.46 0 2.11-.63 2.11-1.54 0-1.09-1.51-1.58-3-2.18-1.84-.7-4-1.82-4-4.24 0-2.63 2.13-4.47 5.4-4.47a8.14 8.14 0 0 1 5 1.79l-1.72 2.32a5.58 5.58 0 0 0 -3.14-1.25c-1.3 0-1.93.57-1.93 1.4 0 1.07 1.43 1.46 3 2 1.92.73 4.06 1.69 4.06 4.39 0 2.55-2 4.61-5.8 4.61a9.16 9.16 0 0 1 -5.62-2.03z"/><path d="m159.85 1020.23h3.79v5.23l-.15 2.73a6.63 6.63 0 0 1 4.57-2.13c3.15 0 4.5 2.18 4.5 5.85v9.09h-3.82v-8.6c0-2.24-.63-3.05-2.05-3.05-1.2 0-2 .58-3.05 1.64v10h-3.79z"/><path d="m176.12 1022a2.28 2.28 0 1 1 2.29 2.08 2.12 2.12 0 0 1 -2.29-2.08zm.37 4.42h3.79v14.58h-3.79z"/><path d="m184.94 1035.89v-6.45h-2.06v-2.84l2.24-.18.44-3.9h3.2v3.9h3.59v3h-3.59v6.45c0 1.66.67 2.44 2 2.44a4.15 4.15 0 0 0 1.43-.31l.63 2.78a9.43 9.43 0 0 1 -3.07.55c-3.49.02-4.81-2.17-4.81-5.44z"/><path d="m201.21 1020.23h3.79v5.23l-.16 2.73a6.63 6.63 0 0 1 4.58-2.13c3.14 0 4.5 2.18 4.5 5.85v9.09h-3.82v-8.6c0-2.24-.62-3.05-2-3.05-1.2 0-2 .58-3 1.64v10h-3.8z"/><path d="m217.12 1037c0-3.12 2.53-4.76 8.38-5.38-.06-1.43-.68-2.52-2.47-2.52a8.2 8.2 0 0 0 -4 1.37l-1.38-2.52a11.71 11.71 0 0 1 6.09-1.92c3.69 0 5.59 2.21 5.59 6.42v8.5h-3.13l-.29-1.56h-.08a6.8 6.8 0 0 1 -4.39 1.93 4.14 4.14 0 0 1 -4.32-4.32zm8.38-.1v-2.9c-3.54.47-4.74 1.43-4.74 2.73 0 1.14.81 1.64 1.93 1.64a3.87 3.87 0 0 0 2.81-1.44z"/><path d="m233.22 1026.42h3.12l.26 1.51h.1a6.9 6.9 0 0 1 4.29-1.87c3.59 0 5.72 2.94 5.72 7.41 0 5-3 7.88-6.19 7.88a5.44 5.44 0 0 1 -3.61-1.59l.1 2.39v4.42h-3.79zm9.57 7.1c0-2.78-.89-4.32-2.89-4.32a4.14 4.14 0 0 0 -2.89 1.51v6.4a4.13 4.13 0 0 0 2.66 1.09c1.76 0 3.12-1.51 3.12-4.68z"/><path d="m250 1026.42h3.12l.26 1.51h.11a6.9 6.9 0 0 1 4.29-1.87c3.58 0 5.72 2.94 5.72 7.41 0 5-3 7.88-6.19 7.88a5.44 5.44 0 0 1 -3.62-1.59l.11 2.39v4.42h-3.8zm9.57 7.1c0-2.78-.88-4.32-2.89-4.32a4.12 4.12 0 0 0 -2.88 1.51v6.4a4.09 4.09 0 0 0 2.65 1.09c1.73 0 3.08-1.51 3.08-4.68z"/><path d="m265.8 1033.73c0-4.73 3.3-7.67 6.78-7.67 4 0 6.09 2.94 6.09 7a6.76 6.76 0 0 1 -.19 1.74h-9a3.84 3.84 0 0 0 4 3.64 6.08 6.08 0 0 0 3.28-1l1.3 2.33a9.19 9.19 0 0 1 -5.1 1.62c-3.96-.04-7.16-2.88-7.16-7.66zm9.59-1.48c0-2-.88-3.23-2.76-3.23-1.53 0-2.88 1.09-3.17 3.23z"/><path d="m281.81 1026.42h3.12l.26 1.93h.11a6.69 6.69 0 0 1 4.73-2.29c3.14 0 4.5 2.18 4.5 5.85v9.09h-3.83v-8.6c0-2.24-.62-3.05-2.05-3.05-1.2 0-1.95.58-3 1.64v10h-3.8z"/><path d="m298.27 1038.85a2.38 2.38 0 1 1 2.37 2.5 2.39 2.39 0 0 1 -2.37-2.5z"/></svg>