<svg viewBox="0 0 520.39 845.26" xmlns="http://www.w3.org/2000/svg"><path d="m5.1 20.44-4.93-19.29h4.45c1.82 8.85 2.63 12.79 2.86 14.92.73-3.55 2.61-10.27 3.73-14.92h3.79c1 3.69 2.94 11.17 3.58 14.73.65-4.26 2.52-11.74 3.22-14.73h4l-5.2 19.29h-4.3c-1-4.28-2.72-10.53-3.39-13.83-.7 3.44-2.44 9.94-3.47 13.83z"/><path d="m31.44 14.06c0 1.82.93 3.58 2.92 3.58a2.3 2.3 0 0 0 2.54-1.54h4c-.51 1.76-2.1 4.68-6.64 4.68-4.79 0-6.86-3.56-6.86-7.37 0-4.56 2.33-7.81 7-7.81 5 0 6.67 3.61 6.67 7.22a8 8 0 0 1 -.07 1.24zm5.56-2.47c0-1.68-.7-3.11-2.66-3.11s-2.64 1.32-2.81 3.11z"/><path d="m62.89 16.69a33.66 33.66 0 0 0 .19 3.75h-3.83a5.74 5.74 0 0 1 -.2-1.43c-.53.81-1.51 1.77-4.09 1.77-3.5 0-5-2.3-5-4.54 0-3.3 2.63-4.84 6.89-4.84h2.15v-.87c0-1-.37-2-2.24-2-1.68 0-2.07.7-2.24 1.77h-3.84c.2-2.58 1.79-4.65 6.22-4.65 3.86 0 6 1.54 6 5zm-3.89-2.86h-1.66c-2.43 0-3.33.76-3.33 2.16a1.88 1.88 0 0 0 2.1 1.93c2.55 0 2.86-1.79 2.86-3.7z"/><path d="m66.64 9.88c0-1.45 0-2.71 0-3.94h4c.06.33.11 1.76.11 2.54a4.67 4.67 0 0 1 4.57-2.88v3.84c-2.91-.09-4.65.7-4.65 4.67v6.33h-4z"/><path d="m81 14.06c0 1.82.93 3.58 2.92 3.58a2.3 2.3 0 0 0 2.54-1.54h4c-.51 1.76-2.1 4.68-6.64 4.68-4.82 0-6.82-3.56-6.82-7.37 0-4.56 2.32-7.81 7-7.81 5 0 6.66 3.61 6.66 7.22a9.56 9.56 0 0 1 0 1.24zm5.6-2.47c0-1.68-.7-3.11-2.66-3.11s-2.69 1.32-2.85 3.11z"/><path d="m112.45 16.69a33.66 33.66 0 0 0 .19 3.75h-3.83a5.31 5.31 0 0 1 -.2-1.43c-.53.81-1.51 1.77-4.09 1.77-3.5 0-5-2.3-5-4.54 0-3.3 2.63-4.84 6.88-4.84h2.08v-.87c0-1-.37-2-2.24-2-1.68 0-2.08.7-2.24 1.77h-3.81c.19-2.58 1.79-4.65 6.21-4.65 3.87 0 6 1.54 6 5zm-3.92-2.86h-1.63c-2.43 0-3.33.76-3.33 2.16a1.87 1.87 0 0 0 2.1 1.93c2.55 0 2.86-1.79 2.86-3.7z"/><path d="m135.66 15.76c-.48 2.41-2.19 5-6.5 5-4.51 0-6.83-3.11-6.83-7.48s2.6-7.7 7-7.7c4.87 0 6.24 3.53 6.3 5.15h-3.89a2.28 2.28 0 0 0 -2.5-2c-1.84 0-2.88 1.6-2.88 4.4 0 3.11 1.12 4.51 2.86 4.51a2.47 2.47 0 0 0 2.49-1.91z"/><path d="m138.35 9.88c0-1.45 0-2.71 0-3.94h4c0 .33.11 1.76.11 2.54a4.67 4.67 0 0 1 4.54-2.88v3.84c-2.92-.09-4.65.7-4.65 4.67v6.33h-4z"/><path d="m152.71 14.06c0 1.82.92 3.58 2.91 3.58a2.32 2.32 0 0 0 2.55-1.54h4c-.5 1.76-2.1 4.68-6.63 4.68-4.79 0-6.86-3.56-6.86-7.37 0-4.56 2.32-7.81 7-7.81 4.95 0 6.66 3.61 6.66 7.22a9.56 9.56 0 0 1 -.05 1.24zm5.6-2.47c0-1.68-.7-3.11-2.66-3.11s-2.65 1.32-2.86 3.11z"/><path d="m177.8 16.69a33.66 33.66 0 0 0 .19 3.75h-3.83a5.74 5.74 0 0 1 -.16-1.44c-.53.81-1.51 1.77-4.09 1.77-3.5 0-5-2.3-5-4.54 0-3.3 2.63-4.84 6.89-4.84h2.07v-.87c0-1-.37-2-2.24-2-1.68 0-2.07.7-2.24 1.77h-3.81c.2-2.58 1.79-4.65 6.22-4.65 3.86 0 6 1.54 6 5zm-3.92-2.86h-1.63c-2.43 0-3.33.76-3.33 2.16a1.88 1.88 0 0 0 2.1 1.93c2.55 0 2.86-1.79 2.86-3.7z"/><path d="m180.71 5.94h2.29v-3.94h4v3.94h2.86v3.06h-2.86v7.17c0 1.09.34 1.51 1.54 1.51h.9v2.75a8.71 8.71 0 0 1 -2.69.28c-2.83 0-3.75-1.52-3.75-4.06v-7.65h-2.24z"/><path d="m193.53 3.58v-3.58h4v3.58zm0 2.36h4v14.5h-4z"/><path d="m205.12 5.94c1.38 4.92 2.52 9.21 2.8 10.94.42-2.38 1.82-6.74 3.08-10.94h4l-5.13 14.5h-4.2l-4.93-14.5z"/><path d="m220.33 14.06c0 1.82.92 3.58 2.91 3.58a2.32 2.32 0 0 0 2.55-1.54h4c-.5 1.76-2.1 4.68-6.63 4.68-4.79 0-6.86-3.56-6.86-7.37 0-4.56 2.32-7.81 7-7.81 4.95 0 6.66 3.61 6.66 7.22a8 8 0 0 1 -.06 1.24zm5.6-2.47c0-1.68-.7-3.11-2.66-3.11s-2.69 1.32-2.86 3.11z"/><path d="m251.77 16.69a30.73 30.73 0 0 0 .2 3.75h-3.84a5.75 5.75 0 0 1 -.19-1.43c-.54.81-1.52 1.77-4.09 1.77-3.5 0-5-2.3-5-4.54 0-3.3 2.63-4.84 6.89-4.84h2.07v-.87c0-1-.36-2-2.24-2-1.68 0-2.07.7-2.24 1.77h-3.81c.2-2.58 1.8-4.65 6.22-4.65 3.86 0 6 1.54 6 5zm-3.92-2.86h-1.62c-2.44 0-3.33.76-3.33 2.16a1.87 1.87 0 0 0 2.1 1.93c2.54 0 2.85-1.79 2.85-3.7z"/><path d="m268.71 18.68c0 4.64-1.71 7.58-7.19 7.58-5.3 0-6.33-2.94-6.47-4.59h4.09a2.28 2.28 0 0 0 2.54 1.68c2.61 0 3.11-1.59 3.11-4.42v-.7a4.28 4.28 0 0 1 -4.09 2c-3.8 0-6-3.13-6-7 0-4.53 2.72-7.64 6.33-7.64 2.49 0 3.53 1.18 3.75 1.85 0-.39.14-1.26.17-1.51h3.78v4.17zm-6.86-1.68c2.41 0 3-1.65 3-4.08s-.42-4.12-3-4.12c-1.74 0-3.11 1.34-3.11 4.26.09 2.51 1.35 3.94 3.11 3.94z"/><path d="m275.6 14.06c0 1.82.92 3.58 2.91 3.58a2.32 2.32 0 0 0 2.55-1.54h4c-.5 1.76-2.1 4.68-6.63 4.68-4.79 0-6.86-3.56-6.86-7.37 0-4.56 2.32-7.81 7-7.81 4.95 0 6.66 3.61 6.66 7.22a9.56 9.56 0 0 1 -.05 1.24zm5.6-2.47c0-1.68-.7-3.11-2.66-3.11s-2.69 1.32-2.86 3.11z"/><path d="m288.12 9.6c0-1.23 0-2.57 0-3.66h3.88c.08.39.14 1.4.17 1.84a4.41 4.41 0 0 1 4.2-2.18c2.91 0 4.79 2 4.79 5.63v9.21h-4v-8.76c0-1.66-.53-2.83-2.32-2.83s-2.66 1-2.66 3.53v8.06h-4z"/><path d="m317.38 15.76c-.48 2.41-2.19 5-6.5 5-4.51 0-6.83-3.11-6.83-7.48s2.6-7.7 7-7.7c4.87 0 6.24 3.53 6.3 5.15h-3.9a2.27 2.27 0 0 0 -2.49-2c-1.85 0-2.88 1.6-2.88 4.4 0 3.11 1.12 4.51 2.85 4.51a2.48 2.48 0 0 0 2.5-1.91z"/><path d="m322.72 5.94c1.49 5 2.8 9.46 3 10.8.3-1.45 1.17-4.7 2.88-10.8h4l-4.87 14.92c-1.37 4.17-2.55 5.4-6 5.4a16.43 16.43 0 0 1 -1.87-.11v-3.22c.28 0 .7.06 1 .06 1.49 0 2.21-.51 2.77-2.1l-5.22-14.95z"/><path d="m333.11 23.69a23.57 23.57 0 0 0 2.07-8.18h4.12a16.15 16.15 0 0 1 -3.08 8.18z"/><path d="m5.6 79-1.48 4.44h-4.12l6.55-19.29h5.24l6.86 19.29h-4.4l-1.59-4.44zm6.16-3.42c-1.37-4.1-2.24-6.7-2.76-8.44-.48 1.91-1.43 4.93-2.52 8.43z"/><path d="m41.1 63v16.46 4h-3.8c-.09-.45-.17-1.18-.2-1.51-.7 1.15-2 1.85-4.12 1.85-3.66 0-6-2.94-6-7.48s2.47-7.7 6.58-7.7c2.1 0 3.22.76 3.53 1.4v-7.02zm-6.91 17.56c2.74 0 3.08-2.3 3.08-4.37 0-2.49-.37-4.37-3-4.37-2.1 0-3.16 1.65-3.16 4.4s1.09 4.34 3.08 4.34z"/><path d="m44.8 66.58v-3.58h4v3.58zm0 2.36h4v14.5h-4z"/><path d="m65.74 81.68c0 4.64-1.71 7.58-7.19 7.58-5.3 0-6.33-2.94-6.47-4.59h4.09a2.28 2.28 0 0 0 2.54 1.68c2.61 0 3.11-1.59 3.11-4.42v-.7a4.28 4.28 0 0 1 -4.09 2c-3.8 0-6-3.13-6-7 0-4.53 2.72-7.64 6.33-7.64 2.49 0 3.53 1.18 3.75 1.85 0-.39.14-1.26.17-1.51h3.78v4.17zm-6.86-1.68c2.41 0 3-1.65 3-4.08s-.42-4.12-3-4.12c-1.74 0-3.11 1.34-3.11 4.26.09 2.51 1.35 3.94 3.11 3.94z"/><path d="m69.44 66.58v-3.58h4v3.58zm0 2.36h4v14.5h-4z"/><path d="m75.79 68.94h2.21v-3.94h4v3.92h2.85v3h-2.85v7.17c0 1.09.33 1.51 1.54 1.51h.89v2.75a8.65 8.65 0 0 1 -2.68.28c-2.75.01-3.75-1.51-3.75-4.05v-7.58h-2.21z"/><path d="m99.54 79.69a33.66 33.66 0 0 0 .19 3.75h-3.83a5.74 5.74 0 0 1 -.2-1.44c-.53.81-1.51 1.77-4.09 1.77-3.5 0-5-2.3-5-4.54 0-3.3 2.63-4.84 6.89-4.84h2.07v-.87c0-1-.37-2-2.24-2-1.68 0-2.07.7-2.24 1.77h-3.76c.2-2.58 1.79-4.65 6.22-4.65 3.86 0 6 1.54 6 5zm-3.92-2.86h-1.62c-2.43 0-3.33.76-3.33 2.16a1.88 1.88 0 0 0 2.1 1.93c2.55 0 2.86-1.79 2.86-3.7z"/><path d="m103.29 83.44v-20.44h4v20.44z"/><path d="m118 89v-16.56c0-1.18 0-2.33 0-3.5h3.89a15.53 15.53 0 0 1 .14 1.82 4.57 4.57 0 0 1 4.21-2.16c3.27 0 5.76 2.74 5.76 7.22 0 5.13-2.8 8-6.3 8a4.06 4.06 0 0 1 -3.7-1.67v6.85zm6.92-17.16c-2.27 0-3.08 1.48-3.08 4.4 0 2.77.75 4.36 2.91 4.36s3.16-1.65 3.16-4.59c-.04-2.68-1.1-4.19-3.03-4.19z"/><path d="m134.84 72.88c0-1.45 0-2.71 0-3.94h3.94c.06.33.12 1.76.12 2.54a4.66 4.66 0 0 1 4.64-2.88v3.84c-2.91-.09-4.64.7-4.64 4.67v6.33h-4z"/><path d="m159.51 76.16c0 4.4-2.63 7.62-7.22 7.62s-7.11-3.22-7.11-7.54c0-4.48 2.71-7.64 7.3-7.64 4.26 0 7.03 3.02 7.03 7.56zm-10.27 0c0 2.8 1.2 4.45 3.13 4.45s3.08-1.65 3.08-4.42c0-3-1.12-4.46-3.13-4.46-1.85.03-3.08 1.41-3.08 4.46z"/><path d="m175.7 63v16.46 4h-3.83c-.09-.45-.17-1.18-.2-1.51-.7 1.15-2 1.85-4.11 1.85-3.67 0-6-2.94-6-7.48s2.47-7.7 6.58-7.7c2.1 0 3.22.76 3.53 1.4v-7.02zm-6.92 17.56c2.74 0 3.08-2.3 3.08-4.37 0-2.49-.36-4.37-3-4.37-2.1 0-3.16 1.65-3.16 4.4s1.09 4.34 3.08 4.34z"/><path d="m192.16 79.24v4.2h-3.92c-.06-.39-.09-1.18-.11-1.68a4.15 4.15 0 0 1 -4 2c-2.94 0-4.81-1.8-4.81-5.38v-9.44h4v8.65c0 1.59.5 2.91 2.24 2.91s2.58-1 2.58-3.84v-7.72h4z"/><path d="m208.46 78.76c-.48 2.41-2.19 5-6.5 5-4.51 0-6.83-3.11-6.83-7.48s2.6-7.7 7-7.7c4.87 0 6.24 3.53 6.3 5.15h-3.9a2.27 2.27 0 0 0 -2.49-2c-1.85 0-2.88 1.6-2.88 4.4 0 3.11 1.12 4.51 2.85 4.51a2.48 2.48 0 0 0 2.5-1.91z"/><path d="m209.74 68.94h2.26v-3.94h4v3.92h2.85v3h-2.85v7.17c0 1.09.33 1.51 1.54 1.51h.89v2.75a8.65 8.65 0 0 1 -2.68.28c-2.83 0-3.76-1.52-3.76-4.06v-7.57h-2.24z"/><path d="m221.45 66.58v-3.58h4v3.58zm0 2.36h4v14.5h-4z"/><path d="m242.7 76.16c0 4.4-2.63 7.62-7.23 7.62s-7.11-3.22-7.11-7.54c0-4.48 2.72-7.64 7.31-7.64 4.26 0 7.03 3.02 7.03 7.56zm-10.28 0c0 2.8 1.21 4.45 3.14 4.45s3.08-1.65 3.08-4.42c0-3-1.12-4.46-3.14-4.46-1.85.03-3.08 1.41-3.08 4.46z"/><path d="m245.61 72.6c0-1.23 0-2.57 0-3.66h3.89a17.69 17.69 0 0 1 .17 1.84 4.42 4.42 0 0 1 4.2-2.18c2.91 0 4.79 2 4.79 5.63v9.21h-4v-8.76c0-1.66-.54-2.83-2.33-2.83s-2.66 1-2.66 3.53v8.06h-4z"/><path d="m281.79 78.76c-.48 2.41-2.19 5-6.5 5-4.51 0-6.83-3.11-6.83-7.48s2.6-7.7 7-7.7c4.87 0 6.24 3.53 6.3 5.15h-3.9a2.27 2.27 0 0 0 -2.49-2c-1.85 0-2.88 1.6-2.88 4.4 0 3.11 1.12 4.51 2.85 4.51a2.48 2.48 0 0 0 2.5-1.91z"/><path d="m298 76.16c0 4.4-2.63 7.62-7.22 7.62s-7.12-3.22-7.12-7.54c0-4.48 2.72-7.64 7.31-7.64 4.23 0 7.03 3.02 7.03 7.56zm-10.28 0c0 2.8 1.21 4.45 3.14 4.45s3.08-1.65 3.08-4.42c0-3-1.12-4.46-3.14-4.46-1.87.03-3.11 1.41-3.11 4.46z"/><path d="m300.85 72.69c0-1.26 0-2.49 0-3.75h3.84c.06.36.14 1.17.17 1.73a4.56 4.56 0 0 1 4-2.07 3.81 3.81 0 0 1 3.72 2.21 5.1 5.1 0 0 1 4.48-2.21c2.52 0 4.6 1.57 4.6 5.32v9.52h-3.92v-9c0-1.31-.48-2.6-2.13-2.6s-2.35 1.12-2.35 3.33v8.29h-3.95v-8.9c0-1.48-.37-2.71-2.07-2.71s-2.41 1-2.41 3.5v8.09h-4z"/><path d="m325.38 89v-16.56c0-1.18 0-2.33 0-3.5h3.9c.05.39.13 1.28.13 1.82a4.56 4.56 0 0 1 4.2-2.16c3.28 0 5.77 2.74 5.77 7.22 0 5.13-2.8 8-6.3 8a4.07 4.07 0 0 1 -3.67-1.63v6.81zm6.92-17.16c-2.27 0-3.08 1.48-3.08 4.4 0 2.77.75 4.36 2.91 4.36s3.16-1.65 3.16-4.59c0-2.68-1.06-4.19-2.99-4.19z"/><path d="m354.3 79.69a33 33 0 0 0 .2 3.75h-3.83a5.31 5.31 0 0 1 -.2-1.43c-.53.81-1.51 1.77-4.09 1.77-3.5 0-5-2.3-5-4.54 0-3.3 2.64-4.84 6.89-4.84h2.07v-.87c0-1-.36-2-2.24-2-1.68 0-2.07.7-2.24 1.77h-3.8c.19-2.58 1.79-4.65 6.21-4.65 3.87 0 6 1.54 6 5zm-3.92-2.86h-1.62c-2.44 0-3.33.76-3.33 2.16a1.87 1.87 0 0 0 2.1 1.93c2.55 0 2.85-1.79 2.85-3.7z"/><path d="m358.08 72.6c0-1.23 0-2.57 0-3.66h3.92c.08.39.14 1.4.17 1.84a4.41 4.41 0 0 1 4.2-2.18c2.91 0 4.78 2 4.78 5.63v9.21h-4v-8.76c0-1.66-.53-2.83-2.32-2.83s-2.66 1-2.66 3.53v8.06h-4z"/><path d="m377.46 68.94c1.48 5 2.8 9.46 3 10.8.31-1.45 1.18-4.7 2.89-10.8h4l-4.87 14.92c-1.37 4.17-2.55 5.4-6 5.4a16.47 16.47 0 0 1 -1.88-.11v-3.22c.28 0 .7.06 1 .06 1.48 0 2.21-.51 2.77-2.1l-5.29-15z"/><path d="m387.85 86.69a24 24 0 0 0 2.07-8.18h4.08a16.24 16.24 0 0 1 -3 8.18z"/><path d="m5.6 142-1.48 4.45h-4.12l6.55-19.29h5.24l6.86 19.29h-4.4l-1.59-4.45zm6.16-3.42c-1.37-4.09-2.24-6.69-2.72-8.43h-.04c-.48 1.91-1.43 4.93-2.52 8.43z"/><path d="m41.1 126v16.46 4h-3.8c-.09-.45-.17-1.18-.2-1.51-.7 1.15-2 1.85-4.12 1.85-3.66 0-6-2.94-6-7.48s2.47-7.7 6.58-7.7c2.1 0 3.22.76 3.53 1.4v-7zm-6.91 17.56c2.74 0 3.08-2.3 3.08-4.37 0-2.49-.37-4.37-3-4.37-2.1 0-3.16 1.65-3.16 4.4s1.09 4.34 3.08 4.34z"/><path d="m48 140.06c0 1.82.93 3.58 2.91 3.58a2.32 2.32 0 0 0 2.55-1.54h4c-.5 1.76-2.1 4.68-6.63 4.68-4.79 0-6.86-3.56-6.86-7.37 0-4.56 2.32-7.81 7-7.81 4.95 0 6.66 3.61 6.66 7.22a9.56 9.56 0 0 1 0 1.24zm5.6-2.47c0-1.68-.7-3.11-2.66-3.11s-2.69 1.32-2.86 3.11z"/><path d="m63.45 142.07a2.5 2.5 0 0 0 2.74 1.82c1.48 0 2-.53 2-1.43s-.62-1.28-2.69-1.79c-4.71-1.17-5.5-2.67-5.5-4.67s1.49-4.4 5.85-4.4 5.91 2.41 6 4.37h-3.76c-.13-.53-.5-1.54-2.38-1.54-1.31 0-1.76.59-1.76 1.23s.45 1.06 2.8 1.62c4.84 1.12 5.54 2.78 5.54 4.9 0 2.41-1.84 4.6-6.24 4.6s-6.22-2.13-6.55-4.71z"/><path d="m75.07 129.58v-3.58h4v3.58zm0 2.36h4v14.5h-4z"/><path d="m96 144.68c0 4.64-1.71 7.58-7.2 7.58-5.29 0-6.32-2.94-6.46-4.59h4.08a2.29 2.29 0 0 0 2.58 1.68c2.61 0 3.11-1.59 3.11-4.42v-.7a4.29 4.29 0 0 1 -4.09 2c-3.81 0-6-3.13-6-7 0-4.53 2.72-7.64 6.33-7.64 2.49 0 3.53 1.18 3.75 1.85 0-.39.14-1.26.17-1.51h3.73v4.17zm-6.85-1.68c2.41 0 3-1.65 3-4.08s-.42-4.12-3-4.12c-1.73 0-3.1 1.34-3.1 4.26.08 2.51 1.34 3.94 3.1 3.94z"/><path d="m99.73 135.6c0-1.23 0-2.57 0-3.66h3.89c.08.39.14 1.4.17 1.84a4.41 4.41 0 0 1 4.2-2.18c2.91 0 4.78 2 4.78 5.63v9.21h-4v-8.76c0-1.66-.53-2.83-2.32-2.83s-2.66 1-2.66 3.53v8.06h-4z"/><path d="m126.33 142.07a2.51 2.51 0 0 0 2.75 1.82c1.48 0 2-.53 2-1.43s-.61-1.28-2.68-1.79c-4.74-1.17-5.49-2.63-5.49-4.67s1.48-4.4 5.85-4.4 5.91 2.41 6 4.37h-3.76c-.14-.53-.5-1.54-2.38-1.54-1.31 0-1.76.59-1.76 1.23s.45 1.06 2.8 1.62c4.84 1.12 5.54 2.78 5.54 4.9 0 2.41-1.85 4.6-6.24 4.6s-6.22-2.13-6.55-4.71z"/><path d="m136.55 131.94h2.24v-3.94h4v3.92h2.85v3h-2.84v7.17c0 1.09.33 1.51 1.54 1.51h.89v2.75a8.68 8.68 0 0 1 -2.69.28c-2.82 0-3.75-1.52-3.75-4.06v-7.57h-2.24z"/><path d="m161 142.24v4.2h-3.92c0-.39-.08-1.18-.11-1.68a4.14 4.14 0 0 1 -4 2c-2.94 0-4.82-1.8-4.82-5.38v-9.46h4v8.65c0 1.59.51 2.91 2.24 2.91s2.58-1 2.58-3.84v-7.72h4z"/><path d="m178.08 126v16.46 4h-3.83c-.09-.45-.17-1.18-.2-1.51-.7 1.15-2 1.85-4.11 1.85-3.67 0-6-2.94-6-7.48s2.47-7.7 6.58-7.7c2.11 0 3.22.76 3.53 1.4v-7zm-6.92 17.56c2.74 0 3.08-2.3 3.08-4.37 0-2.49-.36-4.37-3-4.37-2.09 0-3.16 1.65-3.16 4.4s1.09 4.34 3.08 4.34z"/><path d="m181.77 129.58v-3.58h4v3.58zm0 2.36h4v14.5h-4z"/><path d="m203 139.16c0 4.4-2.63 7.62-7.22 7.62s-7.11-3.22-7.11-7.54c0-4.48 2.71-7.64 7.31-7.64 4.27 0 7.02 3.02 7.02 7.56zm-10.27 0c0 2.8 1.2 4.45 3.13 4.45s3.14-1.61 3.14-4.39c0-3-1.12-4.46-3.13-4.46-1.87 0-3.12 1.38-3.12 4.43z"/><path d="m204.28 149.69a23.87 23.87 0 0 0 2.08-8.18h4.11a16.15 16.15 0 0 1 -3.08 8.18z"/><path d="m5.6 205-1.48 4.45h-4.12l6.55-19.29h5.24l6.86 19.29h-4.4l-1.59-4.45zm6.16-3.42c-1.37-4.09-2.24-6.69-2.72-8.43h-.04c-.48 1.91-1.43 4.93-2.52 8.43z"/><path d="m27.8 189h4v7.48c.59-.93 1.8-1.88 4.15-1.88 4 0 5.91 3.28 5.91 7.34s-2.13 7.84-6.3 7.84c-2.16 0-3.11-.65-3.81-1.71a6.18 6.18 0 0 1 -.17 1.37h-3.8c0-1.57 0-3.16 0-4.73zm7 8.82c-2.3 0-3.11 1.48-3.11 4.45 0 2.44.73 4.31 3 4.31 2.05 0 3.14-1.82 3.14-4.56 0-2.44-.93-4.2-3.08-4.2z"/><path d="m44.77 198.88c0-1.45 0-2.71 0-3.94h3.95c.06.33.11 1.76.11 2.54a4.69 4.69 0 0 1 4.65-2.88v3.84c-2.91-.09-4.65.7-4.65 4.67v6.33h-4z"/><path d="m68 205.69a33 33 0 0 0 .2 3.75h-3.86a5.75 5.75 0 0 1 -.19-1.43c-.53.81-1.51 1.77-4.09 1.77-3.5 0-5-2.3-5-4.54 0-3.3 2.64-4.84 6.89-4.84h2.07v-.87c0-1-.36-2.05-2.24-2.05-1.68 0-2.07.7-2.24 1.77h-3.8c.19-2.58 1.79-4.65 6.21-4.65 3.87 0 6 1.54 6 5zm-3.92-2.86h-1.64c-2.44 0-3.33.76-3.33 2.16a1.87 1.87 0 0 0 2.1 1.93c2.55 0 2.85-1.79 2.85-3.7z"/><path d="m71.76 198.6c0-1.23 0-2.57 0-3.66h3.89c.08.39.14 1.4.17 1.84a4.41 4.41 0 0 1 4.18-2.18c2.91 0 4.78 2 4.78 5.63v9.21h-4v-8.76c0-1.66-.53-2.83-2.32-2.83s-2.66 1-2.66 3.53v8.06h-4z"/><path d="m101.78 189v16.46 4h-3.78c-.08-.45-.17-1.18-.2-1.51-.7 1.15-2 1.85-4.11 1.85-3.67 0-6-2.94-6-7.48s2.46-7.7 6.58-7.7c2.1 0 3.22.76 3.52 1.4v-7zm-6.92 17.56c2.75 0 3.08-2.3 3.08-4.37 0-2.49-.36-4.37-3-4.37-2.1 0-3.17 1.65-3.17 4.4s1.1 4.34 3.09 4.34z"/><path d="m124.93 204.76c-.47 2.41-2.18 5-6.49 5-4.51 0-6.83-3.11-6.83-7.48s2.6-7.7 7-7.7c4.88 0 6.25 3.53 6.3 5.15h-3.91a2.27 2.27 0 0 0 -2.49-2c-1.85 0-2.88 1.6-2.88 4.4 0 3.11 1.12 4.51 2.85 4.51a2.46 2.46 0 0 0 2.49-1.91z"/><path d="m141.12 202.16c0 4.4-2.63 7.62-7.23 7.62s-7.11-3.22-7.11-7.54c0-4.48 2.72-7.64 7.31-7.64 4.26 0 7.03 3.02 7.03 7.56zm-10.28 0c0 2.8 1.21 4.45 3.14 4.45s3.08-1.65 3.08-4.42c0-3-1.12-4.46-3.14-4.46-1.85.03-3.08 1.41-3.08 4.46z"/><path d="m144 198.6c0-1.23 0-2.57 0-3.66h3.89a17.69 17.69 0 0 1 .17 1.84 4.42 4.42 0 0 1 4.2-2.18c2.91 0 4.79 2 4.79 5.63v9.21h-4v-8.76c0-1.66-.54-2.83-2.33-2.83s-2.66 1-2.66 3.53v8.06h-4z"/><path d="m163.71 205.07a2.51 2.51 0 0 0 2.75 1.82c1.48 0 2-.53 2-1.43s-.61-1.28-2.68-1.79c-4.74-1.17-5.49-2.63-5.49-4.67s1.48-4.4 5.85-4.4 5.91 2.41 6 4.37h-3.81c-.14-.53-.5-1.54-2.38-1.54-1.31 0-1.76.59-1.76 1.23s.45 1.06 2.8 1.62c4.84 1.12 5.54 2.78 5.54 4.9 0 2.41-1.85 4.6-6.24 4.6s-6.22-2.13-6.55-4.71z"/><path d="m188.1 205.24v4.2h-3.92c-.06-.39-.09-1.18-.11-1.68a4.15 4.15 0 0 1 -4 2c-2.94 0-4.81-1.8-4.81-5.38v-9.46h4v8.65c0 1.59.51 2.91 2.24 2.91s2.58-1 2.58-3.84v-7.72h4z"/><path d="m191.85 209.44v-20.44h4v20.44z"/><path d="m198.21 194.94h2.24v-3.94h4v3.92h2.86v3h-2.86v7.17c0 1.09.34 1.51 1.54 1.51h.9v2.75a8.74 8.74 0 0 1 -2.69.28c-2.83 0-3.75-1.52-3.75-4.06v-7.57h-2.24z"/><path d="m209.91 192.58v-3.58h4v3.58zm0 2.36h4v14.5h-4z"/><path d="m217.7 198.6c0-1.23 0-2.57 0-3.66h3.89c.08.39.14 1.4.17 1.84a4.41 4.41 0 0 1 4.2-2.18c2.91 0 4.79 2 4.79 5.63v9.21h-4v-8.76c0-1.66-.53-2.83-2.32-2.83s-2.66 1-2.66 3.53v8.06h-4z"/><path d="m247.6 207.68c0 4.64-1.71 7.58-7.2 7.58-5.29 0-6.32-2.94-6.46-4.59h4.06a2.29 2.29 0 0 0 2.55 1.68c2.61 0 3.11-1.59 3.11-4.42v-.7a4.29 4.29 0 0 1 -4.09 2c-3.81 0-6-3.13-6-7 0-4.53 2.71-7.64 6.33-7.64 2.49 0 3.53 1.18 3.75 1.85 0-.39.14-1.26.17-1.51h3.78v4.17zm-6.86-1.68c2.41 0 3-1.65 3-4.08s-.42-4.12-3-4.12c-1.73 0-3.1 1.34-3.1 4.26.08 2.51 1.36 3.94 3.1 3.94z"/><path d="m258.77 209.44v-11.44h-2.13v-3h2.13v-1.26c0-3 1.48-5 4.62-5a8.37 8.37 0 0 1 1.85.17v3.16a6.78 6.78 0 0 0 -.84-.05c-1.18 0-1.62.42-1.62 2v1h2.51v3h-2.51v11.48z"/><path d="m267.56 192.58v-3.58h4v3.58zm0 2.36h4v14.5h-4z"/><path d="m275.32 198.88c0-1.45 0-2.71 0-3.94h3.95c.05.33.11 1.76.11 2.54a4.67 4.67 0 0 1 4.62-2.88v3.84c-2.91-.09-4.65.7-4.65 4.67v6.33h-4z"/><path d="m286.49 198.69c0-1.26 0-2.49 0-3.75h3.84c.05.36.14 1.17.17 1.73a4.55 4.55 0 0 1 4-2.07 3.81 3.81 0 0 1 3.72 2.21 5.1 5.1 0 0 1 4.48-2.21c2.52 0 4.59 1.57 4.59 5.32v9.52h-3.92v-9c0-1.31-.47-2.6-2.12-2.6s-2.36 1.12-2.36 3.33v8.29h-3.89v-8.88c0-1.48-.37-2.71-2.08-2.71s-2.4 1-2.4 3.5v8.09h-4z"/><path d="m309.39 212.69a23.87 23.87 0 0 0 2.08-8.18h4.11a16.15 16.15 0 0 1 -3.08 8.18z"/><path d="m5.6 268-1.48 4.45h-4.12l6.55-19.29h5.24l6.86 19.29h-4.4l-1.59-4.45zm6.16-3.42c-1.37-4.09-2.24-6.69-2.72-8.43h-.04c-.48 1.91-1.43 4.93-2.52 8.43z"/><path d="m20.92 261.6c0-1.23 0-2.57 0-3.66h3.89c.08.39.14 1.4.17 1.84a4.41 4.41 0 0 1 4.2-2.18c2.91 0 4.79 2 4.79 5.63v9.21h-4v-8.76c0-1.66-.53-2.83-2.32-2.83s-2.65.95-2.65 3.53v8.06h-4z"/><path d="m44.55 255.58v-3.58h4v3.58zm0 2.36h4v14.5h-4z"/><path d="m52.33 261.6c0-1.23 0-2.57 0-3.66h3.89a17.69 17.69 0 0 1 .17 1.84 4.42 4.42 0 0 1 4.2-2.18c2.91 0 4.79 2 4.79 5.63v9.21h-4v-8.76c0-1.66-.54-2.83-2.33-2.83s-2.66.95-2.66 3.53v8.06h-4z"/><path d="m69.07 261.6c0-1.23 0-2.57 0-3.66h3.89c.08.39.14 1.4.17 1.84a4.41 4.41 0 0 1 4.2-2.18c2.91 0 4.78 2 4.78 5.63v9.21h-4v-8.76c0-1.66-.53-2.83-2.32-2.83s-2.66.95-2.66 3.53v8.06h-4z"/><path d="m99.29 265.16c0 4.4-2.64 7.62-7.23 7.62s-7.06-3.22-7.06-7.54c0-4.48 2.72-7.64 7.31-7.64 4.2 0 6.98 3.02 6.98 7.56zm-10.28 0c0 2.8 1.2 4.45 3.14 4.45s3.08-1.65 3.08-4.42c0-3-1.12-4.46-3.14-4.46-1.85.03-3.09 1.41-3.09 4.46z"/><path d="m104.89 257.94c1.37 4.92 2.52 9.21 2.8 10.94.42-2.38 1.82-6.74 3.08-10.94h4l-5.13 14.5h-4.2l-4.92-14.5z"/><path d="m128.94 268.69a33.66 33.66 0 0 0 .19 3.75h-3.83a5.74 5.74 0 0 1 -.2-1.43c-.53.81-1.51 1.77-4.09 1.77-3.5 0-5-2.3-5-4.54 0-3.3 2.63-4.84 6.89-4.84h2.1v-.87c0-1-.37-2-2.24-2-1.68 0-2.07.7-2.24 1.77h-3.81c.2-2.58 1.79-4.65 6.22-4.65 3.86 0 6 1.54 6 5zm-3.94-2.86h-1.63c-2.43 0-3.33.76-3.33 2.16a1.88 1.88 0 0 0 2.1 1.93c2.55 0 2.86-1.79 2.86-3.7z"/><path d="m131.29 257.94h2.24v-3.94h4v3.92h2.86v3h-2.86v7.17c0 1.09.34 1.51 1.54 1.51h.9v2.75a8.71 8.71 0 0 1 -2.69.28c-2.83 0-3.75-1.52-3.75-4.06v-7.57h-2.24z"/><path d="m143 255.58v-3.58h4v3.58zm0 2.36h4v14.5h-4z"/><path d="m164.24 265.16c0 4.4-2.63 7.62-7.22 7.62s-7.11-3.22-7.11-7.54c0-4.48 2.71-7.64 7.31-7.64 4.25 0 7.02 3.02 7.02 7.56zm-10.27 0c0 2.8 1.2 4.45 3.13 4.45s3.08-1.65 3.08-4.42c0-3-1.12-4.46-3.13-4.46-1.85.03-3.05 1.41-3.05 4.46z"/><path d="m167.16 261.6c0-1.23 0-2.57 0-3.66h3.84c.08.39.14 1.4.17 1.84a4.41 4.41 0 0 1 4.2-2.18c2.91 0 4.79 2 4.79 5.63v9.21h-4v-8.76c0-1.66-.53-2.83-2.32-2.83s-2.66.95-2.66 3.53v8.06h-4z"/><path d="m190.79 272.44v-20.44h4v20.44z"/><path d="m210.58 268.69a33 33 0 0 0 .2 3.75h-3.84a5.75 5.75 0 0 1 -.19-1.43c-.53.81-1.51 1.77-4.09 1.77-3.5 0-5-2.3-5-4.54 0-3.3 2.64-4.84 6.89-4.84h2.07v-.87c0-1-.36-2-2.24-2-1.68 0-2.07.7-2.24 1.77h-3.8c.19-2.58 1.79-4.65 6.21-4.65 3.87 0 6 1.54 6 5zm-3.92-2.86h-1.66c-2.44 0-3.33.76-3.33 2.16a1.87 1.87 0 0 0 2.1 1.93c2.55 0 2.85-1.79 2.85-3.7z"/><path d="m214.34 252h4v7.48c.59-.93 1.79-1.88 4.14-1.88 4 0 5.91 3.28 5.91 7.34s-2.13 7.84-6.3 7.84c-2.16 0-3.11-.65-3.81-1.71a6.18 6.18 0 0 1 -.17 1.37h-3.83c0-1.57 0-3.16 0-4.73zm6.94 8.82c-2.3 0-3.11 1.48-3.11 4.45 0 2.44.73 4.31 3.05 4.31 2.05 0 3.14-1.82 3.14-4.56 0-2.44-.92-4.2-3.08-4.2z"/><path d="m229.68 275.69a23.8 23.8 0 0 0 2.07-8.18h4.12a16.15 16.15 0 0 1 -3.08 8.18z"/><path d="m5.6 331-1.48 4.45h-4.12l6.55-19.29h5.24l6.86 19.29h-4.4l-1.59-4.45zm6.16-3.42c-1.37-4.09-2.24-6.69-2.72-8.43h-.04c-.48 1.91-1.43 4.93-2.52 8.43z"/><path d="m41 333.68c0 4.64-1.71 7.58-7.19 7.58-5.3 0-6.33-2.94-6.47-4.59h4.09a2.28 2.28 0 0 0 2.57 1.68c2.61 0 3.11-1.59 3.11-4.42v-.7a4.28 4.28 0 0 1 -4.09 2c-3.8 0-6-3.13-6-7 0-4.53 2.72-7.64 6.33-7.64 2.49 0 3.53 1.18 3.75 1.85 0-.39.14-1.26.17-1.51h3.73v4.17zm-6.87-1.68c2.41 0 3-1.65 3-4.08s-.42-4.12-3-4.12c-1.74 0-3.11 1.34-3.11 4.26.09 2.51 1.35 3.94 3.11 3.94z"/><path d="m44.69 324.88c0-1.45 0-2.71 0-3.94h4c0 .33.11 1.76.11 2.54a4.67 4.67 0 0 1 4.65-2.88v3.84c-2.91-.09-4.65.7-4.65 4.67v6.33h-4z"/><path d="m69.35 328.16c0 4.4-2.63 7.62-7.22 7.62s-7.13-3.22-7.13-7.54c0-4.48 2.71-7.64 7.31-7.64 4.27 0 7.04 3.02 7.04 7.56zm-10.27 0c0 2.8 1.2 4.45 3.13 4.45s3.08-1.65 3.08-4.42c0-3-1.12-4.46-3.13-4.46-1.85.03-3.08 1.41-3.08 4.46z"/><path d="m85 331.24v4.2h-3.89c0-.39-.08-1.18-.11-1.68a4.14 4.14 0 0 1 -4 2c-2.94 0-4.82-1.8-4.82-5.38v-9.46h4v8.65c0 1.59.5 2.91 2.24 2.91s2.57-1 2.57-3.84v-7.72h4z"/><path d="m88.76 341v-16.56c0-1.18 0-2.33 0-3.5h3.89a15.53 15.53 0 0 1 .14 1.82 4.56 4.56 0 0 1 4.21-2.16c3.28 0 5.77 2.74 5.77 7.22 0 5.13-2.8 8-6.3 8a4.06 4.06 0 0 1 -3.67-1.63v6.81zm6.91-17.16c-2.26 0-3.08 1.48-3.08 4.4 0 2.77.76 4.36 2.92 4.36s3.16-1.65 3.16-4.59c0-2.68-1.06-4.19-3-4.19z"/><path d="m126.05 328.16c0 4.4-2.63 7.62-7.22 7.62s-7.11-3.22-7.11-7.54c0-4.48 2.71-7.64 7.31-7.64 4.25 0 7.02 3.02 7.02 7.56zm-10.27 0c0 2.8 1.2 4.45 3.13 4.45s3.09-1.61 3.09-4.39c0-3-1.12-4.46-3.13-4.46-1.87 0-3.09 1.38-3.09 4.43z"/><path d="m129.5 335.44v-11.44h-2.13v-3h2.13v-1.26c0-3 1.48-5 4.62-5a8.5 8.5 0 0 1 1.85.17v3.16a6.9 6.9 0 0 0 -.84-.05c-1.18 0-1.63.42-1.63 2v1h2.5v3h-2.5v11.48z"/><path d="m145.21 324.69c0-1.26 0-2.49 0-3.75h3.79c.06.36.14 1.17.17 1.73a4.57 4.57 0 0 1 4-2.07 3.83 3.83 0 0 1 3.73 2.21 5.1 5.1 0 0 1 4.48-2.21c2.52 0 4.59 1.57 4.59 5.32v9.52h-3.92v-9c0-1.31-.48-2.6-2.13-2.6s-2.35 1.12-2.35 3.33v8.29h-4v-8.88c0-1.48-.36-2.71-2.07-2.71s-2.41 1-2.41 3.5v8.09h-4z"/><path d="m172.93 329.06c0 1.82.92 3.58 2.91 3.58a2.32 2.32 0 0 0 2.55-1.54h4c-.5 1.76-2.1 4.68-6.64 4.68-4.78 0-6.86-3.56-6.86-7.37 0-4.56 2.33-7.81 7-7.81 5 0 6.67 3.61 6.67 7.22a8 8 0 0 1 -.06 1.24zm5.6-2.47c0-1.68-.7-3.11-2.66-3.11s-2.69 1.32-2.86 3.11z"/><path d="m198.71 315v16.46 4h-3.81c-.08-.45-.16-1.18-.19-1.51-.7 1.15-2 1.85-4.12 1.85-3.67 0-6-2.94-6-7.48s2.46-7.7 6.58-7.7c2.1 0 3.22.76 3.53 1.4v-7zm-6.91 17.56c2.74 0 3.08-2.3 3.08-4.37 0-2.49-.37-4.37-3-4.37-2.1 0-3.16 1.65-3.16 4.4s1.09 4.34 3.08 4.34z"/><path d="m202.41 318.58v-3.58h4v3.58zm0 2.36h4v14.5h-4z"/><path d="m222.2 331.69a33 33 0 0 0 .2 3.75h-3.84a5.75 5.75 0 0 1 -.19-1.43c-.53.81-1.51 1.77-4.09 1.77-3.5 0-5-2.3-5-4.54 0-3.3 2.64-4.84 6.89-4.84h2.07v-.87c0-1-.36-2-2.24-2-1.68 0-2.07.7-2.24 1.77h-3.76c.19-2.58 1.79-4.65 6.21-4.65 3.87 0 6 1.54 6 5zm-3.92-2.86h-1.62c-2.44 0-3.33.76-3.33 2.16a1.87 1.87 0 0 0 2.1 1.93c2.55 0 2.85-1.79 2.85-3.7z"/><path d="m244.91 331.69a30.73 30.73 0 0 0 .2 3.75h-3.84a5.75 5.75 0 0 1 -.19-1.43c-.54.81-1.52 1.77-4.09 1.77-3.5 0-5-2.3-5-4.54 0-3.3 2.63-4.84 6.89-4.84h2.12v-.87c0-1-.36-2-2.24-2-1.68 0-2.07.7-2.24 1.77h-3.82c.2-2.58 1.8-4.65 6.22-4.65 3.86 0 6 1.54 6 5zm-3.91-2.86h-1.62c-2.44 0-3.33.76-3.33 2.16a1.87 1.87 0 0 0 2.1 1.93c2.54 0 2.85-1.79 2.85-3.7z"/><path d="m248.66 324.88c0-1.45 0-2.71 0-3.94h4c.06.33.12 1.76.12 2.54a4.66 4.66 0 0 1 4.64-2.88v3.84c-2.91-.09-4.64.7-4.64 4.67v6.33h-4z"/><path d="m258.44 320.94h2.24v-3.94h4v3.92h2.86v3h-2.86v7.17c0 1.09.34 1.51 1.54 1.51h.9v2.75a8.74 8.74 0 0 1 -2.69.28c-2.83 0-3.75-1.52-3.75-4.06v-7.57h-2.24z"/><path d="m270.14 318.58v-3.58h4v3.58zm0 2.36h4v14.5h-4z"/><path d="m280.86 331.07a2.51 2.51 0 0 0 2.75 1.82c1.48 0 2-.53 2-1.43s-.61-1.28-2.68-1.79c-4.74-1.17-5.49-2.63-5.49-4.67s1.48-4.4 5.85-4.4 5.91 2.41 6 4.37h-3.81c-.14-.53-.5-1.54-2.38-1.54-1.31 0-1.76.59-1.76 1.23s.45 1.06 2.8 1.62c4.84 1.12 5.54 2.78 5.54 4.9 0 2.41-1.85 4.6-6.24 4.6s-6.22-2.13-6.55-4.71z"/><path d="m291.08 320.94h2.24v-3.94h4v3.92h2.85v3h-2.85v7.17c0 1.09.33 1.51 1.54 1.51h.89v2.75a8.68 8.68 0 0 1 -2.69.28c-2.82 0-3.75-1.52-3.75-4.06v-7.57h-2.24z"/><path d="m305.75 331.07a2.51 2.51 0 0 0 2.75 1.82c1.48 0 2-.53 2-1.43s-.61-1.28-2.68-1.79c-4.74-1.17-5.49-2.63-5.49-4.67s1.48-4.4 5.85-4.4 5.91 2.41 6 4.37h-3.78c-.14-.53-.5-1.54-2.38-1.54-1.31 0-1.76.59-1.76 1.23s.45 1.06 2.8 1.62c4.84 1.12 5.54 2.78 5.54 4.9 0 2.41-1.85 4.6-6.24 4.6s-6.22-2.13-6.55-4.71z"/><path d="m315.75 338.69a23.8 23.8 0 0 0 2.07-8.18h4.12a16.15 16.15 0 0 1 -3.08 8.18z"/><path d="m19.77 388.72c0 5.38-3.22 10-9.49 10-6.08 0-9.24-4.4-9.24-9.94s3.5-9.91 9.49-9.91c5.65 0 9.24 3.95 9.24 9.85zm-14.42 0c0 3.78 1.65 6.63 5.07 6.63 3.72 0 5-3.11 5-6.55 0-3.67-1.52-6.52-5.1-6.52s-4.97 2.66-4.97 6.42z"/><path d="m23 387.88c0-1.45 0-2.71 0-3.94h4c.06.33.12 1.76.12 2.54a4.66 4.66 0 0 1 4.64-2.88v3.84c-2.91-.09-4.64.7-4.64 4.67v6.33h-4.12z"/><path d="m44 383.94c1.32 5.82 2 9.12 2.3 10.94h.06c.3-1.62.72-3.89 2.49-10.94h3.72c1.63 7.14 2.13 9.24 2.33 10.78.31-1.49.76-3.64 2.44-10.78h4l-4.32 14.5h-4.24c-1.2-5.49-1.88-8.4-2.21-10.3-.22 1.82-1 5.09-2.3 10.3h-4.34l-4.11-14.5z"/><path d="m67.82 378v7.67a4.56 4.56 0 0 1 4.18-2.07c2.69 0 4.84 1.62 4.84 5.54v9.3h-4v-8.71c0-1.87-.67-2.88-2.35-2.88-2.24 0-2.66 1.68-2.66 3.89v7.7h-4v-20.44z"/><path d="m92.6 394.69a33.66 33.66 0 0 0 .19 3.75h-3.79a5.31 5.31 0 0 1 -.2-1.43c-.53.81-1.51 1.77-4.09 1.77-3.5 0-5-2.3-5-4.54 0-3.3 2.63-4.84 6.88-4.84h2.08v-.87c0-1-.37-2-2.24-2-1.68 0-2.08.7-2.24 1.77h-3.8c.19-2.58 1.79-4.65 6.21-4.65 3.87 0 6 1.54 6 5zm-3.92-2.86h-1.63c-2.43 0-3.33.76-3.33 2.16a1.87 1.87 0 0 0 2.1 1.93c2.55 0 2.86-1.79 2.86-3.7z"/><path d="m95 383.94h2.24v-3.94h4v3.92h2.86v3h-2.86v7.17c0 1.09.34 1.51 1.54 1.51h.9v2.75a8.74 8.74 0 0 1 -2.69.28c-2.83 0-3.75-1.52-3.75-4.06v-7.57h-2.24z"/><path d="m109.84 392.06c0 1.82.93 3.58 2.91 3.58a2.32 2.32 0 0 0 2.55-1.54h4c-.51 1.76-2.1 4.68-6.64 4.68-4.79 0-6.86-3.56-6.86-7.37 0-4.56 2.32-7.81 7-7.81 5 0 6.66 3.61 6.66 7.22a9.56 9.56 0 0 1 0 1.24zm5.6-2.47c0-1.68-.7-3.11-2.66-3.11s-2.69 1.32-2.85 3.11z"/><path d="m125.05 383.94c1.37 4.92 2.52 9.21 2.8 10.94.42-2.38 1.82-6.74 3.08-10.94h4l-5.13 14.5h-4.2l-4.92-14.5z"/><path d="m140.25 392.06c0 1.82.92 3.58 2.91 3.58a2.32 2.32 0 0 0 2.55-1.54h4c-.5 1.76-2.1 4.68-6.63 4.68-4.79 0-6.86-3.56-6.86-7.37 0-4.56 2.32-7.81 7-7.81 4.95 0 6.66 3.61 6.66 7.22a9.56 9.56 0 0 1 0 1.24zm5.6-2.47c0-1.68-.7-3.11-2.66-3.11s-2.69 1.32-2.86 3.11z"/><path d="m152.74 387.88c0-1.45 0-2.71 0-3.94h3.95c.05.33.11 1.76.11 2.54a4.67 4.67 0 0 1 4.65-2.88v3.84c-2.91-.09-4.65.7-4.65 4.67v6.33h-4z"/><path d="m174 392.06c0 1.82.92 3.58 2.91 3.58a2.32 2.32 0 0 0 2.55-1.54h4c-.5 1.76-2.1 4.68-6.63 4.68-4.79 0-6.86-3.56-6.86-7.37 0-4.56 2.32-7.81 7-7.81 4.95 0 6.66 3.61 6.66 7.22a8 8 0 0 1 -.06 1.24zm5.6-2.47c0-1.68-.7-3.11-2.66-3.11s-2.69 1.32-2.86 3.11z"/><path d="m186.51 398.44v-20.44h4v20.44z"/><path d="m197.23 394.07a2.51 2.51 0 0 0 2.74 1.82c1.49 0 2-.53 2-1.43s-.62-1.28-2.69-1.79c-4.73-1.17-5.49-2.63-5.49-4.67s1.49-4.4 5.86-4.4 5.9 2.41 6 4.37h-3.81c-.14-.53-.51-1.54-2.38-1.54-1.32 0-1.77.59-1.77 1.23s.45 1.06 2.8 1.62c4.85 1.12 5.55 2.78 5.55 4.9 0 2.41-1.85 4.6-6.25 4.6s-6.21-2.13-6.55-4.71z"/><path d="m212 392.06c0 1.82.93 3.58 2.91 3.58a2.32 2.32 0 0 0 2.55-1.54h4c-.5 1.76-2.09 4.68-6.63 4.68-4.79 0-6.86-3.56-6.86-7.37 0-4.56 2.32-7.81 7-7.81 5 0 6.66 3.61 6.66 7.22a9.56 9.56 0 0 1 0 1.24zm5.6-2.47c0-1.68-.7-3.11-2.66-3.11s-2.69 1.32-2.86 3.11z"/><path d="m234.1 383.94c1.49 5 2.8 9.46 3 10.8.3-1.45 1.17-4.7 2.88-10.8h4l-4.87 14.92c-1.37 4.17-2.55 5.4-6 5.4a16.43 16.43 0 0 1 -1.87-.11v-3.22c.28 0 .7.06 1 .06 1.49 0 2.21-.51 2.77-2.1l-5.29-14.95z"/><path d="m259.61 391.16c0 4.4-2.63 7.62-7.22 7.62s-7.11-3.22-7.11-7.54c0-4.48 2.71-7.64 7.3-7.64 4.26 0 7.03 3.02 7.03 7.56zm-10.27 0c0 2.8 1.2 4.45 3.13 4.45s3.08-1.65 3.08-4.42c0-3-1.12-4.46-3.13-4.46-1.85.03-3.08 1.41-3.08 4.46z"/><path d="m275.26 394.24v4.2h-3.92c-.05-.39-.08-1.18-.11-1.68a4.14 4.14 0 0 1 -4 2c-2.94 0-4.82-1.8-4.82-5.38v-9.46h4v8.65c0 1.59.51 2.91 2.24 2.91s2.58-1 2.58-3.84v-7.72h4z"/><path d="m288.84 383.94c1.32 5.82 2 9.12 2.3 10.94h.06c.3-1.62.72-3.89 2.49-10.94h3.72c1.63 7.14 2.13 9.24 2.33 10.78.31-1.49.76-3.64 2.44-10.78h4l-4.32 14.5h-4.28c-1.2-5.49-1.88-8.4-2.21-10.3-.22 1.82-1 5.09-2.3 10.3h-4.31l-4.11-14.5z"/><path d="m320.62 394.69a33 33 0 0 0 .2 3.75h-3.82a5.75 5.75 0 0 1 -.19-1.43c-.54.81-1.51 1.77-4.09 1.77-3.5 0-5-2.3-5-4.54 0-3.3 2.64-4.84 6.89-4.84h2.07v-.87c0-1-.36-2-2.24-2-1.68 0-2.07.7-2.24 1.77h-3.8c.19-2.58 1.79-4.65 6.21-4.65 3.87 0 6 1.54 6 5zm-3.92-2.86h-1.62c-2.44 0-3.33.76-3.33 2.16a1.87 1.87 0 0 0 2.1 1.93c2.54 0 2.85-1.79 2.85-3.7z"/><path d="m324.4 387.6c0-1.23 0-2.57 0-3.66h3.9a17.74 17.74 0 0 1 .16 1.84 4.43 4.43 0 0 1 4.2-2.18c2.92 0 4.79 2 4.79 5.63v9.21h-4v-8.76c0-1.66-.53-2.83-2.33-2.83s-2.66.95-2.66 3.53v8.06h-4z"/><path d="m339.72 383.94h2.28v-3.94h4v3.92h2.86v3h-2.86v7.17c0 1.09.34 1.51 1.54 1.51h.9v2.75a8.74 8.74 0 0 1 -2.69.28c-2.83 0-3.75-1.52-3.75-4.06v-7.57h-2.24z"/><path d="m356.94 383.94h2.24v-3.94h4v3.92h2.82v3h-2.86v7.17c0 1.09.34 1.51 1.54 1.51h.9v2.75a8.74 8.74 0 0 1 -2.69.28c-2.83 0-3.75-1.52-3.75-4.06v-7.57h-2.24z"/><path d="m382.14 391.16c0 4.4-2.63 7.62-7.23 7.62s-7.11-3.22-7.11-7.54c0-4.48 2.72-7.64 7.31-7.64 4.26 0 7.03 3.02 7.03 7.56zm-10.28 0c0 2.8 1.21 4.45 3.14 4.45s3.08-1.65 3.08-4.42c0-3-1.12-4.46-3.14-4.46-1.85.03-3.08 1.41-3.08 4.46z"/><path d="m404.48 393.76c-.48 2.41-2.18 5-6.5 5-4.5 0-6.83-3.11-6.83-7.48s2.61-7.7 7-7.7c4.87 0 6.24 3.53 6.3 5.15h-3.89a2.27 2.27 0 0 0 -2.49-2c-1.85 0-2.89 1.6-2.89 4.4 0 3.11 1.12 4.51 2.86 4.51a2.46 2.46 0 0 0 2.49-1.91z"/><path d="m419.21 394.69a33.66 33.66 0 0 0 .19 3.75h-3.83a5.74 5.74 0 0 1 -.2-1.43c-.53.81-1.51 1.77-4.09 1.77-3.5 0-4.95-2.3-4.95-4.54 0-3.3 2.63-4.84 6.89-4.84h2.07v-.87c0-1-.37-2-2.24-2-1.68 0-2.07.7-2.24 1.77h-3.81c.2-2.58 1.79-4.65 6.22-4.65 3.86 0 6 1.54 6 5zm-3.92-2.86h-1.63c-2.43 0-3.33.76-3.33 2.16a1.88 1.88 0 0 0 2.1 1.93c2.55 0 2.86-1.79 2.86-3.7z"/><path d="m423 398.44v-20.44h4v20.44z"/><path d="m430.71 398.44v-20.44h4v20.44z"/><path d="m458.15 394.24v4.2h-3.92c-.05-.39-.08-1.18-.11-1.68a4.15 4.15 0 0 1 -4 2c-2.93 0-4.81-1.8-4.81-5.38v-9.46h4v8.65c0 1.59.51 2.91 2.24 2.91s2.58-1 2.58-3.84v-7.72h4z"/><path d="m464.87 394.07a2.51 2.51 0 0 0 2.75 1.82c1.48 0 2-.53 2-1.43s-.61-1.28-2.68-1.79c-4.74-1.17-5.49-2.63-5.49-4.67s1.48-4.4 5.85-4.4 5.91 2.41 6 4.37h-3.81c-.14-.53-.5-1.54-2.38-1.54-1.31 0-1.76.59-1.76 1.23s.45 1.06 2.8 1.62c4.84 1.12 5.54 2.78 5.54 4.9 0 2.41-1.85 4.6-6.24 4.6s-6.22-2.13-6.56-4.71z"/><path d="m476.07 398.44v-4.93h4.29v4.93z"/><path d="m5.1 524.44-4.93-19.29h4.45c1.82 8.85 2.63 12.79 2.86 14.92.73-3.55 2.61-10.27 3.73-14.92h3.79c1 3.69 2.94 11.17 3.58 14.73.65-4.26 2.52-11.74 3.22-14.73h4l-5.2 19.29h-4.3c-1-4.28-2.72-10.53-3.39-13.83-.7 3.44-2.44 9.94-3.47 13.83z"/><path d="m32.28 504v7.67a4.6 4.6 0 0 1 4.15-2.07c2.69 0 4.84 1.62 4.84 5.54v9.3h-4v-8.71c0-1.87-.68-2.88-2.36-2.88-2.24 0-2.66 1.68-2.66 3.89v7.7h-4v-20.44z"/><path d="m57.06 520.69a30.73 30.73 0 0 0 .2 3.75h-3.84a5.75 5.75 0 0 1 -.19-1.43c-.54.81-1.52 1.77-4.09 1.77-3.5 0-5-2.3-5-4.54 0-3.3 2.63-4.84 6.89-4.84h2.07v-.87c0-1-.36-2-2.24-2-1.68 0-2.07.7-2.24 1.77h-3.77c.2-2.58 1.8-4.65 6.22-4.65 3.87 0 6 1.54 6 5zm-3.92-2.86h-1.62c-2.44 0-3.33.76-3.33 2.16a1.87 1.87 0 0 0 2.1 1.93c2.54 0 2.85-1.79 2.85-3.7z"/><path d="m59.42 509.94h2.23v-3.94h4v3.92h2.86v3h-2.85v7.17c0 1.09.34 1.51 1.54 1.51h.89v2.75a8.65 8.65 0 0 1 -2.68.28c-2.83 0-3.76-1.52-3.76-4.06v-7.57h-2.23z"/><path d="m78 513.69c0-1.26 0-2.49 0-3.75h3.83c.06.36.14 1.17.17 1.73a4.56 4.56 0 0 1 4-2.07 3.84 3.84 0 0 1 3.73 2.21 5.09 5.09 0 0 1 4.48-2.21c2.52 0 4.59 1.57 4.59 5.32v9.52h-3.88v-9c0-1.31-.48-2.6-2.13-2.6s-2.35 1.12-2.35 3.33v8.29h-4v-8.88c0-1.48-.36-2.71-2.07-2.71s-2.41 1-2.41 3.5v8.09h-3.96z"/><path d="m114.6 520.69a30.73 30.73 0 0 0 .2 3.75h-3.8a5.75 5.75 0 0 1 -.19-1.43c-.54.81-1.52 1.77-4.09 1.77-3.5 0-5-2.3-5-4.54 0-3.3 2.63-4.84 6.89-4.84h2.07v-.87c0-1-.36-2-2.24-2-1.68 0-2.07.7-2.24 1.77h-3.81c.2-2.58 1.8-4.65 6.22-4.65 3.86 0 6 1.54 6 5zm-3.92-2.86h-1.62c-2.44 0-3.33.76-3.33 2.16a1.87 1.87 0 0 0 2.1 1.93c2.54 0 2.85-1.79 2.85-3.7z"/><path d="m117 509.94h2.24v-3.94h4v3.92h2.85v3h-2.89v7.17c0 1.09.33 1.51 1.54 1.51h.89v2.75a8.65 8.65 0 0 1 -2.68.28c-2.83 0-3.76-1.52-3.76-4.06v-7.57h-2.19z"/><path d="m127.26 509.94h2.24v-3.94h4v3.92h2.86v3h-2.86v7.17c0 1.09.34 1.51 1.54 1.51h.9v2.75a8.74 8.74 0 0 1 -2.69.28c-2.83 0-3.75-1.52-3.75-4.06v-7.57h-2.24z"/><path d="m142.15 518.06c0 1.82.93 3.58 2.91 3.58a2.31 2.31 0 0 0 2.55-1.54h4c-.51 1.76-2.1 4.68-6.64 4.68-4.79 0-6.86-3.56-6.86-7.37 0-4.56 2.32-7.81 7-7.81 5 0 6.66 3.61 6.66 7.22a9.56 9.56 0 0 1 -.05 1.24zm5.6-2.47c0-1.68-.7-3.11-2.66-3.11s-2.69 1.32-2.85 3.11z"/><path d="m154.64 513.88c0-1.45 0-2.71 0-3.94h3.95c.06.33.11 1.76.11 2.54a4.69 4.69 0 0 1 4.65-2.88v3.84c-2.91-.09-4.65.7-4.65 4.67v6.33h-4z"/><path d="m168.78 520.07a2.51 2.51 0 0 0 2.74 1.82c1.49 0 2-.53 2-1.43s-.62-1.28-2.69-1.79c-4.73-1.17-5.48-2.63-5.48-4.67s1.48-4.4 5.85-4.4 5.9 2.41 6 4.37h-3.81c-.14-.53-.51-1.54-2.38-1.54-1.32 0-1.76.59-1.76 1.23s.44 1.06 2.79 1.62c4.85 1.12 5.55 2.78 5.55 4.9 0 2.41-1.85 4.6-6.25 4.6s-6.21-2.13-6.55-4.71z"/><path d="m187.32 507.58v-3.58h4v3.58zm0 2.36h4v14.5h-4z"/><path d="m198 520.07a2.51 2.51 0 0 0 2.74 1.82c1.49 0 2-.53 2-1.43s-.62-1.28-2.69-1.79c-4.73-1.17-5.49-2.63-5.49-4.67s1.49-4.4 5.86-4.4 5.9 2.41 6 4.37h-3.81c-.14-.53-.51-1.54-2.38-1.54-1.32 0-1.77.59-1.77 1.23s.45 1.06 2.8 1.62c4.85 1.12 5.55 2.78 5.55 4.9 0 2.41-1.85 4.6-6.25 4.6s-6.21-2.13-6.55-4.71z"/><path d="m215.18 509.94h2.24v-3.94h4v3.92h2.86v3h-2.86v7.17c0 1.09.34 1.51 1.54 1.51h.9v2.75a8.74 8.74 0 0 1 -2.69.28c-2.83 0-3.75-1.52-3.75-4.06v-7.57h-2.24z"/><path d="m230.91 504v7.67a4.58 4.58 0 0 1 4.15-2.07c2.68 0 4.84 1.62 4.84 5.54v9.3h-4v-8.71c0-1.87-.67-2.88-2.35-2.88-2.24 0-2.66 1.68-2.66 3.89v7.7h-4v-20.44z"/><path d="m246.84 518.06c0 1.82.93 3.58 2.91 3.58a2.31 2.31 0 0 0 2.55-1.54h4c-.51 1.76-2.1 4.68-6.64 4.68-4.79 0-6.86-3.56-6.86-7.37 0-4.56 2.33-7.81 7-7.81 5 0 6.67 3.61 6.67 7.22a8 8 0 0 1 -.06 1.24zm5.6-2.47c0-1.68-.7-3.11-2.66-3.11s-2.68 1.32-2.85 3.11z"/><path d="m266.81 524.44v-11.44h-2.13v-3h2.13v-1.26c0-3 1.48-5 4.62-5a8.34 8.34 0 0 1 1.84.17v3.16a6.65 6.65 0 0 0 -.84-.05c-1.17 0-1.62.42-1.62 2v1h2.52v3h-2.52v11.48z"/><path d="m287.64 520.69a33.66 33.66 0 0 0 .19 3.75h-3.83a5.74 5.74 0 0 1 -.2-1.43c-.53.81-1.51 1.77-4.09 1.77-3.5 0-4.95-2.3-4.95-4.54 0-3.3 2.63-4.84 6.89-4.84h2.07v-.87c0-1-.37-2-2.24-2-1.68 0-2.07.7-2.24 1.77h-3.81c.2-2.58 1.79-4.65 6.22-4.65 3.86 0 6 1.54 6 5zm-3.92-2.86h-1.63c-2.43 0-3.33.76-3.33 2.16a1.88 1.88 0 0 0 2.1 1.93c2.55 0 2.86-1.79 2.86-3.7z"/><path d="m303.93 519.76c-.47 2.41-2.18 5-6.49 5-4.51 0-6.83-3.11-6.83-7.48s2.6-7.7 7-7.7c4.88 0 6.25 3.53 6.3 5.15h-3.91a2.27 2.27 0 0 0 -2.49-2c-1.85 0-2.88 1.6-2.88 4.4 0 3.11 1.12 4.51 2.85 4.51a2.46 2.46 0 0 0 2.49-1.91z"/><path d="m305.22 509.94h2.24v-3.94h4v3.92h2.86v3h-2.86v7.17c0 1.09.34 1.51 1.54 1.51h.9v2.75a8.68 8.68 0 0 1 -2.69.28c-2.83 0-3.75-1.52-3.75-4.06v-7.57h-2.24z"/><path d="m322.44 509.94h2.24v-3.94h4v3.92h2.86v3h-2.86v7.17c0 1.09.34 1.51 1.54 1.51h.9v2.75a8.68 8.68 0 0 1 -2.69.28c-2.83 0-3.75-1.52-3.75-4.06v-7.57h-2.24z"/><path d="m338.18 504v7.67a4.56 4.56 0 0 1 4.14-2.07c2.69 0 4.84 1.62 4.84 5.54v9.3h-4v-8.71c0-1.87-.67-2.88-2.35-2.88-2.24 0-2.66 1.68-2.66 3.89v7.7h-4v-20.44z"/><path d="m363 520.69a33.66 33.66 0 0 0 .19 3.75h-3.83a5.74 5.74 0 0 1 -.2-1.43c-.53.81-1.51 1.77-4.09 1.77-3.5 0-4.95-2.3-4.95-4.54 0-3.3 2.63-4.84 6.88-4.84h2v-.87c0-1-.37-2-2.24-2-1.68 0-2.08.7-2.24 1.77h-3.81c.2-2.58 1.79-4.65 6.21-4.65 3.87 0 6 1.54 6 5zm-4-2.86h-1.63c-2.43 0-3.33.76-3.33 2.16a1.87 1.87 0 0 0 2.1 1.93c2.55 0 2.86-1.79 2.86-3.7z"/><path d="m365.31 509.94h2.24v-3.94h4v3.92h2.86v3h-2.86v7.17c0 1.09.34 1.51 1.54 1.51h.9v2.75a8.74 8.74 0 0 1 -2.69.28c-2.83 0-3.75-1.52-3.75-4.06v-7.57h-2.24z"/><path d="m5.1 587.44-4.93-19.29h4.45c1.82 8.85 2.63 12.79 2.86 14.92.73-3.55 2.61-10.27 3.73-14.92h3.79c1 3.69 2.94 11.17 3.58 14.73.65-4.26 2.52-11.74 3.22-14.73h4l-5.2 19.29h-4.3c-1-4.28-2.72-10.53-3.39-13.83-.7 3.44-2.44 9.94-3.47 13.83z"/><path d="m32.28 567v7.67a4.6 4.6 0 0 1 4.15-2.07c2.69 0 4.84 1.62 4.84 5.54v9.3h-4v-8.71c0-1.87-.68-2.88-2.36-2.88-2.24 0-2.66 1.68-2.66 3.89v7.7h-4v-20.44z"/><path d="m57.06 583.69a30.73 30.73 0 0 0 .2 3.75h-3.84a5.75 5.75 0 0 1 -.19-1.43c-.54.81-1.52 1.77-4.09 1.77-3.5 0-5-2.3-5-4.54 0-3.3 2.63-4.84 6.89-4.84h2.07v-.87c0-1-.36-2-2.24-2-1.68 0-2.07.7-2.24 1.77h-3.77c.2-2.58 1.8-4.65 6.22-4.65 3.87 0 6 1.54 6 5zm-3.92-2.86h-1.62c-2.44 0-3.33.76-3.33 2.16a1.87 1.87 0 0 0 2.1 1.93c2.54 0 2.85-1.79 2.85-3.7z"/><path d="m59.42 572.94h2.23v-3.94h4v3.92h2.86v3h-2.85v7.17c0 1.09.34 1.51 1.54 1.51h.89v2.75a8.65 8.65 0 0 1 -2.68.28c-2.83 0-3.76-1.52-3.76-4.06v-7.57h-2.23z"/><path d="m74.31 581.06c0 1.82.92 3.58 2.91 3.58a2.32 2.32 0 0 0 2.55-1.54h4c-.5 1.76-2.1 4.68-6.63 4.68-4.79 0-6.86-3.56-6.86-7.37 0-4.56 2.32-7.81 7-7.81 5 0 6.66 3.61 6.66 7.22a9.56 9.56 0 0 1 0 1.24zm5.6-2.47c0-1.68-.7-3.11-2.66-3.11s-2.69 1.32-2.86 3.11z"/><path d="m89.51 572.94c1.38 4.92 2.52 9.21 2.8 10.94.42-2.38 1.82-6.74 3.08-10.94h4l-5.13 14.5h-4.16l-4.93-14.5z"/><path d="m104.16 581.06c0 1.82.92 3.58 2.91 3.58a2.32 2.32 0 0 0 2.55-1.54h4c-.5 1.76-2.1 4.68-6.63 4.68-4.79 0-6.86-3.56-6.86-7.37 0-4.56 2.32-7.81 7-7.81 5 0 6.66 3.61 6.66 7.22a8 8 0 0 1 -.06 1.24zm5.6-2.47c0-1.68-.7-3.11-2.66-3.11s-2.69 1.32-2.86 3.11z"/><path d="m116.65 576.88c0-1.45 0-2.71 0-3.94h3.95c.05.33.11 1.76.11 2.54a4.67 4.67 0 0 1 4.65-2.88v3.84c-2.92-.09-4.65.7-4.65 4.67v6.33h-4z"/><path d="m136 572.94c1.31 5.82 2 9.12 2.29 10.94h.06c.31-1.62.73-3.89 2.49-10.94h3.72c1.63 7.14 2.13 9.24 2.33 10.78.3-1.49.75-3.64 2.43-10.78h4l-4.32 14.5h-4.3c-1.2-5.49-1.87-8.4-2.21-10.3-.22 1.82-1 5.09-2.29 10.3h-4.32l-4.11-14.5z"/><path d="m158.34 581.06c0 1.82.92 3.58 2.91 3.58a2.32 2.32 0 0 0 2.55-1.54h4c-.5 1.76-2.1 4.68-6.63 4.68-4.79 0-6.86-3.56-6.86-7.37 0-4.56 2.32-7.81 7-7.81 4.95 0 6.66 3.61 6.66 7.22a8 8 0 0 1 -.06 1.24zm5.6-2.47c0-1.68-.7-3.11-2.66-3.11s-2.69 1.32-2.86 3.11z"/><path d="m188.61 582.76c-.48 2.41-2.19 5-6.5 5-4.51 0-6.83-3.11-6.83-7.48s2.6-7.7 7-7.7c4.87 0 6.24 3.53 6.3 5.15h-3.9a2.27 2.27 0 0 0 -2.49-2c-1.85 0-2.88 1.6-2.88 4.4 0 3.11 1.12 4.51 2.85 4.51a2.48 2.48 0 0 0 2.5-1.91z"/><path d="m202.77 583.69a33 33 0 0 0 .2 3.75h-3.84a5.75 5.75 0 0 1 -.19-1.43c-.53.81-1.51 1.77-4.09 1.77-3.5 0-5-2.3-5-4.54 0-3.3 2.64-4.84 6.89-4.84h2.07v-.87c0-1-.36-2-2.24-2-1.68 0-2.07.7-2.24 1.77h-3.8c.19-2.58 1.79-4.65 6.21-4.65 3.87 0 6 1.54 6 5zm-3.92-2.86h-1.62c-2.44 0-3.33.76-3.33 2.16a1.87 1.87 0 0 0 2.1 1.93c2.55 0 2.85-1.79 2.85-3.7z"/><path d="m206.55 576.6c0-1.23 0-2.57 0-3.66h3.89c.08.39.14 1.4.17 1.84a4.41 4.41 0 0 1 4.2-2.18c2.91 0 4.78 2 4.78 5.63v9.21h-4v-8.76c0-1.66-.53-2.83-2.32-2.83s-2.66.95-2.66 3.53v8.06h-4z"/><path d="m230.19 570.58v-3.58h4v3.58zm0 2.36h4v14.5h-4z"/><path d="m237.38 576.69c0-1.26 0-2.49 0-3.75h3.84c.05.36.14 1.17.17 1.73a4.55 4.55 0 0 1 4-2.07 3.81 3.81 0 0 1 3.72 2.21 5.1 5.1 0 0 1 4.48-2.21c2.52 0 4.59 1.57 4.59 5.32v9.52h-3.92v-9c0-1.31-.47-2.6-2.12-2.6s-2.36 1.12-2.36 3.33v8.29h-3.94v-8.88c0-1.48-.37-2.71-2.08-2.71s-2.4 1-2.4 3.5v8.09h-4z"/><path d="m274 583.69a33.66 33.66 0 0 0 .19 3.75h-3.83a5.74 5.74 0 0 1 -.2-1.43c-.53.81-1.51 1.77-4.09 1.77-3.5 0-4.95-2.3-4.95-4.54 0-3.3 2.63-4.84 6.89-4.84h1.99v-.87c0-1-.37-2-2.24-2-1.68 0-2.07.7-2.24 1.77h-3.81c.2-2.58 1.79-4.65 6.22-4.65 3.86 0 6 1.54 6 5zm-4-2.86h-1.6c-2.43 0-3.33.76-3.33 2.16a1.88 1.88 0 0 0 2.1 1.93c2.55 0 2.86-1.79 2.86-3.7z"/><path d="m290.89 585.68c0 4.64-1.71 7.58-7.2 7.58-5.29 0-6.33-2.94-6.47-4.59h4.09a2.29 2.29 0 0 0 2.55 1.68c2.6 0 3.11-1.59 3.11-4.42v-.7a4.29 4.29 0 0 1 -4.09 2c-3.81 0-6-3.13-6-7 0-4.53 2.71-7.64 6.32-7.64 2.5 0 3.53 1.18 3.76 1.85 0-.39.14-1.26.16-1.51h3.79v4.17zm-6.89-1.68c2.41 0 3.05-1.65 3.05-4.08s-.42-4.12-3-4.12c-1.73 0-3.11 1.34-3.11 4.26.06 2.51 1.32 3.94 3.06 3.94z"/><path d="m295.14 570.58v-3.58h4v3.58zm0 2.36h4v14.5h-4z"/><path d="m302.93 576.6c0-1.23 0-2.57 0-3.66h3.89a17.69 17.69 0 0 1 .17 1.84 4.42 4.42 0 0 1 4.2-2.18c2.91 0 4.79 2 4.79 5.63v9.21h-4v-8.76c0-1.66-.53-2.83-2.32-2.83s-2.66.95-2.66 3.53v8.06h-4z"/><path d="m322.83 581.06c0 1.82.93 3.58 2.92 3.58a2.3 2.3 0 0 0 2.54-1.54h4c-.51 1.76-2.1 4.68-6.64 4.68-4.78 0-6.86-3.56-6.86-7.37 0-4.56 2.33-7.81 7-7.81 5 0 6.67 3.61 6.67 7.22a8 8 0 0 1 -.06 1.24zm5.6-2.47c0-1.68-.7-3.11-2.66-3.11s-2.68 1.32-2.85 3.11z"/><path d="m334.26 590.69a24 24 0 0 0 2.07-8.18h4.12a16.24 16.24 0 0 1 -3.08 8.18z"/><path d="m353.44 572.94c1.31 5.82 2 9.12 2.29 10.94h.06c.31-1.62.73-3.89 2.49-10.94h3.72c1.63 7.14 2.13 9.24 2.33 10.78.31-1.49.75-3.64 2.43-10.78h4l-4.31 14.5h-4.29c-1.16-5.44-1.86-8.44-2.16-10.3-.22 1.82-1 5.09-2.29 10.3h-4.31l-4.12-14.5z"/><path d="m375.81 581.06c0 1.82.92 3.58 2.91 3.58a2.32 2.32 0 0 0 2.55-1.54h4c-.5 1.76-2.1 4.68-6.63 4.68-4.79 0-6.86-3.56-6.86-7.37 0-4.56 2.32-7.81 7-7.81 5 0 6.66 3.61 6.66 7.22a8 8 0 0 1 -.06 1.24zm5.6-2.47c0-1.68-.7-3.11-2.66-3.11s-2.69 1.32-2.86 3.11z"/><path d="m405.52 582.76c-.48 2.41-2.19 5-6.5 5-4.51 0-6.83-3.11-6.83-7.48s2.6-7.7 7-7.7c4.87 0 6.24 3.53 6.3 5.15h-3.9a2.27 2.27 0 0 0 -2.49-2c-1.85 0-2.88 1.6-2.88 4.4 0 3.11 1.12 4.51 2.85 4.51a2.48 2.48 0 0 0 2.5-1.91z"/><path d="m419.68 583.69a33 33 0 0 0 .2 3.75h-3.88a5.75 5.75 0 0 1 -.19-1.43c-.53.81-1.51 1.77-4.09 1.77-3.5 0-5-2.3-5-4.54 0-3.3 2.64-4.84 6.89-4.84h2.07v-.87c0-1-.36-2-2.24-2-1.68 0-2.07.7-2.24 1.77h-3.8c.19-2.58 1.79-4.65 6.21-4.65 3.87 0 6 1.54 6 5zm-3.92-2.86h-1.62c-2.44 0-3.33.76-3.33 2.16a1.87 1.87 0 0 0 2.1 1.93c2.55 0 2.85-1.79 2.85-3.7z"/><path d="m423.46 576.6c0-1.23 0-2.57 0-3.66h3.89c.08.39.14 1.4.17 1.84a4.41 4.41 0 0 1 4.2-2.18c2.91 0 4.78 2 4.78 5.63v9.21h-4v-8.76c0-1.66-.53-2.83-2.32-2.83s-2.66.95-2.66 3.53v8.06h-4z"/><path d="m444.86 576.69c0-1.26 0-2.49 0-3.75h3.83c.06.36.14 1.17.17 1.73a4.57 4.57 0 0 1 4-2.07 3.83 3.83 0 0 1 3.73 2.21 5.1 5.1 0 0 1 4.48-2.21c2.52 0 4.59 1.57 4.59 5.32v9.52h-3.92v-9c0-1.31-.48-2.6-2.13-2.6s-2.35 1.12-2.35 3.33v8.29h-3.95v-8.88c0-1.48-.36-2.71-2.07-2.71s-2.41 1-2.41 3.5v8.09h-4z"/><path d="m480.86 583.69a33 33 0 0 0 .2 3.75h-3.84a5.75 5.75 0 0 1 -.22-1.44c-.53.81-1.51 1.77-4.09 1.77-3.5 0-5-2.3-5-4.54 0-3.3 2.64-4.84 6.89-4.84h2.07v-.87c0-1-.36-2-2.24-2-1.68 0-2.07.7-2.24 1.77h-3.8c.19-2.58 1.79-4.65 6.21-4.65 3.87 0 6 1.54 6 5zm-3.92-2.86h-1.62c-2.44 0-3.33.76-3.33 2.16a1.87 1.87 0 0 0 2.1 1.93c2.54 0 2.85-1.79 2.85-3.7z"/><path d="m488.09 579.07c1.06-1.46 3-3.7 5-6.13h4.59l-5 5.48 5.52 9h-4.6l-3.67-6.42-1.84 1.79v4.65h-4v-20.44h4z"/><path d="m503 581.06c0 1.82.93 3.58 2.91 3.58a2.32 2.32 0 0 0 2.55-1.54h4c-.51 1.76-2.1 4.68-6.64 4.68-4.79 0-6.86-3.56-6.86-7.37 0-4.56 2.32-7.81 7-7.81 5 0 6.66 3.61 6.66 7.22a9.56 9.56 0 0 1 -.05 1.24zm5.6-2.47c0-1.68-.7-3.11-2.66-3.11s-2.69 1.32-2.85 3.11z"/><path d="m515.05 587.44v-4.93h4.28v4.93z"/><path d="m5.1 650.44-4.93-19.29h4.45c1.82 8.85 2.63 12.79 2.86 14.92.73-3.55 2.61-10.27 3.73-14.92h3.79c1 3.69 2.94 11.17 3.58 14.73.65-4.26 2.52-11.74 3.22-14.73h4l-5.2 19.29h-4.3c-1-4.28-2.72-10.53-3.39-13.83-.7 3.44-2.44 9.94-3.47 13.83z"/><path d="m32.28 630v7.67a4.6 4.6 0 0 1 4.15-2.07c2.69 0 4.84 1.62 4.84 5.54v9.3h-4v-8.71c0-1.87-.68-2.88-2.36-2.88-2.24 0-2.66 1.68-2.66 3.89v7.7h-4v-20.44z"/><path d="m57.06 646.69a30.73 30.73 0 0 0 .2 3.75h-3.84a5.75 5.75 0 0 1 -.19-1.43c-.54.81-1.52 1.77-4.09 1.77-3.5 0-5-2.3-5-4.54 0-3.3 2.63-4.84 6.89-4.84h2.07v-.87c0-1-.36-2-2.24-2-1.68 0-2.07.7-2.24 1.77h-3.77c.2-2.58 1.8-4.65 6.22-4.65 3.87 0 6 1.54 6 5zm-3.92-2.86h-1.62c-2.44 0-3.33.76-3.33 2.16a1.87 1.87 0 0 0 2.1 1.93c2.54 0 2.85-1.79 2.85-3.7z"/><path d="m59.42 635.94h2.23v-3.94h4v3.92h2.86v3h-2.85v7.17c0 1.09.34 1.51 1.54 1.51h.89v2.75a8.65 8.65 0 0 1 -2.68.28c-2.83 0-3.76-1.52-3.76-4.06v-7.57h-2.23z"/><path d="m74.31 644.06c0 1.82.92 3.58 2.91 3.58a2.32 2.32 0 0 0 2.55-1.54h4c-.5 1.76-2.1 4.68-6.63 4.68-4.79 0-6.86-3.56-6.86-7.37 0-4.56 2.32-7.81 7-7.81 5 0 6.66 3.61 6.66 7.22a9.56 9.56 0 0 1 0 1.24zm5.6-2.47c0-1.68-.7-3.11-2.66-3.11s-2.69 1.32-2.86 3.11z"/><path d="m89.51 635.94c1.38 4.92 2.52 9.21 2.8 10.94.42-2.38 1.82-6.74 3.08-10.94h4l-5.13 14.5h-4.16l-4.93-14.5z"/><path d="m104.72 644.06c0 1.82.92 3.58 2.91 3.58a2.32 2.32 0 0 0 2.55-1.54h4c-.5 1.76-2.1 4.68-6.63 4.68-4.79 0-6.86-3.56-6.86-7.37 0-4.56 2.32-7.81 7-7.81 5 0 6.66 3.61 6.66 7.22a8 8 0 0 1 -.06 1.24zm5.6-2.47c0-1.68-.7-3.11-2.66-3.11s-2.69 1.32-2.86 3.11z"/><path d="m117.21 639.88c0-1.45 0-2.71 0-3.94h3.95c.05.33.11 1.76.11 2.54a4.67 4.67 0 0 1 4.65-2.88v3.84c-2.92-.09-4.65.7-4.65 4.67v6.33h-4z"/><path d="m135.85 650.44v-11.44h-2.12v-3h2.12v-1.26c0-3 1.49-5 4.62-5a8.37 8.37 0 0 1 1.85.17v3.16a6.65 6.65 0 0 0 -.84 0c-1.17 0-1.62.42-1.62 2v1h2.52v3h-2.52v11.48z"/><path d="m158.14 643.16c0 4.4-2.63 7.62-7.22 7.62s-7.11-3.22-7.11-7.54c0-4.48 2.71-7.64 7.3-7.64 4.26 0 7.03 3.02 7.03 7.56zm-10.27 0c0 2.8 1.2 4.45 3.13 4.45s3.08-1.65 3.08-4.42c0-3-1.12-4.46-3.13-4.46-1.85.03-3.08 1.41-3.08 4.46z"/><path d="m161 639.88c0-1.45 0-2.71 0-3.94h4c.05.33.11 1.76.11 2.54a4.67 4.67 0 0 1 4.65-2.88v3.84c-2.92-.09-4.65.7-4.65 4.67v6.33h-4z"/><path d="m172.2 639.69c0-1.26 0-2.49 0-3.75h3.8c.05.36.14 1.17.16 1.73a4.58 4.58 0 0 1 4-2.07 3.81 3.81 0 0 1 3.72 2.21 5.1 5.1 0 0 1 4.48-2.21c2.52 0 4.59 1.57 4.59 5.32v9.52h-3.92v-9c0-1.31-.47-2.6-2.13-2.6s-2.35 1.12-2.35 3.33v8.29h-3.95v-8.88c0-1.48-.36-2.71-2.07-2.71s-2.41 1-2.41 3.5v8.09h-4z"/><path d="m203.64 633.58v-3.58h4v3.58zm0 2.36h4v14.5h-4z"/><path d="m210 635.94h2.24v-3.94h4v3.92h2.86v3h-2.86v7.17c0 1.09.34 1.51 1.54 1.51h.9v2.75a8.74 8.74 0 0 1 -2.69.28c-2.83 0-3.75-1.52-3.75-4.06v-7.57h-2.24z"/><path d="m228.62 639.69c0-1.26 0-2.49 0-3.75h3.83c.06.36.14 1.17.17 1.73a4.57 4.57 0 0 1 4-2.07 3.83 3.83 0 0 1 3.73 2.21 5.1 5.1 0 0 1 4.48-2.21c2.52 0 4.59 1.57 4.59 5.32v9.52h-3.92v-9c0-1.31-.48-2.6-2.13-2.6s-2.35 1.12-2.35 3.33v8.29h-4v-8.88c0-1.48-.36-2.71-2.07-2.71s-2.41 1-2.41 3.5v8.09h-4z"/><path d="m265.18 646.69a33 33 0 0 0 .2 3.75h-3.84a5.75 5.75 0 0 1 -.19-1.43c-.53.81-1.51 1.77-4.09 1.77-3.5 0-5-2.3-5-4.54 0-3.3 2.64-4.84 6.89-4.84h2.07v-.87c0-1-.36-2-2.24-2-1.68 0-2.07.7-2.24 1.77h-3.74c.19-2.58 1.79-4.65 6.21-4.65 3.87 0 6 1.54 6 5zm-3.92-2.86h-1.62c-2.44 0-3.33.76-3.33 2.16a1.87 1.87 0 0 0 2.1 1.93c2.55 0 2.85-1.79 2.85-3.7z"/><path d="m271.6 635.94c1.48 5 2.8 9.46 3 10.8.31-1.45 1.17-4.7 2.88-10.8h4l-4.88 14.92c-1.37 4.17-2.54 5.4-6 5.4a16.43 16.43 0 0 1 -1.87-.11v-3.22c.28 0 .7.06 1 .06 1.49 0 2.22-.51 2.78-2.1l-5.3-14.95z"/><path d="m289.12 635.94h2.24v-3.94h4v3.92h2.85v3h-2.85v7.17c0 1.09.33 1.51 1.54 1.51h.89v2.75a8.65 8.65 0 0 1 -2.68.28c-2.83 0-3.76-1.52-3.76-4.06v-7.57h-2.24z"/><path d="m312.87 646.69a33.66 33.66 0 0 0 .19 3.75h-3.83a5.74 5.74 0 0 1 -.23-1.44c-.53.81-1.51 1.77-4.09 1.77-3.5 0-4.95-2.3-4.95-4.54 0-3.3 2.63-4.84 6.89-4.84h2.15v-.87c0-1-.37-2-2.24-2-1.68 0-2.08.7-2.24 1.77h-3.81c.2-2.58 1.79-4.65 6.22-4.65 3.86 0 6 1.54 6 5zm-3.87-2.86h-1.63c-2.43 0-3.33.76-3.33 2.16a1.87 1.87 0 0 0 2.1 1.93c2.55 0 2.86-1.79 2.86-3.7z"/><path d="m320.65 642.07c1.06-1.46 3-3.7 5-6.13h4.6l-5 5.48 5.51 9h-4.53l-3.73-6.42-1.85 1.79v4.65h-4v-20.44h4z"/><path d="m335.55 644.06c0 1.82.92 3.58 2.91 3.58a2.32 2.32 0 0 0 2.54-1.54h4c-.5 1.76-2.1 4.68-6.64 4.68-4.78 0-6.86-3.56-6.86-7.37 0-4.56 2.33-7.81 7-7.81 5 0 6.67 3.61 6.67 7.22a8 8 0 0 1 -.06 1.24zm5.6-2.47c0-1.68-.7-3.11-2.66-3.11s-2.69 1.32-2.86 3.11z"/><path d="m346.41 653.69a23.8 23.8 0 0 0 2.07-8.18h4.12a16.15 16.15 0 0 1 -3.08 8.18z"/><path d="m5.1 713.44-4.93-19.29h4.45c1.82 8.85 2.63 12.79 2.86 14.92.73-3.55 2.61-10.27 3.73-14.92h3.79c1 3.69 2.94 11.17 3.58 14.73.65-4.26 2.52-11.74 3.22-14.73h4l-5.2 19.29h-4.3c-1-4.28-2.72-10.53-3.39-13.83-.7 3.44-2.44 9.94-3.47 13.83z"/><path d="m32.28 693v7.67a4.6 4.6 0 0 1 4.15-2.07c2.69 0 4.84 1.62 4.84 5.54v9.3h-4v-8.71c0-1.87-.68-2.88-2.36-2.88-2.24 0-2.66 1.68-2.66 3.89v7.7h-4v-20.44z"/><path d="m57.06 709.69a30.73 30.73 0 0 0 .2 3.75h-3.84a5.75 5.75 0 0 1 -.19-1.43c-.54.81-1.52 1.77-4.09 1.77-3.5 0-5-2.3-5-4.54 0-3.3 2.63-4.84 6.89-4.84h2.07v-.87c0-1-.36-2-2.24-2-1.68 0-2.07.7-2.24 1.77h-3.77c.2-2.58 1.8-4.65 6.22-4.65 3.87 0 6 1.54 6 5zm-3.92-2.86h-1.62c-2.44 0-3.33.76-3.33 2.16a1.87 1.87 0 0 0 2.1 1.93c2.54 0 2.85-1.79 2.85-3.7z"/><path d="m59.42 698.94h2.23v-3.94h4v3.92h2.86v3h-2.85v7.17c0 1.09.34 1.51 1.54 1.51h.89v2.75a8.65 8.65 0 0 1 -2.68.28c-2.83 0-3.76-1.52-3.76-4.06v-7.57h-2.23z"/><path d="m74.31 707.06c0 1.82.92 3.58 2.91 3.58a2.32 2.32 0 0 0 2.55-1.54h4c-.5 1.76-2.1 4.68-6.63 4.68-4.79 0-6.86-3.56-6.86-7.37 0-4.56 2.32-7.81 7-7.81 5 0 6.66 3.61 6.66 7.22a9.56 9.56 0 0 1 0 1.24zm5.6-2.47c0-1.68-.7-3.11-2.66-3.11s-2.69 1.32-2.86 3.11z"/><path d="m89.51 698.94c1.38 4.92 2.52 9.21 2.8 10.94.42-2.38 1.82-6.74 3.08-10.94h4l-5.13 14.5h-4.16l-4.93-14.5z"/><path d="m104.72 707.06c0 1.82.92 3.58 2.91 3.58a2.32 2.32 0 0 0 2.55-1.54h4c-.5 1.76-2.1 4.68-6.63 4.68-4.79 0-6.86-3.56-6.86-7.37 0-4.56 2.32-7.81 7-7.81 5 0 6.66 3.61 6.66 7.22a8 8 0 0 1 -.06 1.24zm5.6-2.47c0-1.68-.7-3.11-2.66-3.11s-2.69 1.32-2.86 3.11z"/><path d="m117.21 702.88c0-1.45 0-2.71 0-3.94h3.95c.05.33.11 1.76.11 2.54a4.67 4.67 0 0 1 4.65-2.88v3.84c-2.92-.09-4.65.7-4.65 4.67v6.33h-4z"/><path d="m135.29 702.69c0-1.26 0-2.49 0-3.75h3.83c.06.36.14 1.17.17 1.73a4.56 4.56 0 0 1 4-2.07 3.84 3.84 0 0 1 3.73 2.21 5.09 5.09 0 0 1 4.48-2.21c2.52 0 4.59 1.57 4.59 5.32v9.52h-3.92v-9c0-1.31-.48-2.6-2.13-2.6s-2.35 1.12-2.35 3.33v8.29h-3.95v-8.88c0-1.48-.36-2.71-2.07-2.71s-2.41 1-2.41 3.5v8.09h-4z"/><path d="m163 707.06c0 1.82.93 3.58 2.92 3.58a2.3 2.3 0 0 0 2.54-1.54h4c-.51 1.76-2.1 4.68-6.64 4.68-4.79 0-6.86-3.56-6.86-7.37 0-4.56 2.33-7.81 7-7.81 5 0 6.67 3.61 6.67 7.22a8 8 0 0 1 -.06 1.24zm5.6-2.47c0-1.68-.7-3.11-2.66-3.11s-2.68 1.32-2.85 3.11z"/><path d="m174.1 698.94h2.24v-3.94h4v3.92h2.85v3h-2.85v7.17c0 1.09.33 1.51 1.54 1.51h.89v2.75a8.68 8.68 0 0 1 -2.69.28c-2.82 0-3.75-1.52-3.75-4.06v-7.57h-2.23z"/><path d="m189.84 693v7.67a4.56 4.56 0 0 1 4.16-2.07c2.69 0 4.85 1.62 4.85 5.54v9.3h-4v-8.71c0-1.87-.67-2.88-2.35-2.88-2.24 0-2.66 1.68-2.66 3.89v7.7h-4v-20.44z"/><path d="m216.07 706.16c0 4.4-2.63 7.62-7.22 7.62s-7.11-3.22-7.11-7.54c0-4.48 2.71-7.64 7.3-7.64 4.26 0 7.03 3.02 7.03 7.56zm-10.27 0c0 2.8 1.2 4.45 3.13 4.45s3.07-1.61 3.07-4.39c0-3-1.12-4.46-3.13-4.46-1.87 0-3.07 1.38-3.07 4.43z"/><path d="m232.26 693v16.46 4h-3.84c-.08-.45-.17-1.18-.2-1.51-.7 1.15-2 1.85-4.11 1.85-3.67 0-6-2.94-6-7.48s2.46-7.7 6.58-7.7c2.1 0 3.21.76 3.52 1.4v-7zm-6.92 17.56c2.74 0 3.08-2.3 3.08-4.37 0-2.49-.36-4.37-3-4.37-2.09 0-3.16 1.65-3.16 4.4s1.09 4.34 3.08 4.34z"/><path d="m242.87 696.58v-3.58h4v3.58zm0 2.36h4v14.5h-4z"/><path d="m249.22 698.94h2.24v-3.94h4v3.92h2.85v3h-2.85v7.17c0 1.09.33 1.51 1.54 1.51h.89v2.75a8.65 8.65 0 0 1 -2.68.28c-2.83 0-3.76-1.52-3.76-4.06v-7.57h-2.24z"/><path d="m267.84 702.69c0-1.26 0-2.49 0-3.75h3.83c.06.36.14 1.17.17 1.73a4.56 4.56 0 0 1 4-2.07 3.84 3.84 0 0 1 3.73 2.21 5.09 5.09 0 0 1 4.48-2.21c2.52 0 4.59 1.57 4.59 5.32v9.52h-3.92v-9c0-1.31-.48-2.6-2.13-2.6s-2.35 1.12-2.35 3.33v8.29h-3.94v-8.88c0-1.48-.36-2.71-2.07-2.71s-2.41 1-2.41 3.5v8.09h-4z"/><path d="m304.41 709.69a30.73 30.73 0 0 0 .2 3.75h-3.84a5.75 5.75 0 0 1 -.19-1.43c-.54.81-1.52 1.77-4.09 1.77-3.5 0-5-2.3-5-4.54 0-3.3 2.63-4.84 6.89-4.84h2.07v-.87c0-1-.36-2-2.24-2-1.68 0-2.07.7-2.24 1.77h-3.77c.2-2.58 1.8-4.65 6.22-4.65 3.86 0 6 1.54 6 5zm-3.92-2.86h-1.62c-2.44 0-3.33.76-3.33 2.16a1.87 1.87 0 0 0 2.09 1.93c2.55 0 2.86-1.79 2.86-3.7z"/><path d="m310.82 698.94c1.49 5 2.8 9.46 3 10.8.3-1.45 1.17-4.7 2.88-10.8h4l-4.87 14.92c-1.37 4.17-2.55 5.4-6 5.4a16.43 16.43 0 0 1 -1.87-.11v-3.22c.28 0 .7.06 1 .06 1.48 0 2.21-.51 2.77-2.1l-5.29-14.95z"/><path d="m329.75 702.88c0-1.45 0-2.71 0-3.94h3.95c.06.33.11 1.76.11 2.54a4.69 4.69 0 0 1 4.65-2.88v3.84c-2.91-.09-4.65.7-4.65 4.67v6.33h-4z"/><path d="m344.12 707.06c0 1.82.92 3.58 2.91 3.58a2.32 2.32 0 0 0 2.55-1.54h4c-.5 1.76-2.1 4.68-6.64 4.68-4.78 0-6.86-3.56-6.86-7.37 0-4.56 2.33-7.81 7-7.81 5 0 6.67 3.61 6.67 7.22a8 8 0 0 1 -.06 1.24zm5.59-2.47c0-1.68-.7-3.11-2.66-3.11s-2.68 1.32-2.85 3.11z"/><path d="m365.9 711.9c-.81 1.32-2.1 1.88-4 1.88-3.22 0-6.11-2.41-6.11-7.45 0-4.68 2.8-7.73 6.44-7.73 2.3 0 3.36.95 3.7 1.71 0-.37.08-1 .14-1.37h3.78v4 16.06h-3.95zm-3-1.34c2.46 0 3-1.77 3-4.4 0-2.8-.56-4.34-2.94-4.34-2.15 0-3.13 1.79-3.13 4.4s1 4.34 3.1 4.34z"/><path d="m386.28 709.24v4.2h-3.92c-.06-.39-.08-1.18-.11-1.68a4.15 4.15 0 0 1 -4 2c-2.94 0-4.81-1.8-4.81-5.38v-9.46h4v8.65c0 1.59.51 2.91 2.24 2.91s2.58-1 2.58-3.84v-7.72h4z"/><path d="m390 696.58v-3.58h4v3.58zm0 2.36h4v14.5h-4z"/><path d="m397.79 702.88c0-1.45 0-2.71 0-3.94h3.95c.06.33.11 1.76.11 2.54a4.69 4.69 0 0 1 4.65-2.88v3.84c-2.91-.09-4.65.7-4.65 4.67v6.33h-4z"/><path d="m412.15 707.06c0 1.82.93 3.58 2.92 3.58a2.3 2.3 0 0 0 2.54-1.54h4c-.51 1.76-2.1 4.68-6.64 4.68-4.79 0-6.86-3.56-6.86-7.37 0-4.56 2.33-7.81 7-7.81 5 0 6.67 3.61 6.67 7.22a8 8 0 0 1 -.06 1.24zm5.6-2.47c0-1.68-.7-3.11-2.66-3.11s-2.68 1.32-2.85 3.11z"/><path d="m423 716.69a24 24 0 0 0 2.07-8.18h4.12a16.24 16.24 0 0 1 -3.08 8.18z"/><path d="m5.1 776.44-4.93-19.29h4.45c1.82 8.85 2.63 12.79 2.86 14.92.73-3.55 2.61-10.27 3.73-14.92h3.79c1 3.69 2.94 11.17 3.58 14.73.65-4.26 2.52-11.74 3.22-14.73h4l-5.2 19.29h-4.3c-1-4.28-2.72-10.53-3.39-13.83-.7 3.44-2.44 9.94-3.47 13.83z"/><path d="m31.44 770.06c0 1.82.93 3.58 2.92 3.58a2.3 2.3 0 0 0 2.54-1.54h4c-.51 1.76-2.1 4.68-6.64 4.68-4.79 0-6.86-3.56-6.86-7.37 0-4.56 2.33-7.81 7-7.81 5 0 6.67 3.61 6.67 7.22a8 8 0 0 1 -.06 1.24zm5.6-2.47c0-1.68-.7-3.11-2.66-3.11s-2.68 1.32-2.85 3.11z"/><path d="m53.76 761.94c1.32 5.82 2 9.12 2.3 10.94.31-1.62.73-3.89 2.49-10.94h3.73c1.62 7.14 2.13 9.24 2.32 10.78.31-1.49.76-3.64 2.44-10.78h4l-4.31 14.5h-4.23c-1.21-5.49-1.88-8.4-2.22-10.3-.22 1.82-1 5.09-2.29 10.3h-4.34l-4.12-14.5z"/><path d="m73.5 759.58v-3.58h4v3.58zm0 2.36h4v14.5h-4z"/><path d="m81.25 776.44v-20.44h4v20.44z"/><path d="m89 776.44v-20.44h4v20.44z"/><path d="m115.72 772.69a30.73 30.73 0 0 0 .2 3.75h-3.84a5.75 5.75 0 0 1 -.19-1.43c-.54.81-1.52 1.77-4.09 1.77-3.5 0-5-2.3-5-4.54 0-3.3 2.63-4.84 6.89-4.84h2.07v-.87c0-1-.36-2-2.24-2-1.68 0-2.07.7-2.24 1.77h-3.81c.2-2.58 1.8-4.65 6.22-4.65 3.86 0 6 1.54 6 5zm-3.92-2.86h-1.62c-2.44 0-3.33.76-3.33 2.16a1.87 1.87 0 0 0 2.1 1.93c2.54 0 2.85-1.79 2.85-3.7z"/><path d="m119.47 776.44v-20.44h4v20.44z"/><path d="m130.14 761.94c1.32 5.82 2 9.12 2.3 10.94h.05c.31-1.62.73-3.89 2.5-10.94h3.72c1.62 7.14 2.13 9.24 2.32 10.78.31-1.49.76-3.64 2.44-10.78h4l-4.31 14.5h-4.28c-1.21-5.49-1.88-8.4-2.21-10.3-.23 1.82-1 5.09-2.3 10.3h-4.37l-4.12-14.5z"/><path d="m161.92 772.69a30.73 30.73 0 0 0 .2 3.75h-3.84a5.75 5.75 0 0 1 -.19-1.43c-.54.81-1.52 1.77-4.09 1.77-3.5 0-5-2.3-5-4.54 0-3.3 2.63-4.84 6.89-4.84h2.11v-.87c0-1-.36-2-2.24-2-1.68 0-2.07.7-2.24 1.77h-3.81c.2-2.58 1.8-4.65 6.22-4.65 3.86 0 6 1.54 6 5zm-3.92-2.86h-1.62c-2.44 0-3.33.76-3.33 2.16a1.87 1.87 0 0 0 2.1 1.93c2.54 0 2.85-1.79 2.85-3.7z"/><path d="m168.33 761.94c1.49 5 2.8 9.46 3 10.8.3-1.45 1.17-4.7 2.88-10.8h4l-4.87 14.92c-1.37 4.17-2.55 5.4-6 5.4a16.43 16.43 0 0 1 -1.87-.11v-3.22c.28 0 .7.06 1 .06 1.49 0 2.21-.51 2.77-2.1l-5.24-14.95z"/><path d="m183.31 772.07a2.51 2.51 0 0 0 2.75 1.82c1.48 0 2-.53 2-1.43s-.61-1.28-2.69-1.79c-4.73-1.17-5.48-2.63-5.48-4.67s1.48-4.4 5.85-4.4 5.91 2.41 6 4.37h-3.74c-.14-.53-.5-1.54-2.38-1.54-1.32 0-1.76.59-1.76 1.23s.44 1.06 2.8 1.62c4.84 1.12 5.54 2.78 5.54 4.9 0 2.41-1.85 4.6-6.24 4.6s-6.22-2.13-6.56-4.71z"/><path d="m202.41 776.44v-11.44h-2.13v-3h2.13v-1.26c0-3 1.48-5 4.62-5a8.5 8.5 0 0 1 1.85.17v3.16a6.9 6.9 0 0 0 -.84 0c-1.18 0-1.63.42-1.63 2v1h2.52v3h-2.52v11.48z"/><path d="m211.2 759.58v-3.58h4v3.58zm0 2.36h4v14.5h-4z"/><path d="m219 765.6c0-1.23 0-2.57 0-3.66h3.89c.08.39.14 1.4.17 1.84a4.41 4.41 0 0 1 4.2-2.18c2.91 0 4.78 2 4.78 5.63v9.21h-4v-8.76c0-1.66-.53-2.83-2.32-2.83s-2.66.95-2.66 3.53v8.06h-4z"/><path d="m249 756v16.46 4h-3.84c-.08-.45-.17-1.18-.19-1.51-.7 1.15-2 1.85-4.12 1.85-3.67 0-6-2.94-6-7.48s2.46-7.7 6.58-7.7c2.1 0 3.22.76 3.53 1.4v-7zm-6.92 17.56c2.75 0 3.08-2.3 3.08-4.37 0-2.49-.36-4.37-3-4.37-2.1 0-3.17 1.65-3.17 4.4s1.11 4.34 3.09 4.34z"/><path d="m258.21 761.94h2.24v-3.94h4v3.92h2.86v3h-2.86v7.17c0 1.09.34 1.51 1.54 1.51h.9v2.75a8.71 8.71 0 0 1 -2.69.28c-2.83 0-3.75-1.52-3.75-4.06v-7.57h-2.24z"/><path d="m274 756v7.67a4.56 4.56 0 0 1 4.14-2.07c2.69 0 4.84 1.62 4.84 5.54v9.3h-4v-8.71c0-1.87-.67-2.88-2.35-2.88-2.24 0-2.66 1.68-2.66 3.89v7.7h-4v-20.44z"/><path d="m289.88 770.06c0 1.82.92 3.58 2.91 3.58a2.32 2.32 0 0 0 2.55-1.54h4c-.5 1.76-2.1 4.68-6.63 4.68-4.79 0-6.86-3.56-6.86-7.37 0-4.56 2.32-7.81 7-7.81 4.95 0 6.66 3.61 6.66 7.22a8 8 0 0 1 -.06 1.24zm5.6-2.47c0-1.68-.7-3.11-2.66-3.11s-2.69 1.32-2.86 3.11z"/><path d="m309.28 756h4v7.48c.59-.93 1.8-1.88 4.15-1.88 4 0 5.91 3.28 5.91 7.34s-2.13 7.84-6.3 7.84c-2.16 0-3.11-.65-3.81-1.71a6.83 6.83 0 0 1 -.17 1.37h-3.84c0-1.57 0-3.16 0-4.73zm7 8.82c-2.3 0-3.11 1.48-3.11 4.45 0 2.44.73 4.31 3.05 4.31 2 0 3.14-1.82 3.14-4.56-.05-2.44-.98-4.2-3.13-4.2z"/><path d="m329.44 770.06c0 1.82.93 3.58 2.91 3.58a2.32 2.32 0 0 0 2.55-1.54h4c-.51 1.76-2.1 4.68-6.64 4.68-4.79 0-6.86-3.56-6.86-7.37 0-4.56 2.32-7.81 7-7.81 5 0 6.66 3.61 6.66 7.22a9.56 9.56 0 0 1 -.05 1.24zm5.6-2.47c0-1.68-.7-3.11-2.66-3.11s-2.69 1.32-2.85 3.11z"/><path d="m344.9 772.07a2.51 2.51 0 0 0 2.74 1.82c1.49 0 2-.53 2-1.43s-.62-1.28-2.69-1.79c-4.73-1.17-5.49-2.63-5.49-4.67s1.49-4.4 5.85-4.4 5.91 2.41 6 4.37h-3.8c-.14-.53-.51-1.54-2.38-1.54-1.32 0-1.77.59-1.77 1.23s.45 1.06 2.8 1.62c4.85 1.12 5.55 2.78 5.55 4.9 0 2.41-1.85 4.6-6.25 4.6s-6.21-2.13-6.55-4.71z"/><path d="m355.12 761.94h2.24v-3.94h4v3.92h2.86v3h-2.86v7.17c0 1.09.34 1.51 1.54 1.51h.9v2.75a8.74 8.74 0 0 1 -2.69.28c-2.83 0-3.75-1.52-3.75-4.06v-7.57h-2.24z"/><path d="m376.65 761.94c1.31 5.82 2 9.12 2.3 10.94h.05c.31-1.62.73-3.89 2.49-10.94h3.73c1.62 7.14 2.13 9.24 2.32 10.78.31-1.49.76-3.64 2.43-10.78h4l-4.31 14.5h-4.28c-1.21-5.49-1.88-8.4-2.22-10.3-.23 1.82-1 5.09-2.3 10.3h-4.31l-4.12-14.5z"/><path d="m408.43 772.69a30.73 30.73 0 0 0 .2 3.75h-3.84a5.74 5.74 0 0 1 -.2-1.43c-.53.81-1.51 1.77-4.08 1.77-3.5 0-5-2.3-5-4.54 0-3.3 2.63-4.84 6.89-4.84h2.07v-.87c0-1-.36-2-2.24-2-1.68 0-2.07.7-2.24 1.77h-3.81c.2-2.58 1.79-4.65 6.22-4.65 3.86 0 6 1.54 6 5zm-3.92-2.86h-1.62c-2.44 0-3.34.76-3.34 2.16a1.88 1.88 0 0 0 2.1 1.93c2.55 0 2.86-1.79 2.86-3.7z"/><path d="m414.84 761.94c1.48 5 2.8 9.46 3 10.8.31-1.45 1.18-4.7 2.89-10.8h4l-4.87 14.92c-1.37 4.17-2.55 5.4-6 5.4a16.47 16.47 0 0 1 -1.88-.11v-3.22c.28 0 .7.06 1 .06 1.48 0 2.21-.51 2.77-2.1l-5.29-14.95z"/><path d="m.08 824.94h2.24v-3.94h4v3.92h2.86v3h-2.85v7.17c0 1.09.33 1.51 1.54 1.51h.89v2.75a8.65 8.65 0 0 1 -2.68.28c-2.83 0-3.76-1.52-3.76-4.06v-7.57h-2.24z"/><path d="m24.72 832.16c0 4.4-2.63 7.62-7.22 7.62s-7.11-3.22-7.11-7.54c0-4.48 2.71-7.64 7.31-7.64 4.3 0 7.02 3.02 7.02 7.56zm-10.27 0c0 2.8 1.2 4.45 3.13 4.45s3.08-1.65 3.08-4.42c0-3-1.12-4.46-3.13-4.46-1.85.03-3.08 1.41-3.08 4.46z"/><path d="m30.6 819h4v7.48c.59-.93 1.8-1.88 4.15-1.88 3.95 0 5.91 3.28 5.91 7.34s-2.13 7.84-6.3 7.84c-2.16 0-3.11-.65-3.81-1.71a6.18 6.18 0 0 1 -.17 1.37h-3.8c0-1.57 0-3.16 0-4.73zm6.95 8.82c-2.3 0-3.11 1.48-3.11 4.45 0 2.44.73 4.31 3.05 4.31 2 0 3.14-1.82 3.14-4.56 0-2.44-.93-4.2-3.08-4.2z"/><path d="m47 828.88c0-1.45 0-2.71 0-3.94h4c.06.33.11 1.76.11 2.54a4.69 4.69 0 0 1 4.65-2.88v3.84c-2.91-.09-4.65.7-4.65 4.67v6.33h-4.11z"/><path d="m58.18 822.58v-3.58h4v3.58zm0 2.36h4v14.5h-4z"/><path d="m66 828.6c0-1.23 0-2.57 0-3.66h3.89c.08.39.14 1.4.17 1.84a4.41 4.41 0 0 1 4.2-2.18c2.91 0 4.79 2 4.79 5.63v9.21h-4.05v-8.76c0-1.66-.53-2.83-2.32-2.83s-2.68.95-2.68 3.53v8.06h-4z"/><path d="m95.31 837.68c0 4.64-1.71 7.58-7.2 7.58-5.29 0-6.32-2.94-6.46-4.59h4.08a2.29 2.29 0 0 0 2.55 1.68c2.61 0 3.11-1.59 3.11-4.42v-.7a4.29 4.29 0 0 1 -4.09 2c-3.81 0-6-3.13-6-7 0-4.53 2.72-7.64 6.33-7.64 2.49 0 3.53 1.18 3.75 1.85 0-.39.14-1.26.17-1.51h3.78v4.17zm-6.86-1.68c2.41 0 3-1.65 3-4.08s-.42-4.12-3-4.12c-1.73 0-3.1 1.34-3.1 4.26.08 2.51 1.34 3.94 3.1 3.94z"/><path d="m106 824.94c1.32 5.82 2 9.12 2.3 10.94h.06c.3-1.62.72-3.89 2.49-10.94h3.72c1.63 7.14 2.13 9.24 2.33 10.78.31-1.49.76-3.64 2.44-10.78h4l-4.32 14.5h-4.28c-1.2-5.49-1.88-8.4-2.21-10.3-.22 1.82-1 5.09-2.3 10.3h-4.31l-4.11-14.5z"/><path d="m128.41 833.06c0 1.82.92 3.58 2.91 3.58a2.32 2.32 0 0 0 2.55-1.54h4c-.5 1.76-2.1 4.68-6.64 4.68-4.78 0-6.86-3.56-6.86-7.37 0-4.56 2.33-7.81 7-7.81 5 0 6.67 3.61 6.67 7.22a8 8 0 0 1 -.06 1.24zm5.6-2.47c0-1.68-.7-3.11-2.66-3.11s-2.69 1.32-2.86 3.11z"/><path d="m140.89 822.58v-3.58h4v3.58zm0 2.36h4v14.5h-4z"/><path d="m148.09 828.88c0-1.45 0-2.71 0-3.94h3.91c.06.33.11 1.76.11 2.54a4.69 4.69 0 0 1 4.65-2.88v3.84c-2.91-.09-4.65.7-4.65 4.67v6.33h-4z"/><path d="m172 819v16.46 4h-3.84c-.08-.45-.17-1.18-.19-1.51-.7 1.15-2 1.85-4.12 1.85-3.67 0-6-2.94-6-7.48s2.46-7.7 6.58-7.7c2.1 0 3.22.76 3.53 1.4v-7zm-6.92 17.56c2.75 0 3.09-2.3 3.09-4.37 0-2.49-.37-4.37-3-4.37-2.1 0-3.16 1.65-3.16 4.4s1.09 4.34 3.07 4.34z"/><path d="m192.41 835.69a30.73 30.73 0 0 0 .2 3.75h-3.84a5.75 5.75 0 0 1 -.19-1.43c-.54.81-1.52 1.77-4.09 1.77-3.5 0-5-2.3-5-4.54 0-3.3 2.63-4.84 6.89-4.84h2.07v-.87c0-1-.36-2-2.24-2-1.68 0-2.07.7-2.24 1.77h-3.77c.2-2.58 1.8-4.65 6.22-4.65 3.86 0 6 1.54 6 5zm-3.92-2.86h-1.62c-2.44 0-3.33.76-3.33 2.16a1.87 1.87 0 0 0 2.1 1.93c2.54 0 2.85-1.79 2.85-3.7z"/><path d="m195.07 828.6c0-1.23 0-2.57 0-3.66h3.9a17.74 17.74 0 0 1 .16 1.84 4.43 4.43 0 0 1 4.2-2.18c2.92 0 4.79 2 4.79 5.63v9.21h-4v-8.76c0-1.66-.53-2.83-2.33-2.83s-2.66.95-2.66 3.53v8.06h-4z"/><path d="m224.53 819v16.46 4h-3.84c-.08-.45-.17-1.18-.2-1.51-.7 1.15-2 1.85-4.11 1.85-3.67 0-6-2.94-6-7.48s2.46-7.7 6.58-7.7c2.1 0 3.22.76 3.52 1.4v-7zm-6.92 17.56c2.75 0 3.08-2.3 3.08-4.37 0-2.49-.36-4.37-3-4.37-2.1 0-3.17 1.65-3.17 4.4s1.1 4.34 3.09 4.34z"/><path d="m236.37 824.94c1.32 5.82 2 9.12 2.3 10.94h.05c.31-1.62.73-3.89 2.49-10.94h3.73c1.62 7.14 2.13 9.24 2.32 10.78.31-1.49.76-3.64 2.44-10.78h4l-4.31 14.5h-4.28c-1.21-5.49-1.88-8.4-2.21-10.3-.23 1.82-1 5.09-2.3 10.3h-4.31l-4.12-14.5z"/><path d="m269.05 832.16c0 4.4-2.64 7.62-7.23 7.62s-7.11-3.22-7.11-7.54c0-4.48 2.72-7.64 7.31-7.64 4.25 0 7.03 3.02 7.03 7.56zm-10.28 0c0 2.8 1.2 4.45 3.14 4.45s3.09-1.61 3.09-4.39c0-3-1.12-4.46-3.14-4.46-1.86 0-3.09 1.38-3.09 4.43z"/><path d="m271.4 828.6c0-1.23 0-2.57 0-3.66h3.89c.08.39.14 1.4.17 1.84a4.42 4.42 0 0 1 4.2-2.18c2.91 0 4.79 2 4.79 5.63v9.21h-4v-8.76c0-1.66-.53-2.83-2.32-2.83s-2.66.95-2.66 3.53v8.06h-4z"/><path d="m300.85 819v16.46 4h-3.85c-.08-.45-.16-1.18-.19-1.51-.7 1.15-2 1.85-4.12 1.85-3.67 0-6-2.94-6-7.48s2.47-7.7 6.58-7.7c2.1 0 3.22.76 3.53 1.4v-7zm-6.91 17.56c2.74 0 3.08-2.3 3.08-4.37 0-2.49-.37-4.37-3-4.37-2.1 0-3.16 1.65-3.16 4.4s1.14 4.34 3.08 4.34z"/><path d="m307.18 833.06c0 1.82.92 3.58 2.91 3.58a2.32 2.32 0 0 0 2.55-1.54h4c-.5 1.76-2.1 4.68-6.63 4.68-4.79 0-6.86-3.56-6.86-7.37 0-4.56 2.32-7.81 7-7.81 5 0 6.66 3.61 6.66 7.22a9.56 9.56 0 0 1 -.05 1.24zm5.6-2.47c0-1.68-.7-3.11-2.66-3.11s-2.69 1.32-2.86 3.11z"/><path d="m319.11 828.88c0-1.45 0-2.71 0-3.94h3.89c.05.33.11 1.76.11 2.54a4.67 4.67 0 0 1 4.65-2.88v3.84c-2.91-.09-4.65.7-4.65 4.67v6.33h-4z"/><path d="m331.4 839.44v-11.44h-2.13v-3h2.13v-1.26c0-3 1.48-5 4.62-5a8.44 8.44 0 0 1 1.85.17v3.16a6.78 6.78 0 0 0 -.84 0c-1.18 0-1.62.42-1.62 2v1h2.51v3h-2.51v11.48z"/><path d="m353 835.24v4.2h-3.92c-.06-.39-.09-1.18-.11-1.68a4.15 4.15 0 0 1 -4 2c-2.94 0-4.81-1.8-4.81-5.38v-9.46h4v8.65c0 1.59.5 2.91 2.24 2.91s2.58-1 2.58-3.84v-7.72h4z"/><path d="m356.71 839.44v-20.44h4v20.44z"/><path d="m370.26 822.58v-3.58h4v3.58zm0 2.36h4v14.5h-4z"/><path d="m391.32 819v16.46 4h-3.84c-.08-.45-.17-1.18-.2-1.51-.7 1.15-2 1.85-4.11 1.85-3.67 0-6-2.94-6-7.48s2.46-7.7 6.58-7.7c2.1 0 3.22.76 3.52 1.4v-7zm-6.92 17.56c2.75 0 3.08-2.3 3.08-4.37 0-2.49-.36-4.37-3-4.37-2.1 0-3.17 1.65-3.17 4.4s1.1 4.34 3.09 4.34z"/><path d="m398.21 833.06c0 1.82.92 3.58 2.91 3.58a2.32 2.32 0 0 0 2.55-1.54h4c-.5 1.76-2.1 4.68-6.64 4.68-4.78 0-6.86-3.56-6.86-7.37 0-4.56 2.33-7.81 7-7.81 5 0 6.67 3.61 6.67 7.22a8 8 0 0 1 -.06 1.24zm5.6-2.47c0-1.68-.7-3.11-2.66-3.11s-2.69 1.32-2.86 3.11z"/><path d="m422.17 835.69a33 33 0 0 0 .2 3.75h-3.84a5.75 5.75 0 0 1 -.19-1.43c-.53.81-1.51 1.77-4.09 1.77-3.5 0-5-2.3-5-4.54 0-3.3 2.64-4.84 6.89-4.84h2.07v-.87c0-1-.36-2-2.24-2-1.68 0-2.07.7-2.24 1.77h-3.73c.19-2.58 1.79-4.65 6.21-4.65 3.87 0 6 1.54 6 5zm-3.92-2.86h-1.62c-2.44 0-3.33.76-3.33 2.16a1.87 1.87 0 0 0 2.1 1.93c2.55 0 2.85-1.79 2.85-3.7z"/><path d="m428.33 835.07a2.51 2.51 0 0 0 2.75 1.82c1.48 0 2-.53 2-1.43s-.61-1.28-2.68-1.79c-4.74-1.17-5.49-2.63-5.49-4.67s1.48-4.4 5.85-4.4 5.91 2.41 6 4.37h-3.76c-.14-.53-.5-1.54-2.38-1.54-1.31 0-1.76.59-1.76 1.23s.45 1.06 2.8 1.62c4.84 1.12 5.54 2.78 5.54 4.9 0 2.41-1.85 4.6-6.24 4.6s-6.22-2.13-6.56-4.71z"/><path d="m442.67 824.94h2.24v-3.94h4v3.92h2.86v3h-2.86v7.17c0 1.09.34 1.51 1.54 1.51h.9v2.75a8.71 8.71 0 0 1 -2.69.28c-2.83 0-3.75-1.52-3.75-4.06v-7.57h-2.24z"/><path d="m467.31 832.16c0 4.4-2.63 7.62-7.23 7.62s-7.11-3.22-7.11-7.54c0-4.48 2.72-7.64 7.31-7.64 4.26 0 7.03 3.02 7.03 7.56zm-10.28 0c0 2.8 1.21 4.45 3.14 4.45s3.08-1.65 3.08-4.42c0-3-1.12-4.46-3.14-4.46-1.85.03-3.11 1.41-3.11 4.46z"/><path d="m474.31 839.44v-20.44h4v20.44z"/><path d="m482.62 822.58v-3.58h4v3.58zm0 2.36h4v14.5h-4z"/><path d="m491.5 839.44v-11.44h-2.13v-3h2.13v-1.26c0-3 1.48-5 4.62-5a8.5 8.5 0 0 1 1.85.17v3.16a6.9 6.9 0 0 0 -.84 0c-1.18 0-1.63.42-1.63 2v1h2.5v3h-2.5v11.48z"/><path d="m504 833.06c0 1.82.93 3.58 2.91 3.58a2.32 2.32 0 0 0 2.55-1.54h4c-.51 1.76-2.1 4.68-6.64 4.68-4.79 0-6.86-3.56-6.86-7.37 0-4.56 2.32-7.81 7-7.81 5 0 6.66 3.61 6.66 7.22a9.56 9.56 0 0 1 0 1.24zm5.6-2.47c0-1.68-.7-3.11-2.66-3.11s-2.69 1.32-2.85 3.11z"/><path d="m516.11 839.44v-4.93h4.28v4.93z"/></svg>