<svg viewBox="0 0 768 721.66" xmlns="http://www.w3.org/2000/svg"><path d="m8.22 5.06c-.26.34-.68 1-1 1.5v.58a9.66 9.66 0 0 1 5.78-2.06 5.23 5.23 0 0 1 5.46 5.34c0 4-2.5 6.4-7.42 7.38l-1.2-2.4c3.48-.54 6-1.94 6-5a3 3 0 0 0 -3.22-2.94 8.29 8.29 0 0 0 -5.62 2.54v1.64c0 1.62 0 3.28.12 5.14 0 .36.1 1.08.14 1.52h-2.8c0-.42.06-1.14.06-1.46 0-1.54 0-2.68.08-4.36-.84 1.26-1.82 2.7-2.5 3.66l-1.56-2.24c1.12-1.36 3.12-4 4.24-5.66l.08-1.38-3.6.46-.26-2.54a16.84 16.84 0 0 0 1.72 0c.58 0 1.44-.14 2.28-.26 0-.74.08-1.3.08-1.52a10.56 10.56 0 0 0 -.08-1.78l2.9.08c-.12.56-.28 1.58-.44 2.82z"/><path d="m31.44 5.92c-1.18.26-2.52.48-3.84.64-.18.86-.38 1.74-.6 2.54a63.88 63.88 0 0 1 -3.14 9.16l-2.78-.92a43.67 43.67 0 0 0 3.42-8.92c.14-.52.28-1.08.42-1.64-.46 0-.9 0-1.3 0-1 0-1.7 0-2.4-.08l-.06-2.48a19.5 19.5 0 0 0 2.5.16c.58 0 1.16 0 1.76-.06q.12-.66.18-1.14a10.28 10.28 0 0 0 .08-2l3 .24c-.14.54-.32 1.42-.42 1.86l-.16.76c1.12-.18 2.24-.4 3.32-.66zm-.4 6.5a6.85 6.85 0 0 0 -.28 1.66c0 .86.5 1.5 2.62 1.5a23 23 0 0 0 4.12-.4l-.1 2.54a31.69 31.69 0 0 1 -4 .28c-3.34 0-5-1.16-5-3.16a13.59 13.59 0 0 1 .34-2.64zm-1.16-5c1.1-.1 2.52-.2 3.8-.2a34.39 34.39 0 0 1 3.48.18l-.06 2.4a28.61 28.61 0 0 0 -3.4-.24 29.1 29.1 0 0 0 -3.82.22z"/><path d="m46.68 1.56a20.33 20.33 0 0 0 -.26 2.64c-.1 2.12-.24 6.56-.24 9 0 2 1.2 2.64 2.72 2.64 3.28 0 5.36-1.88 6.78-4l1.8 2.16a10.31 10.31 0 0 1 -8.6 4.52c-3.24 0-5.34-1.42-5.34-4.8 0-2.66.2-7.86.2-9.56a12.44 12.44 0 0 0 -.26-2.68z"/><path d="m71.44 5.92c-1.18.26-2.52.48-3.84.64-.18.86-.38 1.74-.6 2.54a63.88 63.88 0 0 1 -3.14 9.16l-2.78-.92a43.67 43.67 0 0 0 3.42-8.92c.14-.52.28-1.08.42-1.64-.46 0-.9 0-1.3 0-1 0-1.7 0-2.4-.08l-.06-2.48a19.5 19.5 0 0 0 2.5.16c.58 0 1.16 0 1.76-.06q.12-.66.18-1.14a10.28 10.28 0 0 0 .08-2l3 .24c-.14.54-.32 1.42-.42 1.86l-.16.76c1.12-.18 2.24-.4 3.32-.66zm-.4 6.5a6.85 6.85 0 0 0 -.28 1.66c0 .86.5 1.5 2.62 1.5a23 23 0 0 0 4.12-.4l-.1 2.54a31.69 31.69 0 0 1 -4 .28c-3.34 0-5-1.16-5-3.16a13.59 13.59 0 0 1 .34-2.64zm-1.16-5c1.1-.1 2.52-.2 3.8-.2a34.39 34.39 0 0 1 3.48.18l-.06 2.4a28.61 28.61 0 0 0 -3.4-.24 29.1 29.1 0 0 0 -3.82.22z"/><path d="m95.06 5.56c-2.06.32-5.2.7-7.86.84a35 35 0 0 1 -.9 3.42 9.63 9.63 0 0 1 4.92-1.24c3.2 0 5.32 1.72 5.32 4.24 0 4.46-4.28 6.06-10.68 5.38l-.7-2.56c4.34.7 8.72.18 8.72-2.74 0-1.18-1-2.18-3-2.18a6.8 6.8 0 0 0 -5.48 2.34 5.81 5.81 0 0 0 -.56.86l-2.34-.84a32 32 0 0 0 2.3-6.64c-1.26 0-2.42-.1-3.42-.2v-2.46a28 28 0 0 0 3.88.38c0-.3.1-.56.12-.8a12.12 12.12 0 0 0 .1-2l2.8.12a20.7 20.7 0 0 0 -.46 2l-.12.6a47.65 47.65 0 0 0 7.3-.92z"/><path d="m104.94 2a16.65 16.65 0 0 0 -.48 1.76 52.38 52.38 0 0 0 -.94 7.66 9.17 9.17 0 0 0 .08 1.28c.26-.7.58-1.36.88-2l1.22 1a47.25 47.25 0 0 0 -1.42 4.72 3.91 3.91 0 0 0 -.1.92v.82l-2.24.16a23.89 23.89 0 0 1 -.78-6.32 58.7 58.7 0 0 1 .84-8.32 14.86 14.86 0 0 0 .18-1.94zm12.16 14.92a20.2 20.2 0 0 0 -2.4-2c-.12 1.88-1.2 3.24-3.88 3.24s-4.44-1.16-4.44-3.24 1.7-3.4 4.4-3.4a8.9 8.9 0 0 1 1.3.08c-.08-1.2-.08-2.6-.14-4.04-.48 0-1 0-1.42 0-1.16 0-2.28 0-3.46-.12v-2.34a32.84 32.84 0 0 0 3.46.18h1.4c0-1 0-1.78 0-2.2a11.21 11.21 0 0 0 -.12-1.3h2.84a12.65 12.65 0 0 0 -.16 1.22c0 .44-.06 1.18-.06 2.06 1.08-.12 2.12-.26 3.06-.46v2.5c-1 .14-2 .26-3.08.34 0 1.92.14 3.5.22 4.84a12.57 12.57 0 0 1 3.82 2.56zm-4.92-3.22a6.17 6.17 0 0 0 -1.6-.22c-1.12 0-1.88.46-1.88 1.2s.8 1.16 1.84 1.16c1.22 0 1.64-.64 1.64-1.8z"/><path d="m137.2 4.92a8 8 0 0 0 -.66 1.44 20.87 20.87 0 0 1 -3.48 6.64 18.84 18.84 0 0 1 -8.06 5.68l-2.36-2.12a15.94 15.94 0 0 0 8.06-4.94 14.22 14.22 0 0 0 2.84-5.46h-5.64a22.8 22.8 0 0 1 -5 4.84l-2.24-1.66a17.61 17.61 0 0 0 6.24-6.44 9.62 9.62 0 0 0 .9-2.1l2.92 1c-.48.7-1 1.6-1.22 2l-.06.1h4a6.41 6.41 0 0 0 1.74-.24z"/><path d="m146.06 2c0 .44-.06.88-.06 1.52v6.78c0 .5 0 1.28.06 1.74h-3c0-.38.1-1.16.1-1.76v-6.74a13.6 13.6 0 0 0 -.04-1.54zm9.22-.18c0 .56-.08 1.2-.08 2v4c0 4.3-.84 6.14-2.32 7.78a11.62 11.62 0 0 1 -4.86 2.9l-2.1-2.2a9.36 9.36 0 0 0 4.9-2.52c1.36-1.5 1.62-3 1.62-6.12v-3.82a14.11 14.11 0 0 0 -.12-2z"/><path d="m175.86 14.22a11.72 11.72 0 0 0 1.86-.16v2.94a15.51 15.51 0 0 0 -1.86-.1h-13.18a16.71 16.71 0 0 0 -2 .1v-2.9a10.8 10.8 0 0 0 2 .16h5.08v-8.2h-3.86c-.54 0-1.4 0-1.9.08v-2.74a14.68 14.68 0 0 0 1.9.12h10.88c.6 0 1.3-.06 1.88-.12v2.74c-.6 0-1.3-.08-1.88-.08h-4.22v8.16z"/><path d="m192 15.62a13.75 13.75 0 0 0 .18 2.62h-3.18a22.4 22.4 0 0 0 .14-2.62v-6.56a39.1 39.1 0 0 1 -6.88 2.72l-1.44-2.44a30.73 30.73 0 0 0 9.18-3.62 21.11 21.11 0 0 0 5.22-4.52l2.14 1.94a32.68 32.68 0 0 1 -5.3 4.3z"/><path d="m216.34 7.26a15.39 15.39 0 0 0 1.82-.12v2.6c-.5 0-1.26-.06-1.82-.06h-4.82a12.69 12.69 0 0 1 -1.28 5.14 9.6 9.6 0 0 1 -4 3.84l-2.36-1.66a8.31 8.31 0 0 0 3.62-2.86 8.59 8.59 0 0 0 1.24-4.42h-5.5c-.58 0-1.36 0-1.92.08v-2.66c.6.06 1.3.12 1.92.12zm-10.54-2.74c-.7 0-1.54 0-2.14.08v-2.6a14.9 14.9 0 0 0 2.12.14h8a15.67 15.67 0 0 0 2.22-.14v2.6c-.7 0-1.46-.08-2.16-.08z"/><path d="m235.9 6.68a25 25 0 0 1 -4.5 3.62v6.7a11.14 11.14 0 0 0 .14 2.16h-3a20.91 20.91 0 0 0 .1-2.16v-5.18a37.47 37.47 0 0 1 -5.64 2.18l-1.34-2.32a26.71 26.71 0 0 0 7.1-2.68 19.91 19.91 0 0 0 5.14-4.16z"/><path d="m255.2 3.46 1.26.82a10.1 10.1 0 0 0 -.46 1.38 20.19 20.19 0 0 1 -3 7.28 15.83 15.83 0 0 1 -8 5.52l-2.18-2.38a13.14 13.14 0 0 0 7.84-4.7 12.84 12.84 0 0 0 2.34-5.64h-9.32c-.92 0-1.86 0-2.38.08v-2.82a22.27 22.27 0 0 0 2.38.16h9.26a8.39 8.39 0 0 0 .94 0c-.34-.66-.74-1.36-1.12-1.94l1.64-.72a26.38 26.38 0 0 1 1.54 2.64zm2-3.46c.5.72 1.22 1.94 1.6 2.64l-1.66.72a23.71 23.71 0 0 0 -1.6-2.68z"/><path d="m275.86 14.22a11.72 11.72 0 0 0 1.86-.16v2.94a15.51 15.51 0 0 0 -1.86-.1h-13.18a16.71 16.71 0 0 0 -2 .1v-2.9a10.8 10.8 0 0 0 2 .16h5.08v-8.2h-3.86c-.54 0-1.4 0-1.9.08v-2.74a14.68 14.68 0 0 0 1.9.12h10.88c.6 0 1.3-.06 1.88-.12v2.74c-.6 0-1.3-.08-1.88-.08h-4.22v8.16z"/><path d="m281.06 8.1c.72.06 2.18.12 3.22.12h10.72c.92 0 1.82-.08 2.34-.12v3.14c-.48 0-1.5-.1-2.34-.1h-10.72c-1.14 0-2.48 0-3.22.1z"/><path d="m306.62 9-1.46 2.24c-1.14-.8-3.22-2.14-4.56-2.86l1.4-2.2c1.4.72 3.6 2.1 4.62 2.82zm1.6 4.56a20.25 20.25 0 0 0 7.78-7.5l1.54 2.72a24.13 24.13 0 0 1 -7.94 7.22 25.15 25.15 0 0 1 -6.68 2.46l-1.5-2.62a21.45 21.45 0 0 0 6.8-2.28zm1.46-9.08-1.48 2.2c-1.12-.78-3.2-2.12-4.52-2.86l1.44-2.2c1.32.72 3.52 2.14 4.56 2.86zm6 .62-1.74.74a18.07 18.07 0 0 0 -1.76-3.14l1.62-.7a30.1 30.1 0 0 1 1.84 3.1zm2.76-1.1-1.7.76a19.22 19.22 0 0 0 -1.88-3l1.7-.7a25.72 25.72 0 0 1 1.88 2.94z"/><path d="m334.82 15.4a14.69 14.69 0 0 0 1.52-.12v2.62a10.2 10.2 0 0 0 -1.52-.1h-11a11.81 11.81 0 0 0 -1.64.1v-2.62a15.45 15.45 0 0 0 1.64.12h4.08v-6.4h-3.12c-.42 0-1.14 0-1.58.08v-2.56a10.48 10.48 0 0 0 1.58.1h9.16a13.61 13.61 0 0 0 1.56-.1v2.48c-.5 0-1.16 0-1.6 0h-3.42v6.4z"/><path d="m348.8 12.86a19 19 0 0 0 7.28-7.78l1.56 2.82a21.27 21.27 0 0 1 -7.4 7.4 21.66 21.66 0 0 1 -7.42 2.82l-1.68-2.64a20.61 20.61 0 0 0 7.66-2.62zm0-6.48-2 2.1a41.58 41.58 0 0 0 -5-4.32l1.88-2a42 42 0 0 1 5.12 4.22z"/><path d="m366.48 8.9-1.48 2.24a52.23 52.23 0 0 0 -4.56-2.84l1.46-2.22c1.36.72 3.56 2.1 4.58 2.82zm1.62 4.58a20.39 20.39 0 0 0 7.78-7.48l1.54 2.72a24.15 24.15 0 0 1 -8 7.18 24.34 24.34 0 0 1 -6.68 2.48l-1.5-2.64a22.19 22.19 0 0 0 6.86-2.26zm1.46-9.1-1.5 2.22c-1.12-.78-3.2-2.14-4.52-2.88l1.46-2.2c1.32.74 3.52 2.14 4.56 2.86z"/><path d="m381.06 8.1c.72.06 2.18.12 3.22.12h10.72c.92 0 1.82-.08 2.34-.12v3.14c-.48 0-1.5-.1-2.34-.1h-10.72c-1.14 0-2.48 0-3.22.1z"/><path d="m402.62 3.58 8.56-.76c2-.16 4.2-.28 5.6-.34v2.56a20.45 20.45 0 0 0 -3.78.26 6 6 0 0 0 -4.18 5.54c0 3.26 3 4.44 6.4 4.6l-.92 2.74c-4.16-.26-8.08-2.5-8.08-6.8a7.85 7.85 0 0 1 2.92-6.1c-1.72.18-5.88.62-8.18 1.12l-.26-2.72c.78-.02 1.54-.06 1.92-.1zm13 6.1-1.52.68a15.43 15.43 0 0 0 -1.56-2.78l1.46-.58a26.21 26.21 0 0 1 1.62 2.68zm2.32-1-1.5.72a17.59 17.59 0 0 0 -1.64-2.7l1.46-.7a29.92 29.92 0 0 1 1.68 2.7z"/><path d="m434.16 6.4c-.1.22-.24.64-.36 1a5.11 5.11 0 0 1 3.82 4.86c0 2.78-1.66 5.52-6.52 6.24l-1.32-2.08c3.82-.42 5.38-2.34 5.38-4.28a3 3 0 0 0 -2-2.78 15.4 15.4 0 0 1 -4.18 6c.14.52.3 1 .46 1.48l-2.28.68c-.08-.24-.18-.52-.26-.8a7 7 0 0 1 -3.06.8 2.57 2.57 0 0 1 -2.68-2.9c0-2.52 2.1-5.2 4.86-6.5.06-.84.12-1.68.2-2.48h-.64c-1 0-2.58-.08-3.5-.12l-.08-2.28a32.52 32.52 0 0 0 3.66.26h.76l.12-1.06a7.91 7.91 0 0 0 .06-1.18l2.6.06a7.69 7.69 0 0 0 -.28 1.06c-.08.32-.14.68-.2 1.06a33 33 0 0 0 6.72-.84v2.28a57.55 57.55 0 0 1 -7 .72c-.06.58-.12 1.18-.14 1.78a13.32 13.32 0 0 1 3-.36h.34a11.46 11.46 0 0 0 .18-1.18zm-7.8 8.08a27.61 27.61 0 0 1 -.42-4 5.18 5.18 0 0 0 -2.48 3.64c0 .62.28 1 .92 1a4.21 4.21 0 0 0 1.98-.64zm1.8-5a23.09 23.09 0 0 0 .22 3.28 11.32 11.32 0 0 0 2.5-3.76 9.67 9.67 0 0 0 -2.72.44z"/><path d="m446.48 1.36a32.34 32.34 0 0 0 -.8 4.1c.94-1.52 2.66-3.2 4.9-3.2 2.76 0 4.9 2.7 4.9 7.06 0 5.6-3.44 8.28-8.68 9.24l-1.5-2.3c4.4-.68 7.48-2.12 7.48-6.92 0-3.06-1-4.76-2.66-4.76-2.34 0-4.38 3.52-4.48 6.12a11.89 11.89 0 0 0 .1 2.1l-2.46.16a25.62 25.62 0 0 1 -.24-3.3 48 48 0 0 1 .56-6.34c.1-.72.14-1.52.16-2.08z"/><path d="m464.32 18.74a37.54 37.54 0 0 0 -4.3-4.42l2.08-1.8a37.49 37.49 0 0 1 4.36 4.38z"/><path d="m16.08 57.5a15.13 15.13 0 0 0 1.82-.12v2.62c-.5 0-1.26-.06-1.82-.06h-4.82a12.69 12.69 0 0 1 -1.26 5.12 9.6 9.6 0 0 1 -4 3.84l-2.38-1.7a8.17 8.17 0 0 0 3.62-2.86 8.59 8.59 0 0 0 1.24-4.42h-5.48c-.58 0-1.36 0-1.92.08v-2.62a15.23 15.23 0 0 0 1.92.12zm-10.56-2.72c-.68 0-1.54 0-2.14.06v-2.58a15 15 0 0 0 2.14.16h6.54a15.7 15.7 0 0 0 2.16-.16v2.58c-.68 0-1.46-.06-2.16-.06zm9.88-.46a27.49 27.49 0 0 0 -1.58-2.78l1.6-.66c.5.74 1.2 2 1.58 2.74zm2.4-.92a23.6 23.6 0 0 0 -1.6-2.76l1.58-.64a26.61 26.61 0 0 1 1.6 2.72z"/><path d="m27.82 59-1.46 2.24c-1.14-.8-3.22-2.14-4.56-2.86l1.44-2.2c1.36.72 3.56 2.1 4.58 2.82zm1.6 4.56a20.25 20.25 0 0 0 7.78-7.5l1.54 2.72a24.13 24.13 0 0 1 -7.94 7.22 25.15 25.15 0 0 1 -6.68 2.46l-1.5-2.62a21.45 21.45 0 0 0 6.8-2.28zm1.46-9.08-1.48 2.2c-1.12-.78-3.2-2.12-4.52-2.86l1.44-2.2c1.32.72 3.52 2.14 4.56 2.86zm6 .62-1.74.74a18.07 18.07 0 0 0 -1.76-3.14l1.62-.7a30.1 30.1 0 0 1 1.84 3.1zm2.76-1.1-1.7.76a19.22 19.22 0 0 0 -1.88-3l1.7-.7a25.72 25.72 0 0 1 1.88 2.94z"/><path d="m58.4 54.6a9.41 9.41 0 0 0 -.66 1.4 23 23 0 0 1 -2.74 5.5c.74.46 1.42.92 1.92 1.28l-1.82 2.34a23.16 23.16 0 0 0 -1.86-1.42 19.09 19.09 0 0 1 -7.38 5l-2.32-2a16.91 16.91 0 0 0 7.46-4.52c-1.36-.88-2.72-1.7-3.74-2.28l1.7-1.9c1.06.54 2.42 1.3 3.76 2.1a14.57 14.57 0 0 0 2.08-4.26h-5.8a23.54 23.54 0 0 1 -5.24 5.16l-2.16-1.66a18.31 18.31 0 0 0 6.4-6.64 8.85 8.85 0 0 0 .9-2.1l2.9.9c-.48.7-1 1.62-1.24 2h4.1a6.35 6.35 0 0 0 1.74-.22z"/><path d="m61.22 66.62a9.43 9.43 0 0 0 3.4-4.78c.56-1.72.58-5.5.58-7.92a7.3 7.3 0 0 0 -.2-1.82h3a12.76 12.76 0 0 0 -.14 1.8 44.13 44.13 0 0 1 -.6 8.6 11.58 11.58 0 0 1 -3.56 5.74zm9.26.3a7.61 7.61 0 0 0 .16-1.48v-11.66a8.87 8.87 0 0 0 -.16-1.72h3a10.16 10.16 0 0 0 -.14 1.74v10.46a12.67 12.67 0 0 0 4.92-4.26l1.54 2.2a22 22 0 0 1 -6.8 5.5 5.1 5.1 0 0 0 -.88.6z"/><path d="m94.14 53.16a8.85 8.85 0 0 0 1.14-.08 2.22 2.22 0 0 1 0-.38 2.39 2.39 0 1 1 2.4 2.38 1.14 1.14 0 0 1 -.26 0l-.16.6a20.19 20.19 0 0 1 -3 7.28 15.83 15.83 0 0 1 -8 5.52l-2.26-2.4a13.14 13.14 0 0 0 7.84-4.7 12.84 12.84 0 0 0 2.36-5.64h-9.32c-.92 0-1.86 0-2.38.08v-2.82a22.27 22.27 0 0 0 2.38.16zm4.64-.46a1.15 1.15 0 1 0 -1.14 1.14 1.16 1.16 0 0 0 1.14-1.14z"/><path d="m118 64.92v2.78h-2.76v-1.1h-9.64v1.1h-2.76c0-.1.06-1.84.06-2.8v-9.78c0-.56 0-1.38 0-1.94h2.12 11 2v1.94zm-12.34-9.16v8.3h9.66v-8.3z"/><path d="m137.26 54.16 1.46.9a10.72 10.72 0 0 0 -.66 1.44 21.86 21.86 0 0 1 -2.76 5.5c.74.48 1.42.92 1.92 1.28l-1.8 2.36c-.48-.42-1.14-.9-1.86-1.42a19.24 19.24 0 0 1 -7.38 5l-2.32-2a16.71 16.71 0 0 0 7.44-4.48c-1.34-.88-2.7-1.7-3.72-2.28l1.68-1.9c1.06.54 2.42 1.3 3.76 2.1a14.57 14.57 0 0 0 2.08-4.26h-5.74a23.87 23.87 0 0 1 -5.26 5.16l-2.16-1.66a18.55 18.55 0 0 0 6.36-6.64 9.22 9.22 0 0 0 .9-2.1l2.9.9c-.48.7-1 1.6-1.22 2h4.12a6.59 6.59 0 0 0 1.58-.18 22.69 22.69 0 0 0 -1.32-2.28l1.58-.64a29.28 29.28 0 0 1 1.58 2.74zm1.9-4.12a26.27 26.27 0 0 1 1.62 2.72l-1.6.68a19 19 0 0 0 -1.6-2.76z"/><path d="m159.2 54.92a8 8 0 0 0 -.66 1.44 20.87 20.87 0 0 1 -3.48 6.64 18.84 18.84 0 0 1 -8.06 5.68l-2.36-2.12a15.94 15.94 0 0 0 8.06-4.94 14.22 14.22 0 0 0 2.84-5.46h-5.64a22.8 22.8 0 0 1 -5 4.84l-2.24-1.66a17.61 17.61 0 0 0 6.24-6.44 9.62 9.62 0 0 0 .9-2.1l2.92 1c-.48.7-1 1.6-1.22 2l-.06.1h4a6.41 6.41 0 0 0 1.74-.24z"/><path d="m168.88 58.9-1.46 2.24a52.23 52.23 0 0 0 -4.56-2.84l1.46-2.22c1.34.72 3.54 2.1 4.56 2.82zm1.62 4.58a20.39 20.39 0 0 0 7.78-7.5l1.54 2.72a23.74 23.74 0 0 1 -14.64 9.66l-1.5-2.64a22.19 22.19 0 0 0 6.82-2.24zm1.46-9.1-1.5 2.22c-1.12-.78-3.2-2.14-4.52-2.88l1.46-2.2c1.32.74 3.52 2.14 4.6 2.86z"/><path d="m195.84 67.5v1.36h-2.52c0-.18 0-.5 0-.8h-7.58c-.56 0-1.38 0-1.72.06v-2.46a17.16 17.16 0 0 0 1.74.08h7.56v-2.66h-6.32c-.76 0-1.72 0-2.18 0v-2.32c.52 0 1.42.06 2.18.06h6.38v-2.42h-6.6c-.74 0-2 0-2.48.08v-2.42c.52.06 1.74.1 2.48.1h7.56 1.54v1.34z"/><path d="m208.8 62.86a19 19 0 0 0 7.28-7.78l1.56 2.82a21.27 21.27 0 0 1 -7.4 7.4 21.66 21.66 0 0 1 -7.42 2.82l-1.68-2.64a20.61 20.61 0 0 0 7.66-2.62zm0-6.48-2 2.1a41.58 41.58 0 0 0 -5-4.32l1.88-2a42 42 0 0 1 5.12 4.22z"/><path d="m222.22 53.58 8.56-.76c2-.16 4.2-.28 5.6-.34v2.56a20.45 20.45 0 0 0 -3.82.26 6 6 0 0 0 -4.18 5.54c0 3.26 3 4.44 6.4 4.6l-.92 2.74c-4.16-.26-8.08-2.5-8.08-6.8a7.85 7.85 0 0 1 2.92-6.1c-1.72.18-5.88.62-8.18 1.12l-.26-2.72c.82-.02 1.58-.06 1.96-.1zm13 6.1-1.52.68a15.43 15.43 0 0 0 -1.56-2.78l1.48-.62a26.21 26.21 0 0 1 1.6 2.72zm2.32-1-1.5.72a17.59 17.59 0 0 0 -1.64-2.7l1.46-.68a29.92 29.92 0 0 1 1.68 2.68z"/><path d="m253.76 56.4c-.1.22-.24.64-.36 1a5.11 5.11 0 0 1 3.82 4.86c0 2.78-1.66 5.52-6.52 6.24l-1.32-2.08c3.82-.42 5.38-2.34 5.38-4.28a3 3 0 0 0 -2-2.78 15.4 15.4 0 0 1 -4.18 6c.14.52.3 1 .46 1.48l-2.28.68c-.08-.24-.18-.52-.26-.8a7 7 0 0 1 -3.06.8 2.57 2.57 0 0 1 -2.68-2.9c0-2.52 2.1-5.2 4.86-6.5.06-.84.12-1.68.2-2.48h-.64c-1 0-2.58-.08-3.5-.12l-.08-2.3a32.52 32.52 0 0 0 3.66.26h.74l.12-1.06a7.91 7.91 0 0 0 .06-1.18l2.6.06a7.69 7.69 0 0 0 -.28 1.06c-.08.32-.14.68-.2 1.06a33 33 0 0 0 6.7-.82v2.28a57.55 57.55 0 0 1 -7 .72c-.06.58-.12 1.18-.14 1.78a13.32 13.32 0 0 1 3-.36h.34a11.46 11.46 0 0 0 .18-1.18zm-7.76 8.08a27.61 27.61 0 0 1 -.42-4 5.18 5.18 0 0 0 -2.48 3.64c0 .62.28 1 .92 1a4.21 4.21 0 0 0 1.98-.64zm1.8-5a23.09 23.09 0 0 0 .2 3.32 11.32 11.32 0 0 0 2.5-3.76 9.67 9.67 0 0 0 -2.72.44z"/><path d="m265.68 51.36a32.34 32.34 0 0 0 -.8 4.1c.94-1.52 2.66-3.2 4.9-3.2 2.76 0 4.9 2.7 4.9 7.06 0 5.6-3.44 8.28-8.68 9.24l-1.5-2.3c4.4-.68 7.48-2.12 7.48-6.92 0-3.06-1-4.76-2.66-4.76-2.34 0-4.38 3.52-4.48 6.12a11.89 11.89 0 0 0 .1 2.1l-2.46.16a25.62 25.62 0 0 1 -.24-3.3 48 48 0 0 1 .56-6.34c.1-.72.14-1.52.16-2.08z"/><path d="m283.52 68.74a37.54 37.54 0 0 0 -4.3-4.42l2.08-1.8a37.49 37.49 0 0 1 4.36 4.38z"/><path d="m16.08 107.5a15.13 15.13 0 0 0 1.82-.12v2.62c-.5 0-1.26-.06-1.82-.06h-4.82a12.69 12.69 0 0 1 -1.26 5.12 9.6 9.6 0 0 1 -4 3.84l-2.34-1.7a8.17 8.17 0 0 0 3.62-2.86 8.59 8.59 0 0 0 1.24-4.42h-5.52c-.58 0-1.36 0-1.92.08v-2.62a15.23 15.23 0 0 0 1.92.12zm-10.56-2.72c-.68 0-1.54 0-2.14.06v-2.58a15 15 0 0 0 2.14.16h6.54a15.7 15.7 0 0 0 2.16-.16v2.58c-.68 0-1.46-.06-2.16-.06zm9.88-.46a27.49 27.49 0 0 0 -1.58-2.78l1.6-.66c.5.74 1.2 2 1.58 2.74zm2.4-.92a23.6 23.6 0 0 0 -1.6-2.76l1.58-.66a26.61 26.61 0 0 1 1.6 2.72z"/><path d="m36.92 105.72a11.47 11.47 0 0 0 2.2-.16v2.66c-.44 0-1.14-.06-2.18-.06h-1.5v.66c0 5-1.18 8-6 10.12l-2.14-2c3.86-1.36 5.56-3.08 5.56-8v-.76h-4.76v2.72c0 .9.06 1.7.08 2.1h-2.8a16.17 16.17 0 0 0 .12-2.1v-2.72h-1.7c-1 0-1.72 0-2.16.08v-2.72a12.6 12.6 0 0 0 2.16.2h1.7v-2a16.25 16.25 0 0 0 -.12-1.8h2.84a16 16 0 0 0 -.12 1.82v2h4.74v-2.16a12.64 12.64 0 0 0 -.12-1.84h2.86a12.28 12.28 0 0 0 -.14 1.84v2.12zm-.08-.74a26.48 26.48 0 0 0 -1-2.74l1.34-.44a20.28 20.28 0 0 1 1.06 2.74zm2.1-.66a17.91 17.91 0 0 0 -1.08-2.72l1.36-.44c.38.8.84 2 1.1 2.72z"/><path d="m53.22 115.62a13.75 13.75 0 0 0 .18 2.62h-3.16a22.4 22.4 0 0 0 .14-2.62v-6.56a39.1 39.1 0 0 1 -6.88 2.72l-1.44-2.44a30.73 30.73 0 0 0 9.1-3.62 21.11 21.11 0 0 0 5.22-4.52l2.14 1.94a32.68 32.68 0 0 1 -5.3 4.3z"/><path d="m70.4 112.86a19 19 0 0 0 7.28-7.78l1.56 2.82a21.27 21.27 0 0 1 -7.4 7.4 21.66 21.66 0 0 1 -7.42 2.82l-1.68-2.64a20.61 20.61 0 0 0 7.66-2.62zm0-6.48-2 2.1a41.58 41.58 0 0 0 -5-4.32l1.88-2a42 42 0 0 1 5.12 4.22z"/><path d="m96.3 103.8a9.45 9.45 0 0 0 -.7 1.24 29.4 29.4 0 0 1 -3.14 5.5 56.22 56.22 0 0 1 5.54 5.72l-2.28 2a45.61 45.61 0 0 0 -5-5.66 26.34 26.34 0 0 1 -7.52 5.62l-2.06-2.22a22.66 22.66 0 0 0 8.2-5.74 15.5 15.5 0 0 0 3-4.9h-6.8c-.84 0-1.94.12-2.36.14v-2.8a22.34 22.34 0 0 0 2.36.14h7a7.22 7.22 0 0 0 2.08-.26z"/><path d="m117.6 104.6a9.41 9.41 0 0 0 -.66 1.42 23 23 0 0 1 -2.76 5.48c.74.46 1.42.92 1.92 1.28l-1.82 2.34a23.16 23.16 0 0 0 -1.86-1.42 19.09 19.09 0 0 1 -7.38 5l-2.32-2a16.91 16.91 0 0 0 7.46-4.48c-1.36-.88-2.72-1.7-3.74-2.28l1.7-1.9c1.06.54 2.42 1.3 3.76 2.1a14.57 14.57 0 0 0 2.08-4.26h-5.74a23.54 23.54 0 0 1 -5.24 5.12l-2.16-1.66a18.31 18.31 0 0 0 6.38-6.64 8.85 8.85 0 0 0 .9-2.1l2.9.9c-.48.7-1 1.62-1.24 2h4.1a6.35 6.35 0 0 0 1.74-.22z"/><path d="m127 109-1.46 2.24c-1.14-.8-3.22-2.14-4.56-2.86l1.44-2.2c1.38.72 3.58 2.1 4.58 2.82zm1.6 4.56a20.25 20.25 0 0 0 7.78-7.5l1.54 2.72a24.13 24.13 0 0 1 -7.92 7.22 25.15 25.15 0 0 1 -6.68 2.46l-1.5-2.62a21.45 21.45 0 0 0 6.8-2.28zm1.46-9.08-1.48 2.2c-1.12-.78-3.2-2.12-4.52-2.86l1.44-2.2c1.34.72 3.5 2.14 4.58 2.86zm6 .62-1.74.74a18.07 18.07 0 0 0 -1.76-3.14l1.66-.7a30.1 30.1 0 0 1 1.78 3.1zm2.8-1.08-1.7.76a19.22 19.22 0 0 0 -1.88-3l1.7-.7a25.72 25.72 0 0 1 1.86 2.92z"/><path d="m155.7 104.8a15.46 15.46 0 0 0 2.08-.16v2.66c-.64 0-1.4-.06-1.94-.06h-2.58c.06 2.92.14 6.26.18 9 0 1.28-.72 2-2.24 2-1.22 0-2.34 0-3.48-.12l-.22-2.6a17 17 0 0 0 2.66.24c.5 0 .7-.26.7-.84 0-1.34 0-3.34 0-5.4a27.5 27.5 0 0 1 -8.16 6.76l-1.84-2.08a24.08 24.08 0 0 0 8.8-6.94h-5.46c-.72 0-1.58 0-2.28.08v-2.66a19.14 19.14 0 0 0 2.22.14h6.62q0-.78-.06-1.44c0-.58-.1-1.32-.2-2h2.84a17.11 17.11 0 0 0 -.12 2v1.44z"/><path d="m163 103.58 8.56-.76c2-.16 4.2-.28 5.6-.34v2.56a20.45 20.45 0 0 0 -3.82.26 6 6 0 0 0 -4.18 5.54c0 3.26 3 4.44 6.4 4.6l-.92 2.74c-4.16-.26-8.08-2.5-8.08-6.8a7.85 7.85 0 0 1 2.92-6.1c-1.72.18-5.88.62-8.18 1.12l-.26-2.72c.84-.02 1.6-.06 1.96-.1zm13 6.1-1.52.68a15.43 15.43 0 0 0 -1.56-2.78l1.48-.62a26.21 26.21 0 0 1 1.6 2.72zm2.32-1-1.5.72a17.59 17.59 0 0 0 -1.64-2.7l1.46-.68a29.92 29.92 0 0 1 1.7 2.68z"/><path d="m194.16 106.4c-.1.22-.24.64-.36 1a5.11 5.11 0 0 1 3.82 4.86c0 2.78-1.66 5.52-6.52 6.24l-1.32-2.08c3.82-.42 5.38-2.34 5.38-4.28a3 3 0 0 0 -2-2.78 15.4 15.4 0 0 1 -4.18 6c.14.52.3 1 .46 1.48l-2.28.68c-.08-.24-.18-.52-.26-.8a7 7 0 0 1 -3.06.8 2.57 2.57 0 0 1 -2.68-2.9c0-2.52 2.1-5.2 4.86-6.5.06-.84.12-1.68.2-2.48h-.64c-1 0-2.58-.08-3.5-.12l-.08-2.3a32.52 32.52 0 0 0 3.66.26h.76l.12-1.06a7.91 7.91 0 0 0 .06-1.18l2.6.06a7.69 7.69 0 0 0 -.28 1.06c-.08.32-.14.68-.2 1.06a33 33 0 0 0 6.72-.84v2.28a57.55 57.55 0 0 1 -7 .72c-.06.58-.12 1.18-.14 1.78a13.32 13.32 0 0 1 3-.36h.34a11.46 11.46 0 0 0 .18-1.18zm-7.8 8.08a27.61 27.61 0 0 1 -.42-4 5.18 5.18 0 0 0 -2.48 3.64c0 .62.28 1 .92 1a4.21 4.21 0 0 0 1.98-.64zm1.8-5a23.09 23.09 0 0 0 .22 3.28 11.32 11.32 0 0 0 2.5-3.76 9.67 9.67 0 0 0 -2.72.44z"/><path d="m206.08 101.36a32.34 32.34 0 0 0 -.8 4.1c.94-1.52 2.66-3.2 4.9-3.2 2.76 0 4.9 2.7 4.9 7.06 0 5.6-3.44 8.28-8.68 9.24l-1.5-2.3c4.4-.68 7.48-2.12 7.48-6.92 0-3.06-1-4.76-2.66-4.76-2.34 0-4.38 3.52-4.48 6.12a11.89 11.89 0 0 0 .1 2.1l-2.46.16a25.62 25.62 0 0 1 -.24-3.3 48 48 0 0 1 .56-6.34c.1-.72.14-1.52.16-2.08z"/><path d="m223.92 118.74a37.54 37.54 0 0 0 -4.3-4.42l2.08-1.8a37.49 37.49 0 0 1 4.36 4.38z"/><path d="m15.6 153.46 1.26.82a10.1 10.1 0 0 0 -.44 1.38 20.19 20.19 0 0 1 -3 7.28 15.83 15.83 0 0 1 -8 5.52l-2.22-2.38a13.14 13.14 0 0 0 7.84-4.7 12.84 12.84 0 0 0 2.36-5.64h-9.32c-.92 0-1.86 0-2.38.08v-2.82a22.27 22.27 0 0 0 2.38.16h9.26a8.39 8.39 0 0 0 .94 0c-.34-.66-.74-1.36-1.12-1.94l1.64-.68a26.38 26.38 0 0 1 1.54 2.64zm2-3.46c.5.72 1.22 1.94 1.6 2.64l-1.66.72a23.71 23.71 0 0 0 -1.6-2.68z"/><path d="m37.3 157.82a7.41 7.41 0 0 0 -.38.84 14.37 14.37 0 0 1 -3 5.54 15 15 0 0 1 -7.14 4.32l-2-2.26a13.48 13.48 0 0 0 6.94-3.5 8.68 8.68 0 0 0 2.06-3.46h-9.62c-.48 0-1.48 0-2.32.1v-2.6c.84.08 1.7.12 2.32.12h9.9a4.22 4.22 0 0 0 1.46-.2zm-13.62-5.82a16.86 16.86 0 0 0 2.08.1h7.7a18.86 18.86 0 0 0 2.16-.1v2.58c-.54 0-1.48-.06-2.2-.06h-7.66c-.64 0-1.5 0-2.08.06z"/><path d="m49.2 162.86a19 19 0 0 0 7.28-7.78l1.52 2.82a21.27 21.27 0 0 1 -7.4 7.4 21.66 21.66 0 0 1 -7.42 2.82l-1.68-2.64a20.61 20.61 0 0 0 7.7-2.62zm0-6.48-2 2.1a41.58 41.58 0 0 0 -5-4.32l1.88-2a42 42 0 0 1 5.12 4.22z"/><path d="m67.62 157.16a69.58 69.58 0 0 1 8.38 3.12l-1.12 2.78a53.58 53.58 0 0 0 -7.24-3v5.66c0 .56.1 2 .2 2.78h-3.16a21.66 21.66 0 0 0 .2-2.78v-11.5a14.11 14.11 0 0 0 -.2-2.42h3.12a21.75 21.75 0 0 0 -.18 2.42zm5.32-.88a16.3 16.3 0 0 0 -1.76-3.08l1.68-.72c.56.84 1.36 2.12 1.82 3zm2.74-1.12a18.73 18.73 0 0 0 -1.86-3l1.66-.78a26.49 26.49 0 0 1 1.88 3z"/><path d="m93.78 167.8c0-.32 0-.66 0-1h-9.1c-.78 0-1.92.06-2.58.12v-2.92c.7.06 1.6.12 2.5.12h9.22v-8.28h-9c-.84 0-1.92 0-2.48.08v-2.78c.74.08 1.78.12 2.48.12h10.08 1.76c0 .46-.06 1.26-.06 1.84v10.36c0 .7 0 1.76.08 2.36z"/><path d="m109.2 162.86a19 19 0 0 0 7.28-7.78l1.52 2.82a21.27 21.27 0 0 1 -7.4 7.4 21.66 21.66 0 0 1 -7.42 2.82l-1.68-2.64a20.61 20.61 0 0 0 7.7-2.62zm0-6.48-2 2.1a41.58 41.58 0 0 0 -5-4.32l1.88-2a42 42 0 0 1 5.12 4.22z"/><path d="m136.46 155.4a11.85 11.85 0 0 0 2.2-.14v2.66c-.44 0-1.14-.06-2.2-.06h-1.46v.66c0 5-1.2 8-6 10.1l-2.14-2c3.86-1.34 5.56-3.08 5.56-8v-.76h-4.74v2.72c0 .88.06 1.7.08 2.1h-2.8a16.17 16.17 0 0 0 .12-2.1v-2.72h-1.7c-1 0-1.72 0-2.16.08v-2.72a13.22 13.22 0 0 0 2.16.18h1.62v-2a16.25 16.25 0 0 0 -.12-1.8h2.84a12.32 12.32 0 0 0 -.12 1.82v2h4.74v-2.1a13.2 13.2 0 0 0 -.12-1.86h2.84a17.2 17.2 0 0 0 -.12 1.86v2.1z"/><path d="m141.22 166.62a9.43 9.43 0 0 0 3.4-4.78c.56-1.72.58-5.5.58-7.92a7.3 7.3 0 0 0 -.18-1.82h2.98a12.76 12.76 0 0 0 -.14 1.8 44.13 44.13 0 0 1 -.6 8.6 11.58 11.58 0 0 1 -3.56 5.74zm9.26.3a7.61 7.61 0 0 0 .16-1.48v-11.66a8.87 8.87 0 0 0 -.16-1.72h3a10.16 10.16 0 0 0 -.14 1.74v10.46a12.67 12.67 0 0 0 4.94-4.22l1.54 2.2a22 22 0 0 1 -6.82 5.46 5.1 5.1 0 0 0 -.88.6z"/><path d="m177.54 157.26a15.39 15.39 0 0 0 1.82-.12v2.6c-.5 0-1.26-.06-1.82-.06h-4.82a12.69 12.69 0 0 1 -1.28 5.14 9.6 9.6 0 0 1 -4 3.84l-2.34-1.7a8.31 8.31 0 0 0 3.62-2.86 8.59 8.59 0 0 0 1.24-4.42h-5.5c-.58 0-1.36 0-1.92.08v-2.62c.6.06 1.3.12 1.92.12zm-10.54-2.74c-.7 0-1.54 0-2.14.08v-2.6a14.9 14.9 0 0 0 2.12.14h8a15.67 15.67 0 0 0 2.16-.14v2.58c-.7 0-1.46-.08-2.16-.08z"/><path d="m196.3 156.68a25 25 0 0 1 -4.5 3.62v6.7a11.14 11.14 0 0 0 .14 2.16h-3a20.91 20.91 0 0 0 .1-2.16v-5.14a37.47 37.47 0 0 1 -5.64 2.18l-1.34-2.32a26.71 26.71 0 0 0 7.06-2.7 19.91 19.91 0 0 0 5.14-4.16z"/><path d="m209.2 162.86a19 19 0 0 0 7.28-7.78l1.52 2.82a21.27 21.27 0 0 1 -7.4 7.4 21.66 21.66 0 0 1 -7.42 2.82l-1.68-2.64a20.61 20.61 0 0 0 7.7-2.62zm0-6.48-2 2.1a41.58 41.58 0 0 0 -5-4.32l1.88-2a42 42 0 0 1 5.12 4.22z"/><path d="m234.9 154.34 1.7 1a8.47 8.47 0 0 0 -.66 1.42 20.18 20.18 0 0 1 -3.5 6.68 18.63 18.63 0 0 1 -8.06 5.66l-2.38-2.1a16 16 0 0 0 8.06-5 14.15 14.15 0 0 0 2.84-5.44h-5.64a22 22 0 0 1 -5 4.84l-2.26-1.62a17.11 17.11 0 0 0 6.24-6.42 8.74 8.74 0 0 0 .9-2.1l2.94 1c-.48.7-1 1.6-1.24 2l-.06.1h4a6.3 6.3 0 0 0 1.74-.24l.14.08a23.19 23.19 0 0 0 -1.46-2.58l1.58-.64a29.28 29.28 0 0 1 1.58 2.74zm2.26-4.26a28.56 28.56 0 0 1 1.62 2.72l-1.6.68a19 19 0 0 0 -1.6-2.76z"/><path d="m257 154a8.14 8.14 0 0 0 -.44 1.4 20.55 20.55 0 0 1 -3 7.28 16 16 0 0 1 -8 5.52l-2.18-2.4a13.19 13.19 0 0 0 7.84-4.68 12.66 12.66 0 0 0 2.34-5.64h-9.36c-.9 0-1.86 0-2.38.08v-2.82c.6.06 1.74.16 2.4.16h9.24a6.7 6.7 0 0 0 1.58-.16z"/><path d="m275.4 157.38a6.41 6.41 0 0 0 -.6.8 22.67 22.67 0 0 1 -4 4.74l-2-1.4a11.27 11.27 0 0 0 2.88-3h-8.68a19.22 19.22 0 0 0 -2.08.12v-2.64a14.13 14.13 0 0 0 2.08.16h9.28a8 8 0 0 0 1.62-.14zm-6.86 2.1c-.12 3.74-.12 7.26-4.8 9.82l-2.12-1.7a7.14 7.14 0 0 0 1.62-.86c2.26-1.54 2.68-3.32 2.68-5.84a8 8 0 0 0 -.14-1.42z"/><path d="m279.46 158.1c.72.06 2.18.12 3.22.12h10.74c.92 0 1.82-.08 2.34-.12v3.14c-.48 0-1.5-.1-2.34-.1h-10.74c-1.14 0-2.48 0-3.22.1z"/><path d="m313.58 168.26c-.26-.68-.58-1.5-.94-2.36-3.26.38-9.32 1-11.84 1.28l-1.88.24-.46-2.92h2.2.54c1.16-3 2.88-8.44 3.46-10.52a14.84 14.84 0 0 0 .48-2.3l3.18.64a22.75 22.75 0 0 0 -.86 2.22c-.64 2-2.26 7-3.26 9.72 2.44-.24 5.28-.56 7.3-.8a24.17 24.17 0 0 0 -2.1-3.66l2.5-1a61.51 61.51 0 0 1 4.38 8.32z"/><path d="m319 153.58 8.56-.76c2-.16 4.2-.28 5.6-.34v2.56a20.45 20.45 0 0 0 -3.82.26 6 6 0 0 0 -4.18 5.54c0 3.26 3 4.44 6.4 4.6l-.92 2.74c-4.16-.26-8.08-2.5-8.08-6.8a7.85 7.85 0 0 1 2.92-6.1c-1.72.18-5.88.62-8.18 1.12l-.26-2.72c.84-.02 1.6-.06 1.96-.1zm13 6.1-1.52.68a15.43 15.43 0 0 0 -1.56-2.78l1.48-.62a26.21 26.21 0 0 1 1.6 2.72zm2.32-1-1.5.72a17.59 17.59 0 0 0 -1.64-2.7l1.46-.68a29.92 29.92 0 0 1 1.7 2.68z"/><path d="m350.56 156.4c-.1.22-.24.64-.36 1a5.11 5.11 0 0 1 3.82 4.86c0 2.78-1.66 5.52-6.52 6.24l-1.32-2.08c3.82-.42 5.38-2.34 5.38-4.28a3 3 0 0 0 -2-2.78 15.4 15.4 0 0 1 -4.18 6c.14.52.3 1 .46 1.48l-2.28.68c-.08-.24-.18-.52-.26-.8a7 7 0 0 1 -3.06.8 2.57 2.57 0 0 1 -2.68-2.9c0-2.52 2.1-5.2 4.86-6.5.06-.84.12-1.68.2-2.48h-.64c-1 0-2.58-.08-3.5-.12l-.08-2.3a32.52 32.52 0 0 0 3.66.26h.76l.12-1.06a7.91 7.91 0 0 0 .06-1.18l2.6.06a7.69 7.69 0 0 0 -.28 1.06c-.08.32-.14.68-.2 1.06a33 33 0 0 0 6.72-.84v2.28a57.55 57.55 0 0 1 -7 .72c-.06.58-.12 1.18-.14 1.78a13.32 13.32 0 0 1 3-.36h.34a11.46 11.46 0 0 0 .18-1.18zm-7.8 8.08a27.61 27.61 0 0 1 -.42-4 5.18 5.18 0 0 0 -2.48 3.64c0 .62.28 1 .92 1a4.21 4.21 0 0 0 1.98-.64zm1.8-5a23.09 23.09 0 0 0 .22 3.28 11.32 11.32 0 0 0 2.5-3.76 9.67 9.67 0 0 0 -2.72.44z"/><path d="m362.48 151.36a32.34 32.34 0 0 0 -.8 4.1c.94-1.52 2.66-3.2 4.9-3.2 2.76 0 4.9 2.7 4.9 7.06 0 5.6-3.44 8.28-8.68 9.24l-1.5-2.3c4.4-.68 7.48-2.12 7.48-6.92 0-3.06-1-4.76-2.66-4.76-2.34 0-4.38 3.52-4.48 6.12a11.89 11.89 0 0 0 .1 2.1l-2.46.16a25.62 25.62 0 0 1 -.24-3.3 48 48 0 0 1 .56-6.34c.1-.72.14-1.52.16-2.08z"/><path d="m380.32 168.74a37.54 37.54 0 0 0 -4.3-4.42l2.08-1.8a37.49 37.49 0 0 1 4.36 4.38z"/><path d="m12 215.62a13.75 13.75 0 0 0 .18 2.62h-3.18a22.4 22.4 0 0 0 .14-2.62v-6.56a39.1 39.1 0 0 1 -6.88 2.72l-1.4-2.44a30.73 30.73 0 0 0 9.1-3.62 21.11 21.11 0 0 0 5.22-4.52l2.14 1.94a32.68 32.68 0 0 1 -5.3 4.3z"/><path d="m34.22 205a27.74 27.74 0 0 1 -3.76 7.34 20 20 0 0 1 -7.58 5.8l-2.28-2.34a17.43 17.43 0 0 0 7.6-5.2 20.3 20.3 0 0 0 3.8-8.68l3.12.8a23.4 23.4 0 0 0 -.9 2.28z"/><path d="m40.78 210.16c.92-.92 2.48-2.88 3.84-4.52 1.2-1.42 2.28-1.56 3.92-.18a52.05 52.05 0 0 1 4.08 4.06c1.34 1.46 3.48 3.74 4.92 5.4l-2.14 2.32c-1.28-1.64-3.1-3.86-4.28-5.24a43.68 43.68 0 0 0 -3.68-4c-.7-.6-1-.6-1.62.12-.78 1-2.22 3-3 4.08-.46.62-.94 1.34-1.28 1.86l-2.36-2.42c.56-.46 1-.88 1.6-1.48zm13.7-3.46-1.8.78a18.85 18.85 0 0 0 -1.82-3.26l1.74-.72a31.91 31.91 0 0 1 1.88 3.2zm2.74-1.18-1.74.84a20.92 20.92 0 0 0 -1.92-3.18l1.72-.78a29.11 29.11 0 0 1 1.94 3.12z"/><path d="m60.26 208.1c.72.06 2.18.12 3.22.12h10.74c.92 0 1.82-.08 2.34-.12v3.14c-.48 0-1.5-.1-2.34-.1h-10.74c-1.14 0-2.48 0-3.22.1z"/><path d="m86.08 208.9-1.46 2.24a52.23 52.23 0 0 0 -4.56-2.84l1.46-2.22c1.34.72 3.54 2.1 4.56 2.82zm1.62 4.58a20.39 20.39 0 0 0 7.78-7.5l1.52 2.72a23.74 23.74 0 0 1 -14.64 9.66l-1.5-2.64a22.19 22.19 0 0 0 6.84-2.24zm1.46-9.1-1.5 2.22c-1.12-.78-3.2-2.14-4.52-2.88l1.46-2.2c1.32.74 3.52 2.14 4.56 2.86z"/><path d="m113.44 217.5v1.36h-2.52c0-.18 0-.5 0-.8h-7.58c-.56 0-1.38 0-1.72.06v-2.46a17.16 17.16 0 0 0 1.74.08h7.64v-2.66h-6.38c-.76 0-1.72 0-2.18 0v-2.36c.52 0 1.42.06 2.18.06h6.38v-2.38h-6.6c-.74 0-2 0-2.48.08v-2.42c.52.06 1.74.1 2.48.1h7.56 1.54v1.34z"/><path d="m126.8 212.86a19 19 0 0 0 7.28-7.78l1.56 2.82a21.27 21.27 0 0 1 -7.4 7.4 21.66 21.66 0 0 1 -7.42 2.82l-1.68-2.64a20.61 20.61 0 0 0 7.66-2.62zm0-6.48-2 2.1a41.58 41.58 0 0 0 -5-4.32l1.88-2a42 42 0 0 1 5.12 4.22z"/><path d="m154.9 207.82a7.41 7.41 0 0 0 -.38.84 14.37 14.37 0 0 1 -3 5.54 15 15 0 0 1 -7.14 4.32l-2-2.26a13.48 13.48 0 0 0 6.94-3.5 8.68 8.68 0 0 0 2.06-3.46h-9.66c-.48 0-1.48 0-2.32.1v-2.6c.84.08 1.7.12 2.32.12h9.9a4.22 4.22 0 0 0 1.46-.2zm-13.62-5.82a16.86 16.86 0 0 0 2.08.1h7.7a18.86 18.86 0 0 0 2.16-.1v2.58c-.54 0-1.48-.06-2.2-.06h-7.66c-.64 0-1.5 0-2.08.06z"/><path d="m164 210.18a31.39 31.39 0 0 1 -3.86 5.58l-2.14-1.48a20.84 20.84 0 0 0 3.76-5.16zm4.52-2.84v9.3c0 1.16-.66 1.88-2.08 1.88a28.88 28.88 0 0 1 -3.26-.18l-.24-2.48a13.83 13.83 0 0 0 2.22.24c.52 0 .72-.2.74-.72 0-.74 0-7.08 0-8h-5.08c-.6 0-1.38 0-1.94.08v-2.66a15.54 15.54 0 0 0 1.94.16h5.18v-1.6a10.36 10.36 0 0 0 -.18-1.74h3a16.21 16.21 0 0 0 -.18 1.74v1.6h4.66a15.59 15.59 0 0 0 2-.14v2.62c-.62 0-1.4-.06-1.94-.06zm4.08 1.72a46.49 46.49 0 0 1 3.42 5.26l-2.36 1.28a38 38 0 0 0 -3.24-5.36zm-.2-4.58a21.75 21.75 0 0 0 -1.5-2.64l1.58-.66a25.27 25.27 0 0 1 1.52 2.62zm2.66-.58a19.47 19.47 0 0 0 -1.56-2.64l1.58-.64a22.73 22.73 0 0 1 1.56 2.58z"/><path d="m181.42 203.58 8.56-.76c2-.16 4.2-.28 5.6-.34v2.56a20.45 20.45 0 0 0 -3.82.26 6 6 0 0 0 -4.18 5.54c0 3.26 3 4.44 6.4 4.6l-.92 2.74c-4.16-.26-8.08-2.5-8.08-6.8a7.85 7.85 0 0 1 2.92-6.1c-1.72.18-5.88.62-8.18 1.12l-.26-2.72c.82-.02 1.54-.06 1.96-.1zm13 6.1-1.52.68a15.43 15.43 0 0 0 -1.56-2.78l1.48-.62a26.21 26.21 0 0 1 1.6 2.72zm2.32-1-1.5.72a17.59 17.59 0 0 0 -1.64-2.7l1.46-.68a29.92 29.92 0 0 1 1.68 2.68z"/><path d="m212.56 206.4c-.1.22-.24.64-.36 1a5.11 5.11 0 0 1 3.82 4.86c0 2.78-1.66 5.52-6.52 6.24l-1.32-2.08c3.82-.42 5.38-2.34 5.38-4.28a3 3 0 0 0 -2-2.78 15.4 15.4 0 0 1 -4.18 6c.14.52.3 1 .46 1.48l-2.28.68c-.08-.24-.18-.52-.26-.8a7 7 0 0 1 -3.06.8 2.57 2.57 0 0 1 -2.68-2.9c0-2.52 2.1-5.2 4.86-6.5.06-.84.12-1.68.2-2.48h-.64c-1 0-2.58-.08-3.5-.12l-.08-2.3a32.52 32.52 0 0 0 3.66.26h.76l.12-1.06a7.91 7.91 0 0 0 .06-1.18l2.6.06a7.69 7.69 0 0 0 -.28 1.06c-.08.32-.14.68-.2 1.06a33 33 0 0 0 6.72-.84v2.28a57.55 57.55 0 0 1 -7 .72c-.06.58-.12 1.18-.14 1.78a13.32 13.32 0 0 1 3-.36h.34a11.46 11.46 0 0 0 .18-1.18zm-7.8 8.08a27.61 27.61 0 0 1 -.42-4 5.18 5.18 0 0 0 -2.48 3.64c0 .62.28 1 .92 1a4.21 4.21 0 0 0 1.98-.64zm1.8-5a23.09 23.09 0 0 0 .22 3.28 11.32 11.32 0 0 0 2.5-3.76 9.67 9.67 0 0 0 -2.72.44z"/><path d="m224.48 201.36a32.34 32.34 0 0 0 -.8 4.1c.94-1.52 2.66-3.2 4.9-3.2 2.76 0 4.9 2.7 4.9 7.06 0 5.6-3.44 8.28-8.68 9.24l-1.5-2.3c4.4-.68 7.48-2.12 7.48-6.92 0-3.06-1-4.76-2.66-4.76-2.34 0-4.38 3.52-4.48 6.12a11.89 11.89 0 0 0 .1 2.1l-2.46.16a25.62 25.62 0 0 1 -.24-3.3 48 48 0 0 1 .56-6.34c.1-.72.14-1.52.16-2.08z"/><path d="m242.32 218.74a37.54 37.54 0 0 0 -4.3-4.42l2.08-1.8a37.49 37.49 0 0 1 4.36 4.38z"/><path d="m16.52 252.68a15.81 15.81 0 0 0 -.82 1.78 28.52 28.52 0 0 1 -2.7 5.44 51.77 51.77 0 0 1 4.76 4.4l-2.06 2.3a39.91 39.91 0 0 0 -4.42-4.4 25 25 0 0 1 -7.44 6.18l-2.3-2.06a21.82 21.82 0 0 0 7.6-5.9 51.87 51.87 0 0 0 -5.36-3.78l1.72-2.06c1.6 1 3.66 2.4 5.28 3.6a21.8 21.8 0 0 0 2.2-4.74 14.63 14.63 0 0 0 .48-1.84z"/><path d="m36.88 257.5a15.13 15.13 0 0 0 1.82-.12v2.62c-.5 0-1.26-.06-1.82-.06h-4.82a12.69 12.69 0 0 1 -1.28 5.14 9.6 9.6 0 0 1 -4 3.84l-2.34-1.7a8.17 8.17 0 0 0 3.56-2.88 8.59 8.59 0 0 0 1.24-4.42h-5.5c-.58 0-1.36 0-1.92.08v-2.62a15.23 15.23 0 0 0 1.92.12zm-10.56-2.72c-.68 0-1.54 0-2.14.06v-2.58a15 15 0 0 0 2.14.16h6.54a15.7 15.7 0 0 0 2.16-.16v2.58c-.68 0-1.46-.06-2.16-.06zm9.88-.46a27.49 27.49 0 0 0 -1.58-2.78l1.6-.66c.5.74 1.2 2 1.58 2.74zm2.4-.92a23.6 23.6 0 0 0 -1.6-2.76l1.58-.66a26.61 26.61 0 0 1 1.6 2.72z"/><path d="m56.7 256.68a25 25 0 0 1 -4.5 3.62v6.7a11.14 11.14 0 0 0 .14 2.16h-3a20.91 20.91 0 0 0 .1-2.16v-5.14a37.47 37.47 0 0 1 -5.6 2.14l-1.34-2.32a26.71 26.71 0 0 0 7.06-2.7 19.91 19.91 0 0 0 5.14-4.16z"/><path d="m78.72 253.82a10.07 10.07 0 0 0 -.78 1 20.12 20.12 0 0 1 -4.82 5.48l-2.06-1.66a11.89 11.89 0 0 0 3.68-3.64h-10.42c-.84 0-1.5.06-2.44.14v-2.78a15.86 15.86 0 0 0 2.44.2h10.78a10 10 0 0 0 2-.18zm-8.16 2.7c0 5-.1 9-5.56 12l-2.32-1.9a7.9 7.9 0 0 0 2.1-1.1c2.54-1.76 3-3.88 3-7.16a11.09 11.09 0 0 0 -.14-1.8z"/><path d="m98.72 253.82a10.07 10.07 0 0 0 -.78 1 20.12 20.12 0 0 1 -4.82 5.48l-2.06-1.66a11.89 11.89 0 0 0 3.68-3.64h-10.42c-.84 0-1.5.06-2.44.14v-2.78a15.86 15.86 0 0 0 2.44.2h10.78a10 10 0 0 0 2-.18zm-8.16 2.7c0 5-.1 9-5.56 12l-2.32-1.9a7.9 7.9 0 0 0 2.1-1.1c2.54-1.76 3-3.88 3-7.16a11.09 11.09 0 0 0 -.14-1.8z"/><path d="m101.46 258.1c.72.06 2.18.12 3.22.12h10.74c.92 0 1.82-.08 2.34-.12v3.14c-.48 0-1.5-.1-2.34-.1h-10.74c-1.14 0-2.48 0-3.22.1z"/><path d="m136.34 257.26a15.39 15.39 0 0 0 1.82-.12v2.6c-.5 0-1.26-.06-1.82-.06h-4.82a12.69 12.69 0 0 1 -1.28 5.14 9.6 9.6 0 0 1 -4 3.84l-2.34-1.7a8.31 8.31 0 0 0 3.62-2.86 8.59 8.59 0 0 0 1.24-4.42h-5.5c-.58 0-1.36 0-1.92.08v-2.62c.6.06 1.3.12 1.92.12zm-10.54-2.74c-.7 0-1.54 0-2.14.08v-2.6a14.9 14.9 0 0 0 2.12.14h8a15.67 15.67 0 0 0 2.22-.14v2.58c-.7 0-1.46-.08-2.16-.08z"/><path d="m155.1 256.68a25 25 0 0 1 -4.5 3.62v6.7a11.14 11.14 0 0 0 .14 2.16h-3a20.91 20.91 0 0 0 .1-2.16v-5.14a37.47 37.47 0 0 1 -5.64 2.18l-1.34-2.32a26.71 26.71 0 0 0 7.14-2.72 19.91 19.91 0 0 0 5.14-4.16z"/><path d="m173.9 253.8a9.45 9.45 0 0 0 -.7 1.24 29.4 29.4 0 0 1 -3.14 5.5 56.22 56.22 0 0 1 5.58 5.72l-2.28 2a45.61 45.61 0 0 0 -5-5.66 26.34 26.34 0 0 1 -7.52 5.62l-2.1-2.22a22.66 22.66 0 0 0 8.2-5.74 15.5 15.5 0 0 0 3-4.9h-6.78c-.84 0-1.94.12-2.36.14v-2.8a22.34 22.34 0 0 0 2.36.14h7a7.22 7.22 0 0 0 2.08-.26z"/><path d="m192.66 262.76a57.77 57.77 0 0 0 -7.22-3v5.66c0 .58.1 2 .18 2.78h-3.12a21.4 21.4 0 0 0 .2-2.78v-11.42a14 14 0 0 0 -.2-2.42h3.12a21.75 21.75 0 0 0 -.18 2.42v2.94a65.32 65.32 0 0 1 8.36 3.1z"/><path d="m213.52 257.9c.42 0 1.38-.08 1.82-.12v2.58c-.54 0-1.22-.08-1.76-.08h-5.18a10 10 0 0 1 -5.12 8.22l-2.54-1.72a7.92 7.92 0 0 0 5-6.5h-5.5c-.62 0-1.36 0-1.88.08v-2.58a17.41 17.41 0 0 0 1.84.12h5.64v-2.84c-1.92.16-4 .22-5.36.26l-.62-2.32a47.2 47.2 0 0 0 6.82-.32 21.68 21.68 0 0 0 5-1.2l1.64 2.2-1.54.38a32.29 32.29 0 0 1 -3.36.66v3.18z"/><path d="m218.66 258.1c.72.06 2.18.12 3.22.12h10.74c.92 0 1.82-.08 2.34-.12v3.14c-.48 0-1.5-.1-2.34-.1h-10.74c-1.14 0-2.48 0-3.22.1z"/><path d="m254 268.26c-.26-.68-.58-1.5-.94-2.36-3.26.38-9.32 1-11.84 1.28l-1.88.24-.46-2.92h2.2.54c1.16-3 2.88-8.44 3.46-10.52a14.84 14.84 0 0 0 .48-2.3l3.18.64a22.75 22.75 0 0 0 -.86 2.22c-.64 2-2.26 7-3.26 9.72 2.44-.24 5.28-.56 7.3-.8a24.17 24.17 0 0 0 -2.1-3.66l2.5-1a61.51 61.51 0 0 1 4.38 8.32z"/><path d="m260.22 253.58 8.56-.76c2-.16 4.2-.28 5.6-.34v2.56a20.45 20.45 0 0 0 -3.82.26 6 6 0 0 0 -4.18 5.54c0 3.26 3 4.44 6.4 4.6l-.92 2.74c-4.16-.26-8.08-2.5-8.08-6.8a7.85 7.85 0 0 1 2.92-6.1c-1.72.18-5.88.62-8.18 1.12l-.26-2.72c.82-.02 1.58-.06 1.96-.1zm13 6.1-1.52.68a15.43 15.43 0 0 0 -1.56-2.78l1.48-.62a26.21 26.21 0 0 1 1.6 2.72zm2.32-1-1.5.72a17.59 17.59 0 0 0 -1.64-2.7l1.46-.68a29.92 29.92 0 0 1 1.68 2.68z"/><path d="m291.36 256.4c-.1.22-.24.64-.36 1a5.11 5.11 0 0 1 3.82 4.86c0 2.78-1.66 5.52-6.52 6.24l-1.3-2.06c3.82-.42 5.38-2.34 5.38-4.28a3 3 0 0 0 -2-2.78 15.4 15.4 0 0 1 -4.18 6c.14.52.3 1 .46 1.48l-2.28.68c-.08-.24-.18-.52-.26-.8a7 7 0 0 1 -3.06.8 2.57 2.57 0 0 1 -2.68-2.9c0-2.52 2.1-5.2 4.86-6.5.06-.84.12-1.68.2-2.48h-.64c-1 0-2.58-.08-3.5-.12l-.08-2.3a32.52 32.52 0 0 0 3.66.26h.76l.12-1.06a7.91 7.91 0 0 0 .06-1.18l2.6.06a7.69 7.69 0 0 0 -.28 1.06c-.08.32-.14.68-.2 1.06a33 33 0 0 0 6.72-.84v2.28a57.55 57.55 0 0 1 -7 .72c-.06.58-.12 1.18-.14 1.78a13.32 13.32 0 0 1 3-.36h.34a11.46 11.46 0 0 0 .18-1.18zm-7.8 8.08a27.61 27.61 0 0 1 -.42-4 5.18 5.18 0 0 0 -2.48 3.64c0 .62.28 1 .92 1a4.21 4.21 0 0 0 1.98-.64zm1.8-5a23.09 23.09 0 0 0 .22 3.28 11.32 11.32 0 0 0 2.5-3.76 9.67 9.67 0 0 0 -2.72.44z"/><path d="m303.28 251.36a32.34 32.34 0 0 0 -.8 4.1c.94-1.52 2.66-3.2 4.9-3.2 2.76 0 4.9 2.7 4.9 7.06 0 5.6-3.44 8.28-8.68 9.24l-1.5-2.3c4.4-.68 7.48-2.12 7.48-6.92 0-3.06-1-4.76-2.66-4.76-2.34 0-4.38 3.52-4.48 6.12a11.89 11.89 0 0 0 .1 2.1l-2.46.16a25.62 25.62 0 0 1 -.24-3.3 48 48 0 0 1 .56-6.34c.1-.72.14-1.52.16-2.08z"/><path d="m321.12 268.74a37.54 37.54 0 0 0 -4.3-4.42l2.08-1.8a37.49 37.49 0 0 1 4.36 4.38z"/><path d="m6.54 313.8h-3.54v1.64h-2v-13.06h5.54zm-3.54-9.22v7h1.42v-7zm15.8 7.68h-4.74v4.12c0 1.26-.28 1.88-1.08 2.24a8.34 8.34 0 0 1 -3.56.44 9.7 9.7 0 0 0 -.84-2.3c1.1.06 2.26.06 2.62 0s.48-.1.48-.44v-4.1h-4.54v-2.22h4.54v-6.28c-1.4.16-2.78.26-4.08.34a7.64 7.64 0 0 0 -.64-2 53.74 53.74 0 0 0 9.82-1.44l1.6 1.94a34.37 34.37 0 0 1 -4.32.86v6.58h4.78zm-9.52-7.7a15.3 15.3 0 0 1 1.5 4.4l-2.1.72a14.8 14.8 0 0 0 -1.34-4.46zm5.24 4.52a29.74 29.74 0 0 0 1.68-4.82l2.32.64a46.63 46.63 0 0 1 -2.12 4.76z"/><path d="m26 302.2a17 17 0 0 0 -.5 1.8 52.38 52.38 0 0 0 -.94 7.66 9.56 9.56 0 0 0 .08 1.28c.26-.7.6-1.38.88-2l1.24 1c-.56 1.64-1.2 3.64-1.44 4.72a5.58 5.58 0 0 0 -.1.92v.84l-2.22.14a22.67 22.67 0 0 1 -.8-6.3 61.89 61.89 0 0 1 .82-8.26 19.26 19.26 0 0 0 .2-1.94zm12.54 5.14c-.94.14-2 .24-3.08.32 0 1.9.14 3.5.22 4.84a13 13 0 0 1 3.84 2.56l-1.34 2.1a22 22 0 0 0 -2.42-2c-.12 1.88-1.2 3.24-3.88 3.24s-4.42-1.16-4.42-3.24 1.68-3.42 4.4-3.42a8.8 8.8 0 0 1 1.28.08c-.06-1.22-.12-2.64-.14-4h-1.4c-1.16 0-2.3 0-3.46-.12v-2.38a32.94 32.94 0 0 0 3.48.18h1.38c0-1 0-1.76 0-2.18a7.8 7.8 0 0 0 -.14-1.3h2.84a12.25 12.25 0 0 0 -.12 1.26c0 .44-.06 1.18-.06 2.06a26.66 26.66 0 0 0 3.06-.46zm-5.3 6.58a6 6 0 0 0 -1.58-.22c-1.12 0-1.9.48-1.9 1.2s.8 1.16 1.86 1.16 1.62-.62 1.62-1.8zm3.76-9.58a20.87 20.87 0 0 0 -1-2.78l1.36-.42a23.08 23.08 0 0 1 1.06 2.72zm2.12-.68a25.16 25.16 0 0 0 -1.12-2.74l1.36-.42a27.67 27.67 0 0 1 1.1 2.72z"/><path d="m61 316.22a5.24 5.24 0 0 1 -3.72 1.5c-1.48 0-2.48-1.1-2.48-3 0-2.16.7-5.06.7-6.86 0-1-.5-1.46-1.32-1.46-1.48 0-3.64 1.82-5.24 3.6v1.6c0 1.62 0 3.28.12 5.14 0 .36.1 1.08.14 1.52h-2.74c0-.42.06-1.14.06-1.46 0-1.54 0-2.68.08-4.36-.86 1.26-1.82 2.72-2.5 3.66l-1.56-2.2c1.12-1.36 3.12-4 4.24-5.66l.08-1.38-3.6.46-.26-2.54a16.84 16.84 0 0 0 1.72 0c.58 0 1.44-.14 2.28-.26 0-.74.08-1.3.08-1.52a10.56 10.56 0 0 0 -.08-1.76l2.9.08c-.12.56-.28 1.58-.44 2.82l.74.94c-.26.34-.68 1-1 1.5a3 3 0 0 1 0 .42c1.52-1.38 3.8-3 5.72-3a2.78 2.78 0 0 1 3.08 3c0 2.06-.66 5-.66 7 0 .52.26.86.76.86a4 4 0 0 0 2.54-1.4z"/><path d="m71.76 305.88c-.06.86-.12 1.74-.22 2.6h7.72a9.73 9.73 0 0 1 -.08 1c-.36 5.44-.78 7.68-1.58 8.56a3 3 0 0 1 -2.16.92 27.39 27.39 0 0 1 -3.44.04 5.53 5.53 0 0 0 -.84-2.34c1.38.14 2.78.14 3.36.14a1.28 1.28 0 0 0 1-.26c.52-.44.88-2.18 1.16-5.82h-5.5a11.74 11.74 0 0 1 -6.42 8.52 7.6 7.6 0 0 0 -1.68-2c5.4-2.5 5.86-7.06 6.08-11.34h-5.74v-2.3h7.66v-3.26h2.46v3.26h7.9v2.28z"/><path d="m88.54 302a16.65 16.65 0 0 0 -.48 1.76 52.38 52.38 0 0 0 -.94 7.66 9.17 9.17 0 0 0 .08 1.28c.26-.7.58-1.36.88-2l1.22 1a47.25 47.25 0 0 0 -1.42 4.72 3.91 3.91 0 0 0 -.1.92v.82l-2.24.16a23.89 23.89 0 0 1 -.78-6.32 58.7 58.7 0 0 1 .82-8.26 14.86 14.86 0 0 0 .18-1.94zm12.16 14.94a20.2 20.2 0 0 0 -2.4-2c-.12 1.88-1.2 3.24-3.88 3.24s-4.42-1.18-4.42-3.24 1.7-3.4 4.4-3.4a8.9 8.9 0 0 1 1.3.08c-.06-1.22-.12-2.66-.14-4.06-.48 0-1 0-1.42 0-1.16 0-2.28 0-3.46-.12v-2.34a32.84 32.84 0 0 0 3.46.18h1.4c0-1 0-1.78 0-2.2a11.21 11.21 0 0 0 -.12-1.3h2.78a12.65 12.65 0 0 0 -.12 1.28c0 .44-.06 1.18-.06 2.06 1.08-.12 2.12-.26 3.06-.46v2.46c-1 .14-2 .26-3.08.34 0 1.92.14 3.5.22 4.84a12.57 12.57 0 0 1 3.82 2.56zm-4.92-3.22a6.17 6.17 0 0 0 -1.6-.22c-1.12 0-1.88.46-1.88 1.2s.8 1.16 1.84 1.16c1.22 0 1.64-.64 1.64-1.8z"/><path d="m113.74 309.94s0 .58 0 .86c-.2 4.82-.4 6.74-1 7.42a2.09 2.09 0 0 1 -1.5.74 14.76 14.76 0 0 1 -2.42.06 4.88 4.88 0 0 0 -.6-2.06 16.11 16.11 0 0 0 2 .1.72.72 0 0 0 .66-.26c.3-.34.48-1.62.62-4.78h-2.22a11.35 11.35 0 0 1 -3.52 7.1 6.25 6.25 0 0 0 -1.58-1.74c2.62-2.16 3-5.76 3.18-9.08h-2v-7h8.22v7h-3.9l-.12 1.64zm-6.24-3.76h3.76v-2.74h-3.76zm9.88 7.92h-2.32v-11.26h2.32zm4.74-13.28v15.4c0 1.4-.28 2.06-1.1 2.44a10.62 10.62 0 0 1 -4 .46 8.69 8.69 0 0 0 -.82-2.46h3s.54-.12.54-.48v-15.4z"/><path d="m131.14 302.1a16.65 16.65 0 0 0 -.48 1.76 49 49 0 0 0 -1 7.26 9.56 9.56 0 0 0 .08 1.28c.28-.7.6-1.36.88-2l1.24 1a47.75 47.75 0 0 0 -1.42 4.86 5.82 5.82 0 0 0 -.12.92v.82l-2.28.16a25.28 25.28 0 0 1 -.78-6.48 54.92 54.92 0 0 1 .82-7.84 14.8 14.8 0 0 0 .2-1.94zm4.64 9.78a6.52 6.52 0 0 0 -.24 1.66c0 .88.76 1.4 2.76 1.4a22.83 22.83 0 0 0 5-.52l.06 2.68a27.53 27.53 0 0 1 -5.12.4c-3.42 0-5-1.24-5-3.26a12.21 12.21 0 0 1 .34-2.58zm6.92-8.48v2.6a54.82 54.82 0 0 1 -8.5 0v-2.56a40.41 40.41 0 0 0 8.5-.04z"/><path d="m150.32 318.74a37.54 37.54 0 0 0 -4.3-4.42l2.08-1.8a37.49 37.49 0 0 1 4.36 4.38z"/><path d="m171.9 305.7a29 29 0 0 1 -3.44.68 36.56 36.56 0 0 1 -4.24 8.48l-2.42-1.22a30.22 30.22 0 0 0 4-7c-.34 0-.68 0-1 0-.82 0-1.62 0-2.48-.06l-.18-2.32a25.18 25.18 0 0 0 2.64.14c.58 0 1.18 0 1.78-.06a16.86 16.86 0 0 0 .54-3.32l2.74.28c-.16.64-.4 1.64-.68 2.7a20.92 20.92 0 0 0 2.66-.62zm2.6 1.78c-.06.84 0 1.66 0 2.54 0 .56.06 1.52.12 2.5a13.19 13.19 0 0 1 4.1 2.54l-1.32 2.12a17.63 17.63 0 0 0 -2.68-2.1v.18c0 1.84-1 3.28-3.82 3.28-2.46 0-4.4-1.1-4.4-3.28 0-1.94 1.62-3.44 4.38-3.44.46 0 .92 0 1.34.08-.06-1.48-.16-3.22-.22-4.42zm-2.18 6.52a7 7 0 0 0 -1.6-.2c-1.14 0-1.88.48-1.88 1.18s.62 1.24 1.7 1.24c1.34 0 1.78-.78 1.78-1.84zm5.58-5.5a26.41 26.41 0 0 0 -4.76-2.82l1.28-2a35.64 35.64 0 0 1 4.88 2.68z"/><path d="m191.84 303.24c-1 1.42-2.48 4.18-3.46 5.92a4.51 4.51 0 0 1 2.26-.6 2.39 2.39 0 0 1 2.46 2.6c0 .88 0 2.48.1 3.3a1.12 1.12 0 0 0 1.26 1.08c1.7 0 2.78-2.22 3.34-4.68l2.14 1.74c-1 3.42-2.86 5.66-5.92 5.66a2.94 2.94 0 0 1 -3.28-2.76c-.08-1.06-.06-2.68-.12-3.48a1.07 1.07 0 0 0 -1.16-1.1c-1.36 0-2.46 1.36-3.16 3a38.22 38.22 0 0 0 -1.5 4.4l-2.8-.94c1.46-4 5.64-12.28 6.68-14.16.26-.54.62-1.18 1-2l2.82 1.14c-.22.2-.44.56-.66.88z"/><path d="m203 303.58 8.56-.76c2-.16 4.2-.28 5.6-.34v2.56a20.45 20.45 0 0 0 -3.82.26 6 6 0 0 0 -4.18 5.54c0 3.26 3 4.44 6.4 4.6l-.92 2.74c-4.16-.26-8.08-2.5-8.08-6.8a7.85 7.85 0 0 1 2.92-6.1c-1.72.18-5.88.62-8.18 1.12l-.26-2.72c.84-.02 1.6-.06 1.96-.1zm13 6.1-1.52.68a15.43 15.43 0 0 0 -1.56-2.78l1.48-.62a26.21 26.21 0 0 1 1.6 2.72zm2.32-1-1.5.72a17.59 17.59 0 0 0 -1.64-2.7l1.46-.68a29.92 29.92 0 0 1 1.7 2.68z"/><path d="m235.86 308.58a7.37 7.37 0 0 1 1.92 4.76c0 3-2.68 5.14-7 5.14-3.12 0-5.32-1.36-5.32-4.66 0-.48.06-1.18.14-2a22.21 22.21 0 0 1 -3.8-.66l.14-2.4a16.86 16.86 0 0 0 3.9.78c.12-.88.22-1.8.34-2.7a24.76 24.76 0 0 1 -3.94-.7l.14-2.3a18.36 18.36 0 0 0 4.06.74c.08-.6.12-1.14.16-1.58a12.47 12.47 0 0 0 0-1.76l2.78.16c-.16.72-.26 1.24-.34 1.76-.06.34-.12.86-.22 1.5a29.07 29.07 0 0 0 3.64-.24l-.08 2.36a35.49 35.49 0 0 1 -3.86.18c-.12.88-.24 1.82-.34 2.7h.14a39.29 39.29 0 0 0 4-.24l-.06 2.36c-1.12.1-2.28.18-3.5.18h-.76c0 .58-.08 1.08-.08 1.44 0 1.62 1 2.52 3 2.52 2.76 0 4.28-1.26 4.28-2.9a5.5 5.5 0 0 0 -2-3.84z"/><path d="m245 305.52c0 1.28 0 2.78.12 4.2.28 2.86.88 4.8 2.12 4.8.94 0 1.72-2.32 2.1-3.88l2 2.4c-1.32 3.44-2.56 4.66-4.16 4.66-2.16 0-4.06-2-4.62-7.28-.18-1.82-.22-4.12-.22-5.34a11.48 11.48 0 0 0 -.14-2h3a15.69 15.69 0 0 0 -.2 2.44zm13.76 8.14-2.62 1c-.3-3.18-1.36-7.84-3.52-10.28l2.52-.84c1.86 2.3 3.42 7.08 3.64 10.12z"/><path d="m265.82 305.52c0 1.28 0 2.78.12 4.2.28 2.86.88 4.8 2.12 4.8.94 0 1.72-2.32 2.1-3.88l2 2.4c-1.32 3.44-2.56 4.66-4.16 4.66-2.16 0-4.06-2-4.62-7.28-.18-1.82-.22-4.12-.22-5.34a11.48 11.48 0 0 0 -.14-2h3a15.69 15.69 0 0 0 -.2 2.44zm13.76 8.14-2.62 1c-.3-3.18-1.36-7.84-3.52-10.28l2.52-.84c1.88 2.3 3.4 7.08 3.62 10.12z"/><path d="m291.84 303.24c-1 1.42-2.48 4.18-3.46 5.92a4.51 4.51 0 0 1 2.26-.6 2.39 2.39 0 0 1 2.46 2.6c0 .88 0 2.48.1 3.3a1.12 1.12 0 0 0 1.26 1.08c1.7 0 2.78-2.22 3.34-4.68l2.14 1.74c-1 3.42-2.86 5.66-5.92 5.66a2.94 2.94 0 0 1 -3.28-2.76c-.08-1.06-.06-2.68-.12-3.48a1.07 1.07 0 0 0 -1.16-1.1c-1.36 0-2.46 1.36-3.16 3a38.22 38.22 0 0 0 -1.5 4.4l-2.8-.94c1.46-4 5.64-12.28 6.68-14.16.26-.54.62-1.18 1-2l2.82 1.14c-.22.2-.44.56-.66.88z"/><path d="m304.22 303.58 8.56-.76c2-.16 4.2-.28 5.6-.34v2.56a20.45 20.45 0 0 0 -3.82.26 6 6 0 0 0 -4.18 5.54c0 3.26 3 4.44 6.4 4.6l-.92 2.74c-4.16-.26-8.08-2.5-8.08-6.8a7.85 7.85 0 0 1 2.92-6.1c-1.72.18-5.88.62-8.18 1.12l-.26-2.72c.82-.02 1.58-.06 1.96-.1zm13 6.1-1.52.68a15.43 15.43 0 0 0 -1.56-2.78l1.48-.62a26.21 26.21 0 0 1 1.6 2.72zm2.32-1-1.5.72a17.59 17.59 0 0 0 -1.64-2.7l1.46-.68a29.92 29.92 0 0 1 1.68 2.68z"/><path d="m339.42 305.94c-1.2-.06-3.06-.1-5.74-.1v2.94a4.88 4.88 0 0 1 .74 2.74c0 2.58-1.52 5.86-6.36 7.22l-2.1-2.12a9.05 9.05 0 0 0 4.84-2.26 4.28 4.28 0 0 1 -.9.1 3.49 3.49 0 0 1 -3.42-3.64 3.73 3.73 0 0 1 4-3.7 4.75 4.75 0 0 1 .78.06v-1.32c-3 0-6.06.16-8.5.3l-.06-2.4c2.26 0 5.86-.1 8.52-.14a5.08 5.08 0 0 0 0-.6 13.4 13.4 0 0 0 -.18-1.72h2.88c-.06.32-.12 1.38-.14 1.7v.6h5.74zm-9 6.32c.82 0 1.56-.62 1.3-2.34a1.41 1.41 0 0 0 -1.3-.7 1.52 1.52 0 1 0 0 3z"/><path d="m347.92 315.64a3.23 3.23 0 1 1 -3.24-3.24 3.24 3.24 0 0 1 3.24 3.24zm-1.44 0a1.79 1.79 0 1 0 -1.8 1.78 1.79 1.79 0 0 0 1.8-1.78z"/><path d="m11.46 408.24c1.32 3.9 3.74 7 7.48 8.56a9.57 9.57 0 0 0 -1.76 2.2c-3.62-1.7-5.94-4.62-7.5-8.48a13.77 13.77 0 0 1 -7.48 8.5 7 7 0 0 0 -1.78-2 12 12 0 0 0 7.26-8.8h-6.88v-2.46h7.28c.2-1.88.18-3.7.2-5.34h2.6c0 1.64 0 3.48-.24 5.34h7.86v2.46z"/><path d="m39.26 413.54h-2.08v3.46h-2.42v-.82h-3.6v.62c0 1.18-.28 1.66-1.06 2a10.53 10.53 0 0 1 -3.54.34 7.33 7.33 0 0 0 -.78-1.88h2.46s.5-.14.5-.5v-.62h-6.08v-1.72h6.08v-.94h-7.92v-1.82h7.92v-.86h-5.92v-1.6h5.92v-.88h-5.42v-4h5.42v-.82h-7.46v-1.88h7.46v-1.3h2.42v1.3h7.64v1.88h-7.64v.82h5.68v4h-5.68v.88h6v2.46h2.08zm-10.52-6.66v-1h-3.14v1zm2.42-1v1h3.24v-1zm0 5.8h3.6v-.86h-3.6zm3.6 1.82h-3.6v.94h3.6z"/><path d="m52.3 405.7a29 29 0 0 1 -3.44.68 36.56 36.56 0 0 1 -4.24 8.48l-2.42-1.22a30.22 30.22 0 0 0 4-7c-.34 0-.68 0-1 0-.82 0-1.62 0-2.48-.06l-.18-2.32a25.18 25.18 0 0 0 2.64.14c.58 0 1.18 0 1.78-.06a16.86 16.86 0 0 0 .54-3.32l2.74.28c-.16.64-.4 1.64-.68 2.7a20.92 20.92 0 0 0 2.66-.62zm2.6 1.78c-.06.84 0 1.66 0 2.54 0 .56.06 1.52.12 2.5a13.19 13.19 0 0 1 4.1 2.54l-1.32 2.12a17.63 17.63 0 0 0 -2.68-2.1v.18c0 1.84-1 3.28-3.82 3.28-2.46 0-4.4-1.1-4.4-3.28 0-1.94 1.62-3.44 4.38-3.44.46 0 .92 0 1.34.08-.06-1.48-.16-3.22-.22-4.42zm-2.18 6.52a7 7 0 0 0 -1.6-.2c-1.14 0-1.88.48-1.88 1.18s.62 1.24 1.7 1.24c1.34 0 1.78-.78 1.78-1.84zm5.58-5.5a26.41 26.41 0 0 0 -4.76-2.82l1.28-2a35.64 35.64 0 0 1 4.88 2.68z"/><path d="m67.3 411.26a8.22 8.22 0 0 0 -.34 2c0 1.26 1.2 2.18 4.06 2.18a28.09 28.09 0 0 0 7-.78v2.78a30.24 30.24 0 0 1 -6.88.68c-4.54 0-6.82-1.52-6.82-4.24a12.74 12.74 0 0 1 .4-2.86zm-1.68-8.4a51.91 51.91 0 0 0 5.4.24c2 0 4.22-.12 5.74-.28v2.66c-1.38.1-3.84.24-5.72.24-2.08 0-3.8-.1-5.42-.22z"/><path d="m97.42 405.72c-.6.36-1.24.7-2 1.06a60.66 60.66 0 0 0 -5.52 2.94c-1.66 1.08-2.76 2.22-2.76 3.6s1.38 2.18 4.12 2.18a33.13 33.13 0 0 0 6.48-.72v2.86a38.74 38.74 0 0 1 -6.36.48c-3.94 0-6.92-1.1-6.92-4.5 0-2.2 1.38-3.82 3.28-5.22-.92-1.7-1.88-3.8-2.78-5.9l2.5-1a46.44 46.44 0 0 0 2.48 5.5c1.62-.94 3.34-1.82 4.28-2.34a13.68 13.68 0 0 0 1.82-1.2z"/><path d="m106.94 402a16.65 16.65 0 0 0 -.48 1.76 52.38 52.38 0 0 0 -.94 7.66 9.17 9.17 0 0 0 .08 1.28c.26-.7.58-1.36.88-2l1.22 1a47.25 47.25 0 0 0 -1.42 4.72 3.91 3.91 0 0 0 -.1.92v.82l-2.24.16a23.89 23.89 0 0 1 -.78-6.32 58.7 58.7 0 0 1 .82-8.26 14.86 14.86 0 0 0 .18-1.94zm12.16 14.94a20.2 20.2 0 0 0 -2.4-2c-.12 1.88-1.2 3.24-3.88 3.24s-4.44-1.16-4.44-3.24 1.7-3.4 4.4-3.4a8.9 8.9 0 0 1 1.3.08c-.06-1.22-.12-2.66-.14-4.06-.48 0-1 0-1.42 0-1.16 0-2.28 0-3.46-.12v-2.34a32.84 32.84 0 0 0 3.46.18h1.4c0-1 0-1.78 0-2.2a11.21 11.21 0 0 0 -.12-1.3h2.84a12.65 12.65 0 0 0 -.12 1.28c0 .44-.06 1.18-.06 2.06 1.08-.12 2.12-.26 3.06-.46v2.46c-1 .14-2 .26-3.08.34 0 1.92.14 3.5.22 4.84a12.57 12.57 0 0 1 3.82 2.56zm-4.92-3.22a6.17 6.17 0 0 0 -1.6-.22c-1.12 0-1.88.46-1.88 1.2s.8 1.16 1.84 1.16c1.22 0 1.64-.64 1.64-1.8z"/><path d="m127.52 418.74a37.54 37.54 0 0 0 -4.3-4.42l2.08-1.8a37.49 37.49 0 0 1 4.36 4.38z"/><path d="m1.5 467.28-1.5-2.16a21.38 21.38 0 0 0 5-3.88l1.5 2a26.13 26.13 0 0 1 -5 4.04zm3.84-1.86a10.79 10.79 0 0 0 3.06.48c1 0 1.7-.36 1.7-1.3 0-1.2-1.38-3-2.26-3.86a18.74 18.74 0 0 0 -1.84-1.56l2-1.64c.58.6 1.1 1.08 1.6 1.6 2.12 2.14 3.28 3.92 3.28 5.74 0 2.66-1.88 3.44-3.94 3.44a17.75 17.75 0 0 1 -3.22-.32zm3.36-9.12c.48-.32 1-.7 1.24-.92a20.36 20.36 0 0 0 -4-1.92l1.48-1.84a31.43 31.43 0 0 1 5.1 2.36l.6 1.56c-.54.44-2.06 1.66-2.84 2.22zm7.6 10.64a19.79 19.79 0 0 0 -3.12-6.52l2.16-1.14a25 25 0 0 1 3.36 6.38zm.52-10.44-1.6.7a27.77 27.77 0 0 0 -1.58-2.8l1.58-.64a27.77 27.77 0 0 1 1.6 2.74zm2.4-.92-1.6.68a21.07 21.07 0 0 0 -1.62-2.76l1.58-.64a28.56 28.56 0 0 1 1.64 2.72z"/><path d="m23.46 458.34c1.34-.4 4.7-1.54 7.1-1.54 3.12 0 5.22 1.86 5.22 4.86 0 3.58-3.14 6-9.44 6.42l-1-2.46c4.5-.12 7.86-1.3 7.86-4a2.55 2.55 0 0 0 -2.84-2.52c-2.3 0-6.24 1.64-7.94 2.36l-1-2.6a16.92 16.92 0 0 0 2.04-.52z"/><path d="m56.18 465.1a5.53 5.53 0 0 0 1.34 1.38c-.34 2.1-1.12 2.86-2.44 2.6-3.44-.46-4.22-4-4.48-8.12h-2.14v7.86h-2.32v-7.82h-2.32c-.14 2.78-.8 5.82-3.52 8.14a8.39 8.39 0 0 0 -1.76-1.6 8.7 8.7 0 0 0 3-6.54h-2.54v-2.2h2.62v-1.72c-.56.24-1.14.48-1.68.66a12.5 12.5 0 0 0 -1.34-1.82 14.29 14.29 0 0 0 5.1-2.22l2 .78a12 12 0 0 1 -2 1.48h.12v2.84h2.3v-4.8h2.32v4.8h4.26c0 1.08.06 2.18.18 3.2l.34-.34.4.2a13.86 13.86 0 0 0 1.48-2l2.05 1c-.79.7-1.51 1.38-2.09 1.84a14.26 14.26 0 0 1 2.16 1.3zm-.6-8.66a19.46 19.46 0 0 0 -2.76-1.92c.46 1.68 1.3 2.94 2.78 3.06.26 0 .42-.54.54-1.42a6.82 6.82 0 0 0 1.34 1.3c-.34 1.76-1.14 2.42-2.38 2.18-3.2-.4-4.24-3.06-4.68-6.2h-10.48v-2.12h12.42c0 .68.1 1.36.2 2l.64-.6a25.16 25.16 0 0 1 3.8 2.28zm.26 9a20 20 0 0 0 -2.7-1.84c.4 1.88 1.12 3.22 2.48 3.34.26 0 .42-.7.54-1.84zm1.3-13.62c-.8.72-1.52 1.42-2.12 1.88l-1.4-.78a13 13 0 0 0 1.48-2.06z"/><path d="m70.24 453.24c-1 1.42-2.48 4.18-3.46 5.92a4.51 4.51 0 0 1 2.26-.6 2.39 2.39 0 0 1 2.46 2.6c0 .88 0 2.48.1 3.3a1.12 1.12 0 0 0 1.26 1.08c1.7 0 2.78-2.22 3.34-4.68l2.14 1.74c-1 3.42-2.86 5.66-5.92 5.66a2.94 2.94 0 0 1 -3.28-2.76c-.08-1.06-.06-2.68-.12-3.48a1.07 1.07 0 0 0 -1.16-1.1c-1.36 0-2.46 1.36-3.16 3a38.22 38.22 0 0 0 -1.5 4.4l-2.8-.94c1.46-4 5.64-12.28 6.68-14.16.26-.54.62-1.18 1-2l2.82 1.14c-.22.2-.44.56-.66.88z"/><path d="m90.84 456.14a35.65 35.65 0 0 1 -3.84.66c-.18.84-.38 1.72-.6 2.54a64.74 64.74 0 0 1 -3.14 9.16l-2.78-.92a44.12 44.12 0 0 0 3.42-8.92c.14-.54.3-1.1.42-1.66-.46 0-.9 0-1.3 0-1 0-1.7 0-2.4-.08l-.06-2.46a19.19 19.19 0 0 0 2.5.14c.58 0 1.16 0 1.76-.06.08-.42.14-.82.18-1.12a10.43 10.43 0 0 0 .08-2l3 .24c-.14.56-.32 1.44-.42 1.88l-.16.74c1.12-.16 2.24-.38 3.32-.64zm-.4 6.5a7 7 0 0 0 -.28 1.66c0 .86.5 1.52 2.62 1.52a25 25 0 0 0 4.12-.4l-.1 2.58a31.69 31.69 0 0 1 -4 .28c-3.34 0-5-1.16-5-3.16a13.2 13.2 0 0 1 .34-2.64zm-1.16-5a37.31 37.31 0 0 1 3.8-.2 34.29 34.29 0 0 1 3.48.16l-.06 2.4a28.38 28.38 0 0 0 -3.4-.26 33 33 0 0 0 -3.82.22zm5.2-2a22.39 22.39 0 0 0 -1.56-2.78l1.58-.66a27.51 27.51 0 0 1 1.58 2.74zm2.38-4.34a23.67 23.67 0 0 1 1.62 2.7l-1.58.68a21.2 21.2 0 0 0 -1.62-2.76z"/><path d="m118.32 453.82a10.07 10.07 0 0 0 -.78 1 20.12 20.12 0 0 1 -4.82 5.48l-2.06-1.66a11.89 11.89 0 0 0 3.68-3.72h-10.42c-.84 0-1.5.06-2.44.14v-2.78a15.86 15.86 0 0 0 2.44.2h10.78a10 10 0 0 0 2-.18zm-8.16 2.7c0 5-.1 9-5.56 12l-2.32-1.9a7.9 7.9 0 0 0 2.1-1.1c2.54-1.76 3-3.88 3-7.16a11.09 11.09 0 0 0 -.14-1.8z"/><path d="m131.22 465.62a13.75 13.75 0 0 0 .18 2.62h-3.16a22.4 22.4 0 0 0 .14-2.62v-6.56a39.1 39.1 0 0 1 -6.88 2.72l-1.44-2.44a30.73 30.73 0 0 0 9.1-3.62 21.11 21.11 0 0 0 5.22-4.52l2.14 1.94a32.68 32.68 0 0 1 -5.3 4.3z"/><path d="m155.28 457.5a15.13 15.13 0 0 0 1.82-.12v2.62c-.5 0-1.26-.06-1.82-.06h-4.82a12.69 12.69 0 0 1 -1.28 5.14 9.6 9.6 0 0 1 -4 3.84l-2.34-1.7a8.17 8.17 0 0 0 3.62-2.86 8.59 8.59 0 0 0 1.24-4.42h-5.5c-.58 0-1.36 0-1.92.08v-2.62a15.23 15.23 0 0 0 1.92.12zm-10.56-2.72c-.68 0-1.54 0-2.14.06v-2.58a15 15 0 0 0 2.14.16h6.54a15.7 15.7 0 0 0 2.16-.16v2.58c-.68 0-1.46-.06-2.16-.06zm9.88-.46a27.49 27.49 0 0 0 -1.58-2.78l1.6-.66c.5.74 1.2 2 1.58 2.74zm2.4-.92a23.6 23.6 0 0 0 -1.6-2.76l1.6-.64a26.61 26.61 0 0 1 1.6 2.72z"/><path d="m178.72 453.82a10.07 10.07 0 0 0 -.78 1 20.12 20.12 0 0 1 -4.82 5.48l-2.06-1.66a11.89 11.89 0 0 0 3.68-3.72h-10.42c-.84 0-1.5.06-2.44.14v-2.78a15.86 15.86 0 0 0 2.44.2h10.78a10 10 0 0 0 2-.18zm-8.16 2.7c0 5-.1 9-5.56 12l-2.32-1.9a7.9 7.9 0 0 0 2.1-1.1c2.54-1.76 3-3.88 3-7.16a11.09 11.09 0 0 0 -.14-1.8z"/><path d="m190.9 464.48c0-.58.06-1.5.08-2.36-1.46.8-2.26 1.58-2.26 2.56s.94 1.4 2.88 1.4a30.29 30.29 0 0 0 5.62-.58l-.08 2.58a54.8 54.8 0 0 1 -5.6.32c-3.1 0-5.44-.74-5.44-3.3s2.4-4.12 4.66-5.28a1.55 1.55 0 0 0 -1.38-.68 4.9 4.9 0 0 0 -3.1 1.36 25.37 25.37 0 0 0 -1.84 2.18l-2.12-1.58a19.36 19.36 0 0 0 4.36-5.44h-.24c-.8 0-2.26 0-3.34-.14v-2.32a25.41 25.41 0 0 0 3.48.22h1a11 11 0 0 0 .4-2.26l2.6.22c-.1.48-.24 1.16-.48 2a45.74 45.74 0 0 0 5.6-.58v2.32a64.52 64.52 0 0 1 -6.46.52 12.1 12.1 0 0 1 -1.14 2 6.2 6.2 0 0 1 2.24-.4 2.7 2.7 0 0 1 2.64 1.54c1-.48 1.86-.82 2.68-1.18s1.46-.68 2.18-1l1 2.3a21 21 0 0 0 -2.36.84c-.88.34-2 .78-3.22 1.34 0 1.1.06 2.56.08 3.46z"/><path d="m212.7 458c-.86.66-1.76 1.28-2.68 1.86a44.37 44.37 0 0 0 5.9-1l1.46 1.56a51.1 51.1 0 0 1 -9 1.28l-.24 1h9.24a8.12 8.12 0 0 1 -.12 1c-.48 2.7-1 4.06-1.64 4.66a2.61 2.61 0 0 1 -1.92.7 24.57 24.57 0 0 1 -3 0 5 5 0 0 0 -.76-2.2c1.16.12 2.42.16 2.94.16a1.48 1.48 0 0 0 .88-.2 4.08 4.08 0 0 0 .9-2.2h-7l-.24.92-2.38-.34c.28-.84.58-1.92.86-3.06-1.08.52-2.18 1-3.28 1.44a15.32 15.32 0 0 0 -1.46-1.82 38.14 38.14 0 0 0 5.34-2.32l.1-.46.64.08c.62-.34 1.22-.7 1.8-1.06h-7v-2h6.14v-1.6h-4.6v-1.94h4.6v-2.06h2.36v2.06h4.2v1a26 26 0 0 0 2-2.28l1.92 1.06a29.46 29.46 0 0 1 -3.52 3.74h4.34v2zm-.8-2c.66-.52 1.3-1 1.9-1.6h-3.24v1.6z"/><path d="m234.18 458.5c-.9.78-2.76 2.48-3.22 3a2.06 2.06 0 0 1 .74.16 1.93 1.93 0 0 1 1.22 1.34c.18.54.36 1.3.54 1.8a1.26 1.26 0 0 0 1.4.92 20.53 20.53 0 0 0 3.88-.34l-.16 2.6a29 29 0 0 1 -3.88.28c-1.88 0-2.9-.4-3.38-1.7-.22-.58-.44-1.5-.58-2-.24-.7-.66-1-1.06-1a2.05 2.05 0 0 0 -1.28.8 49.46 49.46 0 0 0 -3.54 4l-2.36-1.64a15.13 15.13 0 0 0 1.38-1.22c1-1 5.06-5.06 6.88-7-1.4.06-3.76.26-4.9.36-.68.06-1.28.16-1.7.24l-.24-2.74c.46 0 1.18.06 1.9.06.94 0 5.44-.2 7.08-.42a6.36 6.36 0 0 0 1.12-.24l1.46 1.66c-.48.44-.94.8-1.3 1.08zm.6-6.34-.32 2.34c-2.08-.18-5.78-.6-8.14-1l.38-2.3a79.12 79.12 0 0 0 8.08.96z"/><path d="m245.72 459.92a9.71 9.71 0 0 1 5.82-1.88c3.48 0 5.5 2.14 5.5 4.54 0 3.62-2.86 6.4-11.1 5.68l-.76-2.6c5.94.84 9.08-.62 9.08-3.14 0-1.28-1.22-2.22-3-2.22a6.94 6.94 0 0 0 -5.46 2.32 4.29 4.29 0 0 0 -.74 1.16l-2.3-.58a72.12 72.12 0 0 0 1-8.26l2.68.36c-.24 1.1-.58 3.48-.72 4.62zm.62-8.6a62.7 62.7 0 0 0 7.92 1.54l-.6 2.44c-2-.26-6.42-1.18-8-1.58z"/><path d="m279.42 466.22a5.24 5.24 0 0 1 -3.72 1.5c-1.48 0-2.48-1.1-2.48-3 0-2.16.7-5.06.7-6.86 0-1-.5-1.46-1.32-1.46-1.48 0-3.64 1.82-5.24 3.6v1.6c0 1.62 0 3.28.12 5.14 0 .36.1 1.08.14 1.52h-2.72c0-.42.06-1.14.06-1.46 0-1.54 0-2.68.08-4.36-.86 1.26-1.82 2.72-2.5 3.66l-1.56-2.2c1.12-1.36 3.12-4 4.24-5.66l.08-1.38-3.6.46-.24-2.54a16.84 16.84 0 0 0 1.72 0c.58 0 1.44-.14 2.28-.26 0-.74.08-1.3.08-1.52a10.56 10.56 0 0 0 -.08-1.76l2.9.08c-.12.56-.28 1.58-.44 2.82l.74.94c-.26.34-.68 1-1 1.5a3 3 0 0 1 0 .42c1.56-1.36 3.84-2.94 5.76-2.94a2.78 2.78 0 0 1 3.12 2.92c0 2.06-.66 5-.66 7 0 .52.26.86.76.86a4 4 0 0 0 2.54-1.4z"/><path d="m283.48 453.54c1.64-.16 4.92-.44 8.54-.76 2-.16 4.22-.28 5.6-.34v2.56a20.45 20.45 0 0 0 -3.82.26 6 6 0 0 0 -4.18 5.54c0 3.26 3.06 4.42 6.4 4.6l-.92 2.74c-4.16-.28-8.08-2.52-8.08-6.8a7.92 7.92 0 0 1 2.92-6.1c-1.7.18-5.88.62-8.18 1.12l-.24-2.72c.8-.02 1.56-.06 1.96-.1z"/><path d="m305.12 468.74a37.54 37.54 0 0 0 -4.3-4.42l2.08-1.8a37.49 37.49 0 0 1 4.36 4.38z"/><path d="m6.46 502.18c.84 0 4.56-.18 5.76-.32a7.77 7.77 0 0 0 1.38-.24l1.56 1.82c-.4.28-1.14.76-1.54 1.1-1.42 1.12-3.38 2.76-4.72 3.82 2.66-.28 5.92-.48 8.34-.48v2.34a29.87 29.87 0 0 0 -5.08 0c-1.82.26-3.34 1.54-3.34 3.16s1.22 2.16 3 2.38a17.25 17.25 0 0 0 3 0l-.52 2.6c-5.08.22-8-1.3-8-4.6a4.63 4.63 0 0 1 1.44-3.12c-1.8.14-4 .44-6 .78l-.24-2.4c1.06-.1 2.44-.28 3.46-.4a56.11 56.11 0 0 0 5.58-4.5c-.8.06-3.24.18-4 .26-.5 0-1.16.12-1.78.18l-.12-2.54c.56.14 1.14.16 1.82.16z"/><path d="m39.82 516.22a5.24 5.24 0 0 1 -3.72 1.5c-1.48 0-2.48-1.1-2.48-3 0-2.16.7-5.06.7-6.86 0-1-.5-1.46-1.32-1.46-1.48 0-3.64 1.82-5.24 3.6v1.6c0 1.62 0 3.28.12 5.14 0 .36.1 1.08.14 1.52h-2.76c0-.42.06-1.14.06-1.46 0-1.54 0-2.68.08-4.36-.86 1.26-1.82 2.72-2.5 3.66l-1.56-2.2c1.12-1.36 3.12-4 4.24-5.66l.08-1.38-3.6.46-.24-2.54a16.84 16.84 0 0 0 1.72 0c.58 0 1.44-.14 2.28-.26 0-.74.08-1.3.08-1.52a10.56 10.56 0 0 0 -.08-1.76l2.9.08c-.12.56-.28 1.58-.44 2.82l.74.94c-.26.34-.68 1-1 1.5a3 3 0 0 1 0 .42c1.56-1.36 3.84-2.94 5.76-2.94a2.78 2.78 0 0 1 3.06 2.94c0 2.06-.66 5-.66 7 0 .52.26.86.76.86a4 4 0 0 0 2.54-1.4z"/><path d="m50.5 514.48c0-.58.06-1.5.08-2.36-1.46.8-2.26 1.58-2.26 2.56s.94 1.4 2.88 1.4a30.29 30.29 0 0 0 5.62-.58l-.08 2.58a54.8 54.8 0 0 1 -5.6.32c-3.1 0-5.44-.74-5.44-3.3s2.4-4.12 4.66-5.28a1.55 1.55 0 0 0 -1.38-.68 4.9 4.9 0 0 0 -3.1 1.36 25.37 25.37 0 0 0 -1.88 2.18l-2.12-1.58a19.36 19.36 0 0 0 4.36-5.44h-.24c-.8 0-2.26 0-3.34-.14v-2.32a25.41 25.41 0 0 0 3.48.22h1a11 11 0 0 0 .4-2.26l2.6.22c-.1.48-.24 1.16-.48 2a45.74 45.74 0 0 0 5.6-.58v2.32a64.52 64.52 0 0 1 -6.46.52 12.1 12.1 0 0 1 -1.14 2 6.2 6.2 0 0 1 2.24-.4 2.7 2.7 0 0 1 2.64 1.54c1-.48 1.86-.82 2.68-1.18s1.46-.68 2.18-1l1 2.3a21 21 0 0 0 -2.36.84c-.88.34-2 .78-3.22 1.34 0 1.1.06 2.56.08 3.46z"/><path d="m67.38 501.22a31.15 31.15 0 0 1 -1.92 4.16v13.7h-2.4v-10c-.42.5-.84 1-1.24 1.44a16.25 16.25 0 0 0 -1.32-2.52 20.81 20.81 0 0 0 4.56-7.48zm6.34 4.72v2.06h5.18v2.16h-5.18v2.26h5.45v2.2h-5.45v4.44h-2.44v-13.12h-.76a22.21 22.21 0 0 1 -2.62 3.88 16.18 16.18 0 0 0 -1.82-1.66 19.85 19.85 0 0 0 4.24-7.54l2.3.58a23.64 23.64 0 0 1 -1 2.48h7.78v2.26z"/><path d="m96.28 503.64q-.72.45-1.38.9c-1.06.74-3.14 2.5-4.38 3.5a6.66 6.66 0 0 1 1.86-.22c3.36 0 5.92 2.1 5.92 5 0 3.12-2.38 5.6-7.16 5.6-2.76 0-4.84-1.26-4.84-3.24a3.33 3.33 0 0 1 3.56-3.08 4 4 0 0 1 4.22 3.38 2.89 2.89 0 0 0 1.62-2.7c0-1.78-1.8-3-4.1-3-3 0-5 1.62-7.14 4l-1.8-1.86c1.4-1.14 3.78-3.16 5-4.12s3.16-2.58 4.14-3.44c-1 0-3.74.14-4.78.22a13.07 13.07 0 0 0 -1.62.16l-.08-2.58c.56.06 1.24.1 1.8.1 1 0 5.28-.1 6.4-.2a9.55 9.55 0 0 0 1.52-.2zm-4.48 12.46c-.12-1.28-.86-2.12-1.94-2.12-.74 0-1.22.44-1.22.94 0 .74.84 1.24 2 1.24a10.44 10.44 0 0 0 1.16-.06z"/><path d="m106.5 511.26a8.22 8.22 0 0 0 -.34 2c0 1.26 1.2 2.18 4.06 2.18a28.09 28.09 0 0 0 7-.78v2.78a30.24 30.24 0 0 1 -6.88.68c-4.54 0-6.82-1.52-6.82-4.24a12.74 12.74 0 0 1 .4-2.86zm-1.68-8.4a51.91 51.91 0 0 0 5.4.24c2 0 4.22-.12 5.74-.28v2.66c-1.38.1-3.84.24-5.72.24-2.08 0-3.8-.1-5.42-.22z"/><path d="m136.22 505.72c-.6.36-1.24.7-2 1.06a60.66 60.66 0 0 0 -5.52 2.94c-1.66 1.08-2.76 2.22-2.76 3.6s1.38 2.18 4.12 2.18a33.13 33.13 0 0 0 6.48-.72v2.86a38.74 38.74 0 0 1 -6.36.48c-3.94 0-6.92-1.1-6.92-4.5 0-2.2 1.38-3.82 3.28-5.22-.92-1.7-1.88-3.8-2.78-5.9l2.5-1a46.44 46.44 0 0 0 2.48 5.48c1.62-.94 3.34-1.82 4.28-2.34a13.68 13.68 0 0 0 1.82-1.2z"/><path d="m148.72 501.76c-.12.52-.24 1.14-.34 1.64s-.28 1.32-.42 2c.66 0 1.26-.08 1.66-.08 2.1 0 3.58.94 3.58 3.78 0 2.34-.28 5.5-1.12 7.22a3.16 3.16 0 0 1 -3.26 1.82 11.21 11.21 0 0 1 -2.36-.28l-.44-2.62a11.56 11.56 0 0 0 2.44.42 1.46 1.46 0 0 0 1.48-.86 15.12 15.12 0 0 0 .8-5.42c0-1.58-.68-1.8-1.92-1.8-.32 0-.8 0-1.36.08-.78 3-2.22 7.66-4 10.58l-2.58-1a29.38 29.38 0 0 0 4-9.26c-.7.08-1.32.16-1.7.22-.56.06-1.58.2-2.2.3l-.22-2.68a18.39 18.39 0 0 0 2.1 0c.62 0 1.56-.08 2.56-.16a21.93 21.93 0 0 0 .42-4.2zm7.1 2.36a39.35 39.35 0 0 1 3.18 6.88l-2.52 1.18a22.43 22.43 0 0 0 -3.34-7.46l1.86-.72a22.11 22.11 0 0 0 -1.36-2.36l1.58-.66c.5.74 1.2 2 1.6 2.74zm1.82-.66a20 20 0 0 0 -1.64-2.76l1.58-.66a23.67 23.67 0 0 1 1.62 2.72z"/><path d="m163.82 503.58 8.56-.76c2-.16 4.2-.28 5.6-.34v2.56a20.45 20.45 0 0 0 -3.82.26 6 6 0 0 0 -4.18 5.54c0 3.26 3 4.44 6.4 4.6l-.92 2.74c-4.16-.26-8.08-2.5-8.08-6.8a7.85 7.85 0 0 1 2.92-6.1c-1.72.18-5.88.62-8.18 1.12l-.26-2.72c.82-.02 1.58-.06 1.96-.1zm13 6.1-1.52.68a15.43 15.43 0 0 0 -1.56-2.78l1.48-.62a26.21 26.21 0 0 1 1.6 2.72zm2.32-1-1.5.72a17.59 17.59 0 0 0 -1.64-2.7l1.46-.68a29.92 29.92 0 0 1 1.68 2.68z"/><path d="m197.4 508.24a23 23 0 0 1 -3.06.8c.5 1.06 1.06 2.22 1.64 3.3l-1.18 1.5c-1.1-.2-3-.5-4.32-.66l.22-1.9c.78.1 1.56.16 2.1.22l-.9-2.06a49.76 49.76 0 0 1 -8.7.12l-.1-2.28a40.2 40.2 0 0 0 7.9 0l-.34-.78-.48-1.12a39.27 39.27 0 0 1 -6.82-.08l-.12-2.26a37.29 37.29 0 0 0 6 .22 17.81 17.81 0 0 0 -1-1.7l2.82-.54a16.93 16.93 0 0 0 .62 2 24 24 0 0 0 3.8-.92l.42 2.22a28.58 28.58 0 0 1 -3.4.8l.38.86.46 1a21.2 21.2 0 0 0 3.54-1zm-11.1 3.76a5.87 5.87 0 0 0 -.48 1.92c0 1.24.88 2.08 3.46 2.08a28.82 28.82 0 0 0 5.24-.44l-.08 2.54a35.08 35.08 0 0 1 -5.1.38c-3.7 0-6-1.26-6-4a10.28 10.28 0 0 1 .48-2.7z"/><path d="m215.08 503.64q-.72.45-1.38.9c-1.06.74-3.14 2.5-4.38 3.5a6.66 6.66 0 0 1 1.86-.22c3.36 0 5.92 2.1 5.92 5 0 3.12-2.38 5.6-7.16 5.6-2.76 0-4.84-1.26-4.84-3.24a3.33 3.33 0 0 1 3.56-3.08 4 4 0 0 1 4.22 3.38 2.89 2.89 0 0 0 1.62-2.7c0-1.78-1.8-3-4.1-3-3 0-5 1.62-7.14 4l-1.8-1.86c1.4-1.14 3.78-3.16 5-4.12s3.16-2.58 4.14-3.44c-1 0-3.74.14-4.78.22a13.07 13.07 0 0 0 -1.62.16l-.08-2.58c.56.06 1.24.1 1.8.1 1 0 5.28-.1 6.4-.2a9.55 9.55 0 0 0 1.52-.2zm-4.48 12.46c-.12-1.28-.86-2.12-1.94-2.12-.74 0-1.22.44-1.22.94 0 .74.84 1.24 2 1.24a10.44 10.44 0 0 0 1.16-.06z"/><path d="m235 505.72c-.6.36-1.24.7-2 1.06a60.66 60.66 0 0 0 -5.52 2.94c-1.66 1.08-2.76 2.22-2.76 3.6s1.38 2.18 4.12 2.18a33.13 33.13 0 0 0 6.48-.72v2.86a38.74 38.74 0 0 1 -6.36.48c-3.94 0-6.92-1.1-6.92-4.5 0-2.2 1.38-3.82 3.28-5.22-.92-1.7-1.88-3.8-2.78-5.9l2.5-1a46.44 46.44 0 0 0 2.48 5.48c1.62-.94 3.34-1.82 4.28-2.34a13.68 13.68 0 0 0 1.82-1.2z"/><path d="m243.82 505.52c0 1.28 0 2.78.12 4.2.28 2.86.88 4.8 2.12 4.8.94 0 1.72-2.32 2.1-3.88l2 2.4c-1.32 3.44-2.56 4.66-4.16 4.66-2.16 0-4.06-2-4.62-7.28-.18-1.82-.22-4.12-.22-5.34a11.48 11.48 0 0 0 -.14-2h3a15.69 15.69 0 0 0 -.2 2.44zm13.76 8.14-2.62 1c-.3-3.18-1.36-7.84-3.52-10.28l2.52-.84c1.88 2.3 3.4 7.08 3.62 10.12z"/><path d="m269.6 508.42a17.77 17.77 0 0 0 -5.16 1c-.58.18-1.34.48-1.92.68l-.74-2.82a19.42 19.42 0 0 0 2.16-.34 27.44 27.44 0 0 1 6-.9c3.14 0 5.34 1.78 5.34 4.88 0 4.24-3.92 6.88-9.42 7.64l-1.46-2.56c4.92-.56 8.06-2.16 8.06-5.26 0-1.26-1-2.34-2.86-2.32zm4-6.26-.4 2.44c-2.32-.16-6.62-.54-8.9-.94l.4-2.4a55.94 55.94 0 0 0 8.9.9z"/><path d="m284.9 511.26a8.22 8.22 0 0 0 -.34 2c0 1.26 1.2 2.18 4.06 2.18a28.09 28.09 0 0 0 7-.78v2.78a30.24 30.24 0 0 1 -6.88.68c-4.54 0-6.82-1.52-6.82-4.24a12.74 12.74 0 0 1 .4-2.86zm-1.68-8.4a51.91 51.91 0 0 0 5.4.24c2 0 4.22-.12 5.74-.28v2.66c-1.38.1-3.84.24-5.72.24-2.08 0-3.8-.1-5.42-.22z"/><path d="m314.62 505.72c-.6.36-1.24.7-2 1.06a60.66 60.66 0 0 0 -5.52 2.94c-1.66 1.08-2.76 2.22-2.76 3.6s1.38 2.18 4.12 2.18a33.13 33.13 0 0 0 6.48-.72v2.86a38.74 38.74 0 0 1 -6.36.48c-3.94 0-6.92-1.1-6.92-4.5 0-2.2 1.38-3.82 3.28-5.22-.92-1.7-1.88-3.8-2.78-5.9l2.5-1a46.44 46.44 0 0 0 2.48 5.48c1.62-.94 3.34-1.82 4.28-2.34a13.68 13.68 0 0 0 1.82-1.2z"/><path d="m325.52 515.64a3.23 3.23 0 1 1 -3.24-3.24 3.24 3.24 0 0 1 3.24 3.24zm-1.44 0a1.79 1.79 0 1 0 -1.8 1.78 1.79 1.79 0 0 0 1.8-1.78z"/><path d="m14.82 556.3c-.6.36-1.22.7-2 1.06a54.44 54.44 0 0 0 -4.82 2.64c-1.64 1.08-2.74 2.22-2.74 3.6s1.36 2.18 4.12 2.18a33.09 33.09 0 0 0 6.46-.72v2.84a36.39 36.39 0 0 1 -6.36.5c-3.94 0-6.92-1.1-6.92-4.52 0-2.18 1.38-3.8 3.28-5.2-.98-1.68-1.94-3.78-2.84-5.88l2.5-1a46.44 46.44 0 0 0 2.5 5.46c1.46-.86 2.86-1.56 3.78-2.1a13.07 13.07 0 0 0 1.8-1.16zm.3-4.88a29.53 29.53 0 0 1 1.6 2.74l-1.62.68a23.94 23.94 0 0 0 -1.56-2.78zm2.38-.92a26.8 26.8 0 0 1 1.6 2.74l-1.58.68a21.2 21.2 0 0 0 -1.62-2.76z"/><path d="m30.24 553.24c-1 1.42-2.48 4.18-3.46 5.92a4.51 4.51 0 0 1 2.26-.6 2.39 2.39 0 0 1 2.46 2.6c0 .88 0 2.48.1 3.3a1.12 1.12 0 0 0 1.26 1.08c1.7 0 2.78-2.22 3.34-4.68l2.14 1.74c-1 3.42-2.86 5.66-5.92 5.66a2.94 2.94 0 0 1 -3.28-2.76c-.08-1.06-.06-2.68-.12-3.48a1.07 1.07 0 0 0 -1.16-1.1c-1.36 0-2.46 1.36-3.16 3a38.22 38.22 0 0 0 -1.5 4.4l-2.8-.94c1.46-4 5.64-12.28 6.68-14.16.26-.54.62-1.18 1-2l2.82 1.14c-.22.2-.44.56-.66.88z"/><path d="m50.7 555.7a29 29 0 0 1 -3.44.68 36.56 36.56 0 0 1 -4.26 8.48l-2.42-1.22a30.22 30.22 0 0 0 4-7c-.34 0-.68 0-1 0-.82 0-1.62 0-2.48-.06l-.1-2.3a25.18 25.18 0 0 0 2.64.14c.58 0 1.18 0 1.78-.06a16.86 16.86 0 0 0 .54-3.32l2.74.28c-.16.64-.4 1.64-.68 2.7a20.92 20.92 0 0 0 2.66-.62zm2.6 1.78c-.06.84 0 1.66 0 2.54 0 .56.06 1.52.12 2.5a13.19 13.19 0 0 1 4.1 2.54l-1.32 2.12a17.63 17.63 0 0 0 -2.68-2.1v.18c0 1.84-1 3.28-3.82 3.28-2.46 0-4.4-1.1-4.4-3.28 0-1.94 1.62-3.44 4.38-3.44.46 0 .92 0 1.34.08-.06-1.48-.16-3.22-.22-4.42zm-2.18 6.52a7 7 0 0 0 -1.6-.2c-1.14 0-1.88.48-1.88 1.18s.62 1.24 1.7 1.24c1.34 0 1.78-.78 1.78-1.84zm5.58-5.5a26.41 26.41 0 0 0 -4.76-2.82l1.28-2a35.64 35.64 0 0 1 4.88 2.68z"/><path d="m70.26 560.3v8.8h-2.32v-8.8h-2.34c-.1 3.26-.64 6.5-3 9a9.08 9.08 0 0 0 -1.74-1.64c1.92-2 2.42-4.64 2.54-7.32h-2.3v-2.2h2.32v-4.3h-2v-2.22h10.5v2.22h-1.66v4.3h1.92v2.2zm-2.32-2.2v-4.3h-2.32v4.3zm11.9 4.26a17.88 17.88 0 0 1 -7.24 6.72 8.91 8.91 0 0 0 -1.66-1.94 14.3 14.3 0 0 0 6.64-5.66zm-.74-10.74a20.36 20.36 0 0 1 -5.74 4.92 7.86 7.86 0 0 0 -1.68-1.68 15.06 15.06 0 0 0 5.16-4.16zm.32 5.46a21.33 21.33 0 0 1 -5.8 5.2 10 10 0 0 0 -1.62-1.66 16.21 16.21 0 0 0 5.28-4.42z"/><path d="m87.54 552.1a16.65 16.65 0 0 0 -.48 1.76 49 49 0 0 0 -1 7.26 9.56 9.56 0 0 0 .08 1.28c.28-.7.6-1.36.88-2l1.24 1a47.75 47.75 0 0 0 -1.42 4.86 5.82 5.82 0 0 0 -.12.92v.82l-2.28.16a25.28 25.28 0 0 1 -.78-6.48 54.92 54.92 0 0 1 .82-7.84 14.8 14.8 0 0 0 .2-1.94zm4.64 9.78a6.52 6.52 0 0 0 -.24 1.66c0 .88.76 1.4 2.76 1.4a22.83 22.83 0 0 0 5-.52l.06 2.68a27.53 27.53 0 0 1 -5.12.4c-3.42 0-5-1.24-5-3.26a12.21 12.21 0 0 1 .34-2.58zm6.92-8.48v2.6a54.82 54.82 0 0 1 -8.5 0v-2.56a40.41 40.41 0 0 0 8.5-.04z"/><path d="m113.1 555.7a29 29 0 0 1 -3.44.68 36.56 36.56 0 0 1 -4.24 8.48l-2.42-1.22a30.22 30.22 0 0 0 4-7c-.34 0-.68 0-1 0-.82 0-1.62 0-2.48-.06l-.18-2.32a25.18 25.18 0 0 0 2.64.14c.58 0 1.18 0 1.78-.06a16.86 16.86 0 0 0 .54-3.32l2.74.28c-.16.64-.4 1.64-.68 2.7a20.92 20.92 0 0 0 2.66-.62zm2.6 1.78c-.06.84 0 1.66 0 2.54 0 .56.06 1.52.12 2.5a13.19 13.19 0 0 1 4.1 2.54l-1.32 2.12a17.63 17.63 0 0 0 -2.68-2.1v.18c0 1.84-1 3.28-3.82 3.28-2.46 0-4.4-1.1-4.4-3.28 0-1.94 1.62-3.44 4.38-3.44.46 0 .92 0 1.34.08-.06-1.48-.16-3.22-.22-4.42zm-2.18 6.52a7 7 0 0 0 -1.6-.2c-1.14 0-1.88.48-1.88 1.18s.62 1.24 1.7 1.24c1.34 0 1.78-.78 1.78-1.84zm5.58-5.5a26.41 26.41 0 0 0 -4.76-2.82l1.28-2a35.64 35.64 0 0 1 4.88 2.68z"/><path d="m137.08 553.64q-.72.45-1.38.9c-1.06.74-3.14 2.5-4.38 3.5a6.66 6.66 0 0 1 1.86-.22c3.36 0 5.92 2.1 5.92 5 0 3.12-2.38 5.6-7.16 5.6-2.76 0-4.84-1.26-4.84-3.24a3.33 3.33 0 0 1 3.56-3.08 4 4 0 0 1 4.22 3.38 2.89 2.89 0 0 0 1.62-2.7c0-1.78-1.8-3-4.1-3-3 0-5 1.62-7.14 4l-1.8-1.86c1.4-1.14 3.78-3.16 5-4.12s3.16-2.58 4.14-3.44c-1 0-3.74.14-4.78.22a13.07 13.07 0 0 0 -1.62.16l-.08-2.58c.56.06 1.24.1 1.8.1 1 0 5.28-.1 6.4-.2a9.55 9.55 0 0 0 1.52-.2zm-4.48 12.46c-.12-1.28-.86-2.12-1.94-2.12-.74 0-1.22.44-1.22.94 0 .74.84 1.24 2 1.24a10.44 10.44 0 0 0 1.16-.06z"/><path d="m147.54 552.1a16.65 16.65 0 0 0 -.48 1.76 49 49 0 0 0 -1 7.26 9.56 9.56 0 0 0 .08 1.28c.28-.7.6-1.36.88-2l1.24 1a47.75 47.75 0 0 0 -1.42 4.86 5.82 5.82 0 0 0 -.12.92v.82l-2.28.16a25.28 25.28 0 0 1 -.78-6.48 54.92 54.92 0 0 1 .82-7.84 14.8 14.8 0 0 0 .2-1.94zm4.64 9.78a6.52 6.52 0 0 0 -.24 1.66c0 .88.76 1.4 2.76 1.4a22.83 22.83 0 0 0 5-.52l.06 2.68a27.53 27.53 0 0 1 -5.12.4c-3.42 0-5-1.24-5-3.26a12.21 12.21 0 0 1 .34-2.58zm6.92-8.48v2.6a54.82 54.82 0 0 1 -8.5 0v-2.56a40.41 40.41 0 0 0 8.5-.04z"/><path d="m168.28 551.56a20.33 20.33 0 0 0 -.26 2.64c-.1 2.12-.24 6.56-.24 9 0 2 1.2 2.64 2.72 2.64 3.28 0 5.36-1.88 6.78-4l1.8 2.22a10.31 10.31 0 0 1 -8.6 4.52c-3.24 0-5.34-1.42-5.34-4.8 0-2.66.2-7.86.2-9.56a12.44 12.44 0 0 0 -.26-2.68z"/><path d="m185.76 552.4c1 0 5-.06 6.3-.14a10.06 10.06 0 0 0 1.42-.22l1.32 1.74c-.38.2-.82.48-1.1.66-1.14.82-3 2.2-4.54 3.5a7.4 7.4 0 0 1 2-.28c3.46 0 5.88 2 5.88 4.78 0 3.84-3.2 6.46-10.38 5.88l-.72-2.58c5.32.7 8.38-.62 8.38-3.3 0-1.56-1.46-2.66-3.7-2.66-3.44 0-5.5 2.18-7.38 4.28l-1.84-2c2.42-2.22 7.16-6.2 8.72-7.62-1.06 0-3.28.18-4.24.22-.5 0-1.14.12-1.56.18l-.1-2.58a12.48 12.48 0 0 0 1.54.14z"/><path d="m206.32 568.74a37.54 37.54 0 0 0 -4.3-4.42l2.08-1.8a37.49 37.49 0 0 1 4.36 4.38z"/><path d="m231.62 556.3c-.6.36-1.22.7-2 1.06a54.44 54.44 0 0 0 -4.9 2.66c-1.64 1.08-2.74 2.22-2.74 3.6s1.36 2.18 4.12 2.18a33.09 33.09 0 0 0 6.46-.72v2.84a36.39 36.39 0 0 1 -6.36.5c-3.94 0-6.92-1.1-6.92-4.52 0-2.18 1.38-3.8 3.28-5.2-.9-1.68-1.86-3.8-2.76-5.9l2.5-1a46.44 46.44 0 0 0 2.48 5.48c1.46-.86 2.86-1.56 3.78-2.1a13.07 13.07 0 0 0 1.82-1.18zm.3-4.88a29.53 29.53 0 0 1 1.6 2.74l-1.62.68a23.94 23.94 0 0 0 -1.56-2.78zm2.38-.92a26.8 26.8 0 0 1 1.6 2.74l-1.58.68a21.2 21.2 0 0 0 -1.62-2.76z"/><path d="m247.44 553.24c-1 1.42-2.48 4.18-3.46 5.92a4.51 4.51 0 0 1 2.26-.6 2.39 2.39 0 0 1 2.46 2.6c0 .88 0 2.48.1 3.3a1.12 1.12 0 0 0 1.26 1.08c1.7 0 2.78-2.22 3.34-4.68l2.14 1.74c-1 3.42-2.86 5.66-5.92 5.66a2.94 2.94 0 0 1 -3.28-2.76c-.08-1.06-.06-2.68-.12-3.48a1.07 1.07 0 0 0 -1.16-1.1c-1.36 0-2.46 1.36-3.16 3a38.22 38.22 0 0 0 -1.5 4.4l-2.8-.94c1.46-4 5.64-12.28 6.68-14.16.26-.54.62-1.18 1-2l2.82 1.14c-.22.2-.44.56-.66.88z"/><path d="m269.1 555.7a29 29 0 0 1 -3.44.68 36.56 36.56 0 0 1 -4.24 8.48l-2.42-1.22a30.22 30.22 0 0 0 4-7c-.34 0-.68 0-1 0-.82 0-1.62 0-2.48-.06l-.18-2.32a25.18 25.18 0 0 0 2.64.14c.58 0 1.18 0 1.78-.06a16.86 16.86 0 0 0 .54-3.32l2.74.28c-.16.64-.4 1.64-.68 2.7a20.92 20.92 0 0 0 2.66-.62zm2.6 1.78c-.06.84 0 1.66 0 2.54 0 .56.06 1.52.12 2.5a13.19 13.19 0 0 1 4.1 2.54l-1.32 2.12a17.63 17.63 0 0 0 -2.68-2.1v.18c0 1.84-1 3.28-3.82 3.28-2.46 0-4.4-1.1-4.4-3.28 0-1.94 1.62-3.44 4.38-3.44.46 0 .92 0 1.34.08-.06-1.48-.16-3.22-.22-4.42zm-2.18 6.52a7 7 0 0 0 -1.6-.2c-1.14 0-1.88.48-1.88 1.18s.62 1.24 1.7 1.24c1.34 0 1.78-.78 1.78-1.84zm5.58-5.5a26.41 26.41 0 0 0 -4.76-2.82l1.28-2a35.64 35.64 0 0 1 4.88 2.68z"/><path d="m286.58 551.22a31.15 31.15 0 0 1 -1.92 4.16v13.7h-2.4v-10c-.42.5-.84 1-1.24 1.44a16.25 16.25 0 0 0 -1.32-2.52 20.81 20.81 0 0 0 4.56-7.48zm6.34 4.72v2.06h5.18v2.16h-5.18v2.26h5.44v2.2h-5.44v4.44h-2.44v-13.12h-.76a22.21 22.21 0 0 1 -2.62 3.88 16.18 16.18 0 0 0 -1.82-1.66 19.85 19.85 0 0 0 4.24-7.54l2.3.58a23.64 23.64 0 0 1 -1 2.48h7.76v2.26z"/><path d="m306.88 551.36a32.34 32.34 0 0 0 -.8 4.1c.94-1.52 2.66-3.2 4.9-3.2 2.76 0 4.9 2.7 4.9 7.06 0 5.6-3.44 8.28-8.68 9.24l-1.5-2.3c4.4-.68 7.48-2.12 7.48-6.92 0-3.06-1-4.76-2.66-4.76-2.34 0-4.38 3.52-4.48 6.12a11.89 11.89 0 0 0 .1 2.1l-2.46.16a25.62 25.62 0 0 1 -.24-3.3 48 48 0 0 1 .56-6.34c.1-.72.14-1.52.16-2.08z"/><path d="m327.76 555.88c-.06.86-.12 1.74-.22 2.6h7.72a9.73 9.73 0 0 1 -.08 1c-.36 5.44-.78 7.68-1.58 8.56a3 3 0 0 1 -2.16.92 27.39 27.39 0 0 1 -3.42 0 5.53 5.53 0 0 0 -.84-2.34c1.38.14 2.78.14 3.36.14a1.28 1.28 0 0 0 1-.26c.52-.44.88-2.18 1.16-5.82h-5.5a11.74 11.74 0 0 1 -6.42 8.52 7.6 7.6 0 0 0 -1.68-2c5.4-2.5 5.86-7.06 6.08-11.34h-5.72v-2.26h7.66v-3.26h2.46v3.26h7.9v2.28z"/><path d="m349.3 564.48c0-.58.06-1.5.08-2.36-1.46.8-2.26 1.58-2.26 2.56s.94 1.4 2.88 1.4a30.29 30.29 0 0 0 5.62-.58l-.08 2.58a54.8 54.8 0 0 1 -5.6.32c-3.1 0-5.44-.74-5.44-3.3s2.4-4.12 4.66-5.28a1.55 1.55 0 0 0 -1.38-.68 4.9 4.9 0 0 0 -3.1 1.36 25.37 25.37 0 0 0 -1.84 2.18l-2.12-1.58a19.36 19.36 0 0 0 4.36-5.44h-.24c-.8 0-2.26 0-3.34-.14v-2.32a25.41 25.41 0 0 0 3.48.22h1a11 11 0 0 0 .4-2.26l2.6.22c-.1.48-.24 1.16-.48 2a45.74 45.74 0 0 0 5.6-.58v2.32a64.52 64.52 0 0 1 -6.46.52 12.1 12.1 0 0 1 -1.14 2 6.2 6.2 0 0 1 2.24-.4 2.7 2.7 0 0 1 2.64 1.54c1-.48 1.86-.82 2.68-1.18s1.46-.68 2.18-1l1 2.3a21 21 0 0 0 -2.36.84c-.88.34-2 .78-3.22 1.34 0 1.1.06 2.56.08 3.46z"/><path d="m376.62 555.94c-1.2-.06-3.06-.1-5.74-.1v2.94a4.88 4.88 0 0 1 .74 2.74c0 2.58-1.52 5.86-6.36 7.22l-2.1-2.12a9.05 9.05 0 0 0 4.84-2.26 4.28 4.28 0 0 1 -.9.1 3.49 3.49 0 0 1 -3.42-3.64 3.73 3.73 0 0 1 4-3.7 4.75 4.75 0 0 1 .78.06v-1.32c-3 0-6.06.16-8.5.3l-.06-2.4c2.26 0 5.86-.1 8.52-.14a5.08 5.08 0 0 0 0-.6 13.4 13.4 0 0 0 -.18-1.72h2.88c-.06.32-.12 1.38-.14 1.7v.6h5.74zm-9 6.32c.82 0 1.56-.62 1.3-2.34a1.41 1.41 0 0 0 -1.3-.7 1.52 1.52 0 1 0 0 3z"/><path d="m393.48 553.64q-.72.45-1.38.9c-1.06.74-3.14 2.5-4.38 3.5a6.66 6.66 0 0 1 1.86-.22c3.36 0 5.92 2.1 5.92 5 0 3.12-2.38 5.6-7.16 5.6-2.76 0-4.84-1.26-4.84-3.24a3.33 3.33 0 0 1 3.56-3.08 4 4 0 0 1 4.22 3.38 2.89 2.89 0 0 0 1.62-2.7c0-1.78-1.8-3-4.1-3-3 0-5 1.62-7.14 4l-1.8-1.86c1.4-1.14 3.78-3.16 5-4.12s3.16-2.58 4.14-3.44c-1 0-3.74.14-4.78.22a13.07 13.07 0 0 0 -1.62.16l-.08-2.58c.56.06 1.24.1 1.8.1 1 0 5.28-.1 6.4-.2a9.55 9.55 0 0 0 1.52-.2zm-4.48 12.46c-.12-1.28-.86-2.12-1.94-2.12-.74 0-1.22.44-1.22.94 0 .74.84 1.24 2 1.24a10.44 10.44 0 0 0 1.16-.06z"/><path d="m403.94 552.1a16.65 16.65 0 0 0 -.48 1.76 49 49 0 0 0 -1 7.26 9.56 9.56 0 0 0 .08 1.28c.28-.7.6-1.36.88-2l1.24 1a47.75 47.75 0 0 0 -1.42 4.86 5.82 5.82 0 0 0 -.12.92v.82l-2.28.16a25.28 25.28 0 0 1 -.78-6.48 54.92 54.92 0 0 1 .82-7.84 14.8 14.8 0 0 0 .2-1.94zm4.64 9.78a6.52 6.52 0 0 0 -.24 1.66c0 .88.76 1.4 2.76 1.4a22.83 22.83 0 0 0 5-.52l.06 2.68a27.53 27.53 0 0 1 -5.12.4c-3.42 0-5-1.24-5-3.26a12.21 12.21 0 0 1 .34-2.58zm6.92-8.48v2.6a54.82 54.82 0 0 1 -8.5 0v-2.56a40.41 40.41 0 0 0 8.5-.04z"/><path d="m425.48 551.56a20.33 20.33 0 0 0 -.26 2.64c-.1 2.12-.24 6.56-.24 9 0 2 1.2 2.64 2.72 2.64 3.28 0 5.36-1.88 6.78-4l1.8 2.22a10.31 10.31 0 0 1 -8.6 4.52c-3.24 0-5.34-1.42-5.34-4.8 0-2.66.2-7.86.2-9.56a12.44 12.44 0 0 0 -.26-2.68z"/><path d="m443.76 552.4c1 0 5-.06 6.3-.14a10.06 10.06 0 0 0 1.42-.22l1.32 1.74c-.38.2-.82.48-1.1.66-1.14.82-3 2.2-4.54 3.5a7.4 7.4 0 0 1 2-.28c3.46 0 5.88 2 5.88 4.78 0 3.84-3.2 6.46-10.38 5.88l-.72-2.58c5.32.7 8.38-.62 8.38-3.3 0-1.56-1.46-2.66-3.7-2.66-3.44 0-5.5 2.18-7.38 4.28l-1.84-2c2.42-2.22 7.16-6.2 8.72-7.62-1.06 0-3.28.18-4.24.22-.5 0-1.14.12-1.56.18l-.1-2.58a12.48 12.48 0 0 0 1.54.14z"/><path d="m463.92 568.74a37.54 37.54 0 0 0 -4.3-4.42l2.08-1.8a37.49 37.49 0 0 1 4.36 4.38z"/><path d="m13.52 613.68v-.8h-2.68v.82h-2.4v-6.18h-2.72v8h12.48v2.3h-12.48v1.26h-2.46v-11.56h-2.84v-2.3h2.84v-4.22h2.46v4.2h2.72v-4.64h2.4v4.64h2.68v-4.44h2.4v4.44h3v2.3h-3v6.16zm0-3v-3.14h-2.68v3.14z"/><path d="m33.94 609.6a14.22 14.22 0 0 0 5.48 2.7 10.67 10.67 0 0 0 -1.58 2 14.62 14.62 0 0 1 -3.38-1.62v6.32h-2.46v-7h1.5a12.07 12.07 0 0 1 -2.34-2.4h-2.08a13.53 13.53 0 0 1 -2.4 2.38h1.7v1.38c0 1.9-.58 4.42-4.56 5.88a8.79 8.79 0 0 0 -1.64-1.92c3.34-1.1 3.74-2.78 3.74-4.06v-.72a16 16 0 0 1 -3.64 1.86 11 11 0 0 0 -1.56-2 15 15 0 0 0 5.4-2.84h-3.18v-8.5h14.26v8.5zm-8.62-5.14h3.5v-1.46h-3.5zm0 3.22h3.5v-1.44h-3.5zm9.4-4.66h-3.5v1.44h3.5zm0 3.22h-3.5v1.44h3.5z"/><path d="m58.66 603.88v10h-2.5v-1h-4.52v6.24h-2.52v-6.24h-4.5v1.12h-2.4v-10.12h6.9v-3.46h2.52v3.46zm-9.54 6.64v-4.3h-4.5v4.3zm7 0v-4.3h-4.48v4.3z"/><path d="m70.64 615.84c.76-.1 1.32-.2 1.84-.32a5.36 5.36 0 0 0 4.5-5.3c0-2.74-1.48-4.78-4.14-5.24a43 43 0 0 1 -1.18 5.38c-1.18 4-2.9 6.44-5.06 6.44s-4-2.42-4-5.76c0-4.56 4-8.48 9.12-8.48 4.9 0 8 3.42 8 7.74 0 4.16-2.56 7.12-7.56 7.88zm-1.54-6a31.79 31.79 0 0 0 1.06-4.8 6.21 6.21 0 0 0 -5 5.74c0 2 .8 3 1.54 3s1.6-1.26 2.4-3.94z"/><path d="m92.28 600.88c0 .32 0 .72-.06 1.14.16 2.76 1.16 11.38 8.62 14.88a7.82 7.82 0 0 0 -1.84 2c-4.52-2.24-6.76-6.36-7.88-10a17.08 17.08 0 0 1 -7.4 10 8.33 8.33 0 0 0 -2-1.9c8-4.42 7.7-13.5 7.84-16.14z"/><path d="m110.32 601.76c-.12.52-.24 1.14-.34 1.64s-.28 1.32-.42 2c.66 0 1.26-.08 1.66-.08 2.1 0 3.58.94 3.58 3.78 0 2.34-.28 5.5-1.12 7.22a3.16 3.16 0 0 1 -3.26 1.82 11.21 11.21 0 0 1 -2.36-.28l-.44-2.62a11.56 11.56 0 0 0 2.44.42 1.46 1.46 0 0 0 1.48-.86 15.12 15.12 0 0 0 .8-5.42c0-1.58-.68-1.8-1.92-1.8-.32 0-.8 0-1.36.08-.78 3-2.22 7.66-4 10.58l-2.58-1a29.38 29.38 0 0 0 4-9.26c-.7.08-1.32.16-1.7.22-.56.06-1.58.2-2.2.3l-.22-2.68a18.39 18.39 0 0 0 2.1 0c.62 0 1.56-.08 2.56-.16a21.93 21.93 0 0 0 .42-4.2zm7.1 2.36a39.35 39.35 0 0 1 3.22 6.9l-2.52 1.18a22.43 22.43 0 0 0 -3.34-7.46l1.84-.78a22.11 22.11 0 0 0 -1.36-2.36l1.58-.66c.5.74 1.2 2 1.6 2.74zm1.82-.66a20 20 0 0 0 -1.62-2.76l1.58-.66a23.67 23.67 0 0 1 1.62 2.72z"/><path d="m139.82 603.44a6.91 6.91 0 0 1 -1.68 2.3 13.83 13.83 0 0 0 3.4 1.1 7.3 7.3 0 0 0 -1.32 1.72 13.55 13.55 0 0 1 -3.78-1.56 16.2 16.2 0 0 1 -3.34 1.36 9.17 9.17 0 0 0 -1.16-1.64 2.43 2.43 0 0 1 -.42 1.18 1.42 1.42 0 0 1 -1 .52 13.74 13.74 0 0 1 -1.62 0 4.65 4.65 0 0 0 -.12-.66h-4.38v-2.2q-.3.24-.66.48a5.3 5.3 0 0 0 -1.24-1.26 5.49 5.49 0 0 0 2.2-2l.44.08v-.34h-2v-1.36h2v-.72h1.86v.72h1.72v-.72h1.92v.72h2v1.36h-2v.6h-1.92v-.6h-1.72v.6h-.62l-.16.28h5.68a7.85 7.85 0 0 0 2.5-3l2 .52a8.72 8.72 0 0 1 -.46.84h5.06v1.66zm.76 10.76s0 .5-.08.76c-.24 2.1-.5 3.14-.94 3.56a1.92 1.92 0 0 1 -1.22.56 12.79 12.79 0 0 1 -2 0 4.34 4.34 0 0 0 -.28-1.28l-.78.32a9.42 9.42 0 0 0 -1.14-1.84l1.58-.58a8.06 8.06 0 0 1 1.22 1.72h-.06.26a.63.63 0 0 0 .52-.16 3.5 3.5 0 0 0 .5-1.68h-10.52v.06h-2.24l1.44.62a6.4 6.4 0 0 1 -2.34 2.84l-1.82-1.22a5.69 5.69 0 0 0 2.22-2.46l.46.2v-7.1h13.52v1.4h-5.6v.64h5v1.18h-5v.62h5v1.18h-5v.64zm-11.52-7.2h.34a.47.47 0 0 0 .44-.18 5.25 5.25 0 0 0 .34-2.22h-4.78c-.14.16-.3.32-.46.48h4.12zm-1.62-.9h-1.5v.66h1.5zm.2 3.84v.64h3.36v-.64zm3.38 1.82h-3.38v.62h3.36zm-3.38 2.44h3.36v-.64h-3.38zm1.9 1.88a12.41 12.41 0 0 1 .58 2.46l-2 .36a14.76 14.76 0 0 0 -.48-2.54zm3.22-.08a11.31 11.31 0 0 1 .88 2.18l-1.86.5a12.5 12.5 0 0 0 -.8-2.28zm2.06-10.22a9.37 9.37 0 0 1 -1.14-1.22 7.83 7.83 0 0 1 -.66.54c-.18-.2-.5-.5-.84-.8-.06 1.06-.14 1.82-.22 2.4a13.32 13.32 0 0 0 2.86-.92zm.28-2.34a6.7 6.7 0 0 0 1.38 1.32 5.12 5.12 0 0 0 1.14-1.32z"/><path d="m159.8 608.24a23 23 0 0 1 -3.06.8c.5 1.06 1.06 2.22 1.64 3.3l-1.18 1.5c-1.1-.2-3-.5-4.32-.66l.22-1.9c.78.1 1.56.16 2.1.22l-.9-2.06a49.76 49.76 0 0 1 -8.7.12l-.1-2.28a40.2 40.2 0 0 0 7.9 0l-.34-.78-.48-1.12a39.27 39.27 0 0 1 -6.82-.08l-.12-2.26a37.29 37.29 0 0 0 6 .22 17.81 17.81 0 0 0 -1-1.7l2.82-.54a16.93 16.93 0 0 0 .62 2 24 24 0 0 0 3.8-.92l.42 2.22a28.58 28.58 0 0 1 -3.4.8l.38.86.46 1a21.2 21.2 0 0 0 3.54-1zm-11.1 3.76a5.87 5.87 0 0 0 -.48 1.92c0 1.24.88 2.08 3.46 2.08a28.82 28.82 0 0 0 5.24-.44l-.08 2.54a35.08 35.08 0 0 1 -5.1.38c-3.7 0-6-1.26-6-4a10.28 10.28 0 0 1 .48-2.7z"/><path d="m178.56 613.06a10.05 10.05 0 0 1 -3.16 3.06 34.94 34.94 0 0 0 6.6.88 9.82 9.82 0 0 0 -1.36 2.12 27.65 27.65 0 0 1 -7.82-1.7 31 31 0 0 1 -7.7 1.72 9.66 9.66 0 0 0 -1.22-2 33 33 0 0 0 6.5-1 11.39 11.39 0 0 1 -1.8-1.4 22.84 22.84 0 0 1 -2.7 1.26 15.37 15.37 0 0 0 -1.64-1.58 14.81 14.81 0 0 0 6.06-3.34c-.88-.24-1.12-.84-1.12-2v-1.38h2.18v1.38c0 .46.14.5.8.5h2.1c.5 0 .64-.12.7-.94a6.3 6.3 0 0 0 1.82.62c-.22 1.54-.78 2-2.26 2h-1.84.12a10.68 10.68 0 0 1 -.78.88h4.64l.4-.06zm-12-4.38h-2.26v-3.68h3.44a10.8 10.8 0 0 0 -1-1.72l.22-.1c-.54 0-1.08 0-1.62 0a6.24 6.24 0 0 0 -.46-1.72 94.59 94.59 0 0 0 14-1.14l1.58 1.58c-.8.16-1.64.3-2.56.44l1.8.56c-.5.72-1 1.44-1.5 2.06h3.22v4.04h-1.92a8.84 8.84 0 0 1 1.28 1.44l-1.7 1.28a15.11 15.11 0 0 0 -3.06-3.2l1.6-1.12c.46.34 1 .76 1.44 1.18v-1.68h-5.44a8 8 0 0 1 1.36.88l-1.2 1.32a11.87 11.87 0 0 0 -2.84-1.72l.44-.48h-4.8zm-1.7 1.86a6.27 6.27 0 0 0 2.54-2.82l1.78.76a7.48 7.48 0 0 1 -2.68 3.4zm7.14-5.54a8.92 8.92 0 0 0 -.92-2l-2 .12a5.84 5.84 0 0 1 .86 1.62l-.6.26zm-1.7 8.78a10.29 10.29 0 0 0 2.5 1.46 9.91 9.91 0 0 0 2.28-1.46zm5.5-8.78a20.56 20.56 0 0 0 1.38-2.54c-1.22.16-2.52.28-3.86.4a6.93 6.93 0 0 1 .8 1.74l-1.06.4z"/><path d="m190.28 601.56a20.33 20.33 0 0 0 -.26 2.64c-.1 2.12-.24 6.56-.24 9 0 2 1.2 2.64 2.72 2.64 3.28 0 5.36-1.88 6.78-4l1.8 2.22a10.31 10.31 0 0 1 -8.6 4.52c-3.24 0-5.34-1.42-5.34-4.8 0-2.66.2-7.86.2-9.56a12.44 12.44 0 0 0 -.26-2.68z"/><path d="m204.68 603.54c1.64-.16 4.92-.44 8.54-.76 2-.16 4.22-.28 5.6-.34v2.56a20.45 20.45 0 0 0 -3.82.26 6 6 0 0 0 -4.18 5.54c0 3.26 3.06 4.42 6.4 4.6l-.92 2.74c-4.16-.28-8.08-2.52-8.08-6.8a7.92 7.92 0 0 1 2.92-6.1c-1.7.18-5.88.62-8.18 1.12l-.24-2.72c.8-.02 1.56-.06 1.96-.1z"/><path d="m235.06 603c-.62.46-1.28 1-1.74 1.34-1.28 1-3.9 3.06-5.22 4.2-1.06.9-1 1.12 0 2 1.48 1.26 5.3 4.28 7.26 6.18l-2.3 2.12c-.56-.62-1.18-1.24-1.74-1.84-1.08-1.14-4.1-3.72-5.92-5.26s-1.8-2.76.18-4.4c1.54-1.26 4.26-3.46 5.6-4.78a13.68 13.68 0 0 0 1.52-1.66z"/><path d="m259.82 616.22a5.24 5.24 0 0 1 -3.72 1.5c-1.48 0-2.48-1.1-2.48-3 0-2.16.7-5.06.7-6.86 0-1-.5-1.46-1.32-1.46-1.48 0-3.64 1.82-5.24 3.6v1.6c0 1.62 0 3.28.12 5.14 0 .36.1 1.08.14 1.52h-2.72c0-.42.06-1.14.06-1.46 0-1.54 0-2.68.08-4.36-.86 1.26-1.82 2.72-2.5 3.66l-1.56-2.2c1.12-1.36 3.12-4 4.24-5.66l.08-1.38-3.6.46-.24-2.54a16.84 16.84 0 0 0 1.72 0c.58 0 1.44-.14 2.28-.26 0-.74.08-1.3.08-1.52a10.56 10.56 0 0 0 -.08-1.76l2.9.08c-.12.56-.28 1.58-.44 2.82l.74.94c-.26.34-.68 1-1 1.5a3 3 0 0 1 0 .42c1.56-1.36 3.84-2.94 5.76-2.94a2.78 2.78 0 0 1 3.12 2.92c0 2.06-.66 5-.66 7 0 .52.26.86.76.86a4 4 0 0 0 2.54-1.4z"/><path d="m276.28 603.64q-.72.45-1.38.9c-1.06.74-3.14 2.5-4.38 3.5a6.66 6.66 0 0 1 1.86-.22c3.36 0 5.92 2.1 5.92 5 0 3.12-2.38 5.6-7.16 5.6-2.76 0-4.84-1.26-4.84-3.24a3.33 3.33 0 0 1 3.56-3.08 4 4 0 0 1 4.22 3.38 2.89 2.89 0 0 0 1.62-2.7c0-1.78-1.8-3-4.1-3-3 0-5 1.62-7.14 4l-1.8-1.86c1.4-1.14 3.78-3.16 5-4.12s3.16-2.58 4.14-3.44c-1 0-3.74.14-4.78.22a13.07 13.07 0 0 0 -1.62.16l-.08-2.58c.56.06 1.24.1 1.8.1 1 0 5.28-.1 6.4-.2a9.55 9.55 0 0 0 1.52-.2zm-4.48 12.46c-.12-1.28-.86-2.12-1.94-2.12-.74 0-1.22.44-1.22.94 0 .74.84 1.24 2 1.24a10.44 10.44 0 0 0 1.16-.06z"/><path d="m296.74 617.46a15.3 15.3 0 0 0 -4.38-3.1v.68c0 1.74-.9 3.42-4.22 3.42-2.82 0-5.14-.92-5.14-3.62 0-2.06 1.76-3.7 5.4-3.7a11.37 11.37 0 0 1 1.18.06c-.06-1.54-.14-3.24-.14-4.28 0-1.2 0-2.38 0-3.22a12.57 12.57 0 0 0 -.2-2.32h3c-.08.58-.14 1.54-.18 2.32v1.44c1.56 0 3.88-.12 5.52-.3l.1 2.36c-1.66.16-4 .24-5.62.28 0 1.2.12 2.76.22 4.22a15.66 15.66 0 0 1 6 3.4zm-7.06-4a10.88 10.88 0 0 0 -1.64-.14c-1.54 0-2.46.52-2.46 1.36s1 1.34 2.38 1.34 1.74-.58 1.74-1.88c0-.14 0-.38-.02-.64z"/><path d="m310.8 608.42a17.77 17.77 0 0 0 -5.16 1c-.58.18-1.34.48-1.92.68l-.74-2.82a19.42 19.42 0 0 0 2.16-.34 27.44 27.44 0 0 1 6-.9c3.14 0 5.34 1.78 5.34 4.88 0 4.24-3.92 6.88-9.42 7.64l-1.46-2.56c4.92-.56 8.06-2.16 8.06-5.26 0-1.26-1-2.34-2.86-2.32zm4-6.26-.4 2.44c-2.32-.16-6.62-.54-8.9-.94l.4-2.4a55.94 55.94 0 0 0 8.9.9z"/><path d="m330.3 605.7a29 29 0 0 1 -3.44.68 36.56 36.56 0 0 1 -4.24 8.48l-2.42-1.22a30.22 30.22 0 0 0 4-7c-.34 0-.68 0-1 0-.82 0-1.62 0-2.48-.06l-.18-2.32a25.18 25.18 0 0 0 2.64.14c.58 0 1.18 0 1.78-.06a16.86 16.86 0 0 0 .54-3.32l2.74.28c-.16.64-.4 1.64-.68 2.7a20.92 20.92 0 0 0 2.66-.62zm2.6 1.78c-.06.84 0 1.66 0 2.54 0 .56.06 1.52.12 2.5a13.19 13.19 0 0 1 4.1 2.54l-1.32 2.12a17.63 17.63 0 0 0 -2.68-2.1v.18c0 1.84-1 3.28-3.82 3.28-2.46 0-4.4-1.1-4.4-3.28 0-1.94 1.62-3.44 4.38-3.44.46 0 .92 0 1.34.08-.06-1.48-.16-3.22-.22-4.42zm-2.18 6.52a7 7 0 0 0 -1.6-.2c-1.14 0-1.88.48-1.88 1.18s.62 1.24 1.7 1.24c1.34 0 1.78-.78 1.78-1.84zm5.58-5.5a26.41 26.41 0 0 0 -4.76-2.82l1.28-2a35.64 35.64 0 0 1 4.88 2.68z"/><path d="m358.58 611.8a40.59 40.59 0 0 1 -4 2.48 10.14 10.14 0 0 0 5 2.72 9.42 9.42 0 0 0 -1.54 2.12c-4.32-1.32-6.62-4.14-8-8.4a20.06 20.06 0 0 1 -2.76 1.84v3.56l4.86-.68.1 2.08c-3.12.5-6.5 1-8.94 1.32l-.34-2.18c.58-.06 1.24-.14 1.94-.24v-2.68a26.89 26.89 0 0 1 -2.84 1 13.94 13.94 0 0 0 -1.52-2 23.87 23.87 0 0 0 7-2.88h-6.24v-2h7.6v-1.08h-5.9v-1.9h5.74v-1h-6.72v-2h6.72v-1.44h2.38v1.44h7v2h-7v1h6.18v1.9h-6.18v1.08h7.66v2h-6.78a13.93 13.93 0 0 0 1.34 2.86 26.59 26.59 0 0 0 3.26-2.44z"/><path d="m369.1 614.18-7.26 2.12-.6-2.24c.8-.18 1.78-.44 2.86-.72v-4h-2.22v-2.18h2.22v-3.48h-2.4v-2.2h7v2.2h-2.3v3.48h2.08v2.18h-2.08v3.42l2.38-.66zm8.9 2.82c.36 0 .44-.32.48-2.32a6.12 6.12 0 0 0 2 .88c-.2 2.74-.72 3.48-2.2 3.48h-1.5c-1.84 0-2.24-.68-2.24-2.7v-3.92h-1.22c-.36 3.26-1.28 5.58-5.54 6.84a7 7 0 0 0 -1.32-2c3.62-.9 4.26-2.54 4.52-4.88h-1.46v-11.2h9.76v11.2h-2.46v3.92c0 .58 0 .66.38.66zm-6.28-12.6h5.22v-1.24h-5.24zm0 3h5.22v-1.24h-5.24zm0 3h5.22v-1.2h-5.24z"/><path d="m392.1 614.48c0-.58.06-1.5.08-2.36-1.46.8-2.26 1.58-2.26 2.56s.94 1.4 2.88 1.4a30.29 30.29 0 0 0 5.62-.58l-.08 2.58a54.8 54.8 0 0 1 -5.6.32c-3.1 0-5.44-.74-5.44-3.3s2.4-4.12 4.66-5.28a1.55 1.55 0 0 0 -1.38-.68 4.9 4.9 0 0 0 -3.1 1.36 25.37 25.37 0 0 0 -1.84 2.18l-2.12-1.58a19.36 19.36 0 0 0 4.36-5.44h-.24c-.8 0-2.26 0-3.34-.14v-2.32a25.41 25.41 0 0 0 3.48.22h1a11 11 0 0 0 .4-2.26l2.6.22c-.1.48-.24 1.16-.48 2a45.74 45.74 0 0 0 5.6-.58v2.32a64.52 64.52 0 0 1 -6.46.52 12.1 12.1 0 0 1 -1.14 2 6.2 6.2 0 0 1 2.24-.4 2.7 2.7 0 0 1 2.64 1.54c1-.48 1.86-.82 2.68-1.18s1.46-.68 2.18-1l1 2.3a21 21 0 0 0 -2.36.84c-.88.34-2 .78-3.22 1.34 0 1.1.06 2.56.08 3.46z"/><path d="m414.26 614.2c1.42 1.6 3.66 2.52 6.83 2.86a8.63 8.63 0 0 0 -1.4 2.08c-3.81-.6-6.19-2-7.77-4.5-1.18 1.78-3.4 3.36-7.48 4.46a9.71 9.71 0 0 0 -1.48-1.92c3.36-.76 5.28-1.8 6.38-3h-6v-2.06h7.18a9.17 9.17 0 0 0 .2-1.26h-5.12v-1.86h5.14v-1.2h-5.46v-1.32h-1.78v-4.26h7.3v-1.74h2.44v1.74h7.32v4.26h-1.6v1.32h-5.86v1.2h5.44v1.92h-5.46a6.79 6.79 0 0 1 -.16 1.26h7.9v2.06zm-3.54-8.36v-1.14h2.38v1.14h5v-1.58h-12.26v1.58z"/><path d="m431.1 614.18-7.26 2.12-.6-2.24c.8-.18 1.78-.44 2.86-.72v-4h-2.22v-2.18h2.22v-3.48h-2.4v-2.2h7v2.2h-2.3v3.48h2.08v2.18h-2.08v3.42l2.38-.66zm8.9 2.82c.36 0 .44-.32.48-2.32a6.21 6.21 0 0 0 2 .88c-.2 2.74-.72 3.48-2.2 3.48h-1.5c-1.84 0-2.24-.68-2.24-2.7v-3.92h-1.22c-.36 3.26-1.28 5.58-5.54 6.84a7 7 0 0 0 -1.32-2c3.62-.9 4.26-2.54 4.52-4.88h-1.46v-11.2h9.76v11.2h-2.46v3.92c0 .58 0 .66.38.66zm-6.28-12.6h5.22v-1.24h-5.24zm0 3h5.22v-1.24h-5.24zm0 3h5.22v-1.2h-5.24z"/><path d="m451.08 601.56a20.33 20.33 0 0 0 -.26 2.64c-.1 2.12-.24 6.56-.24 9 0 2 1.2 2.64 2.72 2.64 3.28 0 5.36-1.88 6.78-4l1.8 2.22a10.31 10.31 0 0 1 -8.6 4.52c-3.24 0-5.34-1.42-5.34-4.8 0-2.66.2-7.86.2-9.56a12.44 12.44 0 0 0 -.26-2.68z"/><path d="m466.28 603.54c1.64-.16 4.92-.44 8.54-.76 2-.16 4.22-.28 5.6-.34v2.56a20.45 20.45 0 0 0 -3.82.26 6 6 0 0 0 -4.18 5.54c0 3.26 3.06 4.42 6.4 4.6l-.92 2.74c-4.16-.28-8.08-2.52-8.08-6.8a7.92 7.92 0 0 1 2.92-6.1c-1.7.18-5.88.62-8.18 1.12l-.24-2.72c.8-.02 1.56-.06 1.96-.1z"/><path d="m487.82 605.52c0 1.28 0 2.78.12 4.2.28 2.86.88 4.8 2.12 4.8.94 0 1.72-2.32 2.1-3.88l2 2.4c-1.32 3.44-2.56 4.66-4.16 4.66-2.16 0-4.06-2-4.62-7.28-.18-1.82-.22-4.12-.22-5.34a11.48 11.48 0 0 0 -.14-2h3a15.69 15.69 0 0 0 -.2 2.44zm13.76 8.14-2.62 1c-.3-3.18-1.36-7.84-3.52-10.28l2.52-.84c1.88 2.3 3.4 7.08 3.62 10.12z"/><path d="m521 608.24a23 23 0 0 1 -3.06.8c.5 1.06 1.06 2.22 1.64 3.3l-1.18 1.5c-1.1-.2-3-.5-4.32-.66l.22-1.9c.78.1 1.56.16 2.1.22l-.9-2.06a49.76 49.76 0 0 1 -8.7.12l-.1-2.28a40.2 40.2 0 0 0 7.9 0l-.34-.78-.48-1.12a39.27 39.27 0 0 1 -6.82-.08l-.12-2.26a37.29 37.29 0 0 0 6 .22 17.81 17.81 0 0 0 -1-1.7l2.82-.54a16.93 16.93 0 0 0 .62 2 24 24 0 0 0 3.8-.92l.42 2.22a28.58 28.58 0 0 1 -3.4.8l.38.86.46 1a21.2 21.2 0 0 0 3.54-1zm-11.1 3.76a5.87 5.87 0 0 0 -.48 1.92c0 1.24.88 2.08 3.46 2.08a28.82 28.82 0 0 0 5.24-.44l-.08 2.54a35.08 35.08 0 0 1 -5.1.38c-3.7 0-6-1.26-6-4a10.28 10.28 0 0 1 .48-2.7z"/><path d="m538.86 617.46a15 15 0 0 0 -4-2.74v.7c0 1.7-1.28 3-3.9 3-3.16 0-4.84-1.2-4.84-3.3s1.84-3.4 4.9-3.4a12.16 12.16 0 0 1 1.22.06c0-.6-.06-1.22-.08-1.8h-1c-1.16 0-3.44-.1-4.76-.26v-2.34a35.93 35.93 0 0 0 4.78.36h.94v-2.06h-.94a33 33 0 0 1 -4.3-.3v-2.26a26.22 26.22 0 0 0 4.3.38h1v-.9a7.93 7.93 0 0 0 -.1-1.36h2.7a13.24 13.24 0 0 0 -.14 1.4v.78a41.5 41.5 0 0 0 4.72-.48l.06 2.28c-1.3.12-2.9.28-4.8.38v2.06c2-.08 3.66-.26 5.28-.46v2.34c-1.78.2-3.32.34-5.24.4 0 .74.08 1.54.14 2.3a15.32 15.32 0 0 1 5.54 3zm-6.52-3.56a10.61 10.61 0 0 0 -1.62-.14c-1.4 0-2.16.54-2.16 1.22s.7 1.22 2.06 1.22c1.06 0 1.74-.32 1.74-1.46 0-.22 0-.5-.02-.84z"/><path d="m561 605.94c-1.2-.06-3.06-.1-5.74-.1v2.94a4.88 4.88 0 0 1 .74 2.74c0 2.58-1.52 5.86-6.36 7.22l-2.1-2.12a9.05 9.05 0 0 0 4.84-2.26 4.28 4.28 0 0 1 -.9.1 3.49 3.49 0 0 1 -3.42-3.64 3.73 3.73 0 0 1 4-3.7 4.75 4.75 0 0 1 .78.06v-1.32c-3 0-6.06.16-8.5.3l-.06-2.4c2.26 0 5.86-.1 8.52-.14a5.08 5.08 0 0 0 0-.6 13.4 13.4 0 0 0 -.18-1.72h2.88c-.06.32-.12 1.38-.14 1.7v.6h5.74zm-9 6.32c.82 0 1.56-.62 1.3-2.34a1.41 1.41 0 0 0 -1.3-.7 1.52 1.52 0 1 0 0 3z"/><path d="m569.52 615.64a3.23 3.23 0 1 1 -3.24-3.24 3.24 3.24 0 0 1 3.24 3.24zm-1.44 0a1.79 1.79 0 1 0 -1.8 1.78 1.79 1.79 0 0 0 1.8-1.78z"/><path d="m1.44 702.56h3v12.32h6v2.48h-9z"/><path d="m12 711.78c0-3.64 2.54-5.9 5.22-5.9 3.08 0 4.68 2.26 4.68 5.36a5.46 5.46 0 0 1 -.14 1.34h-6.86a2.94 2.94 0 0 0 3.1 2.8 4.62 4.62 0 0 0 2.52-.78l1 1.8a7.07 7.07 0 0 1 -3.92 1.24c-3.12 0-5.6-2.18-5.6-5.86zm7.38-1.14c0-1.52-.68-2.48-2.12-2.48a2.53 2.53 0 0 0 -2.44 2.48z"/><path d="m24.78 713.44v-5h-1.58v-2.14l1.72-.14.34-3h2.46v3h2.76v2.32h-2.76v5c0 1.28.52 1.88 1.52 1.88a3.27 3.27 0 0 0 1.1-.24l.48 2.14a7.24 7.24 0 0 1 -2.36.42c-2.66-.04-3.68-1.68-3.68-4.24z"/><path d="m33 704.54-.1-2.78h3l-.1 2.78-.58 4.3h-1.62z"/><path d="m38.2 716.06 1.34-1.84a4.86 4.86 0 0 0 3 1.22c1.12 0 1.62-.48 1.62-1.18s-1.16-1.26-2.34-1.68c-1.42-.54-3.06-1.4-3.06-3.26 0-2 1.64-3.44 4.16-3.44a6.27 6.27 0 0 1 3.82 1.38l-1.32 1.74a4.31 4.31 0 0 0 -2.42-1c-1 0-1.48.44-1.48 1.08 0 .82 1.1 1.12 2.28 1.56 1.48.56 3.12 1.3 3.12 3.38s-1.54 3.54-4.46 3.54a7.06 7.06 0 0 1 -4.26-1.5z"/><path d="m53.7 706.16h2.4l.2 1.5h.08a4.72 4.72 0 0 1 3.44-1.78 3 3 0 0 1 3.08 2 5 5 0 0 1 3.56-2c2.38 0 3.49 1.68 3.49 4.5v7h-2.95v-6.62c0-1.72-.5-2.34-1.56-2.34a3.27 3.27 0 0 0 -2.16 1.26v7.7h-2.94v-6.62c0-1.72-.5-2.34-1.56-2.34a3.27 3.27 0 0 0 -2.16 1.26v7.7h-2.92z"/><path d="m72.42 714.32c0-2.4 1.94-3.66 6.44-4.14 0-1.1-.52-1.94-1.9-1.94a6.33 6.33 0 0 0 -3.08 1.06l-1.06-1.94a9 9 0 0 1 4.68-1.48c2.84 0 4.3 1.7 4.3 4.94v6.54h-2.4l-.22-1.2h-.06a5.27 5.27 0 0 1 -3.38 1.48 3.18 3.18 0 0 1 -3.32-3.32zm6.44-.08v-2.24c-2.72.36-3.64 1.1-3.64 2.1s.62 1.26 1.48 1.26a3 3 0 0 0 2.16-1.12z"/><path d="m84.8 701.4h2.86v9.6h.08l3.88-4.84h3.2l-3.88 4.58 4.24 6.62h-3.18l-2.72-4.64-1.62 1.84v2.8h-2.86z"/><path d="m96.2 711.78c0-3.64 2.54-5.9 5.22-5.9 3.08 0 4.68 2.26 4.68 5.36a5.46 5.46 0 0 1 -.14 1.34h-6.9a2.94 2.94 0 0 0 3.1 2.8 4.62 4.62 0 0 0 2.52-.78l1 1.8a7.07 7.07 0 0 1 -3.92 1.24c-3.12 0-5.56-2.18-5.56-5.86zm7.38-1.14c0-1.52-.68-2.48-2.12-2.48a2.53 2.53 0 0 0 -2.46 2.48z"/><path d="m112 716.06 1.34-1.84a4.86 4.86 0 0 0 3 1.22c1.12 0 1.62-.48 1.62-1.18s-1.16-1.22-2.34-1.68c-1.42-.54-3.06-1.4-3.06-3.26 0-2 1.64-3.44 4.16-3.44a6.27 6.27 0 0 1 3.82 1.38l-1.32 1.74a4.31 4.31 0 0 0 -2.42-1c-1 0-1.48.44-1.48 1.08 0 .82 1.1 1.12 2.28 1.56 1.48.56 3.12 1.3 3.12 3.38s-1.54 3.54-4.46 3.54a7.06 7.06 0 0 1 -4.26-1.5z"/><path d="m123 701.4h2.92v4l-.12 2.1a5.1 5.1 0 0 1 3.52-1.64c2.42 0 3.46 1.68 3.46 4.5v7h-2.98v-6.62c0-1.72-.48-2.34-1.58-2.34a3.22 3.22 0 0 0 -2.34 1.26v7.7h-2.88z"/><path d="m135.48 702.76a1.76 1.76 0 0 1 3.5 0 1.76 1.76 0 0 1 -3.5 0zm.28 3.4h2.92v11.2h-2.92z"/><path d="m142.26 713.44v-5h-1.58v-2.14l1.72-.14.34-3h2.46v3h2.8v2.32h-2.8v5c0 1.28.52 1.88 1.52 1.88a3.27 3.27 0 0 0 1.1-.24l.48 2.14a7.24 7.24 0 0 1 -2.36.42c-2.66-.04-3.68-1.68-3.68-4.24z"/><path d="m154.78 701.4h2.92v4l-.12 2.1a5.1 5.1 0 0 1 3.52-1.64c2.42 0 3.46 1.68 3.46 4.5v7h-2.94v-6.62c0-1.72-.48-2.34-1.58-2.34a3.22 3.22 0 0 0 -2.34 1.26v7.7h-2.92z"/><path d="m167 714.32c0-2.4 1.94-3.66 6.44-4.14 0-1.1-.52-1.94-1.9-1.94a6.33 6.33 0 0 0 -3.08 1.06l-1.06-1.94a9 9 0 0 1 4.68-1.48c2.84 0 4.3 1.7 4.3 4.94v6.54h-2.38l-.22-1.2h-.06a5.27 5.27 0 0 1 -3.38 1.48 3.18 3.18 0 0 1 -3.34-3.32zm6.44-.08v-2.24c-2.72.36-3.64 1.1-3.64 2.1s.62 1.26 1.48 1.26a3 3 0 0 0 2.18-1.12z"/><path d="m179.4 706.16h2.4l.2 1.16h.08a5.32 5.32 0 0 1 3.3-1.44c2.76 0 4.4 2.26 4.4 5.7 0 3.84-2.3 6.06-4.76 6.06a4.16 4.16 0 0 1 -2.78-1.22l.08 1.84v3.4h-2.92zm7.36 5.46c0-2.14-.68-3.32-2.22-3.32a3.16 3.16 0 0 0 -2.22 1.16v4.92a3.13 3.13 0 0 0 2 .84c1.4 0 2.44-1.16 2.44-3.6z"/><path d="m192.28 706.16h2.4l.2 1.16h.12a5.32 5.32 0 0 1 3.3-1.44c2.76 0 4.4 2.26 4.4 5.7 0 3.84-2.3 6.06-4.76 6.06a4.16 4.16 0 0 1 -2.78-1.22l.08 1.84v3.4h-2.92zm7.36 5.46c0-2.14-.68-3.32-2.22-3.32a3.16 3.16 0 0 0 -2.22 1.16v4.92a3.13 3.13 0 0 0 2 .84c1.4 0 2.44-1.16 2.44-3.6z"/><path d="m204.46 711.78c0-3.64 2.54-5.9 5.22-5.9 3.08 0 4.68 2.26 4.68 5.36a5.46 5.46 0 0 1 -.14 1.34h-6.9a2.94 2.94 0 0 0 3.1 2.8 4.62 4.62 0 0 0 2.52-.78l1 1.8a7.07 7.07 0 0 1 -3.92 1.24c-3.12 0-5.56-2.18-5.56-5.86zm7.38-1.14c0-1.52-.68-2.48-2.12-2.48a2.53 2.53 0 0 0 -2.44 2.48z"/><path d="m216.78 706.16h2.4l.2 1.48h.08a5.16 5.16 0 0 1 3.64-1.76c2.42 0 3.46 1.68 3.46 4.5v7h-2.94v-6.62c0-1.72-.48-2.34-1.58-2.34a3.22 3.22 0 0 0 -2.34 1.26v7.7h-2.92z"/><path d="m229.44 715.72a1.83 1.83 0 1 1 1.82 1.92 1.84 1.84 0 0 1 -1.82-1.92z"/></svg>