<svg xmlns="http://www.w3.org/2000/svg" viewBox="0 0 768 418.92"><title>about-zh</title><g id="Layer_2" data-name="Layer 2"><g id="レイヤー_1" data-name="レイヤー 1"><path d="M17.88,9.48a19.76,19.76,0,0,1-3.32,4.38c.54,1.54,1.16,2.46,1.76,2.46.42,0,.66-1,.76-3.32a6.08,6.08,0,0,0,2,1.36c-.38,3.5-1.12,4.38-2.94,4.38-1.46,0-2.58-1.2-3.44-3.16A20.74,20.74,0,0,1,9,18,10.43,10.43,0,0,0,7.38,16.1a20.37,20.37,0,0,0,4.46-2.82,37.07,37.07,0,0,1-1-5.36H6.76V10.2l3.08-.56L10,11.8l-3.26.66v3.42c0,1.3-.28,1.94-1.08,2.32a8.6,8.6,0,0,1-3.6.46,9.55,9.55,0,0,0-.84-2.4c1.12.06,2.28,0,2.64,0s.48-.1.48-.42V13c-1.28.26-2.52.52-3.58.72L.2,11.28c1.14-.18,2.58-.4,4.16-.68V7.92H.58V5.66H4.36V3.38c-1.08.18-2.18.32-3.2.44a9.08,9.08,0,0,0-.68-2A50.79,50.79,0,0,0,8.42.14l1.6,2c-1,.3-2.1.56-3.26.8v2.7H10.6c-.16-1.8-.22-3.66-.24-5.48h2.5a49.28,49.28,0,0,0,.2,5.48H18.5V7.92H13.3c.16,1.2.36,2.36.58,3.38a16.63,16.63,0,0,0,1.9-2.72Zm-1.46-4.4a15.86,15.86,0,0,0-2.84-3.3L15.38.56a17.26,17.26,0,0,1,3,3.18Z"/><path d="M31.46,8.68H28v9.94h-2.2V1.1c-.4,1.14-.86,2.32-1.38,3.46v14.1H22.18v-10a16,16,0,0,1-1.24,1.64A16.54,16.54,0,0,0,19.8,7.74a22,22,0,0,0,4-7.72L26,.68l-.12.38h5.62ZM28,2.86V4h1.64V2.86Zm1.64,4V5.7H28V6.88Zm8.64,9c0,1.32-.28,2-1.08,2.3a10.41,10.41,0,0,1-4,.44,8.63,8.63,0,0,0-.76-2.3c1.22.08,2.6.06,3,0s.52-.12.52-.5V8.68H32.36V1.06H38.3Zm-4.06-13V4H36V2.86Zm1.78,4V5.7H34.24V6.88Z"/><path d="M50.94,16.1c.52,0,1.06.06,1.6.06,1.12,0,5,0,6.38-.06a8.09,8.09,0,0,0-.8,2.28h-5.7c-3.66,0-6.14-.52-7.82-2.84a9,9,0,0,1-2.8,3.18A9.59,9.59,0,0,0,40,17.06,8.45,8.45,0,0,0,43.72,11l2.38.36c-.14.64-.3,1.24-.46,1.82a4.4,4.4,0,0,0,2.88,2.5V10.6h-7.8V8.5H58.36v2.1H50.94v1.5H57.1v2.06H50.94Zm5.52-8.48H42.56V.68h13.9ZM54,2.34H44.88v1H54Zm0,2.58H44.88V6H54Z"/><path d="M64.08,5.48V4.72A19.3,19.3,0,0,1,62.3,6.18h8V12.4H63.84c0,.26-.08.54-.14.8h6.9v5.38H68.54V18H65.16v.62h-2v-3.3a9.49,9.49,0,0,1-1.54,2.92,7.49,7.49,0,0,0-1.56-1.42c1.76-2.3,2-5.5,2-7.76V6.36l-.66.44A6.74,6.74,0,0,0,60,5.12,13.84,13.84,0,0,0,65,.24H67.1a39.45,39.45,0,0,1,4.18,3.6L69.76,5.6c-.28-.32-.64-.72-1.06-1.16v1Zm4.08,5.26V10H64c0,.24,0,.5,0,.76Zm-4.1-2.9v.72h4.1V7.84Zm4.08-4c-.58-.56-1.2-1.14-1.78-1.6-.42.52-.88,1.06-1.4,1.6Zm-3,11v1.42h3.38V14.9Zm8.56-1.22H71.48V2.42h2.24ZM78.16.4V15.84c0,1.32-.26,2-1.06,2.34a8.84,8.84,0,0,1-3.72.48,9.73,9.73,0,0,0-.78-2.42c1.2,0,2.36,0,2.74,0s.5-.12.5-.46V.4Z"/><path d="M80.12,17a6.61,6.61,0,0,0,2.62-3.38l2,.7A7.63,7.63,0,0,1,82,18.28ZM98.2,6.1H80.9V4.26h4.28a12.14,12.14,0,0,0-.5-1.34l.1,0h-2.9V1.06h6.44V0h2.36V1.06h6.46V2.9H94.32l.3.06c-.3.52-.6.94-.84,1.3H98.2ZM91.4,16.56c.74,0,.86-.22,1-1.64a6.42,6.42,0,0,0,2,.76c-.26,2.22-.9,2.78-2.76,2.78H88.4c-2.52,0-3.14-.58-3.14-2.48v-2.1h2.16l-.24-.1L88,13H83V6.92H96.26V13h-6.5a12.72,12.72,0,0,1,2.08,1.22L90.4,15.68A12.48,12.48,0,0,0,87.58,14v2c0,.54.16.6,1.06.6ZM85.26,9.24H93.9V8.38H85.26Zm0,2.28H93.9v-.9H85.26Zm1.8-8.62a12.18,12.18,0,0,1,.48,1.3l-.26.06h4.44l-.28-.06c.18-.38.42-.88.58-1.3Zm8.58,10.5A14.69,14.69,0,0,1,98.9,17l-2,1.14a16.58,16.58,0,0,0-3.14-3.74Z"/><path d="M107.5.9a31.78,31.78,0,0,1-1.86,3.68V18.64h-2.48V8.14a18.85,18.85,0,0,1-2.08,2.24A15.28,15.28,0,0,0,99.76,8a20.9,20.9,0,0,0,5.46-7.8ZM113,8.14c.56,4.44,1.62,7.4,3.22,7.6.46,0,.7-1,.86-3.18A8.18,8.18,0,0,0,119,13.92c-.5,3.86-1.58,4.78-2.7,4.72-3.38-.32-5-4.08-5.68-10.18L106.68,9l-.34-2.3,4-.54c-.14-1.8-.26-3.76-.32-5.86h2.42c0,2,.12,3.84.26,5.54l5.7-.74.34,2.24Zm3.58-3.54a17,17,0,0,0-2.74-3.36L115.6.14a18.06,18.06,0,0,1,2.88,3.22Z"/><path d="M127.1,14.68c-2.2.78-4.6,1.54-6.52,2.16L120,14.42c.7-.18,1.52-.4,2.44-.66V9.06h-2V6.88h2V3.36h-2.2V1.14h6.6V3.36h-2.14V6.88h1.8V9.06h-1.8v4c.66-.2,1.32-.4,2-.62ZM139,15.9v2.16H126.12V15.9h5.52V14H127.5V11.86h4.14V10.14h-4V.84h10.44v9.3h-4v1.72h4.24V14h-4.24v1.9Zm-9.2-11.38h2.06V2.86h-2.06Zm0,3.6h2.06V6.4h-2.06Zm6-5.26h-2V4.52h2Zm0,3.54h-2V8.12h2Z"/><path d="M154.72,3.68c-.32.58-.62,1.12-.88,1.56h4V16.08c0,1.18-.24,1.82-1,2.2a8.91,8.91,0,0,1-3.46.4,9.61,9.61,0,0,0-.68-2h-4.88v1.1h-2.1V11.48h7.84v5c.7,0,1.32,0,1.56,0s.44-.1.44-.4V9.92a1.54,1.54,0,0,1-1.6.8H152.3c-1.78,0-2.14-.54-2.14-2.16V7.28h-1.62c-.18,2.22-.92,3.5-4,4.2a4.82,4.82,0,0,0-.86-1.4v8.56h-2.26V5.24H145a13.33,13.33,0,0,0-.62-1.56h-3.62V1.52h7.44V0h2.42v1.5h7.64V3.68Zm-11,6.12c2.14-.42,2.6-1.14,2.74-2.52h-2.74Zm7.5-4.56c.24-.48.52-1,.74-1.56h-5a9.55,9.55,0,0,1,.64,1.56Zm.16,8h-3.6v1.68h3.6Zm4.14-6H152.2V8.54c0,.42.06.48.4.48h1c.34,0,.42-.14.48-1.1a5.82,5.82,0,0,0,1.4.56Z"/><path d="M162.76,18.08c1.56-.5,2.46-1.36,2.58-2.42a.75.75,0,0,1-.22,0,1.77,1.77,0,0,1-1.9-1.78,1.82,1.82,0,0,1,2-1.8c1.42,0,2.16,1.06,2.16,2.74a5,5,0,0,1-3.94,4.86Z"/><path d="M190.94,16.1c.52,0,1.06.06,1.6.06,1.12,0,5,0,6.38-.06a8.09,8.09,0,0,0-.8,2.28h-5.7c-3.66,0-6.14-.52-7.82-2.84a9,9,0,0,1-2.8,3.18,9.59,9.59,0,0,0-1.8-1.66A8.45,8.45,0,0,0,183.72,11l2.38.36c-.14.64-.3,1.24-.46,1.82a4.4,4.4,0,0,0,2.88,2.5V10.6h-7.8V8.5h17.64v2.1h-7.42v1.5h6.16v2.06h-6.16Zm5.52-8.48h-13.9V.68h13.9ZM194,2.34h-9.16v1H194Zm0,2.58h-9.16V6H194Z"/><path d="M217.8,5.84a25.2,25.2,0,0,1-2,7.64A8.83,8.83,0,0,0,219,16.82a8.33,8.33,0,0,0-1.54,1.9,10,10,0,0,1-2.92-3,12,12,0,0,1-3.4,3.06,10.11,10.11,0,0,0-1-1.66l-1.38,1.36a18,18,0,0,0-2.1-1.28,15,15,0,0,1-5.06,1.58,5.43,5.43,0,0,0-.84-1.82,13.51,13.51,0,0,0,3.78-.76l-1.08-.44-.16.26-1.9-.46c.34-.5.72-1.12,1.12-1.78l-2.14,0L200.24,12c.92,0,2,0,3.2,0,.16-.28.3-.54.44-.8H201V7.5h3.54V6.88h-3.14V4.76h-1.26V3.08h1.26V1h3.14V0h2V1h3.32v2.1h1.3V4.76h-1.3V6.88H206.6V7.5h3.72v.64A23.86,23.86,0,0,0,212.46,0l2.26.3c-.14,1.14-.34,2.26-.56,3.34h4.7v2.2ZM203,9.78h1.58V8.94H203Zm.4-7.3V3.2h1.18V2.48Zm1.18,2.9V4.64H203.4v.74Zm-.26,8.9c.66.22,1.32.48,2,.76a5,5,0,0,0,.9-1.36l-2.54,0Zm5-.66a6.38,6.38,0,0,1-1.18,2.26c.62.32,1.2.62,1.68.9a9.23,9.23,0,0,0,3.52-3.32,24.58,24.58,0,0,1-1.2-3.88,10.44,10.44,0,0,1-.78,1.32,9.94,9.94,0,0,0-1.06-1.18V11.2h-4.44l.18,0-.4.74,5.58-.08-.06,1.68ZM206.6,2.48V3.2h1.26V2.48Zm1.26,2.9V4.64H206.6v.74ZM206.6,8.94v.84h1.66V8.94Zm7-3.1,0,.12a29.43,29.43,0,0,0,1.08,4.7,26.07,26.07,0,0,0,.94-4.82Z"/><path d="M226.86.78A32.62,32.62,0,0,1,225,4.64v14h-2.26V8a19.38,19.38,0,0,1-1.64,1.88,16.1,16.1,0,0,0-1.26-2.48A20.57,20.57,0,0,0,224.64,0ZM238.94,15.6v2.24H226V15.6h6.56a52.94,52.94,0,0,0,1.92-9l2.6.42a77.53,77.53,0,0,1-2.22,8.54Zm-7.82-12V.26h2.4V3.6h5V5.86h-12.1V3.6ZM229,15a43.43,43.43,0,0,0-1.2-7.82l2.14-.38a47.48,47.48,0,0,1,1.42,7.7Z"/><path d="M257.84,13.64a27,27,0,0,1-3.3,1.84,13.52,13.52,0,0,0,4.34,1.34,8.21,8.21,0,0,0-1.3,1.9c-4.16-.8-6.66-2.68-8.16-5.86a15.06,15.06,0,0,1-2.36,1.42V16l4-.52.08,1.86c-2.82.4-5.8.8-8,1.12l-.34-1.94,2-.22V15.2a22.79,22.79,0,0,1-3.3.84,10.24,10.24,0,0,0-1.26-1.72,22.55,22.55,0,0,0,6.18-1.68h-5.84V10.76h7.78v-1h-.8A6.08,6.08,0,0,0,247,8.36c.46,0,.94,0,1.08,0s.24-.06.24-.22V7.34h-1.64v2.92h-2V7.34h-1.5V9.82h-1.8V5.9h3.3V5.2h-4.1V3.6h1.22c-.4-.24-.92-.54-1.24-.7A8.7,8.7,0,0,0,242.06,0l1.74.44c-.1.28-.2.54-.32.82h1.14V0h2V1.28H250V2.8h-3.32v.8h3.86V5.2h-3.86v.7h3.54V8.16c0,.76-.14,1.12-.66,1.36a2.61,2.61,0,0,1-.94.2h2.12v1h7.8v1.88h-2Zm-13.22-10V2.8h-1.9a7.78,7.78,0,0,1-.5.8Zm8.82,3.86h-2.12V.8h2.12Zm-1.92,5.18a7.32,7.32,0,0,0,1.42,1.72,23.27,23.27,0,0,0,2.84-1.72Zm6.26-4.5c0,1-.2,1.52-.92,1.82a8.41,8.41,0,0,1-3.06.32,7.38,7.38,0,0,0-.7-1.88c.9,0,1.86,0,2.14,0s.38-.08.38-.34V.14h2.16Z"/><path d="M266.88.8A31.15,31.15,0,0,1,265,5v13.7h-2.4v-10c-.42.5-.84,1-1.24,1.44A16.25,16.25,0,0,0,260,7.56,20.81,20.81,0,0,0,264.56.08Zm6.34,4.72v2.1h5.18V9.78h-5.18V12h5.44v2.2h-5.44v4.44h-2.44V5.52H270A22.21,22.21,0,0,1,267.4,9.4a16.18,16.18,0,0,0-1.82-1.66A19.85,19.85,0,0,0,269.82.2l2.3.58a23.64,23.64,0,0,1-1,2.48h7.76V5.52Z"/><path d="M288.16,1.22a24.35,24.35,0,0,1-5.42,8.14,14.48,14.48,0,0,0-2.28-1.78,17.1,17.1,0,0,0,5-7.14Zm5.56,9.36a45.87,45.87,0,0,1,4.6,6.9l-2.48,1.3a13.6,13.6,0,0,0-.82-1.6c-4.8.32-9.84.62-13.36.78l-.32-2.5,2.78-.1a48.91,48.91,0,0,0,3.42-8.08l2.86.66a75,75,0,0,1-3.56,7.3l6.82-.34c-.72-1.12-1.52-2.26-2.26-3.24ZM293.44.48A26.88,26.88,0,0,0,298.7,7.3a12.31,12.31,0,0,0-2,2.08,41.59,41.59,0,0,1-5.64-7.92Z"/><path d="M317.56,15.66c0,1.36-.24,2.08-1.1,2.5a9.09,9.09,0,0,1-3.88.46A9.77,9.77,0,0,0,311.8,16c1.12.08,2.44.06,2.82,0s.5-.1.5-.44V3.46h-14V1.2h16.4ZM313.12,7H301.36V4.88h11.76ZM304.7,15.2v1.44h-2.32V8.44h9.7V15.2Zm0-4.72v2.68h5V10.48Z"/><path d="M10.94,66.1c.52,0,1.06.06,1.6.06,1.12,0,5,0,6.38-.06a8.09,8.09,0,0,0-.8,2.28h-5.7c-3.66,0-6.14-.52-7.82-2.84a9,9,0,0,1-2.8,3.18A9.59,9.59,0,0,0,0,67.06,8.45,8.45,0,0,0,3.72,61l2.38.36C6,62,5.8,62.6,5.64,63.18a4.4,4.4,0,0,0,2.88,2.5V60.6H.72V58.5H18.36v2.1H10.94v1.5H17.1v2.06H10.94Zm5.52-8.48H2.56V50.68h13.9ZM14,52.34H4.88v1H14Zm0,2.58H4.88v1H14Z"/><path d="M28,55.18H20.18V53.3H28Zm10,3.88a13.49,13.49,0,0,1-3.08,5.82A13.66,13.66,0,0,0,39,66.6a10.25,10.25,0,0,0-1.54,2.06,13.94,13.94,0,0,1-4.4-2.18,16.15,16.15,0,0,1-4.58,2.18,10.07,10.07,0,0,0-1.24-2.06v1H23.08v.78h-2V61.58h6.2v5a13.11,13.11,0,0,0,4-1.72A13.91,13.91,0,0,1,29,61.38l2-.66H28.26V58.58h.68a10.6,10.6,0,0,0-1.66-1.44v.76H21.12V56.08h6.16v1a4.49,4.49,0,0,0,1.94-4.1V50.56h6.7V55c0,.56,0,.62.26.62h.5c.26,0,.34-.26.36-2A6.79,6.79,0,0,0,39,54.5c-.2,2.48-.72,3.18-2.06,3.18H35.76c-1.6,0-2.06-.62-2.06-2.6V52.66H31.46V53A6.33,6.33,0,0,1,29,58.58h7l.4-.1ZM27.28,60.6H21.12V58.82h6.16Zm0-8.18h-6v-1.8h6Zm-2,11H23.08v2.3H25.2Zm5.9-2.74A9.85,9.85,0,0,0,33,63.42a9.48,9.48,0,0,0,1.88-2.7Z"/><path d="M48.36,55.18H40.18V53.3h8.18ZM47.5,67.62H43.14v.78H41.08V61.58H47.5ZM41.14,56.08h6.42V57.9H41.14Zm0,2.74h6.42V60.6H41.14Zm6.46-6.4H41.26v-1.8H47.6Zm-4.46,11v2.3h2.28v-2.3ZM59,59H54.86v9.64h-2.4V59H48.28V56.68h4.18v-6.6h2.4v6.6H59Z"/><path d="M78.66,64.9v2.4H60.48V64.9H68.1V54.56H61.56V52.08h16v2.48H70.82V64.9Z"/><path d="M86.88,50.8A31.15,31.15,0,0,1,85,55v13.7h-2.4v-10c-.42.5-.84,1-1.24,1.44A16.25,16.25,0,0,0,80,57.56a20.81,20.81,0,0,0,4.56-7.48Zm6.34,4.72v2.1H98.4v2.16H93.22V62h5.44v2.2H93.22v4.44H90.78V55.52H90A22.21,22.21,0,0,1,87.4,59.4a16.18,16.18,0,0,0-1.82-1.66,19.85,19.85,0,0,0,4.24-7.54l2.3.58a23.64,23.64,0,0,1-1,2.48H98.9v2.26Z"/><path d="M118.44,66v2.1H100.72V66h7.52V64.48H102.5v-2h5.74V60.78l-6,.16-.1-2.12,2.84,0c.3-.6.62-1.26.88-1.88H103V55.46h-2.2V51.3h7.46V50h2.44V51.3h7.64v4.16h-2.2V56.9h-2.5a25.3,25.3,0,0,1,4,3.5l-1.86,1.3a14.49,14.49,0,0,0-1-1.12l-4.06.12v1.74h6.16v2h-6.16V66ZM103.1,53.46v1.42h12.8V53.46Zm5.48,3.44c-.36.62-.76,1.26-1.12,1.84l5.14-.1c-.38-.32-.76-.62-1.12-.88l1.28-.86Z"/><path d="M122.76,68.08c1.56-.5,2.46-1.36,2.58-2.42a.75.75,0,0,1-.22,0,1.77,1.77,0,0,1-1.9-1.78,1.82,1.82,0,0,1,2-1.8c1.42,0,2.16,1.06,2.16,2.74a5,5,0,0,1-3.94,4.86Z"/><path d="M150.94,66.1c.52,0,1.06.06,1.6.06,1.12,0,5,0,6.38-.06a8.09,8.09,0,0,0-.8,2.28h-5.7c-3.66,0-6.14-.52-7.82-2.84a9,9,0,0,1-2.8,3.18,9.59,9.59,0,0,0-1.8-1.66A8.45,8.45,0,0,0,143.72,61l2.38.36c-.14.64-.3,1.24-.46,1.82a4.4,4.4,0,0,0,2.88,2.5V60.6h-7.8V58.5h17.64v2.1h-7.42v1.5h6.16v2.06h-6.16Zm5.52-8.48h-13.9V50.68h13.9ZM154,52.34h-9.16v1H154Zm0,2.58h-9.16v1H154Z"/><path d="M161,59.68h7.62v8.9H166.2v-.9h-3v1H161ZM163.22,62V65.4h3V62ZM175.44,58H163.72V50.78h11.72Zm-2.42-5h-7v2.7h7Zm5.12,6.62V68.6h-2.4v-.92h-3.18v1h-2.28v-9Zm-2.4,5.72V62h-3.18V65.4Z"/><path d="M183.34,57.94c0,.5,0,1.06,0,1.62h3.78V68.7H185V61.56h-1.74A28,28,0,0,1,182,68.72a11.54,11.54,0,0,0-2-.7c1.08-2.88,1.26-7.28,1.26-10.08V50.52h2v4.72h1.26V50h2.06v5.22H188v2h-4.64Zm15.38,6.8H196.1v4h-2.22v-4h-6.24v-2h1.76a8.91,8.91,0,0,0-1.22-1A6.92,6.92,0,0,0,191,59.82h-2.72v-8h3.14a12.84,12.84,0,0,0,.62-1.88l2.62.44q-.42.75-.84,1.44h4.36v8H193.5a6.82,6.82,0,0,1-3.2,2.94h3.58V60.22h2.22v2.54h2.62ZM190.42,55h1.82V53.64h-1.82Zm1.6,3a8.59,8.59,0,0,0,.22-1.38h-1.82V58Zm4-1.38h-1.8A11.13,11.13,0,0,1,194.1,58H196Zm0-3h-1.8V55H196Z"/><path d="M210,67a10.27,10.27,0,0,0,2.42-2.12L214.34,66a13.16,13.16,0,0,1-3.46,2.76c-.28-.3-.72-.72-1.12-1.08h-4.48v.8h-1.66V63l0,0c-.14-.16-.38-.4-.62-.62a18.07,18.07,0,0,1-1.34,6.08,7.22,7.22,0,0,0-1.68-1.22c1.08-2.42,1.16-5.84,1.16-8.3V53.78h8.52V58.2h-2l1.26.34-.6,1.18h1.52v1.46H208V62h1.72v1.3H208V64h1.72v1.3H208v.78H210Zm-.42-14.2h-9v-2h9Zm-6.54,6.18c0,.58,0,1.24,0,1.92a10.75,10.75,0,0,0,1.22-2.66h-1.18Zm0-3.54v1.18h4.42V55.4Zm2.88,3c-.14.44-.3.9-.48,1.34h1.1c.18-.5.36-1.06.48-1.52h-1.84Zm.52,2.8h-1.2V62h1.2Zm0,2.08h-1.2V64h1.2Zm-1.2,2.84h1.2v-.78h-1.2Zm7.86-12c.06-.42.1-.84.14-1.26h-2.94v-2h8.26v2h-3q-.18.66-.36,1.26h3v10.6h-7.54V54.06Zm3.12,1.8h-3.58v1.22h3.58Zm0,2.88h-3.58V60h3.58Zm0,2.92h-3.58v1.22h3.58Zm.28,3.26a20.68,20.68,0,0,1,2.56,2.58l-1.78,1.2A21.13,21.13,0,0,0,214.86,66Z"/><path d="M223.52,58.2V68.68h-2.36V50.76h7.64V58.2Zm0-5.62v1.08h3.06V52.58Zm3.06,3.82V55.26h-3.06V56.4Zm1.22,9.46V67h-2.22v-7.4h7.74v6.28Zm0-4.32V63.9h3.3V61.54ZM238,65.84c0,1.32-.28,2-1.12,2.38a9.82,9.82,0,0,1-3.92.46,8.52,8.52,0,0,0-.8-2.44c1.16.08,2.52.06,2.9,0s.52-.12.52-.48V58.22h-5.42V50.76H238Zm-5.58-13.28v1.1h3.16v-1.1Zm3.16,3.86V55.26h-3.16v1.16Z"/><path d="M10.94,116.1c.52,0,1.06.06,1.6.06,1.12,0,5,0,6.38-.06a8.09,8.09,0,0,0-.8,2.28h-5.7c-3.66,0-6.14-.52-7.82-2.84a9,9,0,0,1-2.8,3.18A9.59,9.59,0,0,0,0,117.06,8.45,8.45,0,0,0,3.72,111l2.38.36c-.14.64-.3,1.24-.46,1.82a4.4,4.4,0,0,0,2.88,2.5V110.6H.72v-2.1H18.36v2.1H10.94v1.5H17.1v2.06H10.94Zm5.52-8.48H2.56v-6.94h13.9ZM14,102.34H4.88v1H14Zm0,2.58H4.88v1H14Z"/><path d="M24.08,105.48v-.76a19.3,19.3,0,0,1-1.78,1.46h8v6.22H23.84c0,.26-.08.54-.14.8h6.9v5.38H28.54V118H25.16v.62h-2v-3.3a9.49,9.49,0,0,1-1.54,2.92,7.49,7.49,0,0,0-1.56-1.42c1.76-2.3,2-5.5,2-7.76v-2.72l-.66.44A6.74,6.74,0,0,0,20,105.12a13.84,13.84,0,0,0,5-4.88H27.1a39.45,39.45,0,0,1,4.18,3.6l-1.52,1.76c-.28-.32-.64-.72-1.06-1.16v1Zm4.08,5.26V110H24c0,.24,0,.5,0,.76Zm-4.1-2.9v.72h4.1v-.72Zm4.08-4c-.58-.56-1.2-1.14-1.78-1.6-.42.52-.88,1.06-1.4,1.6Zm-3,11v1.42h3.38V114.9Zm8.56-1.22H31.48V102.42h2.24Zm4.44-13.28v15.44c0,1.32-.26,2-1.06,2.34a8.84,8.84,0,0,1-3.72.48,9.73,9.73,0,0,0-.78-2.42c1.2,0,2.36,0,2.74,0s.5-.12.5-.46V100.4Z"/><path d="M46.28,112.06c.72.5,2.38,1.82,2.84,2.18l-1.38,1.7a18.72,18.72,0,0,0-1.46-1.56v4.26H44v-4a14.13,14.13,0,0,1-2.54,2.82,8.79,8.79,0,0,0-1.54-1.68,13.12,13.12,0,0,0,3.6-3.86h-3v-2H44v-1.54H40.4v-2h1.84a9,9,0,0,0-.6-2.2l1.22-.28H40.62V102H44v-1.82h2.3V102H49.6v1.94H47.54l1.16.22c-.36.86-.68,1.66-1,2.26h2v2H46.28v1.54h3.3v2h-3.3Zm-2.76-8.14a7.89,7.89,0,0,1,.68,2.2l-1,.28h3.92l-1.32-.28a15,15,0,0,0,.74-2.2Zm15.32,4.86h-1.9v9.78h-2.3v-9.78h-2c0,3-.44,7.2-3.08,9.94a5.48,5.48,0,0,0-1.7-1.62c2.3-2.44,2.54-5.84,2.54-8.6v-6.94l1.4.4a23.33,23.33,0,0,0,5.08-1.76l1.9,1.74a32.41,32.41,0,0,1-6.14,1.84v2.8h6.24Z"/><path d="M73.44,115.84c1.84.52,3.68,1.1,4.92,1.52l-2.06,1.32c-1.34-.54-3.66-1.32-5.94-2l1-.86H67.5l1.18.8a22.23,22.23,0,0,1-6.76,2,11.27,11.27,0,0,0-1.42-1.54,27.84,27.84,0,0,0,5.34-1.3H63v-6.66H76.22v6.66Zm5-10.52V107H75.06l-.14,1.58H63.4l.2-1.58H60.68v-1.68h3.14l.2-1.6H75.38l-.16,1.6Zm-15.24-.6H61v-3.5h7.3V100H70.7v1.22H78v3.5H75.82v-1.64H63.16Zm2.1,6.28H73.8v-.58H65.26Zm0,1.78H73.8v-.6H65.26Zm0,1.8H73.8V114H65.26Zm.38-7.18h2.52l.08-.62H65.72Zm.32-2.48-.08.62H68.4l.06-.62Zm6.9,2.48.06-.62h-2.7l-.08.62Zm.22-2.48H70.42l-.06.62H73Z"/><path d="M80,117a9.75,9.75,0,0,0,.9-4.48l1.3.24c-.1,1.84-.26,3.7-1,4.86Zm17-4.28a12.93,12.93,0,0,1-.38,2.12A22,22,0,0,1,99,117.52l-1.5,1.16a21.6,21.6,0,0,0-1.56-2,6.07,6.07,0,0,1-1.82,2.08,8.52,8.52,0,0,0-1.28-1.26l-.56.6A12.61,12.61,0,0,0,91,116.5a6,6,0,0,1-1.88,2.24,8.15,8.15,0,0,0-1.4-1.34,1.76,1.76,0,0,1-.26.58,1.51,1.51,0,0,1-1.14.68,10.24,10.24,0,0,1-1.7.08,4.88,4.88,0,0,0-.46-1.78,9.53,9.53,0,0,0,1.18.06.52.52,0,0,0,.5-.24,4.86,4.86,0,0,0,.3-1.82l-.54.2a11.69,11.69,0,0,0-.84-2.58l.88-.28a11.72,11.72,0,0,1,.56,1.34c0-.58.06-1.26.08-2H81V100.72h7v1.86H85.88v1.24H87.6v1.74H85.88v1.22h1.78v1.74H85.88v1.28h2.3s0,.5,0,.76a44,44,0,0,1-.42,6.8c1.52-1,2.16-2.64,2.34-4.78l2,.12a14.27,14.27,0,0,1-.34,2,18.64,18.64,0,0,1,1.78,2,6.59,6.59,0,0,0,1.54-4.1Zm-13.66.1a21.55,21.55,0,0,1,.18,3.68l-1.08.12a21,21,0,0,0-.1-3.68Zm-.5-10.2v1.24h1.24v-1.24Zm1.24,3H82.84v1.22h1.24Zm-1.24,4.24h1.24v-1.28H82.84Zm1.7,2.78a17.36,17.36,0,0,1,.58,3.24l-1,.18a14.7,14.7,0,0,0-.56-3.24Zm6.24-7.4a11.73,11.73,0,0,1-2,1.48,7.26,7.26,0,0,0-1.06-2A11.62,11.62,0,0,0,92.2,100h2.12a11.94,11.94,0,0,0,4.8,4.48,15.44,15.44,0,0,0-1.2,2.1A13.65,13.65,0,0,1,96,105.26v1.22H90.78Zm-2,2.18h4.3v4.88h-4.3Zm1.56,3.38h1.12v-1.9H90.32Zm5.16-6a13.39,13.39,0,0,1-2.16-2.62,11.93,11.93,0,0,1-2.06,2.62Zm-1.7,2.62h4.46v4.88H93.78Zm1.54,3.38h1.26v-1.9H95.32Z"/><path d="M118.44,116v2.1H100.72V116h7.52v-1.54H102.5v-2h5.74v-1.66l-6,.16-.1-2.12,2.84,0c.3-.6.62-1.26.88-1.88H103v-1.44h-2.2V101.3h7.46V100h2.44v1.28h7.64v4.16h-2.2v1.44h-2.5a25.3,25.3,0,0,1,4,3.5l-1.86,1.3a14.49,14.49,0,0,0-1-1.12l-4.06.12v1.74h6.16v2h-6.16V116ZM103.1,103.46v1.42h12.8v-1.42Zm5.48,3.44c-.36.62-.76,1.26-1.12,1.84l5.14-.1c-.38-.32-.76-.62-1.12-.88l1.28-.86Z"/><path d="M122.76,118.08c1.56-.5,2.46-1.36,2.58-2.42a.75.75,0,0,1-.22,0,1.77,1.77,0,0,1-1.9-1.78,1.82,1.82,0,0,1,2-1.8c1.42,0,2.16,1.06,2.16,2.74a5,5,0,0,1-3.94,4.86Z"/><path d="M150.94,116.1c.52,0,1.06.06,1.6.06,1.12,0,5,0,6.38-.06a8.09,8.09,0,0,0-.8,2.28h-5.7c-3.66,0-6.14-.52-7.82-2.84a9,9,0,0,1-2.8,3.18,9.59,9.59,0,0,0-1.8-1.66,8.45,8.45,0,0,0,3.72-6.06l2.38.36c-.14.64-.3,1.24-.46,1.82a4.4,4.4,0,0,0,2.88,2.5V110.6h-7.8v-2.1h17.64v2.1h-7.42v1.5h6.16v2.06h-6.16Zm5.52-8.48h-13.9v-6.94h13.9ZM154,102.34h-9.16v1H154Zm0,2.58h-9.16v1H154Z"/><path d="M166.28,112.06c.72.5,2.38,1.82,2.84,2.18l-1.38,1.7a18.72,18.72,0,0,0-1.46-1.56v4.26H164v-4a14.13,14.13,0,0,1-2.54,2.82,8.79,8.79,0,0,0-1.54-1.68,13.12,13.12,0,0,0,3.6-3.86h-3v-2H164v-1.54H160.4v-2h1.84a9,9,0,0,0-.6-2.2l1.22-.28h-2.24V102H164v-1.82h2.3V102h3.32v1.94h-2.06l1.16.22c-.36.86-.68,1.66-1,2.26h2v2h-3.48v1.54h3.3v2h-3.3Zm-2.76-8.14a7.89,7.89,0,0,1,.68,2.2l-1,.28h3.92l-1.32-.28a15,15,0,0,0,.74-2.2Zm15.32,4.86h-1.9v9.78h-2.3v-9.78h-2c0,3-.44,7.2-3.08,9.94a5.48,5.48,0,0,0-1.7-1.62c2.3-2.44,2.54-5.84,2.54-8.6v-6.94l1.4.4a23.33,23.33,0,0,0,5.08-1.76l1.9,1.74a32.41,32.41,0,0,1-6.14,1.84v2.8h6.24Z"/><path d="M186,116.6a14.28,14.28,0,0,0-1.12-1.42,10.3,10.3,0,0,1-3.22,3.46,8.48,8.48,0,0,0-1.38-1.86,7.73,7.73,0,0,0,3-3.3c-.3-.3-.62-.58-.92-.86l-.16.64L180.32,112c.4-1.56.82-3.68,1.24-5.88h-1.38V104h1.76c.24-1.38.44-2.74.62-4l2.22.2c-.2,1.18-.42,2.46-.66,3.76h1.48l.38,0,1.36.14a31.06,31.06,0,0,1-1.48,8.94,15.55,15.55,0,0,1,1.54,1.78Zm-2.3-10.46c-.28,1.44-.58,2.86-.86,4.18l1.24,1.06a24.65,24.65,0,0,0,1-5.24Zm11.42,6.9a13.33,13.33,0,0,0,4,3.26,10.41,10.41,0,0,0-1.64,1.86,15.79,15.79,0,0,1-3.44-3.48v4h-2.32V114.8a12.58,12.58,0,0,1-3.88,3.5,13.89,13.89,0,0,0-1.58-1.86,11.3,11.3,0,0,0,4.3-3.4h-3.38v-2h4.54v-1.22h-2.76V104h-1.86v-2h1.86v-2h2.16v2h3.56v-2h2.26v2h1.74v2H196.9v5.78H194V111h4.72v2Zm-4-9v1.06h3.56V104Zm0,3.88h3.56v-1.08h-3.56Z"/><path d="M207.88,109.42v7.26c0,.86-.12,1.36-.66,1.66a4.11,4.11,0,0,1-2.14.34,8.11,8.11,0,0,0-.54-1.8c.46,0,.92,0,1.1,0s.22-.08.22-.24v-1.38h-2.14v3.4h-2v-9.26h-1.18V106.3h1.14v-5.68H208v5.68h1.2v2.26h9.52v1.58h-9.54v-.72Zm-.5-1.5h-5.14v.8h5.14Zm-4-1.62h.7v-3.18h2.1v-.82h-2.8Zm2.48,4h-2.14v.88h2.14Zm0,3.36v-.92h-2.14v.92Zm.32-7.38v-1.84h-.84v1.84Zm12.72,10.46v1.68H208.72v-1.68h2.56a8.07,8.07,0,0,0-.74-1.64l1.22-.44h-1.92v-3.9H218v3.9h-1.88l1.2.28c-.36.64-.72,1.26-1,1.8Zm-.6-8.88h-8.74v-6.2h2.22V100h1.66v1.66h.86V100H216v1.66h2.32Zm-7-3.84h.86v-.86h-.86Zm0,2.32h.86v-.88h-.86Zm.46,6.92H216v-1.1h-4.26Zm.5,1.4a7.71,7.71,0,0,1,.9,2.08h1.36a16.49,16.49,0,0,0,.8-2.08Zm2-10.64v-.86h-.86V104Zm-.86,1.44v.88h.86v-.88Zm3-2.3h-.88V104h.88Zm0,2.3h-.88v.88h.88Z"/><path d="M237.1,110.24a.36.36,0,0,0,.22-.06c.06,0,.1-.16.14-.36a13.66,13.66,0,0,0,.08-1.38,4.19,4.19,0,0,0,1.28.7,7.31,7.31,0,0,1-.22,1.82,1.23,1.23,0,0,1-.56.7,1.87,1.87,0,0,1-.9.2h-.8a1.7,1.7,0,0,1-1.2-.42c-.3-.32-.4-.7-.4-1.88v-.16l-.86,1.16a10.5,10.5,0,0,0-1.14-.86,7,7,0,0,1-2.46,2.54,7.54,7.54,0,0,0-.8-.78v.2c-3.12.22-6.34.4-8.64.52l-.1-1.34,3.48-.14V110h-2.58v-1.16h2.58v-1h1.54a2.83,2.83,0,0,1-.08-.78v-.26H224.3c-.32,1.08-1.14,1.68-3.1,2a3,3,0,0,0-.76-1.06c1.42-.18,2.06-.46,2.34-1h-1.92v-1.2h3.34v-.56h-2.44v-1.16h2.44v-.5h2v.5h2.42v1.16H226.2v.56h3.34v1.2h-2.46v.26c0,.34,0,.38.28.38h.74c.24,0,.32-.08.36-.52a4.08,4.08,0,0,0,1.12.4c-.12.86-.48,1.12-1.26,1.12h-1.16a3,3,0,0,1-1-.12v.5h2.6V110h-2.6v.56c1.08,0,2.2-.1,3.3-.16v.14a6.2,6.2,0,0,0,1.64-1.82,14.37,14.37,0,0,0-1.68-.82l1-1.28c.4.16.84.34,1.28.54a5.43,5.43,0,0,0,.12-.76h-2v-1.66h2v-1.22h1.76v1.22h2.92v4.76a1.75,1.75,0,0,0,0,.6.17.17,0,0,0,.18.1Zm-16.56,4.08h17.9v1.38h-3.88a18.1,18.1,0,0,1,3.2,2.12l-1.64,1a10.57,10.57,0,0,0-1.16-1c-4.74.3-9.66.56-13,.74l-.24-1.56,2.64-.08c.26-.38.54-.84.78-1.28h-4.56Zm4.52-11.58h-4.42v-1.66h4.42V100h2.3v1.08h4.26V100H234v1.08h4.5v1.66H234v.64h-2.34v-.64h-4.26v.64h-2.3Zm11.08,9.6v1.38H223.06v-1.38Zm-8.72,3.36c-.32.42-.62.82-.92,1.2l6.46-.28c-.38-.2-.74-.4-1.1-.56l.64-.36Zm6.24-9.26a6.67,6.67,0,0,1-.26,1.62,9.72,9.72,0,0,1,1.34.9v-2.52Z"/><path d="M250.52,106.42v11.94h-2.2V106.42h-2.66v-.82a23.13,23.13,0,0,1-1.16,2v11h-2.18v-8.1c-.42.46-.82.9-1.24,1.28a12.51,12.51,0,0,0-1.28-2.2,16.33,16.33,0,0,0,4.06-5.46l1.8.62v-.58h2.66V100.3h2.2v3.94h2.58v2.18Zm-5-5.64a19.89,19.89,0,0,1-4.28,4.84,12.69,12.69,0,0,0-1.22-1.78A14,14,0,0,0,243.4,100Zm2.22,7.84a25.09,25.09,0,0,1-1.4,7.38,17.18,17.18,0,0,0-1.6-1.1,20.09,20.09,0,0,0,1.1-6.56ZM252,104a16.48,16.48,0,0,0-1.32-2.8l1.58-.66a15.65,15.65,0,0,1,1.36,2.72Zm.66,4.4a47.77,47.77,0,0,1,.9,5.94l-1.84.36a43.45,43.45,0,0,0-.8-6Zm6.2.44H257.3v7.28c0,1.12-.16,1.76-.86,2.14a6.58,6.58,0,0,1-3,.42,8.78,8.78,0,0,0-.64-2.32c.82,0,1.66,0,1.9,0s.34-.06.34-.32v-7.24H253.3V106.7h5.54Zm-.3-5.66H253.8v-2.08h4.74Z"/><path d="M272.58,114.12a23.57,23.57,0,0,0,6.4,2.42,9.54,9.54,0,0,0-1.48,1.9,22.14,22.14,0,0,1-6.86-3.28v3.5H268.3v-3.42a22.4,22.4,0,0,1-6.9,3.3,12.87,12.87,0,0,0-1.52-2,24.22,24.22,0,0,0,6.62-2.46h-6v-1.9h7.76v-.78h-5.5V106c-.36.34-.74.66-1.14,1a7.48,7.48,0,0,0-1.68-1.6,16.07,16.07,0,0,0,4.74-5.44l2.46.46a20.3,20.3,0,0,1-1.08,1.72h2.84a15.36,15.36,0,0,0,.88-2.16l2.68.32c-.34.64-.72,1.28-1.08,1.84h6V104h-6.28v.82h5.3v1.56h-5.3v.84h5.32v1.56h-5.32v.86H278v1.8h-7.34v.78h7.86v1.9ZM268.84,104h-3.78v.82h3.78Zm0,2.38h-3.78v.84h3.78Zm-3.78,3.26h3.78v-.86h-3.78Z"/><path d="M297.94,100.66v18h-2.26v-.94H283.3v1h-2.14v-18Zm-2.26,15.26V102.46H283.3v13.46Zm-.44-2.86h-2.58v1.28c0,.76-.16,1-.72,1.18a9.9,9.9,0,0,1-2.44.16,5.21,5.21,0,0,0-.48-1.18c.56,0,1.22,0,1.4,0s.28-.06.28-.24v-1.2h-3.54a8.42,8.42,0,0,1,1.34,1.62l-1.58.78a9.22,9.22,0,0,0-1.38-1.8l1.26-.6h-3.1v-1.28h7v-.58h2v.58h1.06a7.6,7.6,0,0,0-.58-.68c-3.3.12-6.6.22-9,.26L284,110.1h4.46v-.66h-4v-4.08h4v-.6H284v-1.28h4.52v-.74h1.94v.74H295v1.28h-4.56v.6h4v4.08h-1A11.59,11.59,0,0,1,295.1,111l-1.06.78h1.2Zm-8.92-6.14h2.16v-.58h-2.16Zm2.16,1.52v-.58h-2.16v.58Zm1.94-2.1v.58h2.12v-.58Zm2.12,1.52h-2.12v.58h2.12Zm-2.12,2.22H292l-.22-.18.68-.46h-2.06Z"/><path d="M17.84,156.8a25.4,25.4,0,0,1-3.4,7.1c.52,1.46,1.1,2.3,1.64,2.3s.64-1,.76-3.54a6.31,6.31,0,0,0,2,1.4c-.36,3.74-1.16,4.64-3,4.64-1.28,0-2.3-1-3.14-2.6a19,19,0,0,1-3.14,2.72A16.05,16.05,0,0,0,7.7,167a16.12,16.12,0,0,0,1.8-1.26c-3,.66-6.12,1.34-8.5,1.84l-.44-2.44c2.24-.38,5.7-1,8.9-1.7l.22,2.16a16.23,16.23,0,0,0,2-2,44.25,44.25,0,0,1-1.4-8.28H.64v-2.36h9.54c0-1-.08-1.92-.08-2.88h2.54c0,1,0,1.92,0,2.88h3.2a14.5,14.5,0,0,0-2.38-1.5l1.42-1.48a13,13,0,0,1,3,1.9l-1,1.08h1.48v2.36H12.82a44.56,44.56,0,0,0,.78,5.48,23.55,23.55,0,0,0,1.88-4.52ZM9,156.54v6.3H1.6v-6.3Zm-2.3,2h-3v2.3h3Z"/><path d="M30.94,166.1c.52,0,1.06.06,1.6.06,1.12,0,5,0,6.38-.06a8.09,8.09,0,0,0-.8,2.28h-5.7c-3.66,0-6.14-.52-7.82-2.84a9,9,0,0,1-2.8,3.18,9.59,9.59,0,0,0-1.8-1.66A8.45,8.45,0,0,0,23.72,161l2.38.36c-.14.64-.3,1.24-.46,1.82a4.4,4.4,0,0,0,2.88,2.5V160.6h-7.8v-2.1H38.36v2.1H30.94v1.5H37.1v2.06H30.94Zm5.52-8.48H22.56v-6.94h13.9ZM34,152.34H24.88v1H34Zm0,2.58H24.88v1H34Z"/><path d="M48.3,154.32a11.09,11.09,0,0,0-1.68-2.64c-.44,1.78-1,4-1.54,5.6a7.59,7.59,0,0,1,1.3,4.38,3.12,3.12,0,0,1-.82,2.58,2.14,2.14,0,0,1-1,.42,5.87,5.87,0,0,1-1.06,0,4.61,4.61,0,0,0-.44-1.92,3.84,3.84,0,0,0,.66,0,.65.65,0,0,0,.46-.16,2,2,0,0,0,.28-1.3,6.68,6.68,0,0,0-1.18-3.86c.36-1.28.74-3.1,1-4.5H43v15.7H41V150.86h4l.28-.08,1.4.8,1.64-1a16.4,16.4,0,0,1,1.54,2.08v-1.06h1.88q.21-.75.36-1.56l1.9.28c-.08.44-.18.86-.3,1.28H58.8v1.6H53.12c-.08.22-.16.44-.26.66h5.3v1.4h-1.9V156h2.6v1.4H51.58v-1.24a7.32,7.32,0,0,1-1.14,1.32,9.6,9.6,0,0,0-1.5-1.3,8.27,8.27,0,0,0,2.14-3h-1v0Zm2.84,11.54a4.19,4.19,0,0,0,2,.58c1.46.06,4.24,0,6-.12a10,10,0,0,0-.6,2c-1.52.1-4,.12-5.48,0a4.82,4.82,0,0,1-4.14-2.34c-.7.84-1.42,1.64-2.3,2.56l-1.06-2c.72-.58,1.52-1.32,2.28-2.06v-3H46.56V159.6H49.8v4.7a3.58,3.58,0,0,0,1.26,1.5V158H58v6.14c0,.82-.14,1.22-.66,1.5a5.54,5.54,0,0,1-2.18.26,6.22,6.22,0,0,0-.52-1.56c.46,0,.92,0,1.08,0s.22-.06.22-.22v-.62H53v2.3Zm-3.46-11a10.77,10.77,0,0,1,2,2.56L48,158.62a12,12,0,0,0-1.92-2.68Zm4.9.38v-.78A11.19,11.19,0,0,1,51.7,156h2.54v-.74Zm.46,4.26v.68h2.9v-.68Zm2.9,2.68v-.64H53v.64Z"/><path d="M73.28,162.34a8.11,8.11,0,0,1-1.22,2.84,28.06,28.06,0,0,0,7.12,1.14,9.39,9.39,0,0,0-1.44,2.22,22.94,22.94,0,0,1-7.38-1.68,13,13,0,0,1-3.92,1.84,11,11,0,0,0-1.44-2,11.52,11.52,0,0,0,3.24-1.1,10.48,10.48,0,0,1-2.38-2.32l2.06-.72a7.4,7.4,0,0,0,2,1.68,4.78,4.78,0,0,0,1-1.94H66.56v-8h4.6v-1.2H66.3v-1.78A37.65,37.65,0,0,1,64.66,155v13.6H62.38v-9.9a14.32,14.32,0,0,1-1,1.28,17.24,17.24,0,0,0-1.3-2.46,21.38,21.38,0,0,0,4.2-7.5l2.24.7-.1.26H78.54v2.08h-5v1.2H78v8Zm-4.52-4.84h2.4V156h-2.4Zm2.38,3.1c0-.26,0-.54,0-.78v-.7h-2.4v1.48Zm4.6-1.48H73.52v.72c0,.24,0,.5,0,.76h2.24ZM73.52,156v1.46h2.22V156Z"/><path d="M82.6,163.72v1.62H80.76V151.26h4.92v12.46Zm0-10.34v8.24h1.22v-8.24Zm9.56,6.86h.58v2h-.62c-.06,3.28-.18,4.76-.48,5.3a1.76,1.76,0,0,1-1.24,1,7.5,7.5,0,0,1-1.84.1,5.15,5.15,0,0,0-.52-2.08c.52,0,1,0,1.28,0s.4-.08.56-.42a14.26,14.26,0,0,0,.34-3.92H88.94a12.89,12.89,0,0,1-2.8,6.48,7.25,7.25,0,0,0-1.4-1.42,10.91,10.91,0,0,0,2.3-5.06h-.88v-2h1.16c.08-.94.1-1.84.1-2.68h-1.1v-2h1.1v-2.68h-1.3v-2h6.12s0,.78,0,1l0,3.64h.52v2h-.54Zm-1.9,0c0-.8,0-1.68,0-2.68h-.94c0,.82,0,1.72-.12,2.68Zm-.92-4.68h1l0-2.68h-1Zm9.42-3.92c-.42,2-1,4.66-1.52,6.36a8.82,8.82,0,0,1,1.2,4.66c0,1.38-.22,2.3-.78,2.76a2.2,2.2,0,0,1-1,.42c-.28,0-.62,0-1,0a5.11,5.11,0,0,0-.42-2h.64a.55.55,0,0,0,.44-.18c.2-.2.24-.7.24-1.4a7.63,7.63,0,0,0-1.06-4.14c.36-1.5.78-3.8,1-5.38H95.14v15.88h-2v-17.8H97l.28-.06Z"/><path d="M106.06,150.72a38,38,0,0,1-1.56,3.8V168.7h-2.26V158.46a20.52,20.52,0,0,1-1.34,1.72,16.8,16.8,0,0,0-1.12-2.58,21.15,21.15,0,0,0,4.08-7.56Zm12.22.3v17.46H116v-1H108.5v1.16h-2.16V151ZM116,165.44V153.08H108.5v12.36Zm-2.88-8.18V159h1.92v5.36h-5.54V159h1.78v-1.72H109v-1.72h2.3v-2h1.84v2h2.42v1.72Zm.14,3.36h-2v2.1h2Z"/><path d="M137.44,168.68H135v-.8h-6.78v.78H125.8V163a25.64,25.64,0,0,1-4.42,2,7.6,7.6,0,0,0-1.38-2.12,22.23,22.23,0,0,0,7-3.46,27.78,27.78,0,0,0-3.06-2.76,20.59,20.59,0,0,1-2.22,1.52,8.28,8.28,0,0,0-1.68-1.86,16,16,0,0,0,6.64-6.36l2.68.5c-.3.52-.64,1-1,1.56h4.54l.4-.12,1.64.86a18.51,18.51,0,0,1-4.64,7h7.14ZM126.72,154c-.32.34-.64.68-1,1a28.2,28.2,0,0,1,3.18,2.64A15.67,15.67,0,0,0,131.7,154Zm8.24,11.7v-3.9h-6.78v3.9Z"/><path d="M158.26,162.94h-7.5v3c0,1.3-.28,1.92-1.26,2.3a11.56,11.56,0,0,1-3.86.4,9.64,9.64,0,0,0-1-2.44c1.22,0,2.72.06,3.12,0s.52-.08.52-.36v-2.94h-7.4v-2.26h7.4v-1.26h.86a14.2,14.2,0,0,0,1.82-1.5h-6.68v-2.16H153l.56-.12,1.52,1.16a18.83,18.83,0,0,1-4.34,3.72v.16h7.5Zm-15-5.86h-2.34v-5.16h7.3V150h2.52v1.92h7.36v5.16h-2.46v-2.94H143.26Z"/><path d="M17.82,260.62a11.92,11.92,0,0,1-2.52,4.7,11.18,11.18,0,0,0,3.52,1.48,9.85,9.85,0,0,0-1.4,1.86,11.2,11.2,0,0,1-3.72-1.86,13,13,0,0,1-3.4,1.86,8.84,8.84,0,0,0-1.06-1.6v1.62H7v-1.62l-6.34.58-.18-2c.52,0,1.12-.06,1.74-.12V259.4H.62v-1.88H18.4v1.88H9.24v7.32a10.27,10.27,0,0,0,2.84-1.44,12.25,12.25,0,0,1-1.82-3l1.32-.36H9.74v-1.82H16l.4-.08Zm-1.72-3.84H3v-6.14H16.1ZM4.36,259.4v.8H7v-.8Zm0,3.3H7v-.84H4.36Zm0,2.62c.84-.06,1.72-.12,2.6-.2v-.78H4.36Zm9.36-13.16H5.24V253h8.48Zm0,2.26H5.24v.84h8.48ZM12.26,262a7.74,7.74,0,0,0,1.34,2A8.37,8.37,0,0,0,15,262Z"/><path d="M38.62,266.24v1.88H20.48v-1.88h7.76v-1.06h-6.3V263.4h6.3v-.9H22.6v-6.34h5.64v-.76H20.6v-1.86h7.64v-.88c-1.92.08-3.88.14-5.68.16a6.27,6.27,0,0,0-.48-1.82,109.28,109.28,0,0,0,13.46-1l1.1,1.84c-1.74.28-3.82.5-6,.66v1h7.84v1.86H30.64v.76h5.94v6.34H30.64v.9h6.68v1.78H30.64v1.06Zm-13.7-7.62h3.32v-.9H24.92Zm3.32,2.32V260H24.92v.9Zm2.4-3.22v.9h3.5v-.9Zm3.5,2.32h-3.5v.9h3.5Z"/><path d="M54.82,262.7A8.8,8.8,0,0,1,53,265.26c1.94.54,3.68,1.08,5,1.56l-1.46,1.94c-1.52-.62-3.54-1.32-5.8-2-2.24,1.1-5.2,1.62-9.08,1.92a6.74,6.74,0,0,0-.9-2,31.58,31.58,0,0,0,6.58-.8c-.64-.16-1.28-.32-1.94-.46l-.22.3-2.3-.72c.5-.64,1.08-1.42,1.68-2.28H40.4v-1.92h5.44l.8-1.28h-5v-5.6H46v-1.14H40.76V250.7H58.18v2.06H52.76v1.14h4.78v5.6H49.36c-.24.42-.52.84-.8,1.28h10.1v1.92Zm-10.9-5.06H46v-1.86h-2.1Zm2.7,6c1.24.26,2.5.56,3.72.88a6.52,6.52,0,0,0,1.84-1.86H47.3Zm1.64-9.78h2.26v-1.14H48.26Zm2.26,3.74v-1.86H48.26v1.86Zm2.24-1.86v1.86h2.4v-1.86Z"/><path d="M78.36,253.08s0,.8,0,1.08c-.26,8.94-.48,12.12-1.3,13.18a2.67,2.67,0,0,1-1.92,1.1,22.42,22.42,0,0,1-3.14,0,5.6,5.6,0,0,0-.78-2.32c1.28.12,2.46.12,3,.12a1.07,1.07,0,0,0,.88-.34c.58-.64.84-3.64,1.06-10.7H71.84a17.25,17.25,0,0,1-1.76,3.16,14.86,14.86,0,0,0-1.54-1.12v9.34H63.2v1.46H61V253.22H63.3a21.45,21.45,0,0,0,.58-3.22l2.6.36c-.34,1-.7,2-1,2.86h3.1v3.24a20.69,20.69,0,0,0,2.7-6.44l2.26.52a23.21,23.21,0,0,1-.78,2.54Zm-12,2.22H63.2v3.24h3.18Zm0,9.22V260.6H63.2v3.92ZM73,263.44a42.8,42.8,0,0,0-2.78-4.62l1.86-1.06A48.27,48.27,0,0,1,75,262.2Z"/><path d="M90.94,266.1c.52,0,1.06.06,1.6.06,1.12,0,5,0,6.38-.06a8.09,8.09,0,0,0-.8,2.28h-5.7c-3.66,0-6.14-.52-7.82-2.84a9,9,0,0,1-2.8,3.18,9.59,9.59,0,0,0-1.8-1.66A8.45,8.45,0,0,0,83.72,261l2.38.36c-.14.64-.3,1.24-.46,1.82a4.4,4.4,0,0,0,2.88,2.5V260.6h-7.8v-2.1H98.36v2.1H90.94v1.5H97.1v2.06H90.94Zm5.52-8.48H82.56v-6.94h13.9ZM94,252.34H84.88v1H94Zm0,2.58H84.88v1H94Z"/><path d="M17.88,309.48a19.76,19.76,0,0,1-3.32,4.38c.54,1.54,1.16,2.46,1.76,2.46.42,0,.66-1,.76-3.32a6.08,6.08,0,0,0,2,1.36c-.38,3.5-1.12,4.38-2.94,4.38-1.46,0-2.58-1.2-3.44-3.16A20.74,20.74,0,0,1,9,318a10.43,10.43,0,0,0-1.58-1.92,20.37,20.37,0,0,0,4.46-2.82,37.07,37.07,0,0,1-1-5.36H6.76v2.28l3.08-.56L10,311.8l-3.26.66v3.42c0,1.3-.28,1.94-1.08,2.32a8.6,8.6,0,0,1-3.6.46,9.55,9.55,0,0,0-.84-2.4c1.12.06,2.28,0,2.64,0s.48-.1.48-.42V313c-1.28.26-2.52.52-3.58.72l-.58-2.4c1.14-.18,2.58-.4,4.16-.68v-2.68H.58v-2.26H4.36v-2.28c-1.08.18-2.18.32-3.2.44a9.08,9.08,0,0,0-.68-2,50.79,50.79,0,0,0,7.94-1.68l1.6,2c-1,.3-2.1.56-3.26.8v2.7H10.6c-.16-1.8-.22-3.66-.24-5.48h2.5a49.28,49.28,0,0,0,.2,5.48H18.5v2.26H13.3c.16,1.2.36,2.36.58,3.38a16.63,16.63,0,0,0,1.9-2.72Zm-1.46-4.4a15.86,15.86,0,0,0-2.84-3.3l1.8-1.22a17.26,17.26,0,0,1,3,3.18Z"/><path d="M31.46,308.68H28v9.94h-2.2V301.1c-.4,1.14-.86,2.32-1.38,3.46v14.1H22.18v-10a16,16,0,0,1-1.24,1.64,16.54,16.54,0,0,0-1.14-2.56,22,22,0,0,0,4-7.72l2.2.66-.12.38h5.62ZM28,302.86V304h1.64v-1.14Zm1.64,4V305.7H28v1.18Zm8.64,9c0,1.32-.28,2-1.08,2.3a10.41,10.41,0,0,1-4,.44,8.63,8.63,0,0,0-.76-2.3c1.22.08,2.6.06,3,0s.52-.12.52-.5v-7.2H32.36v-7.62H38.3Zm-4.06-13V304H36v-1.14Zm1.78,4V305.7H34.24v1.18Z"/><path d="M58.72,312.22H56.5v3.9c0,1.16-.16,1.78-.94,2.16a8,8,0,0,1-3.28.42,9.26,9.26,0,0,0-.68-2.32c.94,0,2,0,2.26,0s.4-.08.4-.34v-3.86H47.38v-2.08h1a7.85,7.85,0,0,0-1.14-1.62,15.76,15.76,0,0,0,3.3-1.16,11.06,11.06,0,0,0-1.78-1.68l-.68.36a15.9,15.9,0,0,0-1.3-1.3v13.94H44.58V311.9H43.24v0c0,1.66-.22,4.76-1.52,6.8A9.32,9.32,0,0,0,40,317.58a11.65,11.65,0,0,0,1.2-5.68h-1v-2h4.38v-2.28H41v-6.66H43v4.54h1.54V300h2.18v4.48A13,13,0,0,0,52.24,300l2.3.6a10.39,10.39,0,0,1-.72.92h2.64l.38-.08,1.48.68c-1.68,4.3-5.38,6.74-9.58,8h5.52v-2.32H56.5v2.32h2.22Zm-8.56.14a13.77,13.77,0,0,1,2.18,2.82l-2,1.16a13.28,13.28,0,0,0-2-2.92Zm2-5.9a10.3,10.3,0,0,0,.9-.64,10,10,0,0,0-2-1.62c-.26.18-.5.38-.76.56A13.19,13.19,0,0,1,52.12,306.46Zm.18-3.32a13.77,13.77,0,0,1,2,1.52,10.4,10.4,0,0,0,1.14-1.52Z"/><path d="M71.18,309.88a10.21,10.21,0,0,0,7.84,6.5,10.57,10.57,0,0,0-1.64,2.32,11.36,11.36,0,0,1-7.72-6.38c-1.08,2.58-3.36,5-8.06,6.4a9,9,0,0,0-1.46-2.14c5.08-1.48,7-4.1,7.6-6.7H61.28v-2.44h6.8v-3.66H60.66v-2.46H78.38v2.46H70.6v3.66h7.24v2.44Z"/><path d="M80,317.34a8,8,0,0,0,2.12-4.5l2.1.58c-.38,2-1,3.92-2.3,5.12Zm18.4-7.06s0,.62,0,.94c-.26,4.18-.52,6-1.1,6.62a2.15,2.15,0,0,1-1.5.76,15,15,0,0,1-2.44.06,5.49,5.49,0,0,0-.66-2.2,14.2,14.2,0,0,0,1.88.08.77.77,0,0,0,.68-.22c.28-.34.5-1.4.68-4H82.64V300.78H97v2H91v1.24h5.32v1.88H91v1.24h5.32V309H91v1.26ZM85,302.82v1.24H88.6v-1.24Zm3.62,3.12H85v1.24H88.6ZM85,310.28H88.6V309H85Zm2,3.16a18.17,18.17,0,0,1,.78,4.1l-2.12.36a19.08,19.08,0,0,0-.66-4.14Zm3.28-.2a16.79,16.79,0,0,1,1.2,3.64l-2,.52a16.33,16.33,0,0,0-1.08-3.7Zm2.72,3a12.36,12.36,0,0,0-1.38-2.86l1.72-.58a12.74,12.74,0,0,1,1.5,2.78Z"/><path d="M107.66,305.2a26.53,26.53,0,0,1-2.14,3.06V318.7h-2.38v-7.82c-.56.54-1.1,1-1.64,1.48a23.43,23.43,0,0,0-1.62-2.06,19.49,19.49,0,0,0,5.5-6Zm-.74-4.26a26.85,26.85,0,0,1-5.5,5.26,13.83,13.83,0,0,0-1.32-1.94,17.79,17.79,0,0,0,4.52-4.26Zm11.76,8h-2.74v7c0,1.28-.24,1.94-1.12,2.3a11,11,0,0,1-3.9.4,9.85,9.85,0,0,0-.72-2.42c1.14.06,2.46.06,2.82,0s.5-.08.5-.38v-7h-5.9v-2.26h11.06Zm-.5-5.5h-9.72v-2.26h9.72Z"/><path d="M128.54,304c-.36,3.32-1.46,5.42-6.54,6.52a6.79,6.79,0,0,0-1.28-2c4.36-.76,5.06-2.16,5.38-4.52h-2.76v2.32H121V301.8h7.24V300h2.44v1.8h7.42v4.14h-2.46v-2h-2.82v3.16c0,.54.12.62.74.62h1.78c.5,0,.6-.2.68-1.46a6.42,6.42,0,0,0,2,.82c-.24,2.1-.88,2.66-2.48,2.66H133.2c-2.24,0-2.72-.64-2.72-2.62V304Zm9.74,12v2.16h-17.5V316h7.46v-3h-5.36v-2.14h13.7V313h-5.9v3Z"/><path d="M158.36,303.08s0,.8,0,1.08c-.26,8.94-.48,12.12-1.3,13.18a2.67,2.67,0,0,1-1.92,1.1,22.42,22.42,0,0,1-3.14,0,5.6,5.6,0,0,0-.78-2.32c1.28.12,2.46.12,3,.12a1.07,1.07,0,0,0,.88-.34c.58-.64.84-3.64,1.06-10.7h-4.28a17.25,17.25,0,0,1-1.76,3.16,14.86,14.86,0,0,0-1.54-1.12v9.34H143.2v1.46H141V303.22h2.26a21.45,21.45,0,0,0,.58-3.22l2.6.36c-.34,1-.7,2-1,2.86h3.1v3.24a20.69,20.69,0,0,0,2.7-6.44l2.26.52a23.21,23.21,0,0,1-.78,2.54Zm-12,2.22H143.2v3.24h3.18Zm0,9.22V310.6H143.2v3.92Zm6.64-1.08a42.8,42.8,0,0,0-2.78-4.62l1.86-1.06A48.27,48.27,0,0,1,155,312.2Z"/><path d="M163.82,308.06a11.5,11.5,0,0,1-2.26,2.9,8.46,8.46,0,0,0-1.52-1.64,11.93,11.93,0,0,0,3.4-4.46h-2.9v-2h3.28V300h2.26v2.82h2.82v2h-2.82v.74a38.3,38.3,0,0,1,3.16,2.2L168,309.7c-.46-.5-1.2-1.22-1.92-1.88V312h-2.26Zm-3.64,8.44a13.68,13.68,0,0,0,1.74-4.12l2.12.84a19.55,19.55,0,0,1-1.68,4.36Zm11.42-.32c.94,0,1.08-.28,1.2-2.3a5.78,5.78,0,0,0,2.14.84c-.3,2.86-1,3.56-3.16,3.56h-3.6c-2.72,0-3.4-.66-3.4-2.74V312.8h2.34v2.7c0,.6.2.68,1.28.68Zm-2.32-5,.4.36V301h8.12v10.76h-7.92c.78.72,1.64,1.56,2.12,2.12l-1.72,1.44a29.8,29.8,0,0,0-2.64-2.78Zm2.56-7.18h3.68v-1.16h-3.68Zm0,2.92h3.68V305.8h-3.68Zm0,2.94h3.68v-1.2h-3.68Zm4.62,2.22c.8,1.24,2,2.94,2.5,4l-2.22,1.14c-.48-1.06-1.58-2.82-2.36-4.16Z"/><path d="M186,300.68a38.88,38.88,0,0,1-1.52,3.88v14.1h-2.26v-10a16,16,0,0,1-1.24,1.64,16.54,16.54,0,0,0-1.14-2.56,22,22,0,0,0,4-7.72Zm12.9,9.88a25.47,25.47,0,0,1-2.76,2.12,8.18,8.18,0,0,0,3,3.34,8,8,0,0,0-1.52,1.86c-2.66-1.8-4.1-5.1-4.94-9.14h-.4a12.46,12.46,0,0,1-1.12.82c3.22,2.74,3.18,7,1.64,8.32a2.91,2.91,0,0,1-2.12.82c-.4,0-.9,0-1.4-.06a5.16,5.16,0,0,0-.5-1.92,23.4,23.4,0,0,1-2.58,1.26,8.2,8.2,0,0,0-1.26-1.68,19.82,19.82,0,0,0,6.36-3.38c-.1-.24-.22-.46-.34-.7a25.14,25.14,0,0,1-4.6,2.48,7.56,7.56,0,0,0-1.08-1.48A18.43,18.43,0,0,0,190,311a5.43,5.43,0,0,0-.48-.48,20.24,20.24,0,0,1-3.1,1.42,15.43,15.43,0,0,0-1.32-1.54,20,20,0,0,0,4.12-1.66h-3v-3.1a6.91,6.91,0,0,0-1.46-1.06,12.77,12.77,0,0,0,4-4.56l2.24.4c-.14.26-.3.54-.46.8h3.08l.42-.14,1.4,1a22,22,0,0,1-1.32,1.92h4.1v4.74h-3.5a18.72,18.72,0,0,0,.64,2.2,21.84,21.84,0,0,0,1.94-1.8Zm-10.52-3.42h2.58v-1.52h-2.58Zm1-4.2c-.28.36-.56.72-.86,1.06h3.1a9.09,9.09,0,0,0,.78-1.06Zm2.36,11.92a28,28,0,0,1-2.8,1.8,11.84,11.84,0,0,0,1.34.08,1.13,1.13,0,0,0,1-.4A2.16,2.16,0,0,0,191.68,314.86Zm4.22-9.24H193v1.52h2.86Z"/><path d="M207.58,301a32.21,32.21,0,0,1-2.08,4v13.56h-2.38v-10.2a22.66,22.66,0,0,1-2,2.12,17.45,17.45,0,0,0-1.38-2.52,20.67,20.67,0,0,0,5.46-7.78Zm7.94,15.18c1,0,1.12-.68,1.28-3.5a6.87,6.87,0,0,0,2.2,1c-.28,3.44-.9,4.7-3.26,4.7h-3.42c-2.52,0-3.24-.8-3.24-3.62v-14.3h2.4v6.84a34,34,0,0,0,5-3.5l1.76,2.08a48.45,48.45,0,0,1-6.8,3.86v5c0,1.18.14,1.38,1.1,1.38Z"/><path d="M238.32,311.66c-.34,3.88-.68,5.56-1.3,6.2a2.13,2.13,0,0,1-1.5.74,17.27,17.27,0,0,1-2.38,0,5.2,5.2,0,0,0-.64-2.12,15.66,15.66,0,0,0,1.94.1.86.86,0,0,0,.66-.22c.32-.32.58-1.32.82-3.6H224c-.32.24-.66.46-1,.68l1.82.58a8.36,8.36,0,0,1-2.34,4.52l-1.86-1.18a7.22,7.22,0,0,0,2.16-3.78c-.48.3-1,.56-1.48.82a14.63,14.63,0,0,0-1.24-2.08,18.24,18.24,0,0,0,7.66-6.86H221.3v-2.08h3.36a16.64,16.64,0,0,0-1.26-2.54l2.06-.8A13.8,13.8,0,0,1,227,303l-1,.42h2.9a22.65,22.65,0,0,0,1.38-3.42l2.38.66q-.51,1.41-1.14,2.76h3.92c-.2,1.2-.5,2.56-.76,3.66H237c-.22,1.2-.48,2.6-.72,3.68h2.14ZM227.44,314a13.89,13.89,0,0,1,.54,3.68l-2.06.26a13.75,13.75,0,0,0-.4-3.7Zm.5-4.9a18.93,18.93,0,0,1-1.5,1.62h7.64c.12-.48.24-1,.36-1.62Zm2.46,4.54a15.88,15.88,0,0,1,1,3.24l-1.9.48a17.42,17.42,0,0,0-.92-3.32Zm0-8.18c-.3.54-.62,1.06-1,1.58h3.06c.12-.48.24-1,.34-1.58Zm2.22,10.86a11.33,11.33,0,0,0-1.18-2.7l1.64-.56a10.39,10.39,0,0,1,1.3,2.64Z"/><path d="M247.8,313.76l-7.26,2.12-.6-2.24c.8-.18,1.78-.44,2.86-.72v-4h-2.22v-2.18h2.22v-3.48h-2.4V301h7v2.2h-2.3v3.48h2.08v2.18H245.1v3.42l2.38-.66Zm8.88,2.78c.36,0,.44-.32.48-2.32a6.12,6.12,0,0,0,2,.88c-.2,2.74-.72,3.48-2.2,3.48h-1.5c-1.84,0-2.24-.68-2.24-2.7V312H252c-.36,3.26-1.28,5.58-5.54,6.84a7,7,0,0,0-1.32-2c3.62-.9,4.26-2.54,4.52-4.88h-1.46v-11.2h9.76V312h-2.46v3.92c0,.58,0,.66.38.66Zm-6.28-12.6h5.22V302.7H250.4Zm0,3h5.22v-1.24H250.4Zm0,3h5.22v-1.24H250.4Z"/><path d="M273.44,315.84c1.84.52,3.68,1.1,4.92,1.52l-2.06,1.32c-1.34-.54-3.66-1.32-5.94-2l1-.86h-3.9l1.18.8a22.23,22.23,0,0,1-6.76,2,11.27,11.27,0,0,0-1.42-1.54,27.84,27.84,0,0,0,5.34-1.3H263v-6.66h13.26v6.66Zm5-10.52V307h-3.34l-.14,1.58H263.4l.2-1.58h-2.92v-1.68h3.14l.2-1.6h11.36l-.16,1.6Zm-15.24-.6H261v-3.5h7.3V300h2.38v1.22H278v3.5h-2.22v-1.64H263.16Zm2.1,6.28h8.54v-.58h-8.54Zm0,1.78h8.54v-.6h-8.54Zm0,1.8h8.54V314h-8.54Zm.38-7.18h2.52l.08-.62h-2.52Zm.32-2.48-.08.62h2.52l.06-.62Zm6.9,2.48.06-.62h-2.7l-.08.62Zm.22-2.48h-2.66l-.06.62H273Z"/><path d="M12.3,356.46A52,52,0,0,1,19,361.88l-2,1.82a46.71,46.71,0,0,0-6.12-5.42v10.36H8.22v-9.76a23.89,23.89,0,0,1-6.36,4.92,14.29,14.29,0,0,0-1.64-2.16,21,21,0,0,0,8.62-7.86h-8v-2.44H18.2v2.44H12a20.14,20.14,0,0,1-1.16,1.84v2.08Z"/><path d="M27.72,351.7c-.56,1.74-1.24,3.94-1.86,5.5a6,6,0,0,1,1.54,4.08,2.87,2.87,0,0,1-.92,2.6,2.57,2.57,0,0,1-1.18.46,10.09,10.09,0,0,1-1.38,0,5.2,5.2,0,0,0-.54-2.12c.38,0,.68,0,.94,0a1,1,0,0,0,.58-.18,1.36,1.36,0,0,0,.36-1.12,5.26,5.26,0,0,0-1.48-3.52c.42-1.28.88-3.08,1.24-4.48H23.26v15.7H21V350.86h4.72l.34-.1Zm10.8,9.94a35.2,35.2,0,0,1-2.7,2.34A7.57,7.57,0,0,0,39,366.6a8.45,8.45,0,0,0-1.54,2c-2.94-1.56-4.5-4.54-5.4-8.44H30.58v5.16l2.88-.52.18,2.08c-2.3.54-4.76,1-6.64,1.46l-.78-2.3c.6-.08,1.3-.2,2.08-.32V350.88h9.28v9.3H34.1a14,14,0,0,0,.76,2.12,17.74,17.74,0,0,0,1.8-2Zm-7.94-8.7v1.58h4.64v-1.58Zm0,5.2h4.64v-1.68H30.58Z"/><path d="M49.36,359.88v8.8H47v-8.8H44.7c-.1,3.26-.64,6.5-3,9A9.08,9.08,0,0,0,40,367.2c1.92-2,2.42-4.64,2.54-7.32H40.2v-2.2h2.32v-4.3h-2v-2.22H51v2.22H49.36v4.3h1.92v2.2ZM47,357.68v-4.3H44.72v4.3Zm11.9,4.26a17.88,17.88,0,0,1-7.24,6.72A8.91,8.91,0,0,0,50,366.72a14.3,14.3,0,0,0,6.64-5.66ZM58.2,351.2a20.36,20.36,0,0,1-5.74,4.92,7.86,7.86,0,0,0-1.68-1.68,15.06,15.06,0,0,0,5.16-4.16Zm.32,5.46a21.33,21.33,0,0,1-5.8,5.2,10,10,0,0,0-1.66-1.66,16.21,16.21,0,0,0,5.28-4.42Z"/><path d="M73.06,355.72c.42,5.84,1.64,10.46,3.1,10.46.42,0,.66-1.06.76-3.6A6.36,6.36,0,0,0,79,364c-.36,3.78-1.16,4.7-3.06,4.7-3.42,0-4.92-5.92-5.4-13H60.6V353.4h9.82c0-1.08-.06-2.2-.06-3.3h2.56c0,1.1,0,2.22,0,3.3H76.1a14.16,14.16,0,0,0-2.34-2.1l1.58-1.3A14.94,14.94,0,0,1,78,352.22L76.6,353.4h1.88v2.32Zm-6.32,9c1.22-.22,2.5-.46,3.72-.7l.18,2.12c-3.28.72-6.8,1.46-9.38,2l-.66-2.4c1-.16,2.34-.36,3.78-.6V360.3h-3V358h8.58v2.3h-3.2Z"/><path d="M82.76,368.08c1.56-.5,2.46-1.36,2.58-2.42a.75.75,0,0,1-.22,0,1.77,1.77,0,0,1-1.9-1.78,1.82,1.82,0,0,1,2-1.8c1.42,0,2.16,1.06,2.16,2.74a5,5,0,0,1-3.94,4.86Z"/><path d="M112.3,356.46a52,52,0,0,1,6.66,5.42l-2,1.82a46.71,46.71,0,0,0-6.12-5.42v10.36h-2.6v-9.76a23.89,23.89,0,0,1-6.36,4.92,14.29,14.29,0,0,0-1.64-2.16,21,21,0,0,0,8.62-7.86h-8v-2.44H118.2v2.44H112a20.14,20.14,0,0,1-1.16,1.84v2.08Z"/><path d="M127.72,351.7c-.56,1.74-1.24,3.94-1.86,5.5a6,6,0,0,1,1.54,4.08,2.87,2.87,0,0,1-.92,2.6,2.57,2.57,0,0,1-1.18.46,10.09,10.09,0,0,1-1.38,0,5.2,5.2,0,0,0-.54-2.12c.38,0,.68,0,.94,0a1,1,0,0,0,.58-.18,1.36,1.36,0,0,0,.36-1.12,5.26,5.26,0,0,0-1.48-3.52c.42-1.28.88-3.08,1.24-4.48h-1.76v15.7H121V350.86h4.72l.34-.1Zm10.8,9.94a35.2,35.2,0,0,1-2.7,2.34A7.57,7.57,0,0,0,139,366.6a8.45,8.45,0,0,0-1.54,2c-2.94-1.56-4.5-4.54-5.4-8.44h-1.44v5.16l2.88-.52.18,2.08c-2.3.54-4.76,1-6.64,1.46l-.78-2.3c.6-.08,1.3-.2,2.08-.32V350.88h9.28v9.3H134.1a14,14,0,0,0,.76,2.12,17.74,17.74,0,0,0,1.8-2Zm-7.94-8.7v1.58h4.64v-1.58Zm0,5.2h4.64v-1.68h-4.64Z"/><path d="M148.86,355.46c-.06.86-.12,1.74-.22,2.6h7.72a9.73,9.73,0,0,1-.08,1c-.36,5.44-.78,7.68-1.58,8.56a3,3,0,0,1-2.16.92,27.39,27.39,0,0,1-3.42,0,5.53,5.53,0,0,0-.84-2.34c1.38.14,2.78.14,3.36.14a1.28,1.28,0,0,0,1-.26c.52-.44.88-2.18,1.16-5.82h-5.5a11.74,11.74,0,0,1-6.42,8.52,7.6,7.6,0,0,0-1.68-2c5.4-2.5,5.86-7.06,6.08-11.34h-5.72v-2.28h7.66v-3.26h2.46v3.26h7.9v2.28Z"/><path d="M163.92,359.32a15.41,15.41,0,0,0-3.76-2.06l1.22-1.8a16.12,16.12,0,0,1,3.86,1.86Zm2.1,2.8c-1,2.08-2.14,4.36-3.26,6.28l-2.06-1.52a59.77,59.77,0,0,0,3.54-6.28ZM165,354a15.25,15.25,0,0,0-3.74-2.2l1.32-1.78a17.55,17.55,0,0,1,3.82,2Zm11.82,14.64a11,11,0,0,0-.68-1.58c-3.62.32-7.4.58-10.1.78l-.32-2.4,1.5-.06a36.24,36.24,0,0,0,1.9-5.18h-3.42V358h5.14v-2.82h-4.14v-2.28h4.14V350h2.48v2.84h4.34v2.28h-4.34V358h5.28v2.28H171.9l.08,0c-.64,1.68-1.44,3.52-2.16,5L175,365c-.5-.8-1.06-1.58-1.6-2.28l2-1.08a23.27,23.27,0,0,1,3.7,5.82Z"/><path d="M17.88,409.48a19.76,19.76,0,0,1-3.32,4.38c.54,1.54,1.16,2.46,1.76,2.46.42,0,.66-1,.76-3.32a6.08,6.08,0,0,0,2,1.36c-.38,3.5-1.12,4.38-2.94,4.38-1.46,0-2.58-1.2-3.44-3.16A20.74,20.74,0,0,1,9,418a10.43,10.43,0,0,0-1.58-1.92,20.37,20.37,0,0,0,4.46-2.82,37.07,37.07,0,0,1-1-5.36H6.76v2.28l3.08-.56L10,411.8l-3.26.66v3.42c0,1.3-.28,1.94-1.08,2.32a8.6,8.6,0,0,1-3.6.46,9.55,9.55,0,0,0-.84-2.4c1.12.06,2.28,0,2.64,0s.48-.1.48-.42V413c-1.28.26-2.52.52-3.58.72l-.58-2.4c1.14-.18,2.58-.4,4.16-.68v-2.68H.58v-2.26H4.36v-2.28c-1.08.18-2.18.32-3.2.44a9.08,9.08,0,0,0-.68-2,50.79,50.79,0,0,0,7.94-1.68l1.6,2c-1,.3-2.1.56-3.26.8v2.7H10.6c-.16-1.8-.22-3.66-.24-5.48h2.5a49.28,49.28,0,0,0,.2,5.48H18.5v2.26H13.3c.16,1.2.36,2.36.58,3.38a16.63,16.63,0,0,0,1.9-2.72Zm-1.46-4.4a15.86,15.86,0,0,0-2.84-3.3l1.8-1.22a17.26,17.26,0,0,1,3,3.18Z"/><path d="M31.46,408.68H28v9.94h-2.2V401.1c-.4,1.14-.86,2.32-1.38,3.46v14.1H22.18v-10a16,16,0,0,1-1.24,1.64,16.54,16.54,0,0,0-1.14-2.56,22,22,0,0,0,4-7.72l2.2.66-.12.38h5.62ZM28,402.86V404h1.64v-1.14Zm1.64,4V405.7H28v1.18Zm8.64,9c0,1.32-.28,2-1.08,2.3a10.41,10.41,0,0,1-4,.44,8.63,8.63,0,0,0-.76-2.3c1.22.08,2.6.06,3,0s.52-.12.52-.5v-7.2H32.36v-7.62H38.3Zm-4.06-13V404H36v-1.14Zm1.78,4V405.7H34.24v1.18Z"/><path d="M58.72,412.22H56.5v3.9c0,1.16-.16,1.78-.94,2.16a8,8,0,0,1-3.28.42,9.26,9.26,0,0,0-.68-2.32c.94,0,2,0,2.26,0s.4-.08.4-.34v-3.86H47.38v-2.08h1a7.85,7.85,0,0,0-1.14-1.62,15.76,15.76,0,0,0,3.3-1.16,11.06,11.06,0,0,0-1.78-1.68l-.68.36a15.9,15.9,0,0,0-1.3-1.3v13.94H44.58V411.9H43.24v0c0,1.66-.22,4.76-1.52,6.8A9.32,9.32,0,0,0,40,417.58a11.65,11.65,0,0,0,1.2-5.68h-1v-2h4.38v-2.28H41v-6.66H43v4.54h1.54V400h2.18v4.48A13,13,0,0,0,52.24,400l2.3.6a10.39,10.39,0,0,1-.72.92h2.64l.38-.08,1.48.68c-1.68,4.3-5.38,6.74-9.58,8h5.52v-2.32H56.5v2.32h2.22Zm-8.56.14a13.77,13.77,0,0,1,2.18,2.82l-2,1.16a13.28,13.28,0,0,0-2-2.92Zm2-5.9a10.3,10.3,0,0,0,.9-.64,10,10,0,0,0-2-1.62c-.26.18-.5.38-.76.56A13.19,13.19,0,0,1,52.12,406.46Zm.18-3.32a13.77,13.77,0,0,1,2,1.52,10.4,10.4,0,0,0,1.14-1.52Z"/><path d="M78.62,409.8H76.14v6.36c0,1.2-.3,1.8-1.22,2.16a12.15,12.15,0,0,1-3.9.36,9.14,9.14,0,0,0-.84-2.14H64.6v1.24H62.34V411h8.6v5.5c1,0,1.92,0,2.2,0s.52-.12.52-.42v-6.3H60.5v-2.12h1.76a8.06,8.06,0,0,0-1-1.68c3.54-.38,5.22-1.06,6.1-2.24H61.5V401.7h6.62A13.8,13.8,0,0,0,68.3,400h2.46c0,.62-.1,1.18-.18,1.72h7v2.06H70.76c2.3.76,4.9,1.74,6.56,2.44l-1.56,1.48h2.86Zm-3.44-2.12c-1.58-.72-3.94-1.64-6.06-2.38-1,1.14-2.72,1.9-5.58,2.38Zm-6.5,5.16H64.6v1.86h4.08Z"/><path d="M96.62,407.84v1.8h2v2.2h-2V416c0,1.2-.2,1.84-1,2.22a9.08,9.08,0,0,1-3.44.4,8.66,8.66,0,0,0-.72-2.36c1,0,2.08,0,2.4,0s.42-.08.42-.34v-4.14H90.1a15.69,15.69,0,0,1,2.4,3L90.6,416a16,16,0,0,0-2.28-3.14L90,411.84H87.62v-1.06l-1.76.56v7.34H83.68V412l-3,.88-.56-2.28c1-.22,2.22-.54,3.56-.9V406H82.34a16.18,16.18,0,0,1-.74,2.54,12.73,12.73,0,0,0-1.68-1.08A24.32,24.32,0,0,0,81.06,401l2,.32q-.12,1.2-.3,2.4h.94V400h2.18v3.74h1.66v1.88h4.4v-1.7H88.38v-2.16h3.54V400h2.36v1.78H98v2.16H94.28v1.7h4.54v2.2Zm-2.34,0h-7.1V406H85.86v3.06l1.84-.52.16,1.08h6.42Z"/><path d="M116.88,402.4a23.22,23.22,0,0,1-5.52,10.42,18.65,18.65,0,0,0,7.54,3.6,12,12,0,0,0-1.68,2.28,19,19,0,0,1-7.82-4.06,23,23,0,0,1-7.72,4.12,9.35,9.35,0,0,0-1.58-2.32,22.67,22.67,0,0,0,7.52-3.64,24.23,24.23,0,0,1-4.28-8l2.38-.68a19,19,0,0,0,3.82,6.92,18.17,18.17,0,0,0,4.2-7H101.4V401.7h13.32l.42-.12Z"/><path d="M132,414c1.38,1.52,3.66,2.26,7,2.5a9.19,9.19,0,0,0-1.42,2.2c-4.12-.48-6.54-1.78-8.1-4.4-1.06,2.14-3.28,3.56-8.22,4.36a7,7,0,0,0-1.18-2.14c3.8-.5,5.68-1.3,6.68-2.52H120.5v-2.08h7.24c.08-.38.14-.78.2-1.22h-7.32v-2.12h7.64v-1h-5.92v-2h5.92v-1h-6.84v-2.1h3.46a8,8,0,0,0-1-1.66l2.1-.82a7.91,7.91,0,0,1,1.48,2.28l-.46.2h5l-.56-.16a13.18,13.18,0,0,0,1.36-2.34l2.56.64c-.48.7-1,1.34-1.36,1.86h3.7v2.1H130.7v1h6.12v2H130.7v1h7.72v2.12h-8a11.94,11.94,0,0,1-.18,1.22h8.36V414Z"/><path d="M148.16,404.14a28.68,28.68,0,0,1-1.68,8.84,14.49,14.49,0,0,1,2.16,2.08L147.22,417a16.41,16.41,0,0,0-1.78-1.9,11.17,11.17,0,0,1-3.64,3.66,8.3,8.3,0,0,0-1.42-1.88,8.17,8.17,0,0,0,3.26-3.28c-.36-.3-.72-.56-1.08-.82l-.16.62-1.94-1c.44-1.64.94-3.88,1.42-6.2h-1.56V404h2c.26-1.38.5-2.74.68-4l2.24.2c-.2,1.18-.44,2.46-.7,3.76h1.8l.4-.06Zm-4.1,2c-.3,1.5-.64,3-1,4.38.48.32,1,.64,1.48,1a23,23,0,0,0,1.2-5.38Zm14.82,4h-4.4V416c0,1.2-.22,1.84-1,2.2a7.79,7.79,0,0,1-3.34.44,10.07,10.07,0,0,0-.86-2.34c1,0,2.08.06,2.4,0s.44-.08.44-.36v-5.84H147.9v-2.24h4.22V405.6h.74a17.72,17.72,0,0,0,1.92-2.4h-6.22V401h7.82l.48-.14,1.56,1.18a30.6,30.6,0,0,1-3.94,4.74v1.14h4.4Z"/><path d="M178.36,403.08s0,.8,0,1.08c-.26,8.94-.48,12.12-1.3,13.18a2.67,2.67,0,0,1-1.92,1.1,22.42,22.42,0,0,1-3.14,0,5.6,5.6,0,0,0-.78-2.32c1.28.12,2.46.12,3,.12a1.07,1.07,0,0,0,.88-.34c.58-.64.84-3.64,1.06-10.7h-4.28a17.25,17.25,0,0,1-1.76,3.16,14.86,14.86,0,0,0-1.54-1.12v9.34H163.2v1.46H161V403.22h2.26a21.45,21.45,0,0,0,.58-3.22l2.6.36c-.34,1-.7,2-1,2.86h3.1v3.24a20.69,20.69,0,0,0,2.7-6.44l2.26.52a23.21,23.21,0,0,1-.78,2.54Zm-12,2.22H163.2v3.24h3.18Zm0,9.22V410.6H163.2v3.92Zm6.64-1.08a42.8,42.8,0,0,0-2.78-4.62l1.86-1.06A48.27,48.27,0,0,1,175,412.2Z"/><path d="M184.08,405.48v-.76a19.3,19.3,0,0,1-1.78,1.46h8v6.22h-6.46c0,.26-.08.54-.14.8h6.9v5.38h-2.06V418h-3.38v.62h-2v-3.3a9.49,9.49,0,0,1-1.54,2.92,7.49,7.49,0,0,0-1.56-1.42c1.76-2.3,2-5.5,2-7.76v-2.72l-.66.44a6.74,6.74,0,0,0-1.42-1.68,13.84,13.84,0,0,0,5-4.88h2.12a39.45,39.45,0,0,1,4.18,3.6l-1.52,1.76c-.28-.32-.64-.72-1.06-1.16v1Zm4.08,5.26V410H184c0,.24,0,.5,0,.76Zm-4.1-2.9v.72h4.1v-.72Zm4.08-4c-.58-.56-1.2-1.14-1.78-1.6-.42.52-.88,1.06-1.4,1.6Zm-3,11v1.42h3.38V414.9Zm8.56-1.22h-2.24V402.42h2.24Zm4.44-13.28v15.44c0,1.32-.26,2-1.06,2.34a8.84,8.84,0,0,1-3.72.48,9.73,9.73,0,0,0-.78-2.42c1.2,0,2.36,0,2.74,0s.5-.12.5-.46V400.4Z"/><path d="M200.12,417a6.61,6.61,0,0,0,2.62-3.38l2,.7a7.63,7.63,0,0,1-2.76,3.94ZM218.2,406.1H200.9v-1.84h4.28a12.14,12.14,0,0,0-.5-1.34l.1,0h-2.9v-1.84h6.44V400h2.36v1.06h6.46v1.84h-2.82l.3.06c-.3.52-.6.94-.84,1.3h4.42Zm-6.8,10.46c.74,0,.86-.22,1-1.64a6.42,6.42,0,0,0,2,.76c-.26,2.22-.9,2.78-2.76,2.78H208.4c-2.52,0-3.14-.58-3.14-2.48v-2.1h2.16l-.24-.1.82-.8h-5v-6.06h13.26V413h-6.5a12.72,12.72,0,0,1,2.08,1.22l-1.44,1.48a12.48,12.48,0,0,0-2.82-1.72v2c0,.54.16.6,1.06.6Zm-6.14-7.32h8.64v-.86h-8.64Zm0,2.28h8.64v-.9h-8.64Zm1.8-8.62a12.18,12.18,0,0,1,.48,1.3l-.26.06h4.44l-.28-.06c.18-.38.42-.88.58-1.3Zm8.58,10.5A14.69,14.69,0,0,1,218.9,417l-2,1.14a16.58,16.58,0,0,0-3.14-3.74Z"/><path d="M228,410.58c-.86.24-1.72.48-2.58.7v4.64c0,1.18-.24,1.78-.92,2.14a6.58,6.58,0,0,1-3.08.44,8.26,8.26,0,0,0-.7-2.24c.8,0,1.64,0,1.9,0s.38-.1.38-.4v-4l-2.14.54-.66-2.36c.8-.16,1.78-.38,2.8-.64V406h-2.58V403.8H223V400h2.42v3.78h2.26V406h-2.26v2.86l2.28-.58Zm10.82-6.68h-3.18v11.66c0,1.4-.32,2.1-1.24,2.52a10.18,10.18,0,0,1-4.1.48,9,9,0,0,0-.94-2.6c1.24.08,2.74.06,3.14.06s.56-.12.56-.5V403.9H228v-2.38h10.82Z"/><path d="M245.08,414c.82,1.34,2.32,1.88,4.4,2,2.34.1,6.84,0,9.5-.16a12.46,12.46,0,0,0-.74,2.4c-2.4.12-6.42.16-8.8.06s-4.1-.66-5.4-2.22c-.88.78-1.76,1.56-2.86,2.4L240,416a26.27,26.27,0,0,0,2.74-1.84v-4.22h-2.3v-2.18h4.62Zm-1.38-9a15.13,15.13,0,0,0-3.22-3.16l1.76-1.44a16,16,0,0,1,3.34,3Zm3.5.9a14.82,14.82,0,0,0-2-1.12,10.86,10.86,0,0,0,2.84-4.66l2.22.52a14.56,14.56,0,0,1-.62,1.54h1.4V400h2.36v2.22h4.36v2h-4.36V406h5.18v2H245.74v-2Zm1.36-1.7a11.91,11.91,0,0,1-1.32,1.7h3.82v-1.7Zm-1.22,10.6V409H257.4v5.82Zm2.32-1.9h5.26v-2h-5.26Z"/><path d="M277.6,407a23.23,23.23,0,0,1-3.44,6.86c.58,1.44,1.22,2.28,1.86,2.28.48,0,.72-1,.82-3.5a6.47,6.47,0,0,0,2,1.34c-.38,3.7-1.18,4.58-3,4.58-1.4,0-2.5-1-3.38-2.64a17,17,0,0,1-3.38,2.72,15.68,15.68,0,0,0-1.72-2,15.28,15.28,0,0,0,4.08-3.24,41.31,41.31,0,0,1-1.38-8.06h-5.8v2.14h4.94s0,.62,0,.9c-.06,4.2-.18,6-.64,6.56a1.88,1.88,0,0,1-1.38.8,15.74,15.74,0,0,1-2.3.06,5.4,5.4,0,0,0-.66-2.22c.72.06,1.4.08,1.72.08a.65.65,0,0,0,.6-.24c.2-.28.28-1.24.34-3.76h-2.6c-.08,2.92-.5,6.82-2.14,9.26a10.41,10.41,0,0,0-2-1.62c1.52-2.4,1.66-5.88,1.66-8.48V403h8.16c0-1-.08-2-.08-3h2.5c0,1,0,2,0,3h3.06a25,25,0,0,0-2.56-1.74l1.44-1.42a16.73,16.73,0,0,1,3.26,2.14l-1,1h2.08v2.36H272.5a47.23,47.23,0,0,0,.8,5.48,20.24,20.24,0,0,0,1.92-4.44Z"/><path d="M290.7,416.06h7.4v2.14h-17v-2.14h7.14v-2.38h-5.54V411.6h5.54v-2.3H283.7v-1.58a25.59,25.59,0,0,1-2.22,1.38,8.79,8.79,0,0,0-1.5-1.92,21.83,21.83,0,0,0,8.12-7.24h2.46a21.14,21.14,0,0,0,8.56,7,11.59,11.59,0,0,0-1.58,2.14,25.35,25.35,0,0,1-2.16-1.34v1.56H290.7v2.3h5.6v2.08h-5.6Zm3.9-8.86a24.1,24.1,0,0,1-5.16-5,23,23,0,0,1-5,5Z"/><path d="M314.86,410a11.37,11.37,0,0,0,4.38,5.34,5.32,5.32,0,0,0-1.46,1.8,13.66,13.66,0,0,1-3.94-4.44V416c0,1.18-.24,1.82-.94,2.18a6.65,6.65,0,0,1-3.2.5,8.16,8.16,0,0,0-.82-2.3c1,0,1.92,0,2.24,0s.42-.12.42-.42V405.52h-4.72v-1.8h-2v3.36h2v2.18h-2v3.42L307,412l.24,1.48,3.32-2,.72,2c-1.5,1.08-3.18,2.22-4.6,3.08l-1.1-1.94c-1.78.6-3.56,1.16-5,1.62L300,414c.74-.18,1.64-.42,2.64-.68v-4.06h-2.1v-2.18h2.1v-3.36h-2.24v-2.2H307v1.84h4.5V400h2.3v3.36H317a14.16,14.16,0,0,0-2.44-2l1.32-1.24a14.14,14.14,0,0,1,2.66,2.08l-1.2,1.2h1.56v2.16h-5.06v.72a22,22,0,0,0,.84,3.3,18.91,18.91,0,0,0,2.08-3.34l2.08,1.1a40.06,40.06,0,0,1-2.66,3.44Zm-6,.8a15.65,15.65,0,0,0-1.84-3.58l1.84-.82a15.13,15.13,0,0,1,2,3.48Z"/><path d="M325.26,403.34v12.1c0,1.2-.22,1.84-.94,2.22a7.49,7.49,0,0,1-3.34.42,8.65,8.65,0,0,0-.7-2.3c.94,0,2,0,2.26,0s.4-.12.4-.4V403.34h-2.76v-2.22h7.24v2.22Zm5.38,11.38,1.82,1.26a18.78,18.78,0,0,1-5.12,2.64,13.65,13.65,0,0,0-1.46-1.64,15.53,15.53,0,0,0,4.54-2.26h-2V404.18h3.12c.1-.46.2-.94.28-1.4h-4v-2h11v2h-4.3l-.52,1.4h4.2v10.54Zm-.06-7.54h5.24v-1.26h-5.24Zm0,2.88h5.24V408.8h-5.24Zm0,2.94h5.24v-1.28h-5.24Zm4.66,1.76a29.37,29.37,0,0,1,4,2.52l-1.88,1.4a28.24,28.24,0,0,0-3.84-2.66Z"/><path d="M346.5,402.24a18.88,18.88,0,0,1-4.5,5.42,15.32,15.32,0,0,0-1.88-1.48,12.67,12.67,0,0,0,4.12-4.6Zm4.84,10.4c1.26,2.34,3.6,3.54,7.6,3.9a9,9,0,0,0-1.38,2.16c-4.22-.6-6.56-2.08-8-4.92-1.12,2.34-3.36,4-8.18,4.92a6.94,6.94,0,0,0-1.2-2.06c4.46-.74,6.32-2.06,7.16-4h-6.74v-2.12h7.32c.1-.58.16-1.2.22-1.88a17.46,17.46,0,0,1-1.84.06,9.49,9.49,0,0,0-.86-2.2c1,.06,2.2.06,2.52,0s.44-.08.44-.34V400h2.34v6.26c0,1.14-.22,1.7-1.06,2.06a4.37,4.37,0,0,1-1.12.28h2.12c-.06.68-.12,1.32-.22,1.92h8v2.12Zm5.24-5.12a22.74,22.74,0,0,0-4.3-4.86l1.94-1.12a24.18,24.18,0,0,1,4.46,4.68Z"/><path d="M378.36,403.08s0,.8,0,1.08c-.26,8.94-.48,12.12-1.3,13.18a2.67,2.67,0,0,1-1.92,1.1,22.42,22.42,0,0,1-3.14,0,5.6,5.6,0,0,0-.78-2.32c1.28.12,2.46.12,3,.12a1.07,1.07,0,0,0,.88-.34c.58-.64.84-3.64,1.06-10.7h-4.28a17.25,17.25,0,0,1-1.76,3.16,14.86,14.86,0,0,0-1.54-1.12v9.34H363.2v1.46H361V403.22h2.26a21.45,21.45,0,0,0,.58-3.22l2.6.36c-.34,1-.7,2-1,2.86h3.1v3.24a20.69,20.69,0,0,0,2.7-6.44l2.26.52a23.21,23.21,0,0,1-.78,2.54Zm-12,2.22H363.2v3.24h3.18Zm0,9.22V410.6H363.2v3.92Zm6.64-1.08a42.8,42.8,0,0,0-2.78-4.62l1.86-1.06A48.27,48.27,0,0,1,375,412.2Z"/><path d="M384.94,409c.52.56,2.26,2.92,2.64,3.5l-1.5,1.84a23.92,23.92,0,0,0-1.18-2.52v6.8h-2.12v-5.76A16.72,16.72,0,0,1,381,416.5a19.25,19.25,0,0,0-1.1-2.46,18.8,18.8,0,0,0,2.54-5.2h-2.2v-2.22h2.5v-.86l-1.62.38a18.87,18.87,0,0,0-.9-4.5l1.54-.4a17.89,17.89,0,0,1,1,4.3V400.1h2.12v5.1a33.54,33.54,0,0,0,.88-4.06l1.88.4c-.48,1.56-1,3.42-1.5,4.58l-1.26-.36v.88h1.9v2.2h-1.9v.2Zm13.82-2.58v1.72H387.34v-1.72h4.44v-.88h-3.4V404h3.4v-.8H387.9v-1.7h3.88V400H394v1.42h4.26v1.7H394v.8h3.82v1.58H394v.88Zm-1.14,10.12c0,1-.2,1.5-.88,1.8a7.1,7.1,0,0,1-2.88.32,7.4,7.4,0,0,0-.62-1.88c.74,0,1.58,0,1.82,0s.34-.08.34-.3v-.84h-4.82v3H388.4v-9.76h9.22Zm-7-5.92v1h4.82v-1Zm4.82,3.5v-1h-4.82v1Z"/><path d="M408.06,411.26a15.07,15.07,0,0,1,2.86,3l-1.58,1.6a13.72,13.72,0,0,0-2.28-2.74v5.5h-2.3V414a19.51,19.51,0,0,1-3.44,3.56,9.82,9.82,0,0,0-1.42-2.12,14.5,14.5,0,0,0,4.12-4.14H400.6v-2.14h4.16v-1.76h2.3v1.76h3.7v2.14Zm3.1-9.08a65.67,65.67,0,0,1-10.36,1.44,7.46,7.46,0,0,0-.62-2,63,63,0,0,0,9.56-1.48Zm-8.9,5.8a10.83,10.83,0,0,0-1.68-3.16l1.74-.76a10.66,10.66,0,0,1,1.8,3Zm3.74-4.46a12.19,12.19,0,0,1,1.36,2.92l-2,.7a11,11,0,0,0-1.24-3Zm5.22.6-.06.1a14.09,14.09,0,0,0,4.72-3.92l2.36,1a19.28,19.28,0,0,1-5.46,4.82,9.15,9.15,0,0,0-1.68-1.74c-.66,1.28-1.36,2.64-1.92,3.52l-1.82-.54a21.53,21.53,0,0,0,1.52-3.8Zm7.88,8.14a17.43,17.43,0,0,1-7.34,6.42,9.71,9.71,0,0,0-1.72-2.06,13.87,13.87,0,0,0,6.68-5.32Zm-.5-5.5a20.52,20.52,0,0,1-5.68,4.86,8.63,8.63,0,0,0-1.76-1.76,15.5,15.5,0,0,0,5.1-4.08Z"/><path d="M427.88,409.42v7.26c0,.86-.12,1.36-.66,1.66a4.11,4.11,0,0,1-2.14.34,8.11,8.11,0,0,0-.54-1.8c.46,0,.92,0,1.1,0s.22-.08.22-.24v-1.38h-2.14v3.4h-2v-9.26h-1.18V406.3h1.14v-5.68H428v5.68h1.2v2.26h9.52v1.58h-9.54v-.72Zm-.5-1.5h-5.14v.8h5.14Zm-4-1.62h.7v-3.18h2.1v-.82h-2.8Zm2.48,4h-2.14v.88h2.14Zm0,3.36v-.92h-2.14v.92Zm.32-7.38v-1.84h-.84v1.84Zm12.72,10.46v1.68H428.72v-1.68h2.56a8.07,8.07,0,0,0-.74-1.64l1.22-.44h-1.92v-3.9H438v3.9h-1.88l1.2.28c-.36.64-.72,1.26-1,1.8Zm-.6-8.88h-8.74v-6.2h2.22V400h1.66v1.66h.86V400H436v1.66h2.32Zm-7-3.84h.86v-.86h-.86Zm0,2.32h.86v-.88h-.86Zm.46,6.92H436v-1.1h-4.26Zm.5,1.4a7.71,7.71,0,0,1,.9,2.08h1.36a16.49,16.49,0,0,0,.8-2.08Zm2-10.64v-.86h-.86V404Zm-.86,1.44v.88h.86v-.88Zm3-2.3h-.88V404h.88Zm0,2.3h-.88v.88h.88Z"/><path d="M440,417a9.75,9.75,0,0,0,.9-4.48l1.3.24c-.1,1.84-.26,3.7-1,4.86Zm17-4.28a12.93,12.93,0,0,1-.38,2.12,22,22,0,0,1,2.34,2.72l-1.5,1.16a21.6,21.6,0,0,0-1.56-2,6.07,6.07,0,0,1-1.82,2.08,8.52,8.52,0,0,0-1.28-1.26l-.56.6A12.61,12.61,0,0,0,451,416.5a6,6,0,0,1-1.88,2.24,8.15,8.15,0,0,0-1.4-1.34,1.76,1.76,0,0,1-.26.58,1.51,1.51,0,0,1-1.14.68,10.24,10.24,0,0,1-1.7.08,4.88,4.88,0,0,0-.46-1.78,9.53,9.53,0,0,0,1.18.06.52.52,0,0,0,.5-.24,4.86,4.86,0,0,0,.3-1.82l-.54.2a11.69,11.69,0,0,0-.84-2.58l.88-.28a11.72,11.72,0,0,1,.56,1.34c0-.58.06-1.26.08-2H441V400.72h7v1.86h-2.08v1.24h1.72v1.74h-1.72v1.22h1.78v1.74h-1.78v1.28h2.3s0,.5,0,.76a44,44,0,0,1-.42,6.8c1.52-1,2.16-2.64,2.34-4.78l2,.12a14.27,14.27,0,0,1-.34,2,18.64,18.64,0,0,1,1.78,2,6.59,6.59,0,0,0,1.54-4.1Zm-13.66.1a21.55,21.55,0,0,1,.18,3.68l-1.08.12a21,21,0,0,0-.1-3.68Zm-.5-10.2v1.24h1.24v-1.24Zm1.24,3h-1.24v1.22h1.24Zm-1.24,4.24h1.24v-1.28h-1.24Zm1.7,2.78a17.36,17.36,0,0,1,.58,3.24l-1,.18a14.7,14.7,0,0,0-.56-3.24Zm6.24-7.4a11.73,11.73,0,0,1-2,1.48,7.26,7.26,0,0,0-1.06-2A11.62,11.62,0,0,0,452.2,400h2.12a11.94,11.94,0,0,0,4.8,4.48,15.44,15.44,0,0,0-1.2,2.1,13.65,13.65,0,0,1-1.88-1.34v1.22h-5.26Zm-2,2.18h4.3v4.88h-4.3Zm1.56,3.38h1.12v-1.9h-1.12Zm5.16-6a13.39,13.39,0,0,1-2.16-2.62,11.93,11.93,0,0,1-2.06,2.62Zm-1.7,2.62h4.46v4.88h-4.46Zm1.54,3.38h1.26v-1.9h-1.26Z"/></g></g></svg>