<svg xmlns="http://www.w3.org/2000/svg" viewBox="0 0 520 564.6"><title>about-zh-sp</title><g id="Layer_2" data-name="Layer 2"><g id="レイヤー_2" data-name="レイヤー 2"><path d="M23.24,12.32A25.6,25.6,0,0,1,18.93,18c.7,2,1.51,3.2,2.29,3.2.54,0,.85-1.25,1-4.32a8,8,0,0,0,2.55,1.77c-.49,4.55-1.45,5.69-3.82,5.69-1.9,0-3.35-1.56-4.47-4.11a27.23,27.23,0,0,1-4.81,3.18,13.18,13.18,0,0,0-2.06-2.5,26,26,0,0,0,5.8-3.67,48.21,48.21,0,0,1-1.32-7H8.79v3c1.32-.23,2.68-.49,4-.73L13,15.34l-4.24.86v4.45c0,1.68-.37,2.52-1.41,3a11.15,11.15,0,0,1-4.68.6,12.49,12.49,0,0,0-1.09-3.12c1.46.08,3,.05,3.43,0s.63-.14.63-.55V16.85c-1.67.34-3.28.67-4.66.93L.26,14.66c1.48-.23,3.35-.52,5.41-.88V10.3H.75V7.36H5.67v-3c-1.41.24-2.84.42-4.16.58a11.58,11.58,0,0,0-.89-2.6A66.76,66.76,0,0,0,11,.18L13,2.81c-1.3.39-2.73.73-4.24,1V7.36h5C13.57,5,13.49,2.6,13.47.23h3.25A64.18,64.18,0,0,0,17,7.36h7.07V10.3H17.29c.21,1.56.47,3.06.75,4.39a21,21,0,0,0,2.47-3.54ZM21.35,6.6a20.83,20.83,0,0,0-3.7-4.29L20,.73a22.11,22.11,0,0,1,3.85,4.13Z"/><path d="M40.9,11.28H36.43V24.21H33.57V1.43c-.52,1.48-1.12,3-1.8,4.5V24.26H28.83v-13a19.74,19.74,0,0,1-1.61,2.13,21.59,21.59,0,0,0-1.48-3.33A28.57,28.57,0,0,0,30.89,0l2.86.85-.16.5H40.9ZM36.43,3.72V5.2h2.13V3.72Zm2.13,5.22V7.41H36.43V8.94ZM49.79,20.67c0,1.72-.36,2.55-1.4,3s-2.71.57-5.15.57a11.54,11.54,0,0,0-1-3,38.48,38.48,0,0,0,3.9.05c.5,0,.68-.15.68-.64V11.28H42.07V1.38h7.72Zm-5.28-17V5.2h2.32V3.72Zm2.32,5.22V7.41H44.51V8.94Z"/><path d="M66.22,20.93c.68.05,1.38.08,2.08.08,1.46,0,6.45,0,8.3-.08a10.13,10.13,0,0,0-1,3H68.15c-4.76,0-8-.68-10.17-3.7a11.71,11.71,0,0,1-3.64,4.14A12.48,12.48,0,0,0,52,22.18c2.65-1.64,4.24-4.4,4.84-7.88l3.09.47c-.18.83-.39,1.61-.6,2.36a5.72,5.72,0,0,0,3.75,3.25v-6.6H52.94V11.05H75.87v2.73H66.22v2h8v2.68h-8Zm7.18-11H55.33v-9H73.4ZM70.25,3H58.34V4.37H70.25Zm0,3.36H58.34V7.75H70.25Z"/><path d="M83.3,7.12v-1A23.85,23.85,0,0,1,81,8h10.4v8.09H83c0,.34-.1.7-.18,1h9v7H89.1v-.72H84.71v.8h-2.6V19.94a12.44,12.44,0,0,1-2,3.8,10.15,10.15,0,0,0-2-1.85c2.29-3,2.57-7.15,2.57-10.09V8.27c-.28.18-.57.39-.86.57A8.4,8.4,0,0,0,78,6.66,18.06,18.06,0,0,0,84.47.31h2.76A51.34,51.34,0,0,1,92.66,5l-2,2.29c-.37-.42-.83-.94-1.38-1.51V7.12ZM88.61,14V13H83.25c0,.32,0,.65,0,1Zm-5.33-3.77v.94h5.33v-.94ZM88.58,5C87.83,4.32,87,3.56,86.27,3c-.55.68-1.15,1.38-1.82,2.08ZM84.71,19.37v1.85H89.1V19.37Zm11.13-1.59H92.92V3.15h2.92ZM101.61.52V20.59c0,1.72-.34,2.58-1.38,3.05s-2.6.62-4.84.62a12.8,12.8,0,0,0-1-3.15c1.56.06,3.07.06,3.56.06s.65-.16.65-.6V.52Z"/><path d="M104.16,22.13a8.63,8.63,0,0,0,3.4-4.4l2.6.91a10,10,0,0,1-3.59,5.13Zm23.5-14.2H105.17V5.54h5.56a13.11,13.11,0,0,0-.65-1.74l.13,0h-3.77V1.38h8.38V0h3.06V1.38h8.4V3.77h-3.66l.39.08c-.39.67-.78,1.22-1.1,1.69h5.75Zm-8.84,13.6c1,0,1.12-.29,1.25-2.13a8.37,8.37,0,0,0,2.62,1c-.33,2.89-1.17,3.62-3.58,3.62h-4.19c-3.28,0-4.08-.75-4.08-3.23V18h2.81l-.32-.13,1.07-1h-6.5V9h17.24v7.87h-8.45a17.21,17.21,0,0,1,2.7,1.59l-1.87,1.92a16.14,16.14,0,0,0-3.67-2.23v2.6c0,.7.21.78,1.38.78Zm-8-9.52h11.23V10.89H110.84Zm0,3h11.23V13.81H110.84Zm2.34-11.21a16,16,0,0,1,.62,1.69l-.34.08h5.78l-.37-.08c.24-.49.55-1.14.76-1.69Zm11.15,13.65a19.14,19.14,0,0,1,4.24,4.71L126,23.61a21.44,21.44,0,0,0-4.08-4.86Z"/><path d="M139.75,1.17A40.5,40.5,0,0,1,137.33,6V24.23h-3.22V10.58a24.67,24.67,0,0,1-2.71,2.91,19.93,19.93,0,0,0-1.71-3.14A27.19,27.19,0,0,0,136.79.21Zm7.12,9.41c.73,5.77,2.11,9.62,4.19,9.88.6.06.91-1.25,1.12-4.13a11.06,11.06,0,0,0,2.52,1.77c-.65,5-2,6.21-3.51,6.13-4.39-.41-6.45-5.3-7.38-13.23l-5.13.7-.44-3,5.25-.7c-.18-2.34-.33-4.89-.41-7.62h3.14c.06,2.55.16,5,.34,7.2l7.41-1,.45,2.91ZM151.53,6A22.36,22.36,0,0,0,148,1.61L150.28.18A23.37,23.37,0,0,1,154,4.37Z"/><path d="M165.23,19.08c-2.86,1-6,2-8.48,2.81l-.7-3.14c.91-.24,2-.52,3.17-.86V11.78H156.6V8.94h2.62V4.37h-2.86V1.48h8.58V4.37h-2.78V8.94h2.34v2.84h-2.34V17c.86-.26,1.72-.52,2.55-.81Zm15.44,1.59v2.81H164V20.67h7.17V18.2h-5.38V15.42h5.38V13.18h-5.2V1.09H179.5V13.18h-5.22v2.24h5.51V18.2h-5.51v2.47Zm-12-14.79h2.68V3.72h-2.68Zm0,4.68h2.68V8.32h-2.68Zm7.86-6.84H174V5.88h2.58Zm0,4.6H174v2.24h2.58Z"/><path d="M201.14,4.78c-.42.76-.81,1.46-1.15,2h5.18V20.9c0,1.54-.32,2.37-1.33,2.87a11.73,11.73,0,0,1-4.5.52,12.7,12.7,0,0,0-.88-2.63h-6.35v1.43h-2.73V14.92h10.2v6.45c.91,0,1.71,0,2,0s.58-.13.58-.52v-8a2,2,0,0,1-2.08,1H198c-2.31,0-2.78-.71-2.78-2.81V9.46H193.1c-.23,2.89-1.19,4.55-5.15,5.46a6.37,6.37,0,0,0-1.11-1.82V24.23H183.9V6.81h4.63a17.17,17.17,0,0,0-.81-2H183V2h9.68V0h3.14V2h9.94v2.8Zm-14.3,8c2.78-.55,3.38-1.48,3.56-3.28h-3.56Zm9.75-5.93c.31-.62.67-1.35,1-2h-6.5a12.81,12.81,0,0,1,.83,2Zm.2,10.4h-4.68V19.4h4.68Zm5.39-7.75h-4.32V11.1c0,.55.08.63.52.63h1.35c.44,0,.55-.19.63-1.43a7.49,7.49,0,0,0,1.82.72Z"/><path d="M211.59,23.5c2-.65,3.19-1.76,3.35-3.14a.86.86,0,0,1-.29,0,2.31,2.31,0,0,1-2.47-2.32,2.37,2.37,0,0,1,2.55-2.34c1.84,0,2.81,1.38,2.81,3.56,0,3-1.9,5.36-5.12,6.32Z"/><path d="M248.21,20.93c.67.05,1.38.08,2.08.08,1.45,0,6.44,0,8.29-.08a10.74,10.74,0,0,0-1,3h-7.41c-4.76,0-8-.68-10.17-3.7a11.61,11.61,0,0,1-3.64,4.14A12.18,12.18,0,0,0,234,22.18c2.66-1.64,4.24-4.4,4.84-7.88l3.09.47c-.18.83-.39,1.61-.59,2.36a5.71,5.71,0,0,0,3.74,3.25v-6.6H234.92V11.05h22.93v2.73h-9.64v2h8v2.68h-8Zm7.17-11H237.31v-9h18.07ZM252.24,3H240.33V4.37h11.91Zm0,3.36H240.33V7.75h11.91Z"/><path d="M283.13,7.59a32.92,32.92,0,0,1-2.55,9.93,11.5,11.5,0,0,0,4.05,4.35,10.89,10.89,0,0,0-2,2.47,13,13,0,0,1-3.79-3.93,15.57,15.57,0,0,1-4.42,4,13.81,13.81,0,0,0-1.33-2.16L271.3,24a25.08,25.08,0,0,0-2.74-1.67A19.2,19.2,0,0,1,262,24.39,7.06,7.06,0,0,0,260.9,22a17.16,17.16,0,0,0,4.91-1c-.47-.18-.94-.38-1.41-.57l-.2.34-2.47-.6c.44-.65.93-1.45,1.45-2.31l-2.78,0-.1-2.28c1.19,0,2.62,0,4.16,0,.21-.36.39-.7.57-1h-3.69V9.75h4.6V8.94h-4.08V6.19h-1.64V4h1.64V1.27h4.08V0h2.62V1.27h4.32V4h1.69V6.19h-1.69V8.94h-4.32v.81h4.84v.83C274.88,7.83,275.72,4,276.18,0l2.94.39c-.18,1.48-.44,2.94-.73,4.34h6.11V7.59Zm-19.24,5.12h2.05V11.62h-2.05Zm.51-9.49v.94h1.54V3.22ZM265.94,7V6H264.4V7Zm-.34,11.57c.86.29,1.72.63,2.58,1a6.81,6.81,0,0,0,1.17-1.77l-3.31.06Zm6.53-.85a8.38,8.38,0,0,1-1.54,2.94c.81.41,1.56.8,2.19,1.16a11.94,11.94,0,0,0,4.57-4.31,33,33,0,0,1-1.56-5.05,13.43,13.43,0,0,1-1,1.72,12.19,12.19,0,0,0-1.38-1.53v1.92h-5.77l.23,0-.52,1c2.34,0,4.84-.07,7.26-.1l-.08,2.18ZM268.56,3.22v.94h1.64V3.22ZM270.2,7V6h-1.64V7Zm-1.64,4.63v1.09h2.16V11.62Zm9.11-4-.06.16A37.73,37.73,0,0,0,279,13.86a34.17,34.17,0,0,0,1.22-6.27Z"/><path d="M294.9,1a40.62,40.62,0,0,1-2.44,5V24.21h-2.94V10.45a25,25,0,0,1-2.13,2.45,21.36,21.36,0,0,0-1.64-3.23A26.87,26.87,0,0,0,292,.05Zm15.71,19.27v2.91h-16.8V20.28h8.53a69.5,69.5,0,0,0,2.5-11.65l3.38.55a102.87,102.87,0,0,1-2.89,11.1ZM300.44,4.68V.34h3.12V4.68h6.5V7.62H294.33V4.68Zm-2.75,14.77a56.92,56.92,0,0,0-1.56-10.17l2.78-.49a61.72,61.72,0,0,1,1.84,10Z"/><path d="M335.18,17.73a33.16,33.16,0,0,1-4.29,2.39,17.41,17.41,0,0,0,5.64,1.75,10.21,10.21,0,0,0-1.69,2.47c-5.41-1-8.66-3.49-10.61-7.62a18.76,18.76,0,0,1-3.07,1.84v2.27c1.69-.21,3.46-.45,5.2-.68l.11,2.42c-3.67.52-7.54,1-10.4,1.45l-.45-2.52,2.58-.28V19.76a29.62,29.62,0,0,1-4.29,1.09,13.31,13.31,0,0,0-1.64-2.23,29.4,29.4,0,0,0,8-2.19h-7.6V14h10.12V12.66h-1a7.78,7.78,0,0,0-.76-1.79c.6,0,1.23,0,1.41,0s.31-.07.31-.28V9.54h-2.13v3.8H318V9.54H316v3.23H313.7V7.67H318V6.76h-5.33V4.68h1.59c-.52-.31-1.2-.7-1.61-.91a11.42,11.42,0,0,0,2-3.74l2.27.57c-.13.36-.26.7-.42,1.06H318V0h2.63V1.66h4.31v2h-4.31v1h5V6.76h-5v.91h4.6v2.94c0,1-.18,1.45-.86,1.77a3.6,3.6,0,0,1-1.22.26h2.76V14H336v2.44h-2.6ZM318,4.68v-1h-2.47a11.54,11.54,0,0,1-.65,1Zm11.47,5H326.7V1h2.76ZM327,16.43a9.69,9.69,0,0,0,1.85,2.24,30.4,30.4,0,0,0,3.69-2.24Zm8.14-5.85c0,1.33-.26,2-1.2,2.37a10.92,10.92,0,0,1-4,.41,9.89,9.89,0,0,0-.91-2.44c1.17.05,2.41.05,2.78,0s.49-.11.49-.45V.18h2.81Z"/><path d="M346.93,1a39.94,39.94,0,0,1-2.5,5.41V24.26h-3.12v-13c-.54.65-1.09,1.3-1.61,1.87A21.32,21.32,0,0,0,338,9.83,27,27,0,0,0,343.91.1Zm8.24,6.14V9.91h6.74v2.8h-6.74v2.94h7.07v2.86h-7.07v5.78H352V7.18h-1a28.91,28.91,0,0,1-3.41,5,21.39,21.39,0,0,0-2.36-2.16,25.76,25.76,0,0,0,5.51-9.8l3,.75a30.45,30.45,0,0,1-1.27,3.23h10.09V7.18Z"/><path d="M374.59,1.59a31.62,31.62,0,0,1-7,10.58,19.66,19.66,0,0,0-3-2.32A22.21,22.21,0,0,0,371.06.57Zm7.23,12.16a59.43,59.43,0,0,1,6,9l-3.22,1.69a18.14,18.14,0,0,0-1.07-2.09c-6.24.42-12.79.81-17.37,1l-.41-3.25,3.61-.13a63.54,63.54,0,0,0,4.45-10.51l3.72.86a100.83,100.83,0,0,1-4.63,9.49c2.81-.13,5.85-.28,8.86-.44-.93-1.46-2-2.94-2.93-4.21ZM381.46.62a34.72,34.72,0,0,0,6.84,8.87,15.81,15.81,0,0,0-2.6,2.7A53.74,53.74,0,0,1,378.36,1.9Z"/><path d="M412.81,20.36c0,1.77-.31,2.7-1.43,3.25s-2.73.62-5,.6a12.66,12.66,0,0,0-1-3.36,33.86,33.86,0,0,0,3.66,0c.47,0,.65-.13.65-.57V4.5H391.49V1.56h21.32ZM407,9.05H391.75V6.34H407ZM396.1,19.76v1.87h-3V11h12.61v8.79Zm0-6.14v3.49h6.55V13.62Z"/><path d="M14.22,80.93c.68,0,1.38.08,2.08.08,1.46,0,6.45,0,8.3-.08a10.13,10.13,0,0,0-1,3H16.15c-4.76,0-8-.68-10.17-3.7a11.71,11.71,0,0,1-3.64,4.14A12.48,12.48,0,0,0,0,82.18c2.65-1.64,4.24-4.4,4.84-7.88l3.09.47c-.18.83-.39,1.61-.6,2.36a5.72,5.72,0,0,0,3.75,3.25v-6.6H.94V71.05H23.87v2.73H14.22v2h8v2.68h-8Zm7.18-11H3.33v-9H21.4ZM18.25,63H6.34v1.33H18.25Zm0,3.36H6.34v1.35H18.25Z"/><path d="M36.4,66.73H26.23V64.29H36.4Zm13,5a17.63,17.63,0,0,1-4,7.56,17.61,17.61,0,0,0,5.36,2.24,13,13,0,0,0-2,2.68A18,18,0,0,1,43,81.42a20.86,20.86,0,0,1-6,2.84,12.88,12.88,0,0,0-1.61-2.68v1.33H30v1H27.38V75.05h8.06v6.48a17,17,0,0,0,5.25-2.24,18.09,18.09,0,0,1-3-4.5l2.65-.85H36.74V71.15h.88a13.64,13.64,0,0,0-2.16-1.87v1h-8V67.9h8v1.25A5.84,5.84,0,0,0,38,63.82V60.73H46.7v5.82c0,.73,0,.81.33.81h.66c.33,0,.44-.34.46-2.6a9.07,9.07,0,0,0,2.52,1.09C50.42,69.07,49.74,70,48,70H46.49c-2.08,0-2.68-.8-2.68-3.38V63.46H40.9v.44c0,2.44-.52,5.41-3.23,7.25h9.16l.52-.13Zm-13.92,2h-8V71.47h8Zm-.05-10.63H27.56V60.81h7.85ZM32.76,77.5H30v3h2.76Zm7.67-3.56A12.72,12.72,0,0,0,43,77.45a12.52,12.52,0,0,0,2.45-3.51Z"/><path d="M62.87,66.73H52.23V64.29H62.87ZM61.75,82.91H56.08v1H53.4V75.05h8.35Zm-8.27-15h8.35v2.37H53.48Zm0,3.57h8.35v2.31H53.48Zm8.4-8.32H53.64V60.81h8.24ZM56.08,77.5v3h3v-3Zm20.67-5.75H71.32V84.29H68.2V71.75H62.76V68.68H68.2V60.1h3.12v8.58h5.43Z"/><path d="M102.26,79.37v3.12H78.62V79.37h9.91V65.93H80V62.7H100.8v3.23H92.07V79.37Z"/><path d="M112.94,61a39.88,39.88,0,0,1-2.49,5.41V84.26h-3.12v-13c-.55.65-1.09,1.3-1.61,1.87a21.32,21.32,0,0,0-1.72-3.3,27,27,0,0,0,5.93-9.73Zm8.25,6.14v2.73h6.73v2.8h-6.73v2.94h7.07v2.86h-7.07v5.78H118V67.18h-1a28.91,28.91,0,0,1-3.41,5,21.51,21.51,0,0,0-2.37-2.16,25.77,25.77,0,0,0,5.52-9.8l3,.75a30.53,30.53,0,0,1-1.28,3.23h10.09v2.94Z"/><path d="M154,80.83v2.73h-23V80.83h9.77v-2h-7.46V76.17h7.46V74l-7.8.21-.13-2.75,3.69-.06c.39-.78.81-1.63,1.15-2.44h-3.75V67.1H131V61.69h9.7V60h3.17v1.66h9.94V67.1H151V69h-3.25a32.7,32.7,0,0,1,5.14,4.55l-2.41,1.69a18.53,18.53,0,0,0-1.28-1.46l-5.28.16v2.26h8v2.65h-8v2ZM134,64.5v1.84h16.64V64.5ZM141.15,69c-.46.81-1,1.64-1.45,2.39l6.68-.13c-.49-.41-1-.8-1.46-1.14L146.59,69Z"/><path d="M159.59,83.5c2-.65,3.19-1.76,3.35-3.14a.86.86,0,0,1-.29,0,2.31,2.31,0,0,1-2.47-2.32,2.37,2.37,0,0,1,2.55-2.34c1.84,0,2.81,1.38,2.81,3.56,0,3-1.9,5.36-5.12,6.32Z"/><path d="M196.21,80.93c.67,0,1.37.08,2.08.08,1.45,0,6.45,0,8.29-.08a10.74,10.74,0,0,0-1,3h-7.41c-4.76,0-8-.68-10.17-3.7a11.61,11.61,0,0,1-3.64,4.14A12.18,12.18,0,0,0,182,82.18c2.66-1.64,4.24-4.4,4.84-7.88l3.09.47c-.18.83-.39,1.61-.59,2.36a5.71,5.71,0,0,0,3.74,3.25v-6.6H182.92V71.05h22.93v2.73h-9.64v2h8v2.68h-8Zm7.17-11H185.31v-9h18.07ZM200.24,63H188.33v1.33h11.91Zm0,3.36H188.33v1.35h11.91Z"/><path d="M209.23,72.58h9.91V84.15H216V83h-3.87v1.31h-2.94Zm2.94,3V80H216V75.55Zm15.89-5.12H212.82V61h15.24ZM224.91,64h-9.1v3.51h9.1Zm6.66,8.6v11.6h-3.12V83h-4.14v1.31h-3V72.58ZM228.45,80V75.55h-4.14V80Z"/><path d="M238.33,70.32c0,.65,0,1.38,0,2.11h4.91V84.31h-2.75V75H238.2a36.42,36.42,0,0,1-1.59,9.31,14.16,14.16,0,0,0-2.57-.91c1.4-3.75,1.63-9.47,1.63-13.11V60.68h2.66v6.13H240V60h2.68v6.78h1.72v2.63h-6Zm20,8.84h-3.4v5.15H252V79.16h-8.11V76.59h2.28a11.39,11.39,0,0,0-1.58-1.33,9,9,0,0,0,3.72-2.49H244.8V62.42h4.08a16.64,16.64,0,0,0,.81-2.45l3.41.58c-.37.65-.73,1.27-1.1,1.87h5.67V72.77h-6.14a8.81,8.81,0,0,1-4.16,3.82H252v-3.3h2.89v3.3h3.4ZM247.53,66.5h2.37V64.73h-2.37Zm2.08,3.93a10.69,10.69,0,0,0,.29-1.8h-2.37v1.8Zm5.23-1.8H252.5a14.3,14.3,0,0,1-.19,1.8h2.53Zm0-3.9H252.5V66.5h2.34Z"/><path d="M273,82.05a13.11,13.11,0,0,0,3.14-2.76l2.45,1.46a17.5,17.5,0,0,1-4.5,3.59c-.36-.39-.94-.94-1.46-1.41h-5.82v1h-2.16V76.85l-.05.05a10.21,10.21,0,0,0-.81-.81A23.58,23.58,0,0,1,262.09,84a9.24,9.24,0,0,0-2.18-1.59c1.4-3.14,1.5-7.59,1.5-10.79V64.91h11.08v5.75h-2.63l1.64.44-.78,1.54h2v1.89h-2.34v1h2.24v1.69h-2.24v1h2.24v1.69h-2.24v1H273Zm-.55-18.46h-11.7V61h11.7Zm-8.5,8c0,.76,0,1.61-.05,2.5a13.8,13.8,0,0,0,1.58-3.46H264Zm0-4.6v1.53h5.74V67Zm3.74,3.87c-.18.58-.39,1.17-.62,1.75h1.43c.23-.65.47-1.38.62-2h-2.39Zm.68,3.64h-1.56v1h1.56Zm0,2.71h-1.56v1h1.56Zm-1.56,3.69h1.56v-1h-1.56Zm10.22-15.65c.08-.55.13-1.09.18-1.64h-3.82V61h10.74v2.6h-3.85c-.16.57-.31,1.12-.47,1.64h3.9V79.06H274V65.28Zm4.05,2.34h-4.65V69.2h4.65Zm0,3.74h-4.65V73h4.65Zm0,3.8h-4.65v1.58h4.65Zm.37,4.24a26.89,26.89,0,0,1,3.33,3.35l-2.32,1.56a27.06,27.06,0,0,0-3.2-3.54Z"/><path d="M290.56,70.66V84.29h-3.07V61h9.94v9.67Zm0-7.31v1.41h4V63.35Zm4,5V66.84h-4v1.48Zm1.59,12.3v1.45h-2.89V72.45H303.3v8.17Zm0-5.62v3.07h4.29V75Zm13.28,5.59c0,1.72-.36,2.6-1.45,3.1s-2.71.6-5.1.6a11,11,0,0,0-1-3.18c1.51.11,3.28.08,3.77.06s.68-.16.68-.63V70.69h-7V61h10.19Zm-7.25-17.26v1.43h4.11V63.33Zm4.11,5V66.84h-4.11v1.51Z"/><path d="M14.22,140.93c.68,0,1.38.08,2.08.08,1.46,0,6.45,0,8.3-.08a10.13,10.13,0,0,0-1,3H16.15c-4.76,0-8-.68-10.17-3.7a11.71,11.71,0,0,1-3.64,4.14A12.48,12.48,0,0,0,0,142.18c2.65-1.64,4.24-4.4,4.84-7.88l3.09.47c-.18.83-.39,1.61-.6,2.36a5.72,5.72,0,0,0,3.75,3.25v-6.6H.94v-2.73H23.87v2.73H14.22v1.95h8v2.68h-8Zm7.18-11H3.33v-9H21.4ZM18.25,123H6.34v1.33H18.25Zm0,3.36H6.34v1.35H18.25Z"/><path d="M31.3,127.12v-1A23.85,23.85,0,0,1,29,128h10.4v8.09H31c0,.34-.1.7-.18,1h9v7H37.1v-.72H32.71v.8h-2.6v-4.29a12.44,12.44,0,0,1-2,3.8,10.15,10.15,0,0,0-2-1.85c2.29-3,2.57-7.15,2.57-10.09v-3.53c-.28.18-.57.39-.86.57A8.4,8.4,0,0,0,26,126.66a18.06,18.06,0,0,0,6.52-6.35h2.76A51.34,51.34,0,0,1,40.66,125l-2,2.29c-.37-.42-.83-.94-1.38-1.51v1.35ZM36.61,134v-1H31.25c0,.32,0,.65-.05,1Zm-5.33-3.77v.94h5.33v-.94Zm5.3-5.15c-.75-.72-1.56-1.48-2.31-2.08-.55.68-1.15,1.38-1.82,2.08Zm-3.87,14.33v1.85H37.1v-1.85Zm11.13-1.59H40.92V123.15h2.92Zm5.77-17.26v20.07c0,1.72-.34,2.58-1.38,3s-2.6.62-4.84.62a12.8,12.8,0,0,0-1-3.15c1.56.06,3.07.06,3.56.06s.65-.16.65-.6v-20Z"/><path d="M60.16,135.68c.94.65,3.1,2.36,3.7,2.83l-1.8,2.21a22.77,22.77,0,0,0-1.9-2v5.54h-3V139a18.3,18.3,0,0,1-3.3,3.66,11.52,11.52,0,0,0-2-2.18,17.14,17.14,0,0,0,4.68-5H52.6v-2.6h4.57v-2H52.52v-2.55h2.39a11.29,11.29,0,0,0-.78-2.86l1.59-.36H52.81v-2.53h4.36v-2.36h3v2.36h4.32v2.53H61.8l1.51.28c-.47,1.12-.88,2.16-1.25,2.94h2.63v2.55H60.16v2h4.29v2.6H60.16ZM56.58,125.1a10.13,10.13,0,0,1,.88,2.86l-1.3.36h5.1L59.54,128a19.59,19.59,0,0,0,1-2.86Zm19.91,6.31H74v12.72H71V131.41H68.38c0,3.88-.57,9.36-4,12.93a7.18,7.18,0,0,0-2.21-2.11c3-3.17,3.3-7.59,3.3-11.18v-9l1.82.52a30.18,30.18,0,0,0,6.6-2.29l2.47,2.26a41.58,41.58,0,0,1-8,2.39v3.64h8.11Z"/><path d="M95.47,140.59c2.39.68,4.79,1.43,6.4,2l-2.68,1.72c-1.74-.71-4.76-1.72-7.72-2.58l1.35-1.12H87.75l1.53,1a28.8,28.8,0,0,1-8.78,2.66,14.4,14.4,0,0,0-1.85-2,36.36,36.36,0,0,0,6.94-1.69H81.85v-8.66H99.09v8.66Zm6.45-13.67v2.18H97.58l-.18,2.05h-15l.26-2.05h-3.8v-2.18H83l.26-2.08H98l-.2,2.08Zm-19.81-.78H79.33v-4.55h9.49V120h3.09v1.59h9.54v4.55H98.57V124H82.11Zm2.73,8.16h11.1v-.75H84.84Zm0,2.31h11.1v-.78H84.84Zm0,2.34h11.1v-.8H84.84Zm.49-9.33h3.28l.1-.81H85.44Zm.42-3.22-.11.8h3.28l.08-.8Zm9,3.22.08-.81H91.29l-.11.81ZM95,126.4H91.55l-.08.8h3.46Z"/><path d="M104,142.05c.86-1.38,1.09-3.59,1.17-5.83l1.69.32c-.13,2.39-.34,4.81-1.3,6.31Zm22.15-5.57a16.8,16.8,0,0,1-.49,2.76,28.81,28.81,0,0,1,3,3.54l-2,1.51a27.13,27.13,0,0,0-2-2.66,7.82,7.82,0,0,1-2.37,2.71,10.76,10.76,0,0,0-1.66-1.64l-.73.78a16.32,16.32,0,0,0-1.58-2,7.82,7.82,0,0,1-2.45,2.91,10.82,10.82,0,0,0-1.82-1.74,2.27,2.27,0,0,1-.34.76,2,2,0,0,1-1.48.88,13.8,13.8,0,0,1-2.21.1,6.27,6.27,0,0,0-.6-2.31,12.15,12.15,0,0,0,1.54.08.68.68,0,0,0,.65-.32,6.41,6.41,0,0,0,.39-2.36l-.7.26a15.25,15.25,0,0,0-1.1-3.36l1.15-.36a15.41,15.41,0,0,1,.73,1.74c0-.75.07-1.64.1-2.65h-6.92V120.94h9.08v2.41h-2.71V125h2.24v2.26h-2.24v1.58H114v2.27h-2.32v1.66h3s0,.65,0,1c-.13,5-.24,7.59-.55,8.84,2-1.3,2.81-3.43,3-6.22l2.55.16a17.81,17.81,0,0,1-.44,2.55,23.94,23.94,0,0,1,2.31,2.6,8.57,8.57,0,0,0,2-5.33Zm-17.76.13a27.72,27.72,0,0,1,.24,4.79l-1.41.16a27,27,0,0,0-.13-4.79Zm-.65-13.26V125h1.61v-1.62Zm1.61,3.88h-1.61v1.58h1.61Zm-1.61,5.51h1.61v-1.66h-1.61Zm2.21,3.61a22.88,22.88,0,0,1,.76,4.22l-1.3.23a19.3,19.3,0,0,0-.73-4.21Zm8.11-9.62a14.9,14.9,0,0,1-2.65,1.93,9.42,9.42,0,0,0-1.38-2.58,15,15,0,0,0,5.88-6h2.76a15.49,15.49,0,0,0,6.24,5.82,18.74,18.74,0,0,0-1.56,2.73,18.47,18.47,0,0,1-2.45-1.74v1.58H118Zm-2.62,2.84H121v6.34h-5.59Zm2,4.39h1.45v-2.47h-1.45Zm6.7-7.8a17.45,17.45,0,0,1-2.8-3.4,15.76,15.76,0,0,1-2.68,3.4Zm-2.21,3.41h5.8v6.34h-5.8Zm2,4.39h1.63v-2.47h-1.63Z"/><path d="M154,140.83v2.73h-23v-2.73h9.77v-2h-7.46v-2.65h7.46V134l-7.8.21-.13-2.75,3.69-.06c.39-.78.81-1.63,1.15-2.44h-3.75V127.1H131v-5.41h9.7V120h3.17v1.66h9.94v5.41H151V129h-3.25a32.7,32.7,0,0,1,5.14,4.55l-2.41,1.69a18.53,18.53,0,0,0-1.28-1.46l-5.28.16v2.26h8v2.65h-8v2ZM134,124.5v1.84h16.64V124.5Zm7.12,4.47c-.46.81-1,1.64-1.45,2.39l6.68-.13c-.49-.41-1-.8-1.46-1.14l1.67-1.12Z"/><path d="M159.59,143.5c2-.65,3.19-1.76,3.35-3.14a.86.86,0,0,1-.29,0,2.31,2.31,0,0,1-2.47-2.32,2.37,2.37,0,0,1,2.55-2.34c1.84,0,2.81,1.38,2.81,3.56,0,3-1.9,5.36-5.12,6.32Z"/><path d="M196.21,140.93c.67,0,1.37.08,2.08.08,1.45,0,6.45,0,8.29-.08a10.74,10.74,0,0,0-1,3h-7.41c-4.76,0-8-.68-10.17-3.7a11.61,11.61,0,0,1-3.64,4.14,12.18,12.18,0,0,0-2.34-2.16c2.66-1.64,4.24-4.4,4.84-7.88l3.09.47c-.18.83-.39,1.61-.59,2.36a5.71,5.71,0,0,0,3.74,3.25v-6.6H182.92v-2.73h22.93v2.73h-9.64v1.95h8v2.68h-8Zm7.17-11H185.31v-9h18.07ZM200.24,123H188.33v1.33h11.91Zm0,3.36H188.33v1.35h11.91Z"/><path d="M216.15,135.68c.93.65,3.09,2.36,3.69,2.83l-1.79,2.21a26.19,26.19,0,0,0-1.9-2v5.54h-3V139a18.92,18.92,0,0,1-3.3,3.66,11.57,11.57,0,0,0-2-2.18,17,17,0,0,0,4.68-5h-3.95v-2.6h4.58v-2H208.5v-2.55h2.4a12.19,12.19,0,0,0-.78-2.86l1.58-.36h-2.91v-2.53h4.37v-2.36h3v2.36h4.31v2.53h-2.67l1.5.28c-.46,1.12-.88,2.16-1.24,2.94h2.62v2.55h-4.52v2h4.29v2.6h-4.29Zm-3.59-10.58a10.13,10.13,0,0,1,.88,2.86l-1.3.36h5.1l-1.72-.36a19.61,19.61,0,0,0,1-2.86Zm19.92,6.31H230v12.72h-3V131.41h-2.66c0,3.88-.57,9.36-4,12.93a7.18,7.18,0,0,0-2.21-2.11c3-3.17,3.3-7.59,3.3-11.18v-9l1.82.52a30.47,30.47,0,0,0,6.61-2.29l2.47,2.26a41.47,41.47,0,0,1-8,2.39v3.64h8.12Z"/><path d="M241.78,141.58a17.72,17.72,0,0,0-1.45-1.85,13.23,13.23,0,0,1-4.19,4.5,11.24,11.24,0,0,0-1.79-2.42,10.07,10.07,0,0,0,3.85-4.29c-.39-.39-.81-.75-1.2-1.11l-.21.83-2.39-1.61c.52-2,1.07-4.79,1.61-7.65h-1.79v-2.81h2.29c.31-1.79.57-3.56.8-5.14l2.89.26c-.26,1.53-.55,3.19-.86,4.88h1.92l.5,0,1.77.18a40.72,40.72,0,0,1-1.93,11.63,18.6,18.6,0,0,1,2,2.31Zm-3-13.6c-.36,1.87-.75,3.72-1.11,5.44l1.61,1.37a32.58,32.58,0,0,0,1.3-6.81Zm14.85,9a17.43,17.43,0,0,0,5.15,4.24,13,13,0,0,0-2.13,2.42,20.26,20.26,0,0,1-4.47-4.53v5.21h-3v-5a16.21,16.21,0,0,1-5,4.55,18,18,0,0,0-2.05-2.42,14.59,14.59,0,0,0,5.59-4.42h-4.39v-2.6h5.9v-1.58h-3.59v-7.52h-2.42v-2.6h2.42V120h2.81v2.65H253V120H256v2.65h2.26v2.6H256v7.52h-3.77v1.58h6.13V137Zm-5.25-11.7v1.38H253v-1.38Zm0,5.05H253v-1.41h-4.63Z"/><path d="M270.23,132.25v9.44c0,1.11-.16,1.76-.86,2.15a5.29,5.29,0,0,1-2.78.45,11.34,11.34,0,0,0-.7-2.35c.59,0,1.19,0,1.43,0s.28-.1.28-.31v-1.8h-2.78v4.43h-2.6v-12h-1.53v-4.06h1.48v-7.38h8.16v7.38h1.56v2.94h12.38v2.05h-12.4v-.93Zm-.65-1.95H262.9v1h6.68Zm-5.2-2.11h.91v-4.13H268V123h-3.64Zm3.22,5.23h-2.78v1.14h2.78Zm0,4.36v-1.19h-2.78v1.19Zm.42-9.59V125.8h-1.09v2.39Zm16.54,13.6V144H271.32v-2.18h3.33a10.21,10.21,0,0,0-1-2.13l1.58-.58h-2.49V134h10.63v5.07H281l1.56.37c-.47.83-.94,1.64-1.35,2.34Zm-.78-11.55H272.41v-8.06h2.89V120h2.16v2.15h1.12V120h2.18v2.15h3Zm-9.1-5h1.11v-1.12h-1.11Zm0,3h1.11v-1.15h-1.11Zm.59,9h5.54v-1.43h-5.54Zm.65,1.82a10.1,10.1,0,0,1,1.17,2.71h1.77a19.88,19.88,0,0,0,1-2.71Zm2.66-13.83v-1.12h-1.12v1.12Zm-1.12,1.87v1.15h1.12v-1.15Zm3.92-3h-1.14v1.12h1.14Zm0,3h-1.14v1.15h1.14Z"/><path d="M308.22,133.31a.41.41,0,0,0,.28-.08c.08,0,.13-.2.18-.46a16.39,16.39,0,0,0,.11-1.8,5.26,5.26,0,0,0,1.66.91,9.57,9.57,0,0,1-.28,2.37,1.67,1.67,0,0,1-.73.91,2.46,2.46,0,0,1-1.17.26h-1a2.21,2.21,0,0,1-1.56-.55c-.39-.41-.52-.91-.52-2.44v-.21L304,133.73a13.15,13.15,0,0,0-1.48-1.12,9.15,9.15,0,0,1-3.2,3.3,9.27,9.27,0,0,0-1-1v.26c-4.06.28-8.24.52-11.23.67l-.13-1.74c1.27-.05,2.81-.1,4.52-.18v-.86h-3.35v-1.51h3.35v-1.27h2a4,4,0,0,1-.1-1v-.34h-1.8c-.41,1.4-1.48,2.18-4,2.65a3.92,3.92,0,0,0-1-1.38c1.84-.23,2.67-.6,3-1.27h-2.5v-1.56h4.34v-.73h-3.17v-1.51h3.17v-.65h2.61v.65h3.14v1.51h-3.14v.73h4.34v1.56h-3.2v.34c0,.44.05.49.36.49h1c.31,0,.41-.1.46-.68a5.22,5.22,0,0,0,1.46.52c-.16,1.12-.63,1.46-1.64,1.46h-1.51a3.61,3.61,0,0,1-1.24-.16v.65h3.38v1.51h-3.38v.73c1.4-.05,2.86-.13,4.29-.21v.18a8.21,8.21,0,0,0,2.13-2.36,18.34,18.34,0,0,0-2.19-1.07l1.33-1.66c.52.21,1.09.44,1.66.7a7.52,7.52,0,0,0,.16-1h-2.58v-2.16h2.66v-1.58h2.29v1.58h3.79v6.19a2.37,2.37,0,0,0,.05.78.23.23,0,0,0,.24.13Zm-21.53,5.31H310v1.79h-5a22.88,22.88,0,0,1,4.16,2.76l-2.13,1.32a13.39,13.39,0,0,0-1.51-1.24c-6.16.39-12.55.72-16.95,1l-.31-2c1,0,2.16-.08,3.43-.11a18.73,18.73,0,0,0,1-1.66h-5.92Zm5.87-15.06h-5.74V121.4h5.74V120h3v1.4h5.54V120h3v1.4H310v2.16h-5.85v.83h-3v-.83h-5.54v.83h-3ZM307,136v1.8H290V136Zm-11.34,4.37c-.41.55-.8,1.07-1.19,1.56,2.62-.1,5.51-.23,8.39-.36-.49-.26-1-.52-1.43-.73l.84-.47Zm8.11-12a8.73,8.73,0,0,1-.33,2.11,13.11,13.11,0,0,1,1.74,1.17v-3.28Z"/><path d="M325.66,128.35v15.52H322.8V128.35h-3.46v-1.07c-.44.88-1,1.79-1.5,2.65v14.36H315V133.75c-.55.6-1.06,1.17-1.61,1.67a16.89,16.89,0,0,0-1.66-2.86,21.26,21.26,0,0,0,5.27-7.1l2.34.81v-.76h3.46v-5.12h2.86v5.12H329v2.84ZM319.19,121a25.93,25.93,0,0,1-5.57,6.3A16,16,0,0,0,312,125a18.29,18.29,0,0,0,4.36-5Zm2.88,10.2a32.38,32.38,0,0,1-1.82,9.59,22.17,22.17,0,0,0-2.08-1.43c.94-2.08,1.28-5.33,1.43-8.53Zm5.49-6a21.29,21.29,0,0,0-1.72-3.64l2.06-.85a21.14,21.14,0,0,1,1.77,3.53Zm.86,5.72a64.14,64.14,0,0,1,1.17,7.73l-2.39.46a57.33,57.33,0,0,0-1-7.74Zm8.06.58h-2v9.46c0,1.46-.21,2.29-1.12,2.78a8.48,8.48,0,0,1-3.9.55,11.49,11.49,0,0,0-.83-3c1.06,0,2.15,0,2.47,0s.44-.07.44-.41v-9.41h-2.26v-2.76h7.2Zm-.39-7.36h-6.16V121.4h6.16Z"/><path d="M354.34,138.36a30.57,30.57,0,0,0,8.32,3.14,12.45,12.45,0,0,0-1.92,2.47,28.65,28.65,0,0,1-8.92-4.26v4.55h-3.05v-4.45a28.82,28.82,0,0,1-9,4.29,17,17,0,0,0-2-2.54,32,32,0,0,0,8.61-3.2h-7.75v-2.47h10.08v-1h-7.15v-7c-.46.44-1,.86-1.48,1.28a9.33,9.33,0,0,0-2.18-2.08,20.78,20.78,0,0,0,6.16-7.08l3.2.6c-.42.76-.88,1.48-1.4,2.24h3.69a20,20,0,0,0,1.14-2.81l3.49.42c-.45.83-.94,1.66-1.41,2.39h7.78v2.39h-8.17v1.07h6.89v2h-6.89v1.1h6.92v2h-6.92v1.12h8.92v2.34h-9.54v1H362v2.47Zm-4.86-13.16h-4.92v1.07h4.92Zm0,3.09h-4.92v1.1h4.92Zm-4.92,4.24h4.92v-1.12h-4.92Z"/><path d="M387.31,120.86v23.4h-2.94V143h-16.1v1.27h-2.78V120.86Zm-2.94,19.84V123.2h-16.1v17.5ZM383.8,137h-3.36v1.66c0,1-.2,1.33-.93,1.54a13.35,13.35,0,0,1-3.17.2,7,7,0,0,0-.63-1.53,17.63,17.63,0,0,0,1.82,0c.26,0,.37-.08.37-.31V137h-4.61a11.16,11.16,0,0,1,1.75,2.1l-2.06,1a12.17,12.17,0,0,0-1.79-2.34l1.64-.78h-4v-1.67h9.1v-.75h2.54v.75h1.38a10.17,10.17,0,0,0-.75-.88c-4.29.16-8.58.29-11.76.34l-.1-1.64H375v-.86h-5.15V127H375v-.78h-5.88v-1.67H375v-1h2.52v1h5.93v1.67h-5.93V127h5.23v5.3h-1.3a15.41,15.41,0,0,1,2.16,2l-1.38,1h1.56Zm-11.6-8H375v-.76H372.2Zm2.81,2v-.75H372.2V131Zm2.52-2.73V129h2.76v-.76Zm2.76,2h-2.76V131h2.76Zm-2.76,2.88h2.08l-.28-.23.88-.6h-2.68Z"/><path d="M23.19,188.84a32.77,32.77,0,0,1-4.42,9.23c.68,1.9,1.43,3,2.13,3s.84-1.33,1-4.6a8.32,8.32,0,0,0,2.65,1.82c-.46,4.86-1.5,6-3.95,6-1.66,0-3-1.27-4.08-3.38a25,25,0,0,1-4.08,3.54A20.92,20.92,0,0,0,10,202.1a20,20,0,0,0,2.34-1.64c-3.85.86-8,1.74-11,2.39l-.57-3.17c2.91-.49,7.41-1.35,11.57-2.21l.28,2.81a21.25,21.25,0,0,0,2.63-2.65,58.08,58.08,0,0,1-1.82-10.77H.83V183.8h12.4c-.05-1.28-.1-2.5-.1-3.75h3.3c0,1.25,0,2.5.05,3.75h4.17a18.62,18.62,0,0,0-3.1-2l1.85-1.93a17.26,17.26,0,0,1,4,2.47l-1.3,1.41H24v3.06h-7.3a56.89,56.89,0,0,0,1,7.13,30.47,30.47,0,0,0,2.44-5.88Zm-11.44-.34v8.19H2.08V188.5Zm-3,2.6H4.89v3H8.76Z"/><path d="M40.22,200.93c.68,0,1.38.08,2.08.08,1.46,0,6.45,0,8.3-.08a10.13,10.13,0,0,0-1,3H42.15c-4.76,0-8-.68-10.17-3.7a11.71,11.71,0,0,1-3.64,4.14A12.48,12.48,0,0,0,26,202.18c2.65-1.64,4.24-4.4,4.84-7.88l3.09.47c-.18.83-.39,1.61-.6,2.36a5.72,5.72,0,0,0,3.75,3.25v-6.6H26.94v-2.73H49.87v2.73H40.22v1.95h8v2.68h-8Zm7.18-11H29.33v-9H47.4ZM44.25,183H32.34v1.33H44.25Zm0,3.36H32.34v1.35H44.25Z"/><path d="M62.79,185.62a14.34,14.34,0,0,0-2.18-3.44c-.58,2.32-1.33,5.26-2,7.28a9.85,9.85,0,0,1,1.69,5.7c0,1.64-.31,2.78-1.06,3.35a2.92,2.92,0,0,1-1.3.55,7.49,7.49,0,0,1-1.38.05,6,6,0,0,0-.57-2.5,4.35,4.35,0,0,0,.86,0,.81.81,0,0,0,.59-.21,2.64,2.64,0,0,0,.37-1.69,8.72,8.72,0,0,0-1.54-5c.47-1.66,1-4,1.33-5.85H55.93v20.41H53.25V181.12H58.4l.36-.11,1.82,1,2.13-1.35a21.7,21.7,0,0,1,2,2.71V182h2.45c.18-.65.34-1.33.47-2l2.47.36c-.11.58-.24,1.12-.39,1.67h6.73v2.08H69.06c-.11.28-.21.57-.34.86h6.89v1.82H73.14v1h3.38v1.82H67.05V188a9.11,9.11,0,0,1-1.48,1.71A12.47,12.47,0,0,0,63.62,188a10.72,10.72,0,0,0,2.78-3.87H65.08v0Zm3.69,15a5.47,5.47,0,0,0,2.6.75c1.9.08,5.51,0,7.75-.15a12.45,12.45,0,0,0-.78,2.65c-2,.13-5.17.15-7.12,0a6.28,6.28,0,0,1-5.39-3c-.91,1.09-1.84,2.13-3,3.33l-1.37-2.65c.93-.76,2-1.72,3-2.68V195H60.53v-2.52h4.21v6.11a4.7,4.7,0,0,0,1.64,1.95V190.45h9v8c0,1.06-.18,1.58-.86,1.94a7,7,0,0,1-2.83.34,8.36,8.36,0,0,0-.68-2c.6,0,1.2,0,1.41,0s.28-.08.28-.28v-.81H69v3ZM62,186.29a13.94,13.94,0,0,1,2.63,3.33l-2.18,1.59a16,16,0,0,0-2.5-3.49Zm6.37.5v-1a13.63,13.63,0,0,1-1.14,2h3.3v-1Zm.6,5.53v.89h3.77v-.89Zm3.77,3.49V195H69v.83Z"/><path d="M95.26,196a10.37,10.37,0,0,1-1.58,3.69,36.44,36.44,0,0,0,9.26,1.49,12.2,12.2,0,0,0-1.88,2.88,29.73,29.73,0,0,1-9.59-2.18,17.2,17.2,0,0,1-5.1,2.39,14.23,14.23,0,0,0-1.87-2.55,14.73,14.73,0,0,0,4.21-1.43,13.57,13.57,0,0,1-3.09-3l2.68-.94A9.41,9.41,0,0,0,91,198.56,6.28,6.28,0,0,0,92.2,196H86.53V185.59h6V184H86.19v-2.31a50.79,50.79,0,0,1-2.13,4.83v17.68h-3V191.36A18.73,18.73,0,0,1,79.77,193a22.52,22.52,0,0,0-1.69-3.2,28,28,0,0,0,5.46-9.75l2.91.91-.13.34H102.1V184H95.58v1.56h5.87V196Zm-5.87-6.29h3.12v-1.9H89.39Zm3.09,4c0-.34,0-.7,0-1v-.91H89.39v1.92Zm6-1.92H95.58v.93c0,.31,0,.65,0,1h2.91Zm-2.88-4v1.9h2.88v-1.9Z"/><path d="M107.38,197.84v2.1H105v-18.3h6.39v16.2Zm0-13.45v10.72H109V184.39Zm12.43,8.92h.75v2.6h-.8c-.08,4.27-.24,6.19-.63,6.89a2.27,2.27,0,0,1-1.61,1.28,10.39,10.39,0,0,1-2.39.13,6.74,6.74,0,0,0-.68-2.71c.68.06,1.28.06,1.67.06s.52-.11.72-.55.37-1.87.45-5.1h-1.67a16.74,16.74,0,0,1-3.64,8.43,9.39,9.39,0,0,0-1.82-1.85,14.19,14.19,0,0,0,3-6.58H112v-2.6h1.51c.1-1.22.13-2.39.13-3.48h-1.43v-2.6h1.43v-3.49H112v-2.6h8s0,1,0,1.36l0,4.73h.68v2.6h-.71Zm-2.47,0c0-1,0-2.18,0-3.48h-1.22c0,1.06,0,2.23-.15,3.48Zm-1.2-6.08h1.25l0-3.49h-1.28Zm12.25-5.1c-.55,2.58-1.35,6.06-2,8.27a11.44,11.44,0,0,1,1.56,6.06c0,1.79-.28,3-1,3.59a2.86,2.86,0,0,1-1.35.54c-.37,0-.81.06-1.33.06a6.73,6.73,0,0,0-.55-2.58h.84a.73.73,0,0,0,.57-.23c.26-.26.31-.91.31-1.82a9.93,9.93,0,0,0-1.38-5.39c.47-1.94,1-4.94,1.35-7h-1.74v20.64h-2.57V181.14h5l.37-.07Z"/><path d="M137.88,180.94a50,50,0,0,1-2,4.94v18.43h-2.94V191a25.74,25.74,0,0,1-1.74,2.23,21.42,21.42,0,0,0-1.46-3.35,27.47,27.47,0,0,0,5.31-9.83Zm15.89.39V204h-2.94v-1.27h-9.78v1.51h-2.81V181.33Zm-2.94,18.74V184h-9.78v16.07Zm-3.75-10.63v2.23h2.5v7h-7.2v-7h2.31v-2.23h-3V187.2h3v-2.65h2.39v2.65h3.15v2.24Zm.18,4.37h-2.65v2.73h2.65Z"/><path d="M178.67,204.28h-3.22v-1h-8.82v1h-3.09v-7.39a32.79,32.79,0,0,1-5.75,2.55,9.67,9.67,0,0,0-1.79-2.75,29,29,0,0,0,9.1-4.5,35.19,35.19,0,0,0-4-3.59,27.47,27.47,0,0,1-2.88,2,10.77,10.77,0,0,0-2.19-2.42,20.69,20.69,0,0,0,8.63-8.27l3.49.65c-.39.68-.83,1.35-1.3,2h5.9l.52-.16,2.13,1.12a24,24,0,0,1-6,9.07h9.28Zm-13.93-19c-.42.44-.84.89-1.28,1.33A36.62,36.62,0,0,1,167.6,190a20.56,20.56,0,0,0,3.61-4.76Zm10.71,15.21v-5.07h-8.82v5.07Z"/><path d="M205.74,196.82H196v3.9c0,1.69-.37,2.5-1.64,3a15,15,0,0,1-5,.52,12.71,12.71,0,0,0-1.35-3.17c1.59.05,3.54.08,4.06.05s.67-.1.67-.46v-3.83h-9.62v-2.94h9.62v-1.63h1.12a18.87,18.87,0,0,0,2.37-1.95h-8.69v-2.81h11.42l.72-.16,2,1.51a24.3,24.3,0,0,1-5.64,4.84v.2h9.75Zm-19.5-7.62h-3v-6.7h9.49V180H196v2.5h9.57v6.7h-3.2v-3.82H186.24Z"/><path d="M23.17,313.81a15.6,15.6,0,0,1-3.28,6.11,14.56,14.56,0,0,0,4.58,1.92,12.37,12.37,0,0,0-1.82,2.42,14.57,14.57,0,0,1-4.84-2.42,17.22,17.22,0,0,1-4.42,2.42A11.51,11.51,0,0,0,12,322.18v2.1h-3v-2.1c-3,.29-6,.55-8.24.75l-.24-2.65c.68,0,1.46-.08,2.26-.16v-7.9h-2v-2.44H23.92v2.44H12v9.52a13.11,13.11,0,0,0,3.69-1.88A15.76,15.76,0,0,1,13.34,316l1.71-.47H12.66v-2.37h8.09l.52-.1Zm-2.24-5H3.85v-8H20.93ZM5.67,312.22v1H9.05v-1Zm0,4.29H9.05v-1.09H5.67Zm0,3.41c1.09-.08,2.23-.16,3.38-.26v-1H5.67Zm12.17-17.11h-11v1.06h11Zm0,2.94h-11v1.09h11Zm-1.9,9.8a10.29,10.29,0,0,0,1.74,2.55,11.29,11.29,0,0,0,1.77-2.55Z"/><path d="M50.21,321.11v2.45H26.62v-2.45H36.71v-1.38H28.52v-2.31h8.19v-1.17H29.38V308h7.33v-1H26.78V304.6h9.93v-1.14c-2.49.1-5,.18-7.38.21a8.21,8.21,0,0,0-.63-2.37A141.61,141.61,0,0,0,46.2,300l1.43,2.39c-2.26.37-5,.65-7.8.86v1.35H50V307H39.83v1h7.72v8.24H39.83v1.17h8.69v2.31H39.83v1.38Zm-17.81-9.9h4.31V310H32.4Zm4.31,3v-1.17H32.4v1.17ZM39.83,310v1.17h4.55V310Zm4.55,3H39.83v1.17h4.55Z"/><path d="M71.27,316.51a11.43,11.43,0,0,1-2.42,3.33c2.52.7,4.78,1.4,6.55,2l-1.9,2.52A78.8,78.8,0,0,0,66,321.81c-2.91,1.43-6.76,2.11-11.8,2.5A8.72,8.72,0,0,0,53,321.66a40.86,40.86,0,0,0,8.55-1c-.83-.21-1.66-.42-2.52-.6l-.29.39-3-.93c.65-.84,1.41-1.85,2.19-3H52.52V314h7.07c.37-.57.7-1.11,1-1.66H54.18v-7.28h5.65v-1.48H53v-2.68H75.63v2.68h-7v1.48H74.8v7.28H64.17c-.31.55-.68,1.09-1,1.66H76.26v2.5ZM57.1,309.93h2.73v-2.42H57.1Zm3.51,7.85c1.61.34,3.25.73,4.83,1.15a8.47,8.47,0,0,0,2.39-2.42H61.49Zm2.13-12.71h2.94v-1.48H62.74Zm2.94,4.86v-2.42H62.74v2.42Zm2.91-2.42v2.42h3.12v-2.42Z"/><path d="M101.87,304s0,1,0,1.41c-.34,11.62-.62,15.75-1.69,17.13A3.43,3.43,0,0,1,97.66,324a28.1,28.1,0,0,1-4.09,0,7.21,7.21,0,0,0-1-3c1.66.15,3.2.15,3.87.15a1.39,1.39,0,0,0,1.15-.44c.75-.83,1.09-4.73,1.38-13.91H93.39a21.94,21.94,0,0,1-2.29,4.11,19.09,19.09,0,0,0-2-1.46v12.15H82.16v1.9H79.35V304.19h2.94A27.22,27.22,0,0,0,83,300l3.38.47c-.44,1.3-.91,2.6-1.35,3.72h4v4.21A26.82,26.82,0,0,0,92.61,300l2.94.67a29.85,29.85,0,0,1-1,3.3Zm-15.58,2.89H82.16v4.21h4.13Zm0,12v-5.1H82.16v5.1Zm8.64-1.41a54.33,54.33,0,0,0-3.62-6l2.42-1.38a60.71,60.71,0,0,1,3.82,5.77Z"/><path d="M118.22,320.93c.68.05,1.38.08,2.08.08,1.46,0,6.45,0,8.3-.08a10.13,10.13,0,0,0-1,3h-7.41c-4.76,0-8-.68-10.17-3.7a11.71,11.71,0,0,1-3.64,4.14,12.48,12.48,0,0,0-2.34-2.16c2.65-1.64,4.24-4.4,4.84-7.88l3.09.47c-.18.83-.39,1.61-.6,2.37a5.78,5.78,0,0,0,3.75,3.25v-6.61H104.94v-2.73h22.93v2.73h-9.65v2h8v2.68h-8Zm7.18-11H107.33v-9H125.4ZM122.25,303H110.34v1.33h11.91Zm0,3.36H110.34v1.35h11.91Z"/><path d="M23.24,372.32a25.6,25.6,0,0,1-4.31,5.7c.7,2,1.51,3.2,2.29,3.2.54,0,.85-1.25,1-4.32a8,8,0,0,0,2.55,1.77c-.49,4.55-1.45,5.69-3.82,5.69-1.9,0-3.35-1.56-4.47-4.11a27.23,27.23,0,0,1-4.81,3.18,13.18,13.18,0,0,0-2.06-2.5,26.26,26.26,0,0,0,5.8-3.66,48.62,48.62,0,0,1-1.32-7H8.79v3c1.32-.23,2.68-.49,4-.73l.24,2.81-4.24.86v4.45c0,1.68-.37,2.52-1.41,3a11.31,11.31,0,0,1-4.68.6,12.49,12.49,0,0,0-1.09-3.12c1.46.08,3,.05,3.43,0s.63-.13.63-.54v-3.77c-1.67.34-3.28.67-4.66.93l-.75-3.12c1.48-.23,3.35-.51,5.41-.88V370.3H.75v-2.94H5.67v-3c-1.41.24-2.84.42-4.16.58a11.58,11.58,0,0,0-.89-2.6A66.76,66.76,0,0,0,11,360.18L13,362.81c-1.3.39-2.73.73-4.24,1v3.51h5c-.21-2.34-.29-4.76-.31-7.13h3.25a64.18,64.18,0,0,0,.26,7.13h7.07v2.94H17.29c.21,1.56.47,3.06.75,4.39a21,21,0,0,0,2.47-3.54Zm-1.89-5.72a20.83,20.83,0,0,0-3.7-4.29L20,360.73a22.11,22.11,0,0,1,3.85,4.13Z"/><path d="M40.9,371.28H36.43v12.93H33.57V361.43c-.52,1.48-1.12,3-1.8,4.5v18.33H28.83v-13a19.74,19.74,0,0,1-1.61,2.13,21.59,21.59,0,0,0-1.48-3.33,28.57,28.57,0,0,0,5.15-10l2.86.85-.16.5H40.9Zm-4.47-7.56v1.48h2.13v-1.48Zm2.13,5.22v-1.53H36.43v1.53Zm11.23,11.73c0,1.72-.36,2.55-1.4,3s-2.71.57-5.15.57a11.54,11.54,0,0,0-1-3c1.59.11,3.38.08,3.9.06s.68-.16.68-.65v-9.37H42.07v-9.9h7.72Zm-5.28-16.95v1.48h2.32v-1.48Zm2.32,5.22v-1.53H44.51v1.53Z"/><path d="M76.34,375.89H73.45V381c0,1.51-.21,2.31-1.22,2.81a10.61,10.61,0,0,1-4.27.54,11.82,11.82,0,0,0-.88-3c1.22.05,2.55.05,2.94.05s.52-.11.52-.45v-5h-9v-2.71h1.28a10.56,10.56,0,0,0-1.48-2.1,20.81,20.81,0,0,0,4.29-1.51,14.37,14.37,0,0,0-2.32-2.19c-.28.16-.6.32-.88.47a22.39,22.39,0,0,0-1.69-1.69v18.12H58v-8.81H56.21v0c0,2.15-.28,6.19-2,8.84A12.53,12.53,0,0,0,52,382.85c1.38-2.23,1.56-5.53,1.56-7.38H52.26v-2.65H58v-3H53.27V361.2H56v5.9h2V360h2.84v5.82A16.91,16.91,0,0,0,67.91,360l3,.78A14.71,14.71,0,0,1,70,362H73.4l.49-.1,1.93.88c-2.19,5.59-7,8.76-12.46,10.4h7.18v-3h2.91v3h2.89Zm-11.13.18A18.28,18.28,0,0,1,68,379.73l-2.55,1.51a17.18,17.18,0,0,0-2.62-3.79Zm2.55-7.67c.41-.26.8-.55,1.17-.83a12.72,12.72,0,0,0-2.63-2.11c-.34.23-.65.49-1,.73A16.77,16.77,0,0,1,67.76,368.4Zm.23-4.32a18.05,18.05,0,0,1,2.6,2,13.25,13.25,0,0,0,1.48-2Z"/><path d="M92.53,372.84c1.72,4.32,4.87,7.26,10.2,8.46a13.69,13.69,0,0,0-2.14,3,14.77,14.77,0,0,1-10-8.29c-1.41,3.35-4.37,6.45-10.48,8.32a11.33,11.33,0,0,0-1.9-2.78c6.61-1.93,9-5.33,9.88-8.72h-8.4v-3.17H88.5v-4.76H78.86v-3.19h23v3.19H91.78v4.76h9.41v3.17Z"/><path d="M104.05,382.54a10.39,10.39,0,0,0,2.76-5.85l2.73.76c-.5,2.54-1.25,5.09-3,6.65ZM128,373.36s0,.81,0,1.23c-.34,5.43-.68,7.74-1.43,8.6a2.77,2.77,0,0,1-1.95,1,20.19,20.19,0,0,1-3.17.08,7.07,7.07,0,0,0-.86-2.86,18.24,18.24,0,0,0,2.44.1c.42,0,.65,0,.89-.28.36-.45.65-1.82.88-5.18H107.43V361h18.64v2.66h-7.82v1.61h6.91v2.44h-6.91v1.61h6.91v2.4h-6.91v1.63Zm-17.5-9.69v1.61h4.71v-1.61Zm4.71,4.05h-4.71v1.61h4.71Zm-4.71,5.64h4.71v-1.63h-4.71Zm2.63,4.11a23,23,0,0,1,1,5.33l-2.75.47a24.88,24.88,0,0,0-.86-5.38Zm4.26-.26a21.21,21.21,0,0,1,1.56,4.73l-2.54.68a21.54,21.54,0,0,0-1.41-4.81Zm3.54,3.88a16.26,16.26,0,0,0-1.79-3.72l2.23-.76a16.82,16.82,0,0,1,2,3.62Z"/><path d="M140,366.76a34.14,34.14,0,0,1-2.78,4v13.57h-3.1V374.15c-.73.7-1.43,1.35-2.13,1.92a28.33,28.33,0,0,0-2.11-2.68,25.26,25.26,0,0,0,7.15-7.77Zm-1-5.54a35.07,35.07,0,0,1-7.15,6.84,17.54,17.54,0,0,0-1.72-2.52A23.19,23.19,0,0,0,136,360Zm15.28,10.35h-3.56v9.13c0,1.66-.31,2.52-1.45,3a14.58,14.58,0,0,1-5.07.52,12.63,12.63,0,0,0-.94-3.15c1.48.08,3.2.08,3.67.05s.65-.1.65-.49v-9.05h-7.67v-2.94h14.37Zm-.65-7.15H141v-2.94h12.63Z"/><path d="M167.1,365.15c-.47,4.31-1.9,7-8.5,8.47a9.07,9.07,0,0,0-1.66-2.6c5.66-1,6.57-2.8,7-5.87h-3.59v3h-3v-5.82h9.41V360h3.17v2.34h9.65v5.38h-3.2v-2.57h-3.66v4.11c0,.7.15.8,1,.8h2.31c.65,0,.78-.26.89-1.9a8.06,8.06,0,0,0,2.65,1.07c-.31,2.73-1.15,3.46-3.23,3.46h-3.09c-2.91,0-3.54-.83-3.54-3.41v-4.13Zm12.67,15.62v2.81H157v-2.81h9.7V376.9h-7v-2.78h17.81v2.78h-7.67v3.87Z"/><path d="M205.87,364s0,1,0,1.41c-.34,11.62-.62,15.75-1.69,17.13a3.43,3.43,0,0,1-2.49,1.43,28.1,28.1,0,0,1-4.09,0,7.21,7.21,0,0,0-1-3c1.66.15,3.2.15,3.87.15a1.39,1.39,0,0,0,1.15-.44c.75-.83,1.09-4.73,1.38-13.91h-5.57a21.94,21.94,0,0,1-2.29,4.11,19.09,19.09,0,0,0-2-1.46v12.15h-6.94v1.9h-2.81V364.19h2.94A27.22,27.22,0,0,0,187,360l3.38.47c-.44,1.3-.91,2.6-1.35,3.72h4v4.21a26.82,26.82,0,0,0,3.51-8.37l2.94.67a29.85,29.85,0,0,1-1,3.3Zm-15.58,2.89h-4.13v4.21h4.13Zm0,12v-5.1h-4.13v5.1Zm8.64-1.41a54.33,54.33,0,0,0-3.62-6l2.42-1.38a60.71,60.71,0,0,1,3.82,5.77Z"/><path d="M213,370.48a15.38,15.38,0,0,1-2.94,3.77,10.55,10.55,0,0,0-2-2.13,15.5,15.5,0,0,0,4.42-5.8H208.7v-2.63H213V360h2.93v3.66h3.67v2.63H215.9v1c1,.6,3.51,2.37,4.11,2.86l-1.61,2.47c-.6-.65-1.56-1.59-2.5-2.44v5.43H213Zm-4.74,11a17.9,17.9,0,0,0,2.27-5.36l2.75,1.1a25.3,25.3,0,0,1-2.18,5.66Zm14.85-.42c1.22,0,1.4-.36,1.56-3a7.44,7.44,0,0,0,2.78,1.1c-.39,3.71-1.25,4.63-4.11,4.63h-4.68c-3.53,0-4.42-.86-4.42-3.57v-3.56h3v3.51c0,.78.26.88,1.66.88Zm-3-6.44.52.47V361.3h10.56v14h-10.3c1,.94,2.14,2,2.76,2.75l-2.24,1.88a38.16,38.16,0,0,0-3.43-3.62Zm3.33-9.34h4.79v-1.51h-4.79Zm0,3.8h4.79v-1.51h-4.79Zm0,3.82h4.79v-1.56h-4.79Zm6,2.89c1,1.61,2.55,3.82,3.25,5.17l-2.89,1.48c-.62-1.38-2-3.66-3.07-5.41Z"/><path d="M241.75,360.88a50.2,50.2,0,0,1-2,5.05v18.33h-2.94v-13a19.74,19.74,0,0,1-1.61,2.13,21.59,21.59,0,0,0-1.48-3.33,28.57,28.57,0,0,0,5.15-10Zm16.77,12.85a31.82,31.82,0,0,1-3.59,2.75,10.67,10.67,0,0,0,3.93,4.35,10.23,10.23,0,0,0-2,2.41c-3.46-2.34-5.33-6.63-6.42-11.88h-.52a15.29,15.29,0,0,1-1.46,1.07c4.19,3.56,4.14,9.1,2.13,10.81a3.76,3.76,0,0,1-2.75,1.07c-.52,0-1.17,0-1.82-.08a6.77,6.77,0,0,0-.65-2.49,32.21,32.21,0,0,1-3.36,1.64,10.74,10.74,0,0,0-1.63-2.19,25.79,25.79,0,0,0,8.26-4.39c-.13-.32-.28-.6-.44-.91a32.24,32.24,0,0,1-6,3.22,9.81,9.81,0,0,0-1.4-1.92A24.41,24.41,0,0,0,247,374.3a6.18,6.18,0,0,0-.63-.62,25.64,25.64,0,0,1-4,1.84,20.66,20.66,0,0,0-1.71-2,25.94,25.94,0,0,0,5.35-2.16h-3.95v-4a9.31,9.31,0,0,0-1.9-1.38,16.61,16.61,0,0,0,5.18-5.92l2.91.52c-.18.33-.39.7-.6,1h4l.55-.19,1.82,1.3a26.62,26.62,0,0,1-1.72,2.5h5.34v6.16h-4.56a25,25,0,0,0,.84,2.86,28.06,28.06,0,0,0,2.52-2.34Zm-13.68-4.45h3.36v-2h-3.36Zm1.28-5.46c-.37.47-.73.94-1.12,1.38h4a10.94,10.94,0,0,0,1-1.38Zm3.07,15.5a36.77,36.77,0,0,1-3.65,2.34,15,15,0,0,0,1.75.1,1.46,1.46,0,0,0,1.27-.52A2.85,2.85,0,0,0,249.19,379.32Zm5.48-12H251v2h3.72Z"/><path d="M269.85,361.35a40.76,40.76,0,0,1-2.7,5.25v17.63h-3.09V371a30.12,30.12,0,0,1-2.58,2.76,23.08,23.08,0,0,0-1.79-3.28,26.83,26.83,0,0,0,7.1-10.11Zm10.33,19.74c1.25,0,1.45-.89,1.66-4.55a9,9,0,0,0,2.86,1.32c-.36,4.47-1.17,6.11-4.24,6.11H276c-3.28,0-4.21-1-4.21-4.7V360.68h3.12v8.89a45.24,45.24,0,0,0,6.55-4.55l2.29,2.7a63.85,63.85,0,0,1-8.84,5v6.55c0,1.54.18,1.8,1.42,1.8Z"/><path d="M309.82,375.16c-.44,5-.89,7.23-1.69,8.06a2.76,2.76,0,0,1-1.95,1,22.62,22.62,0,0,1-3.1.05,6.68,6.68,0,0,0-.83-2.75,20.36,20.36,0,0,0,2.52.13,1.09,1.09,0,0,0,.86-.29c.42-.42.76-1.72,1.07-4.68H291.23c-.42.31-.86.6-1.33.88l2.37.76a10.81,10.81,0,0,1-3,5.87l-2.41-1.53a9.31,9.31,0,0,0,2.8-4.91c-.62.39-1.27.73-1.92,1.06a18.5,18.5,0,0,0-1.61-2.7,23.72,23.72,0,0,0,10-8.92h-8.35v-2.7h4.37a22.1,22.1,0,0,0-1.64-3.31l2.68-1a18,18,0,0,1,2,3.8l-1.3.55h3.77a28.54,28.54,0,0,0,1.79-4.45l3.1.86c-.44,1.22-.94,2.42-1.48,3.59h5.09c-.26,1.56-.65,3.32-1,4.75h3c-.29,1.56-.62,3.38-.94,4.79h2.79Zm-14.15,3.09a18,18,0,0,1,.7,4.79l-2.67.34a18.28,18.28,0,0,0-.52-4.82Zm.65-6.37a24,24,0,0,1-1.95,2.11h9.94c.15-.63.31-1.35.46-2.11Zm3.2,5.9a20.34,20.34,0,0,1,1.25,4.22l-2.47.62a22.76,22.76,0,0,0-1.2-4.31Zm.05-10.63c-.39.7-.8,1.38-1.25,2.05h4c.16-.62.31-1.32.45-2.05Zm2.89,14.12a15.16,15.16,0,0,0-1.53-3.51l2.13-.73a13.59,13.59,0,0,1,1.69,3.43Z"/><path d="M322.14,377.89l-9.44,2.76-.78-2.92c1-.23,2.32-.57,3.72-.93v-5.23h-2.89v-2.83h2.89v-4.53h-3.12v-2.86h9.1v2.86h-3v4.53h2.7v2.83h-2.7V376l3.1-.86Zm11.55,3.61c.46,0,.57-.41.62-3a8.07,8.07,0,0,0,2.57,1.14c-.26,3.56-.93,4.52-2.86,4.52h-1.95c-2.39,0-2.91-.88-2.91-3.5v-5.1h-1.59c-.46,4.24-1.66,7.25-7.2,8.89a9.28,9.28,0,0,0-1.71-2.55c4.7-1.17,5.53-3.3,5.87-6.34h-1.89V361h12.68v14.56h-3.19v5.1c0,.75.05.85.49.85Zm-8.17-16.38h6.79v-1.61h-6.79Zm0,3.95h6.79v-1.61h-6.79Zm0,4h6.79v-1.62h-6.79Z"/><path d="M355.47,380.59c2.39.68,4.79,1.43,6.4,2l-2.68,1.71c-1.74-.7-4.76-1.71-7.72-2.57l1.35-1.12h-5.07l1.53,1a28.53,28.53,0,0,1-8.78,2.65,14.92,14.92,0,0,0-1.85-2,35.62,35.62,0,0,0,6.94-1.69h-3.74v-8.66h17.24v8.66Zm6.45-13.67v2.18h-4.34l-.18,2h-15l.26-2h-3.8v-2.18H343l.26-2.08H358l-.21,2.08Zm-19.81-.78h-2.78v-4.55h9.49V360h3.09v1.59h9.54v4.55h-2.88V364H342.11Zm2.73,8.16h11.1v-.75h-11.1Zm0,2.31h11.1v-.78h-11.1Zm0,2.34h11.1v-.8h-11.1Zm.49-9.33h3.28l.1-.81h-3.27Zm.42-3.22-.1.8h3.27l.08-.8Zm9,3.22.08-.81h-3.51l-.11.81Zm.29-3.22h-3.46l-.08.8h3.46Z"/><path d="M16,428.4a67.73,67.73,0,0,1,8.66,7L22,437.81a61.48,61.48,0,0,0-7.95-7.05v13.47H10.69V431.54a30.94,30.94,0,0,1-8.27,6.4,19.41,19.41,0,0,0-2.13-2.81,27.27,27.27,0,0,0,11.2-10.22H1.12v-3.17H23.66v3.17H15.57a26.53,26.53,0,0,1-1.5,2.4V430Z"/><path d="M36,422.21c-.73,2.26-1.62,5.12-2.42,7.15a7.74,7.74,0,0,1,2,5.3c0,1.72-.36,2.81-1.2,3.38a3.24,3.24,0,0,1-1.53.6,12.76,12.76,0,0,1-1.79.05,6.68,6.68,0,0,0-.71-2.75c.5,0,.89,0,1.23,0a1.26,1.26,0,0,0,.75-.23,1.78,1.78,0,0,0,.47-1.46,6.8,6.8,0,0,0-1.93-4.57c.55-1.67,1.15-4,1.62-5.83H30.24v20.41H27.35V421.12h6.14l.44-.13Zm14,12.92a43.23,43.23,0,0,1-3.51,3,9.76,9.76,0,0,0,4.08,3.41,10.7,10.7,0,0,0-2,2.63c-3.83-2-5.85-5.9-7-11H39.75v6.71l3.75-.67.23,2.7c-3,.7-6.19,1.35-8.63,1.9l-1-3c.78-.11,1.69-.26,2.7-.42V421.14H48.85v12.09H44.33a18,18,0,0,0,1,2.76,23.39,23.39,0,0,0,2.34-2.57ZM39.75,423.82v2.06h6v-2.06Zm0,6.76h6V428.4h-6Z"/><path d="M64.17,432.84v11.44h-3V432.84h-3c-.13,4.24-.83,8.46-3.9,11.65A12.09,12.09,0,0,0,52,442.36c2.49-2.65,3.14-6,3.3-9.52h-3V430h3v-5.59H52.73v-2.88h13.6v2.88H64.17V430h2.49v2.86Zm-3-2.86v-5.59h-3V430Zm15.47,5.54a23.23,23.23,0,0,1-9.41,8.74,11.38,11.38,0,0,0-2.16-2.52,18.64,18.64,0,0,0,8.64-7.36Zm-1-14A26.43,26.43,0,0,1,68.2,428,10.09,10.09,0,0,0,66,425.77a19.38,19.38,0,0,0,6.71-5.41Zm.42,7.1a27.91,27.91,0,0,1-7.54,6.76,13.35,13.35,0,0,0-2.16-2.16,21.07,21.07,0,0,0,6.86-5.75Z"/><path d="M95,427.44C95.52,435,97.11,441,99,441c.54,0,.86-1.37,1-4.68a8.15,8.15,0,0,0,2.7,1.82c-.47,4.92-1.51,6.11-4,6.11-4.44,0-6.39-7.69-7-16.84H78.78v-3H91.55c-.06-1.4-.08-2.86-.08-4.29H94.8c0,1.43,0,2.89,0,4.29h4.11a18.49,18.49,0,0,0-3-2.73l2-1.69a19.48,19.48,0,0,1,3.41,2.89l-1.77,1.53H102v3Zm-8.22,11.67c1.59-.29,3.25-.6,4.84-.91l.23,2.76c-4.26.93-8.84,1.89-12.19,2.6l-.86-3.12c1.33-.21,3-.47,4.91-.78v-6.27H79.77v-3H90.92v3H86.76Z"/><path d="M107.59,443.5c2-.65,3.19-1.76,3.35-3.14a.86.86,0,0,1-.29,0,2.31,2.31,0,0,1-2.47-2.32,2.37,2.37,0,0,1,2.55-2.34c1.84,0,2.81,1.38,2.81,3.56,0,3-1.9,5.36-5.12,6.32Z"/><path d="M146,428.4a67.59,67.59,0,0,1,8.65,7L152,437.81a61,61,0,0,0-8-7.05v13.47h-3.38V431.54a30.94,30.94,0,0,1-8.27,6.4,18.07,18.07,0,0,0-2.13-2.81,27.3,27.3,0,0,0,11.21-10.22H131.1v-3.17h22.55v3.17h-8.09a24.59,24.59,0,0,1-1.51,2.4V430Z"/><path d="M166,422.21c-.73,2.26-1.61,5.12-2.42,7.15a7.74,7.74,0,0,1,2,5.3c0,1.72-.36,2.81-1.19,3.38a3.28,3.28,0,0,1-1.54.6,12.76,12.76,0,0,1-1.79.05,6.83,6.83,0,0,0-.7-2.75c.49,0,.88,0,1.22,0a1.23,1.23,0,0,0,.75-.23,1.75,1.75,0,0,0,.47-1.46,6.83,6.83,0,0,0-1.92-4.57c.54-1.67,1.14-4,1.61-5.83h-2.29v20.41h-2.88V421.12h6.13l.44-.13Zm14,12.92a43.23,43.23,0,0,1-3.51,3,9.76,9.76,0,0,0,4.08,3.41,11.22,11.22,0,0,0-2,2.63c-3.82-2-5.85-5.9-7-11h-1.87v6.71l3.74-.67.24,2.7c-3,.7-6.19,1.35-8.64,1.9l-1-3c.78-.11,1.69-.26,2.7-.42V421.14h12.07v12.09h-4.53a19.12,19.12,0,0,0,1,2.76,22.43,22.43,0,0,0,2.34-2.57Zm-10.32-11.31v2.06h6v-2.06Zm0,6.76h6V428.4h-6Z"/><path d="M193.5,427.1c-.08,1.12-.15,2.26-.28,3.38h10a11.84,11.84,0,0,1-.1,1.35c-.47,7.07-1,10-2.05,11.13a3.85,3.85,0,0,1-2.81,1.19,34.19,34.19,0,0,1-4.45,0,7.23,7.23,0,0,0-1.09-3,42.6,42.6,0,0,0,4.37.19,1.67,1.67,0,0,0,1.24-.34c.68-.57,1.15-2.84,1.51-7.57h-7.15c-1,4.39-3.14,8.45-8.34,11.08a10,10,0,0,0-2.19-2.63c7-3.25,7.62-9.18,7.91-14.74h-7.44v-3h10V419.9h3.2v4.23h10.27v3Z"/><path d="M213.08,432.12a19.85,19.85,0,0,0-4.89-2.68l1.59-2.34a20.93,20.93,0,0,1,5,2.42Zm2.73,3.64c-1.27,2.7-2.78,5.67-4.24,8.16l-2.68-2a78.24,78.24,0,0,0,4.61-8.16Zm-1.3-10.51a19.79,19.79,0,0,0-4.86-2.86l1.71-2.31a22.93,22.93,0,0,1,5,2.65Zm15.37,19a15.18,15.18,0,0,0-.89-2c-4.7.42-9.62.75-13.13,1l-.41-3.12,2-.07a48.59,48.59,0,0,0,2.47-6.74h-4.45v-3h6.68v-3.67h-5.38v-3h5.38V420h3.23v3.69H231v3h-5.64v3.67h6.86v3h-8.73l.1,0c-.83,2.18-1.87,4.57-2.81,6.52,2.08-.1,4.4-.23,6.68-.36a35.25,35.25,0,0,0-2.08-3l2.66-1.41a30.61,30.61,0,0,1,4.81,7.57Z"/><path d="M23.24,492.32a25.6,25.6,0,0,1-4.31,5.7c.7,2,1.51,3.2,2.29,3.2.54,0,.85-1.25,1-4.32a8,8,0,0,0,2.55,1.77c-.49,4.55-1.45,5.69-3.82,5.69-1.9,0-3.35-1.56-4.47-4.11a27.23,27.23,0,0,1-4.81,3.18,13.18,13.18,0,0,0-2.06-2.5,26.26,26.26,0,0,0,5.8-3.66,48.62,48.62,0,0,1-1.32-7H8.79v3c1.32-.23,2.68-.49,4-.73l.24,2.81-4.24.86v4.45c0,1.68-.37,2.52-1.41,3a11.31,11.31,0,0,1-4.68.6,12.49,12.49,0,0,0-1.09-3.12c1.46.08,3,.05,3.43,0s.63-.13.63-.54v-3.77c-1.67.34-3.28.67-4.66.93l-.75-3.12c1.48-.23,3.35-.51,5.41-.88V490.3H.75v-2.94H5.67v-3c-1.41.24-2.84.42-4.16.58a11.58,11.58,0,0,0-.89-2.6A66.76,66.76,0,0,0,11,480.18L13,482.81c-1.3.39-2.73.73-4.24,1v3.51h5c-.21-2.34-.29-4.76-.31-7.13h3.25a64.18,64.18,0,0,0,.26,7.13h7.07v2.94H17.29c.21,1.56.47,3.06.75,4.39a21,21,0,0,0,2.47-3.54Zm-1.89-5.72a20.83,20.83,0,0,0-3.7-4.29L20,480.73a22.11,22.11,0,0,1,3.85,4.13Z"/><path d="M40.9,491.28H36.43v12.93H33.57V481.43c-.52,1.48-1.12,3-1.8,4.5v18.33H28.83v-13a19.74,19.74,0,0,1-1.61,2.13,21.59,21.59,0,0,0-1.48-3.33,28.57,28.57,0,0,0,5.15-10l2.86.85-.16.5H40.9Zm-4.47-7.56v1.48h2.13v-1.48Zm2.13,5.22v-1.53H36.43v1.53Zm11.23,11.73c0,1.72-.36,2.55-1.4,3s-2.71.57-5.15.57a11.54,11.54,0,0,0-1-3c1.59.11,3.38.08,3.9.06s.68-.16.68-.65v-9.37H42.07v-9.9h7.72Zm-5.28-16.95v1.48h2.32v-1.48Zm2.32,5.22v-1.53H44.51v1.53Z"/><path d="M76.34,495.89H73.45V501c0,1.51-.21,2.31-1.22,2.81a10.61,10.61,0,0,1-4.27.54,11.82,11.82,0,0,0-.88-3c1.22.05,2.55.05,2.94.05s.52-.11.52-.45v-5h-9v-2.71h1.28a10.56,10.56,0,0,0-1.48-2.1,20.81,20.81,0,0,0,4.29-1.51,14.37,14.37,0,0,0-2.32-2.19c-.28.16-.6.32-.88.47a22.39,22.39,0,0,0-1.69-1.69v18.12H58v-8.81H56.21v0c0,2.15-.28,6.19-2,8.84A12.53,12.53,0,0,0,52,502.85c1.38-2.23,1.56-5.53,1.56-7.38H52.26v-2.65H58v-3H53.27V481.2H56v5.9h2V480h2.84v5.82A16.91,16.91,0,0,0,67.91,480l3,.78A14.71,14.71,0,0,1,70,482H73.4l.49-.1,1.93.88c-2.19,5.59-7,8.76-12.46,10.4h7.18v-3h2.91v3h2.89Zm-11.13.18A18.28,18.28,0,0,1,68,499.73l-2.55,1.51a17.18,17.18,0,0,0-2.62-3.79Zm2.55-7.67c.41-.26.8-.55,1.17-.83a12.72,12.72,0,0,0-2.63-2.11c-.34.23-.65.49-1,.73A16.77,16.77,0,0,1,67.76,488.4Zm.23-4.32a18.05,18.05,0,0,1,2.6,2,13.25,13.25,0,0,0,1.48-2Z"/><path d="M102.21,492.74H99V501c0,1.56-.39,2.34-1.58,2.81a15.92,15.92,0,0,1-5.07.46,12,12,0,0,0-1.1-2.78H84v1.61H81V494.3H92.22v7.15c1.28,0,2.5,0,2.86,0,.52-.05.68-.16.68-.55v-8.19H78.65V490h2.29a10.78,10.78,0,0,0-1.28-2.18c4.61-.49,6.79-1.38,7.93-2.91H80v-2.68h8.61a17.59,17.59,0,0,0,.23-2.24H92c0,.81-.13,1.54-.24,2.24h9v2.68H92c3,1,6.37,2.26,8.53,3.17l-2,1.92h3.72ZM97.73,490c-2-.93-5.12-2.13-7.87-3.09-1.36,1.48-3.54,2.47-7.26,3.09Zm-8.45,6.71H84v2.42h5.3Z"/><path d="M125.61,490.19v2.34h2.62v2.86h-2.62v5.44c0,1.56-.26,2.39-1.3,2.88a11.82,11.82,0,0,1-4.48.52,11.39,11.39,0,0,0-.93-3.07c1.3.06,2.7.06,3.12.06s.54-.11.54-.45v-5.38h-5.43a20.42,20.42,0,0,1,3.12,3.88l-2.47,1.58a21.09,21.09,0,0,0-3-4.08l2.23-1.38h-3.14V494l-2.29.73v9.54h-2.84V495.6c-1.4.42-2.73.81-3.9,1.14l-.72-3c1.27-.29,2.88-.7,4.62-1.17v-4.78H107a21.86,21.86,0,0,1-1,3.3,18.14,18.14,0,0,0-2.18-1.41,31.92,31.92,0,0,0,1.48-8.37l2.57.42q-.15,1.56-.39,3.12h1.22V480h2.84v4.86h2.16v2.44h5.72v-2.21h-4.61v-2.81h4.61V480h3.06v2.31h4.79v2.81h-4.79v2.21h5.91v2.86Zm-3,0h-9.23v-2.36h-1.71v4l2.39-.67.21,1.4h8.34Z"/><path d="M151.94,483.12a30.22,30.22,0,0,1-7.17,13.55,24.32,24.32,0,0,0,9.8,4.68,15.4,15.4,0,0,0-2.18,3A24.61,24.61,0,0,1,142.22,499a29.83,29.83,0,0,1-10,5.36,12.21,12.21,0,0,0-2.05-3,29.54,29.54,0,0,0,9.78-4.73,31.32,31.32,0,0,1-5.57-10.35l3.1-.88a24.7,24.7,0,0,0,5,9,23.52,23.52,0,0,0,5.46-9.15h-16v-3h17.32l.54-.16Z"/><path d="M171.63,498.2c1.79,2,4.75,2.94,9.15,3.25a11.77,11.77,0,0,0-1.85,2.86c-5.35-.62-8.5-2.31-10.53-5.72-1.38,2.78-4.26,4.63-10.68,5.67a9.26,9.26,0,0,0-1.54-2.78c4.94-.65,7.39-1.69,8.69-3.28h-8.22v-2.7h9.41c.11-.5.18-1,.26-1.59h-9.51v-2.76h9.93v-1.32H159v-2.6h7.7V485.9h-8.89v-2.73h4.49A10.14,10.14,0,0,0,161,481l2.73-1.06a10.34,10.34,0,0,1,1.93,3l-.6.26h6.45l-.73-.21a17.3,17.3,0,0,0,1.77-3l3.32.83c-.62.91-1.24,1.75-1.76,2.42h4.81v2.73h-9v1.33h8v2.6h-8v1.32h10v2.76H169.6a13.52,13.52,0,0,1-.24,1.59h10.87v2.7Z"/><path d="M192.61,485.38a37.26,37.26,0,0,1-2.19,11.49,18.88,18.88,0,0,1,2.81,2.71l-1.84,2.49a22.66,22.66,0,0,0-2.32-2.47,14.45,14.45,0,0,1-4.73,4.76,10.68,10.68,0,0,0-1.85-2.44,10.56,10.56,0,0,0,4.24-4.27c-.47-.38-.93-.72-1.4-1.06l-.21.81-2.52-1.33c.57-2.13,1.22-5.05,1.84-8.06h-2v-2.84H185c.34-1.79.65-3.56.88-5.14l2.92.26c-.26,1.53-.58,3.19-.91,4.88h2.34l.52-.07ZM187.28,488c-.39,1.95-.83,3.9-1.25,5.69.62.42,1.27.83,1.92,1.3a29.46,29.46,0,0,0,1.56-7Zm19.26,5.2h-5.72v7.62c0,1.56-.28,2.39-1.3,2.86a10.27,10.27,0,0,1-4.34.57,12.33,12.33,0,0,0-1.12-3c1.33,0,2.71.08,3.12,0s.58-.11.58-.47v-7.59h-5.49V490.3h5.49v-3h1a22.13,22.13,0,0,0,2.49-3.12h-8.08V481.3h10.16l.63-.18,2,1.53a39,39,0,0,1-5.13,6.16v1.49h5.72Z"/><path d="M231.87,484s0,1,0,1.41c-.34,11.62-.62,15.75-1.69,17.13a3.43,3.43,0,0,1-2.49,1.43,28.1,28.1,0,0,1-4.09,0,7.21,7.21,0,0,0-1-3c1.66.15,3.2.15,3.87.15a1.39,1.39,0,0,0,1.15-.44c.75-.83,1.09-4.73,1.38-13.91h-5.57a21.94,21.94,0,0,1-2.29,4.11,19.09,19.09,0,0,0-2-1.46v12.15h-6.94v1.9h-2.81V484.19h2.94A27.22,27.22,0,0,0,213,480l3.38.47c-.44,1.3-.91,2.6-1.35,3.72h4v4.21a26.82,26.82,0,0,0,3.51-8.37l2.94.67a29.85,29.85,0,0,1-1,3.3Zm-15.58,2.89h-4.13v4.21h4.13Zm0,12v-5.1h-4.13v5.1Zm8.64-1.41a54.33,54.33,0,0,0-3.62-6l2.42-1.38a60.71,60.71,0,0,1,3.82,5.77Z"/><path d="M239.3,487.12v-1A23.85,23.85,0,0,1,237,488h10.4v8.09H239c-.05.34-.1.7-.18,1h9v7H245.1v-.72h-4.39v.8h-2.6v-4.29a12.44,12.44,0,0,1-2,3.8,9.86,9.86,0,0,0-2-1.85c2.29-3,2.57-7.15,2.57-10.09v-3.53c-.28.18-.57.39-.86.57a8.4,8.4,0,0,0-1.84-2.18,18.06,18.06,0,0,0,6.52-6.35h2.76a51.34,51.34,0,0,1,5.43,4.68l-2,2.29c-.37-.42-.83-.94-1.38-1.51v1.35Zm5.31,6.84v-1h-5.36c0,.31,0,.64-.05,1Zm-5.33-3.77v.94h5.33v-.94Zm5.3-5.15c-.75-.72-1.56-1.48-2.31-2.08-.55.68-1.15,1.38-1.82,2.08Zm-3.87,14.33v1.85h4.39v-1.85Zm11.13-1.59h-2.92V483.15h2.92Zm5.77-17.26v20.07c0,1.72-.34,2.58-1.38,3.05s-2.6.62-4.83.62a12.84,12.84,0,0,0-1-3.15c1.56.05,3.07.05,3.56.05s.65-.15.65-.59V480.52Z"/><path d="M260.16,502.13a8.63,8.63,0,0,0,3.4-4.4l2.6.91a9.89,9.89,0,0,1-3.59,5.13Zm23.5-14.2H261.17v-2.39h5.56a13.11,13.11,0,0,0-.65-1.74l.13,0h-3.77v-2.39h8.38V480h3.07v1.38h8.39v2.39h-3.66l.39.08c-.39.67-.78,1.22-1.09,1.69h5.74Zm-8.84,13.6c1,0,1.12-.29,1.25-2.13a8.64,8.64,0,0,0,2.62,1c-.33,2.88-1.17,3.61-3.58,3.61h-4.19c-3.27,0-4.08-.76-4.08-3.23V498h2.81l-.32-.13,1.07-1h-6.5V489h17.24v7.87h-8.45a17.21,17.21,0,0,1,2.7,1.59l-1.87,1.93a15.79,15.79,0,0,0-3.67-2.24v2.6c0,.7.21.78,1.38.78Zm-8-9.52h11.23V490.9H266.84Zm0,3h11.23v-1.17H266.84Zm2.34-11.21a16,16,0,0,1,.62,1.69l-.34.08h5.78l-.37-.08c.24-.49.55-1.14.76-1.69Zm11.15,13.65a19.14,19.14,0,0,1,4.24,4.71L282,503.61a21.18,21.18,0,0,0-4.08-4.86Z"/><path d="M10.43,553.75c-1.12.32-2.24.63-3.36.91v6c0,1.53-.31,2.31-1.19,2.78a8.66,8.66,0,0,1-4,.57A10.74,10.74,0,0,0,1,561.14c1,.05,2.13.05,2.47.05s.5-.13.5-.52v-5.15l-2.79.71-.85-3.07c1-.21,2.31-.5,3.64-.84v-4.47H.57v-2.91H3.93V540H7.07v4.91H10v2.91H7.07v3.72l3-.75Zm14.06-8.68H20.36v15.16c0,1.82-.42,2.73-1.61,3.28s-2.92.62-5.33.62a11.57,11.57,0,0,0-1.23-3.38c1.62.1,3.57.08,4.09.08s.72-.16.72-.65V545.07H10.43V542H24.49Z"/><path d="M32.6,558.25c1.07,1.74,3,2.45,5.72,2.55,3,.13,8.9.05,12.35-.21a17.22,17.22,0,0,0-1,3.12c-3.12.16-8.34.21-11.44.08s-5.33-.86-7-2.89c-1.14,1-2.29,2-3.72,3.12L26,560.8a36.34,36.34,0,0,0,3.56-2.39v-5.49h-3v-2.83h6Zm-1.79-11.67a19.52,19.52,0,0,0-4.19-4.11l2.29-1.87a20.69,20.69,0,0,1,4.34,3.92Zm4.55,1.17a19.12,19.12,0,0,0-2.57-1.46,14.2,14.2,0,0,0,3.69-6.06l2.88.68a18.12,18.12,0,0,1-.8,2h1.82V540h3.07v2.88h5.66v2.63H43.45v2.21h6.73v2.57H33.46v-2.57Zm1.77-2.21a16.12,16.12,0,0,1-1.72,2.21h5v-2.21Zm-1.59,13.78v-7.57H48.62v7.57Zm3-2.47H45.4V554.2H38.56Z"/><path d="M74.88,549.05A30.45,30.45,0,0,1,70.41,558c.75,1.87,1.58,3,2.42,3,.62,0,.93-1.3,1.06-4.55a8.42,8.42,0,0,0,2.63,1.74c-.5,4.81-1.54,6-4,6-1.82,0-3.25-1.3-4.4-3.43a22.22,22.22,0,0,1-4.39,3.53,21.19,21.19,0,0,0-2.24-2.55,19.91,19.91,0,0,0,5.31-4.21,53.43,53.43,0,0,1-1.8-10.48H57.51v2.78h6.42s0,.81,0,1.18c-.08,5.45-.24,7.77-.83,8.52a2.45,2.45,0,0,1-1.8,1,19,19,0,0,1-3,.08,7,7,0,0,0-.86-2.89c.94.08,1.82.11,2.24.11a.85.85,0,0,0,.78-.31c.26-.37.36-1.62.44-4.89H57.51c-.1,3.79-.65,8.87-2.78,12a13.24,13.24,0,0,0-2.63-2.11c2-3.12,2.16-7.64,2.16-11v-7.6H64.87c-.05-1.27-.1-2.54-.1-3.84H68c0,1.3,0,2.57,0,3.84h4a34.18,34.18,0,0,0-3.33-2.26l1.87-1.84a21.32,21.32,0,0,1,4.24,2.78l-1.25,1.32h2.7v3.07h-8a61.08,61.08,0,0,0,1,7.13,27,27,0,0,0,2.5-5.78Z"/><path d="M91.91,560.88h9.62v2.78H79.4v-2.78h9.29v-3.1H81.48v-2.7h7.21v-3H82.81V550c-.94.65-1.9,1.24-2.89,1.79a11.16,11.16,0,0,0-2-2.5,28.29,28.29,0,0,0,10.56-9.41h3.2a27.46,27.46,0,0,0,11.13,9.1,15.27,15.27,0,0,0-2.06,2.78c-.93-.52-1.87-1.09-2.81-1.74v2H91.91v3h7.28v2.7H91.91ZM97,549.36a31.49,31.49,0,0,1-6.71-6.45,29.65,29.65,0,0,1-6.5,6.45Z"/><path d="M123.32,553A14.79,14.79,0,0,0,129,560a7.08,7.08,0,0,0-1.9,2.34,17.86,17.86,0,0,1-5.12-5.77v4.23c0,1.54-.31,2.37-1.22,2.84a8.65,8.65,0,0,1-4.16.65,10.26,10.26,0,0,0-1.07-3c1.3.05,2.5.05,2.92.05s.54-.16.54-.55V547.18h-6.13v-2.34h-2.55v4.36h2.55V552h-2.55v4.44c.93-.28,1.87-.54,2.81-.83l.31,1.93c1.32-.78,2.83-1.69,4.31-2.58l.94,2.55c-2,1.4-4.13,2.89-6,4L111.28,559c-2.31.78-4.63,1.51-6.53,2.11l-.8-2.94c1-.23,2.13-.55,3.43-.88V552h-2.73V549.2h2.73v-4.36h-2.91V542h8.68v2.39H119V540h3v4.37h4.11a18.29,18.29,0,0,0-3.17-2.65l1.72-1.62a18.17,18.17,0,0,1,3.45,2.71l-1.56,1.56h2v2.81H122v.93a29.11,29.11,0,0,0,1.09,4.29,24.49,24.49,0,0,0,2.71-4.34l2.7,1.43A49.07,49.07,0,0,1,125,554Zm-7.83,1a20.25,20.25,0,0,0-2.39-4.66l2.39-1.06a19.59,19.59,0,0,1,2.55,4.52Z"/><path d="M136.84,544.34v15.73c0,1.56-.29,2.4-1.22,2.89a9.92,9.92,0,0,1-4.35.55,10.89,10.89,0,0,0-.91-3c1.23.05,2.55.05,2.94.05s.52-.16.52-.52V544.34h-3.59v-2.88h9.42v2.88Zm7,14.8,2.37,1.63a24.41,24.41,0,0,1-6.66,3.44,16.87,16.87,0,0,0-1.9-2.14,20.14,20.14,0,0,0,5.91-2.93h-2.66V545.43H145c.13-.59.26-1.22.36-1.82h-5.25V541h14.33v2.6H148.8c-.24.63-.47,1.25-.68,1.82h5.46v13.71Zm-.08-9.81h6.82V547.7h-6.82Zm0,3.75h6.82v-1.64h-6.82Zm0,3.82h6.82v-1.66h-6.82Zm6.06,2.29a37.15,37.15,0,0,1,5.15,3.28l-2.44,1.81a37.47,37.47,0,0,0-5-3.45Z"/><path d="M164.45,542.91A24.49,24.49,0,0,1,158.6,550a21.13,21.13,0,0,0-2.44-1.93,16.4,16.4,0,0,0,5.35-6Zm6.29,13.52c1.64,3.05,4.68,4.6,9.88,5.07a11.77,11.77,0,0,0-1.79,2.81c-5.49-.78-8.53-2.7-10.45-6.4-1.46,3.05-4.37,5.18-10.64,6.4a9.11,9.11,0,0,0-1.56-2.68c5.8-1,8.22-2.68,9.31-5.2h-8.76v-2.75h9.51c.13-.76.21-1.56.29-2.45a22.12,22.12,0,0,1-2.39.08,12.15,12.15,0,0,0-1.12-2.86c1.33.08,2.86.08,3.28,0s.57-.1.57-.44V540h3v8.14c0,1.48-.29,2.21-1.38,2.68a5.8,5.8,0,0,1-1.45.36h2.75c-.08.88-.15,1.72-.28,2.5H180v2.75Zm6.81-6.65a29,29,0,0,0-5.59-6.32l2.53-1.46a31.4,31.4,0,0,1,5.79,6.09Z"/><path d="M205.87,544s0,1,0,1.41c-.34,11.62-.62,15.75-1.69,17.13a3.43,3.43,0,0,1-2.49,1.43,28.1,28.1,0,0,1-4.09,0,7.21,7.21,0,0,0-1-3c1.66.15,3.2.15,3.87.15a1.39,1.39,0,0,0,1.15-.44c.75-.83,1.09-4.73,1.38-13.91h-5.57a21.94,21.94,0,0,1-2.29,4.11,19.09,19.09,0,0,0-2-1.46v12.15h-6.94v1.9h-2.81V544.19h2.94A27.22,27.22,0,0,0,187,540l3.38.47c-.44,1.3-.91,2.6-1.35,3.72h4v4.21a26.82,26.82,0,0,0,3.51-8.37l2.94.67a29.85,29.85,0,0,1-1,3.3Zm-15.58,2.89h-4.13v4.21h4.13Zm0,12v-5.1h-4.13v5.1Zm8.64-1.41a54.33,54.33,0,0,0-3.62-6l2.42-1.38a60.71,60.71,0,0,1,3.82,5.77Z"/><path d="M214.42,551.7c.68.73,2.94,3.8,3.43,4.55l-1.95,2.39a31.54,31.54,0,0,0-1.53-3.27v8.84h-2.76v-7.49a21.76,21.76,0,0,1-2.26,4.73,25.25,25.25,0,0,0-1.43-3.2,24.19,24.19,0,0,0,3.3-6.76h-2.86v-2.88h3.25v-1.12l-2.1.49a24.34,24.34,0,0,0-1.17-5.85l2-.52a23.28,23.28,0,0,1,1.27,5.59v-7.07h2.76v6.63a42.65,42.65,0,0,0,1.14-5.28L218,542c-.63,2-1.33,4.45-2,6l-1.64-.47v1.14h2.47v2.86h-2.47v.26Zm18-3.35v2.23H217.54v-2.23h5.77V547.2h-4.42v-2.05h4.42v-1h-5V541.9h5v-1.85h2.92v1.85h5.54v2.21h-5.54v1h5v2.05h-5v1.15Zm-1.48,13.15c0,1.28-.26,2-1.15,2.34a9.31,9.31,0,0,1-3.74.42,9.92,9.92,0,0,0-.81-2.45,22,22,0,0,0,2.37,0c.34,0,.44-.1.44-.39v-1.09h-6.27v3.95h-2.83V551.62h12Zm-9.16-7.69v1.27H228v-1.27Zm6.27,4.55v-1.28h-6.27v1.28Z"/><path d="M244.48,554.64a20.07,20.07,0,0,1,3.72,3.9l-2.06,2.08a17.64,17.64,0,0,0-3-3.56v7.15h-3v-6.06a25.7,25.7,0,0,1-4.47,4.63,12.58,12.58,0,0,0-1.85-2.76,18.93,18.93,0,0,0,5.36-5.38h-4.45v-2.78h5.41v-2.29h3v2.29H248v2.78Zm4-11.81A85.41,85.41,0,0,1,235,544.71a9.37,9.37,0,0,0-.81-2.55,81.49,81.49,0,0,0,12.43-1.93Zm-11.57,7.54a13.83,13.83,0,0,0-2.19-4.1l2.27-1a14,14,0,0,1,2.34,3.9Zm4.86-5.79a16.14,16.14,0,0,1,1.77,3.79l-2.55.91a14.37,14.37,0,0,0-1.61-3.95Zm6.79.78-.08.13a18.49,18.49,0,0,0,6.14-5.1l3.06,1.27a24.8,24.8,0,0,1-7.1,6.27,11.57,11.57,0,0,0-2.18-2.26c-.86,1.66-1.77,3.43-2.5,4.57l-2.36-.7a27.36,27.36,0,0,0,2-4.94Zm10.24,10.58a22.63,22.63,0,0,1-9.54,8.34,12.67,12.67,0,0,0-2.24-2.67c3.46-1.41,6.92-3.88,8.69-6.92Zm-.65-7.15a26.88,26.88,0,0,1-7.38,6.32,11,11,0,0,0-2.29-2.29,20.22,20.22,0,0,0,6.63-5.31Z"/><path d="M270.24,552.25v9.44c0,1.11-.15,1.76-.85,2.15a5.32,5.32,0,0,1-2.79.44,10.31,10.31,0,0,0-.7-2.34c.6,0,1.2,0,1.43,0s.29-.1.29-.31v-1.8h-2.78v4.42h-2.6v-12H260.7v-4.06h1.49v-7.38h8.16v7.38h1.56v2.94h12.38v2H271.88v-.93Zm-.64-2h-6.69v1h6.69Zm-5.2-2.11h.9v-4.13H268V543H264.4Zm3.22,5.23h-2.78v1.14h2.78Zm0,4.36v-1.19h-2.78v1.19Zm.41-9.59V545.8h-1.09v2.39Zm16.54,13.6V564H271.34v-2.18h3.33a10.79,10.79,0,0,0-1-2.13l1.59-.58h-2.5V554h10.64v5.07H281l1.56.37c-.46.83-.93,1.64-1.35,2.34Zm-.78-11.55H272.43v-8.06h2.88V540h2.16v2.15h1.12V540h2.18v2.15h3Zm-9.1-5h1.12v-1.12h-1.12Zm0,3h1.12v-1.15h-1.12Zm.6,9h5.54v-1.44h-5.54Zm.65,1.81a10.1,10.1,0,0,1,1.17,2.71h1.77a22.9,22.9,0,0,0,1-2.71Zm2.65-13.83v-1.12h-1.12v1.12Zm-1.12,1.87v1.15h1.12v-1.15Zm3.93-3h-1.14v1.12h1.14Zm0,3h-1.14v1.15h1.14Z"/><path d="M286,562.05c.86-1.38,1.09-3.59,1.17-5.82l1.69.31c-.13,2.39-.34,4.81-1.3,6.31Zm22.15-5.57a16.8,16.8,0,0,1-.49,2.76,28.81,28.81,0,0,1,3,3.54l-1.95,1.5a28.42,28.42,0,0,0-2-2.65,7.9,7.9,0,0,1-2.36,2.71,11.34,11.34,0,0,0-1.67-1.64l-.73.78a16.32,16.32,0,0,0-1.58-2,7.73,7.73,0,0,1-2.45,2.91,10.46,10.46,0,0,0-1.82-1.74,2.51,2.51,0,0,1-.33.76,2,2,0,0,1-1.49.88,13.8,13.8,0,0,1-2.21.1,6.46,6.46,0,0,0-.59-2.31,11.93,11.93,0,0,0,1.53.08.68.68,0,0,0,.65-.32,6.41,6.41,0,0,0,.39-2.36l-.7.26a15.25,15.25,0,0,0-1.1-3.36l1.15-.36a16.22,16.22,0,0,1,.73,1.74c.05-.75.07-1.64.1-2.65h-6.92V540.94h9.08v2.41h-2.7V545h2.23v2.26h-2.23v1.58H296v2.27h-2.31v1.66h3s0,.65,0,1c-.13,5-.24,7.59-.55,8.84,2-1.3,2.81-3.43,3-6.22l2.55.16a17.81,17.81,0,0,1-.44,2.55,22.92,22.92,0,0,1,2.31,2.6,8.57,8.57,0,0,0,2-5.33Zm-17.76.13a27.72,27.72,0,0,1,.24,4.79l-1.41.16a27,27,0,0,0-.13-4.79Zm-.65-13.26V545h1.61v-1.62Zm1.61,3.88h-1.61v1.58h1.61Zm-1.61,5.51h1.61v-1.66h-1.61Zm2.21,3.61a22.88,22.88,0,0,1,.76,4.22l-1.3.23a19.3,19.3,0,0,0-.73-4.21Zm8.12-9.62a15.33,15.33,0,0,1-2.66,1.93,9.16,9.16,0,0,0-1.38-2.58,15,15,0,0,0,5.88-6.05h2.76a15.49,15.49,0,0,0,6.24,5.82,18.74,18.74,0,0,0-1.56,2.73,18.47,18.47,0,0,1-2.45-1.74v1.58H300Zm-2.63,2.84H303v6.34h-5.59Zm2,4.39h1.45v-2.47h-1.45Zm6.71-7.8a17.17,17.17,0,0,1-2.81-3.4,15.76,15.76,0,0,1-2.68,3.4Zm-2.21,3.41h5.79v6.34h-5.79Zm2,4.39h1.64v-2.47h-1.64Z"/></g></g></svg>