<svg viewBox="0 0 768 550.64" xmlns="http://www.w3.org/2000/svg"><path d="m4 16.06-3.87-15.16h3.5c1.43 6.96 2.07 10.1 2.25 11.73.59-2.79 2.06-8.08 2.94-11.73h2.95c.79 2.91 2.31 8.78 2.82 11.58.51-3.35 2-9.22 2.53-11.58h3.17l-4.07 15.16h-3.41c-.81-3.36-2.14-8.27-2.67-10.87-.57 2.71-1.93 7.81-2.75 10.87z"/><path d="m24.71 11.05c0 1.43.72 2.81 2.29 2.81a1.82 1.82 0 0 0 2-1.21h3.14a5 5 0 0 1 -5.21 3.68c-3.76 0-5.39-2.8-5.39-5.79 0-3.54 1.82-6.14 5.46-6.14 3.89 0 5.24 2.84 5.24 5.68a5.93 5.93 0 0 1 -.05 1zm4.4-1.94c0-1.32-.55-2.44-2.09-2.44s-2.12 1-2.25 2.44z"/><path d="m49.41 13.11a24.1 24.1 0 0 0 .16 2.95h-3a4.33 4.33 0 0 1 -.15-1.12c-.42.64-1.19 1.39-3.21 1.39-2.75 0-3.9-1.81-3.9-3.57 0-2.59 2.07-3.8 5.42-3.8h1.62v-.69c0-.81-.28-1.6-1.76-1.6-1.32 0-1.63.55-1.76 1.38h-3c.17-2.05 1.4-3.65 4.88-3.65 3 0 4.7 1.21 4.7 3.94zm-3.08-2.24h-1.27c-1.92 0-2.62.59-2.62 1.69a1.47 1.47 0 0 0 1.65 1.52c2 0 2.24-1.41 2.24-2.9z"/><path d="m52.36 7.77c0-1.15 0-2.14 0-3.1h3.1c0 .26.09 1.38.09 2a3.67 3.67 0 0 1 3.63-2.27v3c-2.29-.07-3.65.55-3.65 3.67v5h-3.17z"/><path d="m63.21 11.05c0 1.43.72 2.81 2.29 2.81a1.82 1.82 0 0 0 2-1.21h3.14a5 5 0 0 1 -5.21 3.68c-3.76 0-5.39-2.8-5.39-5.79-.04-3.54 1.82-6.14 5.5-6.14 3.89 0 5.24 2.84 5.24 5.68a5.93 5.93 0 0 1 0 1zm4.4-1.94c0-1.32-.55-2.44-2.09-2.44s-2.12 1-2.25 2.44z"/><path d="m87.91 13.11a24.1 24.1 0 0 0 .16 2.95h-3a4.33 4.33 0 0 1 -.15-1.12c-.42.64-1.19 1.39-3.21 1.39-2.75 0-3.9-1.81-3.9-3.57 0-2.59 2.07-3.8 5.42-3.8h1.62v-.69c0-.81-.28-1.6-1.76-1.6-1.32 0-1.63.55-1.76 1.38h-3c.15-2 1.41-3.65 4.89-3.65 3 0 4.7 1.21 4.7 3.94zm-3.08-2.24h-1.27c-1.92 0-2.62.59-2.62 1.69a1.47 1.47 0 0 0 1.65 1.52c2 0 2.24-1.41 2.24-2.9z"/><path d="m106.15 12.39c-.37 1.89-1.71 3.94-5.1 3.94-3.55 0-5.37-2.45-5.37-5.88s2-6 5.52-6c3.83 0 4.91 2.77 5 4h-3.06a1.78 1.78 0 0 0 -2-1.56c-1.45 0-2.26 1.25-2.26 3.45 0 2.44.88 3.54 2.24 3.54a1.93 1.93 0 0 0 2-1.49z"/><path d="m108.26 7.77c0-1.15 0-2.14 0-3.1h3.1a19.85 19.85 0 0 1 .09 2 3.67 3.67 0 0 1 3.65-2.27v3c-2.29-.07-3.65.55-3.65 3.67v5h-3.17z"/><path d="m119.55 11.05c0 1.43.72 2.81 2.29 2.81a1.82 1.82 0 0 0 2-1.21h3.16a5 5 0 0 1 -5.21 3.68c-3.76 0-5.39-2.8-5.39-5.79 0-3.59 1.83-6.14 5.5-6.14 3.89 0 5.24 2.84 5.24 5.68a5.93 5.93 0 0 1 -.05 1zm4.45-1.94c0-1.32-.55-2.44-2.09-2.44s-2.11 1-2.25 2.44z"/><path d="m138.82 13.11a27.1 27.1 0 0 0 .15 2.95h-3a4.33 4.33 0 0 1 -.15-1.12c-.42.64-1.19 1.39-3.22 1.39-2.75 0-3.89-1.81-3.89-3.57 0-2.59 2.07-3.8 5.41-3.8h1.63v-.69c0-.81-.29-1.6-1.76-1.6-1.32 0-1.63.55-1.76 1.38h-3c.15-2 1.41-3.65 4.88-3.65 3 0 4.71 1.21 4.71 3.94zm-3.08-2.24h-1.28c-1.91 0-2.61.59-2.61 1.69a1.47 1.47 0 0 0 1.65 1.52c2 0 2.24-1.41 2.24-2.9z"/><path d="m140.67 4.67h1.76v-3.09h3.14v3.09h2.25v2.33h-2.25v5.63c0 .86.27 1.19 1.21 1.19h.71v2.18a6.86 6.86 0 0 1 -2.11.22c-2.23 0-2.95-1.19-2.95-3.19v-6.03h-1.76z"/><path d="m149.86 2.82v-2.82h3.14v2.82zm0 1.85h3.14v11.39h-3.17z"/><path d="m158.09 4.67c1.08 3.87 2 7.23 2.2 8.6.33-1.87 1.43-5.3 2.42-8.6h3.15l-4 11.39h-3.3l-3.88-11.39z"/><path d="m170 11.05c0 1.43.72 2.81 2.29 2.81a1.82 1.82 0 0 0 2-1.21h3.14a5 5 0 0 1 -5.21 3.68c-3.76 0-5.39-2.8-5.39-5.79 0-3.59 1.82-6.14 5.5-6.14 3.89 0 5.24 2.84 5.24 5.68a5.93 5.93 0 0 1 -.05 1zm4.4-1.94c0-1.32-.55-2.44-2.09-2.44s-2.12 1-2.25 2.44z"/><path d="m194.74 13.11a24.1 24.1 0 0 0 .16 2.95h-3a4.33 4.33 0 0 1 -.15-1.12c-.42.64-1.19 1.39-3.21 1.39-2.75 0-3.9-1.81-3.9-3.57 0-2.59 2.07-3.8 5.42-3.8h1.62v-.69c0-.81-.28-1.6-1.76-1.6-1.32 0-1.63.55-1.76 1.38h-3c.15-2 1.41-3.65 4.89-3.65 3 0 4.7 1.21 4.7 3.94zm-3.08-2.24h-1.27c-1.92 0-2.62.59-2.62 1.69a1.47 1.47 0 0 0 1.65 1.52c2 0 2.24-1.41 2.24-2.9z"/><path d="m208.05 14.68c0 3.65-1.34 6-5.65 6-4.16 0-5-2.31-5.08-3.61h3.21a1.8 1.8 0 0 0 2 1.32c2.05 0 2.44-1.25 2.44-3.48v-.55a3.36 3.36 0 0 1 -3.21 1.61c-3 0-4.71-2.46-4.71-5.52 0-3.57 2.14-6 5-6 1.95 0 2.77.93 2.94 1.45 0-.31.11-1 .14-1.18h3v3.27zm-5.39-1.3c1.9 0 2.4-1.3 2.4-3.21s-.33-3.24-2.33-3.24c-1.36 0-2.44 1.06-2.44 3.35 0 1.95.99 3.1 2.37 3.1z"/><path d="m213.46 11.05c0 1.43.73 2.81 2.29 2.81a1.81 1.81 0 0 0 2-1.21h3.15a5 5 0 0 1 -5.21 3.68c-3.77 0-5.39-2.8-5.39-5.79 0-3.59 1.82-6.14 5.5-6.14 3.89 0 5.23 2.84 5.23 5.68a7.4 7.4 0 0 1 0 1zm4.41-1.94c0-1.32-.55-2.44-2.1-2.44s-2.11 1-2.24 2.44z"/><path d="m223.3 7.55c0-1 0-2 0-2.88h3.05a13 13 0 0 1 .14 1.45 3.44 3.44 0 0 1 3.3-1.72c2.29 0 3.76 1.56 3.76 4.42v7.24h-3.15v-6.88c0-1.3-.42-2.23-1.82-2.23s-2.09.75-2.09 2.78v6.33h-3.19z"/><path d="m246.29 12.39c-.37 1.89-1.72 3.94-5.1 3.94-3.55 0-5.37-2.45-5.37-5.88s2-6 5.52-6c3.83 0 4.91 2.77 4.95 4h-3.06a1.78 1.78 0 0 0 -2-1.56c-1.45 0-2.26 1.25-2.26 3.45 0 2.44.88 3.54 2.24 3.54a1.94 1.94 0 0 0 2-1.49z"/><path d="m250.49 4.67c1.17 3.93 2.2 7.43 2.38 8.49.24-1.15.92-3.7 2.26-8.49h3.15l-3.83 11.72c-1.08 3.28-2 4.25-4.73 4.25a13.29 13.29 0 0 1 -1.47-.09v-2.55h.81a2 2 0 0 0 2.18-1.65l-4.14-11.68z"/><path d="m258.65 18.61a18.49 18.49 0 0 0 1.63-6.42h3.23a12.54 12.54 0 0 1 -2.42 6.42z"/><path d="m4.4 65.56-1.17 3.5h-3.23l5.15-15.16h4.11l5.39 15.16h-3.45l-1.2-3.5zm4.84-2.68c-1.08-3.21-1.76-5.26-2.13-6.62-.37 1.49-1.12 3.87-2 6.62z"/><path d="m32.3 53v12.94 3.12h-3c-.06-.35-.13-.92-.15-1.19a3.41 3.41 0 0 1 -3.23 1.46c-2.89 0-4.71-2.31-4.71-5.88s1.93-6.05 5.17-6.05c1.65 0 2.53.6 2.77 1.1v-5.5zm-5.44 13.8c2.16 0 2.42-1.81 2.42-3.44 0-2-.28-3.43-2.35-3.43-1.65 0-2.49 1.3-2.49 3.46s.86 3.41 2.42 3.41z"/><path d="m35.2 55.82v-2.82h3.17v2.82zm0 1.85h3.17v11.39h-3.17z"/><path d="m51.66 67.68c0 3.65-1.34 6-5.66 6-4.16 0-5-2.31-5.08-3.61h3.21a1.8 1.8 0 0 0 2 1.32c2 0 2.45-1.25 2.45-3.48v-.55a3.38 3.38 0 0 1 -3.22 1.61c-3 0-4.7-2.46-4.7-5.52 0-3.57 2.13-6 5-6 2 0 2.77.93 2.95 1.45 0-.31.11-1 .13-1.18h3v3.27zm-5.39-1.3c1.89 0 2.4-1.3 2.4-3.21s-.34-3.24-2.34-3.24c-1.36 0-2.44 1.06-2.44 3.35 0 1.95.99 3.1 2.38 3.1z"/><path d="m54.56 55.82v-2.82h3.17v2.82zm0 1.85h3.17v11.39h-3.17z"/><path d="m59.55 57.67h1.76v-3.09h3.15v3.09h2.24v2.33h-2.24v5.63c0 .86.26 1.19 1.21 1.19h.7v2.18a6.8 6.8 0 0 1 -2.11.22c-2.22 0-3-1.19-3-3.19v-6.03h-1.71z"/><path d="m78.21 66.11a27.1 27.1 0 0 0 .15 3h-3a4.33 4.33 0 0 1 -.15-1.12c-.42.64-1.19 1.39-3.22 1.39-2.75 0-3.89-1.81-3.89-3.57 0-2.59 2.07-3.8 5.41-3.8h1.63v-.69c0-.81-.29-1.6-1.76-1.6s-1.63.55-1.76 1.38h-3c.15-2 1.4-3.65 4.88-3.65 3 0 4.71 1.21 4.71 3.94zm-3.08-2.24h-1.28c-1.91 0-2.62.59-2.62 1.69a1.47 1.47 0 0 0 1.65 1.52c2 0 2.25-1.41 2.25-2.9z"/><path d="m81.16 69.06v-16.06h3.16v16.06z"/><path d="m92.68 73.42v-13c0-.93 0-1.83 0-2.75h3.06a13.93 13.93 0 0 1 .11 1.43 3.58 3.58 0 0 1 3.3-1.7c2.58 0 4.53 2.16 4.53 5.68 0 4-2.2 6.25-5 6.25a3.19 3.19 0 0 1 -2.88-1.28v5.37zm5.44-13.49c-1.78 0-2.42 1.17-2.42 3.46s.59 3.43 2.29 3.43 2.48-1.3 2.48-3.61c0-2.09-.83-3.28-2.35-3.28z"/><path d="m106 60.77c0-1.15 0-2.14 0-3.1h3c0 .26.09 1.38.09 2a3.66 3.66 0 0 1 3.65-2.27v3c-2.29-.07-3.65.55-3.65 3.67v5h-3.09z"/><path d="m125.33 63.34c0 3.46-2.06 6-5.67 6s-5.59-2.53-5.59-5.92 2.13-6 5.74-6c3.35-.02 5.52 2.36 5.52 5.92zm-8.07 0c0 2.2.95 3.5 2.46 3.5s2.42-1.3 2.42-3.47c0-2.38-.88-3.5-2.46-3.5s-2.42 1.13-2.42 3.49z"/><path d="m138.05 53v12.94 3.12h-3c-.07-.35-.14-.92-.16-1.19a3.41 3.41 0 0 1 -3.23 1.46c-2.88 0-4.71-2.31-4.71-5.88s1.94-6.05 5.17-6.05c1.65 0 2.53.6 2.77 1.1v-5.5zm-5.44 13.8c2.16 0 2.43-1.81 2.43-3.44 0-2-.29-3.43-2.36-3.43-1.65 0-2.49 1.3-2.49 3.46s.86 3.41 2.42 3.41z"/><path d="m151 65.76v3.3h-3.08c-.05-.31-.07-.92-.09-1.32a3.25 3.25 0 0 1 -3.15 1.59c-2.31 0-3.78-1.41-3.78-4.23v-7.43h3.14v6.79c0 1.26.4 2.29 1.76 2.29s2-.77 2-3v-6.08h3.2z"/><path d="m163.79 65.39c-.37 1.89-1.72 3.94-5.1 3.94-3.55 0-5.37-2.45-5.37-5.88s2-6.05 5.52-6.05c3.83 0 4.91 2.77 4.95 4.05h-3.06a1.78 1.78 0 0 0 -2-1.56c-1.45 0-2.26 1.25-2.26 3.45 0 2.44.88 3.54 2.24 3.54a1.94 1.94 0 0 0 2-1.49z"/><path d="m164.8 57.67h1.76v-3.09h3.15v3.09h2.29v2.33h-2.24v5.63c0 .86.26 1.19 1.21 1.19h.7v2.18a6.83 6.83 0 0 1 -2.11.22c-2.22 0-2.95-1.19-2.95-3.19v-6.03h-1.81z"/><path d="m174 55.82v-2.82h3.16v2.82zm0 1.85h3.16v11.39h-3.16z"/><path d="m190.69 63.34c0 3.46-2.06 6-5.67 6s-5.59-2.53-5.59-5.92 2.13-6 5.74-6c3.35-.02 5.52 2.36 5.52 5.92zm-8.07 0c0 2.2.95 3.5 2.46 3.5s2.42-1.3 2.42-3.47c0-2.38-.88-3.5-2.46-3.5s-2.42 1.13-2.42 3.49z"/><path d="m193 60.55c0-1 0-2 0-2.88h3c.06.3.11 1.1.13 1.45a3.45 3.45 0 0 1 3.3-1.72c2.29 0 3.76 1.56 3.76 4.42v7.24h-3.14v-6.88c0-1.3-.42-2.23-1.83-2.23s-2.09.75-2.09 2.78v6.33h-3.13z"/><path d="m221.41 65.39c-.38 1.89-1.72 3.94-5.11 3.94-3.54 0-5.37-2.45-5.37-5.88s2-6.05 5.52-6.05c3.83 0 4.91 2.77 5 4.05h-3.06a1.79 1.79 0 0 0 -2-1.56c-1.45 0-2.27 1.25-2.27 3.45 0 2.44.88 3.54 2.25 3.54a1.94 1.94 0 0 0 2-1.49z"/><path d="m234.12 63.34c0 3.46-2.07 6-5.68 6s-5.58-2.53-5.58-5.92 2.13-6 5.74-6c3.34-.02 5.52 2.36 5.52 5.92zm-8.07 0c0 2.2.94 3.5 2.46 3.5s2.42-1.3 2.42-3.47c0-2.38-.88-3.5-2.46-3.5s-2.42 1.13-2.42 3.49z"/><path d="m236.39 60.61c0-1 0-2 0-2.94h3c0 .28.11.92.13 1.36a3.58 3.58 0 0 1 3.17-1.63 3 3 0 0 1 2.93 1.74 4 4 0 0 1 3.52-1.74c2 0 3.6 1.23 3.6 4.18v7.48h-3.08v-7.06c0-1-.37-2-1.67-2s-1.85.88-1.85 2.62v6.51h-3.14v-7c0-1.17-.28-2.14-1.63-2.14s-1.89.8-1.89 2.75v6.36h-3.12z"/><path d="m255.66 73.42v-13c0-.93 0-1.83 0-2.75h3.06a11.58 11.58 0 0 1 .11 1.43 3.59 3.59 0 0 1 3.3-1.7c2.58 0 4.54 2.16 4.54 5.68 0 4-2.2 6.25-4.95 6.25a3.2 3.2 0 0 1 -2.89-1.28v5.37zm5.43-13.49c-1.78 0-2.42 1.17-2.42 3.46s.6 3.43 2.29 3.43 2.49-1.3 2.49-3.61c0-2.09-.84-3.28-2.36-3.28z"/><path d="m278.38 66.11a24.1 24.1 0 0 0 .16 3h-3a4.81 4.81 0 0 1 -.15-1.12c-.42.64-1.19 1.39-3.21 1.39-2.75 0-3.9-1.81-3.9-3.57 0-2.59 2.07-3.8 5.42-3.8h1.62v-.69c0-.81-.28-1.6-1.76-1.6-1.32 0-1.62.55-1.76 1.38h-3c.16-2 1.41-3.65 4.89-3.65 3 0 4.7 1.21 4.7 3.94zm-3.08-2.24h-1.3c-1.92 0-2.62.59-2.62 1.69a1.47 1.47 0 0 0 1.65 1.52c2 0 2.24-1.41 2.24-2.9z"/><path d="m281.35 60.55c0-1 0-2 0-2.88h3.06a13 13 0 0 1 .13 1.45 3.47 3.47 0 0 1 3.3-1.72c2.29 0 3.77 1.56 3.77 4.42v7.24h-3.15v-6.88c0-1.3-.42-2.23-1.83-2.23s-2.09.75-2.09 2.78v6.33h-3.17z"/><path d="m296.58 57.67c1.16 3.93 2.2 7.43 2.37 8.49.24-1.15.92-3.7 2.26-8.49h3.15l-3.83 11.72c-1.08 3.28-2 4.25-4.73 4.25a13.16 13.16 0 0 1 -1.47-.09v-2.55h.81a2 2 0 0 0 2.18-1.65l-4.16-11.74z"/><path d="m304.74 71.61a18.73 18.73 0 0 0 1.63-6.42h3.23a12.63 12.63 0 0 1 -2.42 6.42z"/><path d="m4.4 118.56-1.17 3.5h-3.23l5.15-15.16h4.11l5.39 15.16h-3.45l-1.2-3.5zm4.84-2.68c-1.08-3.21-1.76-5.26-2.13-6.62-.37 1.49-1.12 3.87-2 6.62z"/><path d="m32.3 106v12.94 3.12h-3c-.06-.35-.13-.92-.15-1.19a3.41 3.41 0 0 1 -3.23 1.46c-2.89 0-4.71-2.31-4.71-5.88s1.93-6 5.17-6c1.65 0 2.53.6 2.77 1.1v-5.55zm-5.44 13.8c2.16 0 2.42-1.81 2.42-3.44 0-2-.28-3.43-2.35-3.43-1.65 0-2.49 1.3-2.49 3.46s.86 3.41 2.42 3.41z"/><path d="m37.71 117.05c0 1.43.72 2.81 2.29 2.81a1.82 1.82 0 0 0 2-1.21h3.15a5 5 0 0 1 -5.22 3.68c-3.76 0-5.39-2.8-5.39-5.79 0-3.59 1.83-6.14 5.5-6.14 3.9 0 5.24 2.84 5.24 5.68a5.93 5.93 0 0 1 -.05 1zm4.4-1.94c0-1.32-.55-2.44-2.09-2.44s-2.11 1-2.25 2.44z"/><path d="m49.85 118.63a2 2 0 0 0 2.15 1.43c1.17 0 1.58-.42 1.58-1.12s-.48-1-2.11-1.41c-3.72-.92-4.31-2.07-4.31-3.67s1.16-3.46 4.6-3.46 4.64 1.89 4.73 3.43h-3c-.11-.41-.4-1.21-1.88-1.21-1 0-1.38.46-1.38 1s.35.84 2.2 1.28c3.81.88 4.36 2.18 4.36 3.85 0 1.89-1.46 3.61-4.91 3.61s-4.89-1.68-5.15-3.7z"/><path d="m59 108.82v-2.82h3.17v2.82zm0 1.85h3.17v11.39h-3.17z"/><path d="m75.44 120.68c0 3.65-1.34 6-5.66 6-4.16 0-5-2.31-5.08-3.61h3.21a1.81 1.81 0 0 0 2 1.32c2 0 2.44-1.25 2.44-3.48v-.55a3.38 3.38 0 0 1 -3.21 1.61c-3 0-4.71-2.46-4.71-5.52 0-3.57 2.13-6 5-6 2 0 2.77.93 3 1.45 0-.31.11-1 .13-1.18h3v3.27zm-5.39-1.3c1.89 0 2.4-1.3 2.4-3.21s-.33-3.24-2.34-3.24c-1.36 0-2.44 1.06-2.44 3.35 0 1.95.99 3.1 2.38 3.1z"/><path d="m78.36 113.55c0-1 0-2 0-2.88h3.04c.06.3.11 1.09.13 1.45a3.47 3.47 0 0 1 3.3-1.72c2.29 0 3.76 1.56 3.76 4.42v7.24h-3.14v-6.88c0-1.3-.42-2.23-1.83-2.23s-2.09.75-2.09 2.78v6.33h-3.17z"/><path d="m99.26 118.63a2 2 0 0 0 2.16 1.43c1.17 0 1.58-.42 1.58-1.12s-.48-1-2.11-1.41c-3.72-.92-4.31-2.07-4.31-3.67s1.17-3.46 4.6-3.46 4.64 1.89 4.73 3.43h-3c-.11-.41-.4-1.21-1.87-1.21-1 0-1.39.46-1.39 1s.35.84 2.2 1.28c3.81.88 4.36 2.18 4.36 3.85 0 1.89-1.46 3.61-4.91 3.61s-4.88-1.68-5.15-3.7z"/><path d="m107.29 110.67h1.76v-3.09h3.15v3.09h2.24v2.33h-2.24v5.63c0 .86.26 1.19 1.21 1.19h.7v2.18a6.8 6.8 0 0 1 -2.11.22c-2.22 0-3-1.19-3-3.19v-6h-1.76z"/><path d="m126.52 118.76v3.3h-3.08c0-.31-.06-.92-.08-1.32a3.27 3.27 0 0 1 -3.15 1.59c-2.31 0-3.79-1.41-3.79-4.23v-7.43h3.15v6.79c0 1.26.4 2.29 1.76 2.29s2-.77 2-3v-6.07h3.14z"/><path d="m139.92 106v12.94 3.12h-3c-.07-.35-.13-.92-.16-1.19a3.41 3.41 0 0 1 -3.23 1.46c-2.88 0-4.71-2.31-4.71-5.88s1.94-6 5.17-6c1.65 0 2.53.6 2.77 1.1v-5.55zm-5.43 13.8c2.15 0 2.42-1.81 2.42-3.44 0-2-.29-3.43-2.36-3.43-1.65 0-2.48 1.3-2.48 3.46s.85 3.41 2.42 3.41z"/><path d="m142.82 108.82v-2.82h3.18v2.82zm0 1.85h3.18v11.39h-3.17z"/><path d="m159.52 116.34c0 3.46-2.07 6-5.68 6s-5.58-2.53-5.58-5.92 2.13-6 5.74-6c3.34-.02 5.52 2.36 5.52 5.92zm-8.07 0c0 2.2.94 3.5 2.46 3.5s2.42-1.3 2.42-3.47c0-2.38-.88-3.5-2.46-3.5s-2.42 1.13-2.42 3.49z"/><path d="m160.51 124.62a18.82 18.82 0 0 0 1.63-6.43h3.23a12.7 12.7 0 0 1 -2.42 6.43z"/><path d="m4.4 171.56-1.17 3.5h-3.23l5.15-15.16h4.11l5.39 15.16h-3.45l-1.2-3.5zm4.84-2.68c-1.08-3.21-1.76-5.26-2.13-6.62-.37 1.49-1.12 3.87-2 6.62z"/><path d="m21.85 159h3.15v5.88a3.57 3.57 0 0 1 3.26-1.48c3.1 0 4.64 2.58 4.64 5.77s-1.67 6.16-4.95 6.16c-1.69 0-2.44-.51-3-1.35a5.51 5.51 0 0 1 -.13 1.08h-3c0-1.23 0-2.48 0-3.72zm5.45 6.93c-1.8 0-2.44 1.17-2.44 3.5 0 1.91.57 3.39 2.4 3.39 1.6 0 2.46-1.43 2.46-3.59 0-1.91-.72-3.3-2.42-3.3z"/><path d="m35.18 166.77c0-1.15 0-2.14 0-3.1h3.1c0 .26.09 1.38.09 2a3.66 3.66 0 0 1 3.63-2.27v3c-2.29-.07-3.65.54-3.65 3.67v5h-3.17z"/><path d="m53.42 172.11a27.1 27.1 0 0 0 .15 2.95h-3a4.32 4.32 0 0 1 -.16-1.12c-.41.64-1.19 1.39-3.21 1.39-2.75 0-3.89-1.81-3.89-3.57 0-2.59 2.06-3.8 5.41-3.8h1.63v-.69c0-.81-.29-1.6-1.76-1.6s-1.63.55-1.76 1.38h-3c.16-2 1.41-3.65 4.89-3.65 3 0 4.71 1.21 4.71 3.94zm-3.08-2.24h-1.28c-1.91 0-2.62.59-2.62 1.69a1.47 1.47 0 0 0 1.65 1.52c2 0 2.25-1.41 2.25-2.9z"/><path d="m56.39 166.55c0-1 0-2 0-2.88h3.06a12.81 12.81 0 0 1 .13 1.45 3.47 3.47 0 0 1 3.3-1.72c2.29 0 3.77 1.56 3.77 4.42v7.24h-3.18v-6.88c0-1.3-.42-2.23-1.83-2.23s-2.09.75-2.09 2.78v6.33h-3.16z"/><path d="m80 159v12.94 3.12h-3c-.07-.35-.13-.92-.16-1.19a3.41 3.41 0 0 1 -3.23 1.46c-2.88 0-4.71-2.31-4.71-5.88s1.94-6 5.17-6c1.65 0 2.53.6 2.77 1.1v-5.55zm-5.43 13.8c2.15 0 2.42-1.81 2.42-3.44 0-2-.29-3.43-2.36-3.43-1.65 0-2.48 1.3-2.48 3.46s.85 3.41 2.39 3.41z"/><path d="m98.17 171.39c-.38 1.89-1.72 3.94-5.11 3.94-3.54 0-5.37-2.45-5.37-5.88s2-6 5.52-6c3.83 0 4.91 2.77 5 4h-3.1a1.79 1.79 0 0 0 -2-1.56c-1.45 0-2.27 1.25-2.27 3.45 0 2.44.88 3.54 2.25 3.54a1.92 1.92 0 0 0 2-1.49z"/><path d="m110.88 169.34c0 3.46-2.07 6-5.68 6s-5.58-2.53-5.58-5.92 2.13-6 5.74-6c3.34-.02 5.52 2.36 5.52 5.92zm-8.07 0c0 2.2.94 3.5 2.46 3.5s2.42-1.3 2.42-3.47c0-2.38-.88-3.5-2.46-3.5s-2.42 1.13-2.42 3.49z"/><path d="m113.17 166.55c0-1 0-2 0-2.88h3.06a12.81 12.81 0 0 1 .13 1.45 3.47 3.47 0 0 1 3.31-1.72c2.28 0 3.76 1.56 3.76 4.42v7.24h-3.15v-6.88c0-1.3-.42-2.23-1.82-2.23s-2.1.75-2.1 2.78v6.33h-3.16z"/><path d="m128.63 171.63a2 2 0 0 0 2.16 1.43c1.17 0 1.58-.42 1.58-1.12s-.48-1-2.11-1.41c-3.72-.92-4.31-2.07-4.31-3.67s1.17-3.46 4.6-3.46 4.64 1.89 4.73 3.43h-3c-.11-.41-.4-1.21-1.87-1.21-1 0-1.39.46-1.39 1s.35.84 2.2 1.28c3.81.88 4.36 2.18 4.36 3.85 0 1.89-1.46 3.61-4.91 3.61s-4.89-1.68-5.15-3.7z"/><path d="m147.8 171.76v3.3h-3.08c-.05-.31-.07-.92-.09-1.32a3.25 3.25 0 0 1 -3.15 1.59c-2.31 0-3.78-1.41-3.78-4.23v-7.43h3.15v6.79c0 1.26.39 2.29 1.75 2.29s2-.77 2-3v-6.07h3.15z"/><path d="m150.74 175.06v-16.06h3.17v16.06z"/><path d="m155.74 163.67h1.76v-3.09h3.14v3.09h2.25v2.33h-2.25v5.63c0 .86.27 1.19 1.21 1.19h.71v2.18a6.9 6.9 0 0 1 -2.12.22c-2.22 0-2.94-1.19-2.94-3.19v-6h-1.76z"/><path d="m164.93 161.82v-2.82h3.17v2.82zm0 1.85h3.17v11.39h-3.17z"/><path d="m171.05 166.55c0-1 0-2 0-2.88h3.06a12.81 12.81 0 0 1 .13 1.45 3.47 3.47 0 0 1 3.31-1.72c2.28 0 3.76 1.56 3.76 4.42v7.24h-3.15v-6.88c0-1.3-.42-2.23-1.83-2.23s-2.09.75-2.09 2.78v6.33h-3.16z"/><path d="m194.54 173.68c0 3.65-1.34 6-5.65 6-4.16 0-5-2.31-5.08-3.61h3.19a1.8 1.8 0 0 0 2 1.32c2 0 2.44-1.25 2.44-3.48v-.55a3.36 3.36 0 0 1 -3.21 1.61c-3 0-4.71-2.46-4.71-5.52 0-3.57 2.14-6 5-6 1.95 0 2.77.93 2.94 1.45 0-.31.11-1 .14-1.18h3v3.27zm-5.39-1.3c1.9 0 2.4-1.3 2.4-3.21s-.33-3.24-2.33-3.24c-1.36 0-2.44 1.06-2.44 3.35 0 1.95.99 3.1 2.37 3.1z"/><path d="m203.32 175.06v-9h-1.67v-2.37h1.67v-1c0-2.35 1.17-3.89 3.63-3.89a6.35 6.35 0 0 1 1.45.13v2.49a5.58 5.58 0 0 0 -.66-.05c-.92 0-1.27.33-1.27 1.57v.75h2v2.31h-2v9z"/><path d="m210.23 161.82v-2.82h3.17v2.82zm0 1.85h3.17v11.39h-3.17z"/><path d="m216.32 166.77c0-1.15 0-2.14 0-3.1h3.1a19.85 19.85 0 0 1 .09 2 3.67 3.67 0 0 1 3.65-2.27v3c-2.29-.07-3.65.54-3.65 3.67v5h-3.17z"/><path d="m225.1 166.61c0-1 0-2 0-2.94h3c0 .28.11.92.13 1.36a3.59 3.59 0 0 1 3.17-1.63 3 3 0 0 1 2.93 1.74 4 4 0 0 1 3.52-1.74c2 0 3.61 1.23 3.61 4.18v7.48h-3.08v-7.06c0-1-.38-2-1.67-2s-1.85.88-1.85 2.62v6.51h-3.1v-7c0-1.17-.29-2.14-1.63-2.14s-1.9.8-1.9 2.75v6.36h-3.13z"/><path d="m243.1 177.62a18.75 18.75 0 0 0 1.62-6.43h3.28a12.7 12.7 0 0 1 -2.42 6.43z"/><path d="m4.4 224.56-1.17 3.5h-3.23l5.15-15.16h4.11l5.39 15.16h-3.45l-1.2-3.5zm4.84-2.68c-1.08-3.21-1.76-5.26-2.13-6.62-.37 1.49-1.12 3.87-2 6.62z"/><path d="m16.43 219.55c0-1 0-2 0-2.88h3.06a12.81 12.81 0 0 1 .13 1.45 3.47 3.47 0 0 1 3.3-1.72c2.29 0 3.77 1.56 3.77 4.42v7.24h-3.17v-6.88c0-1.3-.42-2.23-1.83-2.23s-2.09.75-2.09 2.78v6.33h-3.17z"/><path d="m35 214.82v-2.82h3.17v2.82zm0 1.85h3.17v11.39h-3.17z"/><path d="m41.12 219.55c0-1 0-2 0-2.88h3c.07.3.11 1.09.14 1.45a3.44 3.44 0 0 1 3.3-1.72c2.29 0 3.76 1.56 3.76 4.42v7.24h-3.12v-6.88c0-1.3-.41-2.23-1.82-2.23s-2.09.75-2.09 2.78v6.33h-3.17z"/><path d="m54.27 219.55c0-1 0-2 0-2.88h3.06a12.81 12.81 0 0 1 .13 1.45 3.47 3.47 0 0 1 3.3-1.72c2.29 0 3.76 1.56 3.76 4.42v7.24h-3.16v-6.88c0-1.3-.42-2.23-1.83-2.23s-2.09.75-2.09 2.78v6.33h-3.17z"/><path d="m78 222.34c0 3.46-2.07 6-5.67 6s-5.59-2.53-5.59-5.92 2.13-6 5.74-6c3.35-.02 5.52 2.36 5.52 5.92zm-8.07 0c0 2.2.94 3.5 2.46 3.5s2.42-1.3 2.42-3.47c0-2.38-.88-3.5-2.46-3.5s-2.41 1.13-2.41 3.49z"/><path d="m82.41 216.67c1.08 3.87 2 7.23 2.2 8.6.33-1.87 1.43-5.31 2.42-8.6h3.17l-4 11.39h-3.3l-3.9-11.39z"/><path d="m101.31 225.11a27.1 27.1 0 0 0 .15 2.95h-3a4.33 4.33 0 0 1 -.15-1.12c-.42.64-1.19 1.39-3.22 1.39-2.75 0-3.89-1.81-3.89-3.57 0-2.59 2.07-3.8 5.41-3.8h1.63v-.69c0-.81-.29-1.6-1.76-1.6-1.32 0-1.63.55-1.76 1.38h-3c.15-2 1.4-3.65 4.88-3.65 3 0 4.71 1.21 4.71 3.94zm-3.08-2.24h-1.23c-1.91 0-2.62.59-2.62 1.69a1.47 1.47 0 0 0 1.62 1.52c2 0 2.24-1.41 2.24-2.9z"/><path d="m103.16 216.67h1.76v-3.09h3.14v3.09h2.25v2.33h-2.25v5.63c0 .86.27 1.19 1.21 1.19h.71v2.18a6.86 6.86 0 0 1 -2.11.22c-2.23 0-3-1.19-3-3.19v-6h-1.76z"/><path d="m112.35 214.82v-2.82h3.17v2.82zm0 1.85h3.17v11.39h-3.17z"/><path d="m129.05 222.34c0 3.46-2.07 6-5.68 6s-5.58-2.53-5.58-5.92 2.13-6 5.74-6c3.34-.02 5.52 2.36 5.52 5.92zm-8.07 0c0 2.2.94 3.5 2.46 3.5s2.42-1.3 2.42-3.47c0-2.38-.88-3.5-2.46-3.5s-2.4 1.13-2.4 3.49z"/><path d="m131.34 219.55c0-1 0-2 0-2.88h3.05c.07.3.11 1.09.14 1.45a3.44 3.44 0 0 1 3.3-1.72c2.28 0 3.76 1.56 3.76 4.42v7.24h-3.15v-6.88c0-1.3-.42-2.23-1.82-2.23s-2.09.75-2.09 2.78v6.33h-3.17z"/><path d="m149.91 228.06v-16.06h3.16v16.06z"/><path d="m165.46 225.11a27.1 27.1 0 0 0 .15 2.95h-3a4.33 4.33 0 0 1 -.15-1.12c-.42.64-1.19 1.39-3.22 1.39-2.75 0-3.89-1.81-3.89-3.57 0-2.59 2.07-3.8 5.41-3.8h1.63v-.69c0-.81-.29-1.6-1.76-1.6-1.32 0-1.63.55-1.76 1.38h-3c.15-2 1.41-3.65 4.88-3.65 3 0 4.71 1.21 4.71 3.94zm-3.08-2.24h-1.28c-1.91 0-2.61.59-2.61 1.69a1.47 1.47 0 0 0 1.65 1.52c2 0 2.24-1.41 2.24-2.9z"/><path d="m168.41 212h3.16v5.88a3.57 3.57 0 0 1 3.26-1.48c3.1 0 4.64 2.58 4.64 5.77s-1.67 6.16-4.95 6.16c-1.69 0-2.44-.51-3-1.35a5.51 5.51 0 0 1 -.13 1.08h-3c0-1.23 0-2.48 0-3.72zm5.45 6.93c-1.8 0-2.44 1.17-2.44 3.5 0 1.91.57 3.39 2.4 3.39 1.6 0 2.46-1.43 2.46-3.59 0-1.91-.72-3.3-2.42-3.3z"/><path d="m180.46 230.62a18.59 18.59 0 0 0 1.63-6.43h3.24a12.71 12.71 0 0 1 -2.43 6.43z"/><path d="m4.4 277.56-1.17 3.5h-3.23l5.15-15.16h4.11l5.39 15.16h-3.45l-1.2-3.5zm4.84-2.68c-1.08-3.21-1.76-5.26-2.13-6.62-.37 1.49-1.12 3.87-2 6.62z"/><path d="m32.21 279.68c0 3.65-1.34 6-5.66 6-4.15 0-5-2.31-5.08-3.61h3.21a1.81 1.81 0 0 0 2 1.32c2 0 2.44-1.25 2.44-3.48v-.55a3.36 3.36 0 0 1 -3.21 1.61c-3 0-4.71-2.46-4.71-5.52 0-3.57 2.13-6 5-6 2 0 2.77.93 2.95 1.45 0-.31.11-1 .13-1.18h3v3.27zm-5.39-1.3c1.89 0 2.4-1.3 2.4-3.21s-.33-3.24-2.34-3.24c-1.36 0-2.44 1.06-2.44 3.35 0 1.95.99 3.1 2.38 3.1z"/><path d="m35.11 272.77c0-1.15 0-2.14 0-3.1h3.1a19.85 19.85 0 0 1 .09 2 3.67 3.67 0 0 1 3.65-2.27v3c-2.29-.07-3.65.54-3.65 3.67v5h-3.19z"/><path d="m54.5 275.34c0 3.46-2.07 6-5.68 6s-5.59-2.53-5.59-5.92 2.14-6 5.74-6c3.35-.02 5.53 2.36 5.53 5.92zm-8.08 0c0 2.2.95 3.5 2.47 3.5s2.42-1.3 2.42-3.47c0-2.38-.88-3.5-2.47-3.5s-2.42 1.13-2.42 3.49z"/><path d="m66.79 277.76v3.3h-3.06c0-.31-.06-.92-.08-1.32a3.27 3.27 0 0 1 -3.15 1.59c-2.31 0-3.78-1.41-3.78-4.23v-7.43h3.14v6.79c0 1.26.4 2.29 1.76 2.29s2-.77 2-3v-6.07h3.14z"/><path d="m69.74 285.42v-13c0-.93 0-1.83 0-2.75h3.06a13.94 13.94 0 0 1 .11 1.42 3.58 3.58 0 0 1 3.3-1.69c2.57 0 4.53 2.16 4.53 5.68 0 4-2.2 6.25-5 6.25a3.18 3.18 0 0 1 -2.88-1.28v5.37zm5.43-13.49c-1.78 0-2.42 1.17-2.42 3.46s.6 3.43 2.29 3.43 2.49-1.3 2.49-3.61c0-2.09-.84-3.28-2.36-3.28z"/><path d="m99.05 275.34c0 3.46-2.07 6-5.68 6s-5.59-2.53-5.59-5.92 2.14-6 5.74-6c3.35-.02 5.53 2.36 5.53 5.92zm-8.08 0c0 2.2 1 3.5 2.47 3.5s2.42-1.3 2.42-3.47c0-2.38-.88-3.5-2.47-3.5s-2.39 1.13-2.39 3.49z"/><path d="m101.75 281.06v-9h-1.67v-2.37h1.67v-1c0-2.35 1.17-3.89 3.63-3.89a6.35 6.35 0 0 1 1.45.13v2.49a5.58 5.58 0 0 0 -.66 0c-.92 0-1.27.33-1.27 1.57v.75h2v2.26h-2v9z"/><path d="m114.09 272.61c0-1 0-1.95 0-2.94h3a13.39 13.39 0 0 1 .14 1.36 3.56 3.56 0 0 1 3.17-1.63 3 3 0 0 1 2.92 1.74 4 4 0 0 1 3.52-1.74c2 0 3.61 1.23 3.61 4.18v7.48h-3.08v-7.06c0-1-.37-2.05-1.67-2.05s-1.85.88-1.85 2.62v6.51h-3.1v-7c0-1.17-.29-2.14-1.63-2.14s-1.89.8-1.89 2.75v6.36h-3.13z"/><path d="m135.87 276.05c0 1.43.73 2.81 2.29 2.81a1.81 1.81 0 0 0 2-1.21h3.15a5 5 0 0 1 -5.21 3.68c-3.77 0-5.39-2.8-5.39-5.79 0-3.59 1.82-6.14 5.5-6.14 3.89 0 5.23 2.84 5.23 5.68a7.4 7.4 0 0 1 0 1zm4.4-1.94c0-1.32-.55-2.44-2.09-2.44s-2.11 1-2.24 2.44z"/><path d="m156.14 265v12.94 3.12h-3c-.06-.35-.13-.92-.15-1.19-.55.91-1.54 1.46-3.24 1.46-2.88 0-4.7-2.31-4.7-5.88s1.93-6.05 5.17-6.05c1.65 0 2.53.6 2.77 1.1v-5.5zm-5.44 13.8c2.16 0 2.42-1.81 2.42-3.44 0-1.95-.28-3.43-2.35-3.43-1.65 0-2.49 1.3-2.49 3.46s.86 3.41 2.42 3.41z"/><path d="m159 267.82v-2.82h3.17v2.82zm0 1.85h3.17v11.39h-3.17z"/><path d="m174.59 278.11a24.1 24.1 0 0 0 .16 2.95h-3a4.81 4.81 0 0 1 -.15-1.12c-.42.64-1.19 1.39-3.21 1.39-2.75 0-3.9-1.81-3.9-3.57 0-2.59 2.07-3.8 5.42-3.8h1.62v-.69c0-.81-.28-1.6-1.76-1.6-1.32 0-1.63.55-1.76 1.38h-3c.16-2 1.41-3.65 4.89-3.65 3 0 4.7 1.21 4.7 3.94zm-3.08-2.24h-1.27c-1.92 0-2.62.59-2.62 1.69a1.47 1.47 0 0 0 1.65 1.52c2 0 2.24-1.41 2.24-2.9z"/><path d="m192.44 278.11a24.7 24.7 0 0 0 .15 2.95h-3a4.32 4.32 0 0 1 -.16-1.12c-.42.64-1.19 1.39-3.21 1.39-2.75 0-3.9-1.81-3.9-3.57 0-2.59 2.07-3.8 5.42-3.8h1.63v-.69c0-.81-.29-1.6-1.76-1.6-1.32 0-1.63.55-1.77 1.38h-3c.16-2 1.41-3.65 4.89-3.65 3 0 4.71 1.21 4.71 3.94zm-3.08-2.24h-1.28c-1.91 0-2.62.59-2.62 1.69a1.47 1.47 0 0 0 1.65 1.52c2 0 2.25-1.41 2.25-2.9z"/><path d="m195.38 272.77c0-1.15 0-2.14 0-3.1h3.1a19.85 19.85 0 0 1 .09 2 3.67 3.67 0 0 1 3.65-2.27v3c-2.28-.07-3.65.54-3.65 3.67v5h-3.17z"/><path d="m203.06 269.67h1.76v-3.09h3.18v3.09h2.24v2.33h-2.24v5.63c0 .86.26 1.19 1.21 1.19h.7v2.18a6.83 6.83 0 0 1 -2.11.22c-2.22 0-3-1.19-3-3.19v-6h-1.76z"/><path d="m212.26 267.82v-2.82h3.16v2.82zm0 1.85h3.16v11.39h-3.16z"/><path d="m220.68 277.63a2 2 0 0 0 2.16 1.43c1.16 0 1.58-.42 1.58-1.12s-.48-1-2.11-1.41c-3.72-.92-4.31-2.07-4.31-3.67s1.16-3.46 4.6-3.46 4.64 1.89 4.73 3.43h-3c-.11-.41-.39-1.21-1.87-1.21-1 0-1.38.46-1.38 1s.35.84 2.2 1.28c3.8.88 4.35 2.18 4.35 3.85 0 1.89-1.45 3.61-4.9 3.61s-4.89-1.68-5.15-3.7z"/><path d="m228.71 269.67h1.76v-3.09h3.15v3.09h2.24v2.33h-2.24v5.63c0 .86.26 1.19 1.21 1.19h.7v2.18a6.8 6.8 0 0 1 -2.11.22c-2.22 0-2.95-1.19-2.95-3.19v-6h-1.76z"/><path d="m240.24 277.63a2 2 0 0 0 2.15 1.43c1.17 0 1.59-.42 1.59-1.12s-.48-1-2.11-1.41c-3.72-.92-4.32-2.07-4.32-3.67s1.17-3.46 4.6-3.46 4.65 1.89 4.73 3.43h-3c-.11-.41-.39-1.21-1.87-1.21-1 0-1.39.46-1.39 1s.36.84 2.2 1.28c3.81.88 4.36 2.18 4.36 3.85 0 1.89-1.45 3.61-4.9 3.61s-4.89-1.68-5.15-3.7z"/><path d="m248.09 283.62a18.59 18.59 0 0 0 1.63-6.43h3.28a12.61 12.61 0 0 1 -2.42 6.43z"/><path d="m15.53 326.43c0 4.22-2.53 7.85-7.45 7.85s-7.27-3.45-7.27-7.81 2.75-7.79 7.46-7.79c4.45 0 7.26 3.11 7.26 7.75zm-11.33 0c0 3 1.3 5.21 4 5.21 2.93 0 4-2.44 4-5.15 0-2.88-1.19-5.13-4-5.13s-4 2.1-4 5.05z"/><path d="m18.11 325.77c0-1.15 0-2.14 0-3.1h3.11c0 .26.09 1.38.09 2a3.66 3.66 0 0 1 3.65-2.27v3c-2.29-.07-3.65.54-3.65 3.67v5h-3.2z"/><path d="m34.61 322.67c1 4.57 1.58 7.17 1.8 8.6h.05c.24-1.28.57-3.06 1.95-8.6h2.93c1.28 5.61 1.67 7.26 1.83 8.47.24-1.17.59-2.86 1.91-8.47h3.13l-3.39 11.39h-3.35c-.94-4.31-1.47-6.6-1.74-8.1-.17 1.44-.79 4-1.8 8.1h-3.41l-3.24-11.39z"/><path d="m53.29 318v6a3.57 3.57 0 0 1 3.25-1.63c2.11 0 3.81 1.28 3.81 4.36v7.3h-3.13v-6.84c0-1.47-.52-2.27-1.84-2.27-1.77 0-2.09 1.32-2.09 3.06v6.05h-3.17v-16.03z"/><path d="m72.75 331.11a24.1 24.1 0 0 0 .16 2.95h-3a4.81 4.81 0 0 1 -.15-1.12c-.42.64-1.19 1.39-3.21 1.39-2.75 0-3.9-1.81-3.9-3.57 0-2.59 2.07-3.8 5.42-3.8h1.62v-.69c0-.81-.28-1.6-1.75-1.6s-1.63.55-1.77 1.38h-3c.16-2 1.41-3.65 4.89-3.65 3 0 4.7 1.21 4.7 3.94zm-3.08-2.24h-1.27c-1.92 0-2.62.59-2.62 1.69a1.47 1.47 0 0 0 1.65 1.52c2 0 2.24-1.41 2.24-2.9z"/><path d="m74.6 322.67h1.76v-3.09h3.15v3.09h2.24v2.33h-2.24v5.63c0 .86.26 1.19 1.21 1.19h.7v2.18a6.8 6.8 0 0 1 -2.11.22c-2.22 0-3-1.19-3-3.19v-6h-1.71z"/><path d="m86.31 329.05c0 1.43.72 2.81 2.28 2.81a1.83 1.83 0 0 0 2-1.21h3.14a5 5 0 0 1 -5.21 3.68c-3.77 0-5.39-2.8-5.39-5.79 0-3.59 1.82-6.14 5.5-6.14 3.89 0 5.23 2.84 5.23 5.68a7.4 7.4 0 0 1 0 1zm4.4-1.94c0-1.32-.55-2.44-2.09-2.44s-2.12 1-2.25 2.44z"/><path d="m98.25 322.67c1.08 3.87 2 7.23 2.2 8.6.33-1.87 1.43-5.31 2.42-8.6h3.13l-4 11.39h-3.3l-3.87-11.39z"/><path d="m110.2 329.05c0 1.43.72 2.81 2.29 2.81a1.82 1.82 0 0 0 2-1.21h3.14a5 5 0 0 1 -5.21 3.68c-3.76 0-5.39-2.8-5.39-5.79 0-3.59 1.83-6.14 5.5-6.14 3.89 0 5.24 2.84 5.24 5.68a5.93 5.93 0 0 1 0 1zm4.4-1.94c0-1.32-.55-2.44-2.09-2.44s-2.11 1-2.25 2.44z"/><path d="m120 325.77c0-1.15 0-2.14 0-3.1h3.1c0 .26.09 1.38.09 2a3.66 3.66 0 0 1 3.65-2.27v3c-2.29-.07-3.65.54-3.65 3.67v5h-3.19z"/><path d="m136.73 329.05c0 1.43.73 2.81 2.29 2.81a1.82 1.82 0 0 0 2-1.21h3.15a5 5 0 0 1 -5.22 3.68c-3.76 0-5.39-2.8-5.39-5.79 0-3.59 1.83-6.14 5.5-6.14 3.9 0 5.24 2.84 5.24 5.68a5.93 5.93 0 0 1 -.05 1zm4.4-1.94c0-1.32-.55-2.44-2.09-2.44s-2.11 1-2.24 2.44z"/><path d="m146.54 334.06v-16.06h3.17v16.06z"/><path d="m155 330.63a2 2 0 0 0 2.15 1.43c1.17 0 1.59-.42 1.59-1.12s-.49-1-2.11-1.41c-3.72-.92-4.32-2.07-4.32-3.67s1.17-3.46 4.6-3.46 4.64 1.89 4.73 3.43h-3c-.11-.41-.4-1.21-1.87-1.21-1 0-1.39.46-1.39 1s.35.84 2.2 1.28c3.81.88 4.36 2.18 4.36 3.85 0 1.89-1.45 3.61-4.91 3.61s-4.88-1.68-5.15-3.7z"/><path d="m166.61 329.05c0 1.43.72 2.81 2.28 2.81a1.83 1.83 0 0 0 2-1.21h3.11a5 5 0 0 1 -5.21 3.68c-3.77 0-5.39-2.8-5.39-5.79 0-3.59 1.82-6.14 5.5-6.14 3.89 0 5.23 2.84 5.23 5.68a7.4 7.4 0 0 1 0 1zm4.4-1.94c0-1.32-.55-2.44-2.09-2.44s-2.12 1-2.25 2.44z"/><path d="m183.94 322.67c1.17 3.93 2.2 7.43 2.38 8.49.24-1.15.92-3.7 2.27-8.49h3.14l-3.83 11.72c-1.07 3.28-2 4.25-4.73 4.25a13.29 13.29 0 0 1 -1.47-.09v-2.55h.81a2 2 0 0 0 2.18-1.65l-4.16-11.74z"/><path d="m204 328.34c0 3.46-2.06 6-5.67 6s-5.59-2.53-5.59-5.92 2.13-6 5.74-6c3.33-.02 5.52 2.36 5.52 5.92zm-8.07 0c0 2.2 1 3.5 2.46 3.5s2.42-1.3 2.42-3.47c0-2.38-.88-3.5-2.46-3.5s-2.44 1.13-2.44 3.49z"/><path d="m216.28 330.76v3.3h-3.08c0-.31-.06-.92-.09-1.32a3.24 3.24 0 0 1 -3.14 1.59c-2.31 0-3.79-1.41-3.79-4.23v-7.43h3.15v6.79c0 1.26.4 2.29 1.76 2.29s2-.77 2-3v-6.07h3.15z"/><path d="m227 322.67c1 4.57 1.59 7.17 1.8 8.6h.05c.24-1.28.57-3.06 2-8.6h2.92c1.28 5.61 1.68 7.26 1.83 8.47.24-1.17.6-2.86 1.92-8.47h3.12l-3.39 11.39h-3.36c-.95-4.31-1.48-6.6-1.74-8.1-.17 1.44-.79 4-1.8 8.1h-3.39l-3.23-11.39z"/><path d="m251.92 331.11a24.1 24.1 0 0 0 .16 2.95h-3a4.33 4.33 0 0 1 -.15-1.12c-.42.64-1.19 1.39-3.22 1.39-2.75 0-3.89-1.81-3.89-3.57 0-2.59 2.07-3.8 5.41-3.8h1.63v-.69c0-.81-.29-1.6-1.76-1.6s-1.63.55-1.76 1.38h-3c.15-2 1.41-3.65 4.88-3.65 3 0 4.71 1.21 4.71 3.94zm-3.08-2.24h-1.28c-1.91 0-2.61.59-2.61 1.69a1.47 1.47 0 0 0 1.65 1.52c2 0 2.24-1.41 2.24-2.9z"/><path d="m254.89 325.55c0-1 0-2 0-2.88h3.06c.06.3.11 1.09.13 1.45a3.45 3.45 0 0 1 3.3-1.72c2.29 0 3.76 1.56 3.76 4.42v7.24h-3.14v-6.88c0-1.3-.42-2.23-1.83-2.23s-2.09.75-2.09 2.78v6.33h-3.17z"/><path d="m266.92 322.67h1.76v-3.09h3.15v3.09h2.24v2.33h-2.24v5.63c0 .86.26 1.19 1.21 1.19h.7v2.18a6.8 6.8 0 0 1 -2.11.22c-2.22 0-2.95-1.19-2.95-3.19v-6h-1.76z"/><path d="m280.45 322.67h1.76v-3.09h3.15v3.09h2.24v2.33h-2.24v5.63c0 .86.26 1.19 1.21 1.19h.7v2.18a6.8 6.8 0 0 1 -2.11.22c-2.22 0-3-1.19-3-3.19v-6h-1.76z"/><path d="m300.25 328.34c0 3.46-2.06 6-5.67 6s-5.58-2.54-5.58-5.93 2.13-6 5.74-6c3.34-.01 5.51 2.37 5.51 5.93zm-8.07 0c0 2.2.94 3.5 2.46 3.5s2.42-1.3 2.42-3.47c0-2.38-.88-3.5-2.46-3.5s-2.42 1.13-2.42 3.49z"/><path d="m317.81 330.39c-.37 1.89-1.72 3.94-5.1 3.94-3.55 0-5.37-2.45-5.37-5.88s2-6.05 5.52-6.05c3.83 0 4.91 2.77 4.95 4.05h-3.06a1.78 1.78 0 0 0 -2-1.56c-1.45 0-2.26 1.25-2.26 3.45 0 2.44.88 3.54 2.24 3.54a1.94 1.94 0 0 0 2-1.49z"/><path d="m329.38 331.11a24.1 24.1 0 0 0 .16 2.95h-3a4.33 4.33 0 0 1 -.15-1.12c-.42.64-1.19 1.39-3.22 1.39-2.75 0-3.89-1.81-3.89-3.57 0-2.59 2.07-3.8 5.41-3.8h1.63v-.69c0-.81-.29-1.6-1.76-1.6s-1.63.55-1.76 1.38h-3c.15-2 1.41-3.65 4.88-3.65 3 0 4.71 1.21 4.71 3.94zm-3.08-2.24h-1.3c-1.91 0-2.61.59-2.61 1.69a1.47 1.47 0 0 0 1.65 1.52c2 0 2.24-1.41 2.24-2.9z"/><path d="m332.33 334.06v-16.06h3.17v16.06z"/><path d="m338.42 334.06v-16.06h3.17v16.06z"/><path d="m360 330.76v3.3h-3.08c0-.31-.06-.92-.08-1.32a3.27 3.27 0 0 1 -3.15 1.59c-2.31 0-3.78-1.41-3.78-4.23v-7.43h3.14v6.79c0 1.26.4 2.29 1.76 2.29s2-.77 2-3v-6.07h3.19z"/><path d="m365.26 330.63a2 2 0 0 0 2.16 1.43c1.16 0 1.58-.42 1.58-1.12s-.48-1-2.11-1.41c-3.72-.92-4.31-2.07-4.31-3.67s1.16-3.46 4.6-3.46 4.64 1.89 4.73 3.43h-3c-.11-.41-.39-1.21-1.87-1.21-1 0-1.38.46-1.38 1s.35.84 2.2 1.28c3.8.88 4.35 2.18 4.35 3.85 0 1.89-1.45 3.61-4.9 3.61s-4.89-1.68-5.15-3.7z"/><path d="m374.06 334.06v-3.87h3.37v3.87z"/><path d="m4 440.06-3.87-15.16h3.5c1.43 7 2.07 10.06 2.25 11.73.57-2.79 2-8.08 2.92-11.73h2.95c.79 2.91 2.31 8.78 2.82 11.58.51-3.35 2-9.22 2.53-11.58h3.17l-4.09 15.16h-3.37c-.8-3.36-2.14-8.27-2.67-10.87-.55 2.71-1.91 7.81-2.73 10.87z"/><path d="m25.37 424v6a3.58 3.58 0 0 1 3.25-1.63c2.12 0 3.81 1.28 3.81 4.36v7.3h-3.12v-6.84c0-1.47-.53-2.27-1.85-2.27-1.76 0-2.09 1.32-2.09 3.06v6.05h-3.17v-16.03z"/><path d="m44.84 437.11a27.1 27.1 0 0 0 .15 2.95h-2.99a4.32 4.32 0 0 1 -.16-1.12c-.41.64-1.19 1.39-3.21 1.39-2.75 0-3.89-1.81-3.89-3.57 0-2.59 2.06-3.8 5.41-3.8h1.63v-.69c0-.81-.29-1.6-1.76-1.6s-1.63.55-1.76 1.38h-3c.16-2 1.41-3.65 4.89-3.65 3 0 4.71 1.21 4.71 3.94zm-3.08-2.24h-1.28c-1.91 0-2.62.59-2.62 1.69a1.47 1.47 0 0 0 1.65 1.52c2 0 2.25-1.41 2.25-2.9z"/><path d="m46.68 428.67h1.76v-3.09h3.15v3.09h2.24v2.33h-2.24v5.63c0 .86.26 1.19 1.21 1.19h.7v2.18a6.8 6.8 0 0 1 -2.11.22c-2.22 0-3-1.19-3-3.19v-6h-1.71z"/><path d="m61.31 431.61c0-1 0-1.95 0-2.94h3c0 .28.11.92.13 1.36a3.56 3.56 0 0 1 3.17-1.63 3 3 0 0 1 2.92 1.74 4 4 0 0 1 3.52-1.74c2 0 3.61 1.23 3.61 4.18v7.48h-3.08v-7.06c0-1-.37-2.05-1.67-2.05s-1.85.88-1.85 2.62v6.51h-3.06v-7c0-1.17-.29-2.14-1.63-2.14s-1.89.8-1.89 2.75v6.36h-3.17z"/><path d="m90.05 437.11a27.1 27.1 0 0 0 .15 2.95h-3a4.32 4.32 0 0 1 -.16-1.12c-.41.64-1.19 1.39-3.21 1.39-2.75 0-3.89-1.81-3.89-3.57 0-2.59 2.06-3.8 5.41-3.8h1.65v-.69c0-.81-.29-1.6-1.76-1.6-1.32 0-1.63.55-1.76 1.38h-3c.16-2 1.41-3.65 4.89-3.65 3 0 4.71 1.21 4.71 3.94zm-3.05-2.24h-1.31c-1.91 0-2.62.59-2.62 1.69a1.47 1.47 0 0 0 1.65 1.52c2 0 2.25-1.41 2.25-2.9z"/><path d="m91.89 428.67h1.76v-3.09h3.15v3.09h2.2v2.33h-2.2v5.63c0 .86.26 1.19 1.21 1.19h.7v2.18a6.8 6.8 0 0 1 -2.11.22c-2.22 0-2.95-1.19-2.95-3.19v-6h-1.76z"/><path d="m100 428.67h1.76v-3.09h3.15v3.09h2.24v2.33h-2.25v5.63c0 .86.26 1.19 1.21 1.19h.7v2.18a6.83 6.83 0 0 1 -2.11.22c-2.23 0-3-1.19-3-3.19v-6h-1.7z"/><path d="m111.69 435.05c0 1.43.73 2.81 2.29 2.81a1.81 1.81 0 0 0 2-1.21h3.15a5 5 0 0 1 -5.21 3.68c-3.77 0-5.4-2.8-5.4-5.79 0-3.59 1.83-6.14 5.51-6.14 3.89 0 5.23 2.84 5.23 5.68a7.4 7.4 0 0 1 0 1zm4.4-1.94c0-1.32-.55-2.44-2.09-2.44s-2.11 1-2.24 2.44z"/><path d="m121.5 431.77c0-1.15 0-2.14 0-3.1h3.1a19.85 19.85 0 0 1 .09 2 3.68 3.68 0 0 1 3.66-2.27v3c-2.29-.07-3.66.54-3.66 3.67v5h-3.19z"/><path d="m132.61 436.63a2 2 0 0 0 2.16 1.43c1.17 0 1.59-.42 1.59-1.12s-.49-1-2.12-1.41c-3.72-.92-4.31-2.07-4.31-3.67s1.17-3.46 4.6-3.46 4.64 1.89 4.73 3.43h-3c-.11-.41-.4-1.21-1.87-1.21-1 0-1.39.46-1.39 1s.35.84 2.2 1.28c3.81.88 4.36 2.18 4.36 3.85 0 1.89-1.45 3.61-4.91 3.61s-4.88-1.68-5.15-3.7z"/><path d="m147.18 426.82v-2.82h3.17v2.82zm0 1.85h3.17v11.39h-3.17z"/><path d="m155.6 436.63a2 2 0 0 0 2.16 1.43c1.17 0 1.58-.42 1.58-1.12s-.48-1-2.11-1.41c-3.72-.92-4.31-2.07-4.31-3.67s1.17-3.46 4.6-3.46 4.64 1.89 4.73 3.43h-3c-.11-.41-.4-1.21-1.87-1.21-1 0-1.39.46-1.39 1s.35.84 2.2 1.28c3.81.88 4.36 2.18 4.36 3.85 0 1.89-1.46 3.61-4.91 3.61s-4.88-1.68-5.15-3.7z"/><path d="m169.07 428.67h1.76v-3.09h3.17v3.09h2.25v2.33h-2.25v5.63c0 .86.27 1.19 1.21 1.19h.71v2.18a6.86 6.86 0 0 1 -2.11.22c-2.23 0-2.95-1.19-2.95-3.19v-6h-1.76z"/><path d="m181.87 424v6a3.59 3.59 0 0 1 3.26-1.63c2.11 0 3.8 1.28 3.8 4.36v7.3h-3.12v-6.84c0-1.47-.53-2.27-1.85-2.27-1.76 0-2.09 1.32-2.09 3.06v6.05h-3.17v-16.03z"/><path d="m194.39 435.05c0 1.43.73 2.81 2.29 2.81a1.82 1.82 0 0 0 2-1.21h3.15a5 5 0 0 1 -5.22 3.68c-3.76 0-5.39-2.8-5.39-5.79 0-3.59 1.83-6.14 5.5-6.14 3.9 0 5.24 2.84 5.24 5.68a5.93 5.93 0 0 1 -.05 1zm4.4-1.94c0-1.32-.55-2.44-2.09-2.44s-2.11 1-2.24 2.44z"/><path d="m210.08 440.06v-9h-1.68v-2.37h1.68v-1c0-2.35 1.16-3.89 3.63-3.89a6.47 6.47 0 0 1 1.45.13v2.49a6 6 0 0 0 -.66 0c-.93 0-1.28.33-1.28 1.57v.75h2v2.26h-2v9z"/><path d="m226.88 437.11a24.1 24.1 0 0 0 .16 2.95h-3a4.81 4.81 0 0 1 -.15-1.12c-.42.64-1.19 1.39-3.21 1.39-2.75 0-3.9-1.81-3.9-3.57 0-2.59 2.07-3.8 5.42-3.8h1.62v-.69c0-.81-.28-1.6-1.76-1.6-1.32 0-1.62.55-1.76 1.38h-3c.16-2 1.41-3.65 4.89-3.65 3 0 4.7 1.21 4.7 3.94zm-3.08-2.24h-1.27c-1.92 0-2.62.59-2.62 1.69a1.47 1.47 0 0 0 1.65 1.52c2 0 2.24-1.41 2.24-2.9z"/><path d="m239.69 436.39c-.38 1.89-1.72 3.94-5.11 3.94-3.54 0-5.37-2.45-5.37-5.88s2-6.05 5.53-6.05c3.83 0 4.9 2.77 4.95 4.05h-3.06a1.79 1.79 0 0 0 -2-1.56c-1.45 0-2.26 1.25-2.26 3.45 0 2.44.88 3.54 2.24 3.54a1.94 1.94 0 0 0 2-1.49z"/><path d="m240.7 428.67h1.76v-3.09h3.15v3.09h2.24v2.33h-2.24v5.63c0 .86.26 1.19 1.21 1.19h.7v2.18a6.83 6.83 0 0 1 -2.11.22c-2.23 0-2.95-1.19-2.95-3.19v-6h-1.76z"/><path d="m254.23 428.67h1.77v-3.09h3.14v3.09h2.25v2.33h-2.25v5.63c0 .86.27 1.19 1.21 1.19h.71v2.18a6.83 6.83 0 0 1 -2.11.22c-2.23 0-2.95-1.19-2.95-3.19v-6h-1.76z"/><path d="m266.59 424v6a3.6 3.6 0 0 1 3.26-1.63c2.11 0 3.81 1.28 3.81 4.36v7.3h-3.13v-6.84c0-1.47-.53-2.27-1.85-2.27-1.76 0-2.09 1.32-2.09 3.06v6.05h-3.17v-16.03z"/><path d="m286.06 437.11a24.1 24.1 0 0 0 .16 2.95h-3a4.33 4.33 0 0 1 -.15-1.12c-.42.64-1.19 1.39-3.21 1.39-2.75 0-3.9-1.81-3.9-3.57 0-2.59 2.07-3.8 5.41-3.8h1.63v-.69c0-.81-.28-1.6-1.76-1.6-1.32 0-1.63.55-1.76 1.38h-3c.15-2 1.41-3.65 4.88-3.65 3 0 4.71 1.21 4.71 3.94zm-3.06-2.24h-1.27c-1.92 0-2.62.59-2.62 1.69a1.47 1.47 0 0 0 1.65 1.52c2 0 2.24-1.41 2.24-2.9z"/><path d="m287.91 428.67h1.76v-3.09h3.15v3.09h2.24v2.33h-2.24v5.63c0 .86.26 1.19 1.21 1.19h.7v2.18a6.83 6.83 0 0 1 -2.11.22c-2.22 0-2.95-1.19-2.95-3.19v-6h-1.76z"/><path d="m305.38 440.06-3.88-15.16h3.5c1.43 7 2.07 10.06 2.25 11.73.57-2.79 2.05-8.08 2.93-11.73h2.94c.8 2.91 2.32 8.78 2.82 11.58.51-3.35 2-9.22 2.53-11.58h3.17l-4.09 15.16h-3.41c-.79-3.36-2.14-8.27-2.66-10.87-.55 2.71-1.91 7.81-2.72 10.87z"/><path d="m326.74 424v6a3.59 3.59 0 0 1 3.26-1.6c2.11 0 3.8 1.28 3.8 4.36v7.3h-3.12v-6.84c0-1.47-.53-2.27-1.85-2.27-1.76 0-2.09 1.32-2.09 3.06v6.05h-3.17v-16.06z"/><path d="m346.21 437.11a24.1 24.1 0 0 0 .16 2.95h-3a4.33 4.33 0 0 1 -.15-1.12c-.42.64-1.19 1.39-3.22 1.39-2.75 0-3.89-1.81-3.89-3.57 0-2.59 2.07-3.8 5.41-3.8h1.63v-.69c0-.81-.29-1.6-1.76-1.6s-1.63.55-1.76 1.38h-3c.15-2 1.41-3.65 4.88-3.65 3 0 4.71 1.21 4.71 3.94zm-3.08-2.24h-1.28c-1.91 0-2.61.59-2.61 1.69a1.47 1.47 0 0 0 1.65 1.52c2 0 2.24-1.41 2.24-2.9z"/><path d="m348.06 428.67h1.76v-3.09h3.18v3.09h2.25v2.33h-2.25v5.63c0 .86.27 1.19 1.21 1.19h.71v2.18a6.86 6.86 0 0 1 -2.11.22c-2.23 0-2.95-1.19-2.95-3.19v-6h-1.76z"/><path d="m359.76 435.05c0 1.43.73 2.81 2.29 2.81a1.82 1.82 0 0 0 2-1.21h3.15a5 5 0 0 1 -5.22 3.68c-3.76 0-5.39-2.8-5.39-5.79 0-3.59 1.83-6.14 5.5-6.14 3.9 0 5.24 2.84 5.24 5.68a7.4 7.4 0 0 1 0 1zm4.4-1.94c0-1.32-.55-2.44-2.09-2.44s-2.11 1-2.24 2.44z"/><path d="m371.71 428.67c1.08 3.87 2 7.23 2.2 8.6.33-1.87 1.43-5.31 2.42-8.6h3.15l-4 11.39h-3.3l-3.87-11.39z"/><path d="m383.65 435.05c0 1.43.73 2.81 2.29 2.81a1.81 1.81 0 0 0 2-1.21h3.15a5 5 0 0 1 -5.21 3.68c-3.77 0-5.4-2.8-5.4-5.79 0-3.59 1.83-6.14 5.51-6.14 3.89 0 5.23 2.84 5.23 5.68a7.4 7.4 0 0 1 0 1zm4.4-1.94c0-1.32-.55-2.44-2.09-2.44s-2.11 1-2.24 2.44z"/><path d="m393.47 431.77c0-1.15 0-2.14 0-3.1h3.11c0 .26.08 1.38.08 2a3.68 3.68 0 0 1 3.66-2.27v3c-2.29-.07-3.66.54-3.66 3.67v5h-3.16z"/><path d="m410 428.67c1 4.57 1.58 7.17 1.8 8.6.25-1.28.58-3.06 2-8.6h2.93c1.28 5.61 1.67 7.26 1.82 8.47.24-1.17.59-2.86 1.91-8.47h3.13l-3.39 11.39h-3.37c-.95-4.31-1.47-6.6-1.74-8.1-.18 1.44-.79 4-1.8 8.1h-3.39l-3.24-11.39z"/><path d="m428 435.05c0 1.43.73 2.81 2.29 2.81a1.81 1.81 0 0 0 2-1.21h3.15a5 5 0 0 1 -5.21 3.68c-3.77 0-5.4-2.8-5.4-5.79 0-3.59 1.83-6.14 5.51-6.14 3.89 0 5.23 2.84 5.23 5.68a7.4 7.4 0 0 1 0 1zm4.4-1.94c0-1.32-.55-2.44-2.09-2.44s-2.11 1-2.24 2.44z"/><path d="m453.09 436.39c-.38 1.89-1.72 3.94-5.11 3.94-3.54 0-5.37-2.45-5.37-5.88s2.05-6.05 5.53-6.05c3.82 0 4.9 2.77 4.95 4.05h-3.09a1.79 1.79 0 0 0 -2-1.56c-1.45 0-2.27 1.25-2.27 3.45 0 2.44.88 3.54 2.25 3.54a1.94 1.94 0 0 0 2-1.49z"/><path d="m464.66 437.11a27.1 27.1 0 0 0 .15 2.95h-3a4.32 4.32 0 0 1 -.16-1.12c-.41.64-1.18 1.39-3.21 1.39-2.75 0-3.89-1.81-3.89-3.57 0-2.59 2.06-3.8 5.41-3.8h1.63v-.69c0-.81-.29-1.6-1.76-1.6-1.32 0-1.63.55-1.76 1.38h-3c.16-2 1.41-3.65 4.89-3.65 3 0 4.71 1.21 4.71 3.94zm-3.08-2.24h-1.28c-1.91 0-2.62.59-2.62 1.69a1.47 1.47 0 0 0 1.65 1.52c2 0 2.25-1.41 2.25-2.9z"/><path d="m467.63 431.55c0-1 0-2 0-2.88h3.06a12.81 12.81 0 0 1 .13 1.45 3.47 3.47 0 0 1 3.31-1.72c2.28 0 3.76 1.56 3.76 4.42v7.24h-3.15v-6.88c0-1.3-.42-2.23-1.82-2.23s-2.1.75-2.1 2.78v6.33h-3.16z"/><path d="m486.19 426.82v-2.82h3.17v2.82zm0 1.85h3.17v11.39h-3.17z"/><path d="m492.29 431.61c0-1 0-1.95 0-2.94h3c0 .28.11.92.13 1.36a3.58 3.58 0 0 1 3.17-1.63 3 3 0 0 1 2.93 1.74 4 4 0 0 1 3.48-1.74c2 0 3.61 1.23 3.61 4.18v7.48h-3.08v-7.06c0-1-.38-2.05-1.68-2.05s-1.85.88-1.85 2.62v6.51h-3.1v-7c0-1.17-.28-2.14-1.63-2.14s-1.89.8-1.89 2.75v6.36h-3.12z"/><path d="m521 437.11a24.1 24.1 0 0 0 .16 2.95h-3a4.33 4.33 0 0 1 -.15-1.12c-.42.64-1.19 1.39-3.22 1.39-2.75 0-3.89-1.81-3.89-3.57 0-2.59 2.07-3.8 5.41-3.8h1.63v-.69c0-.81-.29-1.6-1.76-1.6-1.32 0-1.63.55-1.76 1.38h-3c.15-2 1.41-3.65 4.88-3.65 3 0 4.71 1.21 4.71 3.94zm-3.08-2.24h-1.28c-1.91 0-2.61.59-2.61 1.69a1.47 1.47 0 0 0 1.65 1.52c2 0 2.24-1.41 2.24-2.9z"/><path d="m534.33 438.68c0 3.65-1.34 6-5.65 6-4.16 0-5-2.31-5.09-3.61h3.22a1.8 1.8 0 0 0 2 1.32c2 0 2.44-1.25 2.44-3.48v-.55a3.36 3.36 0 0 1 -3.21 1.61c-3 0-4.71-2.46-4.71-5.52 0-3.57 2.13-6 5-6 2 0 2.77.93 3 1.45 0-.31.11-1 .13-1.18h3v3.27zm-5.39-1.3c1.89 0 2.4-1.3 2.4-3.21s-.33-3.24-2.33-3.24c-1.37 0-2.45 1.06-2.45 3.35 0 1.95.99 3.1 2.38 3.1z"/><path d="m537.23 426.82v-2.82h3.17v2.82zm0 1.85h3.17v11.39h-3.17z"/><path d="m543.35 431.55c0-1 0-2 0-2.88h3.06c.06.3.11 1.09.13 1.45a3.45 3.45 0 0 1 3.3-1.72c2.29 0 3.76 1.56 3.76 4.42v7.24h-3.14v-6.88c0-1.3-.42-2.23-1.83-2.23s-2.09.75-2.09 2.78v6.33h-3.17z"/><path d="m559 435.05c0 1.43.73 2.81 2.29 2.81a1.82 1.82 0 0 0 2-1.21h3.15a5 5 0 0 1 -5.22 3.68c-3.76 0-5.39-2.8-5.39-5.79 0-3.59 1.83-6.14 5.5-6.14 3.9 0 5.24 2.84 5.24 5.68a7.4 7.4 0 0 1 0 1zm4.4-1.94c0-1.32-.55-2.44-2.09-2.44s-2.11 1-2.24 2.44z"/><path d="m567.53 442.62a18.75 18.75 0 0 0 1.62-6.43h3.24a12.7 12.7 0 0 1 -2.42 6.43z"/><path d="m582.6 428.67c1 4.57 1.58 7.17 1.8 8.6h.05c.24-1.28.57-3.06 1.95-8.6h2.93c1.28 5.61 1.67 7.26 1.83 8.47.24-1.17.59-2.86 1.91-8.47h3.13l-3.39 11.39h-3.37c-.94-4.31-1.47-6.6-1.74-8.1-.17 1.44-.79 4-1.8 8.1h-3.39l-3.24-11.39z"/><path d="m600.62 435.05c0 1.43.72 2.81 2.28 2.81a1.83 1.83 0 0 0 2-1.21h3.14a5 5 0 0 1 -5.21 3.68c-3.77 0-5.39-2.8-5.39-5.79 0-3.59 1.82-6.14 5.5-6.14 3.89 0 5.23 2.84 5.23 5.68a7.4 7.4 0 0 1 0 1zm4.4-1.94c0-1.32-.55-2.44-2.09-2.44s-2.12 1-2.25 2.44z"/><path d="m625.72 436.39c-.38 1.89-1.72 3.94-5.11 3.94s-5.37-2.45-5.37-5.88 2-6.05 5.53-6.05c3.83 0 4.9 2.77 5 4.05h-3.06a1.79 1.79 0 0 0 -2-1.56c-1.45 0-2.26 1.25-2.26 3.45 0 2.44.87 3.54 2.24 3.54a1.94 1.94 0 0 0 2-1.49z"/><path d="m637.29 437.11a27.1 27.1 0 0 0 .15 2.95h-3a4.33 4.33 0 0 1 -.15-1.12c-.42.64-1.19 1.39-3.22 1.39-2.75 0-3.89-1.81-3.89-3.57 0-2.59 2.07-3.8 5.41-3.8h1.63v-.69c0-.81-.29-1.6-1.76-1.6s-1.63.55-1.76 1.38h-3c.15-2 1.4-3.65 4.88-3.65 3 0 4.71 1.21 4.71 3.94zm-3.08-2.24h-1.28c-1.91 0-2.62.59-2.62 1.69a1.47 1.47 0 0 0 1.66 1.52c2 0 2.24-1.41 2.24-2.9z"/><path d="m640.26 431.55c0-1 0-2 0-2.88h3.06c.06.3.1 1.09.13 1.45a3.45 3.45 0 0 1 3.3-1.72c2.29 0 3.76 1.56 3.76 4.42v7.24h-3.15v-6.88c0-1.3-.41-2.23-1.82-2.23s-2.09.75-2.09 2.78v6.33h-3.17z"/><path d="m658.83 431.61c0-1 0-1.95 0-2.94h3c0 .28.11.92.13 1.36a3.58 3.58 0 0 1 3.17-1.63 3 3 0 0 1 2.93 1.74 4 4 0 0 1 3.52-1.74c2 0 3.61 1.23 3.61 4.18v7.48h-3.09v-7.06c0-1-.37-2.05-1.67-2.05s-1.85.88-1.85 2.62v6.51h-3.1v-7c0-1.17-.28-2.14-1.63-2.14s-1.89.8-1.89 2.75v6.36h-3.12z"/><path d="m687.56 437.11a27.1 27.1 0 0 0 .15 2.95h-3a4.33 4.33 0 0 1 -.15-1.12c-.42.64-1.19 1.39-3.22 1.39-2.75 0-3.89-1.81-3.89-3.57 0-2.59 2.07-3.8 5.41-3.8h1.63v-.69c0-.81-.29-1.6-1.76-1.6s-1.63.55-1.76 1.38h-3c.15-2 1.4-3.65 4.88-3.65 3 0 4.71 1.21 4.71 3.94zm-3.08-2.24h-1.28c-1.91 0-2.62.59-2.62 1.69a1.47 1.47 0 0 0 1.65 1.52c2 0 2.25-1.41 2.25-2.9z"/><path d="m693.67 433.48c.84-1.14 2.34-2.9 3.92-4.81h3.61l-4 4.31 4.33 7.08h-3.53l-2.87-5.06-1.46 1.41v3.65h-3.16v-16.06h3.16z"/><path d="m705.38 435.05c0 1.43.72 2.81 2.29 2.81a1.82 1.82 0 0 0 2-1.21h3.15a5 5 0 0 1 -5.22 3.68c-3.76 0-5.39-2.8-5.39-5.79 0-3.59 1.83-6.14 5.5-6.14 3.9 0 5.24 2.84 5.24 5.68a5.93 5.93 0 0 1 -.05 1zm4.4-1.94c0-1.32-.55-2.44-2.09-2.44s-2.11 1-2.25 2.44z"/><path d="m714.86 440.06v-3.87h3.37v3.87z"/><path d="m4 493.85-3.87-15.16h3.5c1.43 7 2.07 10.06 2.25 11.73.57-2.79 2-8.07 2.92-11.73h2.95c.79 2.91 2.31 8.78 2.82 11.58.51-3.35 2-9.22 2.53-11.58h3.17l-4.09 15.16h-3.37c-.8-3.36-2.14-8.27-2.67-10.86-.55 2.7-1.91 7.81-2.73 10.86z"/><path d="m25.37 477.79v6a3.58 3.58 0 0 1 3.25-1.63c2.12 0 3.81 1.28 3.81 4.36v7.3h-3.12v-6.82c0-1.47-.53-2.26-1.85-2.26-1.76 0-2.09 1.32-2.09 3.05v6.05h-3.17v-16.05z"/><path d="m44.84 490.91a26.87 26.87 0 0 0 .15 2.94h-2.99a4.32 4.32 0 0 1 -.16-1.12c-.41.64-1.19 1.39-3.21 1.39-2.75 0-3.89-1.81-3.89-3.57 0-2.59 2.06-3.8 5.41-3.8h1.63v-.68c0-.82-.29-1.61-1.76-1.61s-1.63.55-1.76 1.39h-3c.16-2 1.41-3.66 4.89-3.66 3 0 4.71 1.21 4.71 3.94zm-3.08-2.25h-1.28c-1.91 0-2.62.6-2.62 1.7a1.47 1.47 0 0 0 1.65 1.51c2 0 2.25-1.4 2.25-2.9z"/><path d="m46.68 482.46h1.76v-3.08h3.15v3.08h2.24v2.37h-2.24v5.64c0 .85.26 1.18 1.21 1.18h.7v2.16a6.8 6.8 0 0 1 -2.11.22c-2.22 0-3-1.19-3-3.19v-6h-1.71z"/><path d="m58.39 488.84c0 1.43.72 2.81 2.29 2.81a1.81 1.81 0 0 0 2-1.21h3.15a5 5 0 0 1 -5.22 3.68c-3.76 0-5.39-2.8-5.39-5.79 0-3.58 1.83-6.14 5.5-6.14 3.9 0 5.24 2.84 5.24 5.68a5.87 5.87 0 0 1 0 1zm4.4-1.94c0-1.32-.55-2.44-2.09-2.44s-2.11 1-2.25 2.44z"/><path d="m70.33 482.46c1.08 3.87 2 7.24 2.2 8.6.33-1.87 1.43-5.3 2.42-8.6h3.14l-4 11.39h-3.29l-3.88-11.39z"/><path d="m82.28 488.84c0 1.43.73 2.81 2.29 2.81a1.81 1.81 0 0 0 2-1.21h3.15a5 5 0 0 1 -5.22 3.68c-3.76 0-5.39-2.8-5.39-5.79 0-3.58 1.83-6.14 5.5-6.14 3.9 0 5.24 2.84 5.24 5.68a5.87 5.87 0 0 1 0 1zm4.4-1.94c0-1.32-.55-2.44-2.09-2.44s-2.11 1-2.24 2.44z"/><path d="m92.09 485.56c0-1.14 0-2.14 0-3.1h3.1c0 .26.09 1.38.09 2a3.67 3.67 0 0 1 3.65-2.27v3c-2.29-.07-3.65.55-3.65 3.67v5h-3.19z"/><path d="m106.74 493.85v-9h-1.67v-2.37h1.67v-1c0-2.36 1.17-3.9 3.63-3.9a7.15 7.15 0 0 1 1.46.13v2.49a6.15 6.15 0 0 0 -.66 0c-.93 0-1.28.33-1.28 1.56v.75h2v2.37h-2v9z"/><path d="m124.26 488.13c0 3.46-2.07 6-5.68 6s-5.58-2.54-5.58-5.93 2.14-6 5.74-6c3.34-.01 5.52 2.37 5.52 5.93zm-8.08 0c0 2.2.95 3.49 2.47 3.49s2.42-1.29 2.42-3.47c0-2.38-.88-3.5-2.47-3.5s-2.42 1.11-2.42 3.51z"/><path d="m126.52 485.56c0-1.14 0-2.14 0-3.1h3.1a19.85 19.85 0 0 1 .09 2 3.67 3.67 0 0 1 3.65-2.27v3c-2.29-.07-3.65.55-3.65 3.67v5h-3.17z"/><path d="m135.3 485.41c0-1 0-2 0-3h3c.05.28.11.92.13 1.36a3.61 3.61 0 0 1 3.17-1.63 3 3 0 0 1 2.93 1.74 4 4 0 0 1 3.52-1.74c2 0 3.61 1.23 3.61 4.18v7.48h-3.08v-7.08c0-1-.38-2-1.67-2s-1.85.88-1.85 2.62v6.51h-3.11v-7c0-1.17-.28-2.13-1.62-2.13s-1.9.79-1.9 2.75v6.35h-3.13z"/><path d="m160 480.61v-2.82h3.16v2.82zm0 1.85h3.16v11.39h-3.16z"/><path d="m165 482.46h1.76v-3.08h3.15v3.08h2.24v2.37h-2.24v5.64c0 .85.26 1.18 1.21 1.18h.7v2.16a6.83 6.83 0 0 1 -2.11.22c-2.22 0-3-1.19-3-3.19v-6h-1.71z"/><path d="m179.63 485.41c0-1 0-2 0-3h3c0 .28.11.92.13 1.36a3.61 3.61 0 0 1 3.17-1.63 3 3 0 0 1 2.93 1.74 4 4 0 0 1 3.52-1.74c2 0 3.61 1.23 3.61 4.18v7.48h-3.09v-7.08c0-1-.38-2-1.68-2s-1.84.88-1.84 2.62v6.51h-3.11v-7c0-1.17-.28-2.13-1.62-2.13s-1.9.79-1.9 2.75v6.35h-3.12z"/><path d="m208.36 490.91a23.9 23.9 0 0 0 .16 2.94h-3a4.33 4.33 0 0 1 -.15-1.12c-.42.64-1.19 1.39-3.21 1.39-2.75 0-3.9-1.81-3.9-3.57 0-2.59 2.07-3.8 5.41-3.8h1.63v-.68c0-.82-.28-1.61-1.76-1.61-1.32 0-1.63.55-1.76 1.39h-3c.15-2 1.41-3.66 4.88-3.66 3 0 4.71 1.21 4.71 3.94zm-3.08-2.25h-1.28c-1.92 0-2.62.6-2.62 1.7a1.46 1.46 0 0 0 1.65 1.51c2 0 2.24-1.4 2.24-2.9z"/><path d="m213.4 482.46c1.17 3.94 2.2 7.43 2.38 8.49.24-1.14.92-3.7 2.26-8.49h3.15l-3.83 11.72c-1.08 3.28-2 4.25-4.73 4.25a13.29 13.29 0 0 1 -1.47-.09v-2.53c.22 0 .55.05.81.05a2 2 0 0 0 2.18-1.65l-4.15-11.75z"/><path d="m227.17 482.46h1.76v-3.08h3.15v3.08h2.24v2.37h-2.24v5.64c0 .85.26 1.18 1.21 1.18h.7v2.16a6.8 6.8 0 0 1 -2.11.22c-2.22 0-2.95-1.19-2.95-3.19v-6h-1.76z"/><path d="m245.83 490.91a26.87 26.87 0 0 0 .15 2.94h-3a4.32 4.32 0 0 1 -.16-1.12c-.41.64-1.19 1.39-3.21 1.39-2.75 0-3.89-1.81-3.89-3.57 0-2.59 2.06-3.8 5.41-3.8h1.63v-.68c0-.82-.29-1.61-1.76-1.61s-1.63.55-1.76 1.39h-3c.16-2 1.41-3.66 4.89-3.66 3 0 4.71 1.21 4.71 3.94zm-3.08-2.25h-1.28c-1.91 0-2.62.6-2.62 1.7a1.47 1.47 0 0 0 1.65 1.51c2 0 2.25-1.4 2.25-2.9z"/><path d="m251.94 487.28c.84-1.15 2.34-2.91 3.92-4.82h3.61l-4 4.31 4.33 7.08h-3.56l-2.88-5.06-1.46 1.41v3.65h-3.17v-16.06h3.17z"/><path d="m263.65 488.84c0 1.43.72 2.81 2.28 2.81a1.82 1.82 0 0 0 2-1.21h3.14a5 5 0 0 1 -5.21 3.68c-3.76 0-5.39-2.8-5.39-5.79 0-3.58 1.82-6.14 5.5-6.14 3.89 0 5.23 2.84 5.23 5.68a7.32 7.32 0 0 1 0 1zm4.4-1.94c0-1.32-.55-2.44-2.09-2.44s-2.12 1-2.25 2.44z"/><path d="m272.18 496.41a18.59 18.59 0 0 0 1.63-6.43h3.19a12.61 12.61 0 0 1 -2.42 6.43z"/><path d="m287.61 493.85-3.88-15.16h3.5c1.43 7 2.07 10.06 2.25 11.73.57-2.79 2-8.07 2.92-11.73h2.95c.79 2.91 2.31 8.78 2.82 11.58.51-3.35 2-9.22 2.53-11.58h3.17l-4.09 15.16h-3.41c-.8-3.36-2.14-8.27-2.67-10.86-.55 2.7-1.91 7.81-2.73 10.86z"/><path d="m309 477.79v6a3.58 3.58 0 0 1 3.25-1.63c2.12 0 3.81 1.28 3.81 4.36v7.3h-3.12v-6.82c0-1.47-.53-2.26-1.85-2.26-1.76 0-2.09 1.32-2.09 3.05v6.05h-3.2v-16.05z"/><path d="m328.44 490.91a26.87 26.87 0 0 0 .15 2.94h-3a4.32 4.32 0 0 1 -.16-1.12c-.42.64-1.19 1.39-3.21 1.39-2.75 0-3.89-1.81-3.89-3.57 0-2.59 2.06-3.8 5.41-3.8h1.63v-.68c0-.82-.29-1.61-1.76-1.61s-1.63.55-1.76 1.39h-3c.16-2 1.41-3.66 4.89-3.66 3 0 4.71 1.21 4.71 3.94zm-3.08-2.25h-1.28c-1.91 0-2.62.6-2.62 1.7a1.47 1.47 0 0 0 1.65 1.51c2 0 2.25-1.4 2.25-2.9z"/><path d="m330.28 482.46h1.72v-3.08h3.15v3.08h2.24v2.37h-2.24v5.64c0 .85.26 1.18 1.21 1.18h.7v2.16a6.8 6.8 0 0 1 -2.06.19c-2.22 0-2.95-1.19-2.95-3.19v-6h-1.76z"/><path d="m342 488.84c0 1.43.72 2.81 2.29 2.81a1.81 1.81 0 0 0 2-1.21h3.14a5 5 0 0 1 -5.21 3.68c-3.76 0-5.39-2.8-5.39-5.79 0-3.58 1.83-6.14 5.5-6.14 3.89 0 5.24 2.84 5.24 5.68a5.87 5.87 0 0 1 -.05 1zm4.4-1.94c0-1.32-.55-2.44-2.09-2.44s-2.11 1-2.25 2.44z"/><path d="m353.93 482.46c1.08 3.87 2 7.24 2.2 8.6.33-1.87 1.43-5.3 2.42-8.6h3.14l-4 11.39h-3.3l-3.88-11.39z"/><path d="m365.88 488.84c0 1.43.73 2.81 2.29 2.81a1.81 1.81 0 0 0 2-1.21h3.15a5 5 0 0 1 -5.22 3.68c-3.76 0-5.39-2.8-5.39-5.79 0-3.58 1.83-6.14 5.5-6.14 3.9 0 5.24 2.84 5.24 5.68a5.87 5.87 0 0 1 -.05 1zm4.4-1.94c0-1.32-.55-2.44-2.09-2.44s-2.11 1-2.24 2.44z"/><path d="m375.69 485.56c0-1.14 0-2.14 0-3.1h3.1c0 .26.09 1.38.09 2a3.67 3.67 0 0 1 3.65-2.27v3c-2.29-.07-3.65.55-3.65 3.67v5h-3.17z"/><path d="m389.9 485.41c0-1 0-2 0-3h3c0 .28.11.92.13 1.36a3.59 3.59 0 0 1 3.17-1.63 3 3 0 0 1 2.92 1.74 4 4 0 0 1 3.52-1.74c2 0 3.61 1.23 3.61 4.18v7.48h-3.08v-7.08c0-1-.37-2-1.67-2s-1.85.88-1.85 2.62v6.51h-3.1v-7c0-1.17-.29-2.13-1.63-2.13s-1.89.79-1.89 2.75v6.35h-3.13z"/><path d="m411.68 488.84c0 1.43.73 2.81 2.29 2.81a1.8 1.8 0 0 0 2-1.21h3.15a5 5 0 0 1 -5.21 3.68c-3.77 0-5.39-2.8-5.39-5.79 0-3.58 1.82-6.14 5.5-6.14 3.89 0 5.23 2.84 5.23 5.68a7.32 7.32 0 0 1 0 1zm4.4-1.94c0-1.32-.55-2.44-2.09-2.44s-2.11 1-2.24 2.44z"/><path d="m420.4 482.46h1.76v-3.08h3.14v3.08h2.25v2.37h-2.25v5.64c0 .85.27 1.18 1.21 1.18h.71v2.16a6.9 6.9 0 0 1 -2.12.22c-2.22 0-2.94-1.19-2.94-3.19v-6h-1.76z"/><path d="m432.76 477.79v6a3.59 3.59 0 0 1 3.26-1.63c2.11 0 3.8 1.28 3.8 4.36v7.3h-3.12v-6.82c0-1.47-.53-2.26-1.85-2.26-1.76 0-2.09 1.32-2.09 3.05v6.05h-3.17v-16.05z"/><path d="m453.37 488.13c0 3.46-2.06 6-5.67 6s-5.59-2.53-5.59-5.92 2.13-6 5.74-6c3.34-.02 5.52 2.36 5.52 5.92zm-8.07 0c0 2.2.94 3.49 2.46 3.49s2.42-1.29 2.42-3.47c0-2.38-.88-3.5-2.46-3.5s-2.42 1.11-2.42 3.51z"/><path d="m466.09 477.79v12.94 3.12h-3c-.07-.35-.13-.92-.16-1.18a3.43 3.43 0 0 1 -3.23 1.45c-2.88 0-4.71-2.31-4.71-5.88s1.94-6.05 5.17-6.05c1.65 0 2.53.6 2.77 1.1v-5.5zm-5.44 13.8c2.16 0 2.43-1.81 2.43-3.43 0-2-.29-3.44-2.36-3.44-1.65 0-2.49 1.3-2.49 3.46s.86 3.41 2.42 3.41z"/><path d="m474.43 480.61v-2.82h3.16v2.82zm0 1.85h3.16v11.39h-3.16z"/><path d="m479.42 482.46h1.76v-3.08h3.15v3.08h2.24v2.37h-2.24v5.64c0 .85.26 1.18 1.21 1.18h.7v2.16a6.83 6.83 0 0 1 -2.11.22c-2.22 0-2.95-1.19-2.95-3.19v-6h-1.76z"/><path d="m494.05 485.41c0-1 0-2 0-3h3c0 .28.11.92.13 1.36a3.61 3.61 0 0 1 3.17-1.63 3 3 0 0 1 2.93 1.74 4 4 0 0 1 3.52-1.74c2 0 3.61 1.23 3.61 4.18v7.48h-3.08v-7.08c0-1-.38-2-1.67-2s-1.85.88-1.85 2.62v6.51h-3.11v-7c0-1.17-.28-2.13-1.62-2.13s-1.9.79-1.9 2.75v6.35h-3.12z"/><path d="m522.78 490.91a23.9 23.9 0 0 0 .16 2.94h-3a4.33 4.33 0 0 1 -.15-1.12c-.42.64-1.19 1.39-3.21 1.39-2.75 0-3.9-1.81-3.9-3.57 0-2.59 2.07-3.8 5.41-3.8h1.63v-.68c0-.82-.28-1.61-1.76-1.61-1.32 0-1.63.55-1.76 1.39h-3c.15-2 1.41-3.66 4.88-3.66 3 0 4.71 1.21 4.71 3.94zm-3.08-2.25h-1.27c-1.92 0-2.62.6-2.62 1.7a1.46 1.46 0 0 0 1.65 1.51c2 0 2.24-1.4 2.24-2.9z"/><path d="m527.82 482.46c1.17 3.94 2.2 7.43 2.38 8.49.24-1.14.92-3.7 2.26-8.49h3.15l-3.83 11.72c-1.08 3.28-2 4.25-4.73 4.25a13.29 13.29 0 0 1 -1.47-.09v-2.53c.22 0 .55.05.81.05a2 2 0 0 0 2.18-1.65l-4.16-11.75z"/><path d="m542.69 485.56c0-1.14 0-2.14 0-3.1h3.1a19.85 19.85 0 0 1 .09 2 3.67 3.67 0 0 1 3.65-2.27v3c-2.29-.07-3.65.55-3.65 3.67v5h-3.17z"/><path d="m554 488.84c0 1.43.72 2.81 2.29 2.81a1.81 1.81 0 0 0 2-1.21h3.14a5 5 0 0 1 -5.21 3.68c-3.76 0-5.39-2.8-5.39-5.79 0-3.58 1.83-6.14 5.5-6.14 3.89 0 5.24 2.84 5.24 5.68a5.87 5.87 0 0 1 0 1zm4.4-1.94c0-1.32-.55-2.44-2.09-2.44s-2.11 1-2.25 2.44z"/><path d="m571.09 492.64a3.32 3.32 0 0 1 -3.16 1.48c-2.53 0-4.8-1.89-4.8-5.85 0-3.68 2.2-6.08 5.06-6.08 1.8 0 2.64.75 2.9 1.35 0-.29.07-.8.11-1.08h3v3.12 12.63h-3.06zm-2.33-1.05c1.94 0 2.38-1.39 2.38-3.46s-.44-3.41-2.31-3.41c-1.7 0-2.47 1.41-2.47 3.46s.75 3.41 2.4 3.41z"/><path d="m587.11 490.55v3.3h-3.08c0-.3-.06-.92-.09-1.32a3.24 3.24 0 0 1 -3.14 1.59c-2.31 0-3.79-1.41-3.79-4.23v-7.43h3.15v6.8c0 1.25.4 2.28 1.76 2.28s2-.77 2-3v-6.07h3.15z"/><path d="m590.06 480.61v-2.82h3.17v2.82zm0 1.85h3.17v11.39h-3.17z"/><path d="m596.15 485.56c0-1.14 0-2.14 0-3.1h3.1c0 .26.09 1.38.09 2a3.67 3.67 0 0 1 3.65-2.27v3c-2.29-.07-3.65.55-3.65 3.67v5h-3.17z"/><path d="m607.44 488.84c0 1.43.72 2.81 2.29 2.81a1.81 1.81 0 0 0 2-1.21h3.14a5 5 0 0 1 -5.21 3.68c-3.76 0-5.39-2.8-5.39-5.79 0-3.58 1.83-6.14 5.5-6.14 3.89 0 5.24 2.84 5.24 5.68a5.87 5.87 0 0 1 0 1zm4.4-1.94c0-1.32-.55-2.44-2.09-2.44s-2.11 1-2.25 2.44z"/><path d="m616 496.41a18.59 18.59 0 0 0 1.6-6.41h3.24a12.71 12.71 0 0 1 -2.43 6.43z"/><path d="m4 546.06-3.87-15.16h3.5c1.43 7 2.07 10.06 2.25 11.73.57-2.79 2-8.08 2.92-11.73h2.95c.79 2.91 2.31 8.78 2.82 11.58.51-3.35 2-9.22 2.53-11.58h3.17l-4.09 15.16h-3.37c-.8-3.36-2.14-8.27-2.67-10.87-.55 2.71-1.91 7.81-2.73 10.87z"/><path d="m24.71 541.05c0 1.43.72 2.81 2.29 2.81a1.82 1.82 0 0 0 2-1.21h3.14a5 5 0 0 1 -5.21 3.68c-3.76 0-5.39-2.8-5.39-5.79 0-3.59 1.82-6.14 5.5-6.14 3.89 0 5.24 2.84 5.24 5.68a5.93 5.93 0 0 1 -.05 1zm4.4-1.94c0-1.32-.55-2.44-2.09-2.44s-2.12 1-2.25 2.44z"/><path d="m42.24 534.67c1 4.57 1.58 7.17 1.8 8.6h.05c.24-1.28.57-3.06 2-8.6h2.91c1.28 5.61 1.68 7.26 1.83 8.47.24-1.17.6-2.86 1.92-8.47h3.12l-3.39 11.39h-3.37c-1-4.31-1.48-6.6-1.74-8.1-.18 1.44-.8 4-1.81 8.1h-3.41l-3.23-11.39z"/><path d="m57.75 532.82v-2.82h3.17v2.82zm0 1.85h3.17v11.39h-3.17z"/><path d="m63.84 546.06v-16.06h3.16v16.06z"/><path d="m69.94 546.06v-16.06h3.17v16.06z"/><path d="m90.92 543.11a24.1 24.1 0 0 0 .16 2.95h-3a4.81 4.81 0 0 1 -.15-1.12c-.42.64-1.19 1.39-3.21 1.39-2.75 0-3.9-1.81-3.9-3.57 0-2.59 2.07-3.8 5.42-3.8h1.62v-.69c0-.81-.28-1.6-1.76-1.6-1.32 0-1.62.55-1.76 1.38h-3c.16-2 1.41-3.65 4.89-3.65 3 0 4.7 1.21 4.7 3.94zm-3.08-2.24h-1.27c-1.92 0-2.62.59-2.62 1.69a1.47 1.47 0 0 0 1.65 1.52c2 0 2.24-1.41 2.24-2.9z"/><path d="m93.87 546.06v-16.06h3.13v16.06z"/><path d="m102.25 534.67c1 4.57 1.59 7.17 1.81 8.6.24-1.28.57-3.06 2-8.6h2.94c1.27 5.61 1.67 7.26 1.82 8.47.25-1.17.6-2.86 1.92-8.47h3.12l-3.39 11.39h-3.36c-1-4.31-1.48-6.6-1.74-8.1-.18 1.44-.79 4-1.81 8.1h-3.38l-3.24-11.39z"/><path d="m127.22 543.11a24.1 24.1 0 0 0 .16 2.95h-3a4.81 4.81 0 0 1 -.15-1.12c-.42.64-1.19 1.39-3.21 1.39-2.75 0-3.9-1.81-3.9-3.57 0-2.59 2.07-3.8 5.42-3.8h1.62v-.69c0-.81-.28-1.6-1.76-1.6-1.32 0-1.63.55-1.76 1.38h-3c.16-2 1.41-3.65 4.89-3.65 3 0 4.7 1.21 4.7 3.94zm-3.08-2.24h-1.27c-1.92 0-2.62.59-2.62 1.69a1.47 1.47 0 0 0 1.65 1.52c2 0 2.24-1.41 2.24-2.9z"/><path d="m132.26 534.67c1.17 3.93 2.2 7.43 2.38 8.49.24-1.15.92-3.7 2.27-8.49h3.14l-3.83 11.72c-1.07 3.28-2 4.25-4.73 4.25a13.29 13.29 0 0 1 -1.47-.09v-2.55h.81a2 2 0 0 0 2.18-1.65l-4.16-11.74z"/><path d="m144 542.63a2 2 0 0 0 2.16 1.43c1.16 0 1.58-.42 1.58-1.12s-.48-1-2.11-1.41c-3.72-.92-4.31-2.07-4.31-3.67s1.16-3.46 4.6-3.46 4.64 1.89 4.73 3.43h-3c-.11-.41-.39-1.21-1.87-1.21-1 0-1.38.46-1.38 1s.35.84 2.2 1.28c3.8.88 4.35 2.18 4.35 3.85 0 1.89-1.45 3.61-4.9 3.61s-4.89-1.68-5.15-3.7z"/><path d="m159 546.06v-9h-1.68v-2.37h1.68v-1c0-2.35 1.16-3.89 3.63-3.89a6.47 6.47 0 0 1 1.45.13v2.49a6 6 0 0 0 -.66 0c-.93 0-1.28.33-1.28 1.57v.75h2v2.26h-2v9z"/><path d="m165.94 532.82v-2.82h3.17v2.82zm0 1.85h3.17v11.39h-3.17z"/><path d="m172.06 537.55c0-1 0-2 0-2.88h3.05a12.74 12.74 0 0 1 .14 1.45 3.44 3.44 0 0 1 3.3-1.72c2.29 0 3.76 1.56 3.76 4.42v7.24h-3.15v-6.88c0-1.3-.42-2.23-1.82-2.23s-2.09.75-2.09 2.78v6.33h-3.17z"/><path d="m195.64 530v12.94 3.12h-3c-.06-.35-.13-.92-.15-1.19-.55.91-1.54 1.46-3.24 1.46-2.88 0-4.71-2.31-4.71-5.88s1.94-6.05 5.17-6.05c1.66 0 2.54.6 2.78 1.1v-5.5zm-5.43 13.8c2.16 0 2.42-1.81 2.42-3.44 0-2-.29-3.43-2.35-3.43-1.66 0-2.49 1.3-2.49 3.46s.86 3.41 2.42 3.41z"/><path d="m202.88 534.67h1.76v-3.09h3.15v3.09h2.21v2.33h-2.24v5.63c0 .86.26 1.19 1.21 1.19h.7v2.18a6.83 6.83 0 0 1 -2.11.22c-2.22 0-3-1.19-3-3.19v-6h-1.76z"/><path d="m215.24 530v6a3.6 3.6 0 0 1 3.26-1.63c2.11 0 3.81 1.28 3.81 4.36v7.3h-3.13v-6.84c0-1.47-.53-2.27-1.85-2.27-1.76 0-2.09 1.32-2.09 3.06v6h-3.16v-15.98z"/><path d="m227.76 541.05c0 1.43.73 2.81 2.29 2.81a1.81 1.81 0 0 0 2-1.21h3.15a5 5 0 0 1 -5.22 3.68c-3.76 0-5.39-2.8-5.39-5.79 0-3.59 1.83-6.14 5.5-6.14 3.9 0 5.24 2.84 5.24 5.68a7.4 7.4 0 0 1 0 1zm4.4-1.94c0-1.32-.55-2.44-2.09-2.44s-2.11 1-2.24 2.44z"/><path d="m243 530h3.17v5.88a3.54 3.54 0 0 1 3.25-1.48c3.11 0 4.65 2.58 4.65 5.77s-1.68 6.16-5 6.16c-1.69 0-2.44-.51-3-1.35a4.84 4.84 0 0 1 -.13 1.08h-3c0-1.23 0-2.48 0-3.72zm5.45 6.93c-1.8 0-2.44 1.17-2.44 3.5 0 1.91.57 3.39 2.4 3.39 1.61 0 2.46-1.43 2.46-3.59.01-1.91-.71-3.3-2.41-3.3z"/><path d="m258.85 541.05c0 1.43.72 2.81 2.29 2.81a1.82 1.82 0 0 0 2-1.21h3.15a5 5 0 0 1 -5.22 3.68c-3.76 0-5.39-2.8-5.39-5.79 0-3.59 1.83-6.14 5.5-6.14 3.9 0 5.24 2.84 5.24 5.68a5.93 5.93 0 0 1 -.05 1zm4.4-1.94c0-1.32-.55-2.44-2.09-2.44s-2.11 1-2.25 2.44z"/><path d="m271 542.63a2 2 0 0 0 2.16 1.43c1.17 0 1.58-.42 1.58-1.12s-.48-1-2.11-1.41c-3.72-.92-4.31-2.07-4.31-3.67s1.16-3.46 4.6-3.46 4.64 1.89 4.73 3.43h-3c-.1-.41-.39-1.21-1.87-1.21-1 0-1.38.46-1.38 1s.35.84 2.2 1.28c3.81.88 4.36 2.18 4.36 3.85 0 1.89-1.46 3.61-4.91 3.61s-4.89-1.68-5.15-3.7z"/><path d="m279 534.67h1.76v-3.09h3.15v3.09h2.24v2.33h-2.24v5.63c0 .86.26 1.19 1.21 1.19h.7v2.18a6.8 6.8 0 0 1 -2.11.22c-2.22 0-3-1.19-3-3.19v-6h-1.71z"/><path d="m295.94 534.67c1 4.57 1.58 7.17 1.8 8.6h.05c.24-1.28.57-3.06 2-8.6h2.92c1.28 5.61 1.67 7.26 1.83 8.47.24-1.17.6-2.86 1.92-8.47h3.12l-3.39 11.39h-3.39c-.94-4.31-1.47-6.6-1.73-8.1-.17 1.44-.79 4-1.8 8.1h-3.39l-3.23-11.39z"/><path d="m320.91 543.11a27.1 27.1 0 0 0 .15 2.95h-3a4.33 4.33 0 0 1 -.15-1.12c-.42.64-1.19 1.39-3.22 1.39-2.75 0-3.89-1.81-3.89-3.57 0-2.59 2.07-3.8 5.41-3.8h1.63v-.69c0-.81-.29-1.6-1.76-1.6-1.32 0-1.63.55-1.76 1.38h-3c.15-2 1.4-3.65 4.88-3.65 3 0 4.71 1.21 4.71 3.94zm-3.08-2.24h-1.28c-1.91 0-2.62.59-2.62 1.69a1.47 1.47 0 0 0 1.65 1.52c2 0 2.25-1.41 2.25-2.9z"/><path d="m326 534.67c1.16 3.93 2.2 7.43 2.37 8.49.25-1.15.93-3.7 2.27-8.49h3.15l-3.83 11.72c-1.08 3.28-2 4.25-4.73 4.25a13.32 13.32 0 0 1 -1.48-.09v-2.55h.82a2 2 0 0 0 2.18-1.65l-4.16-11.74z"/><path d="m339.72 534.67h1.76v-3.09h3.14v3.09h2.25v2.33h-2.25v5.63c0 .86.27 1.19 1.21 1.19h.71v2.18a6.83 6.83 0 0 1 -2.11.22c-2.23 0-2.95-1.19-2.95-3.19v-6h-1.76z"/><path d="m359.52 540.34c0 3.46-2.07 6-5.68 6s-5.59-2.53-5.59-5.92 2.14-6 5.75-6c3.34-.02 5.52 2.36 5.52 5.92zm-8.08 0c0 2.2.95 3.5 2.47 3.5s2.42-1.3 2.42-3.47c0-2.38-.88-3.5-2.46-3.5s-2.43 1.13-2.43 3.49z"/><path d="m367.22 530h3.17v5.88a3.54 3.54 0 0 1 3.25-1.48c3.11 0 4.65 2.58 4.65 5.77s-1.68 6.16-5 6.16c-1.69 0-2.44-.51-3-1.35a4.84 4.84 0 0 1 -.13 1.08h-3c0-1.23 0-2.48 0-3.72zm5.45 6.93c-1.8 0-2.44 1.17-2.44 3.5 0 1.91.57 3.39 2.4 3.39 1.61 0 2.46-1.43 2.46-3.59 0-1.91-.72-3.3-2.42-3.3z"/><path d="m380.55 537.77c0-1.15 0-2.14 0-3.1h3.1c0 .26.09 1.38.09 2a3.66 3.66 0 0 1 3.65-2.27v3c-2.29-.07-3.65.54-3.65 3.67v5h-3.17z"/><path d="m389.33 532.82v-2.82h3.17v2.82zm0 1.85h3.17v11.39h-3.17z"/><path d="m395.44 537.55c0-1 0-2 0-2.88h3.06a12.81 12.81 0 0 1 .13 1.45 3.47 3.47 0 0 1 3.3-1.72c2.29 0 3.77 1.56 3.77 4.42v7.24h-3.15v-6.88c0-1.3-.42-2.23-1.83-2.23s-2.09.75-2.09 2.78v6.33h-3.17z"/><path d="m418.94 544.68c0 3.65-1.34 6-5.65 6s-5-2.31-5.09-3.61h3.22a1.8 1.8 0 0 0 2 1.32c2 0 2.44-1.25 2.44-3.48v-.55a3.36 3.36 0 0 1 -3.21 1.61c-3 0-4.71-2.46-4.71-5.52 0-3.57 2.13-6 5-6 2 0 2.78.93 2.95 1.45 0-.31.11-1 .13-1.18h3v3.27zm-5.39-1.3c1.89 0 2.4-1.3 2.4-3.21s-.33-3.24-2.33-3.24c-1.37 0-2.45 1.06-2.45 3.35 0 1.95.99 3.1 2.38 3.1z"/><path d="m429.57 534.67c1 4.57 1.58 7.17 1.8 8.6.25-1.28.58-3.06 2-8.6h2.93c1.28 5.61 1.67 7.26 1.83 8.47.24-1.17.59-2.86 1.91-8.47h3.13l-3.39 11.39h-3.37c-.95-4.31-1.47-6.6-1.74-8.1-.18 1.44-.79 4-1.8 8.1h-3.39l-3.24-11.39z"/><path d="m447.58 541.05c0 1.43.73 2.81 2.29 2.81a1.81 1.81 0 0 0 2-1.21h3.13a5 5 0 0 1 -5.21 3.68c-3.77 0-5.39-2.8-5.39-5.79 0-3.59 1.82-6.14 5.5-6.14 3.89 0 5.23 2.84 5.23 5.68a7.4 7.4 0 0 1 0 1zm4.4-1.94c0-1.32-.54-2.44-2.09-2.44s-2.11 1-2.24 2.44z"/><path d="m457.4 532.82v-2.82h3.16v2.82zm0 1.85h3.16v11.39h-3.16z"/><path d="m463.49 537.77c0-1.15 0-2.14 0-3.1h3.1c0 .26.09 1.38.09 2a3.66 3.66 0 0 1 3.65-2.27v3c-2.29-.07-3.65.54-3.65 3.67v5h-3.17z"/><path d="m482.72 530v12.94 3.12h-3c-.07-.35-.14-.92-.16-1.19a3.41 3.41 0 0 1 -3.23 1.46c-2.89 0-4.71-2.31-4.71-5.88s1.93-6.05 5.17-6.05c1.65 0 2.53.6 2.77 1.1v-5.5zm-5.44 13.8c2.16 0 2.42-1.81 2.42-3.44 0-2-.28-3.43-2.35-3.43-1.65 0-2.49 1.3-2.49 3.46s.86 3.41 2.42 3.41z"/><path d="m500.52 543.11a24.7 24.7 0 0 0 .15 2.95h-3a4.32 4.32 0 0 1 -.16-1.12c-.42.64-1.19 1.39-3.21 1.39-2.75 0-3.89-1.81-3.89-3.57 0-2.59 2.06-3.8 5.41-3.8h1.63v-.69c0-.81-.29-1.6-1.76-1.6s-1.63.55-1.76 1.38h-3c.16-2 1.41-3.65 4.89-3.65 3 0 4.71 1.21 4.71 3.94zm-3.08-2.24h-1.28c-1.91 0-2.62.59-2.62 1.69a1.47 1.47 0 0 0 1.65 1.52c2 0 2.25-1.41 2.25-2.9z"/><path d="m503.48 537.55c0-1 0-2 0-2.88h3.06a12.81 12.81 0 0 1 .13 1.45 3.47 3.47 0 0 1 3.3-1.72c2.29 0 3.77 1.56 3.77 4.42v7.24h-3.15v-6.88c0-1.3-.42-2.23-1.83-2.23s-2.09.75-2.09 2.78v6.33h-3.17z"/><path d="m527.07 530v12.94 3.12h-3c-.07-.35-.13-.92-.16-1.19a3.41 3.41 0 0 1 -3.23 1.46c-2.88 0-4.71-2.31-4.71-5.88s1.94-6.05 5.17-6.05c1.65 0 2.53.6 2.77 1.1v-5.5zm-5.43 13.8c2.15 0 2.42-1.81 2.42-3.44 0-2-.29-3.43-2.36-3.43-1.65 0-2.48 1.3-2.48 3.46s.85 3.41 2.42 3.41z"/><path d="m537.69 534.67c1 4.57 1.59 7.17 1.81 8.6.25-1.28.58-3.06 2-8.6h2.93c1.27 5.61 1.67 7.26 1.82 8.47.24-1.17.59-2.86 1.91-8.47h3.12l-3.38 11.39h-3.37c-.95-4.31-1.47-6.6-1.74-8.1-.18 1.44-.79 4-1.8 8.1h-3.39l-3.24-11.39z"/><path d="m563.81 540.34c0 3.46-2.07 6-5.68 6s-5.59-2.53-5.59-5.92 2.14-6 5.75-6c3.34-.02 5.52 2.36 5.52 5.92zm-8.08 0c0 2.2.95 3.5 2.47 3.5s2.42-1.3 2.42-3.47c0-2.38-.88-3.5-2.46-3.5s-2.43 1.13-2.43 3.49z"/><path d="m566.1 537.55c0-1 0-2 0-2.88h3.06c.07.3.11 1.09.14 1.45a3.44 3.44 0 0 1 3.3-1.72c2.28 0 3.76 1.56 3.76 4.42v7.24h-3.15v-6.88c0-1.3-.42-2.23-1.82-2.23s-2.09.75-2.09 2.78v6.33h-3.2z"/><path d="m589.68 530v12.94 3.12h-3c-.07-.35-.13-.92-.16-1.19a3.41 3.41 0 0 1 -3.23 1.46c-2.88 0-4.71-2.31-4.71-5.88s1.94-6.05 5.17-6.05c1.65 0 2.53.6 2.77 1.1v-5.5zm-5.43 13.8c2.15 0 2.42-1.81 2.42-3.44 0-2-.29-3.43-2.36-3.43-1.65 0-2.48 1.3-2.48 3.46s.85 3.41 2.42 3.41z"/><path d="m595.09 541.05c0 1.43.73 2.81 2.29 2.81a1.81 1.81 0 0 0 2-1.21h3.15a5 5 0 0 1 -5.22 3.68c-3.76 0-5.39-2.8-5.39-5.79 0-3.59 1.83-6.14 5.51-6.14 3.89 0 5.23 2.84 5.23 5.68a7.4 7.4 0 0 1 0 1zm4.4-1.94c0-1.32-.55-2.44-2.09-2.44s-2.11 1-2.24 2.44z"/><path d="m604.9 537.77c0-1.15 0-2.14 0-3.1h3.1a19.85 19.85 0 0 1 .09 2 3.68 3.68 0 0 1 3.66-2.27v3c-2.29-.07-3.66.54-3.66 3.67v5h-3.19z"/><path d="m614.12 546.06v-9h-1.67v-2.37h1.67v-1c0-2.35 1.17-3.89 3.63-3.89a6.35 6.35 0 0 1 1.45.13v2.49a5.58 5.58 0 0 0 -.66 0c-.92 0-1.27.33-1.27 1.57v.75h2v2.26h-2v9z"/><path d="m631.06 542.76v3.3h-3.06c0-.31-.07-.92-.09-1.32a3.25 3.25 0 0 1 -3.15 1.59c-2.31 0-3.78-1.41-3.78-4.23v-7.43h3.14v6.79c0 1.26.4 2.29 1.76 2.29s2-.77 2-3v-6.07h3.14z"/><path d="m634 546.06v-16.06h3.17v16.06z"/><path d="m645.54 532.82v-2.82h3.17v2.82zm0 1.85h3.17v11.39h-3.17z"/><path d="m662.08 530v12.94 3.12h-3c-.07-.35-.13-.92-.15-1.19-.55.91-1.54 1.46-3.24 1.46-2.88 0-4.71-2.31-4.71-5.88s1.94-6.05 5.17-6.05c1.65 0 2.53.6 2.78 1.1v-5.5zm-5.43 13.8c2.15 0 2.42-1.81 2.42-3.44 0-2-.29-3.43-2.36-3.43-1.65 0-2.48 1.3-2.48 3.46s.86 3.41 2.42 3.41z"/><path d="m667.49 541.05c0 1.43.73 2.81 2.29 2.81a1.81 1.81 0 0 0 2-1.21h3.15a5 5 0 0 1 -5.21 3.68c-3.77 0-5.39-2.8-5.39-5.79 0-3.59 1.82-6.14 5.5-6.14 3.89 0 5.23 2.84 5.23 5.68a7.4 7.4 0 0 1 0 1zm4.41-1.94c0-1.32-.55-2.44-2.1-2.44s-2.11 1-2.24 2.44z"/><path d="m686.77 543.11a27.1 27.1 0 0 0 .15 2.95h-3a4.32 4.32 0 0 1 -.16-1.12c-.41.64-1.19 1.39-3.21 1.39-2.75 0-3.89-1.81-3.89-3.57 0-2.59 2.06-3.8 5.41-3.8h1.63v-.69c0-.81-.29-1.6-1.76-1.6-1.32 0-1.63.55-1.76 1.38h-3c.16-2 1.41-3.65 4.89-3.65 3 0 4.71 1.21 4.71 3.94zm-3.08-2.24h-1.28c-1.91 0-2.62.59-2.62 1.69a1.47 1.47 0 0 0 1.65 1.52c2 0 2.25-1.41 2.25-2.9z"/><path d="m692.05 542.63a2 2 0 0 0 2.15 1.43c1.17 0 1.59-.42 1.59-1.12s-.49-1-2.12-1.41c-3.71-.92-4.31-2.07-4.31-3.67s1.17-3.46 4.6-3.46 4.64 1.89 4.73 3.43h-3c-.11-.41-.4-1.21-1.87-1.21-1 0-1.39.46-1.39 1s.35.84 2.2 1.28c3.81.88 4.36 2.18 4.36 3.85 0 1.89-1.45 3.61-4.91 3.61s-4.88-1.68-5.15-3.7z"/><path d="m705.51 534.67h1.76v-3.09h3.15v3.09h2.24v2.33h-2.24v5.63c0 .86.26 1.19 1.21 1.19h.7v2.18a6.83 6.83 0 0 1 -2.11.22c-2.22 0-3-1.19-3-3.19v-6h-1.76z"/><path d="m725.31 540.34c0 3.46-2.07 6-5.68 6s-5.63-2.54-5.63-5.93 2.14-6 5.75-6c3.38-.01 5.56 2.37 5.56 5.93zm-8.08 0c0 2.2.95 3.5 2.47 3.5s2.42-1.3 2.42-3.47c0-2.38-.88-3.5-2.46-3.5s-2.43 1.13-2.43 3.49z"/><path d="m733 546.06v-16.06h3.17v16.06z"/><path d="m739.1 532.82v-2.82h3.17v2.82zm0 1.85h3.17v11.39h-3.17z"/><path d="m745.64 546.06v-9h-1.64v-2.37h1.68v-1c0-2.35 1.16-3.89 3.63-3.89a6.47 6.47 0 0 1 1.45.13v2.49a6 6 0 0 0 -.66 0c-.93 0-1.28.33-1.28 1.57v.75h2v2.26h-2v9z"/><path d="m755.05 541.05c0 1.43.73 2.81 2.29 2.81a1.82 1.82 0 0 0 2-1.21h3.15a5 5 0 0 1 -5.22 3.68c-3.76 0-5.39-2.8-5.39-5.79 0-3.59 1.83-6.14 5.5-6.14 3.9 0 5.24 2.84 5.24 5.68a7.4 7.4 0 0 1 0 1zm4.4-1.94c0-1.32-.55-2.44-2.09-2.44s-2.11 1-2.24 2.44z"/><path d="m764.53 546.06v-3.87h3.37v3.87z"/></svg>