<svg viewBox="0 0 505.73 847.43" xmlns="http://www.w3.org/2000/svg"><path d="m4.93 340.18-4.93-19.29h4.45c1.82 8.85 2.63 12.79 2.86 14.92.72-3.55 2.6-10.27 3.72-14.92h3.75c1 3.69 2.94 11.17 3.59 14.73.65-4.26 2.52-11.74 3.22-14.73h4l-5.21 19.29h-4.25c-1-4.28-2.72-10.53-3.39-13.83-.7 3.44-2.43 9.94-3.47 13.83z"/><path d="m31.28 333.8c0 1.82.92 3.58 2.91 3.58a2.32 2.32 0 0 0 2.55-1.54h4c-.5 1.76-2.1 4.68-6.64 4.68-4.78 0-6.86-3.56-6.86-7.37 0-4.56 2.33-7.81 7-7.81 5 0 6.67 3.61 6.67 7.22a8 8 0 0 1 -.06 1.24zm5.6-2.47c0-1.68-.7-3.11-2.66-3.11s-2.69 1.32-2.86 3.11z"/><path d="m64 319.74v16.46 4h-3.83c-.08-.45-.17-1.18-.19-1.51-.7 1.15-2 1.85-4.12 1.85-3.67 0-6-2.94-6-7.48s2.46-7.7 6.58-7.7c2.1 0 3.22.76 3.53 1.4v-7zm-6.94 17.56c2.75 0 3.08-2.3 3.08-4.37 0-2.49-.36-4.37-3-4.37-2.1 0-3.17 1.65-3.17 4.4s1.11 4.34 3.09 4.34z"/><path d="m81.17 332.9c0 4.4-2.63 7.62-7.22 7.62s-7.11-3.22-7.11-7.54c0-4.48 2.71-7.64 7.3-7.64 4.26 0 7.03 3.02 7.03 7.56zm-10.27 0c0 2.8 1.2 4.45 3.13 4.45s3.08-1.65 3.08-4.42c0-3-1.12-4.46-3.13-4.46-1.85.03-3.08 1.41-3.08 4.46z"/><path d="m84.08 329.34c0-1.23 0-2.57 0-3.66h3.92c.08.39.14 1.4.17 1.84a4.4 4.4 0 0 1 4.19-2.18c2.92 0 4.79 2 4.79 5.63v9.21h-4v-8.76c0-1.66-.53-2.83-2.32-2.83s-2.66 1-2.66 3.53v8.06h-4z"/><path d="m100.07 328.06a38.13 38.13 0 0 0 1.32-8.32h4.22a23.73 23.73 0 0 1 -2.32 8.32z"/><path d="m108.39 325.68h2.24v-3.92h4v3.92h2.86v3h-2.86v7.17c0 1.09.34 1.51 1.54 1.51h.9v2.75a8.74 8.74 0 0 1 -2.69.28c-2.83 0-3.75-1.52-3.75-4.06v-7.63h-2.24z"/><path d="m139.55 335.5c-.48 2.41-2.18 5-6.5 5-4.5 0-6.83-3.11-6.83-7.48s2.61-7.7 7-7.7c4.87 0 6.24 3.53 6.3 5.15h-3.89a2.27 2.27 0 0 0 -2.49-2c-1.85 0-2.89 1.6-2.89 4.4 0 3.11 1.12 4.51 2.86 4.51a2.46 2.46 0 0 0 2.49-1.91z"/><path d="m154.28 336.43a33.66 33.66 0 0 0 .19 3.75h-3.83a5.74 5.74 0 0 1 -.2-1.43c-.53.81-1.51 1.77-4.09 1.77-3.5 0-4.95-2.3-4.95-4.54 0-3.3 2.63-4.84 6.89-4.84h2.07v-.87c0-1-.37-2-2.24-2-1.68 0-2.07.7-2.24 1.77h-3.81c.2-2.58 1.79-4.65 6.22-4.65 3.86 0 6 1.54 6 5zm-3.92-2.86h-1.63c-2.43 0-3.33.76-3.33 2.16a1.88 1.88 0 0 0 2.1 1.93c2.55 0 2.86-1.79 2.86-3.7z"/><path d="m158 329.62c0-1.45 0-2.71 0-3.94h4c.06.33.11 1.76.11 2.54a4.69 4.69 0 0 1 4.65-2.88v3.84c-2.91-.09-4.65.7-4.65 4.67v6.33h-4z"/><path d="m172.39 333.8c0 1.82.93 3.58 2.91 3.58a2.32 2.32 0 0 0 2.55-1.54h4c-.51 1.76-2.1 4.68-6.64 4.68-4.79 0-6.86-3.56-6.86-7.37 0-4.56 2.32-7.81 7-7.81 5 0 6.66 3.61 6.66 7.22a9.56 9.56 0 0 1 -.05 1.24zm5.6-2.47c0-1.68-.7-3.11-2.66-3.11s-2.69 1.32-2.85 3.11z"/><path d="m203.84 336.43a33.66 33.66 0 0 0 .19 3.75h-3.83a5.31 5.31 0 0 1 -.2-1.43c-.53.81-1.51 1.77-4.09 1.77-3.5 0-4.95-2.3-4.95-4.54 0-3.3 2.63-4.84 6.88-4.84h2.08v-.87c0-1-.37-2-2.24-2-1.68 0-2.08.7-2.24 1.77h-3.81c.19-2.58 1.79-4.65 6.21-4.65 3.87 0 6 1.54 6 5zm-3.92-2.86h-1.63c-2.43 0-3.33.76-3.33 2.16a1.87 1.87 0 0 0 2.1 1.93c2.55 0 2.86-1.79 2.86-3.7z"/><path d="m207.59 319.74h4v7.48c.59-.93 1.79-1.88 4.14-1.88 4 0 5.91 3.28 5.91 7.34s-2.13 7.84-6.3 7.84c-2.15 0-3.11-.65-3.81-1.71a6.87 6.87 0 0 1 -.16 1.37h-3.84c0-1.57 0-3.16 0-4.73zm6.94 8.82c-2.29 0-3.11 1.48-3.11 4.45 0 2.44.73 4.31 3.06 4.31 2 0 3.13-1.82 3.13-4.56 0-2.44-.92-4.2-3.08-4.2z"/><path d="m238.05 332.9c0 4.4-2.63 7.62-7.22 7.62s-7.11-3.22-7.11-7.54c0-4.48 2.71-7.64 7.3-7.64 4.26 0 7.03 3.02 7.03 7.56zm-10.27 0c0 2.8 1.2 4.45 3.13 4.45s3.09-1.62 3.09-4.35c0-3-1.12-4.46-3.13-4.46-1.87-.04-3.09 1.34-3.09 4.39z"/><path d="m253.7 336v4.2h-3.92c-.05-.39-.08-1.18-.11-1.68a4.14 4.14 0 0 1 -4 2c-2.94 0-4.82-1.8-4.82-5.38v-9.46h4v8.65c0 1.59.51 2.91 2.24 2.91s2.58-1 2.58-3.84v-7.72h4z"/><path d="m256.05 325.68h2.24v-3.92h4v3.92h2.85v3h-2.84v7.17c0 1.09.33 1.51 1.54 1.51h.89v2.75a8.65 8.65 0 0 1 -2.68.28c-2.83 0-3.76-1.52-3.76-4.06v-7.63h-2.24z"/><path d="m273.27 325.68h2.24v-3.92h4v3.92h2.85v3h-2.85v7.17c0 1.09.33 1.51 1.54 1.51h.89v2.75a8.65 8.65 0 0 1 -2.68.28c-2.83 0-3.76-1.52-3.76-4.06v-7.63h-2.24z"/><path d="m289 319.74v7.67a4.58 4.58 0 0 1 4.14-2.07c2.69 0 4.85 1.62 4.85 5.54v9.3h-4v-8.71c0-1.87-.67-2.88-2.35-2.88-2.24 0-2.66 1.68-2.66 3.89v7.7h-4v-20.44z"/><path d="m304.94 333.8c0 1.82.93 3.58 2.91 3.58a2.32 2.32 0 0 0 2.55-1.54h4c-.51 1.76-2.1 4.68-6.64 4.68-4.79 0-6.86-3.56-6.86-7.37 0-4.56 2.32-7.81 7-7.81 5 0 6.66 3.61 6.66 7.22a9.56 9.56 0 0 1 -.05 1.24zm5.6-2.47c0-1.68-.7-3.11-2.66-3.11s-2.69 1.32-2.85 3.11z"/><path d="m324.35 329.62c0-1.45 0-2.71 0-3.94h3.95c.05.33.11 1.76.11 2.54a4.67 4.67 0 0 1 4.65-2.88v3.84c-2.92-.09-4.65.7-4.65 4.67v6.33h-4z"/><path d="m348.29 336v4.2h-3.92c-.05-.39-.08-1.18-.11-1.68a4.14 4.14 0 0 1 -4 2c-2.94 0-4.82-1.8-4.82-5.38v-9.46h4v8.65c0 1.59.5 2.91 2.24 2.91s2.57-1 2.57-3.84v-7.72h4z"/><path d="m352 340.18v-20.44h4v20.44z"/><path d="m363.55 333.8c0 1.82.92 3.58 2.91 3.58a2.32 2.32 0 0 0 2.55-1.54h4c-.5 1.76-2.1 4.68-6.64 4.68-4.78 0-6.86-3.56-6.86-7.37 0-4.56 2.33-7.81 7-7.81 5 0 6.67 3.61 6.67 7.22a8 8 0 0 1 -.06 1.24zm5.6-2.47c0-1.68-.71-3.11-2.67-3.11s-2.68 1.32-2.85 3.11z"/><path d="m379 335.81a2.51 2.51 0 0 0 2.74 1.82c1.49 0 2-.53 2-1.43s-.61-1.28-2.69-1.79c-4.73-1.17-5.49-2.63-5.49-4.67s1.49-4.4 5.86-4.4 5.9 2.41 6 4.37h-3.81c-.14-.53-.5-1.54-2.38-1.54-1.32 0-1.77.59-1.77 1.23s.45 1.06 2.81 1.62c4.84 1.12 5.54 2.78 5.54 4.9 0 2.41-1.85 4.6-6.25 4.6s-6.21-2.13-6.55-4.71z"/><path d="m390.2 340.18v-4.93h4.28v4.93z"/><path d="m4.93 403.18-4.93-19.29h4.45c1.82 8.85 2.63 12.79 2.86 14.92.72-3.55 2.6-10.27 3.72-14.92h3.75c1 3.69 2.94 11.17 3.59 14.73.65-4.26 2.52-11.74 3.22-14.73h4l-5.21 19.29h-4.25c-1-4.28-2.72-10.53-3.39-13.83-.7 3.44-2.43 9.94-3.47 13.83z"/><path d="m31.28 396.8c0 1.82.92 3.58 2.91 3.58a2.32 2.32 0 0 0 2.55-1.54h4c-.5 1.76-2.1 4.68-6.64 4.68-4.78 0-6.86-3.56-6.86-7.37 0-4.56 2.33-7.81 7-7.81 5 0 6.67 3.61 6.67 7.22a8 8 0 0 1 -.06 1.24zm5.6-2.47c0-1.68-.7-3.11-2.66-3.11s-2.69 1.32-2.86 3.11z"/><path d="m64 382.74v16.46 4h-3.83c-.08-.45-.17-1.18-.19-1.51-.7 1.15-2 1.85-4.12 1.85-3.67 0-6-2.94-6-7.48s2.46-7.7 6.58-7.7c2.1 0 3.22.76 3.53 1.4v-7zm-6.94 17.56c2.75 0 3.08-2.3 3.08-4.37 0-2.49-.36-4.37-3-4.37-2.1 0-3.17 1.65-3.17 4.4s1.11 4.34 3.09 4.34z"/><path d="m81.17 395.9c0 4.4-2.63 7.62-7.22 7.62s-7.11-3.22-7.11-7.54c0-4.48 2.71-7.64 7.3-7.64 4.26 0 7.03 3.02 7.03 7.56zm-10.27 0c0 2.8 1.2 4.45 3.13 4.45s3.08-1.65 3.08-4.42c0-3-1.12-4.46-3.13-4.46-1.85.03-3.08 1.41-3.08 4.46z"/><path d="m84.08 392.34c0-1.23 0-2.57 0-3.66h3.92c.08.39.14 1.4.17 1.84a4.4 4.4 0 0 1 4.19-2.18c2.92 0 4.79 2 4.79 5.63v9.21h-4v-8.76c0-1.66-.53-2.83-2.32-2.83s-2.66 1-2.66 3.53v8.06h-4z"/><path d="m100.07 391.06a38.13 38.13 0 0 0 1.32-8.32h4.22a23.73 23.73 0 0 1 -2.32 8.32z"/><path d="m108.39 388.68h2.24v-3.92h4v3.92h2.86v3h-2.86v7.17c0 1.09.34 1.51 1.54 1.51h.9v2.75a8.74 8.74 0 0 1 -2.69.28c-2.83 0-3.75-1.52-3.75-4.06v-7.63h-2.24z"/><path d="m139.55 398.5c-.48 2.41-2.18 5-6.5 5-4.5 0-6.83-3.11-6.83-7.48s2.61-7.7 7-7.7c4.87 0 6.24 3.53 6.3 5.15h-3.89a2.27 2.27 0 0 0 -2.49-2c-1.85 0-2.89 1.6-2.89 4.4 0 3.11 1.12 4.51 2.86 4.51a2.46 2.46 0 0 0 2.49-1.91z"/><path d="m154.28 399.43a33.66 33.66 0 0 0 .19 3.75h-3.83a5.74 5.74 0 0 1 -.2-1.43c-.53.81-1.51 1.77-4.09 1.77-3.5 0-4.95-2.3-4.95-4.54 0-3.3 2.63-4.84 6.89-4.84h2.07v-.87c0-1-.37-2-2.24-2-1.68 0-2.07.7-2.24 1.77h-3.81c.2-2.58 1.79-4.65 6.22-4.65 3.86 0 6 1.54 6 5zm-3.92-2.86h-1.63c-2.43 0-3.33.76-3.33 2.16a1.88 1.88 0 0 0 2.1 1.93c2.55 0 2.86-1.79 2.86-3.7z"/><path d="m158 392.62c0-1.45 0-2.71 0-3.94h4c.06.33.11 1.76.11 2.54a4.69 4.69 0 0 1 4.65-2.88v3.84c-2.91-.09-4.65.7-4.65 4.67v6.33h-4z"/><path d="m172.39 396.8c0 1.82.93 3.58 2.91 3.58a2.32 2.32 0 0 0 2.55-1.54h4c-.51 1.76-2.1 4.68-6.64 4.68-4.79 0-6.86-3.56-6.86-7.37 0-4.56 2.32-7.81 7-7.81 5 0 6.66 3.61 6.66 7.22a9.56 9.56 0 0 1 -.05 1.24zm5.6-2.47c0-1.68-.7-3.11-2.66-3.11s-2.69 1.32-2.85 3.11z"/><path d="m203.84 399.43a33.66 33.66 0 0 0 .19 3.75h-3.83a5.31 5.31 0 0 1 -.2-1.43c-.53.81-1.51 1.77-4.09 1.77-3.5 0-4.95-2.3-4.95-4.54 0-3.3 2.63-4.84 6.88-4.84h2.08v-.87c0-1-.37-2-2.24-2-1.68 0-2.08.7-2.24 1.77h-3.81c.19-2.58 1.79-4.65 6.21-4.65 3.87 0 6 1.54 6 5zm-3.92-2.86h-1.63c-2.43 0-3.33.76-3.33 2.16a1.87 1.87 0 0 0 2.1 1.93c2.55 0 2.86-1.79 2.86-3.7z"/><path d="m207.59 382.74h4v7.48c.59-.93 1.79-1.88 4.14-1.88 4 0 5.91 3.28 5.91 7.34s-2.13 7.84-6.3 7.84c-2.15 0-3.11-.65-3.81-1.71a6.87 6.87 0 0 1 -.16 1.37h-3.84c0-1.57 0-3.16 0-4.73zm6.94 8.82c-2.29 0-3.11 1.48-3.11 4.45 0 2.44.73 4.31 3.06 4.31 2 0 3.13-1.82 3.13-4.56 0-2.44-.92-4.2-3.08-4.2z"/><path d="m238.05 395.9c0 4.4-2.63 7.62-7.22 7.62s-7.11-3.22-7.11-7.54c0-4.48 2.71-7.64 7.3-7.64 4.26 0 7.03 3.02 7.03 7.56zm-10.27 0c0 2.8 1.2 4.45 3.13 4.45s3.09-1.62 3.09-4.35c0-3-1.12-4.46-3.13-4.46-1.87-.04-3.09 1.34-3.09 4.39z"/><path d="m253.7 399v4.2h-3.92c-.05-.39-.08-1.18-.11-1.68a4.14 4.14 0 0 1 -4 2c-2.94 0-4.82-1.8-4.82-5.38v-9.46h4v8.65c0 1.59.51 2.91 2.24 2.91s2.58-1 2.58-3.84v-7.72h4z"/><path d="m256.05 388.68h2.24v-3.92h4v3.92h2.85v3h-2.84v7.17c0 1.09.33 1.51 1.54 1.51h.89v2.75a8.65 8.65 0 0 1 -2.68.28c-2.83 0-3.76-1.52-3.76-4.06v-7.63h-2.24z"/><path d="m273.27 388.68h2.24v-3.92h4v3.92h2.85v3h-2.85v7.17c0 1.09.33 1.51 1.54 1.51h.89v2.75a8.65 8.65 0 0 1 -2.68.28c-2.83 0-3.76-1.52-3.76-4.06v-7.63h-2.24z"/><path d="m289 382.74v7.67a4.58 4.58 0 0 1 4.14-2.07c2.69 0 4.85 1.62 4.85 5.54v9.3h-4v-8.71c0-1.87-.67-2.88-2.35-2.88-2.24 0-2.66 1.68-2.66 3.89v7.7h-4v-20.44z"/><path d="m304.94 396.8c0 1.82.93 3.58 2.91 3.58a2.32 2.32 0 0 0 2.55-1.54h4c-.51 1.76-2.1 4.68-6.64 4.68-4.79 0-6.86-3.56-6.86-7.37 0-4.56 2.32-7.81 7-7.81 5 0 6.66 3.61 6.66 7.22a9.56 9.56 0 0 1 -.05 1.24zm5.6-2.47c0-1.68-.7-3.11-2.66-3.11s-2.69 1.32-2.85 3.11z"/><path d="m327.31 398.81a2.51 2.51 0 0 0 2.75 1.82c1.48 0 2-.53 2-1.43s-.61-1.28-2.68-1.79c-4.74-1.17-5.49-2.63-5.49-4.67s1.48-4.4 5.85-4.4 5.91 2.41 6 4.37h-3.74c-.14-.53-.5-1.54-2.38-1.54-1.31 0-1.76.59-1.76 1.23s.45 1.06 2.8 1.62c4.84 1.12 5.54 2.78 5.54 4.9 0 2.41-1.85 4.6-6.24 4.6s-6.22-2.13-6.55-4.71z"/><path d="m338.93 386.32v-3.58h4v3.58zm0 2.36h4v14.5h-4z"/><path d="m345.74 400.16 7.16-8.32h-6.83v-3.16h11.37v3.13l-7 8.21h7.53l-.47 3.16h-11.76z"/><path d="m363.74 396.8c0 1.82.93 3.58 2.91 3.58a2.32 2.32 0 0 0 2.55-1.54h4c-.51 1.76-2.11 4.68-6.64 4.68-4.79 0-6.86-3.56-6.86-7.37 0-4.56 2.32-7.81 7-7.81 5 0 6.66 3.61 6.66 7.22a9.56 9.56 0 0 1 -.05 1.24zm5.6-2.47c0-1.68-.7-3.11-2.66-3.11s-2.69 1.32-2.85 3.11z"/><path d="m395.18 399.43a33 33 0 0 0 .2 3.75h-3.84a5.75 5.75 0 0 1 -.19-1.43c-.53.81-1.51 1.77-4.09 1.77-3.5 0-5-2.3-5-4.54 0-3.3 2.64-4.84 6.89-4.84h2.07v-.87c0-1-.36-2-2.24-2-1.68 0-2.07.7-2.24 1.77h-3.74c.19-2.58 1.79-4.65 6.21-4.65 3.87 0 6 1.54 6 5zm-3.92-2.86h-1.62c-2.44 0-3.33.76-3.33 2.16a1.87 1.87 0 0 0 2.1 1.93c2.55 0 2.85-1.79 2.85-3.7z"/><path d="m399 392.34c0-1.23 0-2.57 0-3.66h3.89c.08.39.14 1.4.17 1.84a4.41 4.41 0 0 1 4.2-2.18c2.91 0 4.78 2 4.78 5.63v9.21h-4v-8.76c0-1.66-.53-2.83-2.32-2.83s-2.66 1-2.66 3.53v8.06h-4z"/><path d="m429 382.74v16.46 4h-3.84c-.08-.45-.17-1.18-.19-1.51-.71 1.15-2 1.85-4.12 1.85-3.67 0-6-2.94-6-7.48s2.46-7.7 6.58-7.7c2.1 0 3.22.76 3.53 1.4v-7zm-6.92 17.56c2.75 0 3.08-2.3 3.08-4.37 0-2.49-.36-4.37-3-4.37-2.1 0-3.17 1.65-3.17 4.4s1.08 4.34 3.07 4.34z"/><path d="m4.28 461.81a2.51 2.51 0 0 0 2.72 1.82c1.48 0 2-.53 2-1.43s-.61-1.28-2.68-1.79c-4.74-1.17-5.49-2.63-5.49-4.67s1.48-4.4 5.85-4.4 5.91 2.41 6 4.37h-3.75c-.14-.53-.5-1.54-2.38-1.54-1.31 0-1.76.59-1.76 1.23s.45 1.06 2.8 1.62c4.84 1.12 5.54 2.78 5.54 4.9 0 2.41-1.85 4.6-6.24 4.6s-6.22-2.13-6.55-4.71z"/><path d="m19.94 445.74v7.67a4.56 4.56 0 0 1 4.14-2.07c2.69 0 4.84 1.62 4.84 5.54v9.3h-3.92v-8.71c0-1.87-.67-2.88-2.35-2.88-2.24 0-2.66 1.68-2.66 3.89v7.7h-4v-20.44z"/><path d="m44.72 462.43a33.66 33.66 0 0 0 .19 3.75h-3.83a5.31 5.31 0 0 1 -.2-1.43c-.53.81-1.51 1.77-4.09 1.77-3.5 0-4.95-2.3-4.95-4.54 0-3.3 2.63-4.84 6.88-4.84h2.08v-.87c0-1-.37-2-2.24-2-1.68 0-2.08.7-2.24 1.77h-3.81c.19-2.58 1.79-4.65 6.21-4.65 3.87 0 6 1.54 6 5zm-3.92-2.86h-1.63c-2.43 0-3.33.76-3.33 2.16a1.87 1.87 0 0 0 2.1 1.93c2.55 0 2.86-1.79 2.86-3.7z"/><path d="m48.47 471.72v-16.54c0-1.18 0-2.33 0-3.5h3.89a15.53 15.53 0 0 1 .14 1.82 4.56 4.56 0 0 1 4.2-2.16c3.28 0 5.77 2.74 5.77 7.22 0 5.13-2.8 8-6.3 8a4.06 4.06 0 0 1 -3.67-1.63v6.83zm6.91-17.16c-2.26 0-3.08 1.48-3.08 4.4s.76 4.36 2.92 4.36 3.16-1.65 3.16-4.59c0-2.66-1.06-4.17-3-4.17z"/><path d="m68.54 459.8c0 1.82.93 3.58 2.92 3.58a2.3 2.3 0 0 0 2.54-1.54h4c-.51 1.76-2.1 4.68-6.64 4.68-4.79 0-6.86-3.56-6.86-7.37 0-4.56 2.32-7.81 7-7.81 5 0 6.66 3.61 6.66 7.22a9.56 9.56 0 0 1 0 1.24zm5.6-2.47c0-1.68-.7-3.11-2.66-3.11s-2.69 1.32-2.85 3.11z"/><path d="m101.44 458.9c0 4.4-2.63 7.62-7.22 7.62s-7.11-3.22-7.11-7.54c0-4.48 2.71-7.64 7.3-7.64 4.26 0 7.03 3.02 7.03 7.56zm-10.27 0c0 2.8 1.2 4.45 3.13 4.45s3.08-1.65 3.08-4.42c0-3-1.12-4.46-3.13-4.46-1.85.03-3.08 1.41-3.08 4.46z"/><path d="m104.89 466.18v-11.48h-2.13v-3h2.13v-1.26c0-3 1.48-5 4.62-5a8.34 8.34 0 0 1 1.84.17v3.16a6.65 6.65 0 0 0 -.84-.05c-1.17 0-1.62.42-1.62 2v1h2.52v3h-2.52v11.48z"/><path d="m119.19 451.68h2.24v-3.92h4v3.92h2.85v3h-2.85v7.17c0 1.09.33 1.51 1.54 1.51h.89v2.75a8.65 8.65 0 0 1 -2.68.28c-2.83 0-3.76-1.52-3.76-4.06v-7.63h-2.24z"/><path d="m135.49 445.74v7.67a4.58 4.58 0 0 1 4.14-2.07c2.69 0 4.85 1.62 4.85 5.54v9.3h-4v-8.71c0-1.87-.67-2.88-2.35-2.88-2.24 0-2.66 1.68-2.66 3.89v7.7h-4v-20.44z"/><path d="m151.42 459.8c0 1.82.93 3.58 2.91 3.58a2.32 2.32 0 0 0 2.55-1.54h4c-.51 1.76-2.1 4.68-6.64 4.68-4.79 0-6.86-3.56-6.86-7.37 0-4.56 2.32-7.81 7-7.81 5 0 6.66 3.61 6.66 7.22a9.56 9.56 0 0 1 -.05 1.24zm5.6-2.47c0-1.68-.7-3.11-2.66-3.11s-2.69 1.32-2.85 3.11z"/><path d="m170.83 471.72v-16.54c0-1.18 0-2.33 0-3.5h3.89a15.53 15.53 0 0 1 .14 1.82 4.55 4.55 0 0 1 4.2-2.16c3.28 0 5.77 2.74 5.77 7.22 0 5.13-2.8 8-6.3 8a4 4 0 0 1 -3.67-1.63v6.83zm6.91-17.16c-2.27 0-3.08 1.48-3.08 4.4s.76 4.36 2.91 4.36 3.17-1.65 3.17-4.59c0-2.66-1.07-4.17-3-4.17z"/><path d="m187.71 455.62c0-1.45 0-2.71 0-3.94h3.95c.06.33.11 1.76.11 2.54a4.69 4.69 0 0 1 4.65-2.88v3.84c-2.91-.09-4.65.7-4.65 4.67v6.33h-4z"/><path d="m212.38 458.9c0 4.4-2.63 7.62-7.23 7.62s-7.15-3.22-7.15-7.52c0-4.48 2.72-7.64 7.31-7.64 4.3-.02 7.07 3 7.07 7.54zm-10.28 0c0 2.8 1.21 4.45 3.14 4.45s3.08-1.65 3.08-4.42c0-3-1.12-4.46-3.14-4.46-1.85.03-3.08 1.41-3.08 4.46z"/><path d="m219.29 451.68v14.19c0 4.15-.84 6.13-4.81 6.13-.37 0-.9 0-1.24-.05v-3.22a1.58 1.58 0 0 0 .37 0c1.29 0 1.65-.51 1.65-2.08v-15zm-4-2.36v-3.58h4v3.58z"/><path d="m226.21 459.8c0 1.82.92 3.58 2.91 3.58a2.32 2.32 0 0 0 2.55-1.54h4c-.5 1.76-2.1 4.68-6.63 4.68-4.79 0-6.86-3.56-6.86-7.37 0-4.56 2.32-7.81 7-7.81 4.95 0 6.66 3.61 6.66 7.22a8 8 0 0 1 -.06 1.24zm5.6-2.47c0-1.68-.7-3.11-2.66-3.11s-2.69 1.32-2.86 3.11z"/><path d="m251.24 461.5c-.48 2.41-2.18 5-6.5 5-4.5 0-6.83-3.11-6.83-7.48s2.61-7.7 7-7.7c4.87 0 6.24 3.53 6.3 5.15h-3.89a2.27 2.27 0 0 0 -2.49-2c-1.85 0-2.89 1.6-2.89 4.4 0 3.11 1.12 4.51 2.86 4.51a2.46 2.46 0 0 0 2.49-1.91z"/><path d="m252.53 451.68h2.24v-3.92h4v3.92h2.86v3h-2.86v7.17c0 1.09.34 1.51 1.54 1.51h.9v2.75a8.74 8.74 0 0 1 -2.69.28c-2.83 0-3.75-1.52-3.75-4.06v-7.63h-2.24z"/><path d="m263.81 466.18v-4.93h4.29v4.93z"/><path d="m4.93 529.18-4.93-19.29h4.45c1.82 8.85 2.63 12.79 2.86 14.92.72-3.55 2.6-10.27 3.72-14.92h3.75c1 3.69 2.94 11.17 3.59 14.73.65-4.26 2.52-11.74 3.22-14.73h4l-5.21 19.29h-4.25c-1-4.28-2.72-10.53-3.39-13.83-.7 3.44-2.43 9.94-3.47 13.83z"/><path d="m31.28 522.8c0 1.82.92 3.58 2.91 3.58a2.32 2.32 0 0 0 2.55-1.54h4c-.5 1.76-2.1 4.68-6.64 4.68-4.78 0-6.86-3.56-6.86-7.37 0-4.56 2.33-7.81 7-7.81 5 0 6.67 3.61 6.67 7.22a8 8 0 0 1 -.06 1.24zm5.6-2.47c0-1.68-.7-3.11-2.66-3.11s-2.69 1.32-2.86 3.11z"/><path d="m64.18 521.9c0 4.4-2.64 7.62-7.23 7.62s-7.11-3.22-7.11-7.54c0-4.48 2.72-7.64 7.31-7.64 4.25 0 7.03 3.02 7.03 7.56zm-10.28 0c0 2.8 1.2 4.45 3.14 4.45s3.08-1.65 3.08-4.42c0-3-1.12-4.46-3.14-4.46-1.85.03-3.08 1.41-3.08 4.46z"/><path d="m67.09 518.34c0-1.23 0-2.57 0-3.66h3.91a17.69 17.69 0 0 1 .17 1.84 4.42 4.42 0 0 1 4.2-2.18c2.91 0 4.79 2 4.79 5.63v9.21h-4v-8.76c0-1.66-.53-2.83-2.32-2.83s-2.66.95-2.66 3.53v8.06h-4z"/><path d="m83.8 529.18v-20.44h4v20.44z"/><path d="m94.22 514.68c1.48 5 2.8 9.46 3 10.8.31-1.45 1.18-4.7 2.88-10.8h4l-4.81 14.92c-1.38 4.17-2.55 5.4-6 5.4a16.47 16.47 0 0 1 -1.88-.11v-3.22c.28 0 .7.06 1 .06 1.48 0 2.21-.51 2.77-2.1l-5.29-15z"/><path d="m125.69 524.5c-.48 2.41-2.18 5-6.5 5-4.5 0-6.83-3.11-6.83-7.48s2.61-7.7 7-7.7c4.87 0 6.24 3.53 6.3 5.15h-3.86a2.27 2.27 0 0 0 -2.49-2c-1.85 0-2.89 1.6-2.89 4.4 0 3.11 1.12 4.51 2.86 4.51a2.46 2.46 0 0 0 2.49-1.91z"/><path d="m140.42 525.43a33.66 33.66 0 0 0 .19 3.75h-3.83a5.74 5.74 0 0 1 -.2-1.43c-.53.81-1.51 1.77-4.09 1.77-3.5 0-5-2.3-5-4.54 0-3.3 2.63-4.84 6.89-4.84h2.07v-.87c0-1-.37-2-2.24-2-1.68 0-2.07.7-2.24 1.77h-3.81c.2-2.58 1.79-4.65 6.22-4.65 3.86 0 6 1.54 6 5zm-3.92-2.86h-1.63c-2.43 0-3.33.76-3.33 2.16a1.88 1.88 0 0 0 2.1 1.93c2.55 0 2.86-1.79 2.86-3.7z"/><path d="m144.17 518.62c0-1.45 0-2.71 0-3.94h4c.06.33.11 1.76.11 2.54a4.69 4.69 0 0 1 4.65-2.88v3.84c-2.91-.09-4.65.7-4.65 4.67v6.33h-4z"/><path d="m158.53 522.8c0 1.82.93 3.58 2.92 3.58a2.3 2.3 0 0 0 2.54-1.54h4c-.51 1.76-2.1 4.68-6.64 4.68-4.79 0-6.86-3.56-6.86-7.37 0-4.56 2.33-7.81 7-7.81 5 0 6.67 3.61 6.67 7.22a8 8 0 0 1 -.06 1.24zm5.6-2.47c0-1.68-.7-3.11-2.66-3.11s-2.68 1.32-2.85 3.11z"/><path d="m190 525.43a33.66 33.66 0 0 0 .19 3.75h-3.83a5.31 5.31 0 0 1 -.2-1.43c-.53.81-1.51 1.77-4.09 1.77-3.5 0-5-2.3-5-4.54 0-3.3 2.63-4.84 6.88-4.84h2.08v-.87c0-1-.37-2-2.24-2-1.68 0-2.08.7-2.24 1.77h-3.81c.19-2.58 1.79-4.65 6.21-4.65 3.87 0 6 1.54 6 5zm-3.92-2.86h-1.63c-2.43 0-3.33.76-3.33 2.16a1.87 1.87 0 0 0 2.1 1.93c2.55 0 2.86-1.79 2.86-3.7z"/><path d="m193.73 508.74h4v7.48c.59-.93 1.79-1.88 4.14-1.88 3.95 0 5.91 3.28 5.91 7.34s-2.13 7.84-6.3 7.84c-2.15 0-3.11-.65-3.81-1.71a6.87 6.87 0 0 1 -.16 1.37h-3.81c0-1.57 0-3.16 0-4.73zm6.94 8.82c-2.29 0-3.11 1.48-3.11 4.45 0 2.44.73 4.31 3.06 4.31 2 0 3.13-1.82 3.13-4.56 0-2.44-.92-4.2-3.08-4.2z"/><path d="m224.19 521.9c0 4.4-2.63 7.62-7.22 7.62s-7.11-3.22-7.11-7.54c0-4.48 2.71-7.64 7.3-7.64 4.26 0 7.03 3.02 7.03 7.56zm-10.27 0c0 2.8 1.2 4.45 3.13 4.45s3.08-1.65 3.08-4.42c0-3-1.12-4.46-3.13-4.46-1.85.03-3.08 1.41-3.08 4.46z"/><path d="m239.84 525v4.2h-3.84c0-.39-.08-1.18-.11-1.68a4.14 4.14 0 0 1 -4 2c-2.94 0-4.82-1.8-4.82-5.38v-9.46h4v8.65c0 1.59.51 2.91 2.24 2.91s2.58-1 2.58-3.84v-7.72h4z"/><path d="m242.2 514.68h2.24v-3.92h4v3.92h2.86v3h-2.86v7.17c0 1.09.34 1.51 1.54 1.51h.9v2.75a8.74 8.74 0 0 1 -2.69.28c-2.83 0-3.75-1.52-3.75-4.06v-7.63h-2.24z"/><path d="m260.81 518.43c0-1.26 0-2.49 0-3.75h3.83c.06.36.14 1.17.17 1.73a4.56 4.56 0 0 1 4-2.07 3.83 3.83 0 0 1 3.73 2.21 5.09 5.09 0 0 1 4.48-2.21c2.52 0 4.59 1.57 4.59 5.32v9.52h-3.91v-9c0-1.31-.48-2.6-2.13-2.6s-2.35 1.12-2.35 3.33v8.29h-4v-8.9c0-1.48-.36-2.71-2.07-2.71s-2.41 1-2.41 3.5v8.09h-4z"/><path d="m297.38 525.43a30.73 30.73 0 0 0 .2 3.75h-3.84a5.75 5.75 0 0 1 -.19-1.43c-.54.81-1.52 1.77-4.09 1.77-3.5 0-5-2.3-5-4.54 0-3.3 2.63-4.84 6.89-4.84h2.07v-.87c0-1-.36-2-2.24-2-1.68 0-2.07.7-2.24 1.77h-3.81c.2-2.58 1.8-4.65 6.22-4.65 3.86 0 6 1.54 6 5zm-3.92-2.86h-1.62c-2.44 0-3.33.76-3.33 2.16a1.87 1.87 0 0 0 2.1 1.93c2.54 0 2.85-1.79 2.85-3.7z"/><path d="m305.17 520.81c1.06-1.46 3-3.7 5-6.13h4.59l-5 5.48 5.52 9h-4.54l-3.74-6.42-1.84 1.79v4.65h-4v-20.44h4z"/><path d="m316.87 512.32v-3.58h4v3.58zm0 2.36h4v14.5h-4z"/><path d="m324.65 518.34c0-1.23 0-2.57 0-3.66h3.9a17.74 17.74 0 0 1 .16 1.84 4.43 4.43 0 0 1 4.2-2.18c2.92 0 4.79 2 4.79 5.63v9.21h-4v-8.76c0-1.66-.53-2.83-2.33-2.83s-2.66.95-2.66 3.53v8.06h-4z"/><path d="m354.56 527.42c0 4.64-1.71 7.58-7.2 7.58-5.29 0-6.33-2.94-6.47-4.59h4.11a2.29 2.29 0 0 0 2.55 1.68c2.6 0 3.11-1.59 3.11-4.42v-.67a4.29 4.29 0 0 1 -4.09 2c-3.81 0-6-3.13-6-7 0-4.53 2.71-7.64 6.32-7.64 2.5 0 3.53 1.18 3.76 1.85 0-.39.14-1.26.16-1.51h3.78v4.17zm-6.86-1.66c2.4 0 3.05-1.65 3.05-4.08s-.42-4.12-3-4.12c-1.74 0-3.11 1.34-3.11 4.26.03 2.49 1.29 3.94 3.06 3.94z"/><path d="m378.35 527.42c0 4.64-1.7 7.58-7.19 7.58-5.29 0-6.33-2.94-6.47-4.59h4.09a2.29 2.29 0 0 0 2.55 1.68c2.6 0 3.11-1.59 3.11-4.42v-.67a4.29 4.29 0 0 1 -4.09 2c-3.81 0-6-3.13-6-7 0-4.53 2.71-7.64 6.32-7.64 2.5 0 3.53 1.18 3.76 1.85 0-.39.14-1.26.16-1.51h3.78v4.17zm-6.85-1.66c2.4 0 3.05-1.65 3.05-4.08s-.42-4.12-3-4.12c-1.74 0-3.11 1.34-3.11 4.26.03 2.49 1.29 3.94 3.06 3.94z"/><path d="m382.05 518.62c0-1.45 0-2.71 0-3.94h4c.06.33.11 1.76.11 2.54a4.69 4.69 0 0 1 4.65-2.88v3.84c-2.91-.09-4.65.7-4.65 4.67v6.33h-4z"/><path d="m396.42 522.8c0 1.82.92 3.58 2.91 3.58a2.32 2.32 0 0 0 2.55-1.54h4c-.5 1.76-2.1 4.68-6.64 4.68-4.78 0-6.86-3.56-6.86-7.37 0-4.56 2.33-7.81 7-7.81 5 0 6.67 3.61 6.67 7.22a8 8 0 0 1 -.06 1.24zm5.6-2.47c0-1.68-.7-3.11-2.66-3.11s-2.69 1.32-2.86 3.11z"/><path d="m420.94 525.43a33 33 0 0 0 .2 3.75h-3.84a5.75 5.75 0 0 1 -.19-1.43c-.53.81-1.51 1.77-4.09 1.77-3.5 0-5-2.3-5-4.54 0-3.3 2.64-4.84 6.89-4.84h2.09v-.87c0-1-.36-2-2.24-2-1.68 0-2.07.7-2.24 1.77h-3.8c.19-2.58 1.79-4.65 6.21-4.65 3.87 0 6 1.54 6 5zm-3.94-2.86h-1.6c-2.44 0-3.33.76-3.33 2.16a1.87 1.87 0 0 0 2.1 1.93c2.55 0 2.85-1.79 2.85-3.7z"/><path d="m423.3 514.68h2.24v-3.92h4v3.92h2.86v3h-2.86v7.17c0 1.09.34 1.51 1.54 1.51h.9v2.75a8.74 8.74 0 0 1 -2.69.28c-2.83 0-3.75-1.52-3.75-4.06v-7.63h-2.24z"/><path d="m444.88 524.81a2.51 2.51 0 0 0 2.75 1.82c1.48 0 2-.53 2-1.43s-.61-1.28-2.68-1.79c-4.74-1.17-5.49-2.63-5.49-4.67s1.48-4.4 5.85-4.4 5.91 2.41 6 4.37h-3.81c-.14-.53-.5-1.54-2.38-1.54-1.31 0-1.76.59-1.76 1.23s.45 1.06 2.8 1.62c4.84 1.12 5.54 2.78 5.54 4.9 0 2.41-1.85 4.6-6.24 4.6s-6.22-2.13-6.55-4.71z"/><path d="m455.1 514.68h2.24v-3.92h4v3.92h2.85v3h-2.85v7.17c0 1.09.33 1.51 1.54 1.51h.89v2.75a8.68 8.68 0 0 1 -2.69.28c-2.82 0-3.75-1.52-3.75-4.06v-7.63h-2.23z"/><path d="m479.57 525v4.2h-3.92c-.05-.39-.08-1.18-.11-1.68a4.14 4.14 0 0 1 -4 2c-2.94 0-4.82-1.8-4.82-5.38v-9.46h4v8.65c0 1.59.51 2.91 2.24 2.91s2.58-1 2.58-3.84v-7.72h4z"/><path d="m487.89 517.7v11.48h-4v-11.48h-2.13v-3h2.13v-1.29c0-3 1.31-4.93 4.7-4.93a5.58 5.58 0 0 1 1.62.2v3.1a5.92 5.92 0 0 0 -.92-.08c-1.09 0-1.4.67-1.4 1.82v1.18h4.45v-1.29c0-3 1.37-4.93 4.73-4.93a5.66 5.66 0 0 1 1.63.2v3.1a6.15 6.15 0 0 0 -.93-.08c-1.09 0-1.4.67-1.4 1.82v1.18h2.53v3h-2.53v11.48h-4v-11.48z"/><path d="m499.54 532.43a24 24 0 0 0 2.07-8.18h4.12a16.24 16.24 0 0 1 -3.08 8.18z"/><path d="m13.36 588.43a33.66 33.66 0 0 0 .19 3.75h-3.83a5.31 5.31 0 0 1 -.2-1.43c-.53.81-1.51 1.77-4.09 1.77-3.5 0-4.95-2.3-4.95-4.54 0-3.3 2.63-4.84 6.88-4.84h2.08v-.87c0-1-.37-2-2.24-2-1.68 0-2.08.7-2.24 1.77h-3.81c.19-2.58 1.79-4.65 6.21-4.65 3.87 0 6 1.54 6 5zm-3.92-2.86h-1.63c-2.43 0-3.33.76-3.33 2.16a1.87 1.87 0 0 0 2.1 1.93c2.55 0 2.86-1.79 2.86-3.7z"/><path d="m17.14 581.34c0-1.23 0-2.57 0-3.66h3.86c.08.39.14 1.4.17 1.84a4.41 4.41 0 0 1 4.2-2.18c2.91 0 4.79 2 4.79 5.63v9.21h-4v-8.76c0-1.66-.53-2.83-2.32-2.83s-2.66.95-2.66 3.53v8.06h-4z"/><path d="m47.15 571.74v16.46 4h-3.81c-.08-.45-.17-1.18-.19-1.51-.7 1.15-2 1.85-4.12 1.85-3.67 0-6-2.94-6-7.48s2.46-7.7 6.58-7.7c2.1 0 3.22.76 3.53 1.4v-7zm-6.92 17.56c2.75 0 3.08-2.3 3.08-4.37 0-2.49-.36-4.37-3-4.37-2.1 0-3.16 1.65-3.16 4.4s1.1 4.34 3.08 4.34z"/><path d="m60.67 577.68c1.32 5.82 2 9.12 2.3 10.94h.03c.3-1.62.72-3.89 2.49-10.94h3.72c1.63 7.14 2.13 9.24 2.33 10.78.31-1.49.76-3.64 2.44-10.78h4l-4.32 14.5h-4.25c-1.2-5.49-1.88-8.4-2.21-10.3-.22 1.82-1 5.09-2.3 10.3h-4.34l-4.11-14.5z"/><path d="m83.61 585.8c0 1.82.92 3.58 2.91 3.58a2.32 2.32 0 0 0 2.55-1.54h4c-.5 1.76-2.1 4.68-6.64 4.68-4.78 0-6.86-3.56-6.86-7.37 0-4.56 2.33-7.81 7-7.81 5 0 6.67 3.61 6.67 7.22a8 8 0 0 1 -.06 1.24zm5.6-2.47c0-1.68-.7-3.11-2.66-3.11s-2.69 1.32-2.86 3.11z"/><path d="m95.37 580.06a38.07 38.07 0 0 0 1.31-8.32h4.23a23.73 23.73 0 0 1 -2.32 8.32z"/><path d="m103.4 581.62c0-1.45 0-2.71 0-3.94h3.95c.06.33.11 1.76.11 2.54a4.69 4.69 0 0 1 4.65-2.88v3.84c-2.91-.09-4.65.7-4.65 4.67v6.33h-4z"/><path d="m117.77 585.8c0 1.82.92 3.58 2.91 3.58a2.32 2.32 0 0 0 2.55-1.54h4c-.5 1.76-2.1 4.68-6.64 4.68-4.78 0-6.86-3.56-6.86-7.37 0-4.56 2.33-7.81 7-7.81 5 0 6.67 3.61 6.67 7.22a8 8 0 0 1 -.06 1.24zm5.6-2.47c0-1.68-.7-3.11-2.66-3.11s-2.69 1.32-2.86 3.11z"/><path d="m149.21 588.43a33.66 33.66 0 0 0 .19 3.75h-3.83a5.74 5.74 0 0 1 -.2-1.43c-.53.81-1.51 1.77-4.09 1.77-3.5 0-4.95-2.3-4.95-4.54 0-3.3 2.63-4.84 6.89-4.84h2.07v-.87c0-1-.37-2-2.24-2-1.68 0-2.07.7-2.24 1.77h-3.81c.2-2.58 1.79-4.65 6.22-4.65 3.86 0 6 1.54 6 5zm-3.92-2.86h-1.63c-2.43 0-3.33.76-3.33 2.16a1.88 1.88 0 0 0 2.1 1.93c2.55 0 2.86-1.79 2.86-3.7z"/><path d="m153 592.18v-20.44h4v20.44z"/><path d="m163.63 577.68c1.31 5.82 2 9.12 2.29 10.94h.08c.31-1.62.73-3.89 2.49-10.94h3.73c1.62 7.14 2.12 9.24 2.32 10.78.31-1.49.75-3.64 2.43-10.78h4l-4.31 14.5h-4.29c-1.2-5.49-1.87-8.4-2.21-10.3-.22 1.82-1 5.09-2.29 10.3h-4.31l-4.12-14.5z"/><path d="m195.41 588.43a33.66 33.66 0 0 0 .19 3.75h-3.83a5.74 5.74 0 0 1 -.2-1.43c-.53.81-1.51 1.77-4.09 1.77-3.5 0-4.95-2.3-4.95-4.54 0-3.3 2.63-4.84 6.89-4.84h2.07v-.87c0-1-.37-2-2.24-2-1.68 0-2.07.7-2.24 1.77h-3.81c.2-2.58 1.79-4.65 6.22-4.65 3.86 0 6 1.54 6 5zm-3.92-2.86h-1.63c-2.43 0-3.33.76-3.33 2.16a1.88 1.88 0 0 0 2.1 1.93c2.55 0 2.86-1.79 2.86-3.7z"/><path d="m201.82 577.68c1.48 5 2.8 9.46 3 10.8.31-1.45 1.18-4.7 2.89-10.8h4l-4.87 14.92c-1.37 4.17-2.55 5.4-6 5.4a16.47 16.47 0 0 1 -1.88-.11v-3.22c.28 0 .7.06 1 .06 1.48 0 2.21-.51 2.77-2.1l-5.29-15z"/><path d="m216.8 587.81a2.51 2.51 0 0 0 2.74 1.82c1.49 0 2-.53 2-1.43s-.62-1.28-2.69-1.79c-4.73-1.17-5.49-2.63-5.49-4.67s1.49-4.4 5.86-4.4 5.9 2.41 6 4.37h-3.81c-.14-.53-.51-1.54-2.38-1.54-1.32 0-1.77.59-1.77 1.23s.45 1.06 2.8 1.62c4.85 1.12 5.55 2.78 5.55 4.9 0 2.41-1.85 4.6-6.25 4.6s-6.21-2.13-6.55-4.71z"/><path d="m235.33 592.18v-20.44h4v20.44z"/><path d="m256.59 584.9c0 4.4-2.63 7.62-7.23 7.62s-7.11-3.22-7.11-7.54c0-4.48 2.72-7.64 7.31-7.64 4.25 0 7.03 3.02 7.03 7.56zm-10.28 0c0 2.8 1.2 4.45 3.14 4.45s3.08-1.65 3.08-4.42c0-3-1.12-4.46-3.14-4.46-1.85.03-3.08 1.41-3.08 4.46z"/><path d="m273 584.9c0 4.4-2.64 7.62-7.23 7.62s-7.11-3.22-7.11-7.54c0-4.48 2.72-7.64 7.31-7.64 4.22 0 7.03 3.02 7.03 7.56zm-10.28 0c0 2.8 1.2 4.45 3.14 4.45s3.07-1.65 3.07-4.42c0-3-1.11-4.46-3.13-4.46-1.88.03-3.11 1.41-3.11 4.46z"/><path d="m279.88 583.81c1.06-1.46 3-3.7 5-6.13h4.6l-5 5.48 5.51 9h-4.59l-3.67-6.44-1.85 1.79v4.65h-4v-20.42h4z"/><path d="m291.58 575.32v-3.58h4v3.58zm0 2.36h4v14.5h-4z"/><path d="m299.37 581.34c0-1.23 0-2.57 0-3.66h3.89c.08.39.14 1.4.17 1.84a4.42 4.42 0 0 1 4.2-2.18c2.91 0 4.79 2 4.79 5.63v9.21h-4v-8.76c0-1.66-.53-2.83-2.32-2.83s-2.66.95-2.66 3.53v8.06h-4z"/><path d="m329.27 590.42c0 4.64-1.71 7.58-7.19 7.58-5.3 0-6.33-2.94-6.47-4.59h4.09a2.28 2.28 0 0 0 2.54 1.68c2.61 0 3.11-1.59 3.11-4.42v-.67a4.28 4.28 0 0 1 -4.09 2c-3.8 0-6-3.13-6-7 0-4.53 2.72-7.64 6.33-7.64 2.49 0 3.53 1.18 3.75 1.85 0-.39.14-1.26.17-1.51h3.78v4.17zm-6.86-1.66c2.41 0 3-1.65 3-4.08s-.42-4.12-3-4.12c-1.74 0-3.11 1.34-3.11 4.26.09 2.49 1.35 3.94 3.11 3.94z"/><path d="m340.44 592.18v-11.48h-2.13v-3h2.13v-1.26c0-3 1.49-5 4.62-5a8.37 8.37 0 0 1 1.85.17v3.16a6.65 6.65 0 0 0 -.84 0c-1.17 0-1.62.42-1.62 2v1h2.55v3h-2.52v11.48z"/><path d="m362.73 584.9c0 4.4-2.63 7.62-7.22 7.62s-7.11-3.22-7.11-7.54c0-4.48 2.71-7.64 7.3-7.64 4.3 0 7.03 3.02 7.03 7.56zm-10.28 0c0 2.8 1.21 4.45 3.14 4.45s3.08-1.65 3.08-4.42c0-3-1.12-4.46-3.14-4.46-1.84.03-3.08 1.41-3.08 4.46z"/><path d="m365.61 581.62c0-1.45 0-2.71 0-3.94h3.94c.06.33.12 1.76.12 2.54a4.66 4.66 0 0 1 4.64-2.88v3.84c-2.91-.09-4.64.7-4.64 4.67v6.33h-4z"/><path d="m4.28 650.81a2.51 2.51 0 0 0 2.72 1.82c1.48 0 2-.53 2-1.43s-.61-1.28-2.68-1.79c-4.74-1.17-5.49-2.63-5.49-4.67s1.48-4.4 5.85-4.4 5.91 2.41 6 4.37h-3.75c-.14-.53-.5-1.54-2.38-1.54-1.31 0-1.76.59-1.76 1.23s.45 1.06 2.8 1.62c4.84 1.12 5.54 2.78 5.54 4.9 0 2.41-1.85 4.6-6.24 4.6s-6.22-2.13-6.55-4.71z"/><path d="m28.67 651v4.2h-3.89c-.06-.39-.08-1.18-.11-1.68a4.15 4.15 0 0 1 -4 2c-2.94 0-4.81-1.8-4.81-5.38v-9.46h4v8.65c0 1.59.51 2.91 2.24 2.91s2.58-1 2.58-3.84v-7.72h4z"/><path d="m45 650.5c-.48 2.41-2.19 5-6.5 5-4.51 0-6.83-3.11-6.83-7.48s2.6-7.7 7-7.7c4.87 0 6.24 3.53 6.3 5.15h-3.89a2.28 2.28 0 0 0 -2.5-2c-1.84 0-2.88 1.6-2.88 4.4 0 3.11 1.12 4.51 2.86 4.51a2.47 2.47 0 0 0 2.49-1.91z"/><path d="m51.69 634.74v7.67a4.56 4.56 0 0 1 4.14-2.07c2.69 0 4.85 1.62 4.85 5.54v9.3h-4v-8.71c0-1.87-.67-2.88-2.35-2.88-2.24 0-2.66 1.68-2.66 3.89v7.7h-4v-20.44z"/><path d="m71.34 655.18v-20.44h4v20.44z"/><path d="m79.1 638.32v-3.58h4v3.58zm0 2.36h4v14.5h-4z"/><path d="m90.89 646.81c1.06-1.46 3-3.7 5-6.13h4.59l-5 5.48 5.52 9h-4.6l-3.67-6.44-1.84 1.79v4.65h-4v-20.42h4z"/><path d="m105.78 648.8c0 1.82.93 3.58 2.91 3.58a2.32 2.32 0 0 0 2.55-1.54h4c-.51 1.76-2.1 4.68-6.64 4.68-4.79 0-6.86-3.56-6.86-7.37 0-4.56 2.32-7.81 7-7.81 5 0 6.66 3.61 6.66 7.22a9.56 9.56 0 0 1 0 1.24zm5.6-2.47c0-1.68-.7-3.11-2.66-3.11s-2.69 1.32-2.85 3.11z"/><path d="m126.33 646.22v3.5h-7.78v-3.5z"/><path d="m130.34 644.43c0-1.26 0-2.49 0-3.75h3.84c0 .36.14 1.17.16 1.73a4.58 4.58 0 0 1 4-2.07 3.81 3.81 0 0 1 3.72 2.21 5.1 5.1 0 0 1 4.48-2.21c2.52 0 4.59 1.57 4.59 5.32v9.52h-3.92v-9c0-1.31-.47-2.6-2.13-2.6s-2.35 1.12-2.35 3.33v8.29h-4v-8.9c0-1.48-.36-2.71-2.07-2.71s-2.41 1-2.41 3.5v8.09h-4z"/><path d="m154.87 638.32v-3.58h4v3.58zm0 2.36h4v14.5h-4z"/><path d="m162.65 644.34c0-1.23 0-2.57 0-3.66h3.89a17.69 17.69 0 0 1 .17 1.84 4.42 4.42 0 0 1 4.2-2.18c2.91 0 4.79 2 4.79 5.63v9.21h-4v-8.76c0-1.66-.53-2.83-2.32-2.83s-2.66.95-2.66 3.53v8.06h-4z"/><path d="m192.66 634.74v16.46 4h-3.83c-.09-.45-.17-1.18-.2-1.51-.7 1.15-2 1.85-4.12 1.85-3.66 0-6-2.94-6-7.48s2.47-7.7 6.58-7.7c2.1 0 3.22.76 3.53 1.4v-7zm-6.91 17.56c2.74 0 3.08-2.3 3.08-4.37 0-2.49-.37-4.37-3-4.37-2.1 0-3.16 1.65-3.16 4.4s1.09 4.34 3.08 4.34z"/><path d="m199.55 648.8c0 1.82.93 3.58 2.91 3.58a2.32 2.32 0 0 0 2.55-1.54h4c-.51 1.76-2.1 4.68-6.64 4.68-4.79 0-6.86-3.56-6.86-7.37 0-4.56 2.32-7.81 7-7.81 5 0 6.66 3.61 6.66 7.22a9.56 9.56 0 0 1 -.05 1.24zm5.6-2.47c0-1.68-.7-3.11-2.66-3.11s-2.69 1.32-2.85 3.11z"/><path d="m225.34 634.74v16.46 4h-3.84c-.08-.45-.17-1.18-.19-1.51-.7 1.15-2 1.85-4.12 1.85-3.67 0-6-2.94-6-7.48s2.46-7.7 6.58-7.7c2.1 0 3.22.76 3.53 1.4v-7zm-6.92 17.56c2.75 0 3.08-2.3 3.08-4.37 0-2.49-.36-4.37-3-4.37-2.1 0-3.17 1.65-3.17 4.4s1.11 4.34 3.09 4.34z"/><path d="m236 660.72v-16.54c0-1.18 0-2.33 0-3.5h3.9a18 18 0 0 1 .14 1.82 4.54 4.54 0 0 1 4.2-2.16c3.27 0 5.76 2.74 5.76 7.22 0 5.13-2.8 8-6.3 8a4 4 0 0 1 -3.66-1.63v6.83zm6.92-17.16c-2.27 0-3.08 1.48-3.08 4.4 0 2.77.75 4.36 2.91 4.36s3.16-1.65 3.16-4.59c-.05-2.66-1.11-4.17-3.04-4.17z"/><path d="m264.87 651.43a33 33 0 0 0 .2 3.75h-3.84a5.75 5.75 0 0 1 -.19-1.43c-.53.81-1.51 1.77-4.09 1.77-3.5 0-4.95-2.3-4.95-4.54 0-3.3 2.63-4.84 6.88-4.84h2.12v-.87c0-1-.36-2-2.24-2-1.67 0-2.07.7-2.24 1.77h-3.8c.19-2.58 1.79-4.65 6.21-4.65 3.87 0 6 1.54 6 5zm-3.87-2.86h-1.62c-2.44 0-3.33.76-3.33 2.16a1.87 1.87 0 0 0 2.1 1.93c2.55 0 2.85-1.79 2.85-3.7z"/><path d="m268.63 644.62c0-1.45 0-2.71 0-3.94h3.95c.05.33.11 1.76.11 2.54a4.67 4.67 0 0 1 4.65-2.88v3.84c-2.92-.09-4.65.7-4.65 4.67v6.33h-4z"/><path d="m278.4 640.68h2.24v-3.92h4v3.92h2.86v3h-2.86v7.17c0 1.09.34 1.51 1.54 1.51h.9v2.75a8.74 8.74 0 0 1 -2.69.28c-2.83 0-3.75-1.52-3.75-4.06v-7.63h-2.24z"/><path d="m290.13 644.34c0-1.23 0-2.57 0-3.66h3.87a17.69 17.69 0 0 1 .17 1.84 4.42 4.42 0 0 1 4.2-2.18c2.91 0 4.79 2 4.79 5.63v9.21h-4v-8.76c0-1.66-.54-2.83-2.33-2.83s-2.66.95-2.66 3.53v8.06h-4z"/><path d="m310 648.8c0 1.82.92 3.58 2.91 3.58a2.32 2.32 0 0 0 2.55-1.54h4c-.5 1.76-2.1 4.68-6.63 4.68-4.79 0-6.86-3.56-6.86-7.37 0-4.56 2.32-7.81 7-7.81 4.95 0 6.66 3.61 6.66 7.22a8 8 0 0 1 -.06 1.24zm5.6-2.47c0-1.68-.7-3.11-2.66-3.11s-2.69 1.32-2.86 3.11z"/><path d="m322.53 644.62c0-1.45 0-2.71 0-3.94h3.95c.05.33.11 1.76.11 2.54a4.67 4.67 0 0 1 4.65-2.88v3.84c-2.92-.09-4.65.7-4.65 4.67v6.33h-4z"/><path d="m336.67 650.81a2.51 2.51 0 0 0 2.74 1.82c1.49 0 2-.53 2-1.43s-.62-1.28-2.69-1.79c-4.73-1.17-5.49-2.63-5.49-4.67s1.48-4.4 5.85-4.4 5.91 2.41 6 4.37h-3.81c-.14-.53-.5-1.54-2.37-1.54-1.32 0-1.77.59-1.77 1.23s.45 1.06 2.8 1.62c4.84 1.12 5.55 2.78 5.55 4.9 0 2.41-1.85 4.6-6.25 4.6s-6.21-2.13-6.55-4.71z"/><path d="m347.87 655.18v-4.93h4.28v4.93z"/><path d="m1.82 698.89h13.47v3.41h-9.38v4.7h8.79v3.41h-8.79v7.73h-4.09z"/><path d="m31.42 710.9c0 4.4-2.64 7.62-7.23 7.62s-7.11-3.22-7.11-7.54c0-4.48 2.72-7.64 7.31-7.64 4.25 0 7.03 3.02 7.03 7.56zm-10.28 0c0 2.8 1.2 4.45 3.14 4.45s3.08-1.65 3.08-4.42c0-3-1.12-4.46-3.14-4.46-1.85.03-3.08 1.41-3.08 4.46z"/><path d="m34.3 707.62c0-1.45 0-2.71 0-3.94h3.95c.06.33.11 1.76.11 2.54a4.69 4.69 0 0 1 4.64-2.88v3.84c-2.91-.09-4.65.7-4.65 4.67v6.33h-4z"/><path d="m52.42 707.34c0-1.23 0-2.57 0-3.66h3.89c.08.39.14 1.4.17 1.84a4.41 4.41 0 0 1 4.2-2.18c2.91 0 4.79 2 4.79 5.63v9.21h-4v-8.76c0-1.66-.53-2.83-2.32-2.83s-2.66.95-2.66 3.53v8.06h-4z"/><path d="m72.32 711.8c0 1.82.93 3.58 2.91 3.58a2.31 2.31 0 0 0 2.55-1.54h4c-.51 1.76-2.1 4.68-6.64 4.68-4.79 0-6.86-3.56-6.86-7.37 0-4.56 2.32-7.81 7-7.81 5 0 6.66 3.61 6.66 7.22a9.56 9.56 0 0 1 0 1.24zm5.6-2.47c0-1.68-.7-3.11-2.66-3.11s-2.69 1.32-2.85 3.11z"/><path d="m87.72 703.68c1.32 5.82 2 9.12 2.3 10.94.31-1.62.73-3.89 2.5-10.94h3.72c1.62 7.14 2.13 9.24 2.32 10.78.31-1.49.76-3.64 2.44-10.78h4l-4.31 14.5h-4.23c-1.21-5.49-1.88-8.4-2.21-10.3-.23 1.82-1 5.09-2.3 10.3h-4.34l-4.12-14.5z"/><path d="m114.38 697.74h4v7.48c.59-.93 1.79-1.88 4.14-1.88 4 0 5.91 3.28 5.91 7.34s-2.13 7.84-6.3 7.84c-2.15 0-3.11-.65-3.81-1.71a6.87 6.87 0 0 1 -.16 1.37h-3.84c0-1.57 0-3.16 0-4.73zm6.94 8.82c-2.29 0-3.11 1.48-3.11 4.45 0 2.44.73 4.31 3.06 4.31 2 0 3.13-1.82 3.13-4.56 0-2.44-.92-4.2-3.08-4.2z"/><path d="m144.11 714v4.2h-3.92c-.05-.39-.08-1.18-.11-1.68a4.14 4.14 0 0 1 -4 2c-2.94 0-4.82-1.8-4.82-5.38v-9.46h4v8.65c0 1.59.51 2.91 2.24 2.91s2.58-1 2.58-3.84v-7.72h4z"/><path d="m150.83 713.81a2.51 2.51 0 0 0 2.75 1.82c1.48 0 2-.53 2-1.43s-.61-1.28-2.68-1.79c-4.74-1.17-5.49-2.63-5.49-4.67s1.48-4.4 5.85-4.4 5.91 2.41 6 4.37h-3.81c-.14-.53-.5-1.54-2.38-1.54-1.31 0-1.76.59-1.76 1.23s.45 1.06 2.8 1.62c4.84 1.12 5.54 2.78 5.54 4.9 0 2.41-1.85 4.6-6.24 4.6s-6.22-2.13-6.55-4.71z"/><path d="m162.45 701.32v-3.58h4v3.58zm0 2.36h4v14.5h-4z"/><path d="m170.24 707.34c0-1.23 0-2.57 0-3.66h3.89a17.69 17.69 0 0 1 .17 1.84 4.42 4.42 0 0 1 4.2-2.18c2.91 0 4.79 2 4.79 5.63v9.21h-4v-8.76c0-1.66-.53-2.83-2.32-2.83s-2.66.95-2.66 3.53v8.06h-4z"/><path d="m190.15 711.8c0 1.82.92 3.58 2.91 3.58a2.3 2.3 0 0 0 2.54-1.54h4c-.51 1.76-2.1 4.68-6.64 4.68-4.78 0-6.86-3.56-6.86-7.37 0-4.56 2.33-7.81 7-7.81 5 0 6.67 3.61 6.67 7.22a8 8 0 0 1 -.06 1.24zm5.6-2.47c0-1.68-.71-3.11-2.67-3.11s-2.68 1.32-2.85 3.11z"/><path d="m205.6 713.81a2.51 2.51 0 0 0 2.74 1.82c1.49 0 2-.53 2-1.43s-.62-1.28-2.69-1.79c-4.73-1.17-5.49-2.63-5.49-4.67s1.49-4.4 5.86-4.4 5.9 2.41 6 4.37h-3.81c-.14-.53-.51-1.54-2.38-1.54-1.32 0-1.77.59-1.77 1.23s.45 1.06 2.8 1.62c4.85 1.12 5.55 2.78 5.55 4.9 0 2.41-1.85 4.6-6.25 4.6s-6.21-2.13-6.55-4.71z"/><path d="m220.19 713.81a2.51 2.51 0 0 0 2.74 1.82c1.49 0 2-.53 2-1.43s-.62-1.28-2.69-1.79c-4.73-1.17-5.49-2.63-5.49-4.67s1.49-4.4 5.85-4.4 5.91 2.41 6 4.37h-3.8c-.14-.53-.51-1.54-2.38-1.54-1.32 0-1.77.59-1.77 1.23s.45 1.06 2.8 1.62c4.85 1.12 5.55 2.78 5.55 4.9 0 2.41-1.85 4.6-6.25 4.6s-6.21-2.13-6.55-4.71z"/><path d="m230.18 721.43a23.87 23.87 0 0 0 2.08-8.18h4.11a16.15 16.15 0 0 1 -3.08 8.18z"/><path d="m13.86 776.5c-.48 2.41-2.18 5-6.5 5-4.5 0-6.83-3.11-6.83-7.48s2.61-7.7 7-7.7c4.87 0 6.24 3.53 6.3 5.15h-3.83a2.27 2.27 0 0 0 -2.49-2c-1.85 0-2.89 1.6-2.89 4.4 0 3.11 1.12 4.51 2.86 4.51a2.46 2.46 0 0 0 2.49-1.91z"/><path d="m28.59 777.43a33.66 33.66 0 0 0 .19 3.75h-3.78a5.74 5.74 0 0 1 -.2-1.43c-.53.81-1.51 1.77-4.09 1.77-3.5 0-4.95-2.3-4.95-4.54 0-3.3 2.63-4.84 6.89-4.84h2.07v-.87c0-1-.37-2-2.24-2-1.68 0-2.07.7-2.24 1.77h-3.86c.2-2.58 1.79-4.65 6.22-4.65 3.86 0 6 1.54 6 5zm-3.92-2.86h-1.67c-2.43 0-3.33.76-3.33 2.16a1.88 1.88 0 0 0 2.1 1.93c2.55 0 2.86-1.79 2.86-3.7z"/><path d="m32.34 770.62c0-1.45 0-2.71 0-3.94h3.95c.06.33.11 1.76.11 2.54a4.69 4.69 0 0 1 4.6-2.88v3.84c-2.91-.09-4.65.7-4.65 4.67v6.33h-4z"/><path d="m46.7 774.8c0 1.82.93 3.58 2.92 3.58a2.3 2.3 0 0 0 2.54-1.54h4c-.51 1.76-2.1 4.68-6.64 4.68-4.79 0-6.86-3.56-6.86-7.37 0-4.56 2.33-7.81 7-7.81 5 0 6.66 3.61 6.66 7.22a9.56 9.56 0 0 1 0 1.24zm5.6-2.47c0-1.68-.7-3.11-2.66-3.11s-2.68 1.32-2.85 3.11z"/><path d="m62.38 774.8c0 1.82.93 3.58 2.91 3.58a2.31 2.31 0 0 0 2.55-1.54h4c-.51 1.76-2.1 4.68-6.64 4.68-4.79 0-6.86-3.56-6.86-7.37 0-4.56 2.32-7.81 7-7.81 5 0 6.66 3.61 6.66 7.22a9.56 9.56 0 0 1 0 1.24zm5.6-2.47c0-1.68-.7-3.11-2.66-3.11s-2.69 1.32-2.85 3.11z"/><path d="m74.87 770.62c0-1.45 0-2.71 0-3.94h4c.06.33.11 1.76.11 2.54a4.69 4.69 0 0 1 4.65-2.88v3.84c-2.91-.09-4.65.7-4.65 4.67v6.33h-4z"/><path d="m105 777.43a33.66 33.66 0 0 0 .19 3.75h-3.83a5.74 5.74 0 0 1 -.2-1.43c-.53.81-1.51 1.77-4.09 1.77-3.5 0-4.95-2.3-4.95-4.54 0-3.3 2.63-4.84 6.89-4.84h2.07v-.87c0-1-.37-2-2.24-2-1.68 0-2.07.7-2.24 1.77h-3.81c.2-2.58 1.79-4.65 6.22-4.65 3.86 0 6 1.54 6 5zm-3.92-2.86h-1.63c-2.43 0-3.33.76-3.33 2.16a1.88 1.88 0 0 0 2.1 1.93c2.55 0 2.86-1.79 2.86-3.7z"/><path d="m108.78 770.34c0-1.23 0-2.57 0-3.66h3.89a17.69 17.69 0 0 1 .17 1.84 4.42 4.42 0 0 1 4.2-2.18c2.91 0 4.79 2 4.79 5.63v9.21h-4v-8.76c0-1.66-.53-2.83-2.32-2.83s-2.66.95-2.66 3.53v8.06h-4z"/><path d="m138.79 760.74v16.46 4h-3.79c-.09-.45-.17-1.18-.2-1.51-.7 1.15-2 1.85-4.12 1.85-3.66 0-6-2.94-6-7.48s2.47-7.7 6.58-7.7c2.1 0 3.22.76 3.53 1.4v-7zm-6.91 17.56c2.74 0 3.08-2.3 3.08-4.37 0-2.49-.37-4.37-3-4.37-2.1 0-3.16 1.65-3.16 4.4s1.09 4.34 3.08 4.34z"/><path d="m149.41 770.43c0-1.26 0-2.49 0-3.75h3.83c.06.36.14 1.17.17 1.73a4.57 4.57 0 0 1 4-2.07 3.83 3.83 0 0 1 3.73 2.21 5.1 5.1 0 0 1 4.48-2.21c2.52 0 4.59 1.57 4.59 5.32v9.52h-3.92v-9c0-1.31-.48-2.6-2.13-2.6s-2.35 1.12-2.35 3.33v8.29h-3.95v-8.9c0-1.48-.36-2.71-2.07-2.71s-2.41 1-2.41 3.5v8.09h-4z"/><path d="m177.13 774.8c0 1.82.92 3.58 2.91 3.58a2.32 2.32 0 0 0 2.55-1.54h4c-.5 1.76-2.1 4.68-6.64 4.68-4.78 0-6.86-3.56-6.86-7.37 0-4.56 2.33-7.81 7-7.81 5 0 6.67 3.61 6.67 7.22a8 8 0 0 1 -.06 1.24zm5.6-2.47c0-1.68-.7-3.11-2.66-3.11s-2.69 1.32-2.86 3.11z"/><path d="m202.91 760.74v16.46 4h-3.81c-.08-.45-.16-1.18-.19-1.51-.7 1.15-2 1.85-4.12 1.85-3.67 0-6-2.94-6-7.48s2.46-7.7 6.58-7.7c2.1 0 3.22.76 3.53 1.4v-7zm-6.91 17.56c2.74 0 3.08-2.3 3.08-4.37 0-2.49-.37-4.37-3-4.37-2.1 0-3.16 1.65-3.16 4.4s1.08 4.34 3.08 4.34z"/><path d="m206.61 764.32v-3.58h4v3.58zm0 2.36h4v14.5h-4z"/><path d="m226.4 777.43a33 33 0 0 0 .2 3.75h-3.84a5.75 5.75 0 0 1 -.19-1.43c-.53.81-1.51 1.77-4.09 1.77-3.5 0-5-2.3-5-4.54 0-3.3 2.64-4.84 6.89-4.84h2.07v-.87c0-1-.36-2-2.24-2-1.68 0-2.07.7-2.24 1.77h-3.8c.19-2.58 1.79-4.65 6.21-4.65 3.87 0 6 1.54 6 5zm-3.92-2.86h-1.62c-2.44 0-3.33.76-3.33 2.16a1.87 1.87 0 0 0 2.1 1.93c2.55 0 2.85-1.79 2.85-3.7z"/><path d="m237.07 764.32v-3.58h4v3.58zm0 2.36h4v14.5h-4z"/><path d="m244.86 770.34c0-1.23 0-2.57 0-3.66h3.89c.08.39.14 1.4.17 1.84a4.41 4.41 0 0 1 4.2-2.18c2.91 0 4.79 2 4.79 5.63v9.21h-4v-8.76c0-1.66-.53-2.83-2.32-2.83s-2.66.95-2.66 3.53v8.06h-4z"/><path d="m270.87 779.64c-.81 1.32-2.1 1.88-4 1.88-3.22 0-6.1-2.41-6.1-7.45 0-4.68 2.8-7.73 6.44-7.73 2.3 0 3.36.95 3.7 1.71 0-.37.08-1 .14-1.37h3.78v4 16.07h-3.89zm-3-1.34c2.46 0 3-1.77 3-4.4 0-2.8-.56-4.34-2.94-4.34-2.15 0-3.13 1.79-3.13 4.4s1 4.34 3.1 4.34z"/><path d="m291.25 777v4.2h-3.92c-.06-.39-.09-1.18-.11-1.68a4.15 4.15 0 0 1 -4 2c-2.94 0-4.81-1.8-4.81-5.38v-9.46h4v8.65c0 1.59.51 2.91 2.24 2.91s2.58-1 2.58-3.84v-7.72h4z"/><path d="m295 764.32v-3.58h4v3.58zm0 2.36h4v14.5h-4z"/><path d="m302.76 770.62c0-1.45 0-2.71 0-3.94h3.95c.05.33.11 1.76.11 2.54a4.67 4.67 0 0 1 4.65-2.88v3.84c-2.91-.09-4.65.7-4.65 4.67v6.33h-4z"/><path d="m313.93 764.32v-3.58h4v3.58zm0 2.36h4v14.5h-4z"/><path d="m324.88 774.8c0 1.82.92 3.58 2.91 3.58a2.32 2.32 0 0 0 2.55-1.54h4c-.5 1.76-2.1 4.68-6.63 4.68-4.79 0-6.86-3.56-6.86-7.37 0-4.56 2.32-7.81 7-7.81 4.95 0 6.66 3.61 6.66 7.22a8 8 0 0 1 -.06 1.24zm5.6-2.47c0-1.68-.7-3.11-2.66-3.11s-2.69 1.32-2.86 3.11z"/><path d="m340.33 776.81a2.51 2.51 0 0 0 2.75 1.82c1.48 0 2-.53 2-1.43s-.61-1.28-2.68-1.79c-4.74-1.17-5.49-2.63-5.49-4.67s1.48-4.4 5.85-4.4 5.91 2.41 6 4.37h-3.76c-.14-.53-.5-1.54-2.38-1.54-1.31 0-1.76.59-1.76 1.23s.45 1.06 2.8 1.62c4.84 1.12 5.54 2.78 5.54 4.9 0 2.41-1.85 4.6-6.24 4.6s-6.22-2.13-6.55-4.71z"/><path d="m350.33 784.43a23.8 23.8 0 0 0 2.07-8.18h4.12a16.15 16.15 0 0 1 -3.08 8.18z"/><path d="m14.81 836.9c0 4.4-2.63 7.62-7.22 7.62s-7.11-3.22-7.11-7.52c0-4.48 2.71-7.64 7.3-7.64 4.22-.02 7.03 3 7.03 7.54zm-10.27 0c0 2.8 1.2 4.45 3.13 4.45s3.08-1.65 3.08-4.42c0-3-1.12-4.46-3.13-4.46-1.85.03-3.08 1.41-3.08 4.46z"/><path d="m17.7 833.62c0-1.45 0-2.71 0-3.94h3.95c.05.33.11 1.76.11 2.54a4.67 4.67 0 0 1 4.65-2.88v3.84c-2.92-.09-4.65.7-4.65 4.67v6.33h-4z"/><path d="m38.7 829.68c1.31 5.82 2 9.12 2.29 10.94h.06c.3-1.62.73-3.89 2.49-10.94h3.72c1.63 7.14 2.13 9.24 2.33 10.78.3-1.49.75-3.64 2.43-10.78h4l-4.31 14.5h-4.28c-1.2-5.49-1.87-8.4-2.21-10.3-.22 1.82-1 5.09-2.29 10.3h-4.35l-4.11-14.5z"/><path d="m62.47 823.74v7.67a4.56 4.56 0 0 1 4.14-2.07c2.69 0 4.85 1.62 4.85 5.54v9.3h-4v-8.71c0-1.87-.67-2.88-2.35-2.88-2.24 0-2.66 1.68-2.66 3.89v7.7h-4v-20.44z"/><path d="m87.25 840.43a33.66 33.66 0 0 0 .19 3.75h-3.83a5.74 5.74 0 0 1 -.2-1.43c-.53.81-1.51 1.77-4.09 1.77-3.5 0-4.95-2.3-4.95-4.54 0-3.3 2.63-4.84 6.88-4.84h2.08v-.87c0-1-.37-2-2.24-2-1.68 0-2.07.7-2.24 1.77h-3.85c.19-2.58 1.79-4.65 6.21-4.65 3.87 0 6 1.54 6 5zm-3.92-2.86h-1.63c-2.43 0-3.33.76-3.33 2.16a1.88 1.88 0 0 0 2.1 1.93c2.55 0 2.86-1.79 2.86-3.7z"/><path d="m89.6 829.68h2.24v-3.92h4v3.92h2.86v3h-2.86v7.17c0 1.09.34 1.51 1.54 1.51h.9v2.75a8.74 8.74 0 0 1 -2.69.28c-2.83 0-3.75-1.52-3.75-4.06v-7.63h-2.24z"/><path d="m104.49 837.8c0 1.82.93 3.58 2.92 3.58a2.3 2.3 0 0 0 2.54-1.54h4c-.51 1.76-2.1 4.68-6.64 4.68-4.79 0-6.86-3.56-6.86-7.37 0-4.56 2.33-7.81 7-7.81 5 0 6.67 3.61 6.67 7.22a8 8 0 0 1 -.06 1.24zm5.6-2.47c0-1.68-.7-3.11-2.66-3.11s-2.68 1.32-2.85 3.11z"/><path d="m119.7 829.68c1.37 4.92 2.52 9.21 2.8 10.94.42-2.38 1.82-6.74 3.08-10.94h4l-5.12 14.5h-4.2l-4.93-14.5z"/><path d="m134.9 837.8c0 1.82.93 3.58 2.91 3.58a2.32 2.32 0 0 0 2.55-1.54h4c-.51 1.76-2.1 4.68-6.64 4.68-4.79 0-6.86-3.56-6.86-7.37 0-4.56 2.32-7.81 7-7.81 5 0 6.66 3.61 6.66 7.22a9.56 9.56 0 0 1 -.05 1.24zm5.6-2.47c0-1.68-.7-3.11-2.66-3.11s-2.69 1.32-2.85 3.11z"/><path d="m147.39 833.62c0-1.45 0-2.71 0-3.94h3.95c.06.33.11 1.76.11 2.54a4.69 4.69 0 0 1 4.65-2.88v3.84c-2.91-.09-4.65.7-4.65 4.67v6.33h-4z"/><path d="m156.94 847.43a24 24 0 0 0 2.07-8.18h4.12a16.24 16.24 0 0 1 -3.08 8.18z"/><path d="m185.75 839.5c-.48 2.41-2.18 5-6.5 5-4.5 0-6.83-3.11-6.83-7.48s2.61-7.7 7-7.7c4.87 0 6.24 3.53 6.3 5.15h-3.89a2.27 2.27 0 0 0 -2.49-2c-1.85 0-2.89 1.6-2.89 4.4 0 3.11 1.12 4.51 2.86 4.51a2.46 2.46 0 0 0 2.49-1.91z"/><path d="m201.93 836.9c0 4.4-2.63 7.62-7.22 7.62s-7.11-3.22-7.11-7.54c0-4.48 2.71-7.64 7.31-7.64 4.25 0 7.02 3.02 7.02 7.56zm-10.27 0c0 2.8 1.2 4.45 3.13 4.45s3.08-1.65 3.08-4.42c0-3-1.12-4.46-3.13-4.46-1.85.03-3.08 1.41-3.08 4.46z"/><path d="m204.85 833.34c0-1.23 0-2.57 0-3.66h3.89c.08.39.14 1.4.17 1.84a4.41 4.41 0 0 1 4.2-2.18c2.91 0 4.79 2 4.79 5.63v9.21h-4v-8.76c0-1.66-.53-2.83-2.32-2.83s-2.66.95-2.66 3.53v8.06h-4z"/><path d="m220.16 829.68h2.24v-3.92h4v3.92h2.86v3h-2.86v7.17c0 1.09.34 1.51 1.54 1.51h.9v2.75a8.71 8.71 0 0 1 -2.69.28c-2.82 0-3.75-1.52-3.75-4.06v-7.63h-2.24z"/><path d="m243.9 840.43a33 33 0 0 0 .2 3.75h-3.84a5.75 5.75 0 0 1 -.19-1.43c-.53.81-1.51 1.77-4.09 1.77-3.5 0-5-2.3-5-4.54 0-3.3 2.64-4.84 6.89-4.84h2.13v-.87c0-1-.36-2-2.24-2-1.68 0-2.07.7-2.24 1.77h-3.8c.19-2.58 1.79-4.65 6.21-4.65 3.87 0 6 1.54 6 5zm-3.9-2.86h-1.62c-2.44 0-3.33.76-3.33 2.16a1.87 1.87 0 0 0 2.1 1.93c2.55 0 2.85-1.79 2.85-3.7z"/><path d="m260.2 839.5c-.48 2.41-2.18 5-6.5 5-4.5 0-6.83-3.11-6.83-7.48s2.61-7.7 7-7.7c4.87 0 6.24 3.53 6.3 5.15h-3.89a2.27 2.27 0 0 0 -2.49-2c-1.85 0-2.89 1.6-2.89 4.4 0 3.11 1.12 4.51 2.86 4.51a2.46 2.46 0 0 0 2.49-1.91z"/><path d="m261.49 829.68h2.24v-3.92h4v3.92h2.86v3h-2.86v7.17c0 1.09.34 1.51 1.54 1.51h.9v2.75a8.74 8.74 0 0 1 -2.69.28c-2.83 0-3.75-1.52-3.75-4.06v-7.63h-2.24z"/><path d="m292.87 840v4.2h-3.87c-.05-.39-.08-1.18-.11-1.68a4.14 4.14 0 0 1 -4 2c-2.94 0-4.82-1.8-4.82-5.38v-9.46h4v8.65c0 1.59.5 2.91 2.23 2.91s2.58-1 2.58-3.84v-7.72h4z"/><path d="m299.59 839.81a2.51 2.51 0 0 0 2.75 1.82c1.48 0 2-.53 2-1.43s-.61-1.28-2.68-1.79c-4.74-1.17-5.49-2.63-5.49-4.67s1.48-4.4 5.85-4.4 5.91 2.41 6 4.37h-3.81c-.14-.53-.5-1.54-2.38-1.54-1.31 0-1.76.59-1.76 1.23s.45 1.06 2.8 1.62c4.84 1.12 5.54 2.78 5.54 4.9 0 2.41-1.85 4.6-6.24 4.6s-6.22-2.13-6.55-4.71z"/><path d="m310.79 844.18v-4.93h4.29v4.93z"/><path d="m2.13 1.8h21.17v5.37h-14.74v7.44h13.82v5.39h-13.82v12.12h-6.43z"/><path d="m47.54 20.68c0 6.91-4.13 12-11.35 12-7 0-11.18-5.06-11.18-11.84 0-7 4.27-12 11.49-12 6.69-.04 11.04 4.71 11.04 11.84zm-16.15.05c0 4.4 1.9 7 4.93 7s4.84-2.59 4.84-6.95c0-4.75-1.76-7-4.93-7-2.9-.01-4.84 2.15-4.84 6.95z"/><path d="m51.85 15.53c0-2.28 0-4.26 0-6.2h6.15c.09.53.18 2.77.18 4 1-2.59 3.43-4.48 7.3-4.53v6c-4.57-.13-7.3 1.1-7.3 7.35v9.94h-6.33z"/><path d="m79.88 15.09c0-1.93 0-4 0-5.76h6.12c.13.62.22 2.2.27 2.9.74-1.4 2.59-3.43 6.6-3.43 4.57 0 7.52 3.13 7.52 8.85v14.47h-6.34v-13.77c0-2.6-.84-4.44-3.65-4.44s-4.18 1.49-4.18 5.54v12.67h-6.34z"/><path d="m110.94 22.09c0 2.86 1.46 5.63 4.58 5.63 2.64 0 3.39-1 4-2.42h6.3c-.79 2.78-3.3 7.35-10.43 7.35-7.53 0-10.78-5.59-10.78-11.57 0-7.17 3.65-12.28 11-12.28 7.79 0 10.47 5.68 10.47 11.35a13 13 0 0 1 -.09 1.94zm8.81-3.87c0-2.64-1.1-4.89-4.19-4.89s-4.22 2.07-4.48 4.89z"/><path d="m134.92 9.33c2.07 9.15 3.17 14.35 3.61 17.21h.09c.48-2.56 1.14-6.12 3.92-17.21h5.85c2.55 11.22 3.34 14.52 3.65 16.94h.05c.48-2.33 1.18-5.72 3.82-16.94h6.25l-6.77 22.79h-6.74c-1.89-8.62-2.94-13.2-3.47-16.19h-.05c-.35 2.86-1.58 8-3.61 16.19h-6.77l-6.47-22.79z"/><path d="m176.37 0h6.34v11.75c.92-1.45 2.81-2.95 6.51-2.95 6.2 0 9.28 5.15 9.28 11.53s-3.34 12.32-9.9 12.32c-3.38 0-4.88-1-6-2.68a9.7 9.7 0 0 1 -.27 2.15h-6c0-2.46 0-5 0-7.43zm10.91 13.86c-3.61 0-4.88 2.33-4.88 7 0 3.83 1.14 6.78 4.79 6.78 3.22 0 4.93-2.86 4.93-7.18 0-3.83-1.45-6.6-4.84-6.6z"/><path d="m222 25.52c0 2.16 0 4.58.05 6.6h-6.17c-.08-.61-.13-1.84-.17-2.64-1.37 2.29-3.35 3.17-6.29 3.17-4.63 0-7.57-2.81-7.57-8.45v-14.87h6.29v13.6c0 2.51.79 4.57 3.52 4.57s4.05-1.54 4.05-6v-12.17h6.29z"/><path d="m231.46 25.26c.48 1.85 2 2.86 4.31 2.86s3.17-.84 3.17-2.24-1-2-4.23-2.82c-7.43-1.85-8.62-4.14-8.62-7.35s2.33-6.91 9.2-6.91 9.28 3.79 9.46 6.87h-6c-.22-.84-.79-2.42-3.74-2.42-2.07 0-2.77.92-2.77 1.93s.7 1.67 4.4 2.55c7.61 1.76 8.71 4.36 8.71 7.71 0 3.78-2.9 7.21-9.81 7.21s-9.77-3.34-10.3-7.39z"/><path d="m249.5 5.63v-5.63h6.33v5.63zm0 3.7h6.33v22.79h-6.33z"/><path d="m261.51 15.09c0-1.93 0-4-.05-5.76h6.12c.13.62.22 2.2.27 2.9.74-1.4 2.59-3.43 6.6-3.43 4.57 0 7.52 3.13 7.52 8.85v14.47h-6.29v-13.77c0-2.6-.84-4.44-3.65-4.44s-4.18 1.49-4.18 5.54v12.67h-6.34z"/><path d="m292.57 22.09c0 2.86 1.45 5.63 4.58 5.63 2.64 0 3.39-1 4-2.42h6.3c-.8 2.78-3.3 7.35-10.43 7.35-7.53 0-10.78-5.59-10.78-11.57 0-7.17 3.65-12.28 11-12.28 7.79 0 10.47 5.68 10.47 11.35a13 13 0 0 1 -.09 1.94zm8.8-3.87c0-2.64-1.1-4.89-4.18-4.89s-4.19 2.07-4.49 4.89z"/><path d="m316.64 25.26c.48 1.85 2 2.86 4.31 2.86s3.17-.84 3.17-2.24-1-2-4.22-2.82c-7.44-1.85-8.63-4.14-8.63-7.35s2.33-6.91 9.2-6.91 9.28 3.79 9.46 6.87h-6c-.22-.84-.8-2.42-3.74-2.42-2.07 0-2.78.92-2.78 1.93s.71 1.67 4.4 2.55c7.62 1.76 8.72 4.36 8.72 7.71 0 3.78-2.91 7.21-9.82 7.21s-9.77-3.34-10.29-7.39z"/><path d="m339.35 25.26c.48 1.85 2 2.86 4.31 2.86s3.17-.84 3.17-2.24-1-2-4.23-2.82c-7.44-1.85-8.62-4.14-8.62-7.35s2.33-6.91 9.19-6.91 9.29 3.79 9.46 6.87h-6c-.22-.84-.79-2.42-3.74-2.42-2.07 0-2.77.92-2.77 1.93s.7 1.67 4.4 2.55c7.61 1.76 8.71 4.36 8.71 7.71 0 3.78-2.9 7.21-9.81 7.21s-9.77-3.34-10.3-7.39z"/><path d="m354.83 37.23a37.6 37.6 0 0 0 3.26-12.85h6.47c-.49 4.36-1.94 9.24-4.84 12.85z"/><path d="m21.06 86.78c-.75 3.78-3.44 7.87-10.21 7.87-7.09 0-10.74-4.88-10.74-11.75s4.09-12.1 11-12.1c7.66 0 9.82 5.55 9.91 8.1h-6.08a3.57 3.57 0 0 0 -3.94-3.13c-2.9 0-4.53 2.51-4.53 6.91 0 4.89 1.76 7.09 4.49 7.09a3.88 3.88 0 0 0 3.91-3z"/><path d="m44 88.23a48.59 48.59 0 0 0 .31 5.89h-6a8.72 8.72 0 0 1 -.31-2.24c-.84 1.28-2.38 2.77-6.43 2.77-5.5 0-7.78-3.61-7.78-7.13 0-5.19 4.13-7.61 10.82-7.61h3.26v-1.36c0-1.63-.57-3.22-3.52-3.22-2.64 0-3.26 1.1-3.52 2.78h-6c.31-4 2.82-7.31 9.77-7.31 6.07 0 9.42 2.42 9.42 7.88zm-6.16-4.49h-2.57c-3.83 0-5.24 1.19-5.24 3.39 0 1.62 1 3 3.3 3 4 0 4.49-2.81 4.49-5.81z"/><path d="m49.65 77.53c0-2.28 0-4.27 0-6.2h6.2c.09.53.18 2.77.18 4 1-2.59 3.43-4.49 7.3-4.53v6c-4.57-.13-7.3 1.1-7.3 7.35v9.94h-6.38z"/><path d="m72 84.09c0 2.86 1.46 5.63 4.58 5.63 2.64 0 3.39-1 4-2.42h6.29c-.79 2.78-3.3 7.35-10.43 7.35-7.53 0-10.78-5.59-10.78-11.57 0-7.17 3.65-12.28 11-12.28 7.79 0 10.47 5.68 10.47 11.35a13 13 0 0 1 -.09 1.94zm8.81-3.87c0-2.64-1.1-4.89-4.18-4.89s-4.23 2.07-4.49 4.89z"/><path d="m96.42 84.09c0 2.86 1.46 5.63 4.58 5.63 2.64 0 3.39-1 4-2.42h6.29c-.79 2.78-3.3 7.35-10.43 7.35-7.53 0-10.78-5.59-10.78-11.57 0-7.17 3.65-12.28 11-12.28 7.79 0 10.47 5.68 10.47 11.35a13 13 0 0 1 -.09 1.94zm8.81-3.87c0-2.64-1.1-4.89-4.18-4.89s-4.23 2.07-4.49 4.89z"/><path d="m115.83 77.53c0-2.28 0-4.27 0-6.2h6.17c.09.53.17 2.77.17 4 1-2.59 3.44-4.49 7.31-4.53v6c-4.58-.13-7.31 1.1-7.31 7.35v9.94h-6.33z"/><path d="m162.73 88.23a50.81 50.81 0 0 0 .31 5.89h-6a9.18 9.18 0 0 1 -.31-2.24c-.83 1.28-2.37 2.77-6.42 2.77-5.5 0-7.79-3.61-7.79-7.13 0-5.19 4.14-7.61 10.83-7.61h3.25v-1.36c0-1.63-.57-3.22-3.52-3.22-2.64 0-3.25 1.1-3.52 2.78h-6c.3-4 2.81-7.31 9.77-7.31 6.07 0 9.41 2.42 9.41 7.88zm-6.16-4.49h-2.57c-3.83 0-5.24 1.19-5.24 3.39 0 1.62 1 3 3.3 3 4 0 4.49-2.81 4.49-5.81z"/><path d="m167.57 77.09c0-1.93 0-4 0-5.76h6.11a28.87 28.87 0 0 1 .27 2.9c.75-1.4 2.59-3.43 6.6-3.43 4.58 0 7.52 3.12 7.52 8.85v14.47h-6.29v-13.77c0-2.6-.84-4.44-3.65-4.44s-4.18 1.49-4.18 5.54v12.67h-6.34z"/><path d="m213.64 62v25.88c0 2.06 0 4.18.05 6.24h-6c-.14-.7-.27-1.84-.31-2.37-1.1 1.8-3.08 2.9-6.47 2.9-5.77 0-9.42-4.62-9.42-11.75s3.88-12.1 10.34-12.1c3.3 0 5.06 1.19 5.55 2.2v-11zm-10.87 27.59c4.31 0 4.84-3.61 4.84-6.86 0-3.92-.57-6.87-4.71-6.87-3.3 0-5 2.6-5 6.91s1.75 6.82 4.87 6.82z"/><path d="m1.34 139.23c0-2 0-3.92 0-5.9h6c.08.57.22 1.85.26 2.73a7.14 7.14 0 0 1 6.34-3.26 6 6 0 0 1 5.85 3.48 8 8 0 0 1 7-3.48c4 0 7.22 2.46 7.22 8.36v15h-6.13v-14.16c0-2.06-.75-4.09-3.35-4.09s-3.69 1.76-3.69 5.24v13h-6.21v-14c0-2.33-.57-4.26-3.26-4.26s-3.78 1.58-3.78 5.5v12.71h-6.25z"/><path d="m44.68 146.09c0 2.86 1.45 5.63 4.58 5.63 2.64 0 3.39-1.05 4-2.42h6.29c-.79 2.78-3.3 7.35-10.43 7.35-7.52 0-10.78-5.59-10.78-11.57 0-7.17 3.66-12.28 11-12.28 7.78 0 10.47 5.68 10.47 11.35a13 13 0 0 1 -.09 1.94zm8.8-3.87c0-2.64-1.1-4.89-4.18-4.89s-4.22 2.07-4.49 4.89z"/><path d="m85 124v25.88 6.24h-6c-.13-.7-.26-1.84-.31-2.37-1.1 1.8-3.08 2.9-6.46 2.9-5.77 0-9.42-4.62-9.42-11.75s3.87-12.1 10.34-12.1c3.3 0 5.06 1.19 5.54 2.2v-11zm-10.88 27.59c4.31 0 4.84-3.61 4.84-6.86 0-3.92-.57-6.87-4.71-6.87-3.3 0-5 2.6-5 6.91s1.75 6.82 4.87 6.82z"/><path d="m90.57 129.63v-5.63h6.34v5.63zm0 3.7h6.34v22.79h-6.34z"/><path d="m121.46 150.23a50.81 50.81 0 0 0 .31 5.89h-6a8.72 8.72 0 0 1 -.31-2.24c-.83 1.28-2.37 2.77-6.42 2.77-5.5 0-7.79-3.61-7.79-7.13 0-5.19 4.13-7.61 10.82-7.61h3.26v-1.36c0-1.63-.57-3.22-3.52-3.22-2.64 0-3.26 1.1-3.52 2.78h-6c.31-4.05 2.82-7.31 9.77-7.31 6.08 0 9.42 2.42 9.42 7.88zm-6.16-4.49h-2.55c-3.83 0-5.24 1.19-5.24 3.39 0 1.62 1 3 3.3 3 4 0 4.49-2.81 4.49-5.81z"/><path d="m137.78 129.63v-5.63h6.34v5.63zm0 3.7h6.34v22.79h-6.34z"/><path d="m149.79 139.09c0-1.93 0-4.05 0-5.76h6.12a28.94 28.94 0 0 1 .26 2.9c.75-1.4 2.6-3.43 6.6-3.43 4.58 0 7.53 3.12 7.53 8.85v14.47h-6.3v-13.77c0-2.6-.83-4.44-3.65-4.44s-4.18 1.49-4.18 5.54v12.67h-6.34z"/><path d="m189.57 153.7c-1.27 2.07-3.3 3-6.34 3-5.06 0-9.59-3.78-9.59-11.7 0-7.35 4.4-12.15 10.12-12.15 3.61 0 5.28 1.5 5.81 2.69.05-.58.13-1.59.22-2.16h5.94v6.25 25.26h-6.12zm-4.66-2.11c3.87 0 4.75-2.77 4.75-6.91 0-4.4-.88-6.82-4.62-6.82-3.39 0-4.93 2.82-4.93 6.91s1.5 6.82 4.8 6.82z"/><path d="m221.38 149.52c0 2.16 0 4.58.05 6.6h-6.16c-.09-.61-.13-1.84-.18-2.64-1.36 2.29-3.34 3.17-6.29 3.17-4.62 0-7.57-2.81-7.57-8.45v-14.87h6.29v13.6c0 2.5.79 4.57 3.52 4.57s4.05-1.54 4.05-6v-12.17h6.29z"/><path d="m227.06 129.63v-5.63h6.33v5.63zm0 3.7h6.33v22.79h-6.33z"/><path d="m239 139.53c0-2.28 0-4.27 0-6.2h6.21c.08.53.17 2.77.17 4 1-2.59 3.43-4.49 7.31-4.53v6c-4.58-.13-7.31 1.1-7.31 7.35v9.94h-6.38z"/><path d="m256.36 129.63v-5.63h6.34v5.63zm0 3.7h6.34v22.79h-6.34z"/><path d="m273.34 146.09c0 2.86 1.46 5.63 4.58 5.63 2.64 0 3.39-1.05 4-2.42h6.29c-.79 2.78-3.3 7.35-10.43 7.35-7.53 0-10.78-5.59-10.78-11.57 0-7.17 3.65-12.28 11-12.28 7.79 0 10.47 5.68 10.47 11.35a13 13 0 0 1 -.09 1.94zm8.81-3.87c0-2.64-1.1-4.89-4.18-4.89s-4.23 2.07-4.49 4.89z"/><path d="m297.41 149.26c.49 1.85 2 2.86 4.32 2.86s3.16-.84 3.16-2.24-1-2-4.22-2.82c-7.44-1.85-8.63-4.14-8.63-7.35s2.34-6.91 9.2-6.91 9.29 3.78 9.46 6.87h-6c-.22-.84-.79-2.42-3.74-2.42-2.07 0-2.78.92-2.78 1.93s.71 1.67 4.4 2.55c7.62 1.76 8.72 4.36 8.72 7.7 0 3.79-2.91 7.22-9.82 7.22s-9.76-3.34-10.29-7.39z"/><path d="m312.9 161.23a37.6 37.6 0 0 0 3.26-12.85h6.46c-.48 4.36-1.93 9.24-4.84 12.85z"/><path d="m21.06 210.78c-.75 3.78-3.44 7.87-10.21 7.87-7.09 0-10.74-4.88-10.74-11.75s4.09-12.1 11-12.1c7.66 0 9.82 5.55 9.91 8.1h-6.08a3.57 3.57 0 0 0 -3.94-3.13c-2.9 0-4.53 2.51-4.53 6.91 0 4.89 1.76 7.09 4.49 7.09a3.88 3.88 0 0 0 3.91-3z"/><path d="m46.27 206.68c0 6.91-4.14 12-11.36 12-7 0-11.17-5.06-11.17-11.84 0-7 4.26-12 11.48-12 6.69-.04 11.05 4.71 11.05 11.84zm-16.15 0c0 4.4 1.89 7 4.93 7s4.84-2.59 4.84-6.95c0-4.75-1.76-7-4.93-7-2.91.04-4.84 2.2-4.84 7z"/><path d="m50.62 201.09c0-1.93 0-4.05 0-5.76h6.11c.13.61.22 2.2.27 2.9.74-1.4 2.59-3.43 6.6-3.43 4.57 0 7.52 3.12 7.52 8.85v14.47h-6.33v-13.77c0-2.6-.84-4.44-3.65-4.44s-4.14 1.49-4.14 5.54v12.67h-6.38z"/><path d="m74.47 195.33h3.53v-6.16h6.29v6.16h4.49v4.75h-4.5v11.27c0 1.71.53 2.37 2.42 2.37h1.41v4.28a13.7 13.7 0 0 1 -4.23.44c-4.44 0-5.89-2.37-5.89-6.38v-12h-3.52z"/><path d="m111.56 212.23a50.81 50.81 0 0 0 .31 5.89h-6a9.18 9.18 0 0 1 -.31-2.24c-.83 1.28-2.37 2.77-6.42 2.77-5.5 0-7.79-3.61-7.79-7.13 0-5.19 4.14-7.61 10.82-7.61h3.26v-1.36c0-1.63-.57-3.22-3.52-3.22-2.64 0-3.26 1.1-3.52 2.78h-6c.3-4.05 2.81-7.31 9.76-7.31 6.08 0 9.42 2.42 9.42 7.88zm-6.16-4.49h-2.55c-3.83 0-5.24 1.19-5.24 3.39 0 1.62 1 3 3.3 3 4 0 4.49-2.81 4.49-5.81z"/><path d="m137 210.78c-.75 3.78-3.43 7.87-10.21 7.87-7.09 0-10.74-4.88-10.74-11.75s4.1-12.1 11-12.1c7.66 0 9.81 5.55 9.9 8.1h-6.12a3.56 3.56 0 0 0 -3.91-3.13c-2.91 0-4.54 2.51-4.54 6.91 0 4.89 1.76 7.09 4.49 7.09a3.89 3.89 0 0 0 3.92-3z"/><path d="m138.75 195.33h3.52v-6.16h6.29v6.16h4.49v4.75h-4.49v11.27c0 1.71.53 2.37 2.42 2.37h1.41v4.28a13.67 13.67 0 0 1 -4.22.44c-4.45 0-5.9-2.37-5.9-6.38v-12h-3.52z"/><path d="m187.64 211.52v6.6h-6.16c-.09-.61-.13-1.84-.18-2.64-1.36 2.29-3.34 3.17-6.29 3.17-4.62 0-7.57-2.81-7.57-8.45v-14.87h6.29v13.6c0 2.5.8 4.57 3.53 4.57s4-1.54 4-6v-12.17h6.3z"/><path d="m198 211.26c.49 1.85 2 2.86 4.32 2.86s3.16-.84 3.16-2.24-1-2-4.22-2.82c-7.44-1.85-8.63-4.14-8.63-7.35s2.34-6.91 9.2-6.91 9.29 3.78 9.46 6.87h-6c-.22-.84-.79-2.42-3.74-2.42-2.07 0-2.77.92-2.77 1.93s.7 1.67 4.4 2.55c7.61 1.76 8.71 4.36 8.71 7.7 0 3.79-2.9 7.22-9.81 7.22s-9.77-3.34-10.3-7.39z"/><path d="m215.35 218.12v-7.74h6.74v7.74z"/></svg>