<svg viewBox="0 0 577.14 336.62" xmlns="http://www.w3.org/2000/svg"><path d="m3.87 16.06-3.87-15.16h3.5c1.43 6.96 2.07 10.1 2.24 11.73.6-2.79 2.07-8.08 2.95-11.73h3c.79 2.91 2.31 8.78 2.82 11.58.49-3.35 1.95-9.22 2.49-11.58h3.17l-4.1 15.16h-3.4c-.79-3.36-2.13-8.27-2.67-10.87-.56 2.71-1.92 7.81-2.74 10.87z"/><path d="m24.57 11.05c0 1.43.73 2.81 2.29 2.81a1.81 1.81 0 0 0 2-1.21h3.14a5 5 0 0 1 -5.21 3.68c-3.77 0-5.39-2.8-5.39-5.79 0-3.59 1.82-6.14 5.5-6.14 3.89 0 5.23 2.84 5.23 5.68a7.4 7.4 0 0 1 0 1zm4.43-1.94c0-1.32-.56-2.44-2.1-2.44s-2.11 1-2.24 2.44z"/><path d="m50.27 0v12.94 3.12h-3c-.07-.35-.13-.92-.16-1.19a3.41 3.41 0 0 1 -3.23 1.46c-2.88 0-4.71-2.31-4.71-5.88s1.94-6 5.17-6c1.65 0 2.53.6 2.77 1.1v-5.55zm-5.43 13.8c2.15 0 2.42-1.81 2.42-3.44 0-1.95-.29-3.43-2.36-3.43-1.65 0-2.48 1.3-2.48 3.46s.85 3.41 2.42 3.41z"/><path d="m63.78 10.34c0 3.46-2.07 6-5.68 6s-5.59-2.53-5.59-5.92 2.14-6 5.75-6c3.34-.02 5.52 2.36 5.52 5.92zm-8.08 0c0 2.2.95 3.5 2.47 3.5s2.42-1.3 2.42-3.47c0-2.38-.88-3.5-2.47-3.5s-2.42 1.13-2.42 3.49z"/><path d="m66.06 7.55c0-1 0-2 0-2.88h3.04a12.81 12.81 0 0 1 .13 1.45 3.47 3.47 0 0 1 3.3-1.72c2.29 0 3.77 1.6 3.77 4.42v7.24h-3.15v-6.88c0-1.3-.42-2.23-1.83-2.23s-2.09.75-2.09 2.78v6.33h-3.17z"/><path d="m78.63 6.54a30 30 0 0 0 1-6.54h3.37a18.71 18.71 0 0 1 -1.82 6.54z"/><path d="m85.16 4.67h1.76v-3.09h3.15v3.09h2.24v2.33h-2.24v5.63c0 .86.26 1.19 1.21 1.19h.7v2.18a6.8 6.8 0 0 1 -2.11.22c-2.22 0-3-1.19-3-3.19v-6.03h-1.71z"/><path d="m109.65 12.39c-.38 1.89-1.72 3.94-5.11 3.94-3.54 0-5.37-2.45-5.37-5.88s2-6 5.53-6c3.83 0 4.9 2.77 5 4h-3.06a1.79 1.79 0 0 0 -2-1.56c-1.45 0-2.27 1.25-2.27 3.45 0 2.44.89 3.54 2.25 3.54a1.94 1.94 0 0 0 2-1.49z"/><path d="m121.22 13.11a27.1 27.1 0 0 0 .15 2.95h-3a4.33 4.33 0 0 1 -.15-1.12c-.42.64-1.19 1.39-3.22 1.39-2.75 0-3.89-1.81-3.89-3.57 0-2.59 2.07-3.8 5.41-3.8h1.63v-.69c0-.81-.29-1.6-1.76-1.6-1.32 0-1.63.55-1.76 1.38h-3c.15-2 1.4-3.65 4.88-3.65 3 0 4.71 1.21 4.71 3.94zm-3.08-2.24h-1.28c-1.91 0-2.62.59-2.62 1.69a1.47 1.47 0 0 0 1.66 1.52c2 0 2.24-1.41 2.24-2.9z"/><path d="m124.17 7.77c0-1.15 0-2.14 0-3.1h3.11c0 .26.08 1.38.08 2a3.68 3.68 0 0 1 3.64-2.27v3c-2.29-.07-3.66.54-3.66 3.67v5h-3.16z"/><path d="m135.45 11.05c0 1.43.73 2.81 2.29 2.81a1.81 1.81 0 0 0 2-1.21h3.15a5 5 0 0 1 -5.22 3.68c-3.76 0-5.39-2.8-5.39-5.79 0-3.59 1.83-6.14 5.51-6.14 3.89 0 5.23 2.84 5.23 5.68a7.4 7.4 0 0 1 0 1zm4.4-1.94c0-1.32-.55-2.44-2.09-2.44s-2.11 1-2.24 2.44z"/><path d="m160.16 13.11a27.1 27.1 0 0 0 .15 2.95h-3a4.33 4.33 0 0 1 -.15-1.12c-.42.64-1.19 1.39-3.22 1.39-2.75 0-3.89-1.81-3.89-3.57 0-2.59 2.07-3.8 5.41-3.8h1.63v-.69c0-.81-.29-1.6-1.76-1.6-1.32 0-1.63.55-1.76 1.38h-3c.15-2 1.4-3.65 4.88-3.65 3 0 4.71 1.21 4.71 3.94zm-3.08-2.24h-1.28c-1.91 0-2.62.59-2.62 1.69a1.47 1.47 0 0 0 1.65 1.52c2 0 2.25-1.41 2.25-2.9z"/><path d="m163.11 0h3.16v5.88a3.57 3.57 0 0 1 3.26-1.48c3.1 0 4.64 2.58 4.64 5.77s-1.67 6.16-4.95 6.16c-1.69 0-2.44-.51-3-1.35a5.51 5.51 0 0 1 -.13 1.08h-3c0-1.23 0-2.48 0-3.72zm5.45 6.93c-1.8 0-2.44 1.17-2.44 3.5 0 1.91.57 3.39 2.4 3.39 1.6 0 2.46-1.43 2.46-3.59.02-1.91-.72-3.3-2.42-3.3z"/><path d="m187 10.34c0 3.46-2.07 6-5.67 6s-5.59-2.53-5.59-5.92 2.13-6 5.74-6c3.38-.02 5.52 2.36 5.52 5.92zm-8.07 0c0 2.2.94 3.5 2.46 3.5s2.42-1.3 2.42-3.47c0-2.38-.88-3.5-2.46-3.5s-2.35 1.13-2.35 3.49z"/><path d="m199.34 12.76v3.3h-3.08c0-.31-.06-.92-.09-1.32a3.24 3.24 0 0 1 -3.14 1.59c-2.31 0-3.79-1.41-3.79-4.23v-7.43h3.15v6.79c0 1.26.4 2.29 1.76 2.29s2-.77 2-3v-6.08h3.15z"/><path d="m201.19 4.67h1.81v-3.09h3.14v3.09h2.25v2.33h-2.25v5.63c0 .86.27 1.19 1.21 1.19h.71v2.18a6.86 6.86 0 0 1 -2.11.22c-2.23 0-3-1.19-3-3.19v-6.03h-1.76z"/><path d="m214.72 4.67h1.76v-3.09h3.14v3.09h2.25v2.33h-2.25v5.63c0 .86.27 1.19 1.21 1.19h.71v2.18a6.86 6.86 0 0 1 -2.11.22c-2.23 0-3-1.19-3-3.19v-6.03h-1.76z"/><path d="m227.08 0v6a3.59 3.59 0 0 1 3.26-1.63c2.11 0 3.8 1.28 3.8 4.36v7.3h-3.14v-6.81c0-1.47-.53-2.27-1.85-2.27-1.76 0-2.09 1.32-2.09 3.06v6h-3.17v-16.01z"/><path d="m239.6 11.05c0 1.43.72 2.81 2.29 2.81a1.82 1.82 0 0 0 2-1.21h3.11a5 5 0 0 1 -5.21 3.68c-3.76 0-5.39-2.8-5.39-5.79 0-3.59 1.83-6.14 5.5-6.14 3.89 0 5.24 2.84 5.24 5.68a5.93 5.93 0 0 1 0 1zm4.4-1.94c0-1.32-.55-2.44-2.09-2.44s-2.11 1-2.25 2.44z"/><path d="m254.84 7.77c0-1.15 0-2.14 0-3.1h3.1a19.85 19.85 0 0 1 .09 2 3.67 3.67 0 0 1 3.65-2.27v3c-2.3-.05-3.68.6-3.68 3.69v5h-3.17z"/><path d="m273.65 12.76v3.3h-3.05c-.05-.31-.07-.92-.09-1.32a3.25 3.25 0 0 1 -3.15 1.59c-2.31 0-3.78-1.41-3.78-4.23v-7.43h3.14v6.79c0 1.26.4 2.29 1.76 2.29s2-.77 2-3v-6.08h3.14z"/><path d="m276.6 16.06v-16.06h3.17v16.06z"/><path d="m285.2 11.05c0 1.43.73 2.81 2.29 2.81a1.81 1.81 0 0 0 2-1.21h3.15a5 5 0 0 1 -5.21 3.68c-3.77 0-5.4-2.8-5.4-5.79 0-3.59 1.83-6.14 5.51-6.14 3.89 0 5.23 2.84 5.23 5.68a7.4 7.4 0 0 1 0 1zm4.4-1.94c0-1.32-.55-2.44-2.09-2.44s-2.11 1-2.24 2.44z"/><path d="m297.35 12.63a2 2 0 0 0 2.15 1.43c1.17 0 1.59-.42 1.59-1.12s-.49-1-2.11-1.41c-3.72-.92-4.32-2.07-4.32-3.67s1.17-3.46 4.6-3.46 4.65 1.89 4.73 3.43h-3c-.11-.41-.4-1.21-1.87-1.21-1 0-1.39.46-1.39 1s.36.84 2.2 1.28c3.81.88 4.36 2.18 4.36 3.85 0 1.89-1.45 3.61-4.91 3.61s-4.88-1.68-5.15-3.7z"/><path d="m306.15 16.06v-3.87h3.36v3.87z"/><path d="m3.87 69.06-3.87-15.16h3.5c1.43 7 2.07 10.06 2.24 11.73.58-2.79 2.05-8.08 2.93-11.73h3c.79 2.91 2.31 8.78 2.82 11.58.5-3.35 2-9.22 2.53-11.58h3.17l-4.1 15.16h-3.42c-.79-3.36-2.13-8.27-2.66-10.87-.57 2.71-1.93 7.81-2.75 10.87z"/><path d="m24.57 64.05c0 1.43.73 2.81 2.29 2.81a1.81 1.81 0 0 0 2-1.21h3.14a5 5 0 0 1 -5.21 3.68c-3.77 0-5.39-2.8-5.39-5.79 0-3.59 1.82-6.14 5.5-6.14 3.89 0 5.23 2.84 5.23 5.68a7.4 7.4 0 0 1 0 1zm4.43-1.94c0-1.32-.56-2.44-2.1-2.44s-2.11 1-2.24 2.44z"/><path d="m50.27 53v12.94 3.12h-3c-.07-.35-.13-.92-.16-1.19a3.41 3.41 0 0 1 -3.23 1.46c-2.88 0-4.71-2.31-4.71-5.88s1.94-6.05 5.17-6.05c1.65 0 2.53.6 2.77 1.1v-5.5zm-5.43 13.8c2.15 0 2.42-1.81 2.42-3.44 0-2-.29-3.43-2.36-3.43-1.65 0-2.48 1.3-2.48 3.46s.85 3.41 2.42 3.41z"/><path d="m63.78 63.34c0 3.46-2.07 6-5.68 6s-5.59-2.53-5.59-5.92 2.14-6 5.75-6c3.34-.02 5.52 2.36 5.52 5.92zm-8.08 0c0 2.2.95 3.5 2.47 3.5s2.42-1.3 2.42-3.47c0-2.38-.88-3.5-2.47-3.5s-2.42 1.13-2.42 3.49z"/><path d="m66.06 60.55c0-1 0-2 0-2.88h3.04a12.81 12.81 0 0 1 .13 1.45 3.47 3.47 0 0 1 3.3-1.72c2.29 0 3.77 1.56 3.77 4.42v7.24h-3.15v-6.88c0-1.3-.42-2.23-1.83-2.23s-2.09.75-2.09 2.78v6.33h-3.17z"/><path d="m78.63 59.54a30 30 0 0 0 1-6.54h3.37a18.71 18.71 0 0 1 -1.82 6.54z"/><path d="m85.16 57.67h1.76v-3.09h3.15v3.09h2.24v2.33h-2.24v5.63c0 .86.26 1.19 1.21 1.19h.7v2.18a6.8 6.8 0 0 1 -2.11.22c-2.22 0-3-1.19-3-3.19v-6.03h-1.71z"/><path d="m109.65 65.39c-.38 1.89-1.72 3.94-5.11 3.94-3.54 0-5.37-2.45-5.37-5.88s2-6.05 5.53-6.05c3.83 0 4.9 2.77 5 4.05h-3.06a1.79 1.79 0 0 0 -2-1.56c-1.45 0-2.27 1.25-2.27 3.45 0 2.44.89 3.54 2.25 3.54a1.94 1.94 0 0 0 2-1.49z"/><path d="m121.22 66.11a27.1 27.1 0 0 0 .15 3h-3a4.33 4.33 0 0 1 -.15-1.12c-.42.64-1.19 1.39-3.22 1.39-2.75 0-3.89-1.81-3.89-3.57 0-2.59 2.07-3.8 5.41-3.8h1.63v-.69c0-.81-.29-1.6-1.76-1.6-1.32 0-1.63.55-1.76 1.38h-3c.15-2 1.4-3.65 4.88-3.65 3 0 4.71 1.21 4.71 3.94zm-3.08-2.24h-1.28c-1.91 0-2.62.59-2.62 1.69a1.47 1.47 0 0 0 1.66 1.52c2 0 2.24-1.41 2.24-2.9z"/><path d="m124.17 60.77c0-1.15 0-2.14 0-3.1h3.11c0 .26.08 1.38.08 2a3.68 3.68 0 0 1 3.64-2.27v3c-2.29-.07-3.66.54-3.66 3.67v5h-3.16z"/><path d="m135.45 64.05c0 1.43.73 2.81 2.29 2.81a1.81 1.81 0 0 0 2-1.21h3.15a5 5 0 0 1 -5.22 3.68c-3.76 0-5.39-2.8-5.39-5.79 0-3.59 1.83-6.14 5.51-6.14 3.89 0 5.23 2.84 5.23 5.68a7.4 7.4 0 0 1 0 1zm4.4-1.94c0-1.32-.55-2.44-2.09-2.44s-2.11 1-2.24 2.44z"/><path d="m160.16 66.11a27.1 27.1 0 0 0 .15 3h-3a4.33 4.33 0 0 1 -.15-1.12c-.42.64-1.19 1.39-3.22 1.39-2.75 0-3.89-1.81-3.89-3.57 0-2.59 2.07-3.8 5.41-3.8h1.63v-.69c0-.81-.29-1.6-1.76-1.6-1.32 0-1.63.55-1.76 1.38h-3c.15-2 1.4-3.65 4.88-3.65 3 0 4.71 1.21 4.71 3.94zm-3.08-2.24h-1.28c-1.91 0-2.62.59-2.62 1.69a1.47 1.47 0 0 0 1.65 1.52c2 0 2.25-1.41 2.25-2.9z"/><path d="m163.11 53h3.16v5.88a3.57 3.57 0 0 1 3.26-1.48c3.1 0 4.64 2.58 4.64 5.77s-1.67 6.16-4.95 6.16c-1.69 0-2.44-.51-3-1.35a5.51 5.51 0 0 1 -.13 1.08h-3c0-1.23 0-2.48 0-3.72zm5.45 6.93c-1.8 0-2.44 1.17-2.44 3.5 0 1.91.57 3.39 2.4 3.39 1.6 0 2.46-1.43 2.46-3.59.02-1.91-.72-3.3-2.42-3.3z"/><path d="m187 63.34c0 3.46-2.07 6-5.67 6s-5.59-2.53-5.59-5.92 2.13-6 5.74-6c3.38-.02 5.52 2.36 5.52 5.92zm-8.07 0c0 2.2.94 3.5 2.46 3.5s2.42-1.3 2.42-3.47c0-2.38-.88-3.5-2.46-3.5s-2.35 1.13-2.35 3.49z"/><path d="m199.34 65.76v3.3h-3.08c0-.31-.06-.92-.09-1.32a3.24 3.24 0 0 1 -3.14 1.59c-2.31 0-3.79-1.41-3.79-4.23v-7.43h3.15v6.79c0 1.26.4 2.29 1.76 2.29s2-.77 2-3v-6.08h3.15z"/><path d="m201.19 57.67h1.81v-3.09h3.14v3.09h2.25v2.33h-2.25v5.63c0 .86.27 1.19 1.21 1.19h.71v2.18a6.86 6.86 0 0 1 -2.11.22c-2.23 0-3-1.19-3-3.19v-6.03h-1.76z"/><path d="m214.72 57.67h1.76v-3.09h3.14v3.09h2.25v2.33h-2.25v5.63c0 .86.27 1.19 1.21 1.19h.71v2.18a6.86 6.86 0 0 1 -2.11.22c-2.23 0-3-1.19-3-3.19v-6.03h-1.76z"/><path d="m227.08 53v6a3.59 3.59 0 0 1 3.26-1.63c2.11 0 3.8 1.28 3.8 4.36v7.3h-3.14v-6.81c0-1.47-.53-2.27-1.85-2.27-1.76 0-2.09 1.32-2.09 3.06v6.05h-3.17v-16.06z"/><path d="m239.6 64.05c0 1.43.72 2.81 2.29 2.81a1.82 1.82 0 0 0 2-1.21h3.11a5 5 0 0 1 -5.21 3.68c-3.76 0-5.39-2.8-5.39-5.79 0-3.59 1.83-6.14 5.5-6.14 3.89 0 5.24 2.84 5.24 5.68a5.93 5.93 0 0 1 0 1zm4.4-1.94c0-1.32-.55-2.44-2.09-2.44s-2.11 1-2.25 2.44z"/><path d="m257.18 65.63a2 2 0 0 0 2.15 1.43c1.17 0 1.59-.42 1.59-1.12s-.49-1-2.12-1.41c-3.71-.92-4.31-2.07-4.31-3.67s1.17-3.46 4.6-3.46 4.64 1.89 4.73 3.43h-3c-.11-.41-.4-1.21-1.87-1.21-1 0-1.39.46-1.39 1s.35.84 2.2 1.28c3.81.88 4.36 2.18 4.36 3.85 0 1.89-1.45 3.61-4.91 3.61s-4.88-1.68-5.15-3.7z"/><path d="m266.31 55.82v-2.82h3.16v2.82zm0 1.85h3.16v11.39h-3.16z"/><path d="m271.65 66.69 5.63-6.54h-5.37v-2.48h8.94v2.46l-5.52 6.45h5.91l-.37 2.48h-9.22z"/><path d="m285.8 64.05c0 1.43.72 2.81 2.28 2.81a1.83 1.83 0 0 0 2-1.21h3.14a5 5 0 0 1 -5.22 3.68c-3.76 0-5.39-2.8-5.39-5.79 0-3.59 1.82-6.14 5.5-6.14 3.89 0 5.23 2.84 5.23 5.68a7.4 7.4 0 0 1 0 1zm4.4-1.94c0-1.32-.55-2.44-2.09-2.44s-2.12 1-2.25 2.44z"/><path d="m310.5 66.11a24.1 24.1 0 0 0 .16 3h-3a4.81 4.81 0 0 1 -.15-1.12c-.42.64-1.19 1.39-3.21 1.39-2.75 0-3.9-1.81-3.9-3.57 0-2.59 2.07-3.8 5.42-3.8h1.62v-.69c0-.81-.28-1.6-1.76-1.6-1.32 0-1.62.55-1.76 1.38h-3c.16-2 1.41-3.65 4.89-3.65 3 0 4.7 1.21 4.7 3.94zm-3.08-2.24h-1.27c-1.92 0-2.62.59-2.62 1.69a1.47 1.47 0 0 0 1.65 1.52c2 0 2.24-1.41 2.24-2.9z"/><path d="m313.47 60.55c0-1 0-2 0-2.88h3.06c.06.3.11 1.09.13 1.45a3.45 3.45 0 0 1 3.3-1.72c2.29 0 3.76 1.56 3.76 4.42v7.24h-3.14v-6.88c0-1.3-.42-2.23-1.83-2.23s-2.09.75-2.09 2.78v6.33h-3.17z"/><path d="m337.06 53v12.94 3.12h-3c-.07-.35-.14-.92-.16-1.19a3.41 3.41 0 0 1 -3.23 1.46c-2.89 0-4.71-2.31-4.71-5.88s1.93-6.05 5.17-6.05c1.65 0 2.53.6 2.77 1.1v-5.5zm-5.44 13.8c2.16 0 2.42-1.81 2.42-3.44 0-2-.28-3.43-2.35-3.43-1.65 0-2.49 1.3-2.49 3.46s.86 3.41 2.42 3.41z"/><path d="m347.73 65.63a2 2 0 0 0 2.15 1.43c1.17 0 1.59-.42 1.59-1.12s-.49-1-2.11-1.41c-3.72-.92-4.32-2.07-4.32-3.67s1.17-3.46 4.6-3.46 4.64 1.89 4.73 3.43h-3c-.11-.41-.4-1.21-1.87-1.21-1 0-1.39.46-1.39 1s.35.84 2.2 1.28c3.81.88 4.36 2.18 4.36 3.85 0 1.89-1.45 3.61-4.91 3.61s-4.88-1.68-5.15-3.7z"/><path d="m360 53v6a3.6 3.6 0 0 1 3.26-1.63c2.11 0 3.81 1.28 3.81 4.36v7.3h-3.07v-6.81c0-1.47-.52-2.27-1.84-2.27-1.77 0-2.1 1.32-2.1 3.06v6.05h-3.16v-16.06z"/><path d="m379.5 66.11a24.7 24.7 0 0 0 .15 3h-3a4.81 4.81 0 0 1 -.15-1.12c-.42.64-1.19 1.39-3.21 1.39-2.75 0-3.9-1.81-3.9-3.57 0-2.59 2.07-3.8 5.42-3.8h1.63v-.69c0-.81-.29-1.6-1.76-1.6s-1.63.55-1.77 1.38h-3c.16-2 1.41-3.65 4.89-3.65 3 0 4.71 1.21 4.71 3.94zm-3.08-2.24h-1.28c-1.92 0-2.62.59-2.62 1.69a1.47 1.47 0 0 0 1.65 1.52c2 0 2.25-1.41 2.25-2.9z"/><path d="m382.44 73.42v-13c0-.93 0-1.83 0-2.75h3.06a13.94 13.94 0 0 1 .11 1.42 3.58 3.58 0 0 1 3.3-1.69c2.57 0 4.53 2.16 4.53 5.68 0 4-2.2 6.25-4.95 6.25a3.18 3.18 0 0 1 -2.88-1.28v5.37zm5.44-13.49c-1.79 0-2.42 1.17-2.42 3.46s.59 3.43 2.28 3.43 2.49-1.3 2.49-3.61c0-2.09-.84-3.28-2.35-3.28z"/><path d="m398.22 64.05c0 1.43.72 2.81 2.28 2.81a1.83 1.83 0 0 0 2-1.21h3.14a5 5 0 0 1 -5.21 3.68c-3.76 0-5.39-2.8-5.39-5.79 0-3.59 1.82-6.14 5.5-6.14 3.89 0 5.24 2.84 5.24 5.68a5.93 5.93 0 0 1 -.05 1zm4.4-1.94c0-1.32-.55-2.44-2.09-2.44s-2.12 1-2.25 2.44z"/><path d="m424.07 63.34c0 3.46-2.07 6-5.68 6s-5.59-2.53-5.59-5.92 2.14-6 5.74-6c3.35-.02 5.53 2.36 5.53 5.92zm-8.08 0c0 2.2.95 3.5 2.47 3.5s2.42-1.3 2.42-3.47c0-2.38-.88-3.5-2.47-3.5s-2.41 1.13-2.41 3.49z"/><path d="m426.77 69.06v-9.06h-1.67v-2.33h1.67v-1c0-2.35 1.17-3.89 3.63-3.89a6.35 6.35 0 0 1 1.45.13v2.49a5.58 5.58 0 0 0 -.66 0c-.92 0-1.27.33-1.27 1.57v.75h2v2.28h-2v9z"/><path d="m438 57.67h1.76v-3.09h3.15v3.09h2.25v2.33h-2.25v5.63c0 .86.26 1.19 1.21 1.19h.7v2.18a6.8 6.8 0 0 1 -2.11.22c-2.22 0-3-1.19-3-3.19v-6.03h-1.71z"/><path d="m450.82 53v6a3.58 3.58 0 0 1 3.25-1.63c2.12 0 3.81 1.28 3.81 4.36v7.3h-3.12v-6.81c0-1.47-.53-2.27-1.85-2.27-1.76 0-2.09 1.32-2.09 3.06v6.05h-3.17v-16.06z"/><path d="m463.34 64.05c0 1.43.72 2.81 2.28 2.81a1.83 1.83 0 0 0 2-1.21h3.14a5 5 0 0 1 -5.21 3.68c-3.77 0-5.39-2.8-5.39-5.79 0-3.59 1.82-6.14 5.5-6.14 3.89 0 5.23 2.84 5.23 5.68a7.4 7.4 0 0 1 0 1zm4.4-1.94c0-1.32-.55-2.44-2.09-2.44s-2.12 1-2.25 2.44z"/><path d="m478.58 73.42v-13c0-.93 0-1.83 0-2.75h3.06a13.94 13.94 0 0 1 .11 1.42 3.58 3.58 0 0 1 3.25-1.69c2.57 0 4.53 2.16 4.53 5.68 0 4-2.2 6.25-4.95 6.25a3.18 3.18 0 0 1 -2.88-1.28v5.37zm5.42-13.49c-1.79 0-2.42 1.17-2.42 3.46s.59 3.43 2.28 3.43 2.49-1.3 2.49-3.61c.02-2.09-.82-3.28-2.35-3.28z"/><path d="m491.85 60.77c0-1.15 0-2.14 0-3.1h3.1c0 .26.09 1.38.09 2a3.66 3.66 0 0 1 3.65-2.27v3c-2.29-.07-3.65.54-3.65 3.67v5h-3.17z"/><path d="m511.23 63.34c0 3.46-2.07 6-5.68 6s-5.55-2.54-5.55-5.93 2.14-6 5.75-6c3.3-.01 5.48 2.37 5.48 5.93zm-8.07 0c0 2.2.94 3.5 2.46 3.5s2.42-1.3 2.42-3.47c0-2.38-.88-3.5-2.46-3.5s-2.42 1.13-2.42 3.49z"/><path d="m516.66 57.67v11.15c0 3.26-.66 4.82-3.78 4.82-.29 0-.71 0-1 0v-2.58a1 1 0 0 0 .29 0c1 0 1.3-.4 1.3-1.63v-11.76zm-3.16-1.85v-2.82h3.16v2.82z"/><path d="m522.1 64.05c0 1.43.72 2.81 2.29 2.81a1.82 1.82 0 0 0 2-1.21h3.14a5 5 0 0 1 -5.21 3.68c-3.76 0-5.39-2.8-5.39-5.79 0-3.59 1.82-6.14 5.5-6.14 3.89 0 5.24 2.84 5.24 5.68a5.93 5.93 0 0 1 0 1zm4.4-1.94c0-1.32-.55-2.44-2.09-2.44s-2.12 1-2.25 2.44z"/><path d="m541.77 65.39c-.38 1.89-1.72 3.94-5.11 3.94s-5.37-2.45-5.37-5.88 2.05-6.05 5.52-6.05c3.83 0 4.91 2.77 5 4.05h-3.06a1.79 1.79 0 0 0 -2-1.56c-1.45 0-2.27 1.25-2.27 3.45 0 2.44.88 3.54 2.25 3.54a1.94 1.94 0 0 0 2-1.49z"/><path d="m542.78 57.67h1.76v-3.09h3.14v3.09h2.25v2.33h-2.25v5.63c0 .86.27 1.19 1.21 1.19h.71v2.18a6.9 6.9 0 0 1 -2.12.22c-2.22 0-2.94-1.19-2.94-3.19v-6.03h-1.76z"/><path d="m551.64 69.06v-3.87h3.36v3.87z"/><path d="m3.87 122.06-3.87-15.16h3.5c1.43 7 2.07 10.06 2.24 11.73.58-2.79 2.05-8.08 2.93-11.73h3c.79 2.91 2.31 8.78 2.82 11.58.5-3.35 2-9.22 2.53-11.58h3.17l-4.1 15.16h-3.42c-.79-3.36-2.13-8.27-2.66-10.87-.55 2.71-1.91 7.81-2.73 10.87z"/><path d="m24.57 117.05c0 1.43.73 2.81 2.29 2.81a1.81 1.81 0 0 0 2-1.21h3.14a5 5 0 0 1 -5.21 3.68c-3.77 0-5.39-2.8-5.39-5.79 0-3.59 1.82-6.14 5.5-6.14 3.89 0 5.23 2.84 5.23 5.68a7.4 7.4 0 0 1 0 1zm4.43-1.94c0-1.32-.56-2.44-2.1-2.44s-2.11 1-2.24 2.44z"/><path d="m50.43 116.34c0 3.46-2.07 6-5.68 6s-5.59-2.53-5.59-5.92 2.13-6 5.74-6c3.35-.02 5.53 2.36 5.53 5.92zm-8.08 0c0 2.2.95 3.5 2.46 3.5s2.42-1.3 2.42-3.47c0-2.38-.88-3.5-2.46-3.5s-2.42 1.13-2.42 3.49z"/><path d="m52.71 113.55c0-1 0-2 0-2.88h3.06c.06.3.11 1.09.13 1.45a3.45 3.45 0 0 1 3.3-1.72c2.29 0 3.76 1.56 3.76 4.42v7.24h-3.16v-6.88c0-1.3-.42-2.23-1.83-2.23s-2.09.75-2.09 2.78v6.33h-3.17z"/><path d="m65.85 122.06v-16.06h3.15v16.06z"/><path d="m74 110.67c1.17 3.93 2.2 7.43 2.38 8.49.24-1.15.92-3.7 2.26-8.49h3.15l-3.79 11.72c-1.08 3.28-2 4.25-4.73 4.25a13.29 13.29 0 0 1 -1.47-.09v-2.55h.81a2 2 0 0 0 2.18-1.65l-4.16-11.74z"/><path d="m98.76 118.39c-.38 1.89-1.72 3.94-5.11 3.94-3.54 0-5.37-2.45-5.37-5.88s2-6 5.53-6c3.83 0 4.9 2.77 5 4h-3.11a1.79 1.79 0 0 0 -2-1.56c-1.45 0-2.26 1.25-2.26 3.45 0 2.44.88 3.54 2.24 3.54a1.94 1.94 0 0 0 2-1.49z"/><path d="m110.33 119.11a27.1 27.1 0 0 0 .15 3h-3a4.33 4.33 0 0 1 -.15-1.12c-.42.64-1.19 1.39-3.22 1.39-2.75 0-3.89-1.81-3.89-3.57 0-2.59 2.07-3.8 5.41-3.8h1.63v-.69c0-.81-.29-1.6-1.76-1.6-1.32 0-1.63.55-1.76 1.38h-3c.15-2 1.41-3.65 4.88-3.65 3 0 4.71 1.21 4.71 3.94zm-3.08-2.24h-1.25c-1.91 0-2.61.59-2.61 1.69a1.47 1.47 0 0 0 1.65 1.52c2 0 2.24-1.41 2.24-2.9z"/><path d="m113.28 113.77c0-1.15 0-2.14 0-3.1h3.11c0 .26.09 1.38.09 2a3.66 3.66 0 0 1 3.65-2.27v3c-2.29-.07-3.65.54-3.65 3.67v5h-3.17z"/><path d="m124.56 117.05c0 1.43.73 2.81 2.29 2.81a1.81 1.81 0 0 0 2-1.21h3.15a5 5 0 0 1 -5.21 3.68c-3.77 0-5.4-2.8-5.4-5.79 0-3.59 1.83-6.14 5.51-6.14 3.89 0 5.23 2.84 5.23 5.68a7.4 7.4 0 0 1 0 1zm4.4-1.94c0-1.32-.55-2.44-2.09-2.44s-2.11 1-2.24 2.44z"/><path d="m149.27 119.11a27.1 27.1 0 0 0 .15 3h-3a4.33 4.33 0 0 1 -.15-1.12c-.42.64-1.19 1.39-3.22 1.39-2.75 0-3.89-1.81-3.89-3.57 0-2.59 2.07-3.8 5.41-3.8h1.63v-.69c0-.81-.29-1.6-1.76-1.6-1.32 0-1.63.55-1.76 1.38h-3c.15-2 1.4-3.65 4.88-3.65 3 0 4.71 1.21 4.71 3.94zm-3.08-2.24h-1.28c-1.91 0-2.62.59-2.62 1.69a1.47 1.47 0 0 0 1.66 1.52c2 0 2.24-1.41 2.24-2.9z"/><path d="m152.22 106h3.17v5.88a3.54 3.54 0 0 1 3.25-1.48c3.1 0 4.64 2.58 4.64 5.77s-1.67 6.16-4.95 6.16c-1.69 0-2.44-.51-3-1.35a5.51 5.51 0 0 1 -.13 1.08h-3c0-1.23 0-2.48 0-3.72zm5.45 6.93c-1.8 0-2.44 1.17-2.44 3.5 0 1.91.57 3.39 2.4 3.39 1.6 0 2.46-1.43 2.46-3.59 0-1.91-.72-3.3-2.42-3.3z"/><path d="m176.15 116.34c0 3.46-2.06 6-5.67 6s-5.59-2.53-5.59-5.92 2.13-6 5.74-6c3.37-.02 5.52 2.36 5.52 5.92zm-8.07 0c0 2.2.94 3.5 2.46 3.5s2.42-1.3 2.42-3.47c0-2.38-.88-3.5-2.46-3.5s-2.42 1.13-2.42 3.49z"/><path d="m188.45 118.76v3.3h-3.08c0-.31-.06-.92-.09-1.32a3.24 3.24 0 0 1 -3.14 1.59c-2.31 0-3.79-1.41-3.79-4.23v-7.43h3.15v6.79c0 1.26.4 2.29 1.76 2.29s2-.77 2-3v-6.07h3.15z"/><path d="m190.3 110.67h1.76v-3.09h3.14v3.09h2.25v2.33h-2.25v5.63c0 .86.27 1.19 1.21 1.19h.71v2.18a6.83 6.83 0 0 1 -2.11.22c-2.23 0-2.95-1.19-2.95-3.19v-6h-1.76z"/><path d="m204.93 113.61c0-1 0-2 0-2.94h3c0 .28.11.92.13 1.36a3.58 3.58 0 0 1 3.17-1.63 3 3 0 0 1 2.93 1.74 4 4 0 0 1 3.52-1.74c2 0 3.61 1.23 3.61 4.18v7.48h-3.09v-7.06c0-1-.37-2-1.67-2s-1.85.88-1.85 2.62v6.51h-3.1v-7c0-1.17-.28-2.14-1.63-2.14s-1.89.8-1.89 2.75v6.36h-3.12z"/><path d="m233.66 119.11a27.1 27.1 0 0 0 .15 3h-3a4.33 4.33 0 0 1 -.15-1.12c-.42.64-1.19 1.39-3.22 1.39-2.75 0-3.89-1.81-3.89-3.57 0-2.59 2.07-3.8 5.41-3.8h1.63v-.69c0-.81-.29-1.6-1.76-1.6-1.32 0-1.63.55-1.76 1.38h-3c.15-2 1.41-3.65 4.88-3.65 3 0 4.71 1.21 4.71 3.94zm-3.08-2.24h-1.28c-1.91 0-2.61.59-2.61 1.69a1.47 1.47 0 0 0 1.65 1.52c2 0 2.24-1.41 2.24-2.9z"/><path d="m239.78 115.48c.83-1.14 2.33-2.9 3.91-4.81h3.61l-4 4.31 4.33 7.08h-3.56l-2.84-5.06-1.45 1.41v3.65h-3.17v-16.06h3.17z"/><path d="m249 108.82v-2.82h3.17v2.82zm0 1.85h3.17v11.39h-3.17z"/><path d="m255.09 113.55c0-1 0-2 0-2.88h3.06c.07.3.11 1.09.14 1.45a3.44 3.44 0 0 1 3.3-1.72c2.28 0 3.76 1.56 3.76 4.42v7.24h-3.15v-6.88c0-1.3-.42-2.23-1.82-2.23s-2.09.75-2.09 2.78v6.33h-3.17z"/><path d="m278.58 120.68c0 3.65-1.34 6-5.65 6s-5-2.31-5.08-3.61h3.21a1.8 1.8 0 0 0 2 1.32c2.05 0 2.44-1.25 2.44-3.48v-.55a3.36 3.36 0 0 1 -3.21 1.61c-3 0-4.71-2.46-4.71-5.52 0-3.57 2.14-6 5-6 1.95 0 2.77.93 2.94 1.45 0-.31.11-1 .14-1.18h3v3.27zm-5.39-1.3c1.9 0 2.4-1.3 2.4-3.21s-.33-3.24-2.33-3.24c-1.36 0-2.44 1.06-2.44 3.35 0 1.95.99 3.1 2.37 3.1z"/><path d="m297.28 120.68c0 3.65-1.34 6-5.65 6-4.16 0-5-2.31-5.08-3.61h3.21a1.8 1.8 0 0 0 2 1.32c2.05 0 2.44-1.25 2.44-3.48v-.55a3.36 3.36 0 0 1 -3.21 1.61c-3 0-4.71-2.46-4.71-5.52 0-3.57 2.14-6 5-6 1.95 0 2.77.93 2.94 1.45 0-.31.11-1 .14-1.18h3v3.27zm-5.39-1.3c1.9 0 2.4-1.3 2.4-3.21s-.33-3.24-2.33-3.24c-1.36 0-2.44 1.06-2.44 3.35 0 1.95.99 3.1 2.37 3.1z"/><path d="m300.19 113.77c0-1.15 0-2.14 0-3.1h3.11c0 .26.09 1.38.09 2a3.66 3.66 0 0 1 3.61-2.27v3c-2.29-.07-3.65.54-3.65 3.67v5h-3.17z"/><path d="m311.47 117.05c0 1.43.73 2.81 2.29 2.81a1.81 1.81 0 0 0 2-1.21h3.15a5 5 0 0 1 -5.21 3.68c-3.77 0-5.39-2.8-5.39-5.79 0-3.59 1.82-6.14 5.5-6.14 3.89 0 5.23 2.84 5.23 5.68a7.4 7.4 0 0 1 0 1zm4.41-1.94c0-1.32-.55-2.44-2.1-2.44s-2.11 1-2.24 2.44z"/><path d="m330.75 119.11a27.1 27.1 0 0 0 .15 3h-3a4.32 4.32 0 0 1 -.16-1.12c-.41.64-1.19 1.39-3.21 1.39-2.75 0-3.89-1.81-3.89-3.57 0-2.59 2.06-3.8 5.41-3.8h1.63v-.69c0-.81-.29-1.6-1.76-1.6s-1.63.55-1.76 1.38h-3c.16-2 1.41-3.65 4.89-3.65 3 0 4.71 1.21 4.71 3.94zm-3.08-2.24h-1.28c-1.91 0-2.62.59-2.62 1.69a1.47 1.47 0 0 0 1.65 1.52c2 0 2.25-1.41 2.25-2.9z"/><path d="m332.59 110.67h1.76v-3.09h3.15v3.09h2.24v2.33h-2.24v5.63c0 .86.26 1.19 1.21 1.19h.7v2.18a6.8 6.8 0 0 1 -2.11.22c-2.22 0-2.95-1.19-2.95-3.19v-6h-1.76z"/><path d="m349.55 118.63a2 2 0 0 0 2.16 1.43c1.17 0 1.59-.42 1.59-1.12s-.49-1-2.12-1.41c-3.72-.92-4.31-2.07-4.31-3.67s1.17-3.46 4.6-3.46 4.64 1.89 4.73 3.43h-3c-.11-.41-.4-1.21-1.87-1.21-1 0-1.39.46-1.39 1s.35.84 2.2 1.28c3.81.88 4.36 2.18 4.36 3.85 0 1.89-1.45 3.61-4.91 3.61s-4.88-1.68-5.15-3.7z"/><path d="m357.58 110.67h1.76v-3.09h3.15v3.09h2.25v2.33h-2.25v5.63c0 .86.26 1.19 1.21 1.19h.71v2.18a6.9 6.9 0 0 1 -2.12.22c-2.22 0-3-1.19-3-3.19v-6h-1.76z"/><path d="m376.81 118.76v3.3h-3.09c0-.31-.06-.92-.08-1.32a3.25 3.25 0 0 1 -3.15 1.59c-2.31 0-3.78-1.41-3.78-4.23v-7.43h3.14v6.79c0 1.26.4 2.29 1.76 2.29s2-.77 2-3v-6.07h3.14z"/><path d="m383.35 113v9h-3.15v-9h-1.67v-2.37h1.67v-1c0-2.35 1-3.87 3.7-3.87a5 5 0 0 1 1.27.15v2.45a3.65 3.65 0 0 0 -.72-.07c-.86 0-1.1.53-1.1 1.43v.93h3.49v-1c0-2.35 1.08-3.87 3.72-3.87a5.08 5.08 0 0 1 1.28.15v2.45a3.68 3.68 0 0 0 -.73-.07c-.86 0-1.1.53-1.1 1.43v.93h2v2.33h-2v9h-3.17v-9z"/><path d="m393.82 124.62a19.06 19.06 0 0 0 1.63-6.43h3.23a12.7 12.7 0 0 1 -2.42 6.43z"/><path d="m10.5 172.11a24.7 24.7 0 0 0 .15 2.95h-3a4.32 4.32 0 0 1 -.16-1.12c-.42.64-1.19 1.39-3.21 1.39-2.75 0-3.9-1.81-3.9-3.57 0-2.59 2.07-3.8 5.42-3.8h1.62v-.69c0-.81-.29-1.6-1.77-1.6-1.32 0-1.62.55-1.76 1.38h-2.99c.16-2 1.41-3.65 4.89-3.65 3 0 4.71 1.21 4.71 3.94zm-3.08-2.24h-1.28c-1.92 0-2.62.59-2.62 1.69a1.47 1.47 0 0 0 1.65 1.52c2 0 2.25-1.41 2.25-2.9z"/><path d="m13.46 166.55c0-1 0-2 0-2.88h3.04a12.81 12.81 0 0 1 .13 1.45 3.47 3.47 0 0 1 3.3-1.72c2.29 0 3.77 1.56 3.77 4.42v7.24h-3.15v-6.88c0-1.3-.42-2.23-1.83-2.23s-2.09.75-2.09 2.78v6.33h-3.17z"/><path d="m37.05 159v12.94 3.12h-3c-.07-.35-.13-.92-.16-1.19a3.41 3.41 0 0 1 -3.23 1.46c-2.88 0-4.71-2.31-4.71-5.88s1.94-6 5.17-6c1.65 0 2.53.6 2.77 1.1v-5.55zm-5.44 13.8c2.16 0 2.43-1.81 2.43-3.44 0-2-.29-3.43-2.36-3.43-1.65 0-2.49 1.3-2.49 3.46s.86 3.41 2.42 3.41z"/><path d="m47.67 163.67c1 4.57 1.59 7.17 1.81 8.6.24-1.28.57-3.06 2-8.6h2.93c1.27 5.61 1.67 7.26 1.82 8.47.25-1.17.6-2.86 1.92-8.47h3.12l-3.38 11.39h-3.35c-.95-4.31-1.48-6.6-1.74-8.1-.18 1.44-.79 4-1.81 8.1h-3.4l-3.24-11.39z"/><path d="m65.69 170.05c0 1.43.73 2.81 2.29 2.81a1.82 1.82 0 0 0 2-1.21h3.15a5 5 0 0 1 -5.22 3.68c-3.76 0-5.39-2.8-5.39-5.79 0-3.59 1.83-6.14 5.5-6.14 3.9 0 5.24 2.84 5.24 5.68a7.4 7.4 0 0 1 0 1zm4.4-1.94c0-1.32-.55-2.44-2.09-2.44s-2.11 1-2.24 2.44z"/><path d="m74.93 165.54a30 30 0 0 0 1.07-6.54h3.33a18.73 18.73 0 0 1 -1.83 6.54z"/><path d="m82.12 166.77c0-1.15 0-2.14 0-3.1h3.11c0 .26.08 1.38.08 2a3.68 3.68 0 0 1 3.69-2.27v3c-2.29-.07-3.66.54-3.66 3.67v5h-3.22z"/><path d="m93.41 170.05c0 1.43.73 2.81 2.29 2.81a1.82 1.82 0 0 0 2-1.21h3.15a5 5 0 0 1 -5.22 3.68c-3.76 0-5.39-2.8-5.39-5.79 0-3.59 1.83-6.14 5.5-6.14 3.9 0 5.24 2.84 5.24 5.68a7.4 7.4 0 0 1 0 1zm4.4-1.94c0-1.32-.55-2.44-2.09-2.44s-2.11 1-2.24 2.44z"/><path d="m118.12 172.11a27.1 27.1 0 0 0 .15 2.95h-3a4.32 4.32 0 0 1 -.16-1.12c-.41.64-1.18 1.39-3.21 1.39-2.75 0-3.89-1.81-3.89-3.57 0-2.59 2.06-3.8 5.41-3.8h1.58v-.69c0-.81-.29-1.6-1.76-1.6s-1.63.55-1.76 1.38h-3c.16-2 1.41-3.65 4.89-3.65 3 0 4.71 1.21 4.71 3.94zm-3.12-2.24h-1.28c-1.91 0-2.62.59-2.62 1.69a1.47 1.47 0 0 0 1.65 1.52c2 0 2.25-1.41 2.25-2.9z"/><path d="m121.06 175.06v-16.06h3.17v16.06z"/><path d="m129.45 163.67c1 4.57 1.58 7.17 1.8 8.6.25-1.28.58-3.06 2-8.6h2.93c1.28 5.61 1.67 7.26 1.83 8.47.24-1.17.59-2.86 1.91-8.47h3.13l-3.39 11.39h-3.37c-.95-4.31-1.47-6.6-1.74-8.1-.18 1.44-.79 4-1.8 8.1h-3.39l-3.24-11.39z"/><path d="m154.42 172.11a27.1 27.1 0 0 0 .15 2.95h-3a4.32 4.32 0 0 1 -.16-1.12c-.42.64-1.19 1.39-3.21 1.39-2.75 0-3.89-1.81-3.89-3.57 0-2.59 2.06-3.8 5.41-3.8h1.63v-.69c0-.81-.29-1.6-1.76-1.6s-1.63.55-1.76 1.38h-3c.16-2 1.41-3.65 4.89-3.65 3 0 4.71 1.21 4.71 3.94zm-3.08-2.24h-1.28c-1.91 0-2.62.59-2.62 1.69a1.47 1.47 0 0 0 1.65 1.52c2 0 2.25-1.41 2.25-2.9z"/><path d="m159.45 163.67c1.17 3.93 2.2 7.43 2.38 8.49.24-1.15.93-3.7 2.27-8.49h3.15l-3.83 11.72c-1.08 3.28-2 4.25-4.73 4.25a13.32 13.32 0 0 1 -1.48-.09v-2.55h.82c1.16 0 1.73-.39 2.17-1.65l-4.15-11.74z"/><path d="m171.22 171.63a2 2 0 0 0 2.16 1.43c1.17 0 1.58-.42 1.58-1.12s-.48-1-2.11-1.41c-3.72-.92-4.31-2.07-4.31-3.67s1.17-3.46 4.6-3.46 4.64 1.89 4.73 3.43h-3c-.11-.41-.4-1.21-1.87-1.21-1 0-1.39.46-1.39 1s.35.84 2.2 1.28c3.81.88 4.36 2.18 4.36 3.85 0 1.89-1.46 3.61-4.91 3.61s-4.88-1.68-5.15-3.7z"/><path d="m185.79 175.06v-16.06h3.21v16.06z"/><path d="m202.49 169.34c0 3.46-2.07 6-5.68 6s-5.59-2.53-5.59-5.92 2.13-6 5.74-6c3.35-.02 5.53 2.36 5.53 5.92zm-8.08 0c0 2.2 1 3.5 2.47 3.5s2.42-1.3 2.42-3.47c0-2.38-.88-3.5-2.47-3.5s-2.42 1.13-2.42 3.49z"/><path d="m215.36 169.34c0 3.46-2.07 6-5.68 6s-5.59-2.53-5.59-5.92 2.14-6 5.74-6c3.35-.02 5.53 2.36 5.53 5.92zm-8.08 0c0 2.2.95 3.5 2.47 3.5s2.42-1.3 2.42-3.47c0-2.38-.88-3.5-2.47-3.5s-2.42 1.13-2.42 3.49z"/><path d="m220.79 168.48c.83-1.14 2.33-2.9 3.91-4.81h3.61l-4 4.31 4.34 7.08h-3.57l-2.84-5.06-1.45 1.41v3.65h-3.17v-16.06h3.17z"/><path d="m230 161.82v-2.82h3.17v2.82zm0 1.85h3.17v11.39h-3.17z"/><path d="m236.1 166.55c0-1 0-2 0-2.88h3.06c.06.3.11 1.09.13 1.45a3.45 3.45 0 0 1 3.3-1.72c2.29 0 3.76 1.56 3.76 4.42v7.24h-3.14v-6.88c0-1.3-.42-2.23-1.83-2.23s-2.09.75-2.09 2.78v6.33h-3.19z"/><path d="m259.6 173.68c0 3.65-1.35 6-5.66 6-4.16 0-5-2.31-5.08-3.61h3.21a1.8 1.8 0 0 0 2 1.32c2.05 0 2.45-1.25 2.45-3.48v-.55a3.38 3.38 0 0 1 -3.22 1.61c-3 0-4.7-2.46-4.7-5.52 0-3.57 2.13-6 5-6 2 0 2.77.93 2.95 1.45 0-.31.11-1 .13-1.18h3v3.27zm-5.39-1.3c1.89 0 2.39-1.3 2.39-3.21s-.33-3.24-2.33-3.24c-1.36 0-2.44 1.06-2.44 3.35 0 1.95.99 3.1 2.38 3.1z"/><path d="m268.37 175.06v-9h-1.67v-2.37h1.67v-1c0-2.35 1.17-3.89 3.63-3.89a6.51 6.51 0 0 1 1.46.13v2.49a6 6 0 0 0 -.66-.05c-.93 0-1.28.33-1.28 1.57v.75h2v2.31h-2v9z"/><path d="m285.89 169.34c0 3.46-2.07 6-5.68 6s-5.59-2.53-5.59-5.92 2.14-6 5.74-6c3.35-.02 5.53 2.36 5.53 5.92zm-8.08 0c0 2.2.95 3.5 2.47 3.5s2.42-1.3 2.42-3.47c0-2.38-.88-3.5-2.47-3.5s-2.42 1.13-2.42 3.49z"/><path d="m288.15 166.77c0-1.15 0-2.14 0-3.1h3.1a19.85 19.85 0 0 1 .09 2 3.67 3.67 0 0 1 3.66-2.27v3c-2.29-.07-3.65.54-3.65 3.67v5h-3.17z"/><path d="m304.7 171.63a2 2 0 0 0 2.15 1.43c1.17 0 1.59-.42 1.59-1.12s-.49-1-2.11-1.41c-3.72-.92-4.32-2.07-4.32-3.67s1.17-3.46 4.6-3.46 4.64 1.89 4.73 3.43h-3c-.11-.41-.4-1.21-1.87-1.21-1 0-1.39.46-1.39 1s.35.84 2.2 1.28c3.81.88 4.36 2.18 4.36 3.85 0 1.89-1.45 3.61-4.91 3.61s-4.88-1.68-5.15-3.7z"/><path d="m323.86 171.76v3.3h-3.06c0-.31-.06-.92-.09-1.32a3.24 3.24 0 0 1 -3.14 1.59c-2.31 0-3.79-1.41-3.79-4.23v-7.43h3.15v6.79c0 1.26.39 2.29 1.76 2.29s2-.77 2-3v-6.07h3.15z"/><path d="m336.66 171.39c-.37 1.89-1.71 3.94-5.1 3.94-3.54 0-5.37-2.45-5.37-5.88s2.05-6 5.52-6c3.83 0 4.91 2.77 5 4h-3.11a1.77 1.77 0 0 0 -2-1.56c-1.46 0-2.27 1.25-2.27 3.45 0 2.44.88 3.54 2.24 3.54a1.93 1.93 0 0 0 2-1.49z"/><path d="m341.94 159v6a3.6 3.6 0 0 1 3.26-1.63c2.11 0 3.8 1.28 3.8 4.36v7.3h-3.12v-6.84c0-1.47-.53-2.27-1.85-2.27-1.76 0-2.09 1.32-2.09 3.06v6.05h-3.17v-16.03z"/><path d="m357.39 175.06v-16.06h3.16v16.06z"/><path d="m363.48 161.82v-2.82h3.17v2.82zm0 1.85h3.17v11.39h-3.17z"/><path d="m372.74 168.48c.84-1.14 2.33-2.9 3.92-4.81h3.61l-4 4.31 4.33 7.08h-3.56l-2.85-5.06-1.45 1.41v3.65h-3.17v-16.06h3.17z"/><path d="m384.45 170.05c0 1.43.72 2.81 2.28 2.81a1.83 1.83 0 0 0 2-1.21h3.14a5 5 0 0 1 -5.21 3.68c-3.77 0-5.39-2.8-5.39-5.79 0-3.59 1.82-6.14 5.5-6.14 3.89 0 5.23 2.84 5.23 5.68a7.4 7.4 0 0 1 0 1zm4.4-1.94c0-1.32-.55-2.44-2.1-2.44s-2.11 1-2.24 2.44z"/><path d="m400.15 168v2.75h-6.15v-2.75z"/><path d="m402.86 166.61c0-1 0-2 0-2.94h3c0 .28.11.92.13 1.36a3.58 3.58 0 0 1 3.17-1.63 3 3 0 0 1 2.93 1.74 4 4 0 0 1 3.52-1.74c2 0 3.61 1.23 3.61 4.18v7.48h-3.08v-7.06c0-1-.38-2-1.68-2s-1.84.88-1.84 2.62v6.51h-3.12v-7c0-1.17-.28-2.14-1.62-2.14s-1.9.8-1.9 2.75v6.36h-3.12z"/><path d="m422.13 161.82v-2.82h3.17v2.82zm0 1.85h3.17v11.39h-3.17z"/><path d="m428.25 166.55c0-1 0-2 0-2.88h3.06a12.81 12.81 0 0 1 .13 1.45 3.47 3.47 0 0 1 3.3-1.72c2.29 0 3.77 1.56 3.77 4.42v7.24h-3.15v-6.88c0-1.3-.42-2.23-1.83-2.23s-2.09.75-2.09 2.78v6.33h-3.16z"/><path d="m451.83 159v12.94 3.12h-3c-.07-.35-.13-.92-.16-1.19a3.41 3.41 0 0 1 -3.23 1.46c-2.88 0-4.71-2.31-4.71-5.88s1.94-6 5.17-6c1.65 0 2.53.6 2.77 1.1v-5.55zm-5.43 13.8c2.15 0 2.42-1.81 2.42-3.44 0-2-.29-3.43-2.36-3.43-1.65 0-2.48 1.3-2.48 3.46s.85 3.41 2.42 3.41z"/><path d="m457.24 170.05c0 1.43.73 2.81 2.29 2.81a1.82 1.82 0 0 0 2-1.21h3.15a5 5 0 0 1 -5.22 3.68c-3.76 0-5.39-2.8-5.39-5.79 0-3.59 1.83-6.14 5.5-6.14 3.9 0 5.24 2.84 5.24 5.68a7.4 7.4 0 0 1 0 1zm4.4-1.94c0-1.32-.55-2.44-2.09-2.44s-2.11 1-2.24 2.44z"/><path d="m477.5 159v12.94 3.12h-3c-.06-.35-.13-.92-.15-1.19-.55.91-1.54 1.46-3.24 1.46-2.88 0-4.7-2.31-4.7-5.88s1.93-6 5.17-6c1.65 0 2.53.6 2.77 1.1v-5.55zm-5.43 13.8c2.16 0 2.42-1.81 2.42-3.44 0-2-.28-3.43-2.35-3.43-1.65 0-2.49 1.3-2.49 3.46s.86 3.41 2.42 3.41z"/><path d="m485.84 179.42v-13c0-.93 0-1.83 0-2.75h3.06a13.94 13.94 0 0 1 .11 1.42 3.58 3.58 0 0 1 3.3-1.69c2.57 0 4.53 2.16 4.53 5.68 0 4-2.2 6.25-4.95 6.25a3.18 3.18 0 0 1 -2.88-1.28v5.37zm5.44-13.49c-1.79 0-2.42 1.17-2.42 3.46s.59 3.43 2.28 3.43 2.49-1.3 2.49-3.61c0-2.09-.84-3.28-2.35-3.28z"/><path d="m508.57 172.11a27.1 27.1 0 0 0 .15 2.95h-3a4.33 4.33 0 0 1 -.15-1.12c-.42.64-1.19 1.39-3.22 1.39-2.75 0-3.89-1.81-3.89-3.57 0-2.59 2.07-3.8 5.41-3.8h1.63v-.69c0-.81-.29-1.6-1.76-1.6s-1.63.55-1.76 1.38h-3c.15-2 1.4-3.65 4.88-3.65 3 0 4.71 1.21 4.71 3.94zm-3.08-2.24h-1.28c-1.91 0-2.62.59-2.62 1.69a1.47 1.47 0 0 0 1.66 1.52c2 0 2.24-1.41 2.24-2.9z"/><path d="m511.52 166.77c0-1.15 0-2.14 0-3.1h3.11c0 .26.08 1.38.08 2a3.68 3.68 0 0 1 3.66-2.27v3c-2.29-.07-3.66.54-3.66 3.67v5h-3.16z"/><path d="m519.19 163.67h1.81v-3.09h3.15v3.09h2.24v2.33h-2.29v5.63c0 .86.26 1.19 1.21 1.19h.7v2.18a6.8 6.8 0 0 1 -2.11.22c-2.22 0-2.95-1.19-2.95-3.19v-6h-1.76z"/><path d="m528.41 166.55c0-1 0-2 0-2.88h3.06c.06.3.11 1.09.13 1.45a3.45 3.45 0 0 1 3.3-1.72c2.29 0 3.76 1.56 3.76 4.42v7.24h-3.16v-6.88c0-1.3-.42-2.23-1.83-2.23s-2.09.75-2.09 2.78v6.33h-3.17z"/><path d="m544.05 170.05c0 1.43.73 2.81 2.29 2.81a1.81 1.81 0 0 0 2-1.21h3.15a5 5 0 0 1 -5.21 3.68c-3.77 0-5.4-2.8-5.4-5.79 0-3.59 1.83-6.14 5.51-6.14 3.89 0 5.23 2.84 5.23 5.68a7.4 7.4 0 0 1 0 1zm4.4-1.94c0-1.32-.55-2.44-2.09-2.44s-2.11 1-2.24 2.44z"/><path d="m553.87 166.77c0-1.15 0-2.14 0-3.1h3.13c0 .26.08 1.38.08 2a3.68 3.68 0 0 1 3.66-2.27v3c-2.29-.07-3.66.54-3.66 3.67v5h-3.16z"/><path d="m565 171.63a2 2 0 0 0 2.16 1.43c1.17 0 1.59-.42 1.59-1.12s-.49-1-2.12-1.41c-3.72-.92-4.31-2.07-4.31-3.67s1.17-3.46 4.6-3.46 4.64 1.89 4.73 3.43h-3c-.11-.41-.4-1.21-1.87-1.21-1 0-1.39.46-1.39 1s.35.84 2.2 1.28c3.81.88 4.36 2.18 4.36 3.85 0 1.89-1.45 3.61-4.91 3.61s-4.88-1.68-5.15-3.7z"/><path d="m573.77 175.06v-3.87h3.37v3.87z"/><path d="m1.43 265.9h10.57v2.69h-7.36v3.72h6.91v2.69h-6.91v6.07h-3.21z"/><path d="m24.69 275.34c0 3.46-2.07 6-5.68 6s-5.59-2.53-5.59-5.92 2.13-6 5.74-6c3.35-.02 5.53 2.36 5.53 5.92zm-8.08 0c0 2.2.95 3.5 2.46 3.5s2.43-1.3 2.43-3.47c0-2.38-.88-3.5-2.47-3.5s-2.42 1.13-2.42 3.49z"/><path d="m27 272.77c0-1.15 0-2.14 0-3.1h3c0 .26.09 1.38.09 2a3.66 3.66 0 0 1 3.65-2.27v3c-2.29-.07-3.65.54-3.65 3.67v5h-3.09z"/><path d="m41.18 272.55c0-1 0-2 0-2.88h3.06a12.81 12.81 0 0 1 .13 1.45 3.47 3.47 0 0 1 3.3-1.72c2.29 0 3.77 1.56 3.77 4.42v7.24h-3.17v-6.88c0-1.3-.42-2.23-1.83-2.23s-2.09.75-2.09 2.78v6.33h-3.17z"/><path d="m56.83 276.05c0 1.43.72 2.81 2.28 2.81a1.83 1.83 0 0 0 2-1.21h3.14a5 5 0 0 1 -5.21 3.68c-3.76 0-5.39-2.8-5.39-5.79 0-3.59 1.82-6.14 5.5-6.14 3.89 0 5.24 2.84 5.24 5.68a5.93 5.93 0 0 1 -.05 1zm4.4-1.94c0-1.32-.55-2.44-2.09-2.44s-2.12 1-2.25 2.44z"/><path d="m68.93 269.67c1 4.57 1.58 7.17 1.8 8.6.25-1.28.58-3.06 2-8.6h2.93c1.28 5.61 1.67 7.26 1.83 8.47.24-1.17.59-2.86 1.91-8.47h3.13l-3.39 11.39h-3.35c-1-4.31-1.47-6.6-1.74-8.1-.18 1.44-.79 4-1.8 8.1h-3.41l-3.24-11.39z"/><path d="m89.87 265h3.13v5.88a3.55 3.55 0 0 1 3.25-1.48c3.11 0 4.65 2.58 4.65 5.77s-1.68 6.16-5 6.16c-1.7 0-2.45-.51-3-1.35a4.84 4.84 0 0 1 -.13 1.08h-3c0-1.23 0-2.48 0-3.72zm5.46 6.93c-1.81 0-2.45 1.17-2.45 3.5 0 1.91.58 3.39 2.4 3.39 1.61 0 2.47-1.43 2.47-3.59 0-1.91-.75-3.3-2.42-3.3z"/><path d="m113.23 277.76v3.3h-3.08c-.05-.31-.07-.92-.09-1.32a3.25 3.25 0 0 1 -3.15 1.59c-2.31 0-3.78-1.41-3.78-4.23v-7.43h3.14v6.79c0 1.26.4 2.29 1.76 2.29s2-.77 2-3v-6.07h3.14z"/><path d="m118.51 277.63a2 2 0 0 0 2.16 1.43c1.17 0 1.58-.42 1.58-1.12s-.48-1-2.11-1.41c-3.72-.92-4.31-2.07-4.31-3.67s1.16-3.46 4.6-3.46 4.64 1.89 4.73 3.43h-3c-.11-.41-.4-1.21-1.87-1.21-1 0-1.39.46-1.39 1s.35.84 2.2 1.28c3.81.88 4.36 2.18 4.36 3.85 0 1.89-1.46 3.61-4.91 3.61s-4.89-1.68-5.15-3.7z"/><path d="m127.64 267.82v-2.82h3.17v2.82zm0 1.85h3.17v11.39h-3.17z"/><path d="m133.76 272.55c0-1 0-2 0-2.88h3c.07.3.11 1.09.14 1.45a3.44 3.44 0 0 1 3.3-1.72c2.29 0 3.76 1.56 3.76 4.42v7.24h-3.15v-6.88c0-1.3-.42-2.23-1.82-2.23s-2.09.75-2.09 2.78v6.33h-3.17z"/><path d="m149.4 276.05c0 1.43.73 2.81 2.29 2.81a1.82 1.82 0 0 0 2-1.21h3.15a5 5 0 0 1 -5.22 3.68c-3.76 0-5.39-2.8-5.39-5.79 0-3.59 1.83-6.14 5.5-6.14 3.9 0 5.24 2.84 5.24 5.68a7.4 7.4 0 0 1 0 1zm4.4-1.94c0-1.32-.55-2.44-2.09-2.44s-2.11 1-2.24 2.44z"/><path d="m161.54 277.63a2 2 0 0 0 2.16 1.43c1.17 0 1.58-.42 1.58-1.12s-.48-1-2.11-1.41c-3.72-.92-4.31-2.07-4.31-3.67s1.17-3.46 4.6-3.46 4.64 1.89 4.73 3.43h-3c-.11-.41-.4-1.21-1.87-1.21-1 0-1.39.46-1.39 1s.35.84 2.2 1.28c3.81.88 4.36 2.18 4.36 3.85 0 1.89-1.46 3.61-4.91 3.61s-4.88-1.68-5.15-3.7z"/><path d="m173 277.63a2 2 0 0 0 2.15 1.43c1.17 0 1.59-.42 1.59-1.12s-.49-1-2.12-1.41c-3.71-.92-4.31-2.07-4.31-3.67s1.17-3.46 4.6-3.46 4.64 1.89 4.73 3.43h-3c-.11-.41-.4-1.21-1.87-1.21-1 0-1.39.46-1.39 1s.35.84 2.2 1.28c3.81.88 4.36 2.18 4.36 3.85 0 1.89-1.45 3.61-4.91 3.61s-4.88-1.68-5.15-3.7z"/><path d="m180.86 283.62a19.06 19.06 0 0 0 1.63-6.43h3.23a12.7 12.7 0 0 1 -2.42 6.43z"/><path d="m203.5 277.39c-.38 1.89-1.72 3.94-5.11 3.94s-5.37-2.45-5.37-5.88 2-6.05 5.53-6.05c3.83 0 4.9 2.77 4.95 4.05h-3.06a1.79 1.79 0 0 0 -2-1.56c-1.45 0-2.26 1.25-2.26 3.45 0 2.44.88 3.54 2.24 3.54a1.94 1.94 0 0 0 2-1.49z"/><path d="m215.07 278.11a27.1 27.1 0 0 0 .15 2.95h-3a4.33 4.33 0 0 1 -.15-1.12c-.42.64-1.19 1.39-3.22 1.39-2.75 0-3.89-1.81-3.89-3.57 0-2.59 2.07-3.8 5.41-3.8h1.63v-.69c0-.81-.29-1.6-1.76-1.6-1.32 0-1.63.55-1.76 1.38h-3c.15-2 1.4-3.65 4.88-3.65 3 0 4.71 1.21 4.71 3.94zm-3.07-2.24h-1.28c-1.91 0-2.62.59-2.62 1.69a1.47 1.47 0 0 0 1.65 1.52c2 0 2.25-1.41 2.25-2.9z"/><path d="m218 272.77c0-1.15 0-2.14 0-3.1h3.11c0 .26.08 1.38.08 2a3.68 3.68 0 0 1 3.66-2.27v3c-2.29-.07-3.66.54-3.66 3.67v5h-3.19z"/><path d="m229.3 276.05c0 1.43.73 2.81 2.29 2.81a1.82 1.82 0 0 0 2-1.21h3.15a5 5 0 0 1 -5.22 3.68c-3.76 0-5.39-2.8-5.39-5.79 0-3.59 1.83-6.14 5.5-6.14 3.9 0 5.24 2.84 5.24 5.68a7.4 7.4 0 0 1 0 1zm4.4-1.94c0-1.32-.55-2.44-2.09-2.44s-2.11 1-2.24 2.44z"/><path d="m241.62 276.05c0 1.43.73 2.81 2.29 2.81a1.82 1.82 0 0 0 2-1.21h3.15a5 5 0 0 1 -5.22 3.68c-3.76 0-5.39-2.8-5.39-5.79 0-3.59 1.83-6.14 5.5-6.14 3.9 0 5.24 2.84 5.24 5.68a7.4 7.4 0 0 1 0 1zm4.4-1.94c0-1.32-.55-2.44-2.09-2.44s-2.11 1-2.24 2.44z"/><path d="m251.43 272.77c0-1.15 0-2.14 0-3.1h3.1a19.85 19.85 0 0 1 .09 2 3.68 3.68 0 0 1 3.66-2.27v3c-2.29-.07-3.66.54-3.66 3.67v5h-3.17z"/><path d="m275.11 278.11a27.1 27.1 0 0 0 .15 2.95h-3a4.32 4.32 0 0 1 -.16-1.12c-.41.64-1.19 1.39-3.21 1.39-2.75 0-3.89-1.81-3.89-3.57 0-2.59 2.06-3.8 5.41-3.8h1.59v-.69c0-.81-.29-1.6-1.76-1.6-1.32 0-1.63.55-1.76 1.38h-3c.16-2 1.41-3.65 4.89-3.65 3 0 4.71 1.21 4.71 3.94zm-3.11-2.24h-1.28c-1.91 0-2.62.59-2.62 1.69a1.47 1.47 0 0 0 1.65 1.52c2 0 2.25-1.41 2.25-2.9z"/><path d="m278.08 272.55c0-1 0-2 0-2.88h3.06a12.81 12.81 0 0 1 .13 1.45 3.47 3.47 0 0 1 3.31-1.72c2.28 0 3.76 1.56 3.76 4.42v7.24h-3.15v-6.88c0-1.3-.42-2.23-1.83-2.23s-2.09.75-2.09 2.78v6.33h-3.16z"/><path d="m301.66 265v12.94 3.12h-3c-.07-.35-.13-.92-.16-1.19a3.41 3.41 0 0 1 -3.23 1.46c-2.88 0-4.71-2.31-4.71-5.88s1.94-6.05 5.17-6.05c1.65 0 2.53.6 2.77 1.1v-5.5zm-5.43 13.8c2.15 0 2.42-1.81 2.42-3.44 0-1.95-.29-3.43-2.36-3.43-1.65 0-2.48 1.3-2.48 3.46s.85 3.41 2.42 3.41z"/><path d="m310 272.61c0-1 0-1.95 0-2.94h3c.05.28.11.92.13 1.36a3.59 3.59 0 0 1 3.17-1.63 3 3 0 0 1 2.93 1.74 4 4 0 0 1 3.52-1.74c2 0 3.61 1.23 3.61 4.18v7.48h-3.08v-7.06c0-1-.38-2.05-1.68-2.05s-1.84.88-1.84 2.62v6.51h-3.11v-7c0-1.17-.28-2.14-1.62-2.14s-1.9.8-1.9 2.75v6.36h-3.13z"/><path d="m331.78 276.05c0 1.43.72 2.81 2.29 2.81a1.82 1.82 0 0 0 2-1.21h3.15a5 5 0 0 1 -5.22 3.68c-3.76 0-5.39-2.8-5.39-5.79 0-3.59 1.83-6.14 5.5-6.14 3.9 0 5.24 2.84 5.24 5.68a5.93 5.93 0 0 1 -.05 1zm4.4-1.94c0-1.32-.55-2.44-2.09-2.44s-2.11 1-2.25 2.44z"/><path d="m352 265v12.94 3.12h-3c-.07-.35-.13-.92-.15-1.19-.55.91-1.54 1.46-3.24 1.46-2.88 0-4.71-2.31-4.71-5.88s1.94-6.05 5.17-6.05c1.65 0 2.53.6 2.78 1.1v-5.5zm-5.43 13.8c2.15 0 2.42-1.81 2.42-3.44 0-1.95-.29-3.43-2.36-3.43-1.65 0-2.48 1.3-2.48 3.46s.85 3.41 2.46 3.41z"/><path d="m354.94 267.82v-2.82h3.17v2.82zm0 1.85h3.17v11.39h-3.17z"/><path d="m370.5 278.11a27.1 27.1 0 0 0 .15 2.95h-3a4.33 4.33 0 0 1 -.15-1.12c-.42.64-1.19 1.39-3.22 1.39-2.75 0-3.89-1.81-3.89-3.57 0-2.59 2.07-3.8 5.41-3.8h1.63v-.69c0-.81-.29-1.6-1.76-1.6s-1.63.55-1.76 1.38h-3c.15-2 1.4-3.65 4.88-3.65 3 0 4.71 1.21 4.71 3.94zm-3.08-2.24h-1.28c-1.91 0-2.62.59-2.62 1.69a1.47 1.47 0 0 0 1.65 1.52c2 0 2.25-1.41 2.25-2.9z"/><path d="m378.88 267.82v-2.82h3.17v2.82zm0 1.85h3.17v11.39h-3.17z"/><path d="m385 272.55c0-1 0-2 0-2.88h3a12.81 12.81 0 0 1 .13 1.45 3.47 3.47 0 0 1 3.3-1.72c2.29 0 3.77 1.56 3.77 4.42v7.24h-3.15v-6.88c0-1.3-.42-2.23-1.83-2.23s-2.09.75-2.09 2.78v6.33h-3.13z"/><path d="m405.43 279.85a3.31 3.31 0 0 1 -3.16 1.48c-2.53 0-4.8-1.9-4.8-5.86 0-3.67 2.2-6.07 5.06-6.07 1.8 0 2.64.75 2.9 1.34 0-.28.07-.79.11-1.07h3v3.12 12.63h-3.06zm-2.33-1.05c1.94 0 2.38-1.39 2.38-3.46s-.44-3.41-2.31-3.41c-1.7 0-2.47 1.41-2.47 3.46s.75 3.41 2.4 3.41z"/><path d="m421.45 277.76v3.3h-3.08c0-.31-.06-.92-.09-1.32a3.24 3.24 0 0 1 -3.14 1.59c-2.31 0-3.79-1.41-3.79-4.23v-7.43h3.15v6.79c0 1.26.4 2.29 1.76 2.29s2-.77 2-3v-6.07h3.15z"/><path d="m424.4 267.82v-2.82h3.17v2.82zm0 1.85h3.17v11.39h-3.17z"/><path d="m430.49 272.77c0-1.15 0-2.14 0-3.1h3.1a19.85 19.85 0 0 1 .09 2 3.67 3.67 0 0 1 3.65-2.27v3c-2.29-.07-3.65.54-3.65 3.67v5h-3.17z"/><path d="m439.27 267.82v-2.82h3.17v2.82zm0 1.85h3.17v11.39h-3.17z"/><path d="m447.87 276.05c0 1.43.73 2.81 2.29 2.81a1.82 1.82 0 0 0 2-1.21h3.15a5 5 0 0 1 -5.22 3.68c-3.76 0-5.39-2.8-5.39-5.79 0-3.59 1.83-6.14 5.5-6.14 3.9 0 5.24 2.84 5.24 5.68a7.4 7.4 0 0 1 0 1zm4.4-1.94c0-1.32-.55-2.44-2.09-2.44s-2.11 1-2.24 2.44z"/><path d="m460 277.63a2 2 0 0 0 2.16 1.43c1.17 0 1.59-.42 1.59-1.12s-.49-1-2.12-1.41c-3.72-.92-4.31-2.07-4.31-3.67s1.17-3.46 4.6-3.46 4.64 1.89 4.73 3.43h-3c-.11-.41-.4-1.21-1.87-1.21-1 0-1.39.46-1.39 1s.35.84 2.2 1.28c3.81.88 4.36 2.18 4.36 3.85 0 1.89-1.45 3.61-4.91 3.61s-4.88-1.68-5.15-3.7z"/><path d="m467.87 283.62a19.06 19.06 0 0 0 1.63-6.43h3.23a12.7 12.7 0 0 1 -2.42 6.43z"/><path d="m11.64 328.34c0 3.46-2.07 6-5.68 6s-5.59-2.54-5.59-5.93 2.14-6 5.75-6c3.34-.01 5.52 2.37 5.52 5.93zm-8.08 0c0 2.2.95 3.5 2.47 3.5s2.42-1.3 2.42-3.47c0-2.38-.88-3.5-2.47-3.5s-2.42 1.13-2.42 3.49z"/><path d="m13.9 325.77c0-1.15 0-2.14 0-3.1h3.1a19.85 19.85 0 0 1 .09 2 3.67 3.67 0 0 1 3.65-2.27v3c-2.28-.07-3.65.54-3.65 3.67v5h-3.19z"/><path d="m30.4 322.67c1 4.57 1.59 7.17 1.81 8.6.24-1.28.57-3.06 2-8.6h2.93c1.27 5.61 1.67 7.26 1.82 8.47.24-1.17.59-2.86 1.91-8.47h3.13l-3.38 11.39h-3.35c-1-4.31-1.48-6.6-1.74-8.1-.18 1.44-.79 4-1.81 8.1h-3.4l-3.24-11.39z"/><path d="m49.08 318v6a3.6 3.6 0 0 1 3.26-1.63c2.11 0 3.8 1.28 3.8 4.36v7.3h-3.14v-6.84c0-1.47-.53-2.27-1.85-2.27-1.76 0-2.09 1.32-2.09 3.06v6.05h-3.15v-16.03z"/><path d="m68.55 331.11a24.1 24.1 0 0 0 .16 2.95h-3a4.33 4.33 0 0 1 -.15-1.12c-.42.64-1.19 1.39-3.21 1.39-2.76 0-3.9-1.81-3.9-3.57 0-2.59 2.07-3.8 5.41-3.8h1.63v-.69c0-.81-.28-1.6-1.76-1.6-1.32 0-1.63.55-1.76 1.38h-2.97c.15-2 1.41-3.65 4.88-3.65 3 0 4.71 1.21 4.71 3.94zm-3.08-2.24h-1.27c-1.92 0-2.62.59-2.62 1.69a1.47 1.47 0 0 0 1.65 1.52c2 0 2.24-1.41 2.24-2.9z"/><path d="m70.4 322.67h1.76v-3.09h3.15v3.09h2.24v2.33h-2.24v5.63c0 .86.26 1.19 1.21 1.19h.7v2.18a6.83 6.83 0 0 1 -2.11.22c-2.22 0-3-1.19-3-3.19v-6h-1.71z"/><path d="m82.1 329.05c0 1.43.73 2.81 2.29 2.81a1.81 1.81 0 0 0 2-1.21h3.15a5 5 0 0 1 -5.21 3.68c-3.77 0-5.4-2.8-5.4-5.79 0-3.59 1.83-6.14 5.51-6.14 3.89 0 5.23 2.84 5.23 5.68a7.4 7.4 0 0 1 0 1zm4.4-1.94c0-1.32-.55-2.44-2.09-2.44s-2.11 1-2.24 2.44z"/><path d="m94.05 322.67c1.08 3.87 2 7.23 2.2 8.6.33-1.87 1.43-5.31 2.42-8.6h3.15l-4 11.39h-3.3l-3.87-11.39z"/><path d="m106 329.05c0 1.43.72 2.81 2.28 2.81a1.83 1.83 0 0 0 2-1.21h3.14a5 5 0 0 1 -5.21 3.68c-3.76 0-5.39-2.8-5.39-5.79 0-3.59 1.82-6.14 5.5-6.14 3.89 0 5.23 2.84 5.23 5.68a7.4 7.4 0 0 1 0 1zm4.4-1.94c0-1.32-.55-2.44-2.09-2.44s-2.12 1-2.25 2.44z"/><path d="m115.81 325.77c0-1.15 0-2.14 0-3.1h3.11c0 .26.09 1.38.09 2a3.66 3.66 0 0 1 3.65-2.27v3c-2.29-.07-3.65.54-3.65 3.67v5h-3.17z"/><path d="m123.31 336.62a19.06 19.06 0 0 0 1.63-6.43h3.23a12.7 12.7 0 0 1 -2.42 6.43z"/><path d="m146 330.39c-.38 1.89-1.72 3.94-5.11 3.94-3.54 0-5.37-2.45-5.37-5.88s2.05-6.05 5.53-6.05c3.83 0 4.9 2.77 4.95 4.05h-3.06a1.79 1.79 0 0 0 -2-1.56c-1.45 0-2.27 1.25-2.27 3.45 0 2.44.88 3.54 2.25 3.54a1.94 1.94 0 0 0 2-1.49z"/><path d="m158.66 328.34c0 3.46-2.06 6-5.67 6s-5.59-2.53-5.59-5.92 2.13-6 5.74-6c3.34-.02 5.52 2.36 5.52 5.92zm-8.07 0c0 2.2.94 3.5 2.46 3.5s2.42-1.3 2.42-3.47c0-2.38-.88-3.5-2.46-3.5s-2.42 1.13-2.42 3.49z"/><path d="m161 325.55c0-1 0-2 0-2.88h3c.06.3.11 1.09.13 1.45a3.45 3.45 0 0 1 3.3-1.72c2.29 0 3.76 1.56 3.76 4.42v7.24h-3.19v-6.88c0-1.3-.42-2.23-1.83-2.23s-2.09.75-2.09 2.78v6.33h-3.08z"/><path d="m173 322.67h1.76v-3.09h3.15v3.09h2.24v2.33h-2.24v5.63c0 .86.26 1.19 1.21 1.19h.7v2.18a6.8 6.8 0 0 1 -2.11.22c-2.22 0-2.95-1.19-2.95-3.19v-6h-1.76z"/><path d="m191.64 331.11a27.1 27.1 0 0 0 .15 2.95h-3a4.33 4.33 0 0 1 -.15-1.12c-.42.64-1.19 1.39-3.22 1.39-2.75 0-3.89-1.81-3.89-3.57 0-2.59 2.07-3.8 5.41-3.8h1.63v-.69c0-.81-.29-1.6-1.76-1.6s-1.63.55-1.76 1.38h-3c.15-2 1.41-3.65 4.88-3.65 3 0 4.71 1.21 4.71 3.94zm-3.08-2.24h-1.28c-1.91 0-2.61.59-2.61 1.69a1.47 1.47 0 0 0 1.65 1.52c2 0 2.24-1.41 2.24-2.9z"/><path d="m204.44 330.39c-.37 1.89-1.71 3.94-5.1 3.94-3.54 0-5.37-2.45-5.37-5.88s2.05-6.05 5.52-6.05c3.83 0 4.91 2.77 4.95 4.05h-3.05a1.79 1.79 0 0 0 -2-1.56c-1.45 0-2.27 1.25-2.27 3.45 0 2.44.88 3.54 2.25 3.54a1.92 1.92 0 0 0 2-1.49z"/><path d="m205.45 322.67h1.76v-3.09h3.15v3.09h2.24v2.33h-2.24v5.63c0 .86.26 1.19 1.21 1.19h.7v2.18a6.8 6.8 0 0 1 -2.11.22c-2.22 0-2.95-1.19-2.95-3.19v-6h-1.76z"/><path d="m230.12 330.76v3.3h-3.08c-.05-.31-.07-.92-.09-1.32a3.25 3.25 0 0 1 -3.15 1.59c-2.31 0-3.78-1.41-3.78-4.23v-7.43h3.15v6.79c0 1.26.39 2.29 1.76 2.29s2-.77 2-3v-6.07h3.15z"/><path d="m235.4 330.63a2 2 0 0 0 2.15 1.43c1.17 0 1.59-.42 1.59-1.12s-.49-1-2.12-1.41c-3.71-.92-4.31-2.07-4.31-3.67s1.17-3.46 4.6-3.46 4.64 1.89 4.73 3.43h-3c-.11-.41-.4-1.21-1.87-1.21-1 0-1.39.46-1.39 1s.35.84 2.2 1.28c3.81.88 4.36 2.18 4.36 3.85 0 1.89-1.45 3.61-4.91 3.61s-4.88-1.68-5.15-3.7z"/><path d="m244.2 334.06v-3.87h3.36v3.87z"/></svg>