<svg viewBox="0 0 666.59 126.4" xmlns="http://www.w3.org/2000/svg"><path d="m1 2.05h24v6.1h-16.75v8.45h15.75v6.1h-15.75v13.8h-7.25z"/><path d="m52.55 23.5c0 7.85-4.7 13.6-12.9 13.6-8 0-12.7-5.75-12.7-13.45.05-8 4.85-13.65 13.05-13.65 7.6 0 12.55 5.4 12.55 13.5zm-18.35.05c0 5 2.15 8 5.6 8s5.5-2.95 5.5-7.9c0-5.4-2-8-5.6-8-3.3 0-5.5 2.45-5.5 7.9z"/><path d="m57.45 17.65c0-2.6 0-4.85-.05-7h7.05c.1.6.2 3.15.2 4.55 1.15-3 3.9-5.1 8.3-5.15v6.85c-5.2-.15-8.3 1.25-8.3 8.35v11.25h-7.2z"/><path d="m89.3 17.15c0-2.2 0-4.6 0-6.55h7c.15.7.25 2.5.3 3.3.85-1.6 3-3.9 7.5-3.9 5.2 0 8.55 3.55 8.55 10.05v16.45h-7.25v-15.65c0-3-1-5.05-4.15-5.05-3 0-4.75 1.7-4.75 6.3v14.4h-7.2z"/><path d="m124.6 25.1c0 3.25 1.65 6.4 5.2 6.4 3 0 3.85-1.2 4.55-2.75h7.15c-.9 3.15-3.75 8.35-11.85 8.35-8.55 0-12.25-6.35-12.25-13.15 0-8.15 4.15-13.95 12.5-13.95 8.85 0 11.9 6.45 11.9 12.9a15.13 15.13 0 0 1 -.1 2.2zm10-4.4c0-3-1.25-5.55-4.75-5.55s-4.8 2.35-5.1 5.55z"/><path d="m150.85 10.6c2.35 10.4 3.6 16.3 4.1 19.55h.1c.55-2.9 1.3-6.95 4.45-19.55h6.65c2.9 12.75 3.8 16.5 4.15 19.25.55-2.65 1.35-6.5 4.35-19.25h7.1l-7.7 25.9h-7.65c-2.15-9.8-3.35-15-3.95-18.4h-.05c-.4 3.25-1.8 9.1-4.1 18.4h-7.7l-7.3-25.9z"/><path d="m198 0h7.2v13.35c1-1.65 3.2-3.35 7.4-3.35 7 0 10.55 5.85 10.55 13.1s-3.8 14-11.25 14c-3.85 0-5.55-1.15-6.8-3.05a11.72 11.72 0 0 1 -.3 2.45h-6.9c0-2.8 0-5.65 0-8.45zm12.4 15.75c-4.1 0-5.55 2.65-5.55 8 0 4.35 1.3 7.7 5.45 7.7 3.65 0 5.6-3.25 5.6-8.15-.05-4.4-1.7-7.55-5.55-7.55z"/><path d="m249.8 29v7.5h-7c-.1-.7-.15-2.1-.2-3-1.55 2.6-3.8 3.6-7.15 3.6-5.25 0-8.6-3.2-8.6-9.6v-16.9h7.15v15.45c0 2.85.9 5.2 4 5.2s4.6-1.75 4.6-6.85v-13.8h7.15z"/><path d="m260.55 28.7c.55 2.1 2.25 3.25 4.9 3.25s3.6-.95 3.6-2.55-1.1-2.3-4.8-3.2c-8.45-2.1-9.8-4.7-9.8-8.35 0-3.8 2.65-7.85 10.45-7.85s10.55 4.3 10.75 7.8h-6.8c-.25-.95-.9-2.75-4.25-2.75-2.35 0-3.15 1.05-3.15 2.2 0 1.3.8 1.9 5 2.9 8.65 2 9.9 5 9.9 8.75 0 4.3-3.3 8.2-11.15 8.2s-11.1-3.8-11.7-8.4z"/><path d="m281.05 6.4v-6.4h7.2v6.4zm0 4.2h7.2v25.9h-7.2z"/><path d="m294.7 17.15c0-2.2 0-4.6-.05-6.55h7c.15.7.25 2.5.3 3.3.85-1.6 3-3.9 7.5-3.9 5.2 0 8.55 3.55 8.55 10.05v16.45h-7.2v-15.65c0-3-.95-5.05-4.15-5.05-3 0-4.75 1.7-4.75 6.3v14.4h-7.2z"/><path d="m330 25.1c0 3.25 1.65 6.4 5.2 6.4 3 0 3.85-1.2 4.55-2.75h7.15c-.9 3.15-3.75 8.35-11.85 8.35-8.55 0-12.26-6.35-12.26-13.15 0-8.15 4.21-13.95 12.51-13.95 8.85 0 11.9 6.45 11.9 12.9a15.13 15.13 0 0 1 -.1 2.2zm10-4.4c-.05-3-1.25-5.55-4.75-5.55s-4.8 2.35-5.1 5.55z"/><path d="m357.35 28.7c.55 2.1 2.25 3.25 4.9 3.25s3.6-.95 3.6-2.55-1.1-2.3-4.8-3.2c-8.46-2.1-9.8-4.7-9.8-8.35 0-3.8 2.65-7.85 10.45-7.85s10.55 4.3 10.75 7.8h-6.8c-.25-.95-.9-2.75-4.25-2.75-2.36 0-3.15 1.05-3.15 2.2 0 1.3.79 1.9 5 2.9 8.65 2 9.9 5 9.9 8.75 0 4.3-3.3 8.2-11.15 8.2s-11.11-3.8-11.71-8.4z"/><path d="m383.15 28.7c.55 2.1 2.25 3.3 4.85 3.3s3.61-.95 3.61-2.55-1.1-2.3-4.8-3.2c-8.46-2.1-9.81-4.7-9.81-8.35 0-3.8 2.66-7.85 10.46-7.85s10.55 4.3 10.75 7.8h-6.8c-.25-.95-.9-2.75-4.25-2.75-2.36 0-3.16 1.05-3.16 2.2 0 1.3.8 1.9 5 2.9 8.65 2 9.9 5 9.9 8.75 0 4.3-3.3 8.2-11.16 8.2s-11.1-3.8-11.7-8.4z"/><path d="m400.74 42.3a42.58 42.58 0 0 0 3.7-14.6h7.35c-.54 4.95-2.2 10.5-5.5 14.6z"/><path d="m447.7 28.15c-.85 4.3-3.91 9-11.61 9-8 0-12.2-5.55-12.2-13.35 0-7.65 4.65-13.75 12.55-13.75 8.71 0 11.16 6.3 11.26 9.2h-6.95a4.06 4.06 0 0 0 -4.46-3.55c-3.3 0-5.15 2.85-5.15 7.85 0 5.55 2 8.05 5.1 8.05a4.42 4.42 0 0 0 4.46-3.4z"/><path d="m473.74 29.8a57.64 57.64 0 0 0 .35 6.7h-6.85a10.13 10.13 0 0 1 -.35-2.55c-.95 1.45-2.7 3.15-7.3 3.15-6.25 0-8.85-4.1-8.85-8.1 0-5.9 4.7-8.65 12.3-8.65h3.7v-1.55c0-1.85-.65-3.65-4-3.65-3 0-3.7 1.25-4 3.15h-6.8c.35-4.6 3.2-8.3 11.1-8.3 6.9.05 10.7 2.75 10.7 9zm-7-5.1h-2.9c-4.35 0-5.95 1.35-5.95 3.85 0 1.85 1.15 3.45 3.75 3.45 4.55 0 5.1-3.2 5.1-6.6z"/><path d="m480.19 17.65c0-2.6 0-4.85-.05-7h7.05c.1.6.2 3.15.2 4.55 1.15-3 3.9-5.1 8.3-5.15v6.85c-5.2-.15-8.3 1.25-8.3 8.35v11.25h-7.2z"/><path d="m505.59 25.1c0 3.25 1.65 6.4 5.2 6.4 3 0 3.85-1.2 4.55-2.75h7.15c-.9 3.15-3.75 8.35-11.85 8.35-8.55 0-12.25-6.35-12.25-13.15 0-8.15 4.15-13.95 12.5-13.95 8.85 0 11.9 6.45 11.9 12.9a15.13 15.13 0 0 1 -.1 2.2zm10-4.4c-.05-3-1.25-5.55-4.75-5.55s-4.8 2.35-5.1 5.55z"/><path d="m533.34 25.1c0 3.25 1.65 6.4 5.2 6.4 3 0 3.85-1.2 4.55-2.75h7.15c-.9 3.15-3.75 8.35-11.85 8.35-8.55 0-12.25-6.35-12.25-13.15 0-8.15 4.15-13.95 12.5-13.95 8.85 0 11.9 6.45 11.9 12.9a15.13 15.13 0 0 1 -.1 2.2zm10-4.4c-.05-3-1.25-5.55-4.75-5.55s-4.8 2.35-5.1 5.55z"/><path d="m555.39 17.65c0-2.6 0-4.85 0-7h7c.1.6.2 3.15.2 4.55 1.15-3 3.9-5.1 8.3-5.15v6.85c-5.2-.15-8.3 1.25-8.3 8.35v11.25h-7.2z"/><path d="m608.69 29.8a57.64 57.64 0 0 0 .35 6.7h-6.85a10.13 10.13 0 0 1 -.35-2.55c-1 1.45-2.7 3.15-7.3 3.15-6.25 0-8.85-4.1-8.85-8.1 0-5.9 4.7-8.65 12.3-8.65h3.7v-1.55c0-1.85-.65-3.65-4-3.65-3 0-3.7 1.25-4 3.15h-6.8c.35-4.6 3.2-8.3 11.1-8.3 6.9.05 10.7 2.75 10.7 9zm-7-5.1h-2.9c-4.35 0-5.95 1.35-5.95 3.85 0 1.85 1.15 3.45 3.75 3.45 4.55 0 5.1-3.2 5.1-6.6z"/><path d="m614.19 17.15c0-2.2 0-4.6-.05-6.55h7c.15.7.25 2.5.3 3.3.85-1.6 3-3.9 7.5-3.9 5.2 0 8.55 3.55 8.55 10.05v16.45h-7.15v-15.65c0-3-.95-5.05-4.15-5.05-3 0-4.75 1.7-4.75 6.3v14.4h-7.2z"/><path d="m666.54 0v29.4c0 2.35 0 4.75.05 7.1h-6.85c-.15-.8-.3-2.1-.35-2.7-1.25 2.05-3.5 3.3-7.35 3.3-6.55 0-10.7-5.25-10.7-13.35 0-7.95 4.4-13.75 11.75-13.75 3.75 0 5.75 1.35 6.3 2.5v-12.5zm-12.35 31.35c4.9 0 5.5-4.1 5.5-7.8 0-4.45-.65-7.8-5.35-7.8-3.75 0-5.65 2.95-5.65 7.85s1.95 7.75 5.5 7.75z"/><path d="m.05 97.3c0-2.25 0-4.45 0-6.7h6.8c.1.65.25 2.1.3 3.1a8.14 8.14 0 0 1 7.2-3.7 6.83 6.83 0 0 1 6.65 4 9.08 9.08 0 0 1 8-4c4.5 0 8.2 2.8 8.2 9.5v17h-7v-16.1c0-2.35-.85-4.65-3.8-4.65s-4.2 2-4.2 6v14.8h-7v-15.9c0-2.65-.65-4.85-3.7-4.85-2.9 0-4.3 1.8-4.3 6.25v14.45h-7.15z"/><path d="m49.3 105.1c0 3.25 1.65 6.4 5.2 6.4 3 0 3.85-1.2 4.55-2.75h7.15c-.9 3.15-3.75 8.35-11.85 8.35-8.55 0-12.25-6.35-12.25-13.15 0-8.15 4.15-14 12.5-14 8.85 0 11.9 6.45 11.9 12.9a15.13 15.13 0 0 1 -.1 2.2zm10-4.4c0-3-1.25-5.55-4.75-5.55s-4.8 2.35-5.1 5.55z"/><path d="m95.1 80v29.4c0 2.35 0 4.75.05 7.1h-6.85c-.15-.8-.3-2.1-.35-2.7-1.25 2-3.5 3.3-7.35 3.3-6.55 0-10.7-5.25-10.7-13.35s4.4-13.75 11.75-13.75c3.75 0 5.75 1.35 6.3 2.5v-12.5zm-12.35 31.35c4.9 0 5.5-4.1 5.5-7.8 0-4.45-.65-7.8-5.35-7.8-3.75 0-5.65 3-5.65 7.85 0 5.05 1.95 7.75 5.5 7.75z"/><path d="m101.45 86.4v-6.4h7.2v6.4zm0 4.2h7.2v25.9h-7.2z"/><path d="m136.55 109.8a57.64 57.64 0 0 0 .35 6.7h-6.85a10.13 10.13 0 0 1 -.35-2.55c-.95 1.45-2.7 3.15-7.3 3.15-6.25 0-8.85-4.1-8.85-8.1 0-5.9 4.7-8.65 12.3-8.65h3.7v-1.55c0-1.85-.65-3.65-4-3.65-3 0-3.7 1.25-4 3.15h-6.8c.35-4.6 3.2-8.3 11.1-8.3 6.9 0 10.7 2.75 10.7 9zm-7-5.1h-2.9c-4.35 0-6 1.35-6 3.85 0 1.85 1.15 3.45 3.75 3.45 4.55 0 5.1-3.2 5.1-6.6z"/><path d="m155.1 86.4v-6.4h7.2v6.4zm0 4.2h7.2v25.9h-7.2z"/><path d="m168.75 97.15c0-2.2 0-4.6-.05-6.55h7c.15.7.25 2.5.3 3.3.85-1.6 3-3.9 7.5-3.9 5.2 0 8.55 3.55 8.55 10v16.5h-7.15v-15.65c0-2.95-.95-5-4.15-5-3 0-4.75 1.7-4.75 6.3v14.4h-7.2z"/><path d="m214 113.75c-1.45 2.35-3.75 3.35-7.2 3.35-5.75 0-10.9-4.3-10.9-13.3 0-8.35 5-13.8 11.5-13.8 4.1 0 6 1.7 6.6 3 .05-.65.15-1.8.25-2.45h6.75v7.1 28.7h-7zm-5.3-2.4c4.4 0 5.4-3.15 5.4-7.85 0-5-1-7.75-5.25-7.75-3.85 0-5.6 3.2-5.6 7.85s1.65 7.75 5.4 7.75z"/><path d="m250.1 109c0 2.45 0 5.2.05 7.5h-7c-.1-.7-.15-2.1-.2-3-1.55 2.6-3.8 3.6-7.15 3.6-5.25 0-8.6-3.2-8.6-9.6v-16.9h7.15v15.45c0 2.85.9 5.2 4 5.2 3.25 0 4.6-1.75 4.6-6.85v-13.8h7.15z"/><path d="m256.55 86.4v-6.4h7.2v6.4zm0 4.2h7.2v25.9h-7.2z"/><path d="m270.15 97.65c0-2.6 0-4.85 0-7.05h7c.1.6.2 3.15.2 4.55 1.15-3 3.9-5.1 8.3-5.15v6.85c-5.2-.15-8.3 1.25-8.3 8.35v11.3h-7.2z"/><path d="m289.85 86.4v-6.4h7.2v6.4zm0 4.2h7.2v25.9h-7.2z"/><path d="m309.15 105.1c0 3.25 1.65 6.4 5.2 6.4 3 0 3.85-1.2 4.55-2.75h7.15c-.9 3.15-3.75 8.35-11.85 8.35-8.55 0-12.25-6.35-12.25-13.15 0-8.15 4.15-14 12.5-14 8.85 0 11.9 6.45 11.9 12.9a15.13 15.13 0 0 1 -.1 2.2zm10-4.4c0-3-1.25-5.55-4.75-5.55s-4.8 2.35-5.1 5.55z"/><path d="m336.5 108.7c.55 2.1 2.25 3.25 4.9 3.25s3.6-1 3.6-2.55-1.1-2.3-4.8-3.2c-8.45-2.1-9.8-4.7-9.8-8.35s2.65-7.85 10.45-7.85 10.55 4.3 10.75 7.8h-6.8c-.25-1-.9-2.75-4.25-2.75-2.35 0-3.15 1-3.15 2.2s.8 1.9 5 2.9c8.65 2 9.9 4.95 9.9 8.75 0 4.3-3.3 8.2-11.15 8.2s-11.1-3.8-11.7-8.4z"/><path d="m354.1 122.3a42.58 42.58 0 0 0 3.7-14.6h7.35c-.55 5-2.2 10.5-5.5 14.6z"/><path d="m402.05 108.15c-.85 4.3-3.9 8.95-11.6 8.95-8.05 0-12.2-5.55-12.2-13.35s4.65-13.75 12.55-13.75c8.7 0 11.15 6.3 11.25 9.2h-6.95a4 4 0 0 0 -4.45-3.55c-3.3 0-5.15 2.85-5.15 7.85 0 5.55 2 8 5.1 8a4.41 4.41 0 0 0 4.45-3.4z"/><path d="m430.7 103.5c0 7.85-4.7 13.6-12.9 13.6-8 0-12.71-5.75-12.71-13.45 0-8 4.86-13.65 13.06-13.65 7.6 0 12.55 5.4 12.55 13.5zm-18.36 0c0 5 2.16 8 5.61 8s5.5-3 5.5-7.9c0-5.4-2-7.95-5.6-7.95-3.31 0-5.51 2.45-5.51 7.9z"/><path d="m434.64 97.15c0-2.2 0-4.6-.05-6.55h7c.15.7.25 2.5.3 3.3.85-1.6 3-3.9 7.5-3.9 5.2 0 8.56 3.55 8.56 10v16.5h-7.15v-15.65c0-2.95-1-5-4.16-5-3 0-4.75 1.7-4.75 6.3v14.4h-7.2z"/><path d="m461.74 90.6h4v-7h7.15v7h5.11v5.4h-5.1v12.8c0 2 .6 2.7 2.75 2.7h1.6v4.9a15.54 15.54 0 0 1 -4.8.5c-5.05 0-6.7-2.7-6.7-7.25v-13.65h-4z"/><path d="m503.89 109.8a57.64 57.64 0 0 0 .35 6.7h-6.85a10.13 10.13 0 0 1 -.39-2.5c-1 1.45-2.7 3.15-7.3 3.15-6.25 0-8.85-4.1-8.85-8.1 0-5.9 4.7-8.65 12.3-8.65h3.7v-1.6c0-1.85-.65-3.65-4-3.65-3 0-3.7 1.25-4 3.15h-6.8c.35-4.6 3.2-8.3 11.1-8.3 6.9 0 10.7 2.75 10.7 9zm-7-5.1h-2.89c-4.35 0-5.95 1.35-5.95 3.85 0 1.85 1.15 3.45 3.75 3.45 4.55 0 5.1-3.2 5.1-6.6z"/><path d="m532.74 108.15c-.85 4.3-3.9 8.95-11.6 8.95-8 0-12.2-5.55-12.2-13.35s4.65-13.75 12.55-13.75c8.7 0 11.15 6.3 11.25 9.2h-7a4 4 0 0 0 -4.45-3.55c-3.3 0-5.15 2.85-5.15 7.85 0 5.55 2 8 5.1 8a4.41 4.41 0 0 0 4.45-3.4z"/><path d="m534.79 90.6h4v-7h7.15v7h5.06v5.4h-5.1v12.8c0 2 .6 2.7 2.75 2.7h1.6v4.9a15.54 15.54 0 0 1 -4.8.5c-5 0-6.7-2.7-6.7-7.25v-13.65h-4z"/><path d="m590.34 109v7.5h-7c-.1-.7-.15-2.1-.2-3-1.55 2.6-3.8 3.6-7.15 3.6-5.25 0-8.6-3.2-8.6-9.6v-16.9h7.15v15.45c0 2.85.9 5.2 4 5.2s4.6-1.75 4.6-6.85v-13.8h7.15z"/><path d="m602.09 108.7c.55 2.1 2.25 3.25 4.9 3.25s3.6-1 3.6-2.55-1.1-2.3-4.8-3.2c-8.45-2.1-9.8-4.7-9.8-8.35s2.65-7.85 10.45-7.85 10.55 4.3 10.75 7.8h-6.8c-.25-1-.9-2.75-4.25-2.75-2.35 0-3.15 1-3.15 2.2s.8 1.9 5 2.9c8.65 2 9.9 4.95 9.9 8.75 0 4.3-3.3 8.2-11.15 8.2s-11.1-3.8-11.7-8.4z"/><path d="m621.84 116.5v-8.8h7.65v8.8z"/></svg>