<svg xmlns="http://www.w3.org/2000/svg" viewBox="0 0 505.73 385.38"><title>contact-zh-sp</title><g id="Layer_2" data-name="Layer 2"><g id="レイヤー_1" data-name="レイヤー 1"><path d="M23.44,12.32A26.09,26.09,0,0,1,19.13,18c.7,2,1.5,3.19,2.28,3.19.55,0,.86-1.24,1-4.31A8,8,0,0,0,25,18.66c-.5,4.55-1.46,5.69-3.82,5.69-1.9,0-3.36-1.56-4.47-4.11a26.63,26.63,0,0,1-4.81,3.17,13.78,13.78,0,0,0-2-2.49,26.11,26.11,0,0,0,5.79-3.67,47.94,47.94,0,0,1-1.32-7H9v3c1.33-.23,2.68-.49,4-.73l.24,2.81L9,16.19v4.44c0,1.69-.36,2.52-1.4,3a11.2,11.2,0,0,1-4.68.59,12.42,12.42,0,0,0-1.09-3.11c1.45.07,3,.05,3.43,0s.62-.13.62-.54V16.84c-1.66.34-3.27.67-4.65.93L.47,14.66c1.48-.24,3.35-.52,5.4-.89V10.29H1V7.35H5.87v-3C4.47,4.63,3,4.81,1.72,5a11.93,11.93,0,0,0-.89-2.6A65.29,65.29,0,0,0,11.15.18l2.08,2.63c-1.3.39-2.73.72-4.24,1v3.5h5C13.77,5,13.69,2.6,13.67.23h3.25a61.59,61.59,0,0,0,.26,7.12h7.07v2.94H17.49c.21,1.56.47,3.07.75,4.39a21,21,0,0,0,2.47-3.53ZM21.54,6.6a20.2,20.2,0,0,0-3.69-4.29L20.19.73A22.45,22.45,0,0,1,24,4.86Z"/><path d="M41.08,11.28H36.61V24.19H33.75V1.43c-.52,1.48-1.11,3-1.79,4.49V24.24H29v-13a18.52,18.52,0,0,1-1.61,2.13,20.21,20.21,0,0,0-1.48-3.32A28.57,28.57,0,0,0,31.08,0l2.86.85-.16.5h7.3ZM36.61,3.72V5.2h2.13V3.72Zm2.13,5.22V7.41H36.61V8.94ZM50,20.66c0,1.71-.36,2.55-1.4,3s-2.71.57-5.15.57a11.06,11.06,0,0,0-1-3c1.59.1,3.38.08,3.9.05s.68-.15.68-.65V11.28H42.25V1.38H50ZM44.69,3.72V5.2H47V3.72ZM47,8.94V7.41H44.69V8.94Z"/><path d="M68.16,8.39a66.78,66.78,0,0,1,8.65,7L74.19,17.8a60.73,60.73,0,0,0-8-7V24.22H62.86V11.54a31.11,31.11,0,0,1-8.27,6.39,18.55,18.55,0,0,0-2.13-2.81A27.19,27.19,0,0,0,63.66,4.91H53.29V1.74H75.82V4.91H67.74a26.39,26.39,0,0,1-1.5,2.39V10Z"/><path d="M86.53,6.57a34.08,34.08,0,0,1-2,3.15V24.27H81.67V13.2a22.39,22.39,0,0,1-2,1.92A18.83,18.83,0,0,0,78,12.24a22.17,22.17,0,0,0,5.8-6.68Zm-.44-5.48a31.93,31.93,0,0,1-6.21,6.34,26.31,26.31,0,0,0-1.61-2.26A21.93,21.93,0,0,0,83.36,0ZM97.31,8.55c0,.67-.1,1.35-.15,1.95h4.49V24.11H98.79v-.75H93.47v.91H90.71V10.5H94.4c0-.6.08-1.28.11-1.95H89.75V9.9c0,3.92-.31,10.08-2.6,14.24a7.29,7.29,0,0,0-2.31-1.87c1.87-3.69,2-8.73,2-12.4V1.66l2.26.57A67.6,67.6,0,0,0,99.55.29l2.1,2.13c-1.27.36-2.73.67-4.26,1h.23c0,.83-.07,1.71-.13,2.6h5.12V8.55ZM94.58,6c0-.73,0-1.46,0-2.16-1.64.26-3.27.44-4.86.6V6Zm4.21,7H93.47v1.4h5.32Zm-5.32,4.86h5.32V16.45H93.47Zm5.32,3.45V19.9H93.47v1.38Z"/><path d="M113.19,20.37a42.38,42.38,0,0,0-2.6-3.74,12.81,12.81,0,0,1-4.24,7.3,11.19,11.19,0,0,0-2.1-2.21c2.86-2.1,3.77-5.66,4-8.94h-3.67V10h3.77V6.7H105V4h3.38V.26h2.89V4h3.24V6.7h-3.24V10h3.66v2.8h-3.77l0,.63c1.09,1.12,3.59,4,4.16,4.7Zm12.6.7c.42,0,.52-.33.57-3.06a8.93,8.93,0,0,0,2.55,1.12c-.26,3.69-1,4.62-2.81,4.62h-1.71c-2.29,0-2.78-.86-2.78-3.4V15.83h-1.33c-.44,3.82-1.61,6.73-6.18,8.47A8.19,8.19,0,0,0,112.44,22c3.79-1.27,4.59-3.4,4.93-6.15h-1.66V.91h11.54V15.83h-2.78v4.46c0,.71,0,.78.44.78Zm-7.22-15.9h5.69V3.64h-5.69Zm0,4h5.69V7.61h-5.69Zm0,3.95h5.69V11.56h-5.69Z"/><path d="M139.87,18.22l.26,2.57c-3.24.86-6.67,1.66-9.32,2.31l-.52-2.81,1-.2V11.41h2.39v8.18l1-.2V9.59h-3.17V1h8.08V8.24a20.24,20.24,0,0,0,2.08-6.6l1.82.33a43.72,43.72,0,0,0,7.32-2l2.34,2.08a59.78,59.78,0,0,1-9,2.13,21.6,21.6,0,0,1-2.47,6.29c-.44-.34-1.4-.94-2.1-1.35v.44h-2.31v3.06h2.44v2.63h-2.44v3.53ZM134.05,7h2.84V3.53h-2.84Zm13.72,4h6V24.24h-3v-1h-7.1v1h-2.85V11.46l1.17.31a15.84,15.84,0,0,0,3.32-2.47l2.44,2Zm3,2.63h-3V11.33a26.32,26.32,0,0,1-4.08,2.31v2.11h2.73v2.57h-2.73v2.29h7.1V18.32h-2.91V15.75h2.91ZM146.37,9.3a17.81,17.81,0,0,0-1-4.47l2.44-.62a17.08,17.08,0,0,1,1.14,4.39Zm5.43-6.21a19.49,19.49,0,0,1,3,5.64l-2.55,1.14a18.82,18.82,0,0,0-2.83-5.76Z"/><path d="M163.86,13.12a14,14,0,0,1-.29,1.8c1.15,1.19,3.48,4,4,4.67l-1.95,2.6c-.67-1.14-1.87-2.83-2.88-4.21a14.39,14.39,0,0,1-4.16,6.26,11.57,11.57,0,0,0-2.16-2.15,13.47,13.47,0,0,0,4.5-9h-4.42V10.29h4.63V6h-.91a20.26,20.26,0,0,1-1.43,3.66A16.54,16.54,0,0,0,156.43,8,22.83,22.83,0,0,0,158.51,0l2.85.49c-.13.88-.26,1.77-.44,2.65h6.19V6h-3v4.31h3.35v2.83Zm16.76,9.8h-9.36v1.35h-3v-23h12V4.11h-9V7.22h8.22v9.49h-8.22v3.35h9.36Zm-9.36-12.84v3.77h5.28V10.08Z"/><path d="M185.69,23.49c2-.65,3.19-1.77,3.35-3.14a1.28,1.28,0,0,1-.29,0,2.31,2.31,0,0,1-2.47-2.31,2.36,2.36,0,0,1,2.55-2.34c1.84,0,2.81,1.38,2.81,3.56,0,3-1.9,5.35-5.12,6.32Z"/><path d="M23.44,72.28A25.85,25.85,0,0,1,19.13,78c.7,2,1.5,3.2,2.28,3.2.55,0,.86-1.25,1-4.32A8,8,0,0,0,25,78.62c-.5,4.55-1.46,5.69-3.82,5.69-1.9,0-3.36-1.56-4.47-4.1a27.74,27.74,0,0,1-4.81,3.17,13.49,13.49,0,0,0-2-2.5,26.44,26.44,0,0,0,5.79-3.66,48.09,48.09,0,0,1-1.32-7H9v3c1.33-.24,2.68-.5,4-.73l.24,2.81L9,76.15V80.6c0,1.69-.36,2.52-1.4,3a11.34,11.34,0,0,1-4.68.6,12.49,12.49,0,0,0-1.09-3.12c1.45.08,3,0,3.43,0s.62-.13.62-.55V76.8c-1.66.34-3.27.68-4.65.94L.47,74.62c1.48-.23,3.35-.52,5.4-.88V70.25H1V67.32H5.87v-3c-1.4.23-2.83.41-4.15.57a11.58,11.58,0,0,0-.89-2.6,67.62,67.62,0,0,0,10.32-2.18l2.08,2.62c-1.3.39-2.73.73-4.24,1v3.51h5c-.21-2.34-.29-4.76-.31-7.12h3.25a61.75,61.75,0,0,0,.26,7.12h7.07v2.93H17.49c.21,1.56.47,3.07.75,4.4a21,21,0,0,0,2.47-3.54Zm-1.9-5.72a20.17,20.17,0,0,0-3.69-4.28l2.34-1.59A22.77,22.77,0,0,1,24,64.82Z"/><path d="M41.08,71.24H36.61V84.16H33.75V61.39c-.52,1.48-1.11,3-1.79,4.5V84.21H29v-13a19.43,19.43,0,0,1-1.61,2.13A20.67,20.67,0,0,0,25.93,70a28.57,28.57,0,0,0,5.15-10l2.86.86-.16.49h7.3Zm-4.47-7.56v1.48h2.13V63.68Zm2.13,5.22V67.37H36.61V68.9ZM50,80.62c0,1.72-.36,2.55-1.4,3s-2.71.57-5.15.57a11.06,11.06,0,0,0-1-3c1.59.11,3.38.08,3.9.06s.68-.16.68-.65V71.24H42.25v-9.9H50ZM44.69,63.68v1.48H47V63.68ZM47,68.9V67.37H44.69V68.9Z"/><path d="M68.16,68.36a67.59,67.59,0,0,1,8.65,7l-2.62,2.36a61.47,61.47,0,0,0-8-7V84.18H62.86V71.5a31.11,31.11,0,0,1-8.27,6.39,18,18,0,0,0-2.13-2.8,27.26,27.26,0,0,0,11.2-10.21H53.29V61.7H75.82v3.18H67.74a27.86,27.86,0,0,1-1.5,2.39V70Z"/><path d="M102.09,63.55v3H88.19a29.28,29.28,0,0,1-3,5.12V84.21H82v-9A20.25,20.25,0,0,1,79.72,77a22,22,0,0,0-1.53-3,19.72,19.72,0,0,0,6.47-7.49H79v-3h7c.44-1.22.83-2.42,1.14-3.61l3.25.78c-.29,1-.63,1.89-1,2.83ZM95.86,80.73H102v2.85H86.45V80.73h6.29V74.8H87.46V71.94h5.28V67.63h3.12v4.31H101V74.8H95.86Z"/><path d="M104.3,82.08a8.66,8.66,0,0,0,3.41-4.39l2.59.91a9.88,9.88,0,0,1-3.58,5.11Zm23.49-14.19H105.31V65.5h5.57a16.66,16.66,0,0,0-.65-1.74l.13,0h-3.77V61.34H115V60H118v1.38h8.4v2.39h-3.67l.39.08c-.39.68-.78,1.22-1.09,1.69h5.74ZM119,81.48c1,0,1.11-.29,1.24-2.13a8.6,8.6,0,0,0,2.63,1c-.34,2.88-1.17,3.61-3.59,3.61h-4.18c-3.27,0-4.08-.76-4.08-3.22V78h2.81l-.32-.13,1.07-1H108V69h17.23v7.88h-8.44a16.49,16.49,0,0,1,2.7,1.58l-1.87,1.93A16.14,16.14,0,0,0,114,78.1v2.6c0,.7.21.78,1.38.78ZM111,72h11.23V70.85H111Zm0,3h11.23V73.76H111Zm2.34-11.2a16,16,0,0,1,.62,1.69l-.34.08h5.77l-.36-.08c.23-.49.55-1.14.75-1.69Zm11.15,13.64a19.29,19.29,0,0,1,4.23,4.71l-2.54,1.48a21.7,21.7,0,0,0-4.08-4.86Z"/><path d="M154.32,78.73h-5.79v2.52c0,1.43-.26,2.15-1.33,2.57a13.94,13.94,0,0,1-4.47.41,11.52,11.52,0,0,0-.88-2.7c1.25,0,2.73,0,3.14,0s.55-.1.55-.44V78.73h-7.33A16.29,16.29,0,0,1,141,81.12l-2.28,2a19.93,19.93,0,0,0-3.9-3.46l1.09-.9h-5.2V76.28h14.84v-1c-5.12.11-10,.18-13.67.21l-.08-2.21c2.45,0,5.64,0,9.15,0v-.94h-7.48V64.9h7.48V64H131.4V61.63h9.54V60h3v1.64h9.49V64H144v.93h7.85v7.48h-1.74a26.18,26.18,0,0,1,3.35,2.08l-1.89,1.59c-.32-.26-.68-.57-1.1-.86l-1.89,0v1h5.79Zm-18-11h4.6v-1h-4.6Zm4.6,2.76v-1h-4.6v1Zm3-3.72v1h4.84v-1Zm4.84,3.72v-1H144v1ZM144,73.29l3.28,0c-.37-.16-.73-.34-1.07-.47l.52-.42H144Z"/><path d="M172.3,78.39A25.9,25.9,0,0,0,181,81.32,13.78,13.78,0,0,0,179,84a23.77,23.77,0,0,1-9.07-4.37v4.63h-3.07V79.74A23,23,0,0,1,158,84a11.94,11.94,0,0,0-1.89-2.49,25.19,25.19,0,0,0,8.57-3.09h-7.93V75.84h10.11V74.23a55.88,55.88,0,0,1-8,1,7.92,7.92,0,0,0-1-2.39,51.75,51.75,0,0,0,8.14-.91c-.84-.18-1.67-.39-2.45-.54l-.33.39L160.3,71c.62-.67,1.3-1.51,2-2.39h-5.12V66.17h7c.49-.67,1-1.32,1.4-1.92h-5.32v1.43h-2.86v-4h9.53V60H170V61.7h9.61v4h-3V64.25H166.2l2.36.7c-.28.39-.57.81-.88,1.22h12.13v2.42h-4.57a7.81,7.81,0,0,1-2,2.81c2.1.6,4,1.19,5.48,1.74l-1.84,2.18a58.79,58.79,0,0,0-6.45-2.18,16.92,16.92,0,0,1-2.91.93h2.42v1.77h10.34v2.55Zm-7.17-8.89c1.51.29,3.17.65,4.83,1.07a5.41,5.41,0,0,0,1.95-2h-6.08Z"/><path d="M206,64s0,1,0,1.4c-.34,11.61-.63,15.75-1.69,17.12a3.48,3.48,0,0,1-2.5,1.43,27.82,27.82,0,0,1-4.07,0,7.38,7.38,0,0,0-1-3c1.66.16,3.2.16,3.87.16a1.4,1.4,0,0,0,1.15-.45c.75-.83,1.09-4.73,1.37-13.9h-5.56a22.51,22.51,0,0,1-2.28,4.11,20.22,20.22,0,0,0-2-1.46V81.56h-6.94v1.89h-2.81V64.15h2.94a28.24,28.24,0,0,0,.75-4.19l3.38.47c-.44,1.3-.91,2.6-1.35,3.72h4v4.21A27,27,0,0,0,196.7,60l2.94.68a31.23,31.23,0,0,1-1,3.3Zm-15.56,2.88h-4.13v4.21h4.13Zm0,12V73.74h-4.13v5.09Zm8.63-1.4a55.33,55.33,0,0,0-3.62-6l2.42-1.37a64,64,0,0,1,3.82,5.76Z"/><path d="M222.84,70.12c1.72,5.07,4.86,9.15,9.72,11.13a12.18,12.18,0,0,0-2.28,2.91c-4.71-2.21-7.72-6-9.75-11a17.87,17.87,0,0,1-9.72,11,9,9,0,0,0-2.31-2.62,15.57,15.57,0,0,0,9.43-11.44H209V66.93h9.46c.26-2.44.24-4.81.26-6.94h3.38c0,2.13-.05,4.52-.31,6.94H232v3.19Z"/><path d="M241.58,66.85c-.89,3.87-2.29,8.71-4.45,11.56a26.55,26.55,0,0,0-3-1.61c2.08-2.62,3.38-7.17,3.92-10.55Zm6.62-6.52v20c0,1.9-.44,2.76-1.58,3.25a16,16,0,0,1-5.51.6A13.57,13.57,0,0,0,239.89,81c1.69.07,3.61.07,4.18.05s.78-.18.78-.68v-20ZM254.08,66c2.1,3.69,4.23,8.39,4.88,11.64l-3.38,1.32A44.73,44.73,0,0,0,251,67.11Z"/><path d="M284.4,78.49h-7.07c2.55,1.22,5.36,2.65,7,3.67l-3,2.1a67.13,67.13,0,0,0-7.15-4.08l1.9-1.69h-7.8l2.29,1.66A46,46,0,0,1,263,84.23a25.08,25.08,0,0,0-2.39-2.13,31.77,31.77,0,0,0,6.81-3.61h-6.91V75.61h2.42l-.42-13.93,1.74.47a26.21,26.21,0,0,0,3.07-1.95l2,1.89V60.28h2.63v2.28h4v2.57h-4v1.75h3.87v8.73H279c0-.65.08-1.38.13-2.11h-2.47V71h2.58c0-.73.05-1.46.07-2.21h-2.62V66.2h2.68c0-.7,0-1.38,0-2h-3V61.47h5.87c0,4.55-.13,10.24-.36,14.14h2.49Zm-18.68-2.88h3.53V70.18h2.44v5.43h1.48V69.29H269.3V62.61c-1.24.6-2.65,1.23-3.92,1.72l.05,1.87h2.94v2.55h-2.86l.05,2.18h2.81v2.55h-2.73Z"/><path d="M310.07,80.54V83.4H286.66V80.54h10.16V78.47h-7.54V75.66h7.51V74h-1.92V69h-2.39a8,8,0,0,1-4.08,5.69,12.93,12.93,0,0,0-2-2.15A5.73,5.73,0,0,0,289.54,69h-2.62V66.3h2.94V63.58H287.8V60.87h11.8v2.71h-1.84V66.3h2.44V69h-2.44v4.55H300v2.08h7.51v2.81H300v2.07ZM294.87,66.3V63.58h-2.18V66.3Zm9.25,3.93h-2.83V61.44h2.83ZM309,71.35c0,1.42-.26,2.15-1.25,2.59a10.61,10.61,0,0,1-4.08.5,11.68,11.68,0,0,0-.91-2.73c1.17.05,2.42.05,2.81,0s.49-.11.49-.45v-11H309Z"/><path d="M329,67.4C329.53,75,331.12,81,333,81c.54,0,.85-1.38,1-4.68a8.29,8.29,0,0,0,2.71,1.82c-.47,4.91-1.51,6.1-4,6.1-4.44,0-6.39-7.69-7-16.83H312.8v-3h12.76c-.05-1.4-.08-2.86-.08-4.29h3.33c0,1.43,0,2.89,0,4.29h4.11a18.49,18.49,0,0,0-3-2.73L332,60a19.85,19.85,0,0,1,3.41,2.89l-1.77,1.53H336v3Zm-8.21,11.66c1.58-.28,3.25-.59,4.83-.91l.24,2.76c-4.27.93-8.84,1.9-12.19,2.6l-.86-3.12c1.33-.21,3-.47,4.91-.78V73.35h-3.92v-3h11.15v3h-4.16Z"/><path d="M341.59,83.45c2-.64,3.2-1.76,3.35-3.14a.83.83,0,0,1-.28,0A2.31,2.31,0,0,1,342.19,78a2.36,2.36,0,0,1,2.54-2.33c1.85,0,2.81,1.37,2.81,3.56,0,3-1.89,5.35-5.12,6.31Z"/><path d="M23.44,132.25a26.09,26.09,0,0,1-4.31,5.69c.7,2,1.5,3.19,2.28,3.19.55,0,.86-1.24,1-4.31A8,8,0,0,0,25,138.59c-.5,4.54-1.46,5.69-3.82,5.69-1.9,0-3.36-1.56-4.47-4.11a27.17,27.17,0,0,1-4.81,3.17,13.45,13.45,0,0,0-2-2.49,26.48,26.48,0,0,0,5.79-3.67,47.94,47.94,0,0,1-1.32-7H9v3c1.33-.23,2.68-.49,4-.73l.24,2.81L9,136.12v4.44c0,1.69-.36,2.52-1.4,3a11.2,11.2,0,0,1-4.68.59,12.63,12.63,0,0,0-1.09-3.12c1.45.08,3,.06,3.43,0s.62-.13.62-.55v-3.76c-1.66.33-3.27.67-4.65.93l-.75-3.12c1.48-.23,3.35-.52,5.4-.88v-3.48H1v-2.94H5.87v-3c-1.4.23-2.83.42-4.15.57a11.76,11.76,0,0,0-.89-2.6,65.29,65.29,0,0,0,10.32-2.18l2.08,2.62c-1.3.39-2.73.73-4.24,1v3.51h5c-.21-2.34-.29-4.75-.31-7.12h3.25a61.59,61.59,0,0,0,.26,7.12h7.07v2.94H17.49c.21,1.56.47,3.06.75,4.39a21.39,21.39,0,0,0,2.47-3.53Zm-1.9-5.72a20.2,20.2,0,0,0-3.69-4.29l2.34-1.58A22.45,22.45,0,0,1,24,124.79Z"/><path d="M41.08,131.21H36.61v12.91H33.75V121.36c-.52,1.48-1.11,3-1.79,4.49v18.32H29v-13a18.52,18.52,0,0,1-1.61,2.13A20.67,20.67,0,0,0,25.93,130a28.49,28.49,0,0,0,5.15-10l2.86.86-.16.5h7.3Zm-4.47-7.57v1.48h2.13v-1.48Zm2.13,5.23v-1.54H36.61v1.54ZM50,140.59c0,1.71-.36,2.54-1.4,3s-2.71.57-5.15.57a11.06,11.06,0,0,0-1-3c1.59.1,3.38.08,3.9.05s.68-.16.68-.65v-9.35H42.25v-9.9H50Zm-5.28-17v1.48H47v-1.48ZM47,128.87v-1.54H44.69v1.54Z"/><path d="M63.22,137.86a33.87,33.87,0,0,1-7.85,6.36,28,28,0,0,0-2.6-2.2,24.15,24.15,0,0,0,7.1-5.49Zm-4.42-2.05H55.69v-14.3H74v14.17H70.81V135h-12Zm0-11.33V132h12v-7.53Zm10,12a52.65,52.65,0,0,1,7.25,5.87l-2.83,1.9a55.53,55.53,0,0,0-7-6.11Z"/><path d="M102.09,123.51v3H88.19a30,30,0,0,1-3,5.12v12.57H82v-9A19.26,19.26,0,0,1,79.72,137a22.15,22.15,0,0,0-1.53-3,19.76,19.76,0,0,0,6.47-7.48H79v-3h7c.44-1.22.83-2.41,1.14-3.61l3.25.78c-.29,1-.63,1.9-1,2.83Zm-6.23,17.18H102v2.86H86.45v-2.86h6.29v-5.92H87.46v-2.86h5.28v-4.32h3.12v4.32H101v2.86H95.86Z"/><path d="M104.3,142a8.58,8.58,0,0,0,3.41-4.39l2.59.91a9.91,9.91,0,0,1-3.58,5.12Zm23.49-14.19H105.31v-2.39h5.57a18.53,18.53,0,0,0-.65-1.74l.13,0h-3.77v-2.39H115v-1.38H118v1.38h8.4v2.39h-3.67l.39.07c-.39.68-.78,1.23-1.09,1.69h5.74ZM119,141.44c1,0,1.11-.28,1.24-2.13a8.11,8.11,0,0,0,2.63,1c-.34,2.89-1.17,3.61-3.59,3.61h-4.18c-3.27,0-4.08-.75-4.08-3.22V138h2.81l-.32-.13,1.07-1H108v-7.87h17.23v7.87h-8.44a16.47,16.47,0,0,1,2.7,1.59l-1.87,1.92a16.14,16.14,0,0,0-3.67-2.23v2.59c0,.71.21.78,1.38.78Zm-8-9.51h11.23v-1.11H111Zm0,3h11.23v-1.17H111Zm2.34-11.2a14.57,14.57,0,0,1,.62,1.69l-.34.07h5.77l-.36-.07c.23-.5.55-1.15.75-1.69Zm11.15,13.64a19.08,19.08,0,0,1,4.23,4.7l-2.54,1.48a21.92,21.92,0,0,0-4.08-4.86Z"/><path d="M140.39,121.64a25.41,25.41,0,0,1,3.15,6l-2.83,1.15a9.82,9.82,0,0,0-.47-1.38c-3.43.23-7,.44-9.62.6l-.26-2.94c.63,0,1.3,0,2,0a40.43,40.43,0,0,0,1.9-5.23l3.22.65c-.6,1.51-1.3,3.07-1.95,4.45l3.46-.16c-.39-.73-.81-1.45-1.22-2.13Zm1.3,19.41c0,1.36-.26,2.11-1.11,2.55a7.77,7.77,0,0,1-3.64.52,11.75,11.75,0,0,0-1-2.73,21.11,21.11,0,0,0,2.29,0c.31,0,.41-.08.41-.39v-1.74h-3.89v4.91H131.9V129.26h9.79Zm-6.93-9.25v1.35h3.89V131.8Zm3.89,5.17v-1.53h-3.89V137Zm8.86-5.37c-3,0-3.76-.91-3.76-3.77V120h3.06v3.71a38.88,38.88,0,0,0,4.68-2.16l2,2.24a46,46,0,0,1-6.65,2.44v1.54c0,.93.16,1,1.15,1h2.83c.83,0,1-.39,1.12-2.66a8.39,8.39,0,0,0,2.72,1.15c-.33,3.32-1.14,4.29-3.53,4.29Zm3.43,9.71c.89,0,1.07-.49,1.2-3.11a10,10,0,0,0,2.7,1.14c-.34,3.66-1.12,4.68-3.61,4.68h-3.69c-3,0-3.79-.89-3.79-3.75v-8.15h3v3.5a29.51,29.51,0,0,0,4.88-2.44l2.05,2.26a39.73,39.73,0,0,1-6.93,2.76v2.07c0,.91.18,1,1.19,1Z"/><path d="M172.1,128.32a67.59,67.59,0,0,1,8.65,7l-2.63,2.37a60.08,60.08,0,0,0-8-7v13.46h-3.38V131.47a30.91,30.91,0,0,1-8.26,6.39,18.07,18.07,0,0,0-2.13-2.81,27.25,27.25,0,0,0,11.2-10.21H157.23v-3.17h22.53v3.17h-8.08a24.46,24.46,0,0,1-1.51,2.39v2.7Z"/><path d="M192.36,121.64a25.41,25.41,0,0,1,3.15,6l-2.83,1.15a9.82,9.82,0,0,0-.47-1.38c-3.43.23-7,.44-9.62.6l-.26-2.94c.63,0,1.3,0,2,0a40.43,40.43,0,0,0,1.9-5.23l3.22.65c-.6,1.51-1.3,3.07-1.95,4.45l3.46-.16c-.39-.73-.81-1.45-1.23-2.13Zm1.3,19.41c0,1.36-.26,2.11-1.11,2.55a7.77,7.77,0,0,1-3.64.52,11.75,11.75,0,0,0-1-2.73,21.11,21.11,0,0,0,2.29,0c.31,0,.41-.08.41-.39v-1.74h-3.9v4.91h-2.85V129.26h9.79Zm-6.94-9.25v1.35h3.9V131.8Zm3.9,5.17v-1.53h-3.9V137Zm8.86-5.37c-3,0-3.76-.91-3.76-3.77V120h3.06v3.71a38.88,38.88,0,0,0,4.68-2.16l2,2.24a46,46,0,0,1-6.65,2.44v1.54c0,.93.16,1,1.15,1h2.83c.83,0,1-.39,1.12-2.66a8.39,8.39,0,0,0,2.72,1.15c-.33,3.32-1.14,4.29-3.53,4.29Zm3.43,9.71c.89,0,1.07-.49,1.2-3.11a10,10,0,0,0,2.7,1.14c-.34,3.66-1.12,4.68-3.61,4.68h-3.69c-3,0-3.79-.89-3.79-3.75v-8.15h3v3.5a29.51,29.51,0,0,0,4.88-2.44l2.05,2.26a39.73,39.73,0,0,1-6.93,2.76v2.07c0,.91.18,1,1.19,1Z"/><path d="M215.83,120.84a52.5,52.5,0,0,1-2.08,5.25v18.08h-2.83v-13a24.59,24.59,0,0,1-1.59,2.13,20,20,0,0,0-1.51-3.35A28.26,28.26,0,0,0,213,120Zm15.54,6.47A32.54,32.54,0,0,1,229,137.57a11,11,0,0,0,3.69,4.08,12.63,12.63,0,0,0-1.85,2.44,12.76,12.76,0,0,1-3.37-3.82,14.06,14.06,0,0,1-3.9,3.82,17.43,17.43,0,0,0-1.85-2.07c.34-.21.7-.45,1-.71h-5v1.85h-2.65V131.65h2.6v-4.24h-3v-2.78h3v-4.36h2.91v4.36h2.7v2.78h-2.7v4.24h2c-.23-.34-.47-.65-.62-.86,1.79-2.57,2.78-6.65,3.32-10.84l2.76.47c-.24,1.43-.5,2.91-.81,4.29h5.3v2.6Zm-10.87,7h-2.67v4.45h2.67Zm2.71,6.73a12.2,12.2,0,0,0,3-3.51,29.44,29.44,0,0,1-1.53-5.5,12.35,12.35,0,0,1-.91,1.42,9.13,9.13,0,0,0-.52-.9Zm3.38-13.69-.24.75a37.27,37.27,0,0,0,1.22,6,35.5,35.5,0,0,0,1.2-6.78Z"/><path d="M256.88,133.18v11h-3.22v-1.48H239.27v1.51h-3.15v-11h3.15v6.47h5.43V131.8h-7.54v-9.43h3.07v6.42h4.47v-8.6h3.17v8.6h4.73v-6.42h3.24v9.43h-8v7.85h5.79v-6.47Z"/><path d="M270.65,125.31a36.92,36.92,0,0,1-2.18,11.48,18.87,18.87,0,0,1,2.81,2.71L269.43,142a20,20,0,0,0-2.31-2.47,14.64,14.64,0,0,1-4.73,4.76,10.92,10.92,0,0,0-1.84-2.45,10.58,10.58,0,0,0,4.23-4.26c-.47-.39-.93-.73-1.4-1.06l-.21.8L260.65,136c.57-2.13,1.22-5,1.84-8.06h-2V125.1H263c.34-1.79.65-3.56.88-5.15l2.91.26c-.26,1.54-.57,3.2-.91,4.89h2.34l.52-.08Zm-5.32,2.62c-.39,1.95-.83,3.9-1.25,5.69.62.42,1.27.83,1.92,1.3a29.46,29.46,0,0,0,1.56-7Zm19.25,5.2h-5.71v7.61c0,1.56-.29,2.39-1.3,2.86a10.14,10.14,0,0,1-4.34.57,13.53,13.53,0,0,0-1.12-3c1.32.05,2.7.08,3.12.05s.57-.1.57-.46v-7.59h-5.48v-2.91h5.48v-3h1a22.83,22.83,0,0,0,2.5-3.11h-8.09v-2.86h10.16l.63-.18,2,1.53a39.89,39.89,0,0,1-5.11,6.16v1.48h5.71Z"/><path d="M296,138.77c-3.28.88-6.76,1.76-9.41,2.47l-.62-3c1-.2,2.23-.46,3.56-.75v-5.38h-2.81v-2.83h2.81v-4.6h-3.07v-2.86h8.86v2.86h-2.8v4.6h2.57v2.83h-2.57v4.68l3.14-.75Zm11.67,2.41c.41,0,.52-.49.57-3.56A8.45,8.45,0,0,0,311,138.9c-.26,4-1,5.17-3,5.17H306.2c-2.39,0-2.93-1-2.93-3.85V132H301.5c-.31,6.08-1.25,10.06-7.23,12.19a7.57,7.57,0,0,0-1.71-2.37c5.17-1.74,5.74-4.75,5.95-9.82h-2.94v-3h14.84v3h-4.08v8.19c0,.88.05,1,.42,1Zm1.43-16.47H296.61v-2.94h12.48Z"/><path d="M335.88,123.93s0,1,0,1.4c-.34,11.62-.62,15.75-1.69,17.13a3.46,3.46,0,0,1-2.49,1.43,29.49,29.49,0,0,1-4.08.05,7.37,7.37,0,0,0-1-3c1.67.16,3.2.16,3.87.16a1.39,1.39,0,0,0,1.15-.44c.75-.83,1.09-4.73,1.38-13.9H327.4a22.41,22.41,0,0,1-2.28,4.1,18.79,18.79,0,0,0-2-1.45v12.13h-6.94v1.9h-2.81V124.11h2.94a27.1,27.1,0,0,0,.75-4.18l3.38.47c-.44,1.3-.91,2.59-1.35,3.71h4v4.21a27,27,0,0,0,3.5-8.37l2.94.68a29.85,29.85,0,0,1-1,3.3Zm-15.57,2.88h-4.13V131h4.13Zm0,12V133.7h-4.13v5.09Zm8.63-1.4a55.72,55.72,0,0,0-3.61-6l2.41-1.38a60.71,60.71,0,0,1,3.82,5.77Z"/><path d="M354.25,136.38a24.76,24.76,0,0,0,8.39,4.88,13.48,13.48,0,0,0-2.21,2.68,25.62,25.62,0,0,1-8.52-6.06v6.32h-3.2V138a25.36,25.36,0,0,1-8.37,5.88,16,16,0,0,0-2.13-2.6,23.62,23.62,0,0,0,8.19-4.91h-5.25v-9.93h7.56V125h-9.77v-2.89h9.77V120h3.2v2.13h10V125h-10v1.48h7.92v9.93Zm-10.11-6.08h4.57v-1.54h-4.57Zm0,3.76h4.57v-1.58h-4.57Zm7.77-5.3v1.54h4.78v-1.54Zm4.78,3.72h-4.78v1.58h4.78Z"/><path d="M380.52,124.32v2.83h6.54V144h-3.14v-1.43H368.74v1.48h-3V127.15h6v-2.83h-7.06v-3H388v3Zm3.4,15.46V136.2a3.35,3.35,0,0,1-1.3.2h-2.18c-2.52,0-3-.85-3-3.43v-3h-2.59v.29a7.8,7.8,0,0,1-4.37,7.46,10.16,10.16,0,0,0-1.72-1.64v3.69ZM368.74,130v5.49a5.45,5.45,0,0,0,3.2-5.25V130Zm8.71-5.66h-2.62v2.83h2.62Zm6.47,5.66h-3.56v3c0,.67.08.75.57.75h1.33c.44,0,.54-.18.59-1.35a4.81,4.81,0,0,0,1.07.57Z"/><path d="M393.56,143.42c2-.65,3.2-1.77,3.35-3.15a.83.83,0,0,1-.28,0,2.31,2.31,0,0,1-2.47-2.31,2.36,2.36,0,0,1,2.54-2.34c1.85,0,2.81,1.38,2.81,3.56,0,3-1.9,5.35-5.12,6.31Z"/><path d="M4.76,194.76c-.16,3.17-.71,6.88-2.32,9.43A13.38,13.38,0,0,0,0,202.34c1.72-2.78,1.87-6.83,1.87-9.82v-6.6H12v8.84ZM12.5,184H1v-2.8H12.5Zm-7.69,4.71V192H9v-3.3Zm20,3H22.45v12.52H19.39V191.64h-3c-.23,4-1.19,9-4.65,12.47A7.75,7.75,0,0,0,9.43,202c3.61-3.66,4-8.81,4-12.65V182.2l2.13.5a29,29,0,0,0,6.34-2.55l2.73,2.34a42.6,42.6,0,0,1-8.19,2.78v3.38h8.34Z"/><path d="M37.57,196.83c-3.43,1.54-7.27,3.17-10.21,4.4l-1-3.3c1-.34,2.16-.76,3.46-1.28l-.52-15.17,3.22-.13L33,195.41c1.3-.55,2.62-1.1,3.92-1.62Zm10.76,7.31a45.26,45.26,0,0,0-4.86-6.27,18.45,18.45,0,0,1-7.9,6.32,17.57,17.57,0,0,0-2.47-2.73C41.34,198.34,44,192.05,45,181.37l3.4.32c-.54,5.32-1.48,9.66-3.17,13.2A56.23,56.23,0,0,1,51,201.56Zm-9.74-13.33a26.61,26.61,0,0,0-3.87-6.45l2.8-1.4a26.4,26.4,0,0,1,4.11,6.23Z"/><path d="M75.41,192.21a25.82,25.82,0,0,1-4.32,5.69c.71,2,1.51,3.2,2.29,3.2.55,0,.86-1.25,1-4.32a7.77,7.77,0,0,0,2.55,1.77c-.5,4.55-1.46,5.69-3.82,5.69-1.9,0-3.36-1.56-4.47-4.11a27.23,27.23,0,0,1-4.81,3.18,13.49,13.49,0,0,0-2-2.5,26.44,26.44,0,0,0,5.79-3.66,48.36,48.36,0,0,1-1.32-7H61v3l4-.72.24,2.8-4.24.86v4.44c0,1.69-.36,2.53-1.4,3a11.37,11.37,0,0,1-4.68.6A12.49,12.49,0,0,0,53.79,201c1.45.08,3,0,3.43,0s.62-.13.62-.54v-3.77c-1.66.34-3.27.68-4.65.94l-.75-3.12c1.48-.24,3.35-.52,5.4-.89v-3.48H52.93v-2.93h4.91v-3c-1.4.24-2.83.42-4.16.57a11.64,11.64,0,0,0-.88-2.59,66.36,66.36,0,0,0,10.32-2.19l2.08,2.63c-1.3.39-2.73.73-4.24,1v3.51h5c-.21-2.34-.29-4.76-.31-7.12h3.25a61.75,61.75,0,0,0,.26,7.12h7.06v2.93H69.46c.21,1.56.47,3.07.75,4.39A21.15,21.15,0,0,0,72.68,191Zm-1.9-5.72a20.75,20.75,0,0,0-3.69-4.29l2.34-1.58A22.45,22.45,0,0,1,76,184.75Z"/><path d="M93.05,191.17H88.58v12.91H85.72V181.32c-.52,1.48-1.11,3-1.79,4.5v18.32H81v-13a19.74,19.74,0,0,1-1.61,2.13A20.59,20.59,0,0,0,77.9,190a28.57,28.57,0,0,0,5.15-10l2.85.86-.15.49h7.3Zm-4.47-7.56v1.48h2.13v-1.48Zm2.13,5.22V187.3H88.58v1.53Zm11.23,11.72c0,1.72-.37,2.55-1.4,3s-2.71.57-5.15.57a11.06,11.06,0,0,0-1-3,38.48,38.48,0,0,0,3.9,0c.49,0,.68-.15.68-.65v-9.35H94.22v-9.9h7.72Zm-5.28-16.94v1.48H99v-1.48ZM99,188.83V187.3H96.66v1.53Z"/><path d="M128.49,190.1v3.36h-23.9V190.1Z"/><path d="M140.68,186.28c.08-.44.16-.93.21-1.43H131V182h10.16c.06-.78.08-1.53.11-2.21l3.64.11c-.11.7-.19,1.4-.32,2.1H154v2.83h-9.9c-.11.5-.19,1-.29,1.43h7.51v12.35h-14V186.28ZM154.3,203h-19v1.17h-3.07v-17.1h3.07v13h19Zm-6-14.58h-8v1.33h8Zm0,3.35h-8v1.3h8Zm0,3.36h-8v1.32h8Z"/><path d="M180.05,183.48v3h-13.9a30.7,30.7,0,0,1-3,5.12v12.58H160v-9a18.48,18.48,0,0,1-2.29,1.82,21.6,21.6,0,0,0-1.53-3,19.61,19.61,0,0,0,6.47-7.48H157v-3h7c.44-1.22.83-2.42,1.14-3.61l3.25.78c-.29,1-.62,1.89-1,2.83Zm-6.24,17.17H180v2.86H164.4v-2.86h6.29v-5.92h-5.27v-2.86h5.27v-4.31h3.12v4.31H179v2.86h-5.15Z"/><path d="M206.29,198.91H201.2v2.21c0,1.46-.29,2.19-1.35,2.6a12.68,12.68,0,0,1-4.42.44,10.53,10.53,0,0,0-1-2.73c1.3.06,2.76.06,3.17,0s.55-.08.55-.42v-2.13h-7.64a14.54,14.54,0,0,1,2.29,2l-2.24,1.92a16.83,16.83,0,0,0-3.53-3.17l.93-.78h-5.3v-2.54h15.49v-1.2h-3.43v-5.74H205v5.74H201.2v1.2h5.09Zm-23.18-5.48c1.07,0,2.37-.08,3.8-.16v-1.71h-3.38v-2.13h9.87v2.13h-3.58v1.58l4-.18,0,2.21c-3.75.21-7.64.42-10.45.6ZM203,188.57H185.48v-2H200v-1H186.39v-1.87H200v-1H185.61v-2H203Zm-5.43,4.6H202V191.4h-4.36Z"/><path d="M217.83,193.66l-3,.84v6.18c0,1.51-.29,2.26-1.17,2.7s-2.11.57-3.93.57a10.21,10.21,0,0,0-.88-2.8c1,0,2.11,0,2.44,0s.5-.13.5-.49V195.3L209,196l-.8-2.94c1-.21,2.26-.49,3.56-.8v-4.55h-3.22v-2.86h3.22v-4.91h3v4.91h2.78v2.86h-2.78v3.79l2.67-.65Zm13.35-2.83a26,26,0,0,1-4.67,6.94c.7,1.46,1.56,2.31,2.57,2.47.6,0,.94-1.2,1.12-4a10.13,10.13,0,0,0,2.57,1.8c-.68,4.8-2.08,6-3.53,5.89-2.26-.23-3.93-1.55-5.18-3.84a21.2,21.2,0,0,1-4.85,3.2,12.72,12.72,0,0,0-2.5-2.4,21,21,0,0,0,6.13-3.79,44.22,44.22,0,0,1-1.45-7.72l-3.22.34-.32-3,3.28-.31c-.16-2-.26-4.16-.34-6.45H224c0,2.16.13,4.21.26,6.16l7.8-.75.28,2.88-7.82.78a42.11,42.11,0,0,0,.94,5.41,22.83,22.83,0,0,0,3.22-5.2Zm-2.91-5.2a33.93,33.93,0,0,0-3.32-3.94l2.34-1.54a46.05,46.05,0,0,1,3.48,3.74Z"/><path d="M234.12,201.33a10.68,10.68,0,0,0,3.2-6l2.75.84c-.57,2.59-1.51,5.19-3.35,6.88ZM244.77,186h-9.9v-2.91h9.9v-3.22h3.12v3.22h10.16V186H247.89v3.25h8.6v2.94H245.63a17.29,17.29,0,0,1,4,3l-2.23,2a17.34,17.34,0,0,0-4.63-3.64l1.64-1.43h-7.85v-2.94h8.21ZM249,201c1,0,1.22-.39,1.32-2.83a8.85,8.85,0,0,0,2.76,1.12c-.34,3.56-1.2,4.44-3.82,4.44h-4.18c-3.33,0-4.16-.86-4.16-3.61v-5H244v5c0,.78.21.91,1.43.91Zm5.12-6.26a22.22,22.22,0,0,1,4.44,6.55l-2.83,1.51a22.26,22.26,0,0,0-4.18-6.76Z"/><path d="M283.47,200.6c0,1.61-.34,2.5-1.33,3s-2.44.6-4.6.6a10.77,10.77,0,0,0-1.06-3.07c1.37.08,2.88.08,3.32,0s.62-.18.62-.59V184.05h-16v20.11h-3v-23h22Zm-4.58-12.13h-13v-2.6h13ZM270,199.15v1.71h-2.85V190.47h10.57v8.68Zm0-6.14v3.59h4.86V193Z"/><path d="M292.64,198.13c1.06,1.75,3,2.45,5.71,2.55,3,.13,8.89,0,12.35-.21a16.48,16.48,0,0,0-1,3.12c-3.11.16-8.34.21-11.43.08s-5.33-.86-7-2.89c-1.15,1-2.29,2-3.72,3.12l-1.51-3.22a34.1,34.1,0,0,0,3.56-2.39v-5.48h-3V190h6Zm-1.8-11.66a19.46,19.46,0,0,0-4.18-4.11l2.29-1.87a20.94,20.94,0,0,1,4.34,3.92Zm8.73.13c.11-.47.19-.94.26-1.41h-6.28V182.7h3.61a10.44,10.44,0,0,0-1.2-1.87l2.45-.91a9.13,9.13,0,0,1,1.68,2.65l-.31.13H303a21.4,21.4,0,0,0,1.38-2.81l3.06.65c-.46.78-.93,1.53-1.37,2.16h4v2.49h-6.94c-.21.5-.44,1-.65,1.41h5.69v12.63H295.55V186.6Zm5.57,2.23h-6.68v1.35h6.68Zm0,3.38h-6.68v1.35h6.68Zm0,3.4h-6.68V197h6.68Z"/><path d="M325.77,179.92a26.2,26.2,0,0,0,11.12,8.94,14.86,14.86,0,0,0-2,2.78,32.08,32.08,0,0,1-4-2.47V191H318v-1.82a34.6,34.6,0,0,1-4,2.55,12.36,12.36,0,0,0-1.95-2.52,27.55,27.55,0,0,0,10.58-9.25Zm-9.51,13.61h16.47v10.66h-3.17v-1H319.3v1h-3Zm13.38-5.3a28.64,28.64,0,0,1-5.33-5.27,26.57,26.57,0,0,1-5.17,5.27Zm-10.34,8v4.24h10.26v-4.24Z"/><path d="M361.86,183.89s0,1,0,1.41c-.33,11.61-.62,15.74-1.68,17.12a3.48,3.48,0,0,1-2.5,1.43,29.49,29.49,0,0,1-4.08.05,7.36,7.36,0,0,0-1-3c1.66.15,3.19.15,3.87.15a1.37,1.37,0,0,0,1.14-.44c.76-.83,1.09-4.73,1.38-13.9h-5.56a22.52,22.52,0,0,1-2.29,4.11,19.09,19.09,0,0,0-2-1.46v12.14h-6.94v1.89h-2.8v-19.3h2.93a28.54,28.54,0,0,0,.76-4.19l3.37.47c-.44,1.3-.9,2.6-1.35,3.72h4v4.21a27.06,27.06,0,0,0,3.51-8.37l2.94.67a29.91,29.91,0,0,1-1,3.3Zm-15.57,2.89h-4.13V191h4.13Zm0,12v-5.1h-4.13v5.1Zm8.63-1.41a57.73,57.73,0,0,0-3.61-6l2.42-1.38a65.53,65.53,0,0,1,3.82,5.77Z"/><path d="M388.62,192.91c-1.66,6.47-5.89,9.69-11.66,11.3a11.49,11.49,0,0,0-1.59-2.52,15.75,15.75,0,0,0,5.59-2.31,17.76,17.76,0,0,0-2.39-2.23c-.44.28-.89.57-1.38.85a7.85,7.85,0,0,0-1.84-2.05c.23-.13.46-.23.7-.36h-4v.18c1.27.8,4.05,2.86,4.76,3.46l-1.8,2.52a40.82,40.82,0,0,0-3-3.17v5.56h-2.88v-5.46a19.58,19.58,0,0,1-4,4.73,17.86,17.86,0,0,0-1.36-3,18.64,18.64,0,0,0,4.4-4.8h-3.62v-2.73h4.58v-1.59h-3.9V180.93H376.2V185a12.94,12.94,0,0,0,4.37-5.07l2.83.47a13.59,13.59,0,0,1-.7,1.3h2.81l.51-.08,1.93.72a14.46,14.46,0,0,1-5.35,8.11l1.76.31c-.28.55-.6,1.07-.93,1.59h2.75l.55-.1ZM367.78,185h1.64V183.4h-1.64Zm0,3.84h1.64v-1.56h-1.64ZM373.6,185V183.4h-1.79V185Zm0,3.84v-1.56h-1.79v1.56Zm2.84,6.52a13.69,13.69,0,0,0,4.13-3.63,25.93,25.93,0,0,1-2.94,1.24,11.94,11.94,0,0,0-1.43-2v.26h-4.13v1.59h4.37Zm-.24-4.57a14.09,14.09,0,0,0,4.71-2.44,18.12,18.12,0,0,0-2.19-2c-.49.41-1,.8-1.58,1.19a8.39,8.39,0,0,0-.94-1.09Zm4.84-6.7-.5.57a21.17,21.17,0,0,1,2.26,1.79,11.91,11.91,0,0,0,1.46-2.36Zm.36,10.73-.73.7a21.64,21.64,0,0,1,2.39,2,11,11,0,0,0,1.8-2.73Z"/><path d="M398.86,180.88a40.32,40.32,0,0,1-2.42,5v18.19h-2.93V190.36a25.13,25.13,0,0,1-2.16,2.45,20.4,20.4,0,0,0-1.61-3.15,27.6,27.6,0,0,0,6.26-9.72Zm15.67,16.4h-6.94v6.88h-3.12v-6.88h-6.83v-2.86h6.83v-3.51h-5.79v-2.86h5.79v-7.82h3.12v7.82h5.9v2.86h-5.9v3.51h6.94Zm-13.95-9.59a23.79,23.79,0,0,0-2-5.54l2.6-1a22.74,22.74,0,0,1,2.19,5.38Zm13.4-5.62c-.93,2-2,4.08-2.78,5.51l-2.52-1a33.93,33.93,0,0,0,2.16-5.59Z"/><path d="M424.56,199.67a4.2,4.2,0,1,1-4.21-4.21A4.21,4.21,0,0,1,424.56,199.67Zm-1.87,0a2.33,2.33,0,1,0-2.34,2.31A2.31,2.31,0,0,0,422.69,199.67Z"/><path d="M4.42,306.71a18.59,18.59,0,0,1-1.54,1.35,26,26,0,0,0-2.52-2,15.88,15.88,0,0,0,5.38-6.21l3,.88a14.26,14.26,0,0,1-1,1.82h15.6v2.73H20.89v3.33h3.38v2.75H20.89v3.3h3v2.76H1.33v-2.76H4.42v-3.3H.94v-2.75H4.42ZM.68,322.92a12.84,12.84,0,0,0,2.91-5l3,.73a14.22,14.22,0,0,1-3,5.46Zm6.47-14.34H9v-3.33H7.15Zm0,6.05H9v-3.3H7.15Zm4,3.87a34.7,34.7,0,0,1,.63,4.86l-3,.44a33.84,33.84,0,0,0-.49-5Zm2.39-9.92v-3.33H11.59v3.33Zm-1.92,2.75v3.3h1.92v-3.3Zm4.7,7.07a28,28,0,0,1,1.51,4.83l-3.09.6a28.31,28.31,0,0,0-1.33-4.94Zm1.77-13.15h-2v3.33h2Zm0,6.08h-2v3.3h2Zm3.43,6.5A34.52,34.52,0,0,1,24.76,323l-3.17,1.07a33.41,33.41,0,0,0-3.06-5.33Z"/><path d="M38.33,307.62a17.7,17.7,0,0,1-2.18,1.55,15,15,0,0,0-1.49-2.52l.19-.1H26.43v-2.44h9.2v1.95a19.91,19.91,0,0,0,5.66-6.21h2.78a20.1,20.1,0,0,0,7,6.47,15.78,15.78,0,0,0-1.64,2.7,18.41,18.41,0,0,1-2.05-1.48v1.74h-9Zm-3.51,15.07H30v1H27.49v-8.86h7.33Zm0-12.61h-7.2v-2.36h7.2Zm-7.2,1.2h7.2v2.31h-7.2ZM34.72,303h-7v-2.33h7ZM30,317.28v3H32.3v-3Zm19.54,4.11c0,1.09-.15,1.74-.8,2.15a4.6,4.6,0,0,1-2.47.45,9,9,0,0,0-.73-2.37c.47,0,.91,0,1.09,0s.26-.08.26-.29v-2.81H45.53v5.2h-2v-5.2H42.2v5.2h-2v-5.2H38.93v5.38H36.35V310.84h13.2Zm-9.38-5.25v-2.86H38.93v2.86Zm6.29-9.38a25.53,25.53,0,0,1-3.69-4.16,20.32,20.32,0,0,1-3.48,4.16Zm-3,9.38v-2.86H42.2v2.86Zm3.4,0v-2.86H45.53v2.86Z"/><path d="M66.39,320.74c.68.05,1.38.08,2.08.08,1.46,0,6.44,0,8.29-.08a10.47,10.47,0,0,0-1,3H68.31c-4.75,0-8-.68-10.16-3.69a11.65,11.65,0,0,1-3.63,4.13A12.75,12.75,0,0,0,52.18,322c2.65-1.64,4.23-4.4,4.83-7.88l3.09.47c-.18.83-.39,1.61-.6,2.36a5.72,5.72,0,0,0,3.75,3.25v-6.6H53.11v-2.73H76v2.73H66.39v2h8v2.68h-8Zm7.17-11H55.5v-9H73.56Zm-3.14-6.86H58.52v1.33h11.9Zm0,3.35H58.52v1.35h11.9Z"/><path d="M97.29,304.6c-.42.75-.81,1.46-1.15,2h5.17v14.08c0,1.54-.31,2.37-1.32,2.86a11.53,11.53,0,0,1-4.5.52,12.9,12.9,0,0,0-.88-2.63H88.27v1.43H85.54v-8.15H95.73v6.44c.91,0,1.71,0,2,0s.58-.13.58-.52v-8a2,2,0,0,1-2.08,1H94.14c-2.31,0-2.78-.7-2.78-2.81v-1.66h-2.1c-.24,2.88-1.2,4.55-5.15,5.46A6.19,6.19,0,0,0,83,312.92V324H80.06V306.63h4.62a17.12,17.12,0,0,0-.8-2H79.17v-2.81h9.67v-1.94H92v1.94h9.92v2.81ZM83,312.55c2.78-.54,3.38-1.48,3.56-3.27H83Zm9.75-5.92c.31-.63.68-1.35,1-2H87.2a12.93,12.93,0,0,1,.84,2ZM93,317H88.27v2.18H93Zm5.38-7.74H94v1.64c0,.54.08.62.52.62h1.35c.45,0,.55-.18.63-1.43a7.48,7.48,0,0,0,1.82.73Z"/><path d="M120.57,318.17a23.27,23.27,0,0,0,8.24,2.83,13.75,13.75,0,0,0-2.08,2.8,22,22,0,0,1-8.73-4.39v4.68h-3v-4.52a24.92,24.92,0,0,1-8.71,4.21,13.93,13.93,0,0,0-2-2.57,27.44,27.44,0,0,0,8.21-3H105v-2.55H115v-1.14h-7.49v-2.24H115v-1.17h-8.79v-2.42h4.94a12.87,12.87,0,0,0-.88-2l.31-.05h-5.43v-2.52h3.48a23.13,23.13,0,0,0-1.61-3.23l2.65-.91a19.53,19.53,0,0,1,2,3.67l-1.27.47h2.36v-4.24h2.89v4.24h1.92v-4.24h2.91v4.24h2.32l-.94-.29a21.62,21.62,0,0,0,1.64-3.77l3.25.78c-.73,1.2-1.43,2.37-2,3.28H128v2.52h-4.89c-.41.75-.83,1.45-1.22,2.07H127v2.42h-9v1.17h7.79v2.24H118v1.14h10.1v2.55Zm-7.07-11.59a12.77,12.77,0,0,1,.88,2l-.44.07h4.86c.31-.62.63-1.37.91-2.07Z"/><path d="M143.88,299.85A26.11,26.11,0,0,0,155,308.78a15.2,15.2,0,0,0-2,2.78,30.83,30.83,0,0,1-4-2.46v1.79H136.08v-1.82a36,36,0,0,1-4,2.55,12.1,12.1,0,0,0-2-2.52,27.55,27.55,0,0,0,10.58-9.25Zm-9.51,13.61h16.47v10.66h-3.17v-1H137.41v1h-3Zm13.38-5.3a28.64,28.64,0,0,1-5.33-5.27,26.57,26.57,0,0,1-5.17,5.27Zm-10.34,8v4.24h10.26v-4.24Z"/><path d="M165.05,300.86a39.76,39.76,0,0,1-2.49,5.4v17.8h-3.12v-13c-.54.65-1.09,1.3-1.61,1.87a22.14,22.14,0,0,0-1.71-3.3,27.12,27.12,0,0,0,5.92-9.72Zm8.24,6.13v2.73H180v2.81h-6.73v2.93h7.07v2.86h-7.07v5.77h-3.17V307h-1a28.89,28.89,0,0,1-3.4,5,21.24,21.24,0,0,0-2.36-2.15,25.88,25.88,0,0,0,5.5-9.8l3,.75a31.32,31.32,0,0,1-1.27,3.23h10.08V307Z"/><path d="M188.1,323.62a48.27,48.27,0,0,0-5.59-5.74l2.71-2.34a48.93,48.93,0,0,1,5.66,5.69Z"/><path d="M211.72,321.39a17.72,17.72,0,0,0-1.45-1.85,13.42,13.42,0,0,1-4.19,4.5,10.77,10.77,0,0,0-1.79-2.42,10,10,0,0,0,3.85-4.29c-.39-.39-.81-.75-1.2-1.11l-.21.83-2.39-1.61c.52-2,1.07-4.78,1.61-7.64h-1.79V305h2.29c.31-1.79.57-3.56.8-5.14l2.89.26c-.26,1.53-.55,3.19-.86,4.88h1.92l.5-.05,1.76.18a40.33,40.33,0,0,1-1.92,11.62,19.49,19.49,0,0,1,2,2.31Zm-3-13.59c-.36,1.87-.75,3.71-1.11,5.43l1.61,1.38a32.71,32.71,0,0,0,1.3-6.81Zm14.84,9a17.31,17.31,0,0,0,5.15,4.24,13.23,13.23,0,0,0-2.13,2.41,20,20,0,0,1-4.47-4.52v5.2h-3v-5a16.42,16.42,0,0,1-5,4.55,18.1,18.1,0,0,0-2.05-2.42,14.64,14.64,0,0,0,5.58-4.42H213.2v-2.6h5.9v-1.58h-3.58v-7.51H213.1v-2.6h2.42v-2.65h2.8v2.65H223v-2.65h2.93v2.65h2.27v2.6h-2.27v7.51h-3.76v1.58h6.13v2.6Zm-5.25-11.69v1.38H223v-1.38Zm0,5H223v-1.4h-4.63Z"/><path d="M240.15,312.06v9.43c0,1.12-.16,1.77-.86,2.16a5.39,5.39,0,0,1-2.78.44,10.16,10.16,0,0,0-.7-2.34c.6,0,1.19,0,1.43,0s.28-.11.28-.32v-1.79h-2.78v4.42h-2.59v-12h-1.54V308h1.48v-7.38h8.16V308h1.56v2.93h12.37V313H241.79v-.93Zm-.65-1.95h-6.68v1h6.68Zm-5.2-2.1h.91v-4.14h2.73v-1.06H234.3Zm3.22,5.22h-2.78v1.14h2.78Zm0,4.36V316.4h-2.78v1.19Zm.42-9.58v-2.4h-1.09V308Zm16.53,13.59v2.18H241.24V321.6h3.33a10.84,10.84,0,0,0-1-2.14l1.58-.57H242.7v-5.06h10.62v5.06h-2.44l1.56.37c-.47.83-.94,1.63-1.35,2.34Zm-.78-11.54H242.33V302h2.89v-2.15h2.15V302h1.12v-2.15h2.18V302h3Zm-9.1-5h1.12V304h-1.12Zm0,3h1.12v-1.14h-1.12Zm.6,9h5.54v-1.43h-5.54Zm.65,1.82A10,10,0,0,1,247,321.6h1.77a23.58,23.58,0,0,0,1-2.71Zm2.65-13.82V304h-1.12v1.12Zm-1.12,1.87v1.14h1.12v-1.14Zm3.93-3h-1.15v1.12h1.15Zm0,3h-1.15v1.14h1.15Z"/><path d="M269.64,299.85a26.11,26.11,0,0,0,11.12,8.93,15.69,15.69,0,0,0-2,2.78,31.43,31.43,0,0,1-4-2.46v1.79H261.85v-1.82a36.92,36.92,0,0,1-4,2.55,12.82,12.82,0,0,0-1.95-2.52,27.45,27.45,0,0,0,10.57-9.25Zm-9.51,13.61H276.6v10.66h-3.16v-1H263.17v1h-3Zm13.38-5.3a28.56,28.56,0,0,1-5.32-5.27,26.85,26.85,0,0,1-5.17,5.27Zm-10.34,8v4.24h10.27v-4.24Z"/><path d="M290.82,300.86a41.08,41.08,0,0,1-2.5,5.4v17.8h-3.11v-13c-.55.65-1.1,1.3-1.62,1.87a21.24,21.24,0,0,0-1.71-3.3,27.12,27.12,0,0,0,5.92-9.72Zm8.24,6.13v2.73h6.73v2.81h-6.73v2.93h7.06v2.86h-7.06v5.77h-3.17V307h-1a28.91,28.91,0,0,1-3.41,5,20.38,20.38,0,0,0-2.36-2.15,25.76,25.76,0,0,0,5.51-9.8l3,.75a31.4,31.4,0,0,1-1.28,3.23h10.09V307Z"/><path d="M311.45,323.31c2-.65,3.2-1.77,3.35-3.14a1.23,1.23,0,0,1-.28,0,2.31,2.31,0,0,1-2.47-2.31,2.36,2.36,0,0,1,2.54-2.34c1.85,0,2.81,1.38,2.81,3.56,0,3-1.9,5.35-5.12,6.32Z"/><path d="M352.87,308.65a32.91,32.91,0,0,1-4.42,9.23c.68,1.9,1.43,3,2.13,3s.83-1.33,1-4.6a8.21,8.21,0,0,0,2.65,1.82c-.47,4.86-1.51,6-4,6-1.66,0-3-1.28-4.08-3.38a24.08,24.08,0,0,1-4.08,3.53,20.08,20.08,0,0,0-2.42-2.36,20.41,20.41,0,0,0,2.34-1.64c-3.84.86-7.95,1.74-11,2.39l-.57-3.17c2.91-.49,7.4-1.35,11.56-2.21l.29,2.81a21.18,21.18,0,0,0,2.62-2.65,58.11,58.11,0,0,1-1.82-10.76H330.52v-3.07h12.4c-.06-1.27-.11-2.49-.11-3.74h3.3c0,1.25,0,2.5.05,3.74h4.16a19.2,19.2,0,0,0-3.09-1.95l1.84-1.92a16.71,16.71,0,0,1,3.95,2.47l-1.29,1.4h1.92v3.07h-7.3a57,57,0,0,0,1,7.12,30.64,30.64,0,0,0,2.44-5.87Zm-11.43-.33v8.18h-9.67v-8.18Zm-3,2.6h-3.88v3h3.88Z"/><path d="M364.2,300.83a40,40,0,0,1-2.47,5.33V324h-3V310.76a24.31,24.31,0,0,1-1.75,2.1,19.7,19.7,0,0,0-1.66-3.22,27.37,27.37,0,0,0,5.9-9.72Zm9.2,6.5v13.3c0,1.49-.26,2.34-1.2,2.86a8.11,8.11,0,0,1-3.82.63,10.76,10.76,0,0,0-1.06-3.12c1.09,0,2.18,0,2.54,0s.47-.1.47-.44V307.33h-3a22.38,22.38,0,0,1-2.45,4,21.12,21.12,0,0,0-2.49-2,23.22,23.22,0,0,0,4.42-9.36l3,.68a39.51,39.51,0,0,1-1.22,3.87h8.94l.49-.1,2.18.41c-.31,2.11-.75,4.52-1.11,6l-2.63-.44c.13-.81.29-1.9.42-3ZM369.08,312a26.77,26.77,0,0,1-3.53,8.68A18.93,18.93,0,0,0,362.9,319a18.82,18.82,0,0,0,3.17-7.64Zm8-.89a32.16,32.16,0,0,1,2.83,8.47l-3,1a32.92,32.92,0,0,0-2.63-8.55Z"/><path d="M405.59,303.41v3h-13.9a30.7,30.7,0,0,1-3,5.12v12.57H385.5v-9a18.38,18.38,0,0,1-2.28,1.82,21.67,21.67,0,0,0-1.54-3,19.6,19.6,0,0,0,6.47-7.48h-5.63v-3h7c.44-1.23.83-2.42,1.15-3.62l3.24.78c-.28,1-.62,1.9-1,2.84Zm-6.24,17.17h6.16v2.86H390v-2.86h6.29v-5.92H391V311.8h5.28v-4.31h3.11v4.31h5.15v2.86h-5.15Z"/><path d="M417.39,313.59c-1,.29-2,.55-3,.83v6.19c0,1.51-.29,2.26-1.17,2.7a8.33,8.33,0,0,1-3.93.57,10.21,10.21,0,0,0-.88-2.8c1,0,2.11,0,2.44,0s.5-.13.5-.49v-5.38l-2.76.67-.8-2.93c1-.21,2.26-.49,3.56-.81v-4.54h-3.23v-2.86h3.23v-4.91h3v4.91h2.78v2.86h-2.78v3.79l2.67-.65Zm13.35-2.83a26.14,26.14,0,0,1-4.67,6.94c.7,1.45,1.56,2.31,2.57,2.47.6.05.93-1.2,1.12-4a9.83,9.83,0,0,0,2.57,1.79c-.68,4.81-2.08,6-3.53,5.9-2.27-.23-3.93-1.56-5.18-3.84a21.32,21.32,0,0,1-4.86,3.19,12.08,12.08,0,0,0-2.49-2.39,21.12,21.12,0,0,0,6.13-3.79,44.22,44.22,0,0,1-1.45-7.72l-3.22.34-.32-3,3.28-.32c-.16-2-.26-4.15-.34-6.44h3.17c0,2.16.13,4.21.26,6.16l7.8-.76.28,2.89L424,309a41.93,41.93,0,0,0,.94,5.4,22.55,22.55,0,0,0,3.22-5.19Zm-2.91-5.2a35.9,35.9,0,0,0-3.32-3.95l2.34-1.53a47.91,47.91,0,0,1,3.48,3.74Z"/><path d="M457.87,319.18v3.12H434.25v-3.12h9.9V305.74h-8.5v-3.22h20.77v3.22h-8.73v13.44Z"/><path d="M468.55,300.86a41,41,0,0,1-2.49,5.4v17.8h-3.12v-13c-.55.65-1.09,1.3-1.61,1.87a21.32,21.32,0,0,0-1.72-3.3,27,27,0,0,0,5.93-9.72Zm8.24,6.13v2.73h6.73v2.81h-6.73v2.93h7.07v2.86h-7.07v5.77h-3.17V307h-1a28.89,28.89,0,0,1-3.4,5,21.35,21.35,0,0,0-2.37-2.15,25.76,25.76,0,0,0,5.51-9.8l3,.75a33.76,33.76,0,0,1-1.27,3.23h10.08V307Z"/><path d="M489.18,323.31c2-.65,3.2-1.77,3.35-3.14a1.19,1.19,0,0,1-.28,0,2.31,2.31,0,0,1-2.47-2.31,2.36,2.36,0,0,1,2.55-2.34c1.84,0,2.8,1.38,2.8,3.56,0,3-1.89,5.35-5.12,6.32Z"/><path d="M23.39,368.62A33.26,33.26,0,0,1,19,377.84c.68,1.9,1.43,3,2.13,3,.55,0,.83-1.32,1-4.6a8.11,8.11,0,0,0,2.65,1.82c-.47,4.86-1.51,6-3.95,6-1.66,0-3-1.27-4.08-3.38a25,25,0,0,1-4.08,3.54,20.15,20.15,0,0,0-2.42-2.37,20,20,0,0,0,2.34-1.64c-3.84.86-8,1.75-11,2.4l-.57-3.17c2.91-.5,7.4-1.36,11.56-2.21l.29,2.8a21.88,21.88,0,0,0,2.62-2.65,57.82,57.82,0,0,1-1.82-10.76H1v-3.06h12.4c-.06-1.28-.11-2.5-.11-3.74h3.3c0,1.24,0,2.49.05,3.74h4.16a19.2,19.2,0,0,0-3.09-1.95l1.84-1.92a16.91,16.91,0,0,1,3.95,2.46l-1.3,1.41h1.93v3.06H16.86a58.24,58.24,0,0,0,1,7.12,30.12,30.12,0,0,0,2.44-5.87ZM12,368.28v8.19H2.29v-8.19Zm-3,2.6H5.09v3H9Z"/><path d="M36.09,362.56H40L41.55,372c.28,2,.6,4.08.88,6.13h.11c.39-2.05.8-4.13,1.22-6.13L46,362.56h3.28L51.5,372c.42,2,.81,4.05,1.22,6.13h.13c.29-2.08.57-4.13.86-6.13l1.51-9.39h3.66l-3.56,19.23H50.54l-2.16-9.51c-.31-1.5-.59-3-.83-4.44h-.1c-.26,1.45-.52,2.94-.83,4.44l-2.11,9.51h-4.7Z"/><path d="M61.45,361.06h3.8v5.22L65.09,369a6.63,6.63,0,0,1,4.57-2.13c3.15,0,4.5,2.18,4.5,5.84v9.07H70.34v-8.6c0-2.23-.62-3-2-3-1.2,0-2,.57-3,1.64v10h-3.8Z"/><path d="M77.35,377.84c0-3.11,2.53-4.75,8.37-5.38,0-1.42-.67-2.52-2.47-2.52a8.22,8.22,0,0,0-4,1.38l-1.37-2.52A11.64,11.64,0,0,1,84,366.88c3.69,0,5.58,2.21,5.58,6.42v8.49H86.42l-.28-1.56h-.08a6.8,6.8,0,0,1-4.39,1.93A4.14,4.14,0,0,1,77.35,377.84Zm8.37-.1V374.8c-3.53.47-4.73,1.43-4.73,2.73s.81,1.64,1.93,1.64A3.85,3.85,0,0,0,85.72,377.74Z"/><path d="M94,376.7v-6.44h-2v-2.84l2.24-.18.44-3.9H97.8v3.9h3.59v3H97.8v6.44c0,1.66.68,2.44,2,2.44a4.15,4.15,0,0,0,1.43-.31l.62,2.78a9.37,9.37,0,0,1-3.06.55C95.31,382.16,94,380,94,376.7Z"/><path d="M103.44,374.54c0-4.73,3.3-7.66,6.79-7.66,4,0,6.08,2.93,6.08,7a6.7,6.7,0,0,1-.19,1.74h-9a3.82,3.82,0,0,0,4,3.64,6,6,0,0,0,3.27-1l1.3,2.34a9.23,9.23,0,0,1-5.09,1.61C106.61,382.16,103.44,379.33,103.44,374.54Zm9.59-1.48c0-2-.88-3.22-2.75-3.22-1.54,0-2.89,1.09-3.17,3.22Z"/><path d="M117.76,367.24h3.85l2.13,7.25c.36,1.43.78,2.94,1.17,4.42H125c.36-1.48.78-3,1.17-4.42l2.13-7.25H132l-4.86,14.55h-4.42Z"/><path d="M133.51,374.54c0-4.73,3.3-7.66,6.78-7.66,4,0,6.08,2.93,6.08,7a7.27,7.27,0,0,1-.18,1.74h-9a3.82,3.82,0,0,0,4,3.64,5.94,5.94,0,0,0,3.27-1l1.3,2.34a9.23,9.23,0,0,1-5.09,1.61C136.68,382.16,133.51,379.33,133.51,374.54Zm9.59-1.48c0-2-.89-3.22-2.76-3.22-1.53,0-2.88,1.09-3.17,3.22Z"/><path d="M149.51,367.24h3.12l.26,2.57H153c1.06-1.89,2.62-2.93,4.13-2.93a4.14,4.14,0,0,1,1.71.31l-.67,3.3a4.52,4.52,0,0,0-1.51-.23c-1.14,0-2.52.75-3.35,2.85v8.68h-3.8Z"/><path d="M163,383.28c2-.65,3.19-1.77,3.35-3.15a.86.86,0,0,1-.29,0,2.3,2.3,0,0,1-2.46-2.32,2.35,2.35,0,0,1,2.54-2.33c1.85,0,2.81,1.37,2.81,3.56,0,3-1.9,5.35-5.12,6.31Z"/><path d="M205.9,362.51c-.94,2.5-2.08,5.43-3.15,7.72a8.34,8.34,0,0,1,2.66,6c0,1.95-.42,3.22-1.46,3.9a4.06,4.06,0,0,1-1.82.7,12,12,0,0,1-2.26,0,7.51,7.51,0,0,0-.78-3,13.67,13.67,0,0,0,1.64.05,2.08,2.08,0,0,0,1-.24c.49-.28.67-.91.67-1.76a7.46,7.46,0,0,0-2.67-5.33c.75-1.87,1.63-4.5,2.28-6.5h-3.3V384h-3V361.79a31.78,31.78,0,0,1-2.78,5.53h1.93V370H191c-.54.68-1.09,1.28-1.66,1.9H194v11.72h-2.94v-1h-4.18V384h-2.81V376.1c-.44.29-.88.55-1.3.78a15.91,15.91,0,0,0-1.79-2.57,24.23,24.23,0,0,0,6.21-4.29h-5.54v-2.7h4.53v-2.13h-3.41v-2.65h3.41V360H189v2.52h2.68v1.32A23.23,23.23,0,0,0,193,361l2.73.76v-.5h7.49l.47-.1Zm-14.84,11.85h-4.18V376h4.18Zm0,5.82v-1.84h-4.18v1.84Zm-1.51-12.86c.5-.68,1-1.38,1.43-2.13H189v2.13Z"/><path d="M227.15,370c0,2.47.81,8.19,4.71,11.36A23.64,23.64,0,0,0,230,384c-2.78-2.21-4-6.58-4.31-8.78-.31,2.26-1.79,6.49-4.86,8.78-.16-.29-.42-.7-.68-1.12v0H212v1h-2.59v-6.11c-.26.34-.55.68-.84,1a17.19,17.19,0,0,0-1.53-2.44,15.2,15.2,0,0,0,3.22-6h-2v-5.18h5.48v5.18H211.3l1.56.41a12,12,0,0,1-.47,1.35h2a15.5,15.5,0,0,0,.57-1.76h-.47v-5.18h5.64V369a29.37,29.37,0,0,0,2.21-9.2l3,.39a42.1,42.1,0,0,1-.73,4.31h4.53l.44-.18,2.05.73a42.41,42.41,0,0,1-1.38,7.35l-2.18-1.25c.21-1,.36-2.44.49-3.84h-1.43Zm-16.91-6.47h-2.63v-2.23h2.63v-1.51h2.67v1.51h2.45v-1.51h2.72v1.51h2.76v2.23h-2.76v1.28h-2.72v-1.28h-2.45v1.28h-2.67Zm0,5h1.35v-1.51h-1.35Zm3.9,6.65v-1H212v1ZM212,378h2.14v-1H212Zm0,2.8h2.14v-1H212Zm7.9,0c3.64-3.27,4.32-8.44,4.29-10.81v-2.75h-.26a19.31,19.31,0,0,1-2.1,5,15.65,15.65,0,0,0-2.45-1.87h-3.79l2.11.44-.76,1.32h3.3v2.06h-3.53v1h2.83V377h-2.83v1h2.83v1.81h-2.83v1Zm-3.4-12.26H218v-1.51H216.5Z"/><path d="M239.16,378.18c1,1.77,2.91,2.52,5.59,2.63a128.61,128.61,0,0,0,13.2-.24,12.83,12.83,0,0,0-.91,2.89c-3.3.18-9.05.23-12.29.08s-5.25-.89-6.81-2.92c-1,1-2,2.06-3.25,3.17l-1.46-2.93a38,38,0,0,0,3.07-2.42V372.7h-2.68v-2.83h5.54Zm-2.26-11.82a17.77,17.77,0,0,0-3.46-4.47l2.44-1.56a18.86,18.86,0,0,1,3.64,4.29Zm2.91,8.55,1.51-.34v-13l1.48.39a18.36,18.36,0,0,0,3.45-2.21l2.06,2.24v-.65h8.41v13.2c0,1.25-.2,2-1,2.42a7.31,7.31,0,0,1-3.41.49,9.28,9.28,0,0,0-.83-2.6c.86,0,1.74,0,2,0s.41-.11.41-.42V364h-2.78v16.08h-2.8v-17.9a36.55,36.55,0,0,1-4.16,2v9.79c1.06-.26,2.15-.54,3.25-.83l.33,2.65c-2.41.68-5,1.38-7.12,1.93Z"/><path d="M283.54,378.31h-7.07c2.55,1.22,5.35,2.65,7,3.67l-3,2.1A67.13,67.13,0,0,0,273.3,380l1.9-1.69h-7.8l2.29,1.66a46,46,0,0,1-7.54,4.08,25.08,25.08,0,0,0-2.39-2.13,31.77,31.77,0,0,0,6.81-3.61h-6.91v-2.88h2.42l-.42-13.93,1.74.47a26.21,26.21,0,0,0,3.07-2l2,1.9V360.1h2.63v2.28h4V365h-4v1.74h3.87v8.73h3.22c0-.65.08-1.38.13-2.11h-2.47v-2.54h2.58c0-.73.05-1.46.07-2.21h-2.62V366h2.67c0-.7,0-1.38,0-2h-3v-2.68h5.87c0,4.55-.13,10.24-.36,14.14h2.49Zm-18.68-2.88h3.53V370h2.44v5.43h1.48v-6.32h-3.87v-6.68c-1.25.6-2.65,1.23-3.92,1.72l.05,1.87h2.94v2.55h-2.86l.05,2.18h2.81v2.55h-2.73Z"/><path d="M308.41,372.1a25.59,25.59,0,0,1-4.32,5.69c.71,2,1.51,3.2,2.29,3.2.55,0,.86-1.25,1-4.32a7.84,7.84,0,0,0,2.54,1.77c-.49,4.55-1.45,5.69-3.82,5.69-1.89,0-3.35-1.56-4.47-4.1a27.29,27.29,0,0,1-4.8,3.17,13.18,13.18,0,0,0-2.06-2.5,26.26,26.26,0,0,0,5.8-3.66,49.42,49.42,0,0,1-1.33-7H294v3c1.32-.24,2.68-.5,4-.73l.23,2.81L294,376v4.45c0,1.69-.36,2.52-1.4,3a11.37,11.37,0,0,1-4.68.6,12.49,12.49,0,0,0-1.09-3.12c1.45.08,3,0,3.43,0s.62-.13.62-.55v-3.77c-1.66.34-3.27.68-4.65.94l-.75-3.12c1.48-.23,3.35-.52,5.4-.88v-3.49h-4.91v-2.93h4.91v-3c-1.4.23-2.83.41-4.16.57a11.55,11.55,0,0,0-.88-2.6A66.43,66.43,0,0,0,296.12,360l2.07,2.62c-1.29.39-2.72.73-4.23,1v3.51h5c-.21-2.34-.29-4.76-.31-7.12h3.24a64.05,64.05,0,0,0,.27,7.12h7.06v2.93h-6.75c.2,1.56.46,3.07.75,4.4a21.65,21.65,0,0,0,2.47-3.54Zm-1.9-5.72a20.77,20.77,0,0,0-3.69-4.28l2.34-1.59a22.34,22.34,0,0,1,3.84,4.13Z"/><path d="M326.05,371.06h-4.47V384h-2.86V361.21c-.52,1.48-1.12,3-1.79,4.5V384H314V371a20.78,20.78,0,0,1-1.61,2.13,21.59,21.59,0,0,0-1.48-3.33,28.57,28.57,0,0,0,5.15-10l2.85.86-.15.49h7.3Zm-4.47-7.56V365h2.13V363.5Zm2.13,5.22v-1.53h-2.13v1.53Zm11.23,11.72c0,1.72-.37,2.55-1.41,3s-2.7.57-5.14.57a11.54,11.54,0,0,0-1-3c1.59.11,3.38.08,3.9.06s.68-.16.68-.65v-9.36h-4.76v-9.9h7.72Zm-5.28-16.94V365H332V363.5Zm2.32,5.22v-1.53h-2.32v1.53Z"/><path d="M346,363.53v20.52h-2.57v-4.49c-2,.41-4,.8-5.67,1.09l-.49-2.83,1.61-.24V363.53h-1.17v-2.78h9.56v2.78Zm-2.57,0h-2v2.72h2Zm-2,8h2v-2.75h-2Zm2,5.3v-2.78h-2v3.12Zm16.5-4.05a8.34,8.34,0,0,0-.21-1.15c-1.9.21-3.77.42-5.35.58l-.08-.45-1.72.6c0-.21-.05-.44-.07-.67l-5.72.57-.31-2.16L348,370c.49-.7,1-1.5,1.48-2.34a17.5,17.5,0,0,0-2.67-2.8l1.29-1.8.45.37a31.37,31.37,0,0,0,1.35-3.64l2.49.73c-.83,1.43-1.69,3.06-2.41,4.23l.67.76c.44-.86.83-1.67,1.14-2.39l2.27.78c-1.12,1.92-2.52,4.18-3.8,5.95l1.69-.13c-.16-.45-.34-.89-.52-1.3l1.82-.55a16.06,16.06,0,0,1,.83,2.16l1.07-.08c.46-.68,1-1.45,1.43-2.29a15.41,15.41,0,0,0-2.81-2.85l1.22-1.9c.18.15.39.31.57.47a29.56,29.56,0,0,0,1.38-3.59l2.55.75c-.81,1.43-1.69,3-2.45,4.16a10.42,10.42,0,0,1,.73.78c.44-.88.83-1.71,1.15-2.47l2.36.86c-1.14,1.9-2.52,4.16-3.79,5.92l1.63-.13a13.14,13.14,0,0,0-.52-1.22l1.85-.59a12.67,12.67,0,0,1,1.45,4.23Zm-6.6-.19v4.58c0,2.91-.55,5.46-4.21,7a7.38,7.38,0,0,0-1.51-2,4.72,4.72,0,0,0,3-2.91h-1.17v1h-2.2v-6.86h2.2v3.82h1.43v-4.58Zm5.22.76h2.34v6.81h-2.34v-.91H357v4.8h-2.49V372.57H357v4.6h1.51Z"/><path d="M366.9,375.43a24.12,24.12,0,0,1-1.56,6.7A15.71,15.71,0,0,0,363,381a18.72,18.72,0,0,0,1.38-6ZM386.52,363a20.08,20.08,0,0,1-4,6.41,23,23,0,0,0,5.59,2.79,10.71,10.71,0,0,0-2,2.46l-.06,0V384h-3v-1H377.4v1.06h-2.86v-9.12l-.44.19a7.6,7.6,0,0,0-.81-1.25l-1.72.78c-.07-.39-.18-.83-.31-1.3l-1.32.1v10.63h-2.68V373.63l-3.77.24-.26-2.68,1.87-.08c.39-.49.81-1.06,1.23-1.66a26.2,26.2,0,0,0-3.07-3.53l1.48-2.11.6.52a33.5,33.5,0,0,0,1.89-4.52l2.68,1c-.93,1.76-2,3.77-2.91,5.22.34.36.62.73.88,1a47.38,47.38,0,0,0,2.32-4.21l2.52,1.17c-1.43,2.26-3.22,4.89-4.86,7l2.49-.1a20.32,20.32,0,0,0-.91-1.87l2.06-.86a27,27,0,0,1,1.87,4.08,20.67,20.67,0,0,0,4.86-2.73,25.61,25.61,0,0,1-2.13-2.42,19.67,19.67,0,0,1-2.16,2,9,9,0,0,0-2.08-2,16.76,16.76,0,0,0,5.66-7.3l3,.47c-.26.6-.55,1.22-.88,1.82h4.47l.46-.13Zm-14.35,11.77a28,28,0,0,1,1.61,4.68l-2.28.83a31.45,31.45,0,0,0-1.51-4.84Zm12.63-.68a24.12,24.12,0,0,1-4.39-2.7,21.53,21.53,0,0,1-4.08,2.7Zm-1.74,6.24v-3.59H377.4v3.59ZM377.86,365a15.64,15.64,0,0,0,2.45,2.7,16.61,16.61,0,0,0,2.23-3H378Z"/><path d="M396.18,379.48a2.71,2.71,0,0,1,5.41,0,2.71,2.71,0,0,1-5.41,0Zm.44-13.25-.1-3.87h4.75l-.12,3.87-.92,8.89h-2.67Z"/></g></g></svg>