<svg xmlns="http://www.w3.org/2000/svg" viewBox="0 0 578 319.7"><title>contact2-zh</title><g id="Layer_2" data-name="Layer 2"><g id="レイヤー_1" data-name="レイヤー 1"><path d="M18,9.48a19.76,19.76,0,0,1-3.32,4.38c.54,1.54,1.16,2.46,1.76,2.46.42,0,.66-1,.76-3.32a6.08,6.08,0,0,0,2,1.36c-.38,3.5-1.12,4.38-2.94,4.38-1.46,0-2.58-1.2-3.44-3.16A20.74,20.74,0,0,1,9.12,18,10.43,10.43,0,0,0,7.54,16.1,20.37,20.37,0,0,0,12,13.28a37.07,37.07,0,0,1-1-5.36H6.92V10.2L10,9.64l.18,2.16-3.26.66v3.42c0,1.3-.28,1.94-1.08,2.32a8.6,8.6,0,0,1-3.6.46,9.55,9.55,0,0,0-.84-2.4c1.12.06,2.28,0,2.64,0s.48-.1.48-.42V13c-1.28.26-2.52.52-3.58.72l-.58-2.4c1.14-.18,2.58-.4,4.16-.68V7.92H.74V5.66H4.52V3.38c-1.08.18-2.18.32-3.2.44a9.08,9.08,0,0,0-.68-2A50.79,50.79,0,0,0,8.58.14l1.6,2c-1,.3-2.1.56-3.26.8v2.7h3.84C10.6,3.86,10.54,2,10.52.18H13a49.28,49.28,0,0,0,.2,5.48h5.44V7.92h-5.2c.16,1.2.36,2.36.58,3.38a16.63,16.63,0,0,0,1.9-2.72Zm-1.46-4.4a15.86,15.86,0,0,0-2.84-3.3L15.54.56a17.26,17.26,0,0,1,3,3.18Z"/><path d="M31.62,8.68H28.18v9.94H26V1.1c-.4,1.14-.86,2.32-1.38,3.46v14.1H22.34v-10A16,16,0,0,1,21.1,10.3,16.54,16.54,0,0,0,20,7.74a22,22,0,0,0,4-7.72l2.2.66L26,1.06h5.62ZM28.18,2.86V4h1.64V2.86Zm1.64,4V5.7H28.18V6.88Zm8.64,9c0,1.32-.28,2-1.08,2.3a10.41,10.41,0,0,1-4,.44,8.63,8.63,0,0,0-.76-2.3c1.22.08,2.6.06,3,0s.52-.12.52-.5V8.68H32.52V1.06h5.94Zm-4.06-13V4h1.78V2.86Zm1.78,4V5.7H34.4V6.88Z"/><path d="M52.46,6.46a52,52,0,0,1,6.66,5.42l-2,1.82A46.71,46.71,0,0,0,51,8.28V18.64h-2.6V8.88A23.89,23.89,0,0,1,42,13.8a14.29,14.29,0,0,0-1.64-2.16A21,21,0,0,0,49,3.78H41V1.34H58.36V3.78H52.14A20.14,20.14,0,0,1,51,5.62V7.7Z"/><path d="M66.6,5.06a26.8,26.8,0,0,1-1.52,2.42v11.2H62.86V10.16a17.71,17.71,0,0,1-1.56,1.48,14.45,14.45,0,0,0-1.24-2.22,17.06,17.06,0,0,0,4.46-5.14ZM66.26.84a24.59,24.59,0,0,1-4.78,4.88A18.2,18.2,0,0,0,60.24,4a16.71,16.71,0,0,0,3.92-4ZM74.9,6.58c0,.52-.08,1-.12,1.5h3.46V18.56H76V18h-4.1v.7H69.82V8.08h2.84c0-.46.06-1,.08-1.5H69.08v1c0,3-.24,7.76-2,11a5.7,5.7,0,0,0-1.78-1.44c1.44-2.84,1.56-6.72,1.56-9.54V1.28l1.74.44a52.55,52.55,0,0,0,8-1.5l1.62,1.64c-1,.28-2.1.52-3.28.74h.18c0,.64-.06,1.32-.1,2H79v2Zm-2.1-2c0-.56,0-1.12,0-1.66-1.26.2-2.52.34-3.74.46V4.6ZM76,10h-4.1v1.08H76Zm-4.1,3.74H76V12.66h-4.1ZM76,16.38V15.32h-4.1v1.06Z"/><path d="M87.12,15.68a32.35,32.35,0,0,0-2-2.88,9.87,9.87,0,0,1-3.26,5.62,8.63,8.63,0,0,0-1.62-1.7c2.2-1.62,2.9-4.36,3.1-6.88H80.52V7.68h2.9V5.16h-2.6V3.06h2.6V.2h2.22V3.06h2.5v2.1h-2.5V7.68h2.82V9.84h-2.9l0,.48c.84.86,2.76,3.06,3.2,3.62Zm9.7.54c.32,0,.4-.26.44-2.36a6.7,6.7,0,0,0,2,.86c-.2,2.84-.74,3.56-2.16,3.56H95.74c-1.76,0-2.14-.66-2.14-2.62V12.18h-1c-.34,2.94-1.24,5.18-4.76,6.52a6.31,6.31,0,0,0-1.28-1.78c2.92-1,3.54-2.62,3.8-4.74H89.06V.7h8.88V12.18H95.8v3.44c0,.54,0,.6.34.6ZM91.26,4h4.38V2.8H91.26Zm0,3.06h4.38V5.86H91.26Zm0,3h4.38V8.9H91.26Z"/><path d="M107.66,14l.2,2c-2.5.66-5.14,1.28-7.18,1.78l-.4-2.16.8-.16V8.78h1.84v6.3l.74-.16V7.38h-2.44V.76h6.22V6.34A15.48,15.48,0,0,0,109,1.26l1.4.26A34.5,34.5,0,0,0,116.08,0l1.8,1.6A46.14,46.14,0,0,1,111,3.24a16.73,16.73,0,0,1-1.9,4.84c-.34-.26-1.08-.72-1.62-1v.34h-1.78V9.74h1.88v2h-1.88v2.72ZM103.18,5.4h2.18V2.72h-2.18Zm10.56,3.06h4.6v10.2h-2.28v-.78H110.6v.8h-2.2V8.82l.9.24a12.17,12.17,0,0,0,2.56-1.9l1.88,1.52Zm2.32,2h-2.32V8.72a20.17,20.17,0,0,1-3.14,1.78v1.62h2.1v2h-2.1v1.76h5.46V14.1h-2.24v-2h2.24Zm-3.4-3.32a13.63,13.63,0,0,0-.78-3.44l1.88-.48a13.22,13.22,0,0,1,.88,3.38Zm4.18-4.78a15,15,0,0,1,2.3,4.34l-2,.88A14.46,14.46,0,0,0,115,3.16Z"/><path d="M126.12,10.1a11,11,0,0,1-.22,1.38c.88.92,2.68,3.06,3.1,3.6l-1.5,2c-.52-.88-1.44-2.18-2.22-3.24a11.12,11.12,0,0,1-3.2,4.82A8.7,8.7,0,0,0,120.42,17a10.36,10.36,0,0,0,3.46-6.9h-3.4V7.92H124V4.6h-.7a15.09,15.09,0,0,1-1.1,2.82,12.16,12.16,0,0,0-1.84-1.3A17.52,17.52,0,0,0,122,0l2.2.38c-.1.68-.2,1.36-.34,2h4.76V4.6H126.3V7.92h2.58V10.1ZM139,17.64h-7.2v1H129.5V1h9.26v2.2h-6.94v2.4h6.32v7.3h-6.32v2.58H139Zm-7.2-9.88v2.9h4.06V7.76Z"/><path d="M142.92,18.08c1.56-.5,2.46-1.36,2.58-2.42a.75.75,0,0,1-.22,0,1.77,1.77,0,0,1-1.9-1.78,1.82,1.82,0,0,1,2-1.8c1.42,0,2.16,1.06,2.16,2.74a5,5,0,0,1-3.94,4.86Z"/><path d="M18,59.48a19.76,19.76,0,0,1-3.32,4.38c.54,1.54,1.16,2.46,1.76,2.46.42,0,.66-1,.76-3.32a6.08,6.08,0,0,0,2,1.36c-.38,3.5-1.12,4.38-2.94,4.38-1.46,0-2.58-1.2-3.44-3.16A20.74,20.74,0,0,1,9.12,68,10.43,10.43,0,0,0,7.54,66.1,20.37,20.37,0,0,0,12,63.28a37.07,37.07,0,0,1-1-5.36H6.92V60.2L10,59.64l.18,2.16-3.26.66v3.42c0,1.3-.28,1.94-1.08,2.32a8.6,8.6,0,0,1-3.6.46,9.55,9.55,0,0,0-.84-2.4c1.12.06,2.28,0,2.64,0s.48-.1.48-.42V63c-1.28.26-2.52.52-3.58.72l-.58-2.4c1.14-.18,2.58-.4,4.16-.68V57.92H.74V55.66H4.52V53.38c-1.08.18-2.18.32-3.2.44a9.08,9.08,0,0,0-.68-2,50.79,50.79,0,0,0,7.94-1.68l1.6,2c-1,.3-2.1.56-3.26.8v2.7h3.84c-.16-1.8-.22-3.66-.24-5.48H13a49.28,49.28,0,0,0,.2,5.48h5.44v2.26h-5.2c.16,1.2.36,2.36.58,3.38a16.63,16.63,0,0,0,1.9-2.72Zm-1.46-4.4a15.86,15.86,0,0,0-2.84-3.3l1.8-1.22a17.26,17.26,0,0,1,3,3.18Z"/><path d="M31.62,58.68H28.18v9.94H26V51.1c-.4,1.14-.86,2.32-1.38,3.46v14.1H22.34v-10A16,16,0,0,1,21.1,60.3,16.54,16.54,0,0,0,20,57.74a22,22,0,0,0,4-7.72l2.2.66-.12.38h5.62Zm-3.44-5.82V54h1.64V52.86Zm1.64,4V55.7H28.18v1.18Zm8.64,9c0,1.32-.28,2-1.08,2.3a10.41,10.41,0,0,1-4,.44,8.63,8.63,0,0,0-.76-2.3c1.22.08,2.6.06,3,0s.52-.12.52-.5v-7.2H32.52V51.06h5.94Zm-4.06-13V54h1.78V52.86Zm1.78,4V55.7H34.4v1.18Z"/><path d="M52.46,56.46a52,52,0,0,1,6.66,5.42l-2,1.82A46.71,46.71,0,0,0,51,58.28V68.64h-2.6V58.88A23.89,23.89,0,0,1,42,63.8a14.29,14.29,0,0,0-1.64-2.16A21,21,0,0,0,49,53.78H41V51.34H58.36v2.44H52.14A20.14,20.14,0,0,1,51,55.62V57.7Z"/><path d="M78.58,52.76V55H67.88A23,23,0,0,1,65.54,59v9.68H63.12v-7a15,15,0,0,1-1.76,1.4,16.63,16.63,0,0,0-1.18-2.3,15.16,15.16,0,0,0,5-5.76H60.82V52.76h5.4c.34-.94.64-1.86.88-2.78l2.5.6c-.22.74-.48,1.46-.76,2.18ZM73.78,66h4.74v2.2h-12V66h4.84V61.42H67.32v-2.2h4.06V55.9h2.4v3.32h4v2.2h-4Z"/><path d="M80.28,67a6.61,6.61,0,0,0,2.62-3.38l2,.7a7.63,7.63,0,0,1-2.76,3.94ZM98.36,56.1H81.06V54.26h4.28a12.14,12.14,0,0,0-.5-1.34l.1,0H82V51.06h6.44V50h2.36v1.06H97.3V52.9H94.48l.3.06c-.3.52-.6.94-.84,1.3h4.42Zm-6.8,10.46c.74,0,.86-.22,1-1.64a6.42,6.42,0,0,0,2,.76c-.26,2.22-.9,2.78-2.76,2.78H88.56c-2.52,0-3.14-.58-3.14-2.48v-2.1h2.16l-.24-.1.82-.8h-5V56.92H96.42V63h-6.5A12.72,12.72,0,0,1,92,64.2l-1.44,1.48A12.48,12.48,0,0,0,87.74,64v2c0,.54.16.6,1.06.6Zm-6.14-7.32h8.64v-.86H85.42Zm0,2.28h8.64v-.9H85.42Zm1.8-8.62a12.18,12.18,0,0,1,.48,1.3l-.26.06h4.44l-.28-.06c.18-.38.42-.88.58-1.3ZM95.8,63.4A14.69,14.69,0,0,1,99.06,67l-2,1.14A16.58,16.58,0,0,0,94,64.42Z"/><path d="M118.78,64.44h-4.46v1.94c0,1.1-.2,1.66-1,2a10.72,10.72,0,0,1-3.44.32,8.73,8.73,0,0,0-.68-2.08c1,0,2.1,0,2.42,0s.42-.08.42-.34V64.44h-5.64a13.07,13.07,0,0,1,2.14,1.84l-1.76,1.52a14.82,14.82,0,0,0-3-2.66l.84-.7h-4V62.56H112v-.74c-3.94.08-7.72.14-10.52.16l-.06-1.7c1.88,0,4.34,0,7,0v-.72h-5.76V53.8h5.76v-.72h-7.34v-1.8h7.34V50h2.32v1.26h7.3v1.8h-7.3v.72h6v5.76H115.5a19.63,19.63,0,0,1,2.58,1.6l-1.46,1.22c-.24-.2-.52-.44-.84-.66l-1.46,0v.8h4.46ZM104.94,56h3.54v-.74h-3.54Zm3.54,2.12v-.76h-3.54v.76Zm2.32-2.86V56h3.72v-.74Zm3.72,2.86v-.76H110.8v.76Zm-3.72,2.16,2.52,0c-.28-.12-.56-.26-.82-.36l.4-.32h-2.1Z"/><path d="M132.62,64.18a19.93,19.93,0,0,0,6.68,2.26,10.48,10.48,0,0,0-1.52,2,18.27,18.27,0,0,1-7-3.36v3.56h-2.36V65.22a17.7,17.7,0,0,1-6.82,3.26,9,9,0,0,0-1.46-1.92,19.24,19.24,0,0,0,6.6-2.38h-6.1v-2h7.78V61a43.7,43.7,0,0,1-6.14.78,6,6,0,0,0-.78-1.84,39.7,39.7,0,0,0,6.26-.7c-.64-.14-1.28-.3-1.88-.42l-.26.3-2.26-.62c.48-.52,1-1.16,1.56-1.84H121V54.78h5.36c.38-.52.76-1,1.08-1.48h-4.1v1.1h-2.2V51.34h7.34V50h2.38v1.32h7.4V54.4H136V53.3h-8l1.82.54c-.22.3-.44.62-.68.94h9.34v1.86h-3.52a5.94,5.94,0,0,1-1.54,2.16c1.62.46,3.1.92,4.22,1.34l-1.42,1.68a43.94,43.94,0,0,0-5-1.68,12.84,12.84,0,0,1-2.24.72h1.86v1.36h8v2Zm-5.52-6.84c1.16.22,2.44.5,3.72.82a4.18,4.18,0,0,0,1.5-1.52h-4.68Z"/><path d="M158.52,53.08s0,.8,0,1.08c-.26,8.94-.48,12.12-1.3,13.18a2.67,2.67,0,0,1-1.92,1.1,22.42,22.42,0,0,1-3.14,0,5.6,5.6,0,0,0-.78-2.32c1.28.12,2.46.12,3,.12a1.07,1.07,0,0,0,.88-.34c.58-.64.84-3.64,1.06-10.7H152a17.25,17.25,0,0,1-1.76,3.16,14.86,14.86,0,0,0-1.54-1.12v9.34h-5.34v1.46H141.2V53.22h2.26A21.45,21.45,0,0,0,144,50l2.6.36c-.34,1-.7,2-1,2.86h3.1v3.24A20.69,20.69,0,0,0,151.4,50l2.26.52a23.21,23.21,0,0,1-.78,2.54Zm-12,2.22h-3.18v3.24h3.18Zm0,9.22V60.6h-3.18v3.92Zm6.64-1.08a42.8,42.8,0,0,0-2.78-4.62l1.86-1.06a48.27,48.27,0,0,1,2.94,4.44Z"/><path d="M171.52,57.82c1.32,3.9,3.74,7,7.48,8.56a9.57,9.57,0,0,0-1.76,2.24c-3.62-1.7-5.94-4.62-7.5-8.48a13.77,13.77,0,0,1-7.48,8.5,7,7,0,0,0-1.78-2,12,12,0,0,0,7.26-8.8h-6.88V55.36h7.28c.2-1.88.18-3.7.2-5.34h2.6c0,1.64,0,3.48-.24,5.34h7.86v2.46Z"/><path d="M185.94,55.3c-.68,3-1.76,6.7-3.42,8.9A20,20,0,0,0,180.2,63c1.6-2,2.6-5.52,3-8.12Zm5.1-5V65.7c0,1.46-.34,2.12-1.22,2.5a12.23,12.23,0,0,1-4.24.46,10.7,10.7,0,0,0-.94-2.48c1.3.06,2.78.06,3.22,0s.6-.14.6-.52V50.28Zm4.52,4.34a35,35,0,0,1,3.76,9l-2.6,1a34.39,34.39,0,0,0-3.5-9.1Z"/><path d="M218.9,64.26h-5.44c2,.94,4.12,2,5.4,2.82l-2.34,1.62a52,52,0,0,0-5.5-3.14l1.46-1.3h-6l1.76,1.28a36,36,0,0,1-5.8,3.14A18.47,18.47,0,0,0,200.6,67a25,25,0,0,0,5.24-2.78h-5.32V62h1.86l-.32-10.72,1.34.36a19.49,19.49,0,0,0,2.36-1.5l1.52,1.46v-1.4h2V52h3.06v2H209.3v1.34h3V62h2.48c0-.5.06-1.06.1-1.62H213v-2h2c0-.56,0-1.12.06-1.7h-2v-2H215c0-.54,0-1.06,0-1.58h-2.32V51.16h4.52c0,3.5-.1,7.88-.28,10.88h1.92ZM204.52,62h2.72V57.86h1.88V62h1.14V57.18h-3V52c-1,.46-2,.94-3,1.32l0,1.44h2.26v2h-2.2l0,1.68h2.16v2h-2.1Z"/><path d="M238.66,65.84V68h-18v-2.2h7.82v-1.6h-5.8V62.08h5.78V60.82H227V57h-1.84A6.1,6.1,0,0,1,222,61.36a10.23,10.23,0,0,0-1.56-1.66A4.42,4.42,0,0,0,222.86,57h-2v-2.1h2.26v-2.1h-1.58V50.7h9.08v2.08h-1.42v2.1h1.88V57h-1.88v3.5h1.72v1.6h5.78v2.16H230.9v1.6Zm-11.7-11v-2.1h-1.68v2.1Zm7.12,3H231.9V51.14h2.18Zm3.72.86c0,1.1-.2,1.66-1,2a8.24,8.24,0,0,1-3.14.38A8.94,8.94,0,0,0,233,59c.9,0,1.86,0,2.16,0s.38-.08.38-.34v-8.5h2.26Z"/><path d="M253.22,55.72c.42,5.84,1.64,10.46,3.1,10.46.42,0,.66-1.06.76-3.6a6.36,6.36,0,0,0,2.08,1.4c-.36,3.78-1.16,4.7-3.06,4.7-3.42,0-4.92-5.92-5.4-13h-9.94V53.4h9.82c0-1.08-.06-2.2-.06-3.3h2.56c0,1.1,0,2.22,0,3.3h3.16a14.16,14.16,0,0,0-2.34-2.1L255.5,50a14.94,14.94,0,0,1,2.62,2.22l-1.36,1.18h1.88v2.32Zm-6.32,9c1.22-.22,2.5-.46,3.72-.7l.18,2.12c-3.28.72-6.8,1.46-9.38,2l-.66-2.4c1-.16,2.34-.36,3.78-.6V60.3h-3V58h8.58v2.3h-3.2Z"/><path d="M262.92,68.08c1.56-.5,2.46-1.36,2.58-2.42a.75.75,0,0,1-.22,0,1.77,1.77,0,0,1-1.9-1.78,1.82,1.82,0,0,1,2-1.8c1.42,0,2.16,1.06,2.16,2.74a5,5,0,0,1-3.94,4.86Z"/><path d="M18,109.48a19.76,19.76,0,0,1-3.32,4.38c.54,1.54,1.16,2.46,1.76,2.46.42,0,.66-1,.76-3.32a6.08,6.08,0,0,0,2,1.36c-.38,3.5-1.12,4.38-2.94,4.38-1.46,0-2.58-1.2-3.44-3.16A20.74,20.74,0,0,1,9.12,118a10.43,10.43,0,0,0-1.58-1.92A20.37,20.37,0,0,0,12,113.28a37.07,37.07,0,0,1-1-5.36H6.92v2.28l3.08-.56.18,2.16-3.26.66v3.42c0,1.3-.28,1.94-1.08,2.32a8.6,8.6,0,0,1-3.6.46,9.55,9.55,0,0,0-.84-2.4c1.12.06,2.28,0,2.64,0s.48-.1.48-.42V113c-1.28.26-2.52.52-3.58.72l-.58-2.4c1.14-.18,2.58-.4,4.16-.68v-2.68H.74v-2.26H4.52v-2.28c-1.08.18-2.18.32-3.2.44a9.08,9.08,0,0,0-.68-2,50.79,50.79,0,0,0,7.94-1.68l1.6,2c-1,.3-2.1.56-3.26.8v2.7h3.84c-.16-1.8-.22-3.66-.24-5.48H13a49.28,49.28,0,0,0,.2,5.48h5.44v2.26h-5.2c.16,1.2.36,2.36.58,3.38a16.63,16.63,0,0,0,1.9-2.72Zm-1.46-4.4a15.86,15.86,0,0,0-2.84-3.3l1.8-1.22a17.26,17.26,0,0,1,3,3.18Z"/><path d="M31.62,108.68H28.18v9.94H26V101.1c-.4,1.14-.86,2.32-1.38,3.46v14.1H22.34v-10a16,16,0,0,1-1.24,1.64A16.54,16.54,0,0,0,20,107.74a22,22,0,0,0,4-7.72l2.2.66-.12.38h5.62Zm-3.44-5.82V104h1.64v-1.14Zm1.64,4V105.7H28.18v1.18Zm8.64,9c0,1.32-.28,2-1.08,2.3a10.41,10.41,0,0,1-4,.44,8.63,8.63,0,0,0-.76-2.3c1.22.08,2.6.06,3,0s.52-.12.52-.5v-7.2H32.52v-7.62h5.94Zm-4.06-13V104h1.78v-1.14Zm1.78,4V105.7H34.4v1.18Z"/><path d="M48.66,113.8a26.19,26.19,0,0,1-6,4.9,22.51,22.51,0,0,0-2-1.7,18.57,18.57,0,0,0,5.46-4.22Zm-3.4-1.58h-2.4v-11H57v10.9H54.5v-.54H45.26Zm0-8.72v5.8H54.5v-5.8ZM53,112.76a41.47,41.47,0,0,1,5.58,4.52l-2.18,1.46A43.1,43.1,0,0,0,51,114Z"/><path d="M78.58,102.76V105H67.88A23,23,0,0,1,65.54,109v9.68H63.12v-7a15,15,0,0,1-1.76,1.4,16.63,16.63,0,0,0-1.18-2.3,15.16,15.16,0,0,0,5-5.76H60.82v-2.28h5.4c.34-.94.64-1.86.88-2.78l2.5.6c-.22.74-.48,1.46-.76,2.18ZM73.78,116h4.74v2.2h-12V116h4.84v-4.56H67.32v-2.2h4.06V105.9h2.4v3.32h4v2.2h-4Z"/><path d="M80.28,117a6.61,6.61,0,0,0,2.62-3.38l2,.7a7.63,7.63,0,0,1-2.76,3.94ZM98.36,106.1H81.06v-1.84h4.28a12.14,12.14,0,0,0-.5-1.34l.1,0H82v-1.84h6.44V100h2.36v1.06H97.3v1.84H94.48l.3.06c-.3.52-.6.94-.84,1.3h4.42Zm-6.8,10.46c.74,0,.86-.22,1-1.64a6.42,6.42,0,0,0,2,.76c-.26,2.22-.9,2.78-2.76,2.78H88.56c-2.52,0-3.14-.58-3.14-2.48v-2.1h2.16l-.24-.1.82-.8h-5v-6.06H96.42V113h-6.5A12.72,12.72,0,0,1,92,114.2l-1.44,1.48A12.48,12.48,0,0,0,87.74,114v2c0,.54.16.6,1.06.6Zm-6.14-7.32h8.64v-.86H85.42Zm0,2.28h8.64v-.9H85.42Zm1.8-8.62a12.18,12.18,0,0,1,.48,1.3l-.26.06h4.44l-.28-.06c.18-.38.42-.88.58-1.3Zm8.58,10.5A14.69,14.69,0,0,1,99.06,117l-2,1.14A16.58,16.58,0,0,0,94,114.42Z"/><path d="M108.06,101.32a19.56,19.56,0,0,1,2.42,4.64l-2.18.88a7.39,7.39,0,0,0-.36-1.06c-2.64.18-5.36.34-7.4.46l-.2-2.26c.48,0,1,0,1.56,0a31.6,31.6,0,0,0,1.46-4l2.48.5c-.46,1.16-1,2.36-1.5,3.42l2.66-.12c-.3-.56-.62-1.12-.94-1.64Zm1,14.94c0,1-.2,1.62-.86,2a5.93,5.93,0,0,1-2.8.4,8.8,8.8,0,0,0-.76-2.1,16.62,16.62,0,0,0,1.76,0c.24,0,.32-.06.32-.3v-1.34h-3v3.78h-2.2V107.18h7.54Zm-5.34-7.12v1h3v-1Zm3,4v-1.18h-3v1.18Zm6.82-4.14c-2.34,0-2.9-.7-2.9-2.9v-6H113v2.86a31.16,31.16,0,0,0,3.6-1.66l1.52,1.72a36.7,36.7,0,0,1-5.12,1.88V106c0,.72.12.8.88.8h2.18c.64,0,.78-.3.86-2a6.57,6.57,0,0,0,2.1.88c-.26,2.56-.88,3.3-2.72,3.3Zm2.64,7.48c.68,0,.82-.38.92-2.4a7.4,7.4,0,0,0,2.08.88c-.26,2.82-.86,3.6-2.78,3.6h-2.84c-2.34,0-2.92-.68-2.92-2.88v-6.28H113v2.7a22.65,22.65,0,0,0,3.76-1.88l1.58,1.74a30.32,30.32,0,0,1-5.34,2.12v1.6c0,.7.14.8.92.8Z"/><path d="M132.46,106.46a52,52,0,0,1,6.66,5.42l-2,1.82a46.71,46.71,0,0,0-6.12-5.42v10.36h-2.6v-9.76A23.89,23.89,0,0,1,122,113.8a14.29,14.29,0,0,0-1.64-2.16,21,21,0,0,0,8.62-7.86h-8v-2.44h17.34v2.44h-6.22a20.14,20.14,0,0,1-1.16,1.84v2.08Z"/><path d="M148.06,101.32a19.56,19.56,0,0,1,2.42,4.64l-2.18.88a7.39,7.39,0,0,0-.36-1.06c-2.64.18-5.36.34-7.4.46l-.2-2.26c.48,0,1,0,1.56,0a31.6,31.6,0,0,0,1.46-4l2.48.5c-.46,1.16-1,2.36-1.5,3.42l2.66-.12c-.3-.56-.62-1.12-.94-1.64Zm1,14.94c0,1-.2,1.62-.86,2a5.93,5.93,0,0,1-2.8.4,8.8,8.8,0,0,0-.76-2.1,16.62,16.62,0,0,0,1.76,0c.24,0,.32-.06.32-.3v-1.34h-3v3.78h-2.2V107.18h7.54Zm-5.34-7.12v1h3v-1Zm3,4v-1.18h-3v1.18Zm6.82-4.14c-2.34,0-2.9-.7-2.9-2.9v-6H153v2.86a31.16,31.16,0,0,0,3.6-1.66l1.52,1.72a36.7,36.7,0,0,1-5.12,1.88V106c0,.72.12.8.88.8h2.18c.64,0,.78-.3.86-2a6.57,6.57,0,0,0,2.1.88c-.26,2.56-.88,3.3-2.72,3.3Zm2.64,7.48c.68,0,.82-.38.92-2.4a7.4,7.4,0,0,0,2.08.88c-.26,2.82-.86,3.6-2.78,3.6h-2.84c-2.34,0-2.92-.68-2.92-2.88v-6.28H153v2.7a22.65,22.65,0,0,0,3.76-1.88l1.58,1.74a30.32,30.32,0,0,1-5.34,2.12v1.6c0,.7.14.8.92.8Z"/><path d="M166.12,100.7a40.34,40.34,0,0,1-1.6,4v13.92h-2.18v-10a19.43,19.43,0,0,1-1.22,1.64,16.08,16.08,0,0,0-1.16-2.58,21.77,21.77,0,0,0,4-7.68Zm12,5a25,25,0,0,1-1.8,7.9,8.59,8.59,0,0,0,2.84,3.14,9.66,9.66,0,0,0-1.42,1.88,9.91,9.91,0,0,1-2.6-2.94,10.78,10.78,0,0,1-3,2.94,12.94,12.94,0,0,0-1.42-1.6,9.37,9.37,0,0,0,.8-.54h-3.82v1.42h-2V109h2v-3.26h-2.3v-2.14h2.3v-3.36h2.24v3.36h2.08v2.14h-2.08V109h1.52c-.18-.26-.36-.5-.48-.66,1.38-2,2.14-5.12,2.56-8.34l2.12.36c-.18,1.1-.38,2.24-.62,3.3H179v2ZM169.72,111h-2.06v3.42h2.06Zm2.08,5.18a9.53,9.53,0,0,0,2.28-2.7,23.07,23.07,0,0,1-1.18-4.24,8.6,8.6,0,0,1-.7,1.1,5.74,5.74,0,0,0-.4-.7Zm2.6-10.54-.18.58a27.67,27.67,0,0,0,.94,4.64,27.13,27.13,0,0,0,.92-5.22Z"/><path d="M197.72,110.2v8.46h-2.48v-1.14H184.16v1.16h-2.42V110.2h2.42v5h4.18v-6h-5.8v-7.26h2.36v4.94h3.44V100.2h2.44v6.62h3.64v-4.94h2.5v7.26h-6.14v6h4.46v-5Z"/><path d="M208.32,104.14a28.68,28.68,0,0,1-1.68,8.84,14.49,14.49,0,0,1,2.16,2.08L207.38,117a16.41,16.41,0,0,0-1.78-1.9,11.17,11.17,0,0,1-3.64,3.66,8.3,8.3,0,0,0-1.42-1.88,8.17,8.17,0,0,0,3.26-3.28c-.36-.3-.72-.56-1.08-.82l-.16.62-1.94-1c.44-1.64.94-3.88,1.42-6.2h-1.56V104h2c.26-1.38.5-2.74.68-4l2.24.2c-.2,1.18-.44,2.46-.7,3.76h1.8l.4-.06Zm-4.1,2c-.3,1.5-.64,3-1,4.38.48.32,1,.64,1.48,1a23,23,0,0,0,1.2-5.38Zm14.82,4h-4.4V116c0,1.2-.22,1.84-1,2.2a7.79,7.79,0,0,1-3.34.44,10.07,10.07,0,0,0-.86-2.34c1,0,2.08.06,2.4,0s.44-.08.44-.36v-5.84h-4.22v-2.24h4.22V105.6H213a17.72,17.72,0,0,0,1.92-2.4h-6.22V101h7.82l.48-.14,1.56,1.18a30.6,30.6,0,0,1-3.94,4.74v1.14H219Z"/><path d="M227.82,114.5c-2.52.68-5.2,1.36-7.24,1.9l-.48-2.28,2.74-.58V109.4h-2.16v-2.18h2.16v-3.54h-2.36v-2.2h6.82v2.2h-2.16v3.54h2v2.18h-2V113l2.42-.58Zm9,1.86c.32,0,.4-.38.44-2.74a6.52,6.52,0,0,0,2.1,1c-.2,3.08-.78,4-2.3,4h-1.36c-1.84,0-2.26-.74-2.26-3V109.3h-1.36c-.24,4.68-1,7.74-5.56,9.38a5.72,5.72,0,0,0-1.32-1.82c4-1.34,4.42-3.66,4.58-7.56H227.5V107h11.42v2.28h-3.14v6.3c0,.68,0,.76.32.76Zm1.1-12.68h-9.6v-2.26h9.6Z"/><path d="M258.52,103.08s0,.8,0,1.08c-.26,8.94-.48,12.12-1.3,13.18a2.67,2.67,0,0,1-1.92,1.1,22.42,22.42,0,0,1-3.14,0,5.6,5.6,0,0,0-.78-2.32c1.28.12,2.46.12,3,.12a1.07,1.07,0,0,0,.88-.34c.58-.64.84-3.64,1.06-10.7H252a17.25,17.25,0,0,1-1.76,3.16,14.86,14.86,0,0,0-1.54-1.12v9.34h-5.34v1.46H241.2V103.22h2.26A21.45,21.45,0,0,0,244,100l2.6.36c-.34,1-.7,2-1,2.86h3.1v3.24a20.69,20.69,0,0,0,2.7-6.44l2.26.52a23.21,23.21,0,0,1-.78,2.54Zm-12,2.22h-3.18v3.24h3.18Zm0,9.22V110.6h-3.18v3.92Zm6.64-1.08a42.8,42.8,0,0,0-2.78-4.62l1.86-1.06a48.27,48.27,0,0,1,2.94,4.44Z"/><path d="M272.66,112.66a19.07,19.07,0,0,0,6.46,3.76,10.47,10.47,0,0,0-1.7,2.06,19.82,19.82,0,0,1-6.56-4.66v4.86H268.4v-4.76a19.52,19.52,0,0,1-6.44,4.52,13,13,0,0,0-1.64-2,18.09,18.09,0,0,0,6.3-3.78h-4V105h5.82v-1.14h-7.52v-2.22h7.52V100h2.46v1.64h7.7v2.22h-7.7V105H277v7.64ZM264.88,108h3.52V106.8h-3.52Zm0,2.9h3.52v-1.22h-3.52Zm6-4.08V108h3.68V106.8Zm3.68,2.86h-3.68v1.22h3.68Z"/><path d="M292.88,103.38v2.18h5v13H295.5v-1.1H283.82v1.14h-2.3v-13h4.64v-2.18h-5.44V101.1H298.6v2.28Zm2.62,11.9v-2.76a2.5,2.5,0,0,1-1,.16h-1.68c-1.94,0-2.32-.66-2.32-2.64v-2.3h-2V108a6,6,0,0,1-3.36,5.74,8.09,8.09,0,0,0-1.32-1.26v2.84Zm-11.68-7.54V112a4.18,4.18,0,0,0,2.46-4v-.18Zm6.7-4.36h-2v2.18h2Zm5,4.36h-2.74V110c0,.52.06.58.44.58h1c.34,0,.42-.14.46-1a3.87,3.87,0,0,0,.82.44Z"/><path d="M302.92,118.08c1.56-.5,2.46-1.36,2.58-2.42a.75.75,0,0,1-.22,0,1.77,1.77,0,0,1-1.9-1.78,1.82,1.82,0,0,1,2-1.8c1.42,0,2.16,1.06,2.16,2.74a5,5,0,0,1-3.94,4.86Z"/><path d="M3.66,161.44c-.12,2.44-.54,5.3-1.78,7.26A10.3,10.3,0,0,0,0,167.28c1.32-2.14,1.44-5.26,1.44-7.56v-5.08H9.22v6.8Zm6-8.3H.78V151H9.62ZM3.7,156.76v2.54H6.92v-2.54ZM19.06,159H17.28v9.64H14.92V159H12.6c-.18,3.06-.92,6.94-3.58,9.6A5.88,5.88,0,0,0,7.26,167c2.78-2.82,3.06-6.78,3.06-9.74v-5.52l1.64.38a22.44,22.44,0,0,0,4.88-2l2.1,1.8a32.84,32.84,0,0,1-6.3,2.14v2.6h6.42Z"/><path d="M28.92,163c-2.64,1.18-5.6,2.44-7.86,3.38l-.8-2.54c.76-.26,1.66-.58,2.66-1l-.4-11.68,2.48-.1.36,10.82c1-.42,2-.84,3-1.24Zm8.28,5.62a35,35,0,0,0-3.74-4.82,14.28,14.28,0,0,1-6.08,4.86,14,14,0,0,0-1.9-2.1c6.34-2.4,8.4-7.24,9.14-15.46l2.62.24a30.91,30.91,0,0,1-2.44,10.16,43.62,43.62,0,0,1,4.44,5.14ZM29.7,158.4a20.38,20.38,0,0,0-3-5l2.16-1.08a20.39,20.39,0,0,1,3.16,4.8Z"/><path d="M58,159.48a19.76,19.76,0,0,1-3.32,4.38c.54,1.54,1.16,2.46,1.76,2.46.42,0,.66-1,.76-3.32a6.08,6.08,0,0,0,2,1.36c-.38,3.5-1.12,4.38-2.94,4.38-1.46,0-2.58-1.2-3.44-3.16a20.74,20.74,0,0,1-3.7,2.44,10.43,10.43,0,0,0-1.58-1.92A20.37,20.37,0,0,0,52,163.28a37.07,37.07,0,0,1-1-5.36H46.92v2.28l3.08-.56.18,2.16-3.26.66v3.42c0,1.3-.28,1.94-1.08,2.32a8.6,8.6,0,0,1-3.6.46,9.55,9.55,0,0,0-.84-2.4c1.12.06,2.28,0,2.64,0s.48-.1.48-.42V163c-1.28.26-2.52.52-3.58.72l-.58-2.4c1.14-.18,2.58-.4,4.16-.68v-2.68H40.74v-2.26h3.78v-2.28c-1.08.18-2.18.32-3.2.44a9.08,9.08,0,0,0-.68-2,50.79,50.79,0,0,0,7.94-1.68l1.6,2c-1,.3-2.1.56-3.26.8v2.7h3.84c-.16-1.8-.22-3.66-.24-5.48H53a49.28,49.28,0,0,0,.2,5.48h5.44v2.26h-5.2c.16,1.2.36,2.36.58,3.38a16.63,16.63,0,0,0,1.9-2.72Zm-1.46-4.4a15.86,15.86,0,0,0-2.84-3.3l1.8-1.22a17.26,17.26,0,0,1,3,3.18Z"/><path d="M71.62,158.68H68.18v9.94H66V151.1c-.4,1.14-.86,2.32-1.38,3.46v14.1H62.34v-10a16,16,0,0,1-1.24,1.64A16.54,16.54,0,0,0,60,157.74a22,22,0,0,0,4-7.72l2.2.66-.12.38h5.62Zm-3.44-5.82V154h1.64v-1.14Zm1.64,4V155.7H68.18v1.18Zm8.64,9c0,1.32-.28,2-1.08,2.3a10.41,10.41,0,0,1-4,.44,8.63,8.63,0,0,0-.76-2.3c1.22.08,2.6.06,3,0s.52-.12.52-.5v-7.2H72.52v-7.62h5.94Zm-4.06-13V154h1.78v-1.14Zm1.78,4V155.7H74.4v1.18Z"/><path d="M98.9,157.86v2.58H80.5v-2.58Z"/><path d="M108.28,154.92c.06-.34.12-.72.16-1.1h-7.6v-2.18h7.82c0-.6.06-1.18.08-1.7l2.8.08c-.08.54-.14,1.08-.24,1.62h7.26v2.18h-7.62c-.08.38-.14.76-.22,1.1h5.78v9.5H105.74v-9.5Zm10.48,12.88H104.12v.9h-2.36V155.54h2.36v10h14.64Zm-4.62-11.22H108v1h6.16Zm0,2.58H108v1h6.16Zm0,2.58H108v1h6.16Z"/><path d="M138.58,152.76V155h-10.7a23,23,0,0,1-2.34,3.94v9.68h-2.42v-7a15,15,0,0,1-1.76,1.4,16.63,16.63,0,0,0-1.18-2.3,15.16,15.16,0,0,0,5-5.76h-4.34v-2.28h5.4c.34-.94.64-1.86.88-2.78l2.5.6c-.22.74-.48,1.46-.76,2.18ZM133.78,166h4.74v2.2h-12V166h4.84v-4.56h-4.06v-2.2h4.06V155.9h2.4v3.32h4v2.2h-4Z"/><path d="M158.78,164.64h-3.92v1.7c0,1.12-.22,1.68-1,2a9.83,9.83,0,0,1-3.4.34,8,8,0,0,0-.76-2.1c1,0,2.12,0,2.44,0s.42-.06.42-.32v-1.64h-5.88a10.87,10.87,0,0,1,1.76,1.56l-1.72,1.48a12.67,12.67,0,0,0-2.72-2.44l.72-.6H140.6v-2h11.92v-.92h-2.64v-4.42h7.92v4.42h-2.94v.92h3.92Zm-17.84-4.22c.82,0,1.82-.06,2.92-.12V159h-2.6v-1.64h7.6V159H146.1v1.22l3.06-.14,0,1.7c-2.88.16-5.88.32-8,.46Zm15.32-3.74h-13.5v-1.56h11.16v-.76H143.46v-1.44h10.46v-.74H142.86v-1.56h13.4Zm-4.18,3.54h3.36v-1.36h-3.36Z"/><path d="M167.66,160.6l-2.34.64V166c0,1.16-.22,1.74-.9,2.08a6.35,6.35,0,0,1-3,.44,8,8,0,0,0-.68-2.16c.8,0,1.62,0,1.88,0s.38-.1.38-.38v-4.14l-2.12.52-.62-2.26c.78-.16,1.74-.38,2.74-.62V156H160.5v-2.2H163V150h2.34v3.78h2.14V156h-2.14v2.92l2.06-.5Zm10.28-2.18a20.09,20.09,0,0,1-3.6,5.34c.54,1.12,1.2,1.78,2,1.9.46,0,.72-.92.86-3.06a7.91,7.91,0,0,0,2,1.38c-.52,3.7-1.6,4.64-2.72,4.54a5,5,0,0,1-4-3,16.32,16.32,0,0,1-3.74,2.46,9.37,9.37,0,0,0-1.92-1.84,16.31,16.31,0,0,0,4.72-2.92,33.88,33.88,0,0,1-1.12-5.94l-2.48.26-.24-2.28,2.52-.24c-.12-1.54-.2-3.2-.26-5h2.44c0,1.66.1,3.24.2,4.74l6-.58.22,2.22-6,.6a33,33,0,0,0,.72,4.16,17.22,17.22,0,0,0,2.48-4Zm-2.24-4a26.86,26.86,0,0,0-2.56-3l1.8-1.18a34.23,34.23,0,0,1,2.68,2.88Z"/><path d="M180.2,166.5a8.2,8.2,0,0,0,2.46-4.6l2.12.64a10,10,0,0,1-2.58,5.3Zm8.2-11.78h-7.62v-2.24h7.62V150h2.4v2.48h7.82v2.24H190.8v2.5h6.62v2.26h-8.36a13.63,13.63,0,0,1,3.08,2.34l-1.72,1.56a13.55,13.55,0,0,0-3.56-2.8l1.26-1.1h-6v-2.26h6.32Zm3.26,11.52c.8,0,.94-.3,1-2.18a6.85,6.85,0,0,0,2.12.86c-.26,2.74-.92,3.42-2.94,3.42h-3.22c-2.56,0-3.2-.66-3.2-2.78v-3.84h2.36v3.82c0,.6.16.7,1.1.7Zm3.94-4.82a17.19,17.19,0,0,1,3.42,5l-2.18,1.16a17.15,17.15,0,0,0-3.22-5.2Z"/><path d="M218.18,165.94c0,1.24-.26,1.92-1,2.3a8.13,8.13,0,0,1-3.54.46,8.09,8.09,0,0,0-.82-2.36c1.06.06,2.22.06,2.56,0s.48-.14.48-.46V153.2h-12.3v15.48h-2.32V150.94h17Zm-3.52-9.34h-10v-2h10Zm-6.84,8.22v1.32h-2.2v-8h8.14v6.68Zm0-4.72v2.76h3.74V160.1Z"/><path d="M225.24,164c.82,1.34,2.32,1.88,4.4,2,2.34.1,6.84,0,9.5-.16a12.46,12.46,0,0,0-.74,2.4c-2.4.12-6.42.16-8.8.06s-4.1-.66-5.4-2.22c-.88.78-1.76,1.56-2.86,2.4L220.18,166a26.27,26.27,0,0,0,2.74-1.84v-4.22h-2.3v-2.18h4.62Zm-1.38-9a15.13,15.13,0,0,0-3.22-3.16l1.76-1.44a16,16,0,0,1,3.34,3Zm6.72.1c.08-.36.14-.72.2-1.08h-4.84v-1.92h2.78a8.37,8.37,0,0,0-.92-1.44l1.88-.7a7.09,7.09,0,0,1,1.3,2l-.24.1h2.5A16.52,16.52,0,0,0,234.3,150l2.36.5c-.36.6-.72,1.18-1.06,1.66h3.08v1.92h-5.34c-.16.38-.34.74-.5,1.08h4.38v9.72h-9.74v-9.72Zm4.28,1.72h-5.14v1h5.14Zm0,2.6h-5.14v1h5.14Zm0,2.62h-5.14v1.06h5.14Z"/><path d="M250.74,150a20.09,20.09,0,0,0,8.56,6.88,11.63,11.63,0,0,0-1.54,2.14,24,24,0,0,1-3.06-1.9v1.38h-10v-1.4a27.87,27.87,0,0,1-3.1,2,9.71,9.71,0,0,0-1.5-1.94,21.17,21.17,0,0,0,8.14-7.12Zm-7.32,10.48H256.1v8.2h-2.44V168h-7.9v.74h-2.34Zm10.3-4.08a21.91,21.91,0,0,1-4.1-4.06,20.44,20.44,0,0,1-4,4.06Zm-8,6.18v3.26h7.9V162.6Z"/><path d="M278.52,153.08s0,.8,0,1.08c-.26,8.94-.48,12.12-1.3,13.18a2.67,2.67,0,0,1-1.92,1.1,22.42,22.42,0,0,1-3.14,0,5.6,5.6,0,0,0-.78-2.32c1.28.12,2.46.12,3,.12a1.07,1.07,0,0,0,.88-.34c.58-.64.84-3.64,1.06-10.7H272a17.25,17.25,0,0,1-1.76,3.16,14.86,14.86,0,0,0-1.54-1.12v9.34h-5.34v1.46H261.2V153.22h2.26A21.45,21.45,0,0,0,264,150l2.6.36c-.34,1-.7,2-1,2.86h3.1v3.24a20.69,20.69,0,0,0,2.7-6.44l2.26.52a23.21,23.21,0,0,1-.78,2.54Zm-12,2.22h-3.18v3.24h3.18Zm0,9.22V160.6h-3.18v3.92Zm6.64-1.08a42.8,42.8,0,0,0-2.78-4.62l1.86-1.06a48.27,48.27,0,0,1,2.94,4.44Z"/><path d="M299.12,160c-1.28,5-4.54,7.46-9,8.7a8.55,8.55,0,0,0-1.22-1.94,12.2,12.2,0,0,0,4.3-1.78,13.91,13.91,0,0,0-1.84-1.72c-.34.22-.68.44-1.06.66a6,6,0,0,0-1.42-1.58l.54-.28h-3.06v.14c1,.62,3.12,2.2,3.66,2.66l-1.38,1.94a32.69,32.69,0,0,0-2.28-2.44v4.28h-2.22v-4.2a14.8,14.8,0,0,1-3.08,3.64,13.46,13.46,0,0,0-1-2.32,14.34,14.34,0,0,0,3.38-3.7h-2.78V160h3.52v-1.22h-3v-8h8.4v3.12a9.87,9.87,0,0,0,3.36-3.9l2.18.36a9.64,9.64,0,0,1-.54,1h2.16l.4-.06,1.48.56a11.11,11.11,0,0,1-4.12,6.24l1.36.24c-.22.42-.46.82-.72,1.22h2.12l.42-.08Zm-16-6.1h1.26V152.7h-1.26Zm0,3h1.26v-1.2h-1.26Zm4.48-3V152.7h-1.38v1.22Zm0,3v-1.2h-1.38v1.2Zm2.18,5a10.54,10.54,0,0,0,3.18-2.8,19.17,19.17,0,0,1-2.26,1,9,9,0,0,0-1.1-1.5v.2h-3.18V160h3.36Zm-.18-3.52a10.77,10.77,0,0,0,3.62-1.88,14.27,14.27,0,0,0-1.68-1.5,14.94,14.94,0,0,1-1.22.92,6.25,6.25,0,0,0-.72-.84Zm3.72-5.16-.38.44a17,17,0,0,1,1.74,1.38,8.9,8.9,0,0,0,1.12-1.82Zm.28,8.26L293,162a17.58,17.58,0,0,1,1.84,1.56,8.3,8.3,0,0,0,1.38-2.1Z"/><path d="M307,150.76a32.44,32.44,0,0,1-1.86,3.86v14h-2.26V158.06a19.48,19.48,0,0,1-1.66,1.88,15.41,15.41,0,0,0-1.24-2.42A21.28,21.28,0,0,0,304.8,150Zm12.06,12.62h-5.34v5.3h-2.4v-5.3h-5.26v-2.2h5.26v-2.7h-4.46v-2.2h4.46v-6h2.4v6h4.54v2.2h-4.54v2.7h5.34ZM308.32,156a18.49,18.49,0,0,0-1.54-4.26l2-.74a17.32,17.32,0,0,1,1.68,4.14Zm10.32-4.32c-.72,1.52-1.52,3.14-2.14,4.24l-1.94-.78a26.27,26.27,0,0,0,1.66-4.3Z"/><path d="M326.78,165.22a3.23,3.23,0,1,1-3.24-3.24A3.24,3.24,0,0,1,326.78,165.22Zm-1.44,0a1.79,1.79,0,1,0-1.8,1.78A1.79,1.79,0,0,0,325.34,165.22Z"/><path d="M3.4,255.3a13.74,13.74,0,0,1-1.18,1,22,22,0,0,0-1.94-1.56A12.3,12.3,0,0,0,4.42,250l2.32.68a10.77,10.77,0,0,1-.78,1.4H18v2.1H16.08v2.56h2.6v2.12h-2.6v2.54H18.4v2.12H1V261.4H3.4v-2.54H.72v-2.12H3.4ZM.52,267.78a9.86,9.86,0,0,0,2.24-3.84l2.3.56a10.94,10.94,0,0,1-2.28,4.2Zm5-11H6.94v-2.56H5.5Zm0,4.66H6.94v-2.54H5.5Zm3.06,3A25.9,25.9,0,0,1,9,268.12l-2.32.34a25.39,25.39,0,0,0-.38-3.82Zm1.84-7.64v-2.56H8.92v2.56Zm-1.48,2.12v2.54H10.4v-2.54Zm3.62,5.44A22.29,22.29,0,0,1,13.7,268l-2.38.46a21.31,21.31,0,0,0-1-3.8Zm1.36-10.12H12.38v2.56H13.9Zm0,4.68H12.38v2.54H13.9Zm2.64,5a27.13,27.13,0,0,1,2.52,4l-2.44.82a25.76,25.76,0,0,0-2.36-4.1Z"/><path d="M29.5,256a13.6,13.6,0,0,1-1.68,1.2,11.2,11.2,0,0,0-1.14-1.94l.14-.08H20.34V253.3h7.08v1.5A15.23,15.23,0,0,0,31.78,250h2.14a15.35,15.35,0,0,0,5.38,5A12,12,0,0,0,38,257.08a13,13,0,0,1-1.58-1.14v1.34h-7Zm-2.7,11.6H23.1v.8H21.16v-6.82H26.8Zm0-9.7H21.22v-1.82h5.54Zm-5.54.92h5.54v1.78H21.22Zm5.5-6.4H21.34v-1.8h5.38Zm-3.62,11v2.3h1.76v-2.3Zm15,3.16c0,.84-.12,1.34-.62,1.66a3.52,3.52,0,0,1-1.9.34,6.83,6.83,0,0,0-.56-1.82c.36,0,.7,0,.84,0s.2-.06.2-.22v-2.16H35v4H33.48v-4h-1v4H30.92v-4H30v4.14H28V258.48H38.14Zm-7.22-4v-2.2H30v2.2Zm4.84-7.22a19.44,19.44,0,0,1-2.84-3.2,15.8,15.8,0,0,1-2.68,3.2Zm-2.28,7.22v-2.2h-1v2.2Zm2.62,0v-2.2H35v2.2Z"/><path d="M51.1,266.1c.52,0,1.06.06,1.6.06,1.12,0,5,0,6.38-.06a8.09,8.09,0,0,0-.8,2.28h-5.7c-3.66,0-6.14-.52-7.82-2.84a9,9,0,0,1-2.8,3.18,9.59,9.59,0,0,0-1.8-1.66A8.45,8.45,0,0,0,43.88,261l2.38.36c-.14.64-.3,1.24-.46,1.82a4.4,4.4,0,0,0,2.88,2.5V260.6h-7.8v-2.1H58.52v2.1H51.1v1.5h6.16v2.06H51.1Zm5.52-8.48H42.72v-6.94h13.9Zm-2.42-5.28H45v1H54.2Zm0,2.58H45v1H54.2Z"/><path d="M74.88,253.68c-.32.58-.62,1.12-.88,1.56h4v10.84c0,1.18-.24,1.82-1,2.2a8.91,8.91,0,0,1-3.46.4,9.61,9.61,0,0,0-.68-2H67.94v1.1h-2.1v-6.28h7.84v5c.7,0,1.32,0,1.56,0s.44-.1.44-.4v-6.14a1.54,1.54,0,0,1-1.6.8H72.46c-1.78,0-2.14-.54-2.14-2.16v-1.28H68.7c-.18,2.22-.92,3.5-4,4.2a4.82,4.82,0,0,0-.86-1.4v8.56H61.62v-13.4h3.56a13.33,13.33,0,0,0-.62-1.56H60.94v-2.16h7.44V250H70.8v1.5h7.64v2.16Zm-11,6.12c2.14-.42,2.6-1.14,2.74-2.52H63.88Zm7.5-4.56c.24-.48.52-1,.74-1.56h-5a9.55,9.55,0,0,1,.64,1.56Zm.16,8h-3.6v1.68h3.6Zm4.14-6H72.36v1.26c0,.42.06.48.4.48h1c.34,0,.42-.14.48-1.1a5.82,5.82,0,0,0,1.4.56Z"/><path d="M92.8,264.12a17.87,17.87,0,0,0,6.34,2.18,11.19,11.19,0,0,0-1.6,2.16,17.07,17.07,0,0,1-6.72-3.38v3.6H88.48V265.2a19,19,0,0,1-6.7,3.24,11.09,11.09,0,0,0-1.52-2,21,21,0,0,0,6.32-2.34H80.84v-2h7.64v-.88H82.72v-1.72h5.76v-.9H81.72V256.8h3.8a9,9,0,0,0-.68-1.56l.24,0H80.9v-1.94h2.68a17.93,17.93,0,0,0-1.24-2.48l2-.7a15.13,15.13,0,0,1,1.52,2.82l-1,.36h1.82V250H89v3.26h1.48V250h2.24v3.26h1.78l-.72-.22a16.11,16.11,0,0,0,1.26-2.9l2.5.6c-.56.92-1.1,1.82-1.56,2.52h2.6v1.94H94.78c-.32.58-.64,1.12-.94,1.6h3.92v1.86H90.82v.9h6v1.72h-6v.88H98.6v2Zm-5.44-8.92a9.85,9.85,0,0,1,.68,1.54l-.34.06h3.74c.24-.48.48-1.06.7-1.6Z"/><path d="M110.74,250a20.09,20.09,0,0,0,8.56,6.88,11.63,11.63,0,0,0-1.54,2.14,24,24,0,0,1-3.06-1.9v1.38h-10v-1.4a27.87,27.87,0,0,1-3.1,2,9.71,9.71,0,0,0-1.5-1.94,21.17,21.17,0,0,0,8.14-7.12Zm-7.32,10.48H116.1v8.2h-2.44V268h-7.9v.74h-2.34Zm10.3-4.08a21.91,21.91,0,0,1-4.1-4.06,20.44,20.44,0,0,1-4,4.06Zm-8,6.18v3.26h7.9V262.6Z"/><path d="M127,250.8a31.15,31.15,0,0,1-1.92,4.16v13.7h-2.4v-10c-.42.5-.84,1-1.24,1.44a16.25,16.25,0,0,0-1.32-2.54,20.81,20.81,0,0,0,4.56-7.48Zm6.34,4.72v2.1h5.18v2.16h-5.18V262h5.44v2.2h-5.44v4.44h-2.44V255.52h-.76a22.21,22.21,0,0,1-2.62,3.88,16.18,16.18,0,0,0-1.82-1.66A19.85,19.85,0,0,0,130,250.2l2.3.58a23.64,23.64,0,0,1-1,2.48h7.76v2.26Z"/><path d="M144.78,268.32a37.54,37.54,0,0,0-4.3-4.42l2.08-1.8a37.49,37.49,0,0,1,4.36,4.38Z"/><path d="M162.16,266.6a14.28,14.28,0,0,0-1.12-1.42,10.3,10.3,0,0,1-3.22,3.46,8.48,8.48,0,0,0-1.38-1.86,7.73,7.73,0,0,0,3-3.3c-.3-.3-.62-.58-.92-.86l-.16.64L156.48,262c.4-1.56.82-3.68,1.24-5.88h-1.38V254h1.76c.24-1.38.44-2.74.62-4l2.22.2c-.2,1.18-.42,2.46-.66,3.76h1.48l.38,0,1.36.14A31.06,31.06,0,0,1,162,263a15.55,15.55,0,0,1,1.54,1.78Zm-2.3-10.46c-.28,1.44-.58,2.86-.86,4.18l1.24,1.06a24.65,24.65,0,0,0,1-5.24Zm11.42,6.9a13.33,13.33,0,0,0,4,3.26,10.41,10.41,0,0,0-1.64,1.86,15.79,15.79,0,0,1-3.44-3.48v4h-2.32V264.8a12.58,12.58,0,0,1-3.88,3.5,13.89,13.89,0,0,0-1.58-1.86,11.3,11.3,0,0,0,4.3-3.4H163.3v-2h4.54v-1.22h-2.76V254h-1.86v-2h1.86v-2h2.16v2h3.56v-2h2.26v2h1.74v2h-1.74v5.78h-2.9V261h4.72v2Zm-4-9v1.06h3.56V254Zm0,3.88h3.56v-1.08h-3.56Z"/><path d="M184,259.42v7.26c0,.86-.12,1.36-.66,1.66a4.11,4.11,0,0,1-2.14.34,8.11,8.11,0,0,0-.54-1.8c.46,0,.92,0,1.1,0s.22-.08.22-.24v-1.38h-2.14v3.4h-2v-9.26H176.7V256.3h1.14v-5.68h6.28v5.68h1.2v2.26h9.52v1.58H185.3v-.72Zm-.5-1.5H178.4v.8h5.14Zm-4-1.62h.7v-3.18h2.1v-.82h-2.8Zm2.48,4h-2.14v.88H182Zm0,3.36v-.92h-2.14v.92Zm.32-7.38v-1.84h-.84v1.84Zm12.72,10.46v1.68H184.88v-1.68h2.56a8.07,8.07,0,0,0-.74-1.64l1.22-.44H186v-3.9h8.18v3.9H192.3l1.2.28c-.36.64-.72,1.26-1,1.8Zm-.6-8.88h-8.74v-6.2h2.22V250h1.66v1.66h.86V250h1.68v1.66h2.32Zm-7-3.84h.86v-.86h-.86Zm0,2.32h.86v-.88h-.86Zm.46,6.92h4.26v-1.1h-4.26Zm.5,1.4a7.71,7.71,0,0,1,.9,2.08h1.36a16.49,16.49,0,0,0,.8-2.08Zm2-10.64v-.86h-.86V254Zm-.86,1.44v.88h.86v-.88Zm3-2.3h-.88V254h.88Zm0,2.3h-.88v.88h.88Z"/><path d="M206.74,250a20.09,20.09,0,0,0,8.56,6.88,11.63,11.63,0,0,0-1.54,2.14,24,24,0,0,1-3.06-1.9v1.38h-10v-1.4a27.87,27.87,0,0,1-3.1,2,9.71,9.71,0,0,0-1.5-1.94,21.17,21.17,0,0,0,8.14-7.12Zm-7.32,10.48H212.1v8.2h-2.44V268h-7.9v.74h-2.34Zm10.3-4.08a21.91,21.91,0,0,1-4.1-4.06,20.44,20.44,0,0,1-4,4.06Zm-8,6.18v3.26h7.9V262.6Z"/><path d="M223,250.8a31.15,31.15,0,0,1-1.92,4.16v13.7h-2.4v-10c-.42.5-.84,1-1.24,1.44a16.25,16.25,0,0,0-1.32-2.54,20.81,20.81,0,0,0,4.56-7.48Zm6.34,4.72v2.1h5.18v2.16h-5.18V262h5.44v2.2h-5.44v4.44h-2.44V255.52h-.76a22.21,22.21,0,0,1-2.62,3.88,16.18,16.18,0,0,0-1.82-1.66A19.85,19.85,0,0,0,226,250.2l2.3.58a23.64,23.64,0,0,1-1,2.48h7.76v2.26Z"/><path d="M238.92,268.08c1.56-.5,2.46-1.36,2.58-2.42a.75.75,0,0,1-.22,0,1.77,1.77,0,0,1-1.9-1.78,1.82,1.82,0,0,1,2-1.8c1.42,0,2.16,1.06,2.16,2.74a5,5,0,0,1-3.94,4.86Z"/><path d="M269.6,256.8a25.4,25.4,0,0,1-3.4,7.1c.52,1.46,1.1,2.3,1.64,2.3s.64-1,.76-3.54a6.31,6.31,0,0,0,2,1.4c-.36,3.74-1.16,4.64-3,4.64-1.28,0-2.3-1-3.14-2.6a19,19,0,0,1-3.14,2.72,16.05,16.05,0,0,0-1.86-1.82,16.12,16.12,0,0,0,1.8-1.26c-3,.66-6.12,1.34-8.5,1.84l-.44-2.44c2.24-.38,5.7-1,8.9-1.7l.22,2.16a16.23,16.23,0,0,0,2-2,44.25,44.25,0,0,1-1.4-8.28H252.4v-2.36h9.54c0-1-.08-1.92-.08-2.88h2.54c0,1,0,1.92,0,2.88h3.2a14.5,14.5,0,0,0-2.38-1.5l1.42-1.48a13,13,0,0,1,3,1.9l-1,1.08h1.48v2.36h-5.62a44.56,44.56,0,0,0,.78,5.48,23.55,23.55,0,0,0,1.88-4.52Zm-8.8-.26v6.3h-7.44v-6.3Zm-2.3,2h-3v2.3h3Z"/><path d="M278.32,250.78a30.31,30.31,0,0,1-1.9,4.1v13.76h-2.28V258.42A19.26,19.26,0,0,1,272.8,260a15.38,15.38,0,0,0-1.28-2.48,21.05,21.05,0,0,0,4.54-7.48Zm7.08,5V266c0,1.14-.2,1.8-.92,2.2a6.3,6.3,0,0,1-2.94.48,8.13,8.13,0,0,0-.82-2.4c.84,0,1.68,0,2,0s.36-.08.36-.34v-10.2h-2.32a17,17,0,0,1-1.88,3.06,16.71,16.71,0,0,0-1.92-1.56,17.73,17.73,0,0,0,3.4-7.2l2.32.52a30.32,30.32,0,0,1-.94,3h6.88l.38-.08,1.68.32c-.24,1.62-.58,3.48-.86,4.64l-2-.34c.1-.62.22-1.46.32-2.34Zm-3.32,3.6a20.54,20.54,0,0,1-2.72,6.68,14.72,14.72,0,0,0-2-1.28,14.46,14.46,0,0,0,2.44-5.88Zm6.16-.68a24.73,24.73,0,0,1,2.18,6.52l-2.28.78a25.31,25.31,0,0,0-2-6.58Z"/><path d="M310.18,252.76V255h-10.7a23,23,0,0,1-2.34,3.94v9.68h-2.42v-7a15,15,0,0,1-1.76,1.4,16.63,16.63,0,0,0-1.18-2.3,15.16,15.16,0,0,0,5-5.76h-4.34v-2.28h5.4c.34-.94.64-1.86.88-2.78l2.5.6c-.22.74-.48,1.46-.76,2.18ZM305.38,266h4.74v2.2h-12V266H303v-4.56h-4.06v-2.2H303V255.9h2.4v3.32h4v2.2h-4Z"/><path d="M319.26,260.6l-2.34.64V266c0,1.16-.22,1.74-.9,2.08a6.35,6.35,0,0,1-3,.44,8,8,0,0,0-.68-2.16c.8,0,1.62,0,1.88,0s.38-.1.38-.38v-4.14l-2.12.52-.62-2.26c.78-.16,1.74-.38,2.74-.62V256H312.1v-2.2h2.48V250h2.34v3.78h2.14V256h-2.14v2.92l2.06-.5Zm10.28-2.18a20.09,20.09,0,0,1-3.6,5.34c.54,1.12,1.2,1.78,2,1.9.46,0,.72-.92.86-3.06a7.91,7.91,0,0,0,2,1.38c-.52,3.7-1.6,4.64-2.72,4.54a5,5,0,0,1-4-3,16.32,16.32,0,0,1-3.74,2.46,9.37,9.37,0,0,0-1.92-1.84,16.31,16.31,0,0,0,4.72-2.92,33.88,33.88,0,0,1-1.12-5.94l-2.48.26-.24-2.28,2.52-.24c-.12-1.54-.2-3.2-.26-5H324c0,1.66.1,3.24.2,4.74l6-.58.22,2.22-6,.6a33,33,0,0,0,.72,4.16,17.22,17.22,0,0,0,2.48-4Zm-2.24-4a26.86,26.86,0,0,0-2.56-3l1.8-1.18a34.23,34.23,0,0,1,2.68,2.88Z"/><path d="M350.42,264.9v2.4H332.24v-2.4h7.62V254.56h-6.54v-2.48h16v2.48h-6.72V264.9Z"/><path d="M358.64,250.8a31.15,31.15,0,0,1-1.92,4.16v13.7h-2.4v-10c-.42.5-.84,1-1.24,1.44a16.25,16.25,0,0,0-1.32-2.54,20.81,20.81,0,0,0,4.56-7.48Zm6.34,4.72v2.1h5.18v2.16H365V262h5.44v2.2H365v4.44h-2.44V255.52h-.76a22.21,22.21,0,0,1-2.62,3.88,16.18,16.18,0,0,0-1.82-1.66,19.85,19.85,0,0,0,4.24-7.54l2.3.58a23.64,23.64,0,0,1-1,2.48h7.76v2.26Z"/><path d="M374.52,268.08c1.56-.5,2.46-1.36,2.58-2.42a.75.75,0,0,1-.22,0,1.77,1.77,0,0,1-1.9-1.78,1.82,1.82,0,0,1,2-1.8c1.42,0,2.16,1.06,2.16,2.74a5,5,0,0,1-3.94,4.86Z"/><path d="M18,306.8a25.4,25.4,0,0,1-3.4,7.1c.52,1.46,1.1,2.3,1.64,2.3s.64-1,.76-3.54a6.31,6.31,0,0,0,2,1.4c-.36,3.74-1.16,4.64-3,4.64-1.28,0-2.3-1-3.14-2.6a19,19,0,0,1-3.14,2.72A16.05,16.05,0,0,0,7.86,317a16.12,16.12,0,0,0,1.8-1.26c-3,.66-6.12,1.34-8.5,1.84l-.44-2.44c2.24-.38,5.7-1,8.9-1.7l.22,2.16a16.23,16.23,0,0,0,2-2,44.25,44.25,0,0,1-1.4-8.28H.8v-2.36h9.54c0-1-.08-1.92-.08-2.88H12.8c0,1,0,1.92,0,2.88H16a14.5,14.5,0,0,0-2.38-1.5l1.42-1.48a13,13,0,0,1,3,1.9l-1,1.08H18.6v2.36H13a44.56,44.56,0,0,0,.78,5.48,23.55,23.55,0,0,0,1.88-4.52Zm-8.8-.26v6.3H1.76v-6.3Zm-2.3,2h-3v2.3h3Z"/><path d="M28.18,302.14h3l1.18,7.22c.22,1.56.46,3.14.68,4.72h.08c.3-1.58.62-3.18.94-4.72l1.72-7.22h2.52L40,309.36c.32,1.52.62,3.12.94,4.72h.1c.22-1.6.44-3.18.66-4.72l1.16-7.22h2.82L43,316.94H39.3l-1.66-7.32c-.24-1.16-.46-2.3-.64-3.42h-.08c-.2,1.12-.4,2.26-.64,3.42l-1.62,7.32H31Z"/><path d="M47.7,301h2.92v4l-.12,2.1A5.1,5.1,0,0,1,54,305.46c2.42,0,3.46,1.68,3.46,4.5v7H54.54v-6.62c0-1.72-.48-2.34-1.58-2.34a3.22,3.22,0,0,0-2.34,1.26v7.7H47.7Z"/><path d="M59.94,313.9c0-2.4,1.94-3.66,6.44-4.14,0-1.1-.52-1.94-1.9-1.94a6.33,6.33,0,0,0-3.08,1.06l-1.06-1.94A9,9,0,0,1,65,305.46c2.84,0,4.3,1.7,4.3,4.94v6.54h-2.4l-.22-1.2h-.06a5.27,5.27,0,0,1-3.38,1.48A3.18,3.18,0,0,1,59.94,313.9Zm6.44-.08v-2.26c-2.72.36-3.64,1.1-3.64,2.1s.62,1.26,1.48,1.26A3,3,0,0,0,66.38,313.82Z"/><path d="M72.36,313v-5H70.78v-2.18l1.72-.14.34-3H75.3v3h2.76v2.32H75.3v5c0,1.28.52,1.88,1.52,1.88a3.27,3.27,0,0,0,1.1-.24l.48,2.14a7.24,7.24,0,0,1-2.36.42C73.38,317.22,72.36,315.54,72.36,313Z"/><path d="M79.26,311.36c0-3.64,2.54-5.9,5.22-5.9,3.08,0,4.68,2.26,4.68,5.36a5.46,5.46,0,0,1-.14,1.34h-6.9a2.94,2.94,0,0,0,3.1,2.8,4.62,4.62,0,0,0,2.52-.78l1,1.8a7.07,7.07,0,0,1-3.92,1.24C81.7,317.22,79.26,315,79.26,311.36Zm7.38-1.14c0-1.52-.68-2.48-2.12-2.48a2.53,2.53,0,0,0-2.44,2.48Z"/><path d="M90.2,305.74h3l1.64,5.58c.28,1.1.6,2.26.9,3.4h.1c.28-1.14.6-2.3.9-3.4l1.64-5.58h2.82l-3.74,11.2H94Z"/><path d="M102.16,311.36c0-3.64,2.54-5.9,5.22-5.9,3.08,0,4.68,2.26,4.68,5.36a5.46,5.46,0,0,1-.14,1.34H105a2.94,2.94,0,0,0,3.1,2.8,4.62,4.62,0,0,0,2.52-.78l1,1.8a7.07,7.07,0,0,1-3.92,1.24C104.6,317.22,102.16,315,102.16,311.36Zm7.38-1.14c0-1.52-.68-2.48-2.12-2.48a2.53,2.53,0,0,0-2.44,2.48Z"/><path d="M114.48,305.74h2.4l.2,2h.08a3.88,3.88,0,0,1,3.18-2.26,3.17,3.17,0,0,1,1.32.24l-.52,2.54a3.53,3.53,0,0,0-1.16-.18c-.88,0-1.94.58-2.58,2.2v6.68h-2.92Z"/><path d="M124.86,318.08c1.56-.5,2.46-1.36,2.58-2.42a.75.75,0,0,1-.22,0,1.77,1.77,0,0,1-1.9-1.78,1.82,1.82,0,0,1,2-1.8c1.42,0,2.16,1.06,2.16,2.74a5,5,0,0,1-3.94,4.86Z"/><path d="M156.28,302.1c-.72,1.92-1.6,4.18-2.42,5.94a6.41,6.41,0,0,1,2,4.64c0,1.5-.32,2.48-1.12,3a3,3,0,0,1-1.4.54,9.88,9.88,0,0,1-1.74,0,5.78,5.78,0,0,0-.6-2.3,9.39,9.39,0,0,0,1.26,0,1.63,1.63,0,0,0,.8-.18c.38-.22.52-.7.52-1.36a5.75,5.75,0,0,0-2.06-4.1c.58-1.44,1.26-3.46,1.76-5h-2.54v15.32h-2.34V301.54a24.24,24.24,0,0,1-2.14,4.26h1.48v2.08h-3c-.42.52-.84,1-1.28,1.46h3.6v9h-2.26v-.76h-3.22v1h-2.16v-6.06c-.34.22-.68.42-1,.6a12.22,12.22,0,0,0-1.38-2,18.52,18.52,0,0,0,4.78-3.3h-4.26V305.8h3.48v-1.64h-2.62v-2h2.62v-1.94h2.2v1.94h2.06v1a18.93,18.93,0,0,0,1-2.24l2.1.58v-.38h5.76l.36-.08Zm-11.42,9.12h-3.22v1.28h3.22Zm0,4.48v-1.42h-3.22v1.42Zm-1.16-9.9c.38-.52.74-1.06,1.1-1.64h-1.5v1.64Z"/><path d="M172.64,307.88c0,1.9.62,6.3,3.62,8.74a18.51,18.51,0,0,0-1.42,2c-2.14-1.7-3.1-5.06-3.32-6.76a11,11,0,0,1-3.74,6.76c-.12-.22-.32-.54-.52-.86v0H161v.78h-2v-4.7c-.2.26-.42.52-.64.76a13.86,13.86,0,0,0-1.18-1.88,11.75,11.75,0,0,0,2.48-4.62h-1.58v-4h4.22v4h-1.84l1.2.32a10.69,10.69,0,0,1-.36,1h1.52a11.8,11.8,0,0,0,.44-1.36h-.36v-4h4.34v2.88a22.57,22.57,0,0,0,1.7-7.08l2.34.3c-.14,1.14-.32,2.24-.56,3.32h3.48l.34-.14,1.58.56a32.82,32.82,0,0,1-1.06,5.66l-1.68-1c.16-.8.28-1.88.38-3h-1.1Zm-13-5h-2v-1.72h2V300h2.06v1.16h1.88V300h2.1v1.16h2.12v1.72h-2.12v1h-2.1v-1h-1.88v1h-2.06Zm0,3.86h1V305.6h-1Zm3,5.12v-.78H161v.78ZM161,314h1.64v-.76H161Zm0,2.16h1.64v-.76H161Zm6.08,0c2.8-2.52,3.32-6.5,3.3-8.32v-2.12h-.2a14.79,14.79,0,0,1-1.62,3.84,12.6,12.6,0,0,0-1.88-1.44h-2.92l1.62.34-.58,1h2.54v1.58H164.6v.78h2.18v1.4H164.6V314h2.18v1.4H164.6v.76Zm-2.62-9.44h1.14V305.6h-1.14Z"/><path d="M181.88,314.16c.78,1.36,2.24,1.94,4.3,2a97.25,97.25,0,0,0,10.16-.18,9.92,9.92,0,0,0-.7,2.22c-2.54.14-7,.18-9.46.06s-4-.68-5.24-2.24c-.76.8-1.54,1.58-2.5,2.44l-1.12-2.26a29.82,29.82,0,0,0,2.36-1.86v-4.42h-2.06v-2.18h4.26Zm-1.74-9.1a13.77,13.77,0,0,0-2.66-3.44l1.88-1.2a14.73,14.73,0,0,1,2.8,3.3Zm2.24,6.58,1.16-.26v-10l1.14.3a14.21,14.21,0,0,0,2.66-1.7l1.58,1.72v-.5h6.48v10.16c0,1-.16,1.52-.8,1.86a5.57,5.57,0,0,1-2.62.38,7.08,7.08,0,0,0-.64-2c.66,0,1.34,0,1.56,0s.32-.08.32-.32v-8.1h-2.14V315.6h-2.16V301.82a27.38,27.38,0,0,1-3.2,1.5v7.54l2.5-.64.26,2c-1.86.52-3.88,1.06-5.48,1.48Z"/><path d="M216,314.26H210.6c2,.94,4.12,2,5.4,2.82l-2.34,1.62a52,52,0,0,0-5.5-3.14l1.46-1.3h-6l1.76,1.28a36,36,0,0,1-5.8,3.14,18.47,18.47,0,0,0-1.84-1.64,25,25,0,0,0,5.24-2.78h-5.32V312h1.86l-.32-10.72,1.34.36a19.49,19.49,0,0,0,2.36-1.5l1.52,1.46v-1.4h2V302h3.06v2h-3.06v1.34h3V312h2.48c0-.5.06-1.06.1-1.62h-1.9v-2h2c0-.56,0-1.12.06-1.7h-2v-2h2.06c0-.54,0-1.06,0-1.58h-2.32v-2.06h4.52c0,3.5-.1,7.88-.28,10.88H216ZM201.66,312h2.72v-4.18h1.88V312h1.14v-4.86h-3V302c-1,.46-2,.94-3,1.32l0,1.44h2.26v2h-2.2l0,1.68h2.16v2h-2.1Z"/><path d="M235.18,309.48a19.76,19.76,0,0,1-3.32,4.38c.54,1.54,1.16,2.46,1.76,2.46.42,0,.66-1,.76-3.32a6.08,6.08,0,0,0,2,1.36c-.38,3.5-1.12,4.38-2.94,4.38-1.46,0-2.58-1.2-3.44-3.16a20.74,20.74,0,0,1-3.7,2.44,10.43,10.43,0,0,0-1.58-1.92,20.37,20.37,0,0,0,4.46-2.82,37.07,37.07,0,0,1-1-5.36h-4.06v2.28l3.08-.56.18,2.16-3.26.66v3.42c0,1.3-.28,1.94-1.08,2.32a8.6,8.6,0,0,1-3.6.46,9.55,9.55,0,0,0-.84-2.4c1.12.06,2.28,0,2.64,0s.48-.1.48-.42V313c-1.28.26-2.52.52-3.58.72l-.58-2.4c1.14-.18,2.58-.4,4.16-.68v-2.68h-3.78v-2.26h3.78v-2.28c-1.08.18-2.18.32-3.2.44a9.08,9.08,0,0,0-.68-2,50.79,50.79,0,0,0,7.94-1.68l1.6,2c-1,.3-2.1.56-3.26.8v2.7h3.84c-.16-1.8-.22-3.66-.24-5.48h2.5a49.28,49.28,0,0,0,.2,5.48h5.44v2.26h-5.2c.16,1.2.36,2.36.58,3.38a16.63,16.63,0,0,0,1.9-2.72Zm-1.46-4.4a15.86,15.86,0,0,0-2.84-3.3l1.8-1.22a17.26,17.26,0,0,1,3,3.18Z"/><path d="M248.76,308.68h-3.44v9.94h-2.2V301.1c-.4,1.14-.86,2.32-1.38,3.46v14.1h-2.26v-10a16,16,0,0,1-1.24,1.64,16.54,16.54,0,0,0-1.14-2.56,22,22,0,0,0,4-7.72l2.2.66-.12.38h5.62Zm-3.44-5.82V304H247v-1.14Zm1.64,4V305.7h-1.64v1.18Zm8.64,9c0,1.32-.28,2-1.08,2.3a10.41,10.41,0,0,1-4,.44,8.63,8.63,0,0,0-.76-2.3c1.22.08,2.6.06,3,0s.52-.12.52-.5v-7.2h-3.66v-7.62h5.94Zm-4.06-13V304h1.78v-1.14Zm1.78,4V305.7h-1.78v1.18Z"/><path d="M264.1,302.88v15.8h-2v-3.46c-1.52.32-3.06.62-4.36.84l-.38-2.18,1.24-.18V302.88h-.9v-2.14h7.36v2.14Zm-2,0h-1.56V305h1.56ZM260.56,309h1.56v-2.12h-1.56Zm1.56,4.08V311h-1.56v2.4Zm12.7-3.12a5.51,5.51,0,0,0-.16-.88c-1.46.16-2.9.32-4.12.44l-.06-.34-1.32.46c0-.16,0-.34-.06-.52l-4.4.44-.24-1.66,1.18-.06c.38-.54.76-1.16,1.14-1.8a13.88,13.88,0,0,0-2.06-2.16l1-1.38.34.28a23.4,23.4,0,0,0,1-2.8l1.92.56c-.64,1.1-1.3,2.36-1.86,3.26l.52.58c.34-.66.64-1.28.88-1.84l1.74.6c-.86,1.48-1.94,3.22-2.92,4.58l1.3-.1c-.12-.34-.26-.68-.4-1l1.4-.42a11.87,11.87,0,0,1,.64,1.66l.82-.06c.36-.52.74-1.12,1.1-1.76a11.78,11.78,0,0,0-2.16-2.2l.94-1.46.44.36a23.28,23.28,0,0,0,1.06-2.76l2,.58c-.62,1.1-1.3,2.3-1.88,3.2a7.68,7.68,0,0,1,.56.6c.34-.68.64-1.32.88-1.9l1.82.66c-.88,1.46-1.94,3.2-2.92,4.56l1.26-.1c-.12-.32-.26-.64-.4-.94l1.42-.46a9.89,9.89,0,0,1,1.12,3.26Zm-5.08-.14v3.52c0,2.24-.42,4.2-3.24,5.38a5.67,5.67,0,0,0-1.16-1.54,3.63,3.63,0,0,0,2.28-2.24h-.9v.74H265v-5.28h1.7v2.94h1.1v-3.52Zm4,.58h1.8v5.24h-1.8V315H272.6v3.7h-1.92v-8.84h1.92v3.54h1.16Z"/><path d="M280.2,312a18.49,18.49,0,0,1-1.2,5.16,11.76,11.76,0,0,0-1.82-.86,14.54,14.54,0,0,0,1.06-4.64Zm15.1-9.56a15.54,15.54,0,0,1-3.08,4.94,17.63,17.63,0,0,0,4.3,2.14,8.25,8.25,0,0,0-1.52,1.9l0,0v7.16h-2.32v-.74h-4.36v.82h-2.2v-7l-.34.14a5.83,5.83,0,0,0-.62-1l-1.32.6c-.06-.3-.14-.64-.24-1l-1,.08v8.18h-2.06v-8l-2.9.18-.2-2.06,1.44-.06c.3-.38.62-.82.94-1.28a19.63,19.63,0,0,0-2.36-2.72l1.14-1.62.46.4a25.35,25.35,0,0,0,1.46-3.48l2.06.76c-.72,1.36-1.52,2.9-2.24,4,.26.28.48.56.68.8a36.27,36.27,0,0,0,1.78-3.24l1.94.9c-1.1,1.74-2.48,3.76-3.74,5.38l1.92-.08c-.22-.5-.46-1-.7-1.44l1.58-.66a21,21,0,0,1,1.44,3.14,15.93,15.93,0,0,0,3.74-2.1,20.58,20.58,0,0,1-1.64-1.86,15.28,15.28,0,0,1-1.66,1.54,6.88,6.88,0,0,0-1.6-1.54,13,13,0,0,0,4.36-5.62l2.32.36a15,15,0,0,1-.68,1.4h3.44l.36-.1Zm-11,9.06a22.05,22.05,0,0,1,1.24,3.6l-1.76.64a23.67,23.67,0,0,0-1.16-3.72ZM294,311a18.52,18.52,0,0,1-3.38-2.08,16.76,16.76,0,0,1-3.14,2.08Zm-1.34,4.8v-2.76h-4.36v2.76Zm-4-11.8a12,12,0,0,0,1.88,2.08,12.77,12.77,0,0,0,1.72-2.3h-3.46Z"/><path d="M302.74,315.16a2.08,2.08,0,0,1,4.16,0,2.08,2.08,0,0,1-4.16,0Zm.34-10.2-.08-3h3.66l-.1,3-.7,6.84H303.8Z"/></g></g></svg>