<svg viewBox="0 0 505.73 945.63" xmlns="http://www.w3.org/2000/svg"><path d="m3.92 337.33a23.76 23.76 0 0 1 -1.56 6.67 14.29 14.29 0 0 0 -2.36-1.08 19.05 19.05 0 0 0 1.38-6zm3.2-2v10.67h-2.73v-10.49l-3.84.26-.26-2.7 1.92-.07c.39-.49.8-1 1.19-1.61a24.69 24.69 0 0 0 -3.11-3.56l1.45-2.13.62.55a33.92 33.92 0 0 0 1.9-4.52l2.73 1c-.94 1.79-2 3.79-2.94 5.25a13.82 13.82 0 0 1 .95 1.02 39.57 39.57 0 0 0 2.39-4.26l2.61 1.11c-1.46 2.28-3.28 4.94-5 7l2.62-.1c-.29-.63-.6-1.25-.91-1.8l2.18-1a21.09 21.09 0 0 1 2.39 5.48l-2.28 1.18a11.27 11.27 0 0 0 -.36-1.41zm2.34 1.43a29.64 29.64 0 0 1 1.69 4.88l-2.44.86a26.67 26.67 0 0 0 -1.54-5zm15.28 5.74v2.78h-15.2v-2.78h2.39v-19.5h11.07v19.49zm-9.82-16.71v3.61h5v-3.61zm5 6.37h-5v3.71h5zm-5 10.34h5v-3.85h-5z"/><path d="m30 337.26a27.57 27.57 0 0 1 -1.27 6.65 15.08 15.08 0 0 0 -2.11-1 20.06 20.06 0 0 0 1-6zm21-3.26a24.65 24.65 0 0 1 -3.12 6.6c.28 1.3.65 2.06 1.06 2.08s.6-1.17.73-3.17a10.15 10.15 0 0 0 1.9 1.67c-.63 4-1.77 4.93-2.73 4.91-1.3-.06-2.24-1.12-2.91-3.1a18.83 18.83 0 0 1 -3.61 3 9.58 9.58 0 0 0 -1.85-2 14.12 14.12 0 0 0 1.48-1h-3.49v1.35h-2.34v-10.77h7.35v8.18a21.59 21.59 0 0 0 1.67-1.75 65.08 65.08 0 0 1 -.76-7.56h-9.38a15.71 15.71 0 0 1 1 3.22l-2.19.91a10.24 10.24 0 0 0 -.28-1.38l-.86.08v2.08l2-.6a29.94 29.94 0 0 1 1.27 4.7l-2.13.76a32.25 32.25 0 0 0 -1.09-4.58v8.37h-2.63v-10.5c-1.12.11-2.21.18-3.17.26l-.26-2.7 1.69-.08c.39-.57.78-1.22 1.19-1.9a24 24 0 0 0 -2.72-3.42l1.27-2.19c.18.16.34.34.52.52a31.49 31.49 0 0 0 1.39-4.27l2.6.83c-.78 1.74-1.67 3.74-2.42 5.2a9.3 9.3 0 0 1 .7.88c.7-1.33 1.35-2.65 1.82-3.8l2.39 1v-1.68h2.94v-2.5h2.8v2.5h2.94v2.31h-1.44l1 .21c-.41 1.14-.86 2.39-1.22 3.27h2.21c-.08-2.5-.13-5.2-.16-8.13h2.65v2.34l2.06-.86a27 27 0 0 1 2.33 4.83l-2.36 1a24.05 24.05 0 0 0 -2-4.63c0 1.9 0 3.72.08 5.41h4.08v2.42h-4c.08 1.56.16 3 .29 4.23a18.1 18.1 0 0 0 1.27-3.25zm-18.3-1.3c-.23-.54-.47-1.09-.7-1.61-.36.6-.75 1.17-1.12 1.72zm1.25-2.62c.26.49.52 1 .75 1.58v-1.66h2a12.78 12.78 0 0 0 -.65-3.17l1.38-.31h-2.3v-.57c-.88 1.5-1.9 3.22-2.94 4.83zm6-.39a26.51 26.51 0 0 0 .85-3.22h-2.65a10.64 10.64 0 0 1 .72 3.25l-.93.23h3zm-1.43 6v1.56h2.48v-1.55zm2.48 5.31v-1.62h-2.54v1.62z"/><path d="m60.75 323.87a20.16 20.16 0 0 0 -.62 2.29 62.88 62.88 0 0 0 -1.25 9.43 14 14 0 0 0 .1 1.67c.37-.91.78-1.77 1.15-2.6l1.61 1.24a61.74 61.74 0 0 0 -1.85 6.32 8.39 8.39 0 0 0 -.15 1.19v1.07l-3 .21a32.85 32.85 0 0 1 -1-8.42 70.81 70.81 0 0 1 1.07-10.19 19.88 19.88 0 0 0 .26-2.52zm6 12.71a8.39 8.39 0 0 0 -.31 2.16c0 1.14 1 1.82 3.58 1.82a29.56 29.56 0 0 0 6.45-.68l.08 3.48a36.08 36.08 0 0 1 -6.66.52c-4.44 0-6.54-1.61-6.54-4.23a15.91 15.91 0 0 1 .44-3.36zm9-11v3.33a72.65 72.65 0 0 1 -11 0v-3.33a52.48 52.48 0 0 0 11.02-.02z"/><path d="m85.9 335.77a11 11 0 0 0 -.44 2.6c0 1.64 1.56 2.84 5.28 2.84a36.16 36.16 0 0 0 9-1v3.61a39.05 39.05 0 0 1 -8.94.89c-5.9 0-8.86-2-8.86-5.51a16.43 16.43 0 0 1 .52-3.72zm-2.18-10.91a67 67 0 0 0 7 .31c2.54 0 5.48-.15 7.46-.36v3.45c-1.8.13-5 .32-7.44.32-2.7 0-4.93-.13-7-.29z"/><path d="m118.57 329.12a45.83 45.83 0 0 1 -5 .86c-.24 1.09-.5 2.23-.78 3.3a85.15 85.15 0 0 1 -4.08 11.9l-3.6-1.18a57.52 57.52 0 0 0 4.44-11.59c.18-.71.39-1.43.55-2.16-.6 0-1.17.05-1.69.05-1.25 0-2.21-.05-3.12-.1l-.08-3.2a24.23 24.23 0 0 0 3.25.18c.75 0 1.51 0 2.29-.07.1-.55.18-1.07.23-1.46a12.86 12.86 0 0 0 .1-2.62l3.93.31c-.18.73-.42 1.87-.55 2.44l-.21 1c1.46-.21 2.91-.49 4.32-.83zm-.52 8.45a9 9 0 0 0 -.37 2.15c0 1.12.65 2 3.41 2a32.58 32.58 0 0 0 5.35-.52l-.13 3.3a41.59 41.59 0 0 1 -5.25.36c-4.34 0-6.55-1.5-6.55-4.1a17 17 0 0 1 .45-3.43zm-1.51-6.45c1.43-.15 3.27-.26 4.94-.26 1.45 0 3 .06 4.52.21l-.08 3.12a36 36 0 0 0 -4.42-.34 43.27 43.27 0 0 0 -5 .29zm6.76-2.65a29.94 29.94 0 0 0 -2-3.61l2-.86a36.21 36.21 0 0 1 2.06 3.56zm3.09-5.64a30.89 30.89 0 0 1 2.1 3.54l-2.05.88a27.26 27.26 0 0 0 -2.1-3.58z"/><path d="m140.63 327.72c-.34.44-.89 1.27-1.33 1.95 0 .26 0 .49-.05.75a12.54 12.54 0 0 1 7.56-2.67 6.8 6.8 0 0 1 7.1 6.93c0 5.2-3.25 8.32-9.64 9.59l-1.54-3.12c4.52-.7 7.75-2.52 7.75-6.55a3.91 3.91 0 0 0 -4.19-3.81 10.73 10.73 0 0 0 -7.3 3.3c0 .72-.05 1.45-.05 2.13 0 2.1 0 4.26.15 6.67 0 .47.13 1.41.19 2h-3.54c0-.55.08-1.48.08-1.9.05-2 .05-3.48.1-5.66-1.09 1.63-2.36 3.51-3.24 4.75l-2-2.86c1.45-1.76 4-5.19 5.51-7.35l.1-1.79-4.68.6-.31-3.31a21.27 21.27 0 0 0 2.24 0c.75-.05 1.87-.18 3-.34.05-1 .1-1.69.1-2a13.73 13.73 0 0 0 -.1-2.29l3.77.1c-.16.73-.37 2.06-.57 3.67z"/><path d="m162.85 334a12.58 12.58 0 0 1 7.56-2.44c4.52 0 7.14 2.78 7.14 5.9 0 4.7-3.71 8.32-14.42 7.38l-1-3.38c7.72 1.09 11.8-.8 11.8-4.08 0-1.66-1.58-2.88-3.84-2.88a9 9 0 0 0 -7.1 3 5.55 5.55 0 0 0 -1 1.51l-3-.75a93.55 93.55 0 0 0 1.27-10.74l3.49.47c-.28 1.47-.75 4.56-.9 6.01zm.8-11.17a82.06 82.06 0 0 0 10.29 2l-.78 3.17c-2.6-.34-8.34-1.53-10.34-2z"/><path d="m195.3 328.55a37.21 37.21 0 0 1 -4.47.88 47.14 47.14 0 0 1 -5.51 11l-3.14-1.58a39.49 39.49 0 0 0 5.25-9.1c-.45 0-.89 0-1.33 0-1.06 0-2.1 0-3.22-.08l-.23-3a32.45 32.45 0 0 0 3.42.18c.76 0 1.54 0 2.32-.08a22.08 22.08 0 0 0 .7-4.31l3.56.36c-.21.83-.52 2.13-.88 3.51a27.9 27.9 0 0 0 3.45-.81zm3.38 2.31c-.08 1.09 0 2.16 0 3.3 0 .73.08 2 .15 3.25a17.11 17.11 0 0 1 5.33 3.3l-1.71 2.76a22.34 22.34 0 0 0 -3.49-2.73v.26c0 2.39-1.3 4.26-5 4.26-3.2 0-5.72-1.43-5.72-4.26 0-2.52 2.11-4.47 5.7-4.47a16.24 16.24 0 0 1 1.74.11c-.08-1.93-.21-4.19-.29-5.75zm-2.83 8.53a9 9 0 0 0 -2.08-.26c-1.48 0-2.45.62-2.45 1.53s.81 1.61 2.21 1.61a2.09 2.09 0 0 0 2.32-2.39zm7.25-7.15a34.29 34.29 0 0 0 -6.19-3.66l1.66-2.55a46.51 46.51 0 0 1 6.34 3.48z"/><path d="m212.86 328.32c0 1.66 0 3.61.16 5.45.37 3.72 1.14 6.24 2.76 6.24 1.22 0 2.23-3 2.72-5l2.6 3.12c-1.71 4.47-3.32 6.05-5.4 6.05-2.81 0-5.28-2.54-6-9.46-.23-2.36-.28-5.35-.28-6.93a15.51 15.51 0 0 0 -.18-2.6l4 .05a19.54 19.54 0 0 0 -.38 3.08zm17.88 10.57-3.4 1.3c-.39-4.13-1.77-10.18-4.57-13.35l3.27-1.1c2.44 2.99 4.42 9.2 4.7 13.15z"/><path d="m241.58 341.47a4.2 4.2 0 1 1 -4.21-4.21 4.21 4.21 0 0 1 4.21 4.21zm-1.87 0a2.33 2.33 0 1 0 -2.34 2.31 2.33 2.33 0 0 0 2.34-2.31z"/><path d="m22.19 388.38a11.17 11.17 0 0 0 -.18 1.38c-.1 2.81-.42 10.06-1.53 12.71a3.22 3.22 0 0 1 -3.36 2c-1.48 0-3-.1-4.31-.21l-.39-3.48a21.9 21.9 0 0 0 3.64.36 1.38 1.38 0 0 0 1.48-.91c.75-1.63 1.09-6.83 1.09-9.64h-5.84c-1 6.86-3.44 10.94-8.09 14.24l-3-2.44a14.88 14.88 0 0 0 3.4-2.55 15.25 15.25 0 0 0 4.29-9.25h-3.39c-.88 0-2.31 0-3.43.11v-3.41c1.09.11 2.44.19 3.43.19h3.67c0-.73.05-1.49.05-2.27a20.12 20.12 0 0 0 -.18-2.39h3.82c-.08.6-.13 1.69-.16 2.32 0 .8 0 1.58-.1 2.34h4.9a12.06 12.06 0 0 0 2-.19z"/><path d="m48.88 387.08a11.8 11.8 0 0 0 -.86 1.85 29.85 29.85 0 0 1 -3.59 7.12c1 .6 1.85 1.2 2.5 1.66l-2.37 3a29.55 29.55 0 0 0 -2.41-1.84 24.85 24.85 0 0 1 -9.59 6.47l-3-2.63a22 22 0 0 0 9.7-5.82c-1.77-1.14-3.54-2.2-4.86-3l2.21-2.47c1.37.7 3.14 1.69 4.88 2.73a18.66 18.66 0 0 0 2.7-5.53h-7.47a30.76 30.76 0 0 1 -6.86 6.7l-2.81-2.16a23.77 23.77 0 0 0 8.29-8.62 11.87 11.87 0 0 0 1.17-2.73l3.77 1.17c-.63.91-1.3 2.1-1.61 2.65h5.33a8.36 8.36 0 0 0 2.26-.28z"/><path d="m73.2 391.37c.54 0 1.79-.1 2.36-.15v3.35c-.7-.05-1.58-.1-2.28-.1h-6.73a13 13 0 0 1 -6.66 10.68l-3.3-2.24c3.95-1.82 6-4.6 6.53-8.44h-7.12c-.8 0-1.77 0-2.44.1v-3.35c.7.07 1.58.15 2.39.15h7.33v-3.69c-2.5.21-5.23.29-7 .34l-.8-3a61.09 61.09 0 0 0 8.86-.42 27.86 27.86 0 0 0 6.55-1.6l2.11 2.89-2 .49a40.77 40.77 0 0 1 -4.37.86v4.13z"/><path d="m85.18 383.84a23.19 23.19 0 0 0 -.63 2.28 64.27 64.27 0 0 0 -1.24 9.44 12.09 12.09 0 0 0 .1 1.66c.36-.91.78-1.77 1.14-2.6l1.61 1.25a64.7 64.7 0 0 0 -1.84 6.31 7.51 7.51 0 0 0 -.16 1.2c0 .28 0 .7.06 1.06l-3 .21a32.86 32.86 0 0 1 -1-8.42 70.48 70.48 0 0 1 1.07-10.18 20.08 20.08 0 0 0 .25-2.53zm6 12.7a8.5 8.5 0 0 0 -.32 2.16c0 1.14 1 1.82 3.59 1.82a29.47 29.47 0 0 0 6.44-.68l.08 3.49a35.87 35.87 0 0 1 -6.65.52c-4.44 0-6.55-1.62-6.55-4.24a15.74 15.74 0 0 1 .44-3.35zm9-11v3.32a70.28 70.28 0 0 1 -11 0v-3.32a53.16 53.16 0 0 0 11.02-.01z"/><path d="m110.33 395.74a10.81 10.81 0 0 0 -.44 2.6c0 1.63 1.56 2.83 5.27 2.83a36.72 36.72 0 0 0 9-1v3.61a39.57 39.57 0 0 1 -8.94.88c-5.9 0-8.86-2-8.86-5.51a16.42 16.42 0 0 1 .52-3.71zm-2.18-10.92a66.49 66.49 0 0 0 7 .32c2.55 0 5.49-.16 7.46-.37v3.46c-1.79.13-5 .31-7.43.31-2.7 0-4.94-.13-7-.29z"/><path d="m143.51 389.09a45 45 0 0 1 -5 .85c-.23 1.1-.49 2.24-.78 3.3a82.78 82.78 0 0 1 -4.08 11.91l-3.61-1.2a58.12 58.12 0 0 0 4.45-11.59c.18-.7.38-1.43.54-2.16-.6 0-1.17.06-1.69.06-1.25 0-2.21-.06-3.12-.11l-.07-3.19a25.86 25.86 0 0 0 3.24.18c.76 0 1.51 0 2.29-.08.1-.55.18-1.07.23-1.46a13.74 13.74 0 0 0 .09-2.6l3.92.31c-.18.73-.41 1.87-.54 2.44l-.21 1c1.45-.21 2.91-.5 4.31-.84zm-.52 8.44a9.07 9.07 0 0 0 -.36 2.16c0 1.12.65 2 3.4 2a31.64 31.64 0 0 0 5.36-.52l-.13 3.3a39.74 39.74 0 0 1 -5.25.37c-4.34 0-6.55-1.51-6.55-4.11a17.07 17.07 0 0 1 .44-3.43zm-1.5-6.44a47.09 47.09 0 0 1 4.93-.26 43.23 43.23 0 0 1 4.52.21l-.07 3.11a38.38 38.38 0 0 0 -4.42-.33 43.34 43.34 0 0 0 -5 .28zm6.75-2.65a28.07 28.07 0 0 0 -2-3.62l2.06-.85a36.08 36.08 0 0 1 2 3.56zm3.09-5.64a29.56 29.56 0 0 1 2.11 3.53l-2.05.89a27.44 27.44 0 0 0 -2.11-3.59z"/><path d="m165.57 387.68c-.33.44-.88 1.28-1.32 1.95 0 .26 0 .5-.05.76a12.56 12.56 0 0 1 7.56-2.68 6.8 6.8 0 0 1 7.09 6.94c0 5.19-3.25 8.31-9.64 9.59l-1.53-3.12c4.52-.7 7.74-2.52 7.74-6.55a3.92 3.92 0 0 0 -4.18-3.82 10.76 10.76 0 0 0 -7.3 3.3c0 .73-.06 1.45-.06 2.13 0 2.11 0 4.26.16 6.68 0 .47.13 1.4.18 2h-3.53c.05-.54.08-1.48.08-1.89 0-2 0-3.49.1-5.67-1.09 1.64-2.36 3.51-3.25 4.76l-2-2.86c1.45-1.77 4.05-5.2 5.5-7.36l.11-1.79-4.68.6-.31-3.3a18.88 18.88 0 0 0 2.23 0c.76-.05 1.87-.18 3-.33.05-1 .1-1.69.1-2a13.73 13.73 0 0 0 -.1-2.29l3.76.11c-.15.72-.36 2.05-.57 3.66z"/><path d="m188.31 394a12.61 12.61 0 0 1 7.56-2.45c4.52 0 7.15 2.78 7.15 5.9 0 4.71-3.72 8.32-14.42 7.38l-1-3.37c7.72 1.09 11.8-.81 11.8-4.08 0-1.67-1.59-2.89-3.85-2.89a9 9 0 0 0 -7.09 3 5.57 5.57 0 0 0 -1 1.5l-3-.75a95.64 95.64 0 0 0 1.27-10.73l3.48.46c-.28 1.45-.72 4.55-.9 6.03zm.81-11.18a80.3 80.3 0 0 0 10.29 2l-.78 3.17c-2.6-.33-8.35-1.53-10.35-2.05z"/><path d="m221.28 388.51a37 37 0 0 1 -4.47.89 47.51 47.51 0 0 1 -5.5 11l-3.15-1.59a39.07 39.07 0 0 0 5.25-9.09c-.44 0-.88 0-1.32 0-1.07 0-2.11 0-3.23-.08l-.23-3a32.63 32.63 0 0 0 3.43.18c.75 0 1.53 0 2.31-.08a21.24 21.24 0 0 0 .7-4.31l3.56.36c-.2.84-.52 2.13-.88 3.51a28.15 28.15 0 0 0 3.46-.8zm3.38 2.32c-.08 1.09 0 2.15 0 3.3 0 .72.08 2 .16 3.25a17.11 17.11 0 0 1 5.33 3.3l-1.72 2.75a23.33 23.33 0 0 0 -3.43-2.73v.24c0 2.39-1.3 4.26-5 4.26-3.19 0-5.71-1.43-5.71-4.26 0-2.52 2.1-4.47 5.69-4.47.6 0 1.19 0 1.74.1-.08-1.92-.21-4.18-.29-5.74zm-2.83 8.52a8.91 8.91 0 0 0 -2.08-.26c-1.48 0-2.44.62-2.44 1.53s.8 1.61 2.21 1.61c1.74 0 2.31-1 2.31-2.39zm7.25-7.15a34.8 34.8 0 0 0 -6.18-3.66l1.66-2.55a46.63 46.63 0 0 1 6.34 3.49z"/><path d="m238.85 388.28a54 54 0 0 0 .16 5.46c.36 3.71 1.14 6.23 2.75 6.23 1.22 0 2.23-3 2.73-5l2.6 3.12c-1.72 4.47-3.33 6.06-5.41 6.06-2.8 0-5.27-2.55-6-9.46-.23-2.37-.29-5.36-.29-6.94a14.52 14.52 0 0 0 -.18-2.6l3.95.05a20.66 20.66 0 0 0 -.31 3.08zm17.88 10.58-3.41 1.3c-.39-4.14-1.76-10.19-4.57-13.36l3.27-1.09c2.45 2.99 4.42 9.2 4.71 13.15z"/><path d="m267.56 401.43a4.2 4.2 0 1 1 -4.21-4.21 4.21 4.21 0 0 1 4.21 4.21zm-1.87 0a2.33 2.33 0 1 0 -2.34 2.31 2.31 2.31 0 0 0 2.34-2.31z"/><path d="m12.32 454.46v11.43h-3v-11.43h-3c-.13 4.23-.83 8.44-3.9 11.64a10.94 10.94 0 0 0 -2.32-2.1c2.5-2.65 3.15-6 3.3-9.51h-3v-2.89h3v-5.6h-2.52v-2.88h13.59v2.88h-2.15v5.59h2.49v2.86zm-3-2.86v-5.6h-3v5.59zm15.46 5.53a23.17 23.17 0 0 1 -9.4 8.73 11.89 11.89 0 0 0 -2.16-2.52 18.54 18.54 0 0 0 8.61-7.34zm-1-13.95a26.5 26.5 0 0 1 -7.45 6.39 10.06 10.06 0 0 0 -2.19-2.18 19.59 19.59 0 0 0 6.73-5.39zm.42 7.09a27.76 27.76 0 0 1 -7.52 6.73 12.88 12.88 0 0 0 -2.15-2.16 21.15 21.15 0 0 0 6.86-5.74z"/><path d="m43.63 449.05c.54 7.59 2.13 13.59 4 13.59.54 0 .85-1.38 1-4.68a8.29 8.29 0 0 0 2.71 1.82c-.47 4.91-1.51 6.11-4 6.11-4.44 0-6.39-7.69-7-16.84h-12.9v-3h12.76c-.05-1.41-.08-2.86-.08-4.29h3.33v4.29h4.11a18 18 0 0 0 -3-2.73l2.05-1.69a19.83 19.83 0 0 1 3.39 2.87l-1.77 1.5h2.44v3zm-8.21 11.67c1.58-.29 3.25-.6 4.83-.91l.23 2.75c-4.26.94-8.83 1.9-12.18 2.6l-.86-3.16c1.32-.2 3-.46 4.91-.78v-6.22h-3.92v-3h11.14v3h-4.15z"/><path d="m60.23 443.8a20.16 20.16 0 0 0 -.62 2.29 62.7 62.7 0 0 0 -1.25 9.43 12.06 12.06 0 0 0 .11 1.66c.36-.91.77-1.76 1.14-2.59l1.61 1.24a58.92 58.92 0 0 0 -1.84 6.32 7.26 7.26 0 0 0 -.16 1.19c0 .29 0 .7.05 1.07l-3 .21a32.85 32.85 0 0 1 -1-8.42 70.48 70.48 0 0 1 1.09-10.2 20.07 20.07 0 0 0 .26-2.52zm6 12.71a8.33 8.33 0 0 0 -.31 2.16c0 1.14 1 1.81 3.59 1.81a29.53 29.53 0 0 0 6.44-.67l.08 3.48a36 36 0 0 1 -6.65.52c-4.45 0-6.55-1.61-6.55-4.24a15.91 15.91 0 0 1 .44-3.35zm9-11v3.33a72.65 72.65 0 0 1 -11 0v-3.33a52.48 52.48 0 0 0 11.02-.02z"/><path d="m85.39 455.7a10.44 10.44 0 0 0 -.45 2.6c0 1.64 1.56 2.83 5.28 2.83a36.69 36.69 0 0 0 9-1v3.61a39.05 39.05 0 0 1 -8.94.89c-5.9 0-8.86-2-8.86-5.51a16.43 16.43 0 0 1 .52-3.72zm-2.19-10.91a67 67 0 0 0 7 .31c2.55 0 5.48-.16 7.46-.36v3.45c-1.8.13-5 .31-7.44.31-2.7 0-4.93-.12-7-.28z"/><path d="m118.57 449.05a48.38 48.38 0 0 1 -5 .86c-.24 1.09-.5 2.23-.78 3.3a85.15 85.15 0 0 1 -4.08 11.9l-3.61-1.2a57.06 57.06 0 0 0 4.44-11.59c.18-.7.39-1.42.55-2.15-.6 0-1.17.05-1.69.05-1.25 0-2.21-.05-3.12-.1l-.08-3.2a24.23 24.23 0 0 0 3.25.18c.75 0 1.51 0 2.29-.08.1-.54.18-1.06.23-1.45a12.93 12.93 0 0 0 .1-2.63l3.93.32c-.18.72-.42 1.87-.55 2.44l-.21 1c1.46-.21 2.91-.49 4.32-.83zm-.52 8.45a9 9 0 0 0 -.37 2.15c0 1.12.65 2 3.41 2a32.58 32.58 0 0 0 5.35-.52l-.13 3.3a41.59 41.59 0 0 1 -5.25.36c-4.34 0-6.55-1.51-6.55-4.1a16.86 16.86 0 0 1 .45-3.43zm-1.51-6.45c1.43-.15 3.27-.26 4.94-.26a43.48 43.48 0 0 1 4.52.21l-.08 3.12a36 36 0 0 0 -4.42-.34 41.12 41.12 0 0 0 -5 .29zm6.76-2.65a29.94 29.94 0 0 0 -2-3.61l2-.86a36.21 36.21 0 0 1 2.06 3.56zm3.09-5.64a30.89 30.89 0 0 1 2.1 3.54l-2.05.88a28 28 0 0 0 -2.1-3.59z"/><path d="m140.63 447.65c-.34.44-.89 1.27-1.33 2 0 .26 0 .49-.05.75a12.56 12.56 0 0 1 7.56-2.68 6.8 6.8 0 0 1 7.1 6.94c0 5.2-3.25 8.32-9.64 9.59l-1.54-3.12c4.52-.7 7.75-2.52 7.75-6.55a3.92 3.92 0 0 0 -4.19-3.82 10.78 10.78 0 0 0 -7.29 3.24c0 .73-.05 1.46-.05 2.13 0 2.11 0 4.27.15 6.68 0 .47.13 1.41.19 2h-3.54c0-.55.08-1.48.08-1.9.05-2 .05-3.48.1-5.66-1.09 1.63-2.36 3.5-3.24 4.75l-2-2.86c1.45-1.76 4-5.19 5.51-7.35l.1-1.79-4.68.59-.31-3.3a21.27 21.27 0 0 0 2.24 0c.75-.05 1.87-.18 3-.34.05-1 .1-1.69.1-2a13.66 13.66 0 0 0 -.1-2.28l3.77.1c-.16.73-.37 2.05-.57 3.67z"/><path d="m162.85 454a12.58 12.58 0 0 1 7.56-2.44c4.52 0 7.14 2.78 7.14 5.9 0 4.7-3.71 8.31-14.42 7.38l-1-3.38c7.72 1.09 11.8-.81 11.8-4.08 0-1.66-1.58-2.88-3.84-2.88a9 9 0 0 0 -7.1 3 5.55 5.55 0 0 0 -1 1.51l-3-.76a93.09 93.09 0 0 0 1.27-10.73l3.49.47c-.28 1.4-.75 4.49-.9 6.01zm.8-11.17a82.06 82.06 0 0 0 10.29 2l-.78 3.17c-2.6-.34-8.34-1.53-10.34-2z"/><path d="m195.82 448.48a37.61 37.61 0 0 1 -4.47.88 47.53 47.53 0 0 1 -5.51 11l-3.14-1.59a39.43 39.43 0 0 0 5.3-9.07c-.45 0-.89 0-1.33 0-1.06 0-2.1 0-3.22-.08l-.24-3a32.94 32.94 0 0 0 3.43.19c.76 0 1.54 0 2.32-.08a22.05 22.05 0 0 0 .7-4.32l3.56.37c-.21.83-.52 2.13-.88 3.51a27.9 27.9 0 0 0 3.45-.81zm3.38 2.31c-.08 1.09 0 2.16 0 3.3 0 .73.08 2 .15 3.25a17.11 17.11 0 0 1 5.33 3.3l-1.68 2.75a22.33 22.33 0 0 0 -3.49-2.72v.23c0 2.39-1.3 4.26-5 4.26-3.2 0-5.72-1.43-5.72-4.26 0-2.52 2.11-4.47 5.69-4.47.6 0 1.2.05 1.75.1-.08-1.92-.21-4.18-.29-5.74zm-2.83 8.52a9.55 9.55 0 0 0 -2.08-.25c-1.48 0-2.45.62-2.45 1.53s.81 1.61 2.21 1.61a2.09 2.09 0 0 0 2.32-2.39zm7.25-7.14a34.34 34.34 0 0 0 -6.19-3.67l1.66-2.54a44.44 44.44 0 0 1 6.34 3.48z"/><path d="m213.38 448.24c0 1.67 0 3.62.16 5.46.36 3.72 1.14 6.24 2.76 6.24 1.22 0 2.23-3 2.72-5l2.6 3.12c-1.71 4.46-3.32 6.05-5.4 6.05-2.81 0-5.28-2.55-6-9.46-.23-2.36-.28-5.35-.28-6.94a15.58 15.58 0 0 0 -.18-2.6l3.95.06a19.42 19.42 0 0 0 -.33 3.07zm17.88 10.58-3.4 1.3c-.39-4.13-1.77-10.19-4.57-13.36l3.27-1.09c2.44 2.99 4.44 9.2 4.7 13.15z"/><path d="m242.1 461.39a4.2 4.2 0 1 1 -4.21-4.21 4.2 4.2 0 0 1 4.21 4.21zm-1.87 0a2.33 2.33 0 1 0 -2.34 2.32 2.32 2.32 0 0 0 2.34-2.32z"/><path d="m20.22 523.72a20.15 20.15 0 0 0 -5.69-4v.89c0 2.26-1.17 4.44-5.48 4.44-3.67 0-6.68-1.19-6.68-4.7 0-2.68 2.29-4.81 7-4.81a15.2 15.2 0 0 1 1.53.08c-.08-2-.18-4.21-.18-5.56 0-1.56 0-3.09 0-4.19a17.23 17.23 0 0 0 -.26-3h3.87c-.11.75-.18 2-.24 3v1.87c2 0 5-.15 7.18-.38l.13 3.06c-2.16.21-5.23.31-7.31.37.06 1.55.16 3.58.29 5.48a20.34 20.34 0 0 1 7.82 4.42zm-9.22-5.14a13.3 13.3 0 0 0 -2.13-.18c-2 0-3.19.67-3.19 1.76 0 1.28 1.3 1.74 3.09 1.74s2.26-.75 2.26-2.44c.04-.23.04-.54-.03-.88z"/><path d="m31.49 508.21c0 1.66 0 3.61.16 5.46.36 3.71 1.14 6.23 2.75 6.23 1.22 0 2.24-3 2.73-5l2.6 3.12c-1.71 4.47-3.33 6-5.4 6-2.81 0-5.28-2.54-6-9.45-.23-2.37-.28-5.36-.28-6.94a15.51 15.51 0 0 0 -.18-2.6h3.95a19.54 19.54 0 0 0 -.33 3.18zm17.88 10.58-3.37 1.29c-.39-4.13-1.77-10.18-4.58-13.35l3.28-1.09c2.41 2.98 4.39 9.19 4.67 13.15z"/><path d="m72.08 512.18c1.72 2.19 2.5 4 2.5 6.19 0 3.87-3.49 6.68-9.12 6.68-4.06 0-6.92-1.77-6.92-6.06 0-.62.08-1.53.19-2.6a28.63 28.63 0 0 1 -4.94-.85l.18-3.12a21.6 21.6 0 0 0 5.07 1c.15-1.14.28-2.34.44-3.51a31.61 31.61 0 0 1 -5.12-.91l.18-3a24.36 24.36 0 0 0 5.28 1c.1-.78.15-1.48.2-2.06a15.17 15.17 0 0 0 .06-2.28l3.61.21c-.21.93-.34 1.61-.44 2.28-.08.44-.16 1.12-.29 1.95a37 37 0 0 0 4.73-.31l-.1 3.07a48 48 0 0 1 -5 .23c-.15 1.14-.31 2.36-.44 3.51h.18a51.5 51.5 0 0 0 5.17-.31l-.08 3.06c-1.45.13-3 .24-4.54.24h-1c0 .75-.11 1.4-.11 1.87 0 2.1 1.3 3.27 3.85 3.27 3.59 0 5.56-1.64 5.56-3.77 0-1.74-1-3.4-2.65-5z"/><path d="m89.72 521.62a23.66 23.66 0 0 0 2.4-.42c3.3-.78 5.84-3.14 5.84-6.88 0-3.56-1.92-6.22-5.38-6.81a55 55 0 0 1 -1.53 7c-1.53 5.19-3.77 8.36-6.57 8.36s-5.25-3.14-5.25-7.48c0-5.92 5.17-11 11.85-11 6.36 0 10.39 4.45 10.39 10.06 0 5.4-3.33 9.25-9.82 10.24zm-2-7.8a40.69 40.69 0 0 0 1.38-6.24 8.08 8.08 0 0 0 -6.52 7.42c0 2.6 1 3.88 2 3.88s2.1-1.58 3.14-5.06z"/><path d="m117.61 519.85c0-.75.07-2 .1-3.07-1.9 1-2.94 2.06-2.94 3.33 0 1.43 1.23 1.82 3.75 1.82a40 40 0 0 0 7.3-.75l-.11 3.35a70.65 70.65 0 0 1 -7.27.41c-4 0-7.07-1-7.07-4.28s3.12-5.36 6-6.86a2 2 0 0 0 -1.79-.89 6.37 6.37 0 0 0 -4 1.77 33.67 33.67 0 0 0 -2.39 2.83l-2.75-2a25.15 25.15 0 0 0 5.66-7.07h-.31c-1 0-2.93-.05-4.34-.18v-3a32.67 32.67 0 0 0 4.52.29h1.25a14.74 14.74 0 0 0 .52-2.94l3.38.29c-.13.62-.31 1.51-.63 2.55a58.59 58.59 0 0 0 7.28-.76v3a83.43 83.43 0 0 1 -8.39.67 14.89 14.89 0 0 1 -1.48 2.6 8 8 0 0 1 2.91-.52 3.51 3.51 0 0 1 3.43 2c1.33-.62 2.42-1.06 3.48-1.53s1.9-.88 2.84-1.33l1.29 3a28.25 28.25 0 0 0 -3.06 1.09c-1.15.45-2.6 1-4.19 1.74 0 1.43.08 3.33.11 4.5z"/><path d="m135.17 508.57c2-.59 7.23-2.44 11-2.44 4.65 0 8.32 2.68 8.32 7.43 0 5.82-5.56 9.56-14.63 10l-1.48-3.43c7-.15 12.42-2.18 12.42-6.65 0-2.42-1.66-4.26-4.76-4.26-3.79 0-9.87 2.54-12.55 3.74l-1.49-3.61a25.71 25.71 0 0 0 3.17-.78z"/><path d="m175.5 504.93c-.81.6-1.66 1.28-2.26 1.75-1.66 1.35-5.07 4-6.78 5.45-1.38 1.17-1.36 1.46 0 2.65 1.92 1.64 6.89 5.56 9.43 8l-3 2.76c-.72-.81-1.53-1.61-2.26-2.39-1.4-1.48-5.33-4.84-7.69-6.84-2.55-2.15-2.34-3.58.23-5.71 2-1.64 5.54-4.5 7.28-6.21a17.48 17.48 0 0 0 2-2.16z"/><path d="m200.47 505.77c-.62.39-1.22.78-1.79 1.17-1.38 1-4.08 3.24-5.69 4.54a8.76 8.76 0 0 1 2.41-.28c4.37 0 7.7 2.73 7.7 6.47 0 4.05-3.1 7.27-9.31 7.27-3.58 0-6.29-1.63-6.29-4.21 0-2.08 1.9-4 4.63-4a5.18 5.18 0 0 1 5.48 4.39 3.74 3.74 0 0 0 2.11-3.5c0-2.32-2.34-3.88-5.33-3.88-3.95 0-6.52 2.11-9.28 5.23l-2.34-2.42c1.82-1.48 4.92-4.11 6.45-5.35s4.1-3.36 5.38-4.47c-1.33 0-4.86.18-6.21.28a18.83 18.83 0 0 0 -2.11.21l-.1-3.35a22.94 22.94 0 0 0 2.34.13c1.35 0 6.86-.13 8.31-.26a12.38 12.38 0 0 0 2-.26zm-5.82 16.23c-.16-1.67-1.12-2.76-2.52-2.76-1 0-1.59.57-1.59 1.22 0 1 1.1 1.61 2.6 1.61a14.19 14.19 0 0 0 1.51-.07z"/><path d="m213.75 515.67a10.81 10.81 0 0 0 -.44 2.6c0 1.63 1.56 2.83 5.27 2.83a36.25 36.25 0 0 0 9-1v3.62a39.64 39.64 0 0 1 -8.94.88c-5.9 0-8.86-2-8.86-5.51a16.52 16.52 0 0 1 .52-3.72zm-2.18-10.92a66.78 66.78 0 0 0 7 .31c2.55 0 5.48-.15 7.46-.36v3.46c-1.79.13-5 .31-7.43.31-2.7 0-4.94-.13-7-.29z"/><path d="m252.88 508.47c-.78.47-1.61.91-2.54 1.38a75.83 75.83 0 0 0 -7.18 3.82c-2.15 1.4-3.58 2.88-3.58 4.67s1.79 2.84 5.35 2.84a43.05 43.05 0 0 0 8.42-.94v3.72a50.89 50.89 0 0 1 -8.27.62c-5.11 0-9-1.43-9-5.85 0-2.86 1.8-5 4.27-6.78-1.2-2.21-2.45-4.94-3.62-7.67l3.25-1.32a60.79 60.79 0 0 0 3.22 7.12c2.11-1.22 4.34-2.37 5.56-3a16.79 16.79 0 0 0 2.37-1.56z"/><path d="m265.51 503.77a19.46 19.46 0 0 0 -.62 2.28 62.88 62.88 0 0 0 -1.25 9.43 12.14 12.14 0 0 0 .1 1.67c.37-.91.78-1.77 1.15-2.6l1.61 1.25a60.93 60.93 0 0 0 -1.85 6.31 7.39 7.39 0 0 0 -.15 1.2c0 .28 0 .7.05 1.06l-3 .21a33.32 33.32 0 0 1 -1-8.42 70.81 70.81 0 0 1 1.09-10.16 19.69 19.69 0 0 0 .26-2.52zm6 12.7a8.39 8.39 0 0 0 -.31 2.16c0 1.14 1 1.82 3.58 1.82a29.62 29.62 0 0 0 6.45-.68l.07 3.48a35 35 0 0 1 -6.65.52c-4.44 0-6.55-1.61-6.55-4.23a15.78 15.78 0 0 1 .45-3.35zm9-11v3.33a70.15 70.15 0 0 1 -11 0v-3.33a51.82 51.82 0 0 0 11.02-.02z"/><path d="m298.9 509a45.41 45.41 0 0 1 -5 .86c-.23 1.09-.49 2.24-.78 3.3a83.88 83.88 0 0 1 -4.08 11.9l-3.61-1.19a57.52 57.52 0 0 0 4.44-11.59c.18-.7.39-1.43.55-2.16-.6 0-1.17.05-1.69.05-1.25 0-2.21-.05-3.12-.1l-.08-3.2a24.46 24.46 0 0 0 3.25.19c.75 0 1.51 0 2.29-.08.1-.55.18-1.07.23-1.46a13.74 13.74 0 0 0 .11-2.62l3.92.31c-.18.73-.42 1.87-.55 2.44l-.2 1a43.73 43.73 0 0 0 4.31-.83zm-.52 8.45a8.91 8.91 0 0 0 -.36 2.16c0 1.11.65 2 3.4 2a32.58 32.58 0 0 0 5.35-.52l-.13 3.3a41.25 41.25 0 0 1 -5.25.37c-4.34 0-6.54-1.51-6.54-4.11a17 17 0 0 1 .44-3.43zm-1.51-6.45a47.44 47.44 0 0 1 4.94-.26c1.45 0 3 .05 4.52.2l-.08 3.12a38.07 38.07 0 0 0 -4.41-.34 43.31 43.31 0 0 0 -5 .29zm6.76-2.66a29.94 29.94 0 0 0 -2-3.61l2.06-.85a37 37 0 0 1 2 3.56zm3.09-5.63a31.55 31.55 0 0 1 2.11 3.53l-2.06.88a26.2 26.2 0 0 0 -2.1-3.58z"/><path d="m317.14 503.45c-.21.63-.49 1.54-.6 2.08-.62 2.86-1.53 8.24-.86 11.44.34-.78.78-2 1.2-3l1.64 1a61.59 61.59 0 0 0 -1.74 6.29 5.68 5.68 0 0 0 -.19 1.24c0 .26.06.7.08 1.07l-2.88.28a28.45 28.45 0 0 1 -1.48-8.34 68.47 68.47 0 0 1 .85-10.26 13.57 13.57 0 0 0 .16-2.24zm16.5 7.49c-1 .13-2.36.23-3.82.31v1.06c0 6.09-.47 9.8-5.59 13.08l-3-2.34a10.2 10.2 0 0 0 3-2.06c2-2 2.39-4.34 2.39-8.68v-.93c-1 0-1.95.05-2.88.05-1.12 0-2.71-.08-4-.13v-3.3a27.27 27.27 0 0 0 3.9.26c.93 0 1.92 0 2.91-.06 0-1.42-.08-2.75-.13-3.45a11.09 11.09 0 0 0 -.29-1.77h3.87a14.55 14.55 0 0 0 -.13 1.74v3.3a32.48 32.48 0 0 0 3.88-.47z"/><path d="m342.4 525.39a49.16 49.16 0 0 0 -5.59-5.75l2.7-2.34a49 49 0 0 1 5.67 5.69z"/><path d="m23.67 569a37.35 37.35 0 0 1 -2 10.11 11.06 11.06 0 0 0 3.4 4.39 9.86 9.86 0 0 0 -1.9 2.31 12.12 12.12 0 0 1 -3-3.74 14.51 14.51 0 0 1 -3.49 3.93 10 10 0 0 0 -1.19-1.66 1.62 1.62 0 0 1 -.78 1.12 5.9 5.9 0 0 1 -2.86.44 10.1 10.1 0 0 0 -.65-2.42h1.64s.33-.11.33-.34v-2h-3v4.68h-2.45v-13.6h7.87v11.2a12.18 12.18 0 0 0 3.33-4.28 41.12 41.12 0 0 1 -1.46-6.32 8.3 8.3 0 0 1 -.78 1.15 12.69 12.69 0 0 0 -1.35-2.42l-1.06.39a11.53 11.53 0 0 0 -.32-1.2c-2.49.26-5 .52-7 .76l-.39-1.93c-.31.58-.62 1.15-1 1.72v14.58h-2.62v-10.76c-.45.55-.89 1.07-1.3 1.51a22.92 22.92 0 0 0 -1.64-2.83 24.12 24.12 0 0 0 4.65-6.79l2.7 1c-.15.36-.33.7-.52 1.06l1.43-.1c.26-.83.52-1.79.73-2.65h-2.42v-2.31h3.43v-2.39h2.78v2.39h3.72v2.31h-4.7c-.31.83-.63 1.66-1 2.47l2.26-.18a14.75 14.75 0 0 0 -.73-1.38l2.13-.75a15 15 0 0 1 1.64 3.22 28.1 28.1 0 0 0 2.1-8.08l2.68.44c-.26 1.56-.55 3.09-.94 4.57h4.71v2.38zm-16.67-6.47a25.86 25.86 0 0 1 -5.36 6.32 14.58 14.58 0 0 0 -1.5-2.37 17.83 17.83 0 0 0 4.08-4.93zm3.14 11.91v1.32h3v-1.32zm3 4.67v-1.37h-3v1.37zm6-10a42 42 0 0 0 1.07 6 41 41 0 0 0 .86-6.08h-1.87z"/><path d="m31.42 566.72v4.55c0 4.18-.39 10.57-2.76 14.57a11.57 11.57 0 0 0 -2.52-1.69c2.16-3.69 2.31-9.09 2.31-12.88v-7.27h9.25v-2.42h3.23v2.42h9.45v2.73zm13 8.94c.57 3.87 1.64 6.57 2.88 6.57.47 0 .68-1 .76-3.27a7 7 0 0 0 2.39 1.4c-.37 3.9-1.3 4.81-3.35 4.78-3.1 0-4.86-4-5.67-9.48h-4.9v3l4.94-.52.08 2.65c-3.38.41-7 .83-9.67 1.14l-.31-2.78c.6 0 1.27-.1 2-.18v-10.9l2.31.62a57.34 57.34 0 0 0 10.06-1.84l2.29 2.23c-1.25.37-2.7.7-4.24 1 0 1 .08 1.95.16 2.88h6.08v2.71zm-12.6 7.07h11v2.65h-11zm9.3-9.78c-.08-.78-.13-1.58-.16-2.41-1.5.21-3 .39-4.47.52v1.94z"/><path d="m76 565.55s0 1 0 1.4c-.33 11.62-.62 15.75-1.69 17.13a3.48 3.48 0 0 1 -2.49 1.43 29.49 29.49 0 0 1 -4.08 0 7.35 7.35 0 0 0 -1-3c1.66.16 3.19.16 3.87.16a1.37 1.37 0 0 0 1.14-.44c.76-.83 1.09-4.73 1.38-13.91h-5.62a22.52 22.52 0 0 1 -2.29 4.11 17.81 17.81 0 0 0 -2-1.45v12.13h-6.94v1.89h-2.8v-19.27h2.93a28.41 28.41 0 0 0 .76-4.18l3.37.46c-.44 1.3-.91 2.6-1.35 3.72h4v4.21a26.72 26.72 0 0 0 3.51-8.37l2.94.68a29.91 29.91 0 0 1 -1 3.3zm-15.57 2.88h-4.15v4.21h4.13zm0 12v-5.09h-4.15v5.09zm8.57-1.43a55.72 55.72 0 0 0 -3.61-6l2.42-1.38a62.7 62.7 0 0 1 3.82 5.77z"/><path d="m85.7 563.73a22.62 22.62 0 0 0 -.63 2.29 64.12 64.12 0 0 0 -1.24 9.43 12 12 0 0 0 .1 1.66c.36-.91.78-1.76 1.14-2.6l1.61 1.25a64 64 0 0 0 -1.84 6.32 7.26 7.26 0 0 0 -.16 1.19c0 .29 0 .7.06 1.07l-3 .2a32.8 32.8 0 0 1 -1-8.42 72.2 72.2 0 0 1 1.06-10.18 18.36 18.36 0 0 0 .26-2.52zm6 12.71a8.36 8.36 0 0 0 -.32 2.15c0 1.15 1 1.82 3.59 1.82a30.09 30.09 0 0 0 6.44-.67l.08 3.48a35.87 35.87 0 0 1 -6.65.52c-4.44 0-6.55-1.61-6.55-4.24a15.91 15.91 0 0 1 .44-3.35zm9-11v3.32a70.28 70.28 0 0 1 -11 0v-3.32a52.48 52.48 0 0 0 11.02-.02z"/><path d="m110.85 575.63a10.89 10.89 0 0 0 -.44 2.6c0 1.64 1.56 2.83 5.27 2.83a36.72 36.72 0 0 0 9-1v3.61a39 39 0 0 1 -8.94.88c-5.9 0-8.86-2-8.86-5.5a16.43 16.43 0 0 1 .52-3.72zm-2.18-10.91a69.63 69.63 0 0 0 7 .31c2.55 0 5.49-.16 7.46-.36v3.45c-1.79.13-5 .31-7.43.31-2.7 0-4.94-.13-7-.28z"/><path d="m144 569a47.46 47.46 0 0 1 -5 .86c-.23 1.09-.49 2.23-.78 3.3a82.64 82.64 0 0 1 -4.08 11.9l-3.61-1.2a58.12 58.12 0 0 0 4.47-11.61c.18-.7.38-1.43.54-2.15-.6 0-1.17 0-1.69 0-1.25 0-2.21 0-3.12-.11l-.07-3.19a25.86 25.86 0 0 0 3.24.18c.76 0 1.51 0 2.29-.08.1-.54.18-1.06.23-1.45a13.81 13.81 0 0 0 .11-2.63l3.92.31c-.18.73-.41 1.87-.54 2.45l-.21 1c1.45-.21 2.91-.5 4.31-.83zm-.52 8.44a9.07 9.07 0 0 0 -.36 2.16c0 1.12.65 2 3.4 2a32.7 32.7 0 0 0 5.36-.52l-.13 3.3a41.73 41.73 0 0 1 -5.25.36c-4.34 0-6.55-1.51-6.55-4.11a17.07 17.07 0 0 1 .44-3.43zm-1.48-6.44a47.09 47.09 0 0 1 4.93-.26 43.23 43.23 0 0 1 4.52.21l-.07 3.12a36.15 36.15 0 0 0 -4.42-.34 43.34 43.34 0 0 0 -5 .28zm6.75-2.65a27.3 27.3 0 0 0 -2-3.61l2.06-.86a36.08 36.08 0 0 1 2.05 3.56zm3.09-5.64a29.56 29.56 0 0 1 2.11 3.53l-2.05.89a28.12 28.12 0 0 0 -2.11-3.59z"/><path d="m167.13 567.58c-.34.44-.88 1.27-1.32 1.94 0 .26 0 .5-.05.76a12.51 12.51 0 0 1 7.56-2.68 6.8 6.8 0 0 1 7.09 6.94c0 5.2-3.25 8.31-9.64 9.59l-1.53-3.13c4.52-.7 7.74-2.52 7.74-6.55a3.92 3.92 0 0 0 -4.18-3.82 10.76 10.76 0 0 0 -7.3 3.3c0 .73-.06 1.46-.06 2.13 0 2.11 0 4.26.16 6.68 0 .47.13 1.4.18 2h-3.53c.05-.55.07-1.49.07-1.9.06-2 .06-3.48.11-5.67-1.09 1.64-2.37 3.51-3.25 4.76l-2-2.86c1.46-1.77 4.06-5.2 5.51-7.35l.11-1.8-4.68.6-.31-3.3a21.09 21.09 0 0 0 2.23 0c.76-.06 1.87-.19 3-.34.05-1 .1-1.69.1-2a14.82 14.82 0 0 0 -.1-2.28l3.76.1c-.15.73-.36 2-.57 3.66z"/><path d="m202 565.73c-.62.39-1.22.78-1.79 1.17-1.38 1-4.08 3.25-5.69 4.55a8.37 8.37 0 0 1 2.41-.29c4.37 0 7.69 2.73 7.69 6.47 0 4.06-3.09 7.28-9.3 7.28-3.58 0-6.29-1.64-6.29-4.21 0-2.08 1.9-4 4.63-4a5.18 5.18 0 0 1 5.48 4.39 3.77 3.77 0 0 0 2.11-3.51c0-2.31-2.34-3.87-5.33-3.87-3.95 0-6.52 2.1-9.28 5.22l-2.34-2.42c1.82-1.48 4.91-4.1 6.45-5.35s4.1-3.35 5.38-4.47c-1.33 0-4.86.18-6.21.29a14.92 14.92 0 0 0 -2.11.21l-.1-3.36a22.94 22.94 0 0 0 2.34.13c1.35 0 6.86-.13 8.31-.26a11.26 11.26 0 0 0 2-.26zm-5.82 16.19c-.16-1.66-1.12-2.75-2.52-2.75-1 0-1.59.57-1.59 1.22 0 1 1.09 1.61 2.6 1.61a14.06 14.06 0 0 0 1.54-.08z"/><path d="m217.15 581.32a4.2 4.2 0 1 1 -4.21-4.21 4.21 4.21 0 0 1 4.21 4.21zm-1.87 0a2.33 2.33 0 1 0 -2.34 2.31 2.31 2.31 0 0 0 2.34-2.31z"/><path d="m8.42 623.8c1.09 0 5.92-.24 7.48-.42a11 11 0 0 0 1.8-.31l2 2.36c-.52.37-1.48 1-2 1.43-1.84 1.46-4.39 3.59-6.13 5 3.46-.37 7.69-.63 10.84-.63v3a39.07 39.07 0 0 0 -6.6.06c-2.37.33-4.34 2-4.34 4.1s1.58 2.81 3.89 3.09a21.87 21.87 0 0 0 3.93 0l-.68 3.38c-6.6.29-10.44-1.69-10.44-6a6 6 0 0 1 1.87-4.06c-2.34.18-5.23.57-7.8 1l-.24-3.01c1.38-.13 3.17-.37 4.49-.52a71.78 71.78 0 0 0 7.25-5.85c-1 .08-4.21.24-5.24.34-.65 0-1.51.16-2.32.23l-.18-3.3a23.81 23.81 0 0 0 2.42.11z"/><path d="m38.28 625.17c-1.28 1.85-3.23 5.43-4.5 7.7a5.82 5.82 0 0 1 2.94-.78c1.92 0 3.09 1.24 3.19 3.37.05 1.15 0 3.23.13 4.29a1.46 1.46 0 0 0 1.64 1.41c2.21 0 3.61-2.89 4.34-6.09l2.78 2.26c-1.33 4.45-3.72 7.36-7.69 7.36-2.81 0-4.16-1.72-4.26-3.59-.11-1.37-.08-3.48-.16-4.52a1.39 1.39 0 0 0 -1.51-1.43c-1.76 0-3.19 1.77-4.1 3.87a50.34 50.34 0 0 0 -1.95 5.72l-3.64-1.22c1.9-5.15 7.33-16 8.68-18.4.34-.7.81-1.53 1.27-2.62l3.67 1.5c-.26.29-.55.76-.83 1.17z"/><path d="m64.34 628.37a37.61 37.61 0 0 1 -4.47.88 47.34 47.34 0 0 1 -5.51 11l-3.14-1.58a39.45 39.45 0 0 0 5.24-9.1c-.44 0-.88 0-1.32 0-1.07 0-2.11 0-3.22-.08l-.24-3a30.4 30.4 0 0 0 3.43.19c.76 0 1.54 0 2.32-.08a22.08 22.08 0 0 0 .7-4.31l3.56.36c-.21.83-.52 2.13-.89 3.51a27.65 27.65 0 0 0 3.46-.81zm3.38 2.31c-.08 1.09 0 2.16 0 3.3 0 .73.07 2 .15 3.25a17.11 17.11 0 0 1 5.33 3.3l-1.72 2.76a22.22 22.22 0 0 0 -3.48-2.73v.23c0 2.39-1.3 4.26-5 4.26-3.2 0-5.72-1.43-5.72-4.26 0-2.52 2.11-4.47 5.69-4.47a15.92 15.92 0 0 1 1.74.11c-.07-1.93-.2-4.19-.28-5.75zm-2.84 8.53a8.82 8.82 0 0 0 -2.07-.26c-1.49 0-2.45.62-2.45 1.53s.81 1.61 2.21 1.61c1.74 0 2.31-1 2.31-2.39zm7.25-7.15a33.87 33.87 0 0 0 -6.13-3.66l1.66-2.55a47.12 47.12 0 0 1 6.34 3.48z"/><path d="m85.67 622.5a47.8 47.8 0 0 1 -2.52 5.58v17.7h-2.94v-13.1c-.52.68-1 1.28-1.53 1.85a20 20 0 0 0 -1.68-3.22 27.26 27.26 0 0 0 5.77-9.72zm15.2 4.21v12.18h-3.06v-1.35h-3.43v8.24h-3.1v-8.24h-3.35v1.54h-2.93v-12.37h6.26v-4.86h3.1v4.86zm-9.59 8v-5.1h-3.35v5.1zm6.53 0v-5.1h-3.43v5.1z"/><path d="m108.64 631.88v13.9h-3.07v-23.28h10v9.38zm0-7.15v1.38h4v-1.38zm4 4.94v-1.48h-4v1.48zm14.87 12.45c0 1.66-.34 2.57-1.38 3.06s-2.52.6-4.76.6a11.13 11.13 0 0 0 -.67-2.42h-6.45v1.33h-2.8v-11.25h10v9.22h2.31s.63-.15.63-.57v-10.16h-7.07v-9.43h10.19zm-13.26-6.4v1.56h4.29v-1.56zm4.29 5.38v-1.61h-4.29v1.61zm1.72-16.37v1.38h4.13v-1.38zm4.13 5v-1.53h-4.13v1.53z"/><path d="m145.85 628.66c-1.53.33-3.27.62-5 .83-.23 1.11-.49 2.26-.78 3.3a81.81 81.81 0 0 1 -4.08 11.9l-3.61-1.2a56.6 56.6 0 0 0 4.44-11.59c.19-.67.37-1.4.55-2.13-.6 0-1.17.06-1.69.06-1.25 0-2.21-.06-3.12-.11l-.08-3.22a24.78 24.78 0 0 0 3.25.21c.76 0 1.51 0 2.29-.08.1-.57.18-1.07.23-1.48a13.59 13.59 0 0 0 .11-2.6l3.92.31c-.18.7-.41 1.85-.54 2.42l-.21 1c1.45-.24 2.91-.52 4.31-.86zm-.52 8.44a8.83 8.83 0 0 0 -.36 2.16c0 1.12.65 2 3.4 2a29.52 29.52 0 0 0 5.35-.52l-.13 3.3a41.42 41.42 0 0 1 -5.24.36c-4.34 0-6.55-1.51-6.55-4.1a17.46 17.46 0 0 1 .44-3.43zm-1.51-6.47c1.43-.13 3.28-.26 4.94-.26 1.46 0 3 .08 4.52.23l-.08 3.1a36.16 36.16 0 0 0 -4.41-.31 37.6 37.6 0 0 0 -5 .28z"/><path d="m175.5 628.19c-2.68.41-6.76.91-10.21 1.09-.34 1.56-.76 3.2-1.17 4.44a12.55 12.55 0 0 1 6.39-1.61c4.16 0 6.91 2.24 6.91 5.51 0 5.8-5.56 7.87-13.87 7l-.91-3.32c5.64.9 11.33.23 11.33-3.57 0-1.53-1.35-2.83-3.85-2.83a8.84 8.84 0 0 0 -7.12 3 8.35 8.35 0 0 0 -.73 1.12l-3-1.09a42.12 42.12 0 0 0 2.94-8.63c-1.64 0-3.15-.13-4.44-.26v-3.19a36.91 36.91 0 0 0 5 .49c0-.39.13-.73.15-1a15.32 15.32 0 0 0 .13-2.6l3.64.16a25.08 25.08 0 0 0 -.6 2.62l-.15.78a60.71 60.71 0 0 0 9.51-1.22z"/><path d="m194 639.78c.05-.76.08-1.95.1-3.07-1.89 1-2.93 2-2.93 3.33 0 1.43 1.22 1.82 3.74 1.82a39.18 39.18 0 0 0 7.3-.76l-.1 3.36c-1.72.2-4.86.41-7.28.41-4 0-7.07-1-7.07-4.29s3.12-5.35 6.06-6.86a2 2 0 0 0 -1.79-.88 6.35 6.35 0 0 0 -4 1.77 31.88 31.88 0 0 0 -2.39 2.83l-2.76-2.05a25.34 25.34 0 0 0 5.67-7.07h-.31c-1 0-2.94-.05-4.34-.18v-3a32.67 32.67 0 0 0 4.52.29h1.25a13.93 13.93 0 0 0 .51-2.94l3.38.29c-.13.62-.31 1.5-.62 2.54a58.81 58.81 0 0 0 7.28-.75v3a81 81 0 0 1 -8.39.68 15.59 15.59 0 0 1 -1.49 2.6 8.05 8.05 0 0 1 2.91-.52 3.52 3.52 0 0 1 3.44 2c1.32-.62 2.41-1.07 3.48-1.53s1.89-.89 2.83-1.33l1.3 3a29.17 29.17 0 0 0 -3.07 1.09c-1.14.44-2.6 1-4.18 1.74 0 1.43.08 3.33.1 4.5z"/><path d="m223.86 639.86a30.5 30.5 0 0 0 8.31 3.14 12.53 12.53 0 0 0 -1.92 2.47 28.71 28.71 0 0 1 -8.91-4.26v4.54h-3v-4.44a29.21 29.21 0 0 1 -9 4.29 16.54 16.54 0 0 0 -2-2.55 31.63 31.63 0 0 0 8.6-3.19h-7.75v-2.47h10.11v-1h-7.15v-7c-.47.44-1 .86-1.48 1.27a9.75 9.75 0 0 0 -2.18-2.08 20.81 20.81 0 0 0 6.15-7.07l3.2.6a24.94 24.94 0 0 1 -1.4 2.24h3.69a20 20 0 0 0 1.14-2.81l3.48.42c-.44.83-.93 1.66-1.4 2.39h7.77v2.39h-8.12v1.06h6.89v2h-6.89v1.09h6.91v2h-6.91v1.11h8.91v2.33h-9.53v1h10.21v2.47zm-4.86-13.15h-4.91v1.06h4.91zm0 3.09h-4.91v1.09h4.91zm-4.91 4.2h4.91v-1.12h-4.91z"/><path d="m251.19 626.81a8.48 8.48 0 0 1 6.76 8.68c0 5.46-3.9 8.58-9.28 9.38l-2-3c5.66-.49 7.87-3.38 7.87-6.6a5.52 5.52 0 0 0 -4.16-5.67 31.33 31.33 0 0 1 -3.48 8.19c.47.54.94 1.06 1.4 1.53l-2.57 2.06c-.31-.34-.62-.68-.88-1-1.74 1.87-3.17 2.76-5.07 2.76-2.13 0-4.11-1.82-4.11-5.15a11.3 11.3 0 0 1 3.8-8.13c-.23-.68-.47-1.38-.68-2.08a17.41 17.41 0 0 0 -1-2.68l3.38-1c.16.83.37 1.69.57 2.44.13.5.29 1 .47 1.59a13.51 13.51 0 0 1 5.82-1.53c.11-.44.18-.86.26-1.25a13.49 13.49 0 0 0 .18-2.44l3.56.34c-.2.7-.44 1.94-.59 2.59zm-8.18 11a27.39 27.39 0 0 1 -2.39-4.93 7.84 7.84 0 0 0 -1.88 4.83c0 1.25.53 2 1.46 2s1.87-.71 2.8-1.86zm.13-6.93a25.9 25.9 0 0 0 1.86 4.12 31.09 31.09 0 0 0 2.28-5.51 9.91 9.91 0 0 0 -4.14 1.43z"/><path d="m264.91 625.56c2.13-.2 6.39-.57 11.1-1 2.65-.21 5.48-.37 7.27-.45v3.33a26.8 26.8 0 0 0 -5 .34 7.85 7.85 0 0 0 -5.43 7.2c0 4.23 4 5.74 8.32 6l-1.2 3.56c-5.4-.36-10.49-3.27-10.49-8.83a10.3 10.3 0 0 1 3.79-7.93c-2.21.24-7.64.81-10.63 1.46l-.31-3.54c1.07-.03 2.06-.08 2.58-.14z"/><path d="m292.9 628.14c0 1.66 0 3.61.15 5.45.37 3.72 1.15 6.24 2.76 6.24 1.22 0 2.23-3 2.73-5l2.59 3.12c-1.71 4.47-3.32 6.05-5.4 6.05-2.81 0-5.28-2.54-6-9.46-.24-2.36-.29-5.35-.29-6.94a15.47 15.47 0 0 0 -.18-2.59h3.95a20.66 20.66 0 0 0 -.31 3.13zm17.87 10.57-3.4 1.3c-.39-4.13-1.77-10.18-4.57-13.35l3.27-1.1c2.44 2.99 4.42 9.2 4.7 13.15z"/><path d="m332.71 643.65a19.69 19.69 0 0 0 -5.2-3.56v.91c0 2.21-1.66 3.9-5.06 3.9-4.11 0-6.29-1.56-6.29-4.29s2.39-4.42 6.36-4.42c.55 0 1.07 0 1.59.08-.05-.78-.08-1.58-.1-2.34h-1.31c-1.51 0-4.47-.13-6.18-.34v-3a46.07 46.07 0 0 0 6.21.47h1.27v-2.68h-1.22a41.77 41.77 0 0 1 -5.58-.39v-2.93a34.24 34.24 0 0 0 5.59.49h1.21v-1.17a10.58 10.58 0 0 0 -.13-1.76h3.51a15.14 15.14 0 0 0 -.18 1.82v1a53.83 53.83 0 0 0 6.13-.63l.08 3c-1.69.15-3.77.36-6.24.49v2.68c2.6-.11 4.75-.34 6.86-.6v3c-2.31.26-4.32.44-6.81.52.05 1 .1 2 .18 3a19.92 19.92 0 0 1 7.2 3.89zm-8.48-4.65a14.15 14.15 0 0 0 -2.1-.18c-1.82 0-2.81.7-2.81 1.59s.91 1.59 2.68 1.59c1.38 0 2.26-.41 2.26-1.89 0-.28 0-.64-.03-1.11z"/><path d="m361.5 628.68c-1.56-.08-4-.13-7.46-.13v3.82a6.35 6.35 0 0 1 1 3.56c0 3.35-2 7.62-8.27 9.38l-2.77-2.75c2.6-.55 4.86-1.4 6.29-2.94a5.37 5.37 0 0 1 -1.17.13 4.53 4.53 0 0 1 -4.44-4.73 4.84 4.84 0 0 1 5.14-4.8 6.45 6.45 0 0 1 1 .07v-1.71c-3.9 0-7.87.21-11 .39l-.08-3.12c2.94 0 7.61-.13 11.07-.18a5.73 5.73 0 0 0 0-.78 18.13 18.13 0 0 0 -.23-2.24h3.74c-.08.42-.15 1.8-.18 2.21v.78h7.46zm-11.72 8.21c1.06 0 2-.8 1.68-3a1.83 1.83 0 0 0 -1.68-.91 1.93 1.93 0 0 0 -2 2 1.91 1.91 0 0 0 2 1.91z"/><path d="m372.54 641.29a4.2 4.2 0 1 1 -4.21-4.21 4.2 4.2 0 0 1 4.21 4.21zm-1.87 0a2.33 2.33 0 1 0 -2.34 2.31 2.33 2.33 0 0 0 2.34-2.31z"/><path d="m8.32 757.11c.93.65 3.09 2.36 3.69 2.83l-1.8 2.21a24 24 0 0 0 -1.89-2v5.54h-3v-5.23a18.71 18.71 0 0 1 -3.32 3.64 11.22 11.22 0 0 0 -2-2.18 17.12 17.12 0 0 0 4.67-5h-3.92v-2.6h4.58v-2h-4.65v-2.55h2.39a12.11 12.11 0 0 0 -.78-2.85l1.58-.37h-2.87v-2.55h4.33v-2.36h3v2.36h4.31v2.52h-2.64l1.51.29c-.47 1.11-.88 2.15-1.25 2.93h2.63v2.55h-4.57v2h4.28v2.6h-4.28zm-3.59-10.58a10.23 10.23 0 0 1 .88 2.86l-1.3.36h5.1l-1.72-.36a18.11 18.11 0 0 0 1-2.86zm19.9 6.32h-2.46v12.7h-3v-12.7h-2.64c0 3.87-.57 9.35-4 12.91a6.9 6.9 0 0 0 -2.2-2.1c3-3.17 3.3-7.59 3.3-11.18v-9l1.82.53a30.56 30.56 0 0 0 6.55-2.31l2.5 2.3a42 42 0 0 1 -8 2.39v3.61h8.1z"/><path d="m35.7 761.81a41 41 0 0 0 -2.6-3.74 12.82 12.82 0 0 1 -4.23 7.3 11 11 0 0 0 -2.11-2.21c2.86-2.1 3.77-5.66 4-8.94h-3.63v-2.8h3.77v-3.28h-3.38v-2.73h3.38v-3.71h2.88v3.71h3.22v2.73h-3.22v3.28h3.66v2.8h-3.76l-.06.63c1.1 1.11 3.59 4 4.16 4.7zm12.61.7c.41 0 .52-.34.57-3.06a8.48 8.48 0 0 0 2.54 1.11c-.26 3.69-1 4.63-2.8 4.63h-1.72c-2.28 0-2.78-.86-2.78-3.4v-4.53h-1.32c-.45 3.82-1.61 6.73-6.19 8.48a8.19 8.19 0 0 0 -1.61-2.32c3.79-1.27 4.6-3.4 4.94-6.16h-1.72v-14.91h11.54v14.91h-2.76v4.47c0 .7.05.78.44.78zm-7.23-15.9h5.69v-1.53h-5.69zm0 4h5.69v-1.53h-5.69zm0 4h5.69v-1.61h-5.69z"/><path d="m69.85 745a11.31 11.31 0 0 0 1.48-.11 2.46 2.46 0 0 1 0-.49 3.11 3.11 0 1 1 3.11 3.09 1.83 1.83 0 0 1 -.33 0l-.21.78c-.6 2.54-1.72 6.57-3.9 9.46a20.58 20.58 0 0 1 -10.45 7.17l-2.83-3.09c5.17-1.23 8.08-3.46 10.19-6.11a16.73 16.73 0 0 0 3.06-7.33h-12.15c-1.2 0-2.42 0-3.1.1v-3.66a30.21 30.21 0 0 0 3.1.21zm6-.6a1.5 1.5 0 1 0 -3 0 1.5 1.5 0 0 0 3 0z"/><path d="m101.37 760.28v3.61h-3.54v-1.43h-12.5v1.43h-3.56c0-.13.08-2.39.08-3.64v-12.71c0-.72 0-1.79 0-2.52 1.06 0 2 .06 2.75.06h14.3c.65 0 1.63 0 2.57-.06v2.52zm-16-11.9v10.78h12.51v-10.78z"/><path d="m114.64 752.59-1.89 2.91c-1.48-1-4.19-2.78-5.93-3.72l1.87-2.86a68.89 68.89 0 0 1 5.95 3.67zm2.08 5.92a26.32 26.32 0 0 0 10.11-9.74l2 3.53a31.42 31.42 0 0 1 -10.31 9.36 32.7 32.7 0 0 1 -8.68 3.19l-2-3.4a27.93 27.93 0 0 0 8.88-2.94zm1.9-11.8-1.92 2.86c-1.46-1-4.16-2.75-5.88-3.71l1.87-2.86c1.72.93 4.58 2.78 5.93 3.71zm7.74.81-2.26 1a23.65 23.65 0 0 0 -2.28-4.08l2.15-.91a36.2 36.2 0 0 1 2.39 3.99zm3.64-1.4-2.21 1a25.32 25.32 0 0 0 -2.44-4l2.21-.91a33.24 33.24 0 0 1 2.44 3.91z"/><path d="m151.28 760.9c.73 0 1.46-.1 2-.15v3.4a13.88 13.88 0 0 0 -2-.13h-14.34a15.89 15.89 0 0 0 -2.13.13v-3.4c.67.07 1.48.15 2.13.15h5.3v-8.37h-4.05c-.55 0-1.49.06-2.06.11v-3.28a12.88 12.88 0 0 0 2.06.13h11.9a17.12 17.12 0 0 0 2-.13v3.28c-.65 0-1.45-.11-2-.11h-4.45v8.37z"/><path d="m180.36 747.29a10.13 10.13 0 0 0 -.86 1.87 27 27 0 0 1 -4.52 8.67 24.43 24.43 0 0 1 -10.5 7.33l-3.06-2.75a20.78 20.78 0 0 0 10.47-6.41 18.7 18.7 0 0 0 3.69-7.09h-7.31a29.66 29.66 0 0 1 -6.54 6.28l-2.91-2.19a22.88 22.88 0 0 0 8.1-8.37 12.2 12.2 0 0 0 1.17-2.73l3.8 1.25c-.63.91-1.28 2.08-1.59 2.65l-.08.13h5.23a8.45 8.45 0 0 0 2.26-.31z"/><path d="m202 757.47a74.67 74.67 0 0 0 -9.38-3.87v7.4c0 .76.13 2.58.24 3.62h-4.06a27.3 27.3 0 0 0 .26-3.62v-15a17.4 17.4 0 0 0 -.26-3.15h4.06a27 27 0 0 0 -.24 3.15v3.82a85 85 0 0 1 10.87 4z"/><path d="m219.13 761.47c1-.13 1.71-.26 2.39-.41 3.3-.78 5.84-3.15 5.84-6.89 0-3.56-1.92-6.21-5.37-6.81a56.14 56.14 0 0 1 -1.54 7c-1.53 5.2-3.76 8.37-6.57 8.37s-5.25-3.14-5.25-7.48c0-5.93 5.17-11 11.85-11 6.37 0 10.39 4.44 10.39 10.06 0 5.4-3.32 9.25-9.82 10.23zm-2-7.79a42.19 42.19 0 0 0 1.37-6.24 8.07 8.07 0 0 0 -6.5 7.46c0 2.6 1 3.87 2 3.87s2.09-1.61 3.13-5.09z"/><path d="m239.68 755.78a10.78 10.78 0 0 0 -.41 2.6c0 1.64 1.53 2.83 5.24 2.83a36.72 36.72 0 0 0 9.05-1v3.64a40.93 40.93 0 0 1 -8.94.86c-5.89 0-8.83-2-8.83-5.51a17.79 17.79 0 0 1 .49-3.72zm13-13.64c.65 1 1.58 2.6 2.08 3.56l-2.11.91c-.21-.42-.47-.91-.73-1.43v3.09c-1.79.13-5 .31-7.43.31-2.7 0-4.94-.13-7-.28v-3.43a66.11 66.11 0 0 0 7 .31c2.47 0 5.3-.16 7.28-.34a18.47 18.47 0 0 0 -1.12-1.87zm3.06-1.17a28.55 28.55 0 0 1 2.11 3.53l-2.06.89a26.92 26.92 0 0 0 -2.1-3.59z"/><path d="m283 752.69c-1.5 1.25-3.22 2.6-4.7 3.64a13.35 13.35 0 0 0 5.17 6.47 13.47 13.47 0 0 0 -2.21 2.65c-4.23-2.91-6.31-8.19-7.56-14.76a21.93 21.93 0 0 1 -2.29 2.7v7.85c1.59-.31 3.28-.68 4.91-1l.32 2.78c-3.51.86-7.28 1.69-10.14 2.31l-.85-2.93 2.83-.52v-5.88a25.05 25.05 0 0 1 -2.24 1.56 25.42 25.42 0 0 0 -1.61-2.16v10.21h-2.91v-13.61a22.31 22.31 0 0 1 -2 2.32 20.59 20.59 0 0 0 -1.61-3.22 28 28 0 0 0 6.11-9.62l2.85.94c-.44 1.09-.93 2.2-1.48 3.32h6.89v-4h3.14v4h6.76v2.86h-6.16a39.94 39.94 0 0 0 1.14 5.17 30.51 30.51 0 0 0 3.33-3.27zm-18.37 2a20.76 20.76 0 0 0 6.86-6.13h-6v-2.73c-.29.57-.58 1.12-.89 1.66z"/><path d="m294.77 761.4a31.4 31.4 0 0 0 -2.34-3.23v7.51h-2.76v-6.68a19.84 19.84 0 0 1 -3.5 4.73 16.45 16.45 0 0 0 -1.3-2.83 21 21 0 0 0 4.1-5.3h-3.06v-7.12h3.76v-1.67h-4.13v-2.72h4.13v-2.66h2.76v2.66h4v2.72h-4v1.67h3.9v7.12h-3.23c1.17 1.09 3 2.88 3.46 3.4zm-6.58-8.11h1.69v-2.47h-1.69zm5.75-2.47h-1.72v2.47h1.72zm8.31 11.38a18.88 18.88 0 0 1 -5.69 3.56 17.65 17.65 0 0 0 -2-2 16 16 0 0 0 5.22-3.19zm6.24-1.58h-10.84v-13.7h3.35c.1-.6.21-1.22.28-1.82h-4.57v-2.65h12.6v2.65h-4.78c-.18.63-.39 1.25-.6 1.82h4.58zm-2.91-11.41h-5.15v1.61h5.15zm0 3.74h-5.15v1.61h5.15zm0 3.77h-5.15v1.61h5.15zm.13 4.1a35.67 35.67 0 0 1 4.21 3.38l-2.42 1.56a34.93 34.93 0 0 0 -4.05-3.53z"/><path d="m316.93 765.24a48.27 48.27 0 0 0 -5.59-5.74l2.71-2.34a48.93 48.93 0 0 1 5.66 5.69z"/><path d="m8.6 815.07c-.83.26-1.66.52-2.49.75v6.58c0 1.43-.24 2.21-1 2.7a6.71 6.71 0 0 1 -3.61.57 11.47 11.47 0 0 0 -.78-2.86 18.24 18.24 0 0 0 2.16 0c.31 0 .44-.1.44-.44v-5.74c-.86.26-1.72.49-2.47.7l-.67-3c.88-.19 2-.47 3.14-.76v-4.49h-2.75v-2.84h2.73v-4.88h2.81v4.88h2.36v2.84h-2.36v3.74l2.1-.6zm10.94 1.93a15.78 15.78 0 0 0 5.51 5.1 11.35 11.35 0 0 0 -2 2.34 19 19 0 0 1 -5-5.1v6.16h-2.9v-6.3a18.06 18.06 0 0 1 -5.72 5.36 13.55 13.55 0 0 0 -2-2.42 15.56 15.56 0 0 0 6.08-5.14h-4.51v-2.67h6.11v-2.63h2.91v2.63h6.26v2.67zm4.29-13a73.25 73.25 0 0 1 -14.32 2 10.48 10.48 0 0 0 -.8-2.47 69.3 69.3 0 0 0 13.07-1.95zm-13.18 8.16a22.17 22.17 0 0 0 -1.58-5l2.44-.62a19.89 19.89 0 0 1 1.77 4.86zm4.45-1a17.37 17.37 0 0 0 -1-4.78l2.57-.49a16.21 16.21 0 0 1 1.2 4.73zm3.51.55a34.4 34.4 0 0 0 3-6.26l2.94 1.06a58.54 58.54 0 0 1 -3.55 6.17z"/><path d="m48.88 822c0 1.66-.37 2.49-1.41 3s-2.65.57-5 .55a12.06 12.06 0 0 0 -1-3c1.45.08 3.17.06 3.64.06s.67-.16.67-.63v-3.9h-5.45v7.25h-3.12v-7.25h-5.3a14.79 14.79 0 0 1 -3.28 7.72 11.58 11.58 0 0 0 -2.44-2c2.83-3.12 3.07-7.74 3.07-11.38v-9.28h19.62zm-11.67-6.84v-3.16h-4.89v.47c0 .83 0 1.76-.07 2.72zm-4.89-9.09v3h4.89v-3zm13.49 0h-5.48v3h5.48zm0 9.09v-3.16h-5.48v3.19z"/><path d="m59.19 803.58a20.16 20.16 0 0 0 -.62 2.29 64.21 64.21 0 0 0 -1.25 9.43 12.21 12.21 0 0 0 .11 1.67c.36-.91.78-1.77 1.14-2.6l1.61 1.25a60.55 60.55 0 0 0 -1.84 6.31 7.37 7.37 0 0 0 -.16 1.2v1.06l-3 .21a32.86 32.86 0 0 1 -1-8.42 72.54 72.54 0 0 1 1.06-10.19 19.69 19.69 0 0 0 .26-2.52zm6 12.71a8.39 8.39 0 0 0 -.31 2.16c0 1.14 1 1.82 3.59 1.82a29.47 29.47 0 0 0 6.44-.68l.08 3.48a35.1 35.1 0 0 1 -6.65.52c-4.45 0-6.55-1.61-6.55-4.23a15.74 15.74 0 0 1 .44-3.35zm9-11v3.33a70.15 70.15 0 0 1 -11 0v-3.33a51.82 51.82 0 0 0 11.02-.02z"/><path d="m82.6 811.17v14.5h-3v-23.28h10v8.78zm0-6.65v1.27h4.08v-1.27zm4.08 4.55v-1.35h-4.08v1.35zm14.82 13.33c0 1.43-.24 2.21-1.07 2.7a7.21 7.21 0 0 1 -3.59.57 9.42 9.42 0 0 0 -.62-2.41 8.82 8.82 0 0 0 -.8 1.24 8.75 8.75 0 0 1 -4.92-3.27c-.91 1.25-2.49 2.36-5.19 3.25a9.82 9.82 0 0 0 -1.8-2c2.91-.78 4.29-1.9 4.92-3h-4.43v-2.26h4.91v-1.36h-4.56v-2.15h2a10.69 10.69 0 0 0 -.85-1.69l2.36-.65a8.57 8.57 0 0 1 1.25 2.34h2.7c.31-.78.67-1.72.88-2.37l2.84.73-1.12 1.64h2.26v2.15h-5v1.36h5.33v2.26h-4.88a7.8 7.8 0 0 0 5 2.83 5.31 5.31 0 0 0 -.5.54 11.35 11.35 0 0 0 1.46 0c.31 0 .42-.13.42-.44v-11.16h-7.19v-8.86h10.19zm-7.25-17.88v1.27h4.21v-1.27zm4.21 4.6v-1.4h-4.21v1.4z"/><path d="m127.64 808.57c-1.56-.07-4-.13-7.46-.13v3.82a6.37 6.37 0 0 1 1 3.56c0 3.36-2 7.62-8.27 9.39l-2.73-2.76c2.6-.54 4.86-1.4 6.29-2.94a5.37 5.37 0 0 1 -1.17.13 4.53 4.53 0 0 1 -4.44-4.72 4.84 4.84 0 0 1 5.14-4.81 5.41 5.41 0 0 1 1 .08v-1.72c-3.9 0-7.87.21-11 .39l-.08-3.12c2.94 0 7.61-.13 11.07-.18a5.73 5.73 0 0 0 0-.78 17.72 17.72 0 0 0 -.23-2.23h3.74c-.08.41-.15 1.79-.18 2.2v.78h7.46zm-11.72 8.22c1.06 0 2-.81 1.69-3a1.84 1.84 0 0 0 -1.69-.91 2 2 0 1 0 0 3.95z"/><path d="m148.5 805.59c-.62.39-1.22.78-1.79 1.16-1.38 1-4.08 3.25-5.69 4.55a8.76 8.76 0 0 1 2.41-.28c4.37 0 7.7 2.73 7.7 6.47 0 4-3.1 7.27-9.31 7.27-3.58 0-6.29-1.63-6.29-4.21 0-2.08 1.9-4 4.63-4a5.18 5.18 0 0 1 5.48 4.39 3.74 3.74 0 0 0 2.11-3.5c0-2.32-2.34-3.88-5.33-3.88-3.95 0-6.52 2.11-9.28 5.23l-2.33-2.42c1.81-1.48 4.91-4.11 6.44-5.35s4.11-3.35 5.38-4.47c-1.33 0-4.86.18-6.21.28a18.83 18.83 0 0 0 -2.11.21l-.1-3.35a22.94 22.94 0 0 0 2.34.13c1.35 0 6.86-.13 8.31-.26a12.38 12.38 0 0 0 2-.26zm-5.82 16.19c-.16-1.67-1.12-2.76-2.52-2.76-1 0-1.58.57-1.58 1.22 0 1 1.09 1.61 2.59 1.61a14.19 14.19 0 0 0 1.51-.07z"/><path d="m161.73 815.75a10.27 10.27 0 0 0 -.42 2.59c0 1.64 1.54 2.84 5.25 2.84a36.11 36.11 0 0 0 9-1v3.64a41 41 0 0 1 -8.94.86c-5.9 0-8.83-2-8.83-5.51a17.15 17.15 0 0 1 .49-3.72zm13-13.65c.65 1 1.59 2.6 2.08 3.56l-2.1.91c-.21-.41-.47-.91-.73-1.43v3.1c-1.79.13-5 .31-7.43.31-2.71 0-4.94-.13-7-.29v-3.43a66.11 66.11 0 0 0 7 .31c2.47 0 5.3-.15 7.28-.33a21.47 21.47 0 0 0 -1.12-1.87zm3.07-1.17a29.26 29.26 0 0 1 2.1 3.54l-2.05.88a27.26 27.26 0 0 0 -2.1-3.58z"/><path d="m197.77 821.31a77.58 77.58 0 0 1 7.4 3l-3.58 1.37a52.34 52.34 0 0 0 -6.76-3.06l2.34-1.35h-7.59l2.37 1a32.38 32.38 0 0 1 -8.11 3.4c-.55-.6-1.64-1.71-2.29-2.26a30.79 30.79 0 0 0 7.15-2.18h-3.85v-10.6h8.63a7.42 7.42 0 0 0 -1.79-1.9 6.41 6.41 0 0 0 1.5-1.3h-2.33v2.7h-2.76v-2.7h-2.29a8.55 8.55 0 0 1 -2.49 4.31 8.82 8.82 0 0 0 -2-1.92 7.05 7.05 0 0 0 2.21-5.56v-2.26l2 .5a33 33 0 0 0 5.4-1l1.9 1.82a33.27 33.27 0 0 1 -6.6 1.11v.13a7 7 0 0 1 0 .78h7.15v2.11a4.74 4.74 0 0 0 .91-3v-2.45l2.08.49a41.09 41.09 0 0 0 5.82-1.06l1.87 1.84a41 41 0 0 1 -7.09 1.12v.13a6.53 6.53 0 0 1 0 .75h8.03v2.24h-3.27v2.73h-2.73v-2.73h-2.62a6.92 6.92 0 0 1 -2.55 3.2h8.47v10.6zm-9.93-7.64h11.28v-1.12h-11.28zm0 2.88h11.28v-1.12h-11.28zm0 2.89h11.28v-1.15h-11.28z"/><path d="m212.09 812.06v13.61h-3.09v-23.28h10v9.67zm0-7.31v1.41h4v-1.41zm4 5v-1.48h-4v1.48zm1.56 12.25v1.45h-2.89v-9.61h10.06v8.16zm0-5.61v3.06h4.28v-3.05zm13.28 5.61c0 1.72-.37 2.6-1.46 3.1s-2.7.59-5.09.59a11.33 11.33 0 0 0 -1-3.17 35.75 35.75 0 0 0 3.76 0c.5 0 .68-.15.68-.62v-9.85h-7v-9.69h10.19zm-7.25-17.25v1.43h4.1v-1.43zm4.1 5v-1.5h-4.1v1.5z"/><path d="m241.58 825.21a49.16 49.16 0 0 0 -5.59-5.75l2.7-2.34a49 49 0 0 1 5.67 5.69z"/><path d="m21.49 864.3a21.07 21.07 0 0 0 -1.07 2.32 36.56 36.56 0 0 1 -3.5 7.06 67.1 67.1 0 0 1 6.18 5.72l-2.68 3a50.82 50.82 0 0 0 -5.74-5.72 32.29 32.29 0 0 1 -9.66 8l-3.02-2.68a28.4 28.4 0 0 0 9.87-7.66 65.36 65.36 0 0 0 -7-4.91l2.23-2.68c2.08 1.3 4.76 3.12 6.86 4.68a28 28 0 0 0 2.86-6.16 19.5 19.5 0 0 0 .62-2.39z"/><path d="m46.9 870.57a20.64 20.64 0 0 0 2.37-.16v3.38c-.65 0-1.64-.08-2.37-.08h-6.26a16.64 16.64 0 0 1 -1.64 6.68 12.47 12.47 0 0 1 -5.23 5l-3-2.21a10.56 10.56 0 0 0 4.71-3.72 11.27 11.27 0 0 0 1.52-5.75h-7.12c-.75 0-1.76 0-2.49.1v-3.4a20.55 20.55 0 0 0 2.49.16zm-13.72-3.57c-.88 0-2 0-2.78.08v-3.35a19.46 19.46 0 0 0 2.78.2h8.5a20.54 20.54 0 0 0 2.81-.2v3.35c-.89-.05-1.9-.08-2.81-.08zm12.84-.6a37.06 37.06 0 0 0 -2.02-3.58l2.08-.86c.64 1 1.55 2.6 2.05 3.56zm3.12-1.19a31.93 31.93 0 0 0 -2.08-3.59l2-.86a33.76 33.76 0 0 1 2.08 3.54z"/><path d="m71.61 869.5a32.39 32.39 0 0 1 -5.84 4.7v8.66a14.1 14.1 0 0 0 .18 2.8h-3.85a26.46 26.46 0 0 0 .13-2.8v-6.68a48.51 48.51 0 0 1 -7.33 2.82l-1.74-3a35.23 35.23 0 0 0 9.18-3.51 25.9 25.9 0 0 0 6.66-5.41z"/><path d="m99.7 865.78a14.82 14.82 0 0 0 -1 1.35 26 26 0 0 1 -6.26 7.12l-2.68-2.15a15.28 15.28 0 0 0 4.78-4.84h-13.54c-1.09 0-1.95.08-3.17.19v-3.62a20.14 20.14 0 0 0 3.17.26h14a12.57 12.57 0 0 0 2.62-.23zm-10.6 3.51c0 6.45-.13 11.75-7.22 15.54l-3-2.47a10.16 10.16 0 0 0 2.73-1.43c3.3-2.28 3.92-5 3.92-9.3a14.44 14.44 0 0 0 -.18-2.34z"/><path d="m126 865.08c-.55 5.67-1.8 10.14-3.74 13.62a14.34 14.34 0 0 0 4.7 4.21 11.2 11.2 0 0 0 -2.13 2.55 16.57 16.57 0 0 1 -4.47-4 18 18 0 0 1 -4.63 4 12.62 12.62 0 0 0 -1.71-2.27v2.45h-3v-4.16c-3 .52-6 1-8.42 1.35l-.6-3.09 2.39-.26v-13.8h-1.76v-2.86h13v1.85h7.77l.52-.08zm-18.66.6v2.47h3.66v-2.47zm0 7.85h3.66v-2.6h-3.69zm0 5.58 3.69-.49v-2.34h-3.69zm6.68 3.67a14.15 14.15 0 0 0 4.49-4.13 36.91 36.91 0 0 1 -3.5-10.29l3-.6a31.44 31.44 0 0 0 2.39 7.69 29.46 29.46 0 0 0 2.23-7.74h-7.66v-2h-.97z"/><path d="m139 877c-.52-.83-1.35-2-2.21-3.14v11.74h-3.12v-10.05a22.9 22.9 0 0 1 -3.17 5.83 15.08 15.08 0 0 0 -1.58-3.1 23.75 23.75 0 0 0 4.36-8.62h-3.61v-2.94h4v-5.35h3.12v5.35h3.28v2.94h-3.28v.7a55.69 55.69 0 0 1 4 4zm14.47-7.35h-2.47v12.16c0 1.79-.39 2.6-1.46 3.09s-2.7.6-4.94.6a11.57 11.57 0 0 0 -1-3.12c1.43.05 3 .05 3.49.05s.65-.16.65-.62v-7.9a30.35 30.35 0 0 1 -6.92 7.87 12.41 12.41 0 0 0 -2.23-2.55 25 25 0 0 0 8.21-9.58h-6v-2.94h6.92v-5.3h3.28v5.3h2.46z"/><path d="m169.32 868.23a37.61 37.61 0 0 1 -4.47.88 47.93 47.93 0 0 1 -5.51 11l-3.15-1.59a39.07 39.07 0 0 0 5.25-9.09c-.44 0-.88 0-1.32 0-1.07 0-2.11 0-3.22-.07l-.24-3a32.77 32.77 0 0 0 3.43.18c.75 0 1.53 0 2.31-.07a21.33 21.33 0 0 0 .7-4.32l3.57.37c-.21.83-.52 2.13-.89 3.5a26.42 26.42 0 0 0 3.46-.8zm3.37 2.31c-.07 1.09 0 2.16 0 3.3 0 .73.08 2 .16 3.25a17.11 17.11 0 0 1 5.33 3.3l-1.72 2.75a23.33 23.33 0 0 0 -3.48-2.73v.24c0 2.39-1.3 4.26-5 4.26-3.2 0-5.72-1.43-5.72-4.26 0-2.52 2.1-4.47 5.69-4.47.6 0 1.2.05 1.74.1-.08-1.92-.21-4.18-.28-5.74zm-2.83 8.52a9.4 9.4 0 0 0 -2.08-.26c-1.48 0-2.44.63-2.44 1.54s.81 1.61 2.21 1.61a2.08 2.08 0 0 0 2.31-2.39zm7.25-7.14a34.26 34.26 0 0 0 -6.18-3.67l1.66-2.54a45 45 0 0 1 6.34 3.48z"/><path d="m200.13 869c-.78.46-1.58.91-2.54 1.37a71.38 71.38 0 0 0 -6.37 3.46c-2.13 1.4-3.56 2.88-3.56 4.68s1.77 2.83 5.35 2.83a43 43 0 0 0 8.4-.94l-.06 3.69a47.2 47.2 0 0 1 -8.26.65c-5.12 0-9-1.43-9-5.87 0-2.83 1.79-4.94 4.26-6.76-1.17-2.18-2.42-4.93-3.58-7.66l3.24-1.33a60 60 0 0 0 3.23 7.12c1.89-1.11 3.71-2 4.91-2.73a15.84 15.84 0 0 0 2.36-1.53zm.39-6.34a35.82 35.82 0 0 1 2.08 3.56l-2.1.88a30.72 30.72 0 0 0 -2-3.61zm3.1-1.2a35.63 35.63 0 0 1 2.07 3.56l-2.05.88a27.93 27.93 0 0 0 -2.1-3.58z"/><path d="m219.13 881.4c1-.13 1.71-.26 2.39-.41 3.3-.78 5.84-3.15 5.84-6.89 0-3.56-1.92-6.21-5.37-6.81a56.93 56.93 0 0 1 -1.54 7c-1.53 5.2-3.76 8.37-6.57 8.37s-5.25-3.15-5.25-7.49c0-5.92 5.17-11 11.85-11 6.37 0 10.39 4.44 10.39 10.05 0 5.41-3.32 9.25-9.82 10.24zm-2-7.79a42.19 42.19 0 0 0 1.37-6.24 8.06 8.06 0 0 0 -6.52 7.46c0 2.59 1 3.87 2 3.87s2.11-1.61 3.15-5.09z"/><path d="m243.79 872.72a20.94 20.94 0 0 1 4.93-.67c3.95 0 7.07 2.1 7.07 5.64 0 3-1.58 5.32-5.66 6.34a20.81 20.81 0 0 1 -3.38.41l-1.2-3.3a19.22 19.22 0 0 0 3.17-.18c2.08-.36 3.75-1.43 3.75-3.3s-1.56-2.76-3.8-2.76a17.93 17.93 0 0 0 -4.83.71c0 2 .13 4 .13 4.91 0 3.19-1.17 4-2.83 4-2.52 0-6.08-2.15-6.08-4.88 0-2.26 2.62-4.57 5.76-5.95 0-.6 0-1.2 0-1.79v-2.16c-.5 0-1 0-1.38 0-1.17 0-2.47 0-3.59-.13l-.05-3.12a26.87 26.87 0 0 0 3.56.21h1.48c0-.91 0-1.66 0-2.11a20.09 20.09 0 0 0 -.18-2.26h3.53c0 .47-.15 1.59-.21 2.24s-.05 1.19-.07 1.84a34.88 34.88 0 0 0 4.73-1l.07 3.22a49.31 49.31 0 0 1 -4.91.81v2.31zm-2.79 7.28c0-.65 0-1.82-.07-3.17-1.59.8-2.63 1.87-2.63 2.78s1.2 1.5 1.87 1.5c.42-.05.83-.28.83-1.11zm10.61-14.82a57.06 57.06 0 0 1 6.31 3.62l-1.56 2.65a38.76 38.76 0 0 0 -6.18-3.75z"/><path d="m264.05 872v13.62h-3.05v-23.27h9.92v9.65zm0-7.3v1.4h4v-1.4zm4 5v-1.5h-4v1.48zm1.56 12.3v1.46h-2.88v-9.62h10.06v8.16zm0-5.61v3.07h4.29v-3.07zm13.28 5.61c0 1.71-.36 2.59-1.45 3.09s-2.7.6-5.1.6a10.89 10.89 0 0 0 -1-3.17c1.5.1 3.27.07 3.76 0s.68-.16.68-.63v-9.84h-7v-9.7h10.18zm-7.25-17.26v1.43h4.11v-1.43zm4.11 5v-1.54h-4.11v1.51z"/><path d="m291.86 868c0 1.67 0 3.61.15 5.46.37 3.72 1.15 6.24 2.76 6.24 1.22 0 2.23-3 2.73-5.05l2.59 3.12c-1.71 4.47-3.32 6.06-5.4 6.06-2.81 0-5.28-2.55-6-9.46-.24-2.37-.29-5.35-.29-6.94a14.52 14.52 0 0 0 -.18-2.6h3.95a20.66 20.66 0 0 0 -.31 3.17zm17.88 10.58-3.41 1.3c-.39-4.13-1.77-10.19-4.57-13.36l3.27-1.09c2.44 2.98 4.42 9.19 4.71 13.14z"/><path d="m325.71 861.39a26.14 26.14 0 0 0 11.13 8.94 14.74 14.74 0 0 0 -2 2.78 29.86 29.86 0 0 1 -4-2.47v1.8h-12.92v-1.82a35.9 35.9 0 0 1 -4 2.54 12.36 12.36 0 0 0 -1.95-2.52 27.47 27.47 0 0 0 10.58-9.25zm-9.51 13.61h16.48v10.65h-3.17v-1h-10.27v1h-3zm13.39-5.3a28.37 28.37 0 0 1 -5.33-5.28 26.6 26.6 0 0 1 -5.17 5.28zm-10.35 8v4.3h10.27v-4.23z"/><path d="m349.54 867.39c-.34.45-.88 1.28-1.32 2 0 .26 0 .5-.05.76a12.51 12.51 0 0 1 7.56-2.68 6.8 6.8 0 0 1 7.09 6.94c0 5.2-3.25 8.31-9.64 9.59l-1.53-3.12c4.52-.7 7.74-2.52 7.74-6.55a3.92 3.92 0 0 0 -4.18-3.82 10.76 10.76 0 0 0 -7.3 3.3c0 .73-.06 1.46-.06 2.13 0 2.11 0 4.26.16 6.68 0 .47.13 1.4.18 2h-3.53c0-.54.07-1.48.07-1.89.06-2 .06-3.48.11-5.67-1.09 1.64-2.37 3.51-3.25 4.76l-2-2.86c1.46-1.77 4.06-5.2 5.51-7.35l.11-1.8-4.68.6-.31-3.3a18.88 18.88 0 0 0 2.23 0c.76 0 1.87-.18 3-.33.06-1 .11-1.69.11-2a13.65 13.65 0 0 0 -.11-2.28l3.77.1c-.15.73-.36 2-.57 3.66z"/><path d="m385.22 863.08c-.08.39-.13 1.51-.16 2.21 0 1-.05 1.92-.07 2.78l1.94-.13 2.47-.18v3.17c-.44 0-1.79 0-2.49 0s-1.22 0-2 .1a42.66 42.66 0 0 1 -.39 5.14c-.26 1.35-.91 1.69-2.23 1.69a31.71 31.71 0 0 1 -3.87-.39l.08-2.83a15.35 15.35 0 0 0 2.36.31c.52 0 .73-.1.81-.6.1-.7.15-1.87.18-3.09-2.26.18-4.78.42-7 .65 0 2.37-.05 4.73 0 5.82.08 2.52.28 3.1 4.16 3.1a48.32 48.32 0 0 0 7.69-.68l-.13 3.53a71.65 71.65 0 0 1 -7.33.42c-6.68 0-7.48-1.4-7.59-5.85 0-1.09 0-3.58 0-6l-1.75.18c-.8.11-2.41.37-3.09.47l-.34-3.3c.73 0 1.93 0 3.23-.16l2-.18v-2.6a19.49 19.49 0 0 0 -.21-2.86h3.63a21.25 21.25 0 0 0 -.15 2.68v2.47l7-.65v-2.91a19.58 19.58 0 0 0 -.18-2.34z"/><path d="m406.29 868.23a37.21 37.21 0 0 1 -4.47.88 47.53 47.53 0 0 1 -5.51 11l-3.14-1.59a39.07 39.07 0 0 0 5.25-9.09c-.44 0-.88 0-1.33 0-1.06 0-2.1 0-3.22-.07l-.23-3a32.5 32.5 0 0 0 3.43.18c.75 0 1.53 0 2.31-.07a22.05 22.05 0 0 0 .7-4.32l3.56.37c-.21.83-.52 2.13-.88 3.5a25.89 25.89 0 0 0 3.45-.8zm3.38 2.31c-.08 1.09 0 2.16 0 3.3 0 .73.08 2 .16 3.25a17.06 17.06 0 0 1 5.32 3.3l-1.71 2.75a23.33 23.33 0 0 0 -3.48-2.73v.24c0 2.39-1.3 4.26-5 4.26-3.19 0-5.71-1.43-5.71-4.26 0-2.52 2.1-4.47 5.69-4.47.6 0 1.19.05 1.74.1-.08-1.92-.21-4.18-.29-5.74zm-2.83 8.52a9.47 9.47 0 0 0 -2.08-.26c-1.48 0-2.44.63-2.44 1.54s.8 1.61 2.21 1.61a2.08 2.08 0 0 0 2.31-2.39zm7.25-7.14a34 34 0 0 0 -6.19-3.67l1.67-2.54a45.57 45.57 0 0 1 6.34 3.48z"/><path d="m437.11 869c-.78.46-1.58.91-2.55 1.37a71.4 71.4 0 0 0 -6.36 3.46c-2.13 1.4-3.56 2.88-3.56 4.68s1.76 2.83 5.35 2.83a42.83 42.83 0 0 0 8.39-.94l-.05 3.69a47.2 47.2 0 0 1 -8.26.65c-5.12 0-9-1.43-9-5.87 0-2.83 1.79-4.94 4.26-6.76-1.17-2.18-2.42-4.93-3.59-7.66l3.25-1.33a60 60 0 0 0 3.22 7.12c1.9-1.11 3.72-2 4.91-2.73a16 16 0 0 0 2.38-1.51zm.39-6.34a37.88 37.88 0 0 1 2.08 3.56l-2.11.88a30.64 30.64 0 0 0 -2-3.61zm3.09-1.2a34 34 0 0 1 2.08 3.56l-2.05.88a28 28 0 0 0 -2.11-3.58z"/><path d="m450 885.17a48.27 48.27 0 0 0 -5.59-5.74l2.71-2.34a48.16 48.16 0 0 1 5.66 5.69z"/><path d="m7.43 935.41a11 11 0 0 0 -.43 2.59c0 1.64 1.56 2.84 5.28 2.84a36.16 36.16 0 0 0 9-1v3.61a38.89 38.89 0 0 1 -8.93.89c-5.9 0-8.87-2-8.87-5.51a17 17 0 0 1 .52-3.72zm-2.18-10.91a66.86 66.86 0 0 0 7 .31c2.54 0 5.48-.15 7.45-.36v3.45c-1.79.13-5 .32-7.43.32-2.7 0-4.94-.13-7-.29z"/><path d="m45.58 928c-2.68.41-6.76.91-10.21 1.09-.34 1.56-.76 3.2-1.17 4.44a12.5 12.5 0 0 1 6.39-1.61c4.16 0 6.91 2.24 6.91 5.51 0 5.8-5.56 7.87-13.88 7l-.91-3.32c5.64.9 11.33.23 11.33-3.57 0-1.53-1.35-2.83-3.84-2.83a8.84 8.84 0 0 0 -7.12 3 7.48 7.48 0 0 0 -.73 1.12l-3-1.09a42.12 42.12 0 0 0 2.94-8.63c-1.64 0-3.15-.13-4.45-.26v-3.15a37.22 37.22 0 0 0 5 .49c.06-.39.13-.73.16-1a15.32 15.32 0 0 0 .13-2.6l3.64.16a25.08 25.08 0 0 0 -.6 2.62l-.15.78a60.87 60.87 0 0 0 9.51-1.22z"/><path d="m57.35 933.67a12.6 12.6 0 0 1 7.56-2.44c4.52 0 7.15 2.78 7.15 5.9 0 4.7-3.72 8.31-14.43 7.38l-1-3.38c7.71 1.09 11.79-.8 11.79-4.08 0-1.66-1.58-2.88-3.84-2.88a9 9 0 0 0 -7.1 3 5.8 5.8 0 0 0 -1 1.51l-3-.76a93 93 0 0 0 1.28-10.73l3.48.47c-.24 1.44-.71 4.53-.89 6.01zm.8-11.17a82.41 82.41 0 0 0 10.29 2l-.78 3.17c-2.59-.34-8.34-1.53-10.34-2z"/><path d="m83.1 923.51a20.16 20.16 0 0 0 -.62 2.29 62.7 62.7 0 0 0 -1.25 9.43 12.14 12.14 0 0 0 .1 1.67c.37-.91.78-1.77 1.15-2.6l1.61 1.24a61.74 61.74 0 0 0 -1.85 6.32 7.26 7.26 0 0 0 -.16 1.19c0 .29 0 .71.06 1.07l-3 .21a32.93 32.93 0 0 1 -1-8.42 70.81 70.81 0 0 1 1.07-10.19 19.88 19.88 0 0 0 .26-2.52zm6 12.71a8.33 8.33 0 0 0 -.31 2.16c0 1.14 1 1.82 3.58 1.82a29.62 29.62 0 0 0 6.45-.68l.07 3.48a35.87 35.87 0 0 1 -6.65.52c-4.44 0-6.55-1.61-6.55-4.23a15.33 15.33 0 0 1 .45-3.36zm9-11v3.33a72.78 72.78 0 0 1 -11.05 0v-3.33a52.48 52.48 0 0 0 11.07-.02z"/><path d="m108.72 935.67a10.9 10.9 0 0 0 -.42 2.6c0 1.64 1.54 2.84 5.25 2.84a36.73 36.73 0 0 0 9-1v3.64a41 41 0 0 1 -8.94.86c-5.9 0-8.83-2-8.83-5.51a17.15 17.15 0 0 1 .49-3.72zm13-13.64a41 41 0 0 1 2.08 3.56l-2.1.91c-.21-.42-.47-.91-.73-1.43v3.09c-1.79.13-5 .32-7.43.32-2.7 0-4.94-.13-7-.29v-3.43a66.11 66.11 0 0 0 7 .31c2.47 0 5.3-.15 7.28-.34-.37-.67-.76-1.35-1.12-1.87zm3.07-1.17a29.94 29.94 0 0 1 2.11 3.54l-2.06.88a28 28 0 0 0 -2.1-3.59z"/><path d="m134.81 939.7c1 1.74 2.83 2.47 5.48 2.57 3.12.13 9.25.06 12.84-.23a13.57 13.57 0 0 0 -1 3c-3.23.16-8.74.21-11.91.08s-5.17-.88-6.73-2.88c-1 1-2.1 2-3.43 3.12l-1.45-3.07a32.14 32.14 0 0 0 3.22-2.39v-5.66h-2.83v-2.84h5.85zm-1.81-11.64a20.09 20.09 0 0 0 -3.9-4.31l2.37-1.77a22.63 22.63 0 0 1 4.08 4.13zm9.46 11.2h-6.78v-2.52h6.78v-1.14h-5.46v-8.84h5.43v-1.06h-6.43v-2.5h6.47v-1.84h3v1.84h6.8v2.5h-6.8v1.06h5.66v8.84h-5.66v1.14h7.12v2.52h-7.12v2.42h-3zm-2.62-9.09h2.62v-1.25h-2.66zm2.62 3.29v-1.29h-2.66v1.29zm3-4.54v1.25h2.7v-1.25zm2.7 3.25h-2.7v1.29h2.7z"/><path d="m159.83 937a24.2 24.2 0 0 1 -1.56 6.71 14.69 14.69 0 0 0 -2.36-1.12 18.79 18.79 0 0 0 1.37-6zm19.62-12.42a20.17 20.17 0 0 1 -4 6.42 22.91 22.91 0 0 0 5.58 2.78 11 11 0 0 0 -2 2.47h-.05v9.31h-3v-1h-5.66v1.06h-2.86v-9.12l-.44.18a8 8 0 0 0 -.81-1.25l-1.71.78c-.08-.39-.18-.83-.31-1.3l-1.33.11v10.63h-2.68v-10.47l-3.76.23-.26-2.67 1.87-.08c.39-.49.8-1.07 1.22-1.66a24.92 24.92 0 0 0 -3.07-3.54l1.48-2.1c.19.15.39.34.6.52a32.85 32.85 0 0 0 1.9-4.52l2.68 1c-.94 1.77-2 3.77-2.92 5.23.34.36.63.72.89 1 .88-1.46 1.71-2.94 2.31-4.21l2.52 1.17c-1.43 2.26-3.22 4.88-4.86 7l2.5-.11c-.29-.65-.6-1.3-.91-1.87l2.05-.86a27.48 27.48 0 0 1 1.87 4.08 20.47 20.47 0 0 0 4.86-2.73 27 27 0 0 1 -2.13-2.41 19.67 19.67 0 0 1 -2.16 2 9 9 0 0 0 -2.08-2 17 17 0 0 0 5.67-7.3l3 .46a18.92 18.92 0 0 1 -.88 1.82h4.47l.47-.13zm-14.34 11.77a29 29 0 0 1 1.61 4.68l-2.29.83a30 30 0 0 0 -1.51-4.83zm12.62-.67a24.68 24.68 0 0 1 -4.39-2.7 22 22 0 0 1 -4.08 2.7zm-1.73 6.2v-3.58h-5.66v3.58zm-5.19-15.33a15.65 15.65 0 0 0 2.44 2.71 16.49 16.49 0 0 0 2.23-3h-4.48z"/><path d="m201 924.68c-.8.6-1.66 1.28-2.26 1.74-1.66 1.35-5.06 4-6.78 5.46-1.38 1.17-1.35 1.45.05 2.65 1.93 1.64 6.89 5.56 9.44 8l-3 2.75c-.73-.8-1.54-1.61-2.26-2.39-1.41-1.48-5.33-4.83-7.69-6.83-2.55-2.16-2.34-3.59.23-5.72 2-1.63 5.53-4.49 7.28-6.21a19.22 19.22 0 0 0 2-2.15z"/><path d="m221.47 928.76a45.83 45.83 0 0 1 -5 .86c-.24 1.09-.5 2.23-.78 3.3a85.15 85.15 0 0 1 -4.08 11.9l-3.61-1.19a57.52 57.52 0 0 0 4.45-11.63c.18-.71.39-1.43.54-2.16-.59 0-1.16 0-1.68 0-1.25 0-2.21 0-3.12-.1l-.08-3.2a24.23 24.23 0 0 0 3.25.18c.75 0 1.5 0 2.29-.07.1-.55.18-1.07.23-1.46a13.63 13.63 0 0 0 .1-2.62l3.93.31c-.19.72-.42 1.87-.55 2.44l-.21 1c1.46-.21 2.91-.49 4.32-.83zm-.52 8.45a9 9 0 0 0 -.37 2.15c0 1.12.65 2 3.41 2a32.68 32.68 0 0 0 5.35-.52l-.13 3.3a41.59 41.59 0 0 1 -5.25.36c-4.34 0-6.55-1.5-6.55-4.1a17.62 17.62 0 0 1 .44-3.43zm-1.51-6.45c1.43-.15 3.27-.26 4.94-.26a43.48 43.48 0 0 1 4.52.21l-.08 3.12a36 36 0 0 0 -4.42-.34 41.12 41.12 0 0 0 -5 .29zm6.76-2.65a29.94 29.94 0 0 0 -2-3.61l2.05-.86a34.19 34.19 0 0 1 2.05 3.56zm3.09-5.64a30.89 30.89 0 0 1 2.1 3.54l-2 .88a28.12 28.12 0 0 0 -2.11-3.59z"/><path d="m254.67 928c-1.29.37-2.8.73-4.36 1 1 2.08 2.21 4.52 3.33 6.58l-1.82 2c-1.41-.29-3.95-.7-5.85-.94l.29-2.65c.85.08 2.26.24 3 .29-.63-1.3-1.51-3.1-2.27-4.71a57.38 57.38 0 0 1 -10.83 0l-.1-3.3a43.64 43.64 0 0 0 9.61.26c-.21-.41-.39-.83-.55-1.22a18.45 18.45 0 0 0 -1.27-2.47l3.64-.7c.44 1.35.93 2.57 1.51 3.92a37.53 37.53 0 0 0 5-1.29zm-14 7.15a11.22 11.22 0 0 0 -.71 3.07c0 1.87 1 3.14 4.6 3.14a28.51 28.51 0 0 0 7-.75l-.08 3.4a35.88 35.88 0 0 1 -6.94.63c-5.17 0-7.95-1.95-7.95-5.54a17.38 17.38 0 0 1 .73-4.24z"/><path d="m264.83 928c0 1.66 0 3.61.16 5.45.36 3.72 1.14 6.24 2.75 6.24 1.22 0 2.24-3 2.73-5l2.6 3.12c-1.71 4.47-3.32 6-5.4 6-2.81 0-5.28-2.54-6-9.46-.23-2.36-.28-5.35-.28-6.94a15.47 15.47 0 0 0 -.18-2.59l3.95.05a19.43 19.43 0 0 0 -.33 3.13zm17.88 10.57-3.4 1.3c-.39-4.13-1.77-10.18-4.58-13.35l3.28-1.1c2.44 2.95 4.42 9.16 4.7 13.11z"/><path d="m293.55 941.11a4.2 4.2 0 1 1 -4.21-4.21 4.21 4.21 0 0 1 4.21 4.21zm-1.88 0a2.32 2.32 0 0 0 -2.33-2.34 2.33 2.33 0 0 0 0 4.65 2.3 2.3 0 0 0 2.33-2.31z"/><path d="m3.54 3.08h20.06v5.41h-13.55v8.51h11.57v5.45h-11.57v13.2h-6.51z"/><path d="m26.33 23.37c0-8.23 5.67-13 11.84-13s11.83 4.77 11.83 13-5.67 12.89-11.83 12.89-11.84-4.75-11.84-12.89zm17.07 0c0-4.67-1.89-7.7-5.23-7.7s-5.24 3-5.24 7.7 1.89 7.63 5.24 7.63 5.23-3 5.23-7.63z"/><path d="m55.41 11h5.28l.44 4.36h.18c1.8-3.21 4.44-5 7-5a7.12 7.12 0 0 1 2.9.52l-1.14 5.62a7.91 7.91 0 0 0 -2.56-.39c-1.93 0-4.26 1.27-5.67 4.84v14.7h-6.43z"/><path d="m84.58 11h5.28l.44 3.26h.18c2.16-2.11 4.66-3.87 8-3.87 5.32 0 7.61 3.69 7.61 9.9v15.36h-6.46v-14.57c0-3.79-1-5.15-3.47-5.15-2 0-3.3 1-5.15 2.77v17h-6.43z"/><path d="m111.25 23.37c0-8 5.58-13 11.48-13 6.78 0 10.3 5 10.3 11.79a11.8 11.8 0 0 1 -.31 2.95h-15.18c.53 4.05 3.17 6.16 6.82 6.16a10.16 10.16 0 0 0 5.54-1.72l2.2 4a15.47 15.47 0 0 1 -8.62 2.73c-6.87-.02-12.23-4.82-12.23-12.91zm16.23-2.51c0-3.35-1.49-5.46-4.66-5.46-2.6 0-4.89 1.85-5.37 5.46z"/><path d="m136.06 11h6.47l2.68 12.19c.49 2.38.8 4.75 1.24 7.17h.17c.49-2.42.93-4.84 1.54-7.17l3-12.19h5.77l3.07 12.19c.57 2.38 1 4.75 1.54 7.17h.22c.44-2.42.74-4.79 1.23-7.17l2.64-12.19h6l-6.07 24.65h-7.62l-2.59-10.74c-.53-2.33-.93-4.58-1.41-7.18h-.22c-.49 2.6-.84 4.89-1.37 7.18l-2.51 10.74h-7.39z"/><path d="m192.07 33.05h-.13l-.57 2.6h-5.06v-35.12h6.42v8.84l-.13 4a10.51 10.51 0 0 1 6.82-2.94c6.08 0 9.73 5 9.73 12.49 0 8.5-5.06 13.38-10.48 13.38a9.59 9.59 0 0 1 -6.6-3.25zm10.43-10.05c0-4.71-1.49-7.31-4.88-7.31-1.67 0-3.17.84-4.89 2.55v10.85a6.84 6.84 0 0 0 4.49 1.85c2.99 0 5.28-2.56 5.28-7.94z"/><path d="m213.5 26.4v-15.4h6.5v14.57c0 3.83 1.06 5.15 3.43 5.15 2 0 3.35-.88 5-3.08v-16.64h6.47v24.65h-5.28l-.49-3.53h-.13c-2.12 2.51-4.49 4.14-7.88 4.14-5.33 0-7.62-3.7-7.62-9.86z"/><path d="m238.58 32.78 2.95-4a10.72 10.72 0 0 0 6.6 2.68c2.46 0 3.56-1.06 3.56-2.6 0-1.84-2.55-2.68-5.15-3.69-3.12-1.19-6.73-3.08-6.73-7.18 0-4.44 3.61-7.56 9.15-7.56a13.81 13.81 0 0 1 8.41 3l-2.9 3.92a9.51 9.51 0 0 0 -5.33-2.11c-2.2 0-3.26 1-3.26 2.37 0 1.81 2.42 2.47 5 3.44 3.26 1.23 6.87 2.86 6.87 7.43 0 4.31-3.39 7.79-9.82 7.79a15.49 15.49 0 0 1 -9.35-3.49z"/><path d="m262.08 3.52c0-2.11 1.62-3.52 3.92-3.52a3.53 3.53 0 0 1 3.83 3.52 3.87 3.87 0 0 1 -7.7 0zm.61 7.48h6.43v24.65h-6.43z"/><path d="m276.07 11h5.28l.44 3.26h.21c2.16-2.11 4.67-3.87 8-3.87 5.33 0 7.62 3.69 7.62 9.9v15.36h-6.47v-14.57c0-3.79-1.06-5.15-3.48-5.15-2 0-3.3 1-5.15 2.77v17h-6.42z"/><path d="m302.73 23.37c0-8 5.59-13 11.49-13 6.77 0 10.29 5 10.29 11.79a12.4 12.4 0 0 1 -.3 2.95h-15.21c.53 4.05 3.17 6.16 6.82 6.16a10.16 10.16 0 0 0 5.55-1.72l2.2 4a15.5 15.5 0 0 1 -8.57 2.71c-6.9 0-12.27-4.8-12.27-12.89zm16.27-2.51c0-3.35-1.5-5.46-4.67-5.46-2.59 0-4.88 1.85-5.36 5.46z"/><path d="m327.5 32.78 2.95-4a10.72 10.72 0 0 0 6.6 2.68c2.47 0 3.57-1.06 3.57-2.6 0-1.84-2.56-2.68-5.15-3.69-3.13-1.19-6.74-3.08-6.74-7.18 0-4.44 3.61-7.56 9.16-7.56a13.78 13.78 0 0 1 8.4 3l-2.9 3.92a9.51 9.51 0 0 0 -5.33-2.11c-2.2 0-3.25 1-3.25 2.37 0 1.81 2.42 2.47 5 3.44 3.26 1.23 6.87 2.86 6.87 7.43 0 4.31-3.39 7.79-9.81 7.79a15.49 15.49 0 0 1 -9.37-3.49z"/><path d="m349.28 32.78 3-4a10.72 10.72 0 0 0 6.6 2.68c2.47 0 3.57-1.06 3.57-2.6 0-1.84-2.56-2.68-5.15-3.69-3.13-1.19-6.74-3.08-6.74-7.18 0-4.44 3.61-7.56 9.16-7.56a13.78 13.78 0 0 1 8.4 3l-2.9 3.92a9.51 9.51 0 0 0 -5.33-2.11c-2.2 0-3.25 1-3.25 2.37 0 1.81 2.42 2.47 5 3.44 3.26 1.23 6.87 2.86 6.87 7.43 0 4.31-3.39 7.79-9.81 7.79a15.49 15.49 0 0 1 -9.42-3.49z"/><path d="m372.25 41.5c3.39-1.28 5.28-3.48 5.28-6h-.4a3.8 3.8 0 0 1 -4-3.83 3.89 3.89 0 0 1 4.18-3.83c3 0 4.66 2.38 4.66 6.38 0 5.15-3 9.07-8.32 10.83z"/><path d="m1.47 85.37c0-8.23 5.9-13 12.58-13a10.8 10.8 0 0 1 7.18 2.73l-3.08 4.18a5.65 5.65 0 0 0 -3.79-1.62c-3.74 0-6.29 3-6.29 7.7s2.55 7.64 6.12 7.64a7.65 7.65 0 0 0 4.81-2l2.56 4.27a12.24 12.24 0 0 1 -8.06 3c-6.84-.01-12.03-4.76-12.03-12.9z"/><path d="m25 91c0-5.29 4.27-8.06 14.17-9.11-.12-2.46-1.17-4.31-4.17-4.31-2.28 0-4.49 1-6.77 2.33l-2.34-4.27a19.76 19.76 0 0 1 10.3-3.26c6.25 0 9.46 3.74 9.46 10.87v14.39h-5.33l-.48-2.64h-.13c-2.16 1.85-4.62 3.26-7.44 3.26a7 7 0 0 1 -7.27-7.26zm14.17-.18v-5c-6 .79-8 2.42-8 4.62 0 1.93 1.37 2.77 3.26 2.77s3.16-.89 4.7-2.43z"/><path d="m52.2 73h5.28l.44 4.36h.18c1.8-3.21 4.44-5 7-5a7 7 0 0 1 2.91.53l-1.16 5.61a7.85 7.85 0 0 0 -2.55-.39c-1.93 0-4.27 1.27-5.68 4.84v14.69h-6.42z"/><path d="m69.84 85.37c0-8 5.59-13 11.49-13 6.78 0 10.3 5 10.3 11.8a12.36 12.36 0 0 1 -.31 2.95h-15.18c.52 4.05 3.16 6.16 6.82 6.16a10.16 10.16 0 0 0 5.54-1.72l2.2 4a15.55 15.55 0 0 1 -8.62 2.73c-6.87-.03-12.24-4.83-12.24-12.92zm16.24-2.51c0-3.35-1.49-5.46-4.66-5.46-2.6 0-4.89 1.85-5.37 5.46z"/><path d="m95.41 85.37c0-8 5.59-13 11.48-13 6.78 0 10.3 5 10.3 11.8a11.86 11.86 0 0 1 -.31 2.95h-15.18c.53 4.05 3.17 6.16 6.82 6.16a10.19 10.19 0 0 0 5.55-1.72l2.2 4a15.58 15.58 0 0 1 -8.63 2.73c-6.86-.03-12.23-4.83-12.23-12.92zm16.24-2.51c0-3.35-1.5-5.46-4.67-5.46-2.6 0-4.88 1.85-5.37 5.46z"/><path d="m122.51 73h5.28l.44 4.36h.18c1.8-3.21 4.44-5 7-5a7 7 0 0 1 2.91.53l-1.14 5.59a8 8 0 0 0 -2.56-.39c-1.93 0-4.27 1.27-5.67 4.84v14.71h-6.43z"/><path d="m150.45 91c0-5.29 4.27-8.06 14.17-9.11-.09-2.42-1.14-4.27-4.18-4.27-2.29 0-4.49 1-6.78 2.33l-2.33-4.27a19.7 19.7 0 0 1 10.3-3.26c6.25 0 9.46 3.74 9.46 10.87v14.35h-5.28l-.49-2.64h-.13c-2.15 1.85-4.62 3.26-7.44 3.26a7 7 0 0 1 -7.3-7.26zm14.17-.18v-5c-6 .79-8 2.42-8 4.62 0 1.93 1.36 2.77 3.26 2.77s3.2-.89 4.74-2.43z"/><path d="m176.81 73h5.28l.44 3.26h.17c2.16-2.11 4.67-3.88 8-3.88 5.33 0 7.61 3.7 7.61 9.91v15.35h-6.46v-14.56c0-3.79-1.06-5.15-3.48-5.15-2 0-3.3 1-5.15 2.77v16.94h-6.42z"/><path d="m202.72 85.37c0-8.06 5-13 10.34-13a8.49 8.49 0 0 1 6.25 2.69l-.26-3.87v-8.66h6.47v35.11h-5.24l-.53-2.55h-.13a10.24 10.24 0 0 1 -6.82 3.17c-6.12 0-10.08-4.84-10.08-12.89zm16.33 5v-10.81a6.54 6.54 0 0 0 -4.58-1.85c-2.77 0-5.1 2.64-5.1 7.57 0 5.1 1.84 7.66 5.1 7.66a5.49 5.49 0 0 0 4.58-2.56z"/><path d="m3 135h5.29l.44 3.3h.18c2.06-2.15 4.35-3.92 7.56-3.92a6.71 6.71 0 0 1 6.78 4.32c2.25-2.38 4.62-4.32 7.83-4.32 5.24 0 7.66 3.7 7.66 9.91v15.35h-6.47v-14.56c0-3.79-1.1-5.15-3.43-5.15q-2.11 0-4.75 2.77v16.94h-6.47v-14.56c0-3.79-1.1-5.15-3.43-5.15q-2.12 0-4.76 2.77v16.94h-6.43z"/><path d="m43.88 147.37c0-8 5.59-13 11.49-13 6.78 0 10.3 5 10.3 11.8a11.86 11.86 0 0 1 -.31 2.95h-15.18c.52 4.05 3.16 6.16 6.82 6.16a10.16 10.16 0 0 0 5.54-1.72l2.2 4a15.55 15.55 0 0 1 -8.62 2.73c-6.87-.03-12.24-4.83-12.24-12.92zm16.24-2.51c0-3.35-1.49-5.46-4.66-5.46-2.6 0-4.89 1.85-5.37 5.46z"/><path d="m69.58 147.37c0-8.06 5-13 10.34-13a8.49 8.49 0 0 1 6.25 2.69l-.26-3.87v-8.67h6.46v35.11h-5.23l-.53-2.55h-.13a10.24 10.24 0 0 1 -6.82 3.17c-6.12.01-10.08-4.83-10.08-12.88zm16.33 5v-10.81a6.54 6.54 0 0 0 -4.58-1.85c-2.77 0-5.11 2.64-5.11 7.57 0 5.1 1.85 7.66 5.11 7.66a5.5 5.5 0 0 0 4.58-2.56z"/><path d="m98.71 127.52c0-2.11 1.62-3.52 3.87-3.52a3.53 3.53 0 0 1 3.83 3.52 3.87 3.87 0 0 1 -7.7 0zm.61 7.48h6.43v24.64h-6.43z"/><path d="m111.47 153c0-5.29 4.26-8.06 14.17-9.11-.09-2.42-1.15-4.27-4.18-4.27-2.29 0-4.49 1-6.78 2.33l-2.33-4.27a19.7 19.7 0 0 1 10.29-3.26c6.25 0 9.47 3.74 9.47 10.87v14.39h-5.29l-.48-2.64h-.13c-2.16 1.85-4.62 3.26-7.44 3.26a7 7 0 0 1 -7.3-7.3zm14.17-.18v-5c-6 .79-8 2.42-8 4.62 0 1.93 1.36 2.77 3.25 2.77s3.21-.89 4.75-2.43z"/><path d="m148.07 127.52c0-2.11 1.63-3.52 3.88-3.52a3.53 3.53 0 0 1 3.82 3.52 3.87 3.87 0 0 1 -7.7 0zm.62 7.48h6.42v24.64h-6.42z"/><path d="m162.06 135h5.28l.45 3.26h.21c2.16-2.11 4.67-3.88 8-3.88 5.32 0 7.61 3.7 7.61 9.91v15.35h-6.47v-14.56c0-3.79-1.05-5.15-3.47-5.15-2 0-3.3 1-5.15 2.77v16.94h-6.43z"/><path d="m204.31 161.27.26-4a9.43 9.43 0 0 1 -6.51 2.95c-6.12 0-10.08-4.84-10.08-12.89s5-13 10.34-13a8.61 8.61 0 0 1 6.69 3h.18l.52-2.42h5.06v34.11h-6.46zm0-8.89v-10.82a6.54 6.54 0 0 0 -4.58-1.85c-2.77 0-5.11 2.64-5.11 7.57 0 5.1 1.85 7.66 5.11 7.66a5.49 5.49 0 0 0 4.58-2.56z"/><path d="m217.46 150.4v-15.4h6.47v14.57c0 3.83 1 5.15 3.43 5.15 2 0 3.35-.88 5-3.08v-16.64h6.47v24.64h-5.28l-.49-3.52h-.17c-2.12 2.51-4.49 4.14-7.88 4.14-5.26 0-7.55-3.7-7.55-9.86z"/><path d="m245.13 127.52c0-2.11 1.63-3.52 3.88-3.52a3.53 3.53 0 0 1 3.83 3.52 3.87 3.87 0 0 1 -7.71 0zm.62 7.48h6.43v24.64h-6.43z"/><path d="m259.13 135h5.28l.44 4.36h.15c1.81-3.21 4.45-5 7-5a6.9 6.9 0 0 1 2.9.53l-1.14 5.59a7.89 7.89 0 0 0 -2.55-.39c-1.94 0-4.27 1.27-5.68 4.84v14.69h-6.42z"/><path d="m277.69 127.52c0-2.11 1.63-3.52 3.88-3.52a3.53 3.53 0 0 1 3.82 3.52 3.87 3.87 0 0 1 -7.7 0zm.62 7.48h6.42v24.64h-6.42z"/><path d="m290.14 147.37c0-8 5.59-13 11.49-13 6.78 0 10.3 5 10.3 11.8a12.36 12.36 0 0 1 -.31 2.95h-15.18c.52 4.05 3.17 6.16 6.82 6.16a10.16 10.16 0 0 0 5.54-1.72l2.2 4a15.55 15.55 0 0 1 -8.62 2.73c-6.87-.03-12.24-4.83-12.24-12.92zm16.24-2.51c0-3.35-1.49-5.46-4.66-5.46-2.6 0-4.89 1.85-5.37 5.46z"/><path d="m314.92 156.78 2.94-4a10.74 10.74 0 0 0 6.6 2.68c2.47 0 3.57-1.06 3.57-2.6 0-1.84-2.55-2.68-5.15-3.69-3.12-1.19-6.73-3.08-6.73-7.18 0-4.44 3.61-7.57 9.15-7.57a13.81 13.81 0 0 1 8.41 3l-2.91 3.92a9.48 9.48 0 0 0 -5.32-2.11c-2.2 0-3.26 1-3.26 2.37 0 1.81 2.42 2.47 5 3.43 3.25 1.24 6.86 2.86 6.86 7.44 0 4.31-3.39 7.79-9.81 7.79a15.49 15.49 0 0 1 -9.35-3.48z"/><path d="m337.88 165.5c3.39-1.28 5.29-3.48 5.29-6h-.4a3.81 3.81 0 0 1 -4-3.83 3.89 3.89 0 0 1 4.18-3.83c3 0 4.67 2.38 4.67 6.38 0 5.15-3 9.07-8.32 10.83z"/><path d="m1.47 209.37c0-8.23 5.9-13 12.58-13a10.8 10.8 0 0 1 7.18 2.73l-3.08 4.18a5.65 5.65 0 0 0 -3.79-1.62c-3.74 0-6.29 3-6.29 7.7s2.55 7.64 6.12 7.64a7.65 7.65 0 0 0 4.81-2l2.56 4.27a12.24 12.24 0 0 1 -8.06 3c-6.84-.01-12.03-4.76-12.03-12.9z"/><path d="m24.66 209.37c0-8.23 5.67-13 11.83-13s11.84 4.76 11.84 13-5.68 12.89-11.84 12.89-11.83-4.75-11.83-12.89zm17.07 0c0-4.67-1.89-7.7-5.24-7.7s-5.23 3-5.23 7.7 1.89 7.63 5.23 7.63 5.24-3 5.24-7.63z"/><path d="m53.74 197h5.26l.44 3.26h.18c2.15-2.11 4.66-3.88 8-3.88 5.32 0 7.61 3.7 7.61 9.91v15.35h-6.44v-14.56c0-3.79-1.06-5.15-3.48-5.15-2 0-3.3 1-5.14 2.77v16.94h-6.43z"/><path d="m82.87 213v-10.89h-3.48v-4.8l3.79-.31.74-6.6h5.42v6.6h6.07v5.11h-6.07v10.89c0 2.82 1.14 4.14 3.34 4.14a7.31 7.31 0 0 0 2.42-.53l1.06 4.71a16 16 0 0 1 -5.2.92c-5.85.02-8.09-3.68-8.09-9.24z"/><path d="m99.19 215c0-5.29 4.27-8.06 14.17-9.11-.09-2.42-1.14-4.27-4.18-4.27-2.29 0-4.49 1-6.78 2.33l-2.33-4.27a19.76 19.76 0 0 1 10.3-3.26c6.25 0 9.46 3.74 9.46 10.87v14.39h-5.28l-.49-2.64h-.13c-2.15 1.85-4.62 3.26-7.43 3.26a7 7 0 0 1 -7.31-7.3zm14.17-.18v-5c-6 .79-8 2.42-8 4.62 0 1.93 1.37 2.77 3.26 2.77s3.2-.89 4.74-2.43z"/><path d="m124.89 209.37c0-8.23 5.89-13 12.58-13a10.8 10.8 0 0 1 7.18 2.73l-3.09 4.18a5.63 5.63 0 0 0 -3.78-1.62c-3.74 0-6.29 3-6.29 7.7s2.51 7.64 6.11 7.64a7.67 7.67 0 0 0 4.8-2l2.55 4.27a12.2 12.2 0 0 1 -8 3c-6.87-.01-12.06-4.76-12.06-12.9z"/><path d="m150.54 213v-10.89h-3.48v-4.8l3.79-.31.74-6.6h5.41v6.6h6.07v5.11h-6.07v10.89c0 2.82 1.14 4.14 3.34 4.14a7.31 7.31 0 0 0 2.42-.53l1.06 4.71a16 16 0 0 1 -5.19.92c-5.85.02-8.09-3.68-8.09-9.24z"/><path d="m177.82 212.4v-15.4h6.47v14.57c0 3.83 1.05 5.15 3.43 5.15 2 0 3.34-.88 5-3.08v-16.64h6.46v24.64h-5.28l-.48-3.52h-.18c-2.11 2.51-4.49 4.14-7.87 4.14-5.26 0-7.55-3.7-7.55-9.86z"/><path d="m203.78 218.78 2.94-4a10.75 10.75 0 0 0 6.61 2.68c2.46 0 3.56-1.06 3.56-2.6 0-1.84-2.55-2.68-5.15-3.69-3.12-1.19-6.73-3.08-6.73-7.18 0-4.44 3.61-7.57 9.15-7.57a13.81 13.81 0 0 1 8.41 3l-2.91 3.92a9.48 9.48 0 0 0 -5.32-2.11c-2.2 0-3.26 1-3.26 2.37 0 1.81 2.42 2.47 5 3.43 3.25 1.24 6.86 2.86 6.86 7.44 0 4.31-3.39 7.79-9.81 7.79a15.49 15.49 0 0 1 -9.35-3.48z"/><path d="m227.54 218a4 4 0 1 1 4 4.22 4 4 0 0 1 -4-4.22z"/></svg>