<svg xmlns="http://www.w3.org/2000/svg" viewBox="0 0 505.73 703.55"><title>contact-zh-sp</title><g id="Layer_2" data-name="Layer 2"><g id="レイヤー_1" data-name="レイヤー 1"><path d="M23.44,330.49a26.09,26.09,0,0,1-4.31,5.69c.7,2,1.5,3.19,2.28,3.19.55,0,.86-1.24,1-4.31A8,8,0,0,0,25,336.83c-.5,4.55-1.46,5.69-3.82,5.69-1.9,0-3.36-1.56-4.47-4.11a26.63,26.63,0,0,1-4.81,3.17,13.78,13.78,0,0,0-2-2.49,26.11,26.11,0,0,0,5.79-3.67,47.94,47.94,0,0,1-1.32-7H9v3c1.33-.23,2.68-.49,4-.73l.24,2.81L9,334.36v4.44c0,1.69-.36,2.52-1.4,3a11.2,11.2,0,0,1-4.68.59,12.42,12.42,0,0,0-1.09-3.11c1.45.07,3,.05,3.43,0s.62-.13.62-.54V335c-1.66.34-3.27.67-4.65.93l-.75-3.11c1.48-.24,3.35-.52,5.4-.89v-3.48H1v-2.94H5.87v-3c-1.4.24-2.83.42-4.15.57a11.93,11.93,0,0,0-.89-2.6,65.29,65.29,0,0,0,10.32-2.18L13.23,321c-1.3.39-2.73.72-4.24,1v3.5h5c-.21-2.33-.29-4.75-.31-7.12h3.25a61.59,61.59,0,0,0,.26,7.12h7.07v2.94H17.49c.21,1.56.47,3.07.75,4.39a21.39,21.39,0,0,0,2.47-3.53Zm-1.9-5.72a20.2,20.2,0,0,0-3.69-4.29l2.34-1.58A22.45,22.45,0,0,1,24,323Z"/><path d="M41.08,329.45H36.61v12.91H33.75V319.6c-.52,1.48-1.11,3-1.79,4.49v18.32H29v-13a18.52,18.52,0,0,1-1.61,2.13,20.21,20.21,0,0,0-1.48-3.32,28.57,28.57,0,0,0,5.15-10l2.86.85-.16.5h7.3Zm-4.47-7.56v1.48h2.13v-1.48Zm2.13,5.22v-1.53H36.61v1.53ZM50,338.83c0,1.71-.36,2.55-1.4,3s-2.71.57-5.15.57a11.06,11.06,0,0,0-1-3c1.59.1,3.38.08,3.9.05s.68-.15.68-.65v-9.35H42.25v-9.9H50Zm-5.28-16.94v1.48H47v-1.48ZM47,327.11v-1.53H44.69v1.53Z"/><path d="M68.16,326.56a66.78,66.78,0,0,1,8.65,7.05L74.19,336a60.73,60.73,0,0,0-8-7v13.46H62.86V329.71a31.11,31.11,0,0,1-8.27,6.39,18.55,18.55,0,0,0-2.13-2.81,27.19,27.19,0,0,0,11.2-10.21H53.29v-3.17H75.82v3.17H67.74a26.39,26.39,0,0,1-1.5,2.39v2.7Z"/><path d="M86.53,324.74a34.08,34.08,0,0,1-2,3.15v14.55H81.67V331.37a22.39,22.39,0,0,1-2,1.92A18.83,18.83,0,0,0,78,330.41a22.17,22.17,0,0,0,5.8-6.68Zm-.44-5.48a31.93,31.93,0,0,1-6.21,6.34,26.31,26.31,0,0,0-1.61-2.26,21.93,21.93,0,0,0,5.09-5.14Zm11.22,7.46c0,.67-.1,1.35-.15,1.95h4.49v13.61H98.79v-.75H93.47v.91H90.71V328.67H94.4c0-.6.08-1.28.11-1.95H89.75v1.35c0,3.92-.31,10.08-2.6,14.24a7.29,7.29,0,0,0-2.31-1.87c1.87-3.69,2-8.73,2-12.4v-8.21l2.26.57a67.6,67.6,0,0,0,10.42-1.94l2.1,2.13c-1.27.36-2.73.67-4.26,1h.23c0,.83-.07,1.71-.13,2.6h5.12v2.57Zm-2.73-2.57c0-.73,0-1.46,0-2.16-1.64.26-3.27.44-4.86.6v1.56Zm4.21,7H93.47v1.4h5.32ZM93.47,336h5.32v-1.38H93.47Zm5.32,3.45v-1.38H93.47v1.38Z"/><path d="M113.19,338.54a42.38,42.38,0,0,0-2.6-3.74,12.81,12.81,0,0,1-4.24,7.3,11.19,11.19,0,0,0-2.1-2.21c2.86-2.1,3.77-5.66,4-8.94h-3.67v-2.8h3.77v-3.28H105v-2.72h3.38v-3.72h2.89v3.72h3.24v2.72h-3.24v3.28h3.66V331h-3.77l0,.63c1.09,1.12,3.59,4,4.16,4.7Zm12.6.7c.42,0,.52-.33.57-3.06a8.93,8.93,0,0,0,2.55,1.12c-.26,3.69-1,4.62-2.81,4.62h-1.71c-2.29,0-2.78-.86-2.78-3.4V334h-1.33c-.44,3.81-1.61,6.73-6.18,8.47a8.19,8.19,0,0,0-1.66-2.32c3.79-1.27,4.59-3.4,4.93-6.15h-1.66V319.08h11.54V334h-2.78v4.46c0,.71,0,.78.44.78Zm-7.22-15.9h5.69v-1.53h-5.69Zm0,4h5.69v-1.54h-5.69Zm0,3.95h5.69v-1.54h-5.69Z"/><path d="M139.87,336.39l.26,2.57c-3.24.86-6.67,1.66-9.32,2.31l-.52-2.81,1-.2v-8.68h2.39v8.18l1-.2v-9.8h-3.17v-8.6h8.08v7.25a20.24,20.24,0,0,0,2.08-6.6l1.82.33a44.71,44.71,0,0,0,7.32-2l2.34,2.08a59.78,59.78,0,0,1-9,2.13,21.6,21.6,0,0,1-2.47,6.29c-.44-.34-1.4-.94-2.1-1.35v.44h-2.31v3.06h2.44v2.63h-2.44V337Zm-5.82-11.2h2.84V321.7h-2.84Zm13.72,4h6v13.25h-3v-1h-7.1v1h-2.85V329.63l1.17.31a15.84,15.84,0,0,0,3.32-2.47l2.44,2Zm3,2.63h-3V329.5a26.32,26.32,0,0,1-4.08,2.31v2.11h2.73v2.57h-2.73v2.29h7.1v-2.29h-2.91v-2.57h2.91Zm-4.42-4.32a17.81,17.81,0,0,0-1-4.47l2.44-.62a17.08,17.08,0,0,1,1.14,4.39Zm5.43-6.21a19.49,19.49,0,0,1,3,5.64L152.24,328a18.82,18.82,0,0,0-2.83-5.76Z"/><path d="M163.86,331.29a14,14,0,0,1-.29,1.8c1.15,1.19,3.48,4,4,4.67l-1.95,2.6c-.67-1.14-1.87-2.83-2.88-4.21a14.39,14.39,0,0,1-4.16,6.26,11.57,11.57,0,0,0-2.16-2.15,13.47,13.47,0,0,0,4.5-9h-4.42v-2.83h4.63v-4.31h-.91a20.26,20.26,0,0,1-1.43,3.66,16.54,16.54,0,0,0-2.39-1.69,22.83,22.83,0,0,0,2.08-7.92l2.85.49c-.13.88-.26,1.77-.44,2.65h6.19v2.81h-3v4.31h3.35v2.83Zm16.76,9.8h-9.36v1.35h-3v-23h12v2.86h-9v3.11h8.22v9.49h-8.22v3.35h9.36Zm-9.36-12.84V332h5.28v-3.77Z"/><path d="M185.69,341.66c2-.65,3.19-1.77,3.35-3.14a1.28,1.28,0,0,1-.29,0,2.31,2.31,0,0,1-2.47-2.31,2.36,2.36,0,0,1,2.55-2.34c1.84,0,2.81,1.38,2.81,3.56,0,3-1.9,5.35-5.12,6.32Z"/><path d="M23.44,390.45a25.85,25.85,0,0,1-4.31,5.69c.7,2,1.5,3.2,2.28,3.2.55,0,.86-1.25,1-4.32A8,8,0,0,0,25,396.79c-.5,4.55-1.46,5.69-3.82,5.69-1.9,0-3.36-1.56-4.47-4.1a27.74,27.74,0,0,1-4.81,3.17,13.49,13.49,0,0,0-2-2.5,26.44,26.44,0,0,0,5.79-3.66,48.09,48.09,0,0,1-1.32-7H9v3c1.33-.24,2.68-.5,4-.73l.24,2.81L9,394.32v4.45c0,1.69-.36,2.52-1.4,3a11.34,11.34,0,0,1-4.68.6,12.49,12.49,0,0,0-1.09-3.12c1.45.08,3,.05,3.43,0s.62-.13.62-.55V395c-1.66.34-3.27.68-4.65.94l-.75-3.12c1.48-.23,3.35-.52,5.4-.88v-3.49H1v-2.93H5.87v-3c-1.4.23-2.83.41-4.15.57a11.58,11.58,0,0,0-.89-2.6,67.62,67.62,0,0,0,10.32-2.18l2.08,2.62c-1.3.39-2.73.73-4.24,1v3.51h5c-.21-2.34-.29-4.76-.31-7.12h3.25a61.75,61.75,0,0,0,.26,7.12h7.07v2.93H17.49c.21,1.56.47,3.07.75,4.4a21,21,0,0,0,2.47-3.54Zm-1.9-5.72a20.17,20.17,0,0,0-3.69-4.28l2.34-1.59A22.77,22.77,0,0,1,24,383Z"/><path d="M41.08,389.41H36.61v12.92H33.75V379.56c-.52,1.48-1.11,3-1.79,4.5v18.32H29v-13a19.43,19.43,0,0,1-1.61,2.13,20.67,20.67,0,0,0-1.48-3.33,28.57,28.57,0,0,0,5.15-10l2.86.86-.16.49h7.3Zm-4.47-7.56v1.48h2.13v-1.48Zm2.13,5.22v-1.53H36.61v1.53ZM50,398.79c0,1.72-.36,2.55-1.4,3s-2.71.57-5.15.57a11.06,11.06,0,0,0-1-3c1.59.11,3.38.08,3.9.06s.68-.16.68-.65v-9.36H42.25v-9.9H50Zm-5.28-16.94v1.48H47v-1.48ZM47,387.07v-1.53H44.69v1.53Z"/><path d="M68.16,386.53a67.59,67.59,0,0,1,8.65,7l-2.62,2.36a61.47,61.47,0,0,0-8-7v13.46H62.86V389.67a31.11,31.11,0,0,1-8.27,6.39,18,18,0,0,0-2.13-2.8A27.21,27.21,0,0,0,63.66,383H53.29v-3.17H75.82V383H67.74a26.53,26.53,0,0,1-1.5,2.4v2.7Z"/><path d="M102.09,381.72v3H88.19a29.28,29.28,0,0,1-3,5.12v12.58H82v-9a20.25,20.25,0,0,1-2.29,1.81,22,22,0,0,0-1.53-3,19.72,19.72,0,0,0,6.47-7.49H79v-3h7c.44-1.22.83-2.42,1.14-3.61l3.25.78c-.29,1-.63,1.89-1,2.83ZM95.86,398.9H102v2.85H86.45V398.9h6.29V393H87.46v-2.86h5.28V385.8h3.12v4.31H101V393H95.86Z"/><path d="M104.3,400.25a8.66,8.66,0,0,0,3.41-4.39l2.59.91a9.88,9.88,0,0,1-3.58,5.11Zm23.49-14.19H105.31v-2.39h5.57a16.66,16.66,0,0,0-.65-1.74l.13,0h-3.77v-2.39H115v-1.38H118v1.38h8.4v2.39h-3.67l.39.08c-.39.68-.78,1.22-1.09,1.69h5.74ZM119,399.65c1,0,1.11-.29,1.24-2.13a8.6,8.6,0,0,0,2.63,1c-.34,2.88-1.17,3.61-3.59,3.61h-4.18c-3.27,0-4.08-.76-4.08-3.22v-2.73h2.81l-.32-.13,1.07-1H108v-7.88h17.23V395h-8.44a16.49,16.49,0,0,1,2.7,1.58l-1.87,1.93a16.14,16.14,0,0,0-3.67-2.24v2.6c0,.7.21.78,1.38.78Zm-8-9.51h11.23V389H111Zm0,3h11.23v-1.17H111Zm2.34-11.2a16,16,0,0,1,.62,1.69l-.34.08h5.77l-.36-.08c.23-.49.55-1.14.75-1.69Zm11.15,13.64a19.29,19.29,0,0,1,4.23,4.71l-2.54,1.48a21.7,21.7,0,0,0-4.08-4.86Z"/><path d="M154.32,396.9h-5.79v2.52c0,1.43-.26,2.15-1.33,2.57a13.94,13.94,0,0,1-4.47.41,11.52,11.52,0,0,0-.88-2.7c1.25.05,2.73.05,3.14.05s.55-.1.55-.44V396.9h-7.33a16.29,16.29,0,0,1,2.78,2.39l-2.28,2a19.93,19.93,0,0,0-3.9-3.46l1.09-.9h-5.2v-2.45h14.84v-1c-5.12.11-10,.18-13.67.21l-.08-2.21c2.45,0,5.64,0,9.15,0v-.94h-7.48v-7.48h7.48v-.93H131.4V379.8h9.54v-1.64h3v1.64h9.49v2.34H144v.93h7.85v7.48h-1.74a26.18,26.18,0,0,1,3.35,2.08l-1.89,1.59c-.32-.26-.68-.57-1.1-.86l-1.89.05v1h5.79Zm-18-11h4.6v-1h-4.6Zm4.6,2.76v-1h-4.6v1Zm3-3.72v1h4.84v-1Zm4.84,3.72v-1H144v1Zm-4.84,2.8,3.28,0c-.37-.16-.73-.34-1.07-.47l.52-.42H144Z"/><path d="M172.3,396.56a25.9,25.9,0,0,0,8.68,2.93,13.78,13.78,0,0,0-2,2.63,23.77,23.77,0,0,1-9.07-4.37v4.63h-3.07v-4.47a23,23,0,0,1-8.86,4.23,11.94,11.94,0,0,0-1.89-2.49,25.19,25.19,0,0,0,8.57-3.09h-7.93V394h10.11V392.4a55.88,55.88,0,0,1-8,1,7.92,7.92,0,0,0-1-2.39,51.75,51.75,0,0,0,8.14-.91c-.84-.18-1.67-.39-2.45-.54l-.33.39-2.94-.81c.62-.67,1.3-1.51,2-2.39h-5.12v-2.42h7c.49-.67,1-1.32,1.4-1.92h-5.32v1.43h-2.86v-4h9.53v-1.71H170v1.71h9.61v4h-3v-1.43H166.2l2.36.7c-.28.39-.57.81-.88,1.22h12.13v2.42h-4.57a7.81,7.81,0,0,1-2,2.81c2.1.6,4,1.19,5.48,1.74l-1.84,2.18a58.79,58.79,0,0,0-6.45-2.18,16.92,16.92,0,0,1-2.91.93h2.42V394h10.34v2.55Zm-7.17-8.89c1.51.29,3.17.65,4.83,1.07a5.41,5.41,0,0,0,1.95-2h-6.08Z"/><path d="M206,382.14s0,1,0,1.4c-.34,11.61-.63,15.75-1.69,17.12a3.48,3.48,0,0,1-2.5,1.43,27.82,27.82,0,0,1-4.07.05,7.38,7.38,0,0,0-1-3c1.66.16,3.2.16,3.87.16a1.4,1.4,0,0,0,1.15-.45c.75-.83,1.09-4.73,1.37-13.9h-5.56a22.51,22.51,0,0,1-2.28,4.11,20.22,20.22,0,0,0-2-1.46v12.14h-6.94v1.89h-2.81v-19.3h2.94a28.47,28.47,0,0,0,.75-4.19l3.38.47c-.44,1.3-.91,2.6-1.35,3.72h4v4.21a27,27,0,0,0,3.5-8.37l2.94.68a31.23,31.23,0,0,1-1,3.3ZM190.39,385h-4.13v4.21h4.13Zm0,12v-5.09h-4.13V397Zm8.63-1.4a55.33,55.33,0,0,0-3.62-6l2.42-1.37a64,64,0,0,1,3.82,5.76Z"/><path d="M222.84,388.29c1.72,5.07,4.86,9.15,9.72,11.13a12.18,12.18,0,0,0-2.28,2.91c-4.71-2.21-7.72-6-9.75-11a17.87,17.87,0,0,1-9.72,11,9,9,0,0,0-2.31-2.62,15.57,15.57,0,0,0,9.43-11.44H209V385.1h9.46c.26-2.44.24-4.81.26-6.94h3.38c0,2.13-.05,4.52-.31,6.94H232v3.19Z"/><path d="M241.58,385c-.89,3.87-2.29,8.71-4.45,11.56a26.55,26.55,0,0,0-3-1.61c2.08-2.62,3.38-7.17,3.92-10.55Zm6.62-6.52v20c0,1.9-.44,2.76-1.58,3.25a16,16,0,0,1-5.51.6,13.57,13.57,0,0,0-1.22-3.22c1.69.07,3.61.07,4.18,0s.78-.18.78-.68v-20Zm5.88,5.64c2.1,3.69,4.23,8.39,4.88,11.64l-3.38,1.32A44.73,44.73,0,0,0,251,385.28Z"/><path d="M284.4,396.66h-7.07c2.55,1.22,5.36,2.65,7,3.67l-3,2.1a67.13,67.13,0,0,0-7.15-4.08l1.9-1.69h-7.8l2.29,1.66A46,46,0,0,1,263,402.4a25.08,25.08,0,0,0-2.39-2.13,31.77,31.77,0,0,0,6.81-3.61h-6.91v-2.88h2.42l-.42-13.93,1.74.47a26.21,26.21,0,0,0,3.07-1.95l2,1.89v-1.81h2.63v2.28h4v2.57h-4v1.75h3.87v8.73H279c0-.65.08-1.38.13-2.11h-2.47v-2.54h2.58c0-.73.05-1.46.07-2.21h-2.62v-2.55h2.68c0-.7,0-1.38,0-2.05h-3v-2.68h5.87c0,4.55-.13,10.24-.36,14.14h2.49Zm-18.68-2.88h3.53v-5.43h2.44v5.43h1.48v-6.32H269.3v-6.68c-1.24.6-2.65,1.23-3.92,1.72l.05,1.87h2.94v2.55h-2.86l.05,2.18h2.81v2.55h-2.73Z"/><path d="M310.07,398.71v2.86H286.66v-2.86h10.16v-2.07h-7.54v-2.81h7.51v-1.64h-1.92v-5h-2.39a8,8,0,0,1-4.08,5.69,12.93,12.93,0,0,0-2-2.15,5.73,5.73,0,0,0,3.17-3.54h-2.62v-2.73h2.94v-2.72H287.8V379h11.8v2.71h-1.84v2.72h2.44v2.73h-2.44v4.55H300v2.08h7.51v2.81H300v2.07Zm-15.2-14.24v-2.72h-2.18v2.72Zm9.25,3.93h-2.83v-8.79h2.83Zm4.84,1.12c0,1.42-.26,2.15-1.25,2.59a10.61,10.61,0,0,1-4.08.5,11.68,11.68,0,0,0-.91-2.73c1.17.05,2.42.05,2.81,0s.49-.11.49-.45v-11H309Z"/><path d="M329,385.57c.54,7.58,2.13,13.59,4,13.59.54,0,.85-1.38,1-4.68a8.29,8.29,0,0,0,2.71,1.82c-.47,4.91-1.51,6.1-4,6.1-4.44,0-6.39-7.69-7-16.83H312.8v-3h12.76c-.05-1.4-.08-2.86-.08-4.29h3.33c0,1.43,0,2.89,0,4.29h4.11a18.49,18.49,0,0,0-3-2.73l2.05-1.69a19.85,19.85,0,0,1,3.41,2.89l-1.77,1.53H336v3Zm-8.21,11.66c1.58-.28,3.25-.59,4.83-.91l.24,2.76c-4.27.93-8.84,1.9-12.19,2.6l-.86-3.12c1.33-.21,3-.47,4.91-.78v-6.26h-3.92v-3h11.15v3h-4.16Z"/><path d="M341.59,401.62c2-.64,3.2-1.76,3.35-3.14a.83.83,0,0,1-.28,0,2.31,2.31,0,0,1-2.47-2.32,2.37,2.37,0,0,1,2.54-2.34c1.85,0,2.81,1.38,2.81,3.57,0,3-1.89,5.35-5.12,6.31Z"/><path d="M23.44,450.42a26.09,26.09,0,0,1-4.31,5.69c.7,2,1.5,3.19,2.28,3.19.55,0,.86-1.24,1-4.31A8,8,0,0,0,25,456.76c-.5,4.54-1.46,5.69-3.82,5.69-1.9,0-3.36-1.56-4.47-4.11a27.17,27.17,0,0,1-4.81,3.17,13.45,13.45,0,0,0-2-2.49,26.48,26.48,0,0,0,5.79-3.67,47.94,47.94,0,0,1-1.32-7H9v3c1.33-.23,2.68-.49,4-.73l.24,2.81L9,454.29v4.44c0,1.69-.36,2.52-1.4,3a11.2,11.2,0,0,1-4.68.59,12.63,12.63,0,0,0-1.09-3.12c1.45.08,3,.06,3.43,0s.62-.13.62-.55v-3.76c-1.66.33-3.27.67-4.65.93l-.75-3.12c1.48-.23,3.35-.52,5.4-.88v-3.48H1v-2.94H5.87v-3c-1.4.23-2.83.42-4.15.57a11.76,11.76,0,0,0-.89-2.6,65.29,65.29,0,0,0,10.32-2.18l2.08,2.62c-1.3.39-2.73.73-4.24,1v3.51h5c-.21-2.34-.29-4.75-.31-7.12h3.25a61.59,61.59,0,0,0,.26,7.12h7.07v2.94H17.49c.21,1.56.47,3.06.75,4.39a21.39,21.39,0,0,0,2.47-3.53Zm-1.9-5.72a20.2,20.2,0,0,0-3.69-4.29l2.34-1.58A22.45,22.45,0,0,1,24,443Z"/><path d="M41.08,449.38H36.61v12.91H33.75V439.53c-.52,1.48-1.11,3-1.79,4.49v18.32H29v-13a18.52,18.52,0,0,1-1.61,2.13,20.67,20.67,0,0,0-1.48-3.33,28.49,28.49,0,0,0,5.15-10l2.86.86-.16.5h7.3Zm-4.47-7.57v1.48h2.13v-1.48ZM38.74,447V445.5H36.61V447ZM50,458.76c0,1.71-.36,2.54-1.4,3s-2.71.57-5.15.57a11.06,11.06,0,0,0-1-3c1.59.1,3.38.08,3.9.05s.68-.16.68-.65v-9.35H42.25v-9.9H50Zm-5.28-16.95v1.48H47v-1.48ZM47,447V445.5H44.69V447Z"/><path d="M63.22,456a33.87,33.87,0,0,1-7.85,6.36,28,28,0,0,0-2.6-2.2,24.15,24.15,0,0,0,7.1-5.49Zm-4.42-2H55.69v-14.3H74v14.17H70.81v-.71h-12Zm0-11.33v7.53h12v-7.53Zm10,12a52.65,52.65,0,0,1,7.25,5.87l-2.83,1.9a55.53,55.53,0,0,0-7-6.11Z"/><path d="M102.09,441.68v3H88.19a30,30,0,0,1-3,5.12v12.57H82v-9a19.26,19.26,0,0,1-2.29,1.82,22.15,22.15,0,0,0-1.53-3,19.76,19.76,0,0,0,6.47-7.48H79v-3h7c.44-1.22.83-2.41,1.14-3.61l3.25.78c-.29,1-.63,1.9-1,2.83Zm-6.23,17.18H102v2.86H86.45v-2.86h6.29v-5.92H87.46v-2.86h5.28v-4.32h3.12v4.32H101v2.86H95.86Z"/><path d="M104.3,460.21a8.58,8.58,0,0,0,3.41-4.39l2.59.91a9.91,9.91,0,0,1-3.58,5.12ZM127.79,446H105.31v-2.39h5.57a18.53,18.53,0,0,0-.65-1.74l.13,0h-3.77v-2.39H115V438.1H118v1.38h8.4v2.39h-3.67l.39.07c-.39.68-.78,1.23-1.09,1.69h5.74ZM119,459.61c1,0,1.11-.28,1.24-2.13a8.35,8.35,0,0,0,2.63,1c-.34,2.88-1.17,3.61-3.59,3.61h-4.18c-3.27,0-4.08-.75-4.08-3.22v-2.73h2.81l-.32-.13,1.07-1H108v-7.87h17.23V455h-8.44a16.47,16.47,0,0,1,2.7,1.59l-1.87,1.92a16.14,16.14,0,0,0-3.67-2.23v2.59c0,.71.21.78,1.38.78Zm-8-9.51h11.23V449H111Zm0,3h11.23V451.9H111Zm2.34-11.2a14.57,14.57,0,0,1,.62,1.69l-.34.07h5.77l-.36-.07c.23-.5.55-1.15.75-1.69Zm11.15,13.64a19.08,19.08,0,0,1,4.23,4.7l-2.54,1.48a21.92,21.92,0,0,0-4.08-4.86Z"/><path d="M140.39,439.81a25.41,25.41,0,0,1,3.15,6L140.71,447a9.82,9.82,0,0,0-.47-1.38c-3.43.23-7,.44-9.62.6l-.26-2.94c.63,0,1.3,0,2,0a40.43,40.43,0,0,0,1.9-5.23l3.22.65c-.6,1.51-1.3,3.07-1.95,4.45l3.46-.16c-.39-.73-.81-1.45-1.22-2.13Zm1.3,19.41c0,1.36-.26,2.11-1.11,2.55a7.77,7.77,0,0,1-3.64.52,11.75,11.75,0,0,0-1-2.73,21.11,21.11,0,0,0,2.29,0c.31,0,.41-.08.41-.39v-1.74h-3.89v4.91H131.9V447.43h9.79ZM134.76,450v1.35h3.89V450Zm3.89,5.17v-1.53h-3.89v1.53Zm8.86-5.37c-3,0-3.76-.91-3.76-3.77v-7.82h3.06v3.71a38.88,38.88,0,0,0,4.68-2.16l2,2.24a46,46,0,0,1-6.65,2.44V446c0,.93.16,1,1.15,1h2.83c.83,0,1-.39,1.12-2.66a8.39,8.39,0,0,0,2.72,1.15c-.33,3.32-1.14,4.29-3.53,4.29Zm3.43,9.71c.89,0,1.07-.49,1.2-3.11a10,10,0,0,0,2.7,1.14c-.34,3.66-1.12,4.68-3.61,4.68h-3.69c-3,0-3.79-.89-3.79-3.75v-8.15h3v3.5a29.51,29.51,0,0,0,4.88-2.44l2.05,2.26a39.73,39.73,0,0,1-6.93,2.76v2.07c0,.91.18,1,1.19,1Z"/><path d="M172.1,446.49a67.59,67.59,0,0,1,8.65,7l-2.63,2.37a60.08,60.08,0,0,0-8-7v13.46h-3.38V449.64a30.91,30.91,0,0,1-8.26,6.39,18.07,18.07,0,0,0-2.13-2.81A27.25,27.25,0,0,0,167.6,443H157.23v-3.17h22.53V443h-8.08a25.71,25.71,0,0,1-1.51,2.39v2.7Z"/><path d="M192.36,439.81a25.41,25.41,0,0,1,3.15,6L192.68,447a9.82,9.82,0,0,0-.47-1.38c-3.43.23-7,.44-9.62.6l-.26-2.94c.63,0,1.3,0,2,0a40.43,40.43,0,0,0,1.9-5.23l3.22.65c-.6,1.51-1.3,3.07-1.95,4.45l3.46-.16c-.39-.73-.81-1.45-1.23-2.13Zm1.3,19.41c0,1.36-.26,2.11-1.11,2.55a7.77,7.77,0,0,1-3.64.52,11.75,11.75,0,0,0-1-2.73,21.11,21.11,0,0,0,2.29,0c.31,0,.41-.08.41-.39v-1.74h-3.9v4.91h-2.85V447.43h9.79ZM186.72,450v1.35h3.9V450Zm3.9,5.17v-1.53h-3.9v1.53Zm8.86-5.37c-3,0-3.76-.91-3.76-3.77v-7.82h3.06v3.71a38.88,38.88,0,0,0,4.68-2.16l2,2.24a46,46,0,0,1-6.65,2.44V446c0,.93.16,1,1.15,1h2.83c.83,0,1-.39,1.12-2.66a8.39,8.39,0,0,0,2.72,1.15c-.33,3.32-1.14,4.29-3.53,4.29Zm3.43,9.71c.89,0,1.07-.49,1.2-3.11a10,10,0,0,0,2.7,1.14c-.34,3.66-1.12,4.68-3.61,4.68h-3.69c-3,0-3.79-.89-3.79-3.75v-8.15h3v3.5a29.51,29.51,0,0,0,4.88-2.44l2.05,2.26a39.73,39.73,0,0,1-6.93,2.76v2.07c0,.91.18,1,1.19,1Z"/><path d="M215.83,439a52.5,52.5,0,0,1-2.08,5.25v18.08h-2.83v-13a24.59,24.59,0,0,1-1.59,2.13,20,20,0,0,0-1.51-3.35,28.26,28.26,0,0,0,5.15-10Zm15.54,6.47A32.54,32.54,0,0,1,229,455.74a11,11,0,0,0,3.69,4.08,12.63,12.63,0,0,0-1.85,2.44,12.76,12.76,0,0,1-3.37-3.82,14.06,14.06,0,0,1-3.9,3.82,17.43,17.43,0,0,0-1.85-2.07c.34-.21.7-.45,1-.71h-5v1.85h-2.65V449.82h2.6v-4.24h-3V442.8h3v-4.36h2.91v4.36h2.7v2.78h-2.7v4.24h2c-.23-.34-.47-.65-.62-.86,1.79-2.57,2.78-6.65,3.32-10.84l2.76.47c-.24,1.43-.5,2.91-.81,4.29h5.3v2.6Zm-10.87,7h-2.67v4.45h2.67Zm2.71,6.73a12.2,12.2,0,0,0,3-3.51,29.44,29.44,0,0,1-1.53-5.5,12.35,12.35,0,0,1-.91,1.42,9.13,9.13,0,0,0-.52-.9Zm3.38-13.69-.24.75a37.27,37.27,0,0,0,1.22,6,35.5,35.5,0,0,0,1.2-6.78Z"/><path d="M256.88,451.35v11h-3.22v-1.48H239.27v1.51h-3.15v-11h3.15v6.47h5.43V450h-7.54v-9.43h3.07V447h4.47v-8.6h3.17V447h4.73v-6.42h3.24V450h-8v7.85h5.79v-6.47Z"/><path d="M270.65,443.48A36.92,36.92,0,0,1,268.47,455a18.87,18.87,0,0,1,2.81,2.71l-1.85,2.49a20,20,0,0,0-2.31-2.47,14.64,14.64,0,0,1-4.73,4.76,10.92,10.92,0,0,0-1.84-2.45,10.58,10.58,0,0,0,4.23-4.26c-.47-.39-.93-.73-1.4-1.06l-.21.8-2.52-1.32c.57-2.13,1.22-5,1.84-8.06h-2v-2.83H263c.34-1.79.65-3.56.88-5.15l2.91.26c-.26,1.54-.57,3.2-.91,4.89h2.34l.52-.08Zm-5.32,2.62c-.39,1.95-.83,3.9-1.25,5.69.62.42,1.27.83,1.92,1.3a29.46,29.46,0,0,0,1.56-7Zm19.25,5.2h-5.71v7.61c0,1.56-.29,2.39-1.3,2.86a10.14,10.14,0,0,1-4.34.57,13.53,13.53,0,0,0-1.12-3c1.32.05,2.7.08,3.12.05s.57-.1.57-.46V451.3h-5.48v-2.91h5.48v-3h1a22.83,22.83,0,0,0,2.5-3.11h-8.09V439.4h10.16l.63-.18,2,1.53a39.89,39.89,0,0,1-5.11,6.16v1.48h5.71Z"/><path d="M296,456.94c-3.28.88-6.76,1.76-9.41,2.47l-.62-3c1-.2,2.23-.46,3.56-.75v-5.38h-2.81v-2.83h2.81v-4.6h-3.07V440h8.86v2.86h-2.8v4.6h2.57v2.83h-2.57V455l3.14-.75Zm11.67,2.41c.41,0,.52-.49.57-3.56a8.45,8.45,0,0,0,2.73,1.28c-.26,4-1,5.17-3,5.17H306.2c-2.39,0-2.93-1-2.93-3.85v-8.21H301.5c-.31,6.08-1.25,10.06-7.23,12.19a7.57,7.57,0,0,0-1.71-2.37c5.17-1.74,5.74-4.75,5.95-9.82h-2.94v-3h14.84v3h-4.08v8.19c0,.88.05,1,.42,1Zm1.43-16.47H296.61v-2.94h12.48Z"/><path d="M335.88,442.1s0,1,0,1.4c-.34,11.62-.62,15.75-1.69,17.13a3.46,3.46,0,0,1-2.49,1.43,29.49,29.49,0,0,1-4.08.05,7.37,7.37,0,0,0-1-3c1.67.16,3.2.16,3.87.16a1.39,1.39,0,0,0,1.15-.44c.75-.83,1.09-4.73,1.38-13.9H327.4a22.41,22.41,0,0,1-2.28,4.1,18.79,18.79,0,0,0-2-1.45v12.13h-6.94v1.9h-2.81V442.28h2.94a27.1,27.1,0,0,0,.75-4.18l3.38.47c-.44,1.3-.91,2.59-1.35,3.71h4v4.21a27,27,0,0,0,3.5-8.37l2.94.68a29.85,29.85,0,0,1-1,3.3ZM320.31,445h-4.13v4.21h4.13Zm0,12v-5.09h-4.13V457Zm8.63-1.4a55.72,55.72,0,0,0-3.61-6l2.41-1.38a60.71,60.71,0,0,1,3.82,5.77Z"/><path d="M354.25,454.55a24.76,24.76,0,0,0,8.39,4.88,13.48,13.48,0,0,0-2.21,2.68,25.62,25.62,0,0,1-8.52-6.06v6.32h-3.2v-6.19a25.36,25.36,0,0,1-8.37,5.88,16,16,0,0,0-2.13-2.6,23.62,23.62,0,0,0,8.19-4.91h-5.25v-9.93h7.56v-1.48h-9.77v-2.89h9.77v-2.13h3.2v2.13h10v2.89h-10v1.48h7.92v9.93Zm-10.11-6.08h4.57v-1.54h-4.57Zm0,3.76h4.57v-1.58h-4.57Zm7.77-5.3v1.54h4.78v-1.54Zm4.78,3.72h-4.78v1.58h4.78Z"/><path d="M380.52,442.49v2.83h6.54v16.89h-3.14v-1.43H368.74v1.48h-3V445.32h6v-2.83h-7.06v-3H388v3Zm3.4,15.46v-3.58a3.35,3.35,0,0,1-1.3.2h-2.18c-2.52,0-3-.85-3-3.43v-3h-2.59v.29a7.8,7.8,0,0,1-4.37,7.46,10.16,10.16,0,0,0-1.72-1.64V458Zm-15.18-9.8v5.49a5.45,5.45,0,0,0,3.2-5.25v-.24Zm8.71-5.66h-2.62v2.83h2.62Zm6.47,5.66h-3.56v3c0,.67.08.75.57.75h1.33c.44,0,.54-.18.59-1.35a4.81,4.81,0,0,0,1.07.57Z"/><path d="M393.56,461.59c2-.65,3.2-1.77,3.35-3.15a.83.83,0,0,1-.28,0,2.31,2.31,0,0,1-2.47-2.31,2.36,2.36,0,0,1,2.54-2.34c1.85,0,2.81,1.38,2.81,3.56,0,3-1.9,5.35-5.12,6.31Z"/><path d="M4.76,512.93c-.16,3.17-.71,6.88-2.32,9.43A13.38,13.38,0,0,0,0,520.51c1.72-2.78,1.87-6.83,1.87-9.82v-6.6H12v8.84Zm7.74-10.79H1v-2.81H12.5Zm-7.69,4.71v3.3H9v-3.3Zm20,3H22.45v12.52H19.39V509.81h-3c-.23,4-1.19,9-4.65,12.47a7.75,7.75,0,0,0-2.29-2.08c3.61-3.66,4-8.81,4-12.65v-7.18l2.13.5a29,29,0,0,0,6.34-2.55l2.73,2.34a42.6,42.6,0,0,1-8.19,2.78v3.38h8.34Z"/><path d="M37.57,515c-3.43,1.54-7.27,3.17-10.21,4.4l-1-3.3c1-.34,2.16-.76,3.46-1.28l-.52-15.17,3.22-.13L33,513.58c1.3-.55,2.62-1.1,3.92-1.62Zm10.76,7.31A45.26,45.26,0,0,0,43.47,516a18.45,18.45,0,0,1-7.9,6.32,17.57,17.57,0,0,0-2.47-2.73C41.34,516.51,44,510.22,45,499.54l3.4.31c-.54,5.33-1.48,9.67-3.17,13.21A56.23,56.23,0,0,1,51,519.73ZM38.59,509a26.61,26.61,0,0,0-3.87-6.45l2.8-1.4a26.4,26.4,0,0,1,4.11,6.23Z"/><path d="M75.41,510.38a25.82,25.82,0,0,1-4.32,5.69c.71,2,1.51,3.2,2.29,3.2.55,0,.86-1.25,1-4.32a7.77,7.77,0,0,0,2.55,1.77c-.5,4.55-1.46,5.69-3.82,5.69-1.9,0-3.36-1.56-4.47-4.11a27.23,27.23,0,0,1-4.81,3.18,13.49,13.49,0,0,0-2-2.5,26.44,26.44,0,0,0,5.79-3.66,48.36,48.36,0,0,1-1.32-7H61v3l4-.72.24,2.8-4.24.86v4.44c0,1.69-.36,2.53-1.4,3a11.37,11.37,0,0,1-4.68.6,12.49,12.49,0,0,0-1.09-3.12c1.45.08,3,0,3.43,0s.62-.13.62-.54V514.9c-1.66.34-3.27.68-4.65.94l-.75-3.12c1.48-.24,3.35-.52,5.4-.89v-3.48H52.93v-2.93h4.91v-3c-1.4.24-2.83.42-4.16.57a11.64,11.64,0,0,0-.88-2.59,66.36,66.36,0,0,0,10.32-2.19l2.08,2.63c-1.3.39-2.73.73-4.24,1v3.51h5c-.21-2.34-.29-4.76-.31-7.12h3.25a61.75,61.75,0,0,0,.26,7.12h7.06v2.93H69.46c.21,1.56.47,3.07.75,4.39a21.15,21.15,0,0,0,2.47-3.53Zm-1.9-5.72a20.75,20.75,0,0,0-3.69-4.29l2.34-1.58A22.45,22.45,0,0,1,76,502.92Z"/><path d="M93.05,509.34H88.58v12.91H85.72V499.49c-.52,1.48-1.11,3-1.79,4.5v18.32H81v-13a19.74,19.74,0,0,1-1.61,2.13,20.59,20.59,0,0,0-1.48-3.32,28.57,28.57,0,0,0,5.15-10l2.85.86-.15.49h7.3Zm-4.47-7.56v1.48h2.13v-1.48ZM90.71,507v-1.53H88.58V507Zm11.23,11.72c0,1.72-.37,2.55-1.4,3s-2.71.57-5.15.57a11.06,11.06,0,0,0-1-3,38.48,38.48,0,0,0,3.9.05c.49,0,.68-.15.68-.65v-9.35H94.22v-9.9h7.72Zm-5.28-16.94v1.48H99v-1.48ZM99,507v-1.53H96.66V507Z"/><path d="M128.49,508.27v3.36h-23.9v-3.36Z"/><path d="M140.68,504.45c.08-.44.16-.93.21-1.43H131v-2.83h10.16c.06-.78.08-1.53.11-2.21l3.64.11c-.11.7-.19,1.4-.32,2.1H154V503h-9.9c-.11.5-.19,1-.29,1.43h7.51V516.8h-14V504.45Zm13.62,16.74h-19v1.17h-3.07v-17.1h3.07v13h19Zm-6-14.58h-8v1.33h8Zm0,3.35h-8v1.3h8Zm0,3.36h-8v1.32h8Z"/><path d="M180.05,501.65v3h-13.9a30.7,30.7,0,0,1-3,5.12v12.58H160v-9a18.48,18.48,0,0,1-2.29,1.82,21.6,21.6,0,0,0-1.53-3,19.61,19.61,0,0,0,6.47-7.48H157v-3h7c.44-1.22.83-2.42,1.14-3.61l3.25.78c-.29,1-.62,1.89-1,2.83Zm-6.24,17.17H180v2.86H164.4v-2.86h6.29V512.9h-5.27V510h5.27v-4.31h3.12V510H179v2.86h-5.15Z"/><path d="M206.29,517.08H201.2v2.21c0,1.46-.29,2.19-1.35,2.6a12.68,12.68,0,0,1-4.42.44,10.53,10.53,0,0,0-1-2.73c1.3.06,2.76.06,3.17,0s.55-.08.55-.42v-2.13h-7.64a14.54,14.54,0,0,1,2.29,2L190.57,521a16.83,16.83,0,0,0-3.53-3.17l.93-.78h-5.3v-2.54h15.49v-1.2h-3.43V507.6H205v5.74H201.2v1.2h5.09Zm-23.18-5.48c1.07,0,2.37-.08,3.8-.16v-1.71h-3.38V507.6h9.87v2.13h-3.58v1.58l4-.18,0,2.21c-3.75.21-7.64.42-10.45.6ZM203,506.74H185.48v-2H200v-1H186.39v-1.87H200v-1H185.61v-2H203Zm-5.43,4.6H202v-1.77h-4.36Z"/><path d="M217.83,511.83l-3,.84v6.18c0,1.51-.29,2.26-1.17,2.7s-2.11.57-3.93.57a10.21,10.21,0,0,0-.88-2.8c1,0,2.11,0,2.44,0s.5-.13.5-.49v-5.38l-2.76.68-.8-2.94c1-.21,2.26-.49,3.56-.8v-4.55h-3.22V503h3.22v-4.91h3V503h2.78v2.86h-2.78v3.79l2.67-.65ZM231.18,509a26,26,0,0,1-4.67,6.94c.7,1.46,1.56,2.31,2.57,2.47.6.05.94-1.2,1.12-4a10.13,10.13,0,0,0,2.57,1.8c-.68,4.8-2.08,6-3.53,5.89-2.26-.23-3.93-1.55-5.18-3.84a21.2,21.2,0,0,1-4.85,3.2,12.72,12.72,0,0,0-2.5-2.4,21,21,0,0,0,6.13-3.79,44.22,44.22,0,0,1-1.45-7.72l-3.22.34-.32-3,3.28-.31c-.16-2-.26-4.16-.34-6.45H224c0,2.16.13,4.21.26,6.16l7.8-.75.28,2.88-7.82.78a42.11,42.11,0,0,0,.94,5.41,22.83,22.83,0,0,0,3.22-5.2Zm-2.91-5.2a34.82,34.82,0,0,0-3.32-3.95l2.34-1.53a46.05,46.05,0,0,1,3.48,3.74Z"/><path d="M234.12,519.5a10.68,10.68,0,0,0,3.2-6l2.75.83c-.57,2.6-1.51,5.2-3.35,6.89Zm10.65-15.31h-9.9v-2.91h9.9v-3.22h3.12v3.22h10.16v2.91H247.89v3.25h8.6v2.94H245.63a17.29,17.29,0,0,1,4,3l-2.23,2a17.34,17.34,0,0,0-4.63-3.64l1.64-1.43h-7.85v-2.94h8.21Zm4.24,15c1,0,1.22-.39,1.32-2.83a8.85,8.85,0,0,0,2.76,1.12c-.34,3.56-1.2,4.44-3.82,4.44h-4.18c-3.33,0-4.16-.86-4.16-3.61v-5H244v5c0,.78.21.91,1.43.91Zm5.12-6.26a22.22,22.22,0,0,1,4.44,6.55L255.74,521a22.26,22.26,0,0,0-4.18-6.76Z"/><path d="M283.47,518.77c0,1.61-.34,2.5-1.33,3s-2.44.6-4.6.6a10.77,10.77,0,0,0-1.06-3.07c1.37.08,2.88.08,3.32.05s.62-.18.62-.59V502.22h-16v20.11h-3V499.28h22Zm-4.58-12.13h-13V504h13ZM270,517.32V519h-2.85V508.64h10.57v8.68Zm0-6.14v3.59h4.86v-3.59Z"/><path d="M292.64,516.3c1.06,1.74,3,2.45,5.71,2.55,3,.13,8.89,0,12.35-.21a16.48,16.48,0,0,0-1,3.12c-3.11.16-8.34.21-11.43.08s-5.33-.86-7-2.89c-1.15,1-2.29,2-3.72,3.12l-1.51-3.22a34.1,34.1,0,0,0,3.56-2.39V511h-3v-2.84h6Zm-1.8-11.66a19.46,19.46,0,0,0-4.18-4.11l2.29-1.87a20.94,20.94,0,0,1,4.34,3.92Zm8.73.13c.11-.47.19-.94.26-1.41h-6.28v-2.49h3.61A10.44,10.44,0,0,0,296,499l2.45-.91a9.13,9.13,0,0,1,1.68,2.65l-.31.13H303a21.4,21.4,0,0,0,1.38-2.81l3.06.65c-.46.78-.93,1.53-1.37,2.16h4v2.49h-6.94c-.21.5-.44,1-.65,1.41h5.69V517.4H295.55V504.77Zm5.57,2.23h-6.68v1.35h6.68Zm0,3.38h-6.68v1.35h6.68Zm0,3.4h-6.68v1.38h6.68Z"/><path d="M325.77,498.09A26.2,26.2,0,0,0,336.89,507a14.86,14.86,0,0,0-2,2.78,32.08,32.08,0,0,1-4-2.47v1.79H318v-1.82a34.6,34.6,0,0,1-4,2.55,12.36,12.36,0,0,0-1.95-2.52,27.55,27.55,0,0,0,10.58-9.25Zm-9.51,13.61h16.47v10.66h-3.17v-1H319.3v1h-3Zm13.38-5.3a28.64,28.64,0,0,1-5.33-5.27,26.57,26.57,0,0,1-5.17,5.27Zm-10.34,8v4.24h10.26v-4.24Z"/><path d="M361.86,502.06s0,1,0,1.41c-.33,11.61-.62,15.74-1.68,17.12a3.48,3.48,0,0,1-2.5,1.43,29.49,29.49,0,0,1-4.08.05,7.36,7.36,0,0,0-1-3c1.66.15,3.19.15,3.87.15a1.37,1.37,0,0,0,1.14-.44c.76-.83,1.09-4.73,1.38-13.9h-5.56A22.52,22.52,0,0,1,351.1,509a19.09,19.09,0,0,0-2-1.46v12.14h-6.94v1.89h-2.8v-19.3h2.93a28.54,28.54,0,0,0,.76-4.19l3.37.47c-.44,1.3-.9,2.6-1.35,3.72h4v4.21a27.06,27.06,0,0,0,3.51-8.37l2.94.67a29.91,29.91,0,0,1-1,3.3ZM346.29,505h-4.13v4.21h4.13Zm0,12v-5.1h-4.13v5.1Zm8.63-1.41a57.73,57.73,0,0,0-3.61-6l2.42-1.38a65.53,65.53,0,0,1,3.82,5.77Z"/><path d="M388.62,511.08c-1.66,6.47-5.89,9.69-11.66,11.3a11.49,11.49,0,0,0-1.59-2.52,15.75,15.75,0,0,0,5.59-2.31,17.76,17.76,0,0,0-2.39-2.23c-.44.28-.89.57-1.38.85a7.85,7.85,0,0,0-1.84-2c.23-.13.46-.23.7-.36h-4v.18c1.27.8,4.05,2.86,4.76,3.46l-1.8,2.52a40.82,40.82,0,0,0-3-3.17v5.56h-2.88v-5.46a19.58,19.58,0,0,1-4,4.73,17.86,17.86,0,0,0-1.36-3,18.64,18.64,0,0,0,4.4-4.8h-3.62V511h4.58v-1.59h-3.9V499.1H376.2v4.06a12.94,12.94,0,0,0,4.37-5.07l2.83.47a12.34,12.34,0,0,1-.7,1.29h2.81l.51-.07,1.93.72a14.46,14.46,0,0,1-5.35,8.11l1.76.31c-.28.55-.6,1.07-.93,1.59h2.75l.55-.1Zm-20.84-7.92h1.64v-1.59h-1.64Zm0,3.84h1.64v-1.56h-1.64Zm5.82-3.84v-1.59h-1.79v1.59Zm0,3.84v-1.56h-1.79V507Zm2.84,6.52a13.69,13.69,0,0,0,4.13-3.63,25.93,25.93,0,0,1-2.94,1.24,11.94,11.94,0,0,0-1.43-1.95v.26h-4.13V511h4.37ZM376.2,509a14.09,14.09,0,0,0,4.71-2.44,18.12,18.12,0,0,0-2.19-1.95c-.49.41-1,.8-1.58,1.19a8.39,8.39,0,0,0-.94-1.09Zm4.84-6.7-.5.57a21.17,21.17,0,0,1,2.26,1.79,11.91,11.91,0,0,0,1.46-2.36ZM381.4,513l-.73.7a21.64,21.64,0,0,1,2.39,2,11,11,0,0,0,1.8-2.73Z"/><path d="M398.86,499.05a40.32,40.32,0,0,1-2.42,5v18.19h-2.93V508.53a25.13,25.13,0,0,1-2.16,2.45,20.4,20.4,0,0,0-1.61-3.15,27.6,27.6,0,0,0,6.26-9.72Zm15.67,16.4h-6.94v6.88h-3.12v-6.88h-6.83v-2.86h6.83v-3.51h-5.79v-2.86h5.79V498.4h3.12v7.82h5.9v2.86h-5.9v3.51h6.94Zm-13.95-9.59a23.79,23.79,0,0,0-2-5.54l2.6-1a22.74,22.74,0,0,1,2.19,5.38Zm13.4-5.62c-.93,2-2,4.08-2.78,5.51l-2.52-1a33.93,33.93,0,0,0,2.16-5.59Z"/><path d="M424.56,517.84a4.2,4.2,0,1,1-4.21-4.21A4.21,4.21,0,0,1,424.56,517.84Zm-1.87,0a2.33,2.33,0,1,0-2.34,2.31A2.31,2.31,0,0,0,422.69,517.84Z"/><path d="M4.42,624.88a18.59,18.59,0,0,1-1.54,1.35,26,26,0,0,0-2.52-2A15.88,15.88,0,0,0,5.74,618l3,.88a14.26,14.26,0,0,1-1,1.82h15.6v2.73H20.89v3.33h3.38v2.75H20.89v3.3h3v2.76H1.33V632.8H4.42v-3.3H.94v-2.75H4.42ZM.68,641.09a12.84,12.84,0,0,0,2.91-5l3,.73a14.22,14.22,0,0,1-3,5.46Zm6.47-14.34H9v-3.33H7.15Zm0,6H9v-3.3H7.15Zm4,3.87a34.7,34.7,0,0,1,.63,4.86l-3,.44a33.84,33.84,0,0,0-.49-5Zm2.39-9.92v-3.33H11.59v3.33Zm-1.92,2.75v3.3h1.92v-3.3Zm4.7,7.07a28,28,0,0,1,1.51,4.83l-3.09.6a28.31,28.31,0,0,0-1.33-4.94Zm1.77-13.15h-2v3.33h2Zm0,6.08h-2v3.3h2Zm3.43,6.5a34.52,34.52,0,0,1,3.27,5.19l-3.17,1.07a33.41,33.41,0,0,0-3.06-5.33Z"/><path d="M38.33,625.79a17.7,17.7,0,0,1-2.18,1.55,15,15,0,0,0-1.49-2.52l.19-.1H26.43v-2.44h9.2v2A19.91,19.91,0,0,0,41.29,618h2.78a20.1,20.1,0,0,0,7,6.47,15.78,15.78,0,0,0-1.64,2.7,18.41,18.41,0,0,1-2.05-1.48v1.74h-9Zm-3.51,15.07H30v1H27.49V633h7.33Zm0-12.61h-7.2v-2.36h7.2Zm-7.2,1.2h7.2v2.31h-7.2Zm7.15-8.32h-7V618.8h7ZM30,635.45v3H32.3v-3Zm19.54,4.11c0,1.09-.15,1.74-.8,2.15a4.6,4.6,0,0,1-2.47.45,9,9,0,0,0-.73-2.37c.47,0,.91,0,1.09,0s.26-.08.26-.29v-2.81H45.53v5.2h-2v-5.2H42.2v5.2h-2v-5.2H38.93v5.38H36.35V629h13.2Zm-9.38-5.25v-2.86H38.93v2.86Zm6.29-9.38a25.53,25.53,0,0,1-3.69-4.16,20.32,20.32,0,0,1-3.48,4.16Zm-3,9.38v-2.86H42.2v2.86Zm3.4,0v-2.86H45.53v2.86Z"/><path d="M66.39,638.91c.68.05,1.38.08,2.08.08,1.46,0,6.44,0,8.29-.08a10.47,10.47,0,0,0-1,3H68.31c-4.75,0-8-.68-10.16-3.69a11.65,11.65,0,0,1-3.63,4.13,12.75,12.75,0,0,0-2.34-2.15c2.65-1.64,4.23-4.4,4.83-7.88l3.09.47c-.18.83-.39,1.61-.6,2.36a5.72,5.72,0,0,0,3.75,3.25v-6.6H53.11V629H76v2.73H66.39v2h8v2.68h-8Zm7.17-11H55.5v-9H73.56ZM70.42,621H58.52v1.32h11.9Zm0,3.35H58.52v1.35h11.9Z"/><path d="M97.29,622.77c-.42.75-.81,1.46-1.15,2h5.17v14.08c0,1.54-.31,2.37-1.32,2.86a11.53,11.53,0,0,1-4.5.52,12.9,12.9,0,0,0-.88-2.63H88.27v1.43H85.54v-8.15H95.73v6.44c.91,0,1.71,0,2,0s.58-.13.58-.52v-8a2,2,0,0,1-2.08,1H94.14c-2.31,0-2.78-.7-2.78-2.81v-1.66h-2.1c-.24,2.88-1.2,4.55-5.15,5.46A6.19,6.19,0,0,0,83,631.09v11.12H80.06V624.8h4.62a17.12,17.12,0,0,0-.8-2H79.17V620h9.67V618H92V620h9.92v2.81Zm-14.3,8c2.78-.54,3.38-1.48,3.56-3.27H83Zm9.75-5.92c.31-.63.68-1.35,1-2H87.2a12.93,12.93,0,0,1,.84,2ZM93,635.19H88.27v2.18H93Zm5.38-7.74H94v1.64c0,.54.08.62.52.62h1.35c.45,0,.55-.18.63-1.43a7.48,7.48,0,0,0,1.82.73Z"/><path d="M120.57,636.33a23.08,23.08,0,0,0,8.24,2.84,13.75,13.75,0,0,0-2.08,2.8,22,22,0,0,1-8.73-4.39v4.68h-3v-4.52a24.92,24.92,0,0,1-8.71,4.21,13.93,13.93,0,0,0-2-2.57,27.19,27.19,0,0,0,8.21-3H105v-2.54H115v-1.14h-7.49v-2.24H115v-1.17h-8.79v-2.42h4.94a12.87,12.87,0,0,0-.88-2l.31,0h-5.43v-2.52h3.48A23.13,23.13,0,0,0,107,619l2.65-.91a19.53,19.53,0,0,1,2,3.67l-1.27.47h2.36V618h2.89v4.24h1.92V618h2.91v4.24h2.32l-.94-.29a22,22,0,0,0,1.64-3.77l3.25.78c-.73,1.2-1.43,2.37-2,3.28H128v2.52h-4.89c-.41.75-.83,1.45-1.22,2.07H127v2.42h-9v1.17h7.79v2.24H118v1.14h10.1v2.54Zm-7.07-11.58a12.77,12.77,0,0,1,.88,2l-.44.07h4.86c.31-.62.63-1.37.91-2.07Z"/><path d="M143.88,618A26.11,26.11,0,0,0,155,627a15.2,15.2,0,0,0-2,2.78,30.83,30.83,0,0,1-4-2.46v1.79H136.08v-1.82a36,36,0,0,1-4,2.55,12.1,12.1,0,0,0-2-2.52A27.55,27.55,0,0,0,140.68,618Zm-9.51,13.61h16.47v10.66h-3.17v-1H137.41v1h-3Zm13.38-5.3a28.64,28.64,0,0,1-5.33-5.27,26.57,26.57,0,0,1-5.17,5.27Zm-10.34,8v4.24h10.26v-4.24Z"/><path d="M165.05,619a39.76,39.76,0,0,1-2.49,5.4v17.8h-3.12v-13c-.54.65-1.09,1.3-1.61,1.87a22.14,22.14,0,0,0-1.71-3.3,27.12,27.12,0,0,0,5.92-9.72Zm8.24,6.13v2.73H180v2.81h-6.73v2.93h7.07v2.86h-7.07v5.77h-3.17v-17.1h-1a28.89,28.89,0,0,1-3.4,5,21.24,21.24,0,0,0-2.36-2.15,25.88,25.88,0,0,0,5.5-9.8l3,.75a31.32,31.32,0,0,1-1.27,3.23h10.08v2.93Z"/><path d="M188.1,641.79a48.27,48.27,0,0,0-5.59-5.74l2.71-2.34a48.93,48.93,0,0,1,5.66,5.69Z"/><path d="M211.72,639.56a17.72,17.72,0,0,0-1.45-1.85,13.42,13.42,0,0,1-4.19,4.5,10.77,10.77,0,0,0-1.79-2.42,10,10,0,0,0,3.85-4.29c-.39-.39-.81-.75-1.2-1.11l-.21.83-2.39-1.61c.52-2,1.07-4.78,1.61-7.64h-1.79v-2.81h2.29c.31-1.79.57-3.56.8-5.14l2.89.26c-.26,1.53-.55,3.19-.86,4.88h1.92l.5,0,1.76.18a40.33,40.33,0,0,1-1.92,11.62,19.49,19.49,0,0,1,2,2.31Zm-3-13.59c-.36,1.87-.75,3.71-1.11,5.43l1.61,1.38a32.71,32.71,0,0,0,1.3-6.81Zm14.84,9a17.31,17.31,0,0,0,5.15,4.24,13.23,13.23,0,0,0-2.13,2.41,20,20,0,0,1-4.47-4.52v5.2h-3v-5a16.42,16.42,0,0,1-5,4.55,18.1,18.1,0,0,0-2.05-2.42,14.64,14.64,0,0,0,5.58-4.42H213.2v-2.6h5.9v-1.58h-3.58v-7.51H213.1v-2.6h2.42V618h2.8v2.65H223V618h2.93v2.65h2.27v2.6h-2.27v7.51h-3.76v1.58h6.13v2.6Zm-5.25-11.69v1.38H223v-1.38Zm0,5H223v-1.4h-4.63Z"/><path d="M240.15,630.23v9.43c0,1.12-.16,1.77-.86,2.16a5.39,5.39,0,0,1-2.78.44,10.16,10.16,0,0,0-.7-2.34c.6,0,1.19,0,1.43,0s.28-.11.28-.32v-1.79h-2.78v4.42h-2.59v-12h-1.54v-4.05h1.48V618.8h8.16v7.38h1.56v2.93h12.37v2H241.79v-.93Zm-.65-2h-6.68v1h6.68Zm-5.2-2.1h.91V622h2.73V621H234.3Zm3.22,5.22h-2.78v1.14h2.78Zm0,4.36v-1.19h-2.78v1.19Zm.42-9.58v-2.4h-1.09v2.4Zm16.53,13.59V642H241.24v-2.18h3.33a10.84,10.84,0,0,0-1-2.14l1.58-.57H242.7V632h10.62v5.06h-2.44l1.56.37c-.47.83-.94,1.63-1.35,2.34Zm-.78-11.54H242.33v-8.06h2.89V618h2.15v2.15h1.12V618h2.18v2.15h3Zm-9.1-5h1.12v-1.12h-1.12Zm0,3h1.12v-1.14h-1.12Zm.6,9h5.54v-1.43h-5.54Zm.65,1.82a10,10,0,0,1,1.17,2.71h1.77a23.58,23.58,0,0,0,1-2.71Zm2.65-13.82v-1.12h-1.12v1.12Zm-1.12,1.87v1.14h1.12v-1.14Zm3.93-3h-1.15v1.12h1.15Zm0,3h-1.15v1.14h1.15Z"/><path d="M269.64,618A26.11,26.11,0,0,0,280.76,627a15.69,15.69,0,0,0-2,2.78,31.43,31.43,0,0,1-4-2.46v1.79H261.85v-1.82a36.92,36.92,0,0,1-4,2.55,12.82,12.82,0,0,0-1.95-2.52A27.45,27.45,0,0,0,266.44,618Zm-9.51,13.61H276.6v10.66h-3.16v-1H263.17v1h-3Zm13.38-5.3a28.56,28.56,0,0,1-5.32-5.27,26.85,26.85,0,0,1-5.17,5.27Zm-10.34,8v4.24h10.27v-4.24Z"/><path d="M290.82,619a41.08,41.08,0,0,1-2.5,5.4v17.8h-3.11v-13c-.55.65-1.1,1.3-1.62,1.87a21.24,21.24,0,0,0-1.71-3.3,27.12,27.12,0,0,0,5.92-9.72Zm8.24,6.13v2.73h6.73v2.81h-6.73v2.93h7.06v2.86h-7.06v5.77h-3.17v-17.1h-1a28.91,28.91,0,0,1-3.41,5,20.38,20.38,0,0,0-2.36-2.15,25.76,25.76,0,0,0,5.51-9.8l3,.75a31.4,31.4,0,0,1-1.28,3.23h10.09v2.93Z"/><path d="M311.45,641.48c2-.65,3.2-1.77,3.35-3.14a1.23,1.23,0,0,1-.28,0,2.31,2.31,0,0,1-2.47-2.31,2.36,2.36,0,0,1,2.54-2.34c1.85,0,2.81,1.38,2.81,3.56,0,3-1.9,5.35-5.12,6.31Z"/><path d="M352.87,626.82a32.91,32.91,0,0,1-4.42,9.23c.68,1.9,1.43,3,2.13,3s.83-1.33,1-4.6a8.21,8.21,0,0,0,2.65,1.82c-.47,4.86-1.51,6-4,6-1.66,0-3-1.28-4.08-3.38a24.08,24.08,0,0,1-4.08,3.53,20.08,20.08,0,0,0-2.42-2.36,20.41,20.41,0,0,0,2.34-1.64c-3.84.86-7.95,1.74-11,2.39l-.57-3.17c2.91-.49,7.4-1.35,11.56-2.21l.29,2.81a21.18,21.18,0,0,0,2.62-2.65,58.11,58.11,0,0,1-1.82-10.76H330.52v-3.07h12.4c-.06-1.27-.11-2.49-.11-3.74h3.3c0,1.25,0,2.5.05,3.74h4.16a19.2,19.2,0,0,0-3.09-1.95l1.84-1.92a16.71,16.71,0,0,1,3.95,2.47l-1.29,1.4h1.92v3.07h-7.3a57,57,0,0,0,1,7.12,30.64,30.64,0,0,0,2.44-5.87Zm-11.43-.33v8.18h-9.67v-8.18Zm-3,2.6h-3.88v3h3.88Z"/><path d="M364.2,619a40,40,0,0,1-2.47,5.33v17.88h-3V628.93A24.31,24.31,0,0,1,357,631a19.7,19.7,0,0,0-1.66-3.22,27.37,27.37,0,0,0,5.9-9.72Zm9.2,6.5v13.3c0,1.49-.26,2.34-1.2,2.86a8.11,8.11,0,0,1-3.82.63,10.76,10.76,0,0,0-1.06-3.12c1.09,0,2.18,0,2.54,0s.47-.1.47-.44V625.5h-3a22.38,22.38,0,0,1-2.45,4,21.12,21.12,0,0,0-2.49-2,23.22,23.22,0,0,0,4.42-9.36l3,.68a39.51,39.51,0,0,1-1.22,3.87h8.94l.49-.1,2.18.41c-.31,2.11-.75,4.52-1.11,6l-2.63-.44c.13-.81.29-1.9.42-3Zm-4.32,4.68a26.77,26.77,0,0,1-3.53,8.68,18.93,18.93,0,0,0-2.65-1.67,18.82,18.82,0,0,0,3.17-7.64Zm8-.89a32.16,32.16,0,0,1,2.83,8.47l-3,1a32.92,32.92,0,0,0-2.63-8.55Z"/><path d="M405.59,621.58v3h-13.9a30.7,30.7,0,0,1-3,5.12v12.57H385.5v-9a18.38,18.38,0,0,1-2.28,1.82,21.67,21.67,0,0,0-1.54-3,19.6,19.6,0,0,0,6.47-7.48h-5.63v-3h7c.44-1.23.83-2.42,1.15-3.62l3.24.78c-.28,1-.62,1.9-1,2.84Zm-6.24,17.17h6.16v2.86H390v-2.86h6.29v-5.92H391V630h5.28v-4.31h3.11V630h5.15v2.86h-5.15Z"/><path d="M417.39,631.76c-1,.29-2,.55-3,.83v6.19c0,1.51-.29,2.26-1.17,2.7a8.33,8.33,0,0,1-3.93.57,10.21,10.21,0,0,0-.88-2.8c1,0,2.11,0,2.44,0s.5-.13.5-.49V633.4l-2.76.67-.8-2.93c1-.21,2.26-.49,3.56-.81v-4.54h-3.23v-2.86h3.23V618h3v4.91h2.78v2.86h-2.78v3.79l2.67-.65Zm13.35-2.83a26.14,26.14,0,0,1-4.67,6.94c.7,1.45,1.56,2.31,2.57,2.47.6,0,.93-1.2,1.12-4a9.83,9.83,0,0,0,2.57,1.79c-.68,4.81-2.08,6-3.53,5.9-2.27-.23-3.93-1.56-5.18-3.84a21.32,21.32,0,0,1-4.86,3.19,12.08,12.08,0,0,0-2.49-2.39,21.12,21.12,0,0,0,6.13-3.79A44.22,44.22,0,0,1,421,627.5l-3.22.34-.32-3,3.28-.32c-.16-2-.26-4.15-.34-6.44h3.17c0,2.16.13,4.21.26,6.16l7.8-.76.28,2.89-7.82.78a41.93,41.93,0,0,0,.94,5.4,22.55,22.55,0,0,0,3.22-5.19Zm-2.91-5.2a35.9,35.9,0,0,0-3.32-4l2.34-1.53a47.91,47.91,0,0,1,3.48,3.74Z"/><path d="M457.87,637.35v3.12H434.25v-3.12h9.9V623.91h-8.5v-3.22h20.77v3.22h-8.73v13.44Z"/><path d="M468.55,619a41,41,0,0,1-2.49,5.4v17.8h-3.12v-13c-.55.65-1.09,1.3-1.61,1.87a21.32,21.32,0,0,0-1.72-3.3,27,27,0,0,0,5.93-9.72Zm8.24,6.13v2.73h6.73v2.81h-6.73v2.93h7.07v2.86h-7.07v5.77h-3.17v-17.1h-1a28.89,28.89,0,0,1-3.4,5,21.35,21.35,0,0,0-2.37-2.15,25.76,25.76,0,0,0,5.51-9.8l3,.75a33.76,33.76,0,0,1-1.27,3.23h10.08v2.93Z"/><path d="M489.18,641.48c2-.65,3.2-1.77,3.35-3.14a1.19,1.19,0,0,1-.28,0,2.31,2.31,0,0,1-2.47-2.31,2.36,2.36,0,0,1,2.55-2.34c1.84,0,2.8,1.38,2.8,3.56,0,3-1.89,5.35-5.12,6.31Z"/><path d="M23.39,686.79A33.26,33.26,0,0,1,19,696c.68,1.9,1.43,3,2.13,3,.55,0,.83-1.32,1-4.6a8.11,8.11,0,0,0,2.65,1.82c-.47,4.86-1.51,6-3.95,6-1.66,0-3-1.27-4.08-3.38a25,25,0,0,1-4.08,3.54A20.15,20.15,0,0,0,10.21,700a20,20,0,0,0,2.34-1.64c-3.84.86-8,1.75-11,2.4l-.57-3.18c2.91-.49,7.4-1.35,11.56-2.2l.29,2.8a21.88,21.88,0,0,0,2.62-2.65,57.82,57.82,0,0,1-1.82-10.76H1v-3.06h12.4c-.06-1.28-.11-2.5-.11-3.74h3.3c0,1.24,0,2.49.05,3.74h4.16a19.2,19.2,0,0,0-3.09-2l1.84-1.92a16.91,16.91,0,0,1,3.95,2.46l-1.3,1.41h1.93v3.06H16.86a58.24,58.24,0,0,0,1,7.12,30.12,30.12,0,0,0,2.44-5.87ZM12,686.45v8.19H2.29v-8.19Zm-3,2.6H5.09v3H9Z"/><path d="M26,680.73H30l1.53,9.39c.29,2,.6,4.08.89,6.13h.1c.39-2,.81-4.13,1.22-6.13l2.24-9.39h3.27l2.24,9.39c.41,2,.8,4,1.22,6.13h.13c.28-2.08.57-4.13.85-6.13l1.51-9.39h3.67L45.27,700H40.48l-2.15-9.51c-.31-1.5-.6-3-.83-4.44h-.11c-.26,1.45-.52,2.94-.83,4.44L34.46,700H29.75Z"/><path d="M51.4,679.23h3.79v5.22L55,687.18a6.59,6.59,0,0,1,4.57-2.13c3.14,0,4.49,2.18,4.49,5.84V700H60.28v-8.6c0-2.23-.62-3-2.05-3-1.19,0-1.95.57-3,1.64v10H51.4Z"/><path d="M67.3,696c0-3.11,2.52-4.75,8.37-5.38-.06-1.42-.68-2.52-2.47-2.52a8.22,8.22,0,0,0-4,1.38L67.82,687a11.64,11.64,0,0,1,6.08-1.92c3.69,0,5.59,2.21,5.59,6.42V700H76.37l-.29-1.56H76a6.78,6.78,0,0,1-4.39,1.93A4.13,4.13,0,0,1,67.3,696Zm8.37-.1V693c-3.54.47-4.73,1.43-4.73,2.73,0,1.15.8,1.64,1.92,1.64A3.87,3.87,0,0,0,75.67,695.91Z"/><path d="M83.93,694.87v-6.44H81.88v-2.84l2.23-.18.44-3.9h3.2v3.9h3.58v3H87.75v6.44c0,1.66.67,2.44,2,2.44a4.15,4.15,0,0,0,1.43-.31l.63,2.78a9.43,9.43,0,0,1-3.07.55C85.25,700.33,83.93,698.14,83.93,694.87Z"/><path d="M93.39,692.71c0-4.73,3.3-7.66,6.78-7.66,4,0,6.08,2.93,6.08,7a7.27,7.27,0,0,1-.18,1.74h-9a3.83,3.83,0,0,0,4,3.64,6,6,0,0,0,3.28-1l1.29,2.34a9.2,9.2,0,0,1-5.09,1.61C96.56,700.33,93.39,697.5,93.39,692.71Zm9.59-1.48c0-2-.89-3.22-2.76-3.22-1.53,0-2.88,1.09-3.17,3.22Z"/><path d="M107.7,685.41h3.85l2.13,7.25c.36,1.43.78,2.94,1.17,4.42H115c.36-1.48.78-3,1.17-4.42l2.13-7.25h3.66L117.09,700h-4.42Z"/><path d="M123.45,692.71c0-4.73,3.3-7.66,6.78-7.66,4,0,6.08,2.93,6.08,7a6.78,6.78,0,0,1-.18,1.74h-9a3.82,3.82,0,0,0,4,3.64,6,6,0,0,0,3.28-1l1.3,2.34a9.26,9.26,0,0,1-5.1,1.61C126.62,700.33,123.45,697.5,123.45,692.71Zm9.59-1.48c0-2-.88-3.22-2.75-3.22-1.54,0-2.89,1.09-3.18,3.22Z"/><path d="M139.46,685.41h3.12l.26,2.57h.1c1.06-1.89,2.62-2.93,4.13-2.93a4.19,4.19,0,0,1,1.72.31l-.68,3.3a4.48,4.48,0,0,0-1.51-.23c-1.14,0-2.52.75-3.35,2.85V700h-3.79Z"/><path d="M152.94,701.45c2-.65,3.2-1.77,3.35-3.15a.8.8,0,0,1-.28,0,2.31,2.31,0,0,1-2.47-2.32,2.36,2.36,0,0,1,2.55-2.33c1.84,0,2.8,1.37,2.8,3.56,0,3-1.89,5.35-5.12,6.31Z"/><path d="M195.84,680.68c-.93,2.5-2.07,5.43-3.14,7.72a8.32,8.32,0,0,1,2.65,6c0,2-.41,3.22-1.45,3.9a4.06,4.06,0,0,1-1.82.7,12,12,0,0,1-2.26,0,7.68,7.68,0,0,0-.78-3,13.56,13.56,0,0,0,1.63,0,2.08,2.08,0,0,0,1-.24c.5-.28.68-.91.68-1.76a7.48,7.48,0,0,0-2.68-5.33c.76-1.87,1.64-4.5,2.29-6.5h-3.3V702.2h-3V680a31.78,31.78,0,0,1-2.78,5.53h1.92v2.7h-3.87c-.55.68-1.09,1.28-1.66,1.9h4.67v11.72H181v-1h-4.19v1.33H174v-7.88c-.44.29-.89.55-1.3.78a15.38,15.38,0,0,0-1.8-2.57,23.89,23.89,0,0,0,6.21-4.29H171.6v-2.7h4.52v-2.13h-3.4v-2.65h3.4v-2.52H179v2.52h2.68V682a24.79,24.79,0,0,0,1.27-2.91l2.73.76v-.5h7.48l.47-.1ZM181,692.53h-4.19v1.67H181Zm0,5.82v-1.84h-4.19v1.84Zm-1.51-12.86c.49-.68,1-1.38,1.43-2.13h-2v2.13Z"/><path d="M217.1,688.19c0,2.47.81,8.19,4.7,11.36A25,25,0,0,0,220,702.2c-2.78-2.21-4-6.58-4.32-8.78-.31,2.26-1.79,6.49-4.85,8.78-.16-.29-.42-.7-.68-1.12v0H202v1h-2.6V696c-.26.34-.54.68-.83,1a19.21,19.21,0,0,0-1.53-2.44,15.46,15.46,0,0,0,3.22-6h-2.05v-5.18h5.48v5.18h-2.39l1.56.41c-.13.44-.29.91-.47,1.35h2a13.86,13.86,0,0,0,.58-1.76h-.47v-5.18h5.64v3.75a29.37,29.37,0,0,0,2.21-9.2l3,.39c-.19,1.48-.42,2.91-.73,4.31h4.52l.44-.18,2.05.73a42.45,42.45,0,0,1-1.37,7.35L218,689.28c.2-1,.36-2.44.49-3.84H217.1Zm-16.92-6.47h-2.62v-2.23h2.62V678h2.68v1.51h2.44V678H208v1.51h2.76v2.23H208V683H205.3v-1.28h-2.44V683h-2.68Zm0,5h1.35v-1.51h-1.35Zm3.9,6.65v-1H202v1ZM202,696.2h2.13v-1H202Zm0,2.8h2.13v-1H202Zm7.9,0c3.64-3.27,4.31-8.44,4.29-10.81v-2.75h-.26a19.31,19.31,0,0,1-2.11,5,16,16,0,0,0-2.44-1.87h-3.79l2.1.44-.75,1.32h3.3v2.06h-3.54v1h2.84v1.82h-2.84v1h2.84V698h-2.84v1Zm-3.4-12.26h1.48v-1.51h-1.48Z"/><path d="M229.1,696.35c1,1.77,2.91,2.52,5.59,2.63a128.56,128.56,0,0,0,13.2-.24,12.83,12.83,0,0,0-.91,2.89c-3.3.18-9,.23-12.29.08s-5.25-.89-6.81-2.92c-1,1-2,2.06-3.25,3.17L223.18,699c.93-.68,2.08-1.53,3.07-2.42v-5.74h-2.68V688h5.53Zm-2.26-11.82a18,18,0,0,0-3.45-4.47l2.44-1.56a19.12,19.12,0,0,1,3.64,4.29Zm2.91,8.55,1.51-.34v-13l1.48.39A18.46,18.46,0,0,0,236.2,678l2.05,2.24v-.65h8.42v13.2c0,1.25-.21,2-1,2.42a7.24,7.24,0,0,1-3.4.49,9.3,9.3,0,0,0-.84-2.6c.86,0,1.75,0,2,0s.42-.11.42-.42V682.14h-2.78v16.08h-2.81v-17.9a35.76,35.76,0,0,1-4.16,1.95v9.79c1.07-.26,2.16-.54,3.25-.83l.34,2.65c-2.42.68-5,1.38-7.12,1.93Z"/><path d="M273.49,696.48h-7.07c2.54,1.22,5.35,2.65,7,3.67l-3,2.1a66.87,66.87,0,0,0-7.14-4.08l1.89-1.69h-7.79l2.29,1.66a46.41,46.41,0,0,1-7.54,4.08,25.08,25.08,0,0,0-2.39-2.13,32,32,0,0,0,6.81-3.61h-6.91V693.6H252l-.41-13.93,1.74.47a26,26,0,0,0,3.06-1.95l2,1.89v-1.81H261v2.28h4v2.57h-4v1.75h3.87v8.73h3.23c0-.65.07-1.38.13-2.11h-2.47V689h2.57c0-.73.05-1.46.08-2.21h-2.63v-2.55h2.68c0-.7,0-1.38,0-2.05h-3v-2.68h5.87c0,4.55-.12,10.24-.36,14.14h2.5ZM254.8,693.6h3.54v-5.43h2.44v5.43h1.48v-6.32h-3.87V680.6c-1.25.6-2.65,1.23-3.93,1.72l.06,1.87h2.93v2.55h-2.86l.06,2.18h2.8v2.55h-2.73Z"/><path d="M298.35,690.27A25.55,25.55,0,0,1,294,696c.7,2,1.51,3.2,2.29,3.2.54,0,.85-1.25,1-4.32a8,8,0,0,0,2.55,1.77c-.49,4.55-1.46,5.69-3.82,5.69-1.9,0-3.35-1.56-4.47-4.1a27.36,27.36,0,0,1-4.81,3.17,13.49,13.49,0,0,0-2.05-2.5,26.44,26.44,0,0,0,5.79-3.66,48.09,48.09,0,0,1-1.32-7H283.9v3c1.33-.24,2.68-.5,4-.73l.23,2.81-4.24.85v4.45c0,1.69-.36,2.52-1.4,3a11.31,11.31,0,0,1-4.68.6,12.49,12.49,0,0,0-1.09-3.12c1.46.08,3,0,3.43,0s.63-.13.63-.55v-3.77c-1.67.34-3.28.68-4.66.94l-.75-3.12c1.48-.23,3.35-.52,5.41-.88v-3.49h-4.92v-2.93h4.92v-3c-1.41.23-2.84.41-4.16.57a11.58,11.58,0,0,0-.89-2.6,66.43,66.43,0,0,0,10.32-2.18l2.08,2.62c-1.3.39-2.73.73-4.24,1v3.51h5c-.2-2.34-.28-4.76-.31-7.12h3.25a64.08,64.08,0,0,0,.26,7.12h7.07v2.93H292.4c.21,1.56.47,3.07.76,4.4a21.58,21.58,0,0,0,2.46-3.54Zm-1.89-5.72a20.77,20.77,0,0,0-3.69-4.28l2.33-1.59a22.42,22.42,0,0,1,3.85,4.13Z"/><path d="M316,689.23h-4.47v12.92h-2.86V679.38c-.52,1.48-1.12,3-1.8,4.5V702.2h-2.93v-13a22.33,22.33,0,0,1-1.61,2.13,22.6,22.6,0,0,0-1.48-3.33A28.56,28.56,0,0,0,306,678l2.86.86-.16.49H316Zm-4.47-7.56v1.48h2.13v-1.48Zm2.13,5.22v-1.53h-2.13v1.53Zm11.22,11.72c0,1.72-.36,2.55-1.4,3s-2.7.57-5.15.57a11.15,11.15,0,0,0-1-3c1.58.11,3.38.08,3.89.06s.68-.16.68-.65v-9.36h-4.76v-9.9h7.72Zm-5.27-16.94v1.48h2.31v-1.48Zm2.31,5.22v-1.53h-2.31v1.53Z"/><path d="M335.93,681.7v20.52h-2.58v-4.49c-2,.41-4,.8-5.66,1.09l-.5-2.83,1.62-.24v-14h-1.17v-2.78h9.56v2.78Zm-2.58,0h-2v2.72h2Zm-2,8h2V687h-2Zm2,5.3v-2.78h-2v3.12Zm16.5-4a7,7,0,0,0-.2-1.15c-1.9.21-3.77.42-5.36.58l-.08-.45-1.71.6c0-.21-.05-.44-.08-.67l-5.72.57-.31-2.16,1.54-.08c.49-.7,1-1.5,1.48-2.34a18,18,0,0,0-2.68-2.8l1.3-1.8.44.37a29.63,29.63,0,0,0,1.35-3.64l2.5.73c-.83,1.43-1.69,3.06-2.42,4.23l.68.76c.44-.86.83-1.67,1.14-2.39l2.26.78c-1.12,1.92-2.52,4.18-3.79,5.95l1.69-.13c-.16-.45-.34-.89-.52-1.3l1.82-.55a16.06,16.06,0,0,1,.83,2.16l1.06-.08c.47-.68,1-1.45,1.43-2.29a15.1,15.1,0,0,0-2.81-2.85l1.23-1.9c.18.15.39.31.57.47a31.15,31.15,0,0,0,1.37-3.59l2.55.75c-.8,1.43-1.69,3-2.44,4.16a10.42,10.42,0,0,1,.73.78c.44-.88.83-1.71,1.14-2.47l2.36.86c-1.14,1.9-2.52,4.16-3.79,5.92l1.64-.13c-.16-.41-.34-.83-.52-1.22l1.84-.59a12.94,12.94,0,0,1,1.46,4.23Zm-6.6-.19v4.58c0,2.91-.54,5.46-4.21,7a7.34,7.34,0,0,0-1.5-2,4.72,4.72,0,0,0,3-2.91h-1.17v1h-2.21v-6.86h2.21v3.82h1.43v-4.58Zm5.23.76h2.33v6.81h-2.33v-.91H347v4.8h-2.5V690.74H347v4.6h1.51Z"/><path d="M356.84,693.6a23.77,23.77,0,0,1-1.56,6.7,15.59,15.59,0,0,0-2.36-1.12,19,19,0,0,0,1.38-6Zm19.62-12.42a20.23,20.23,0,0,1-4,6.41,22.84,22.84,0,0,0,5.59,2.79,10.49,10.49,0,0,0-2,2.46l-.05,0v9.3h-3v-1h-5.67v1.06h-2.86V693.1l-.44.19a7.6,7.6,0,0,0-.81-1.25l-1.71.78c-.08-.39-.18-.83-.31-1.3l-1.33.1v10.63h-2.67V691.8l-3.77.24-.26-2.68,1.87-.08c.39-.49.8-1.06,1.22-1.66a24.86,24.86,0,0,0-3.07-3.53l1.49-2.11.59.52a32.34,32.34,0,0,0,1.9-4.52l2.68,1c-.94,1.76-2,3.77-2.91,5.22.33.36.62.73.88,1,.88-1.46,1.71-2.94,2.31-4.21l2.52,1.17c-1.43,2.26-3.22,4.89-4.86,7l2.5-.1c-.29-.65-.6-1.3-.91-1.87l2.05-.86a27,27,0,0,1,1.87,4.08,20.47,20.47,0,0,0,4.86-2.73,27.11,27.11,0,0,1-2.13-2.42,19.67,19.67,0,0,1-2.16,2,8.93,8.93,0,0,0-2.07-2,16.91,16.91,0,0,0,5.66-7.3l3,.47a17.78,17.78,0,0,1-.88,1.82h4.47l.47-.13ZM362.12,693a29.21,29.21,0,0,1,1.61,4.67l-2.29.84a31.34,31.34,0,0,0-1.5-4.84Zm12.63-.68a24.41,24.41,0,0,1-4.4-2.7,22,22,0,0,1-4.08,2.7ZM373,698.51v-3.59h-5.67v3.59Zm-5.2-15.33a16,16,0,0,0,2.44,2.7,16.67,16.67,0,0,0,2.24-3H368Z"/><path d="M386.13,697.65a2.7,2.7,0,0,1,5.4,0,2.7,2.7,0,0,1-5.4,0Zm.44-13.25-.11-3.87h4.76l-.13,3.87-.91,8.89H387.5Z"/><path d="M3.19,1.8H24.36V7.17H9.62v7.44H23.44V20H9.62V32.12H3.19Z"/><path d="M48.6,20.68c0,6.91-4.13,12-11.35,12-7,0-11.18-5.06-11.18-11.84,0-7,4.27-12,11.49-12C44.25,8.8,48.6,13.55,48.6,20.68Zm-16.15.05c0,4.4,1.9,7,4.93,7s4.84-2.59,4.84-6.95c0-4.75-1.76-7-4.93-7C34.39,13.77,32.45,15.93,32.45,20.73Z"/><path d="M52.91,15.53c0-2.28,0-4.26,0-6.2h6.2c.09.53.18,2.77.18,4,1-2.59,3.43-4.48,7.3-4.53v6c-4.57-.13-7.3,1.1-7.3,7.35v9.94H52.91Z"/><path d="M80.94,15.09c0-1.93,0-4,0-5.76H87c.14.62.22,2.2.27,2.9.74-1.4,2.59-3.43,6.6-3.43,4.57,0,7.52,3.13,7.52,8.85V32.12H95.11V18.35c0-2.6-.84-4.44-3.65-4.44s-4.18,1.49-4.18,5.54V32.12H80.94Z"/><path d="M112,22.09c0,2.86,1.46,5.63,4.58,5.63,2.64,0,3.39-1,4-2.42h6.29c-.79,2.78-3.3,7.35-10.43,7.35-7.53,0-10.78-5.59-10.78-11.57,0-7.17,3.65-12.28,11-12.28,7.79,0,10.47,5.68,10.47,11.35a13,13,0,0,1-.09,1.94Zm8.81-3.87c0-2.64-1.1-4.89-4.18-4.89s-4.23,2.07-4.49,4.89Z"/><path d="M136,9.33c2.07,9.15,3.17,14.35,3.61,17.21h.09c.48-2.56,1.14-6.12,3.92-17.21h5.85c2.55,11.22,3.34,14.52,3.65,16.94h.05c.48-2.33,1.19-5.72,3.83-16.94h6.24l-6.77,22.79h-6.74c-1.89-8.62-2.94-13.2-3.47-16.19h-.05c-.35,2.86-1.58,8-3.6,16.19h-6.78L129.34,9.33Z"/><path d="M177.43,0h6.34V11.75c.92-1.45,2.81-2.95,6.51-2.95,6.2,0,9.28,5.15,9.28,11.53s-3.34,12.32-9.9,12.32c-3.38,0-4.88-1-6-2.68a10.37,10.37,0,0,1-.26,2.15h-6c0-2.46,0-5,0-7.43Zm10.91,13.86c-3.61,0-4.88,2.33-4.88,7,0,3.83,1.14,6.78,4.8,6.78,3.21,0,4.92-2.86,4.92-7.18C193.18,16.63,191.73,13.86,188.34,13.86Z"/><path d="M223.06,25.52c0,2.16,0,4.58.05,6.6h-6.17c-.08-.61-.13-1.84-.17-2.64-1.37,2.29-3.35,3.17-6.29,3.17-4.63,0-7.57-2.81-7.57-8.45V9.33h6.29v13.6c0,2.51.79,4.57,3.52,4.57s4.05-1.54,4.05-6V9.33h6.29Z"/><path d="M232.52,25.26c.48,1.85,2,2.86,4.31,2.86s3.17-.84,3.17-2.24-1-2-4.23-2.82c-7.43-1.85-8.62-4.14-8.62-7.35s2.33-6.91,9.2-6.91,9.28,3.79,9.46,6.87h-6c-.22-.84-.79-2.42-3.74-2.42-2.06,0-2.77.92-2.77,1.93s.71,1.67,4.4,2.55c7.61,1.76,8.71,4.36,8.71,7.71,0,3.78-2.9,7.21-9.81,7.21s-9.77-3.34-10.3-7.39Z"/><path d="M250.56,5.63V0h6.33V5.63Zm0,3.7h6.33V32.12h-6.33Z"/><path d="M262.57,15.09c0-1.93,0-4-.05-5.76h6.12c.13.62.22,2.2.27,2.9.74-1.4,2.59-3.43,6.6-3.43,4.57,0,7.52,3.13,7.52,8.85V32.12h-6.29V18.35c0-2.6-.84-4.44-3.65-4.44s-4.18,1.49-4.18,5.54V32.12h-6.34Z"/><path d="M293.63,22.09c0,2.86,1.46,5.63,4.58,5.63,2.64,0,3.39-1,4-2.42h6.3c-.79,2.78-3.3,7.35-10.43,7.35-7.53,0-10.78-5.59-10.78-11.57,0-7.17,3.65-12.28,11-12.28,7.79,0,10.47,5.68,10.47,11.35a13,13,0,0,1-.09,1.94Zm8.81-3.87c-.05-2.64-1.11-4.89-4.19-4.89s-4.22,2.07-4.48,4.89Z"/><path d="M317.7,25.26c.49,1.85,2,2.86,4.31,2.86s3.17-.84,3.17-2.24-1-2-4.22-2.82c-7.44-1.85-8.63-4.14-8.63-7.35s2.33-6.91,9.2-6.91,9.28,3.79,9.46,6.87h-6c-.22-.84-.8-2.42-3.74-2.42-2.07,0-2.78.92-2.78,1.93s.71,1.67,4.4,2.55c7.62,1.76,8.72,4.36,8.72,7.71,0,3.78-2.91,7.21-9.82,7.21S312,29.31,311.5,25.26Z"/><path d="M340.41,25.26c.48,1.85,2,2.86,4.31,2.86s3.17-.84,3.17-2.24-1-2-4.23-2.82c-7.43-1.85-8.62-4.14-8.62-7.35s2.33-6.91,9.19-6.91,9.29,3.79,9.46,6.87h-6c-.22-.84-.79-2.42-3.74-2.42-2.07,0-2.77.92-2.77,1.93s.7,1.67,4.4,2.55c7.61,1.76,8.71,4.36,8.71,7.71,0,3.78-2.9,7.21-9.81,7.21s-9.77-3.34-10.3-7.39Z"/><path d="M355.89,37.23a37.6,37.6,0,0,0,3.26-12.85h6.47c-.49,4.36-1.94,9.24-4.84,12.85Z"/><path d="M22.12,86.78c-.75,3.78-3.44,7.87-10.21,7.87-7.09,0-10.74-4.88-10.74-11.75s4.09-12.1,11-12.1c7.66,0,9.82,5.55,9.91,8.1H16a3.57,3.57,0,0,0-3.92-3.13c-2.9,0-4.53,2.51-4.53,6.91,0,4.89,1.76,7.09,4.49,7.09a3.88,3.88,0,0,0,3.91-3Z"/><path d="M45,88.23a50.81,50.81,0,0,0,.31,5.89h-6A8.72,8.72,0,0,1,39,91.88c-.84,1.28-2.38,2.77-6.42,2.77-5.51,0-7.79-3.61-7.79-7.13,0-5.19,4.13-7.61,10.82-7.61h3.26V78.55c0-1.63-.57-3.22-3.52-3.22-2.64,0-3.26,1.1-3.52,2.78h-6c.31-4,2.82-7.31,9.77-7.31,6.07,0,9.42,2.42,9.42,7.88Zm-6.16-4.49H36.33c-3.83,0-5.24,1.19-5.24,3.39,0,1.62,1,3,3.3,3,4,0,4.49-2.81,4.49-5.81Z"/><path d="M50.71,77.53c0-2.28,0-4.27,0-6.2h6.2c.09.53.18,2.77.18,4,1-2.59,3.43-4.49,7.3-4.53v6c-4.57-.13-7.3,1.1-7.3,7.35v9.94H50.71Z"/><path d="M73.06,84.09c0,2.86,1.46,5.63,4.58,5.63,2.64,0,3.39-1,4-2.42h6.29c-.79,2.78-3.3,7.35-10.43,7.35-7.53,0-10.78-5.59-10.78-11.57,0-7.17,3.65-12.28,11-12.28,7.79,0,10.47,5.68,10.47,11.35a13,13,0,0,1-.09,1.94Zm8.81-3.87c-.05-2.64-1.1-4.89-4.18-4.89s-4.23,2.07-4.49,4.89Z"/><path d="M97.48,84.09c0,2.86,1.46,5.63,4.58,5.63,2.64,0,3.39-1,4-2.42h6.29c-.79,2.78-3.3,7.35-10.43,7.35-7.53,0-10.78-5.59-10.78-11.57,0-7.17,3.65-12.28,11-12.28,7.79,0,10.47,5.68,10.47,11.35a13,13,0,0,1-.09,1.94Zm8.81-3.87c-.05-2.64-1.1-4.89-4.18-4.89s-4.23,2.07-4.49,4.89Z"/><path d="M116.89,77.53c0-2.28,0-4.27,0-6.2h6.21c.09.53.18,2.77.18,4,1-2.59,3.43-4.49,7.3-4.53v6c-4.58-.13-7.3,1.1-7.3,7.35v9.94h-6.34Z"/><path d="M163.79,88.23a50.81,50.81,0,0,0,.31,5.89h-6a9.19,9.19,0,0,1-.3-2.24c-.84,1.28-2.38,2.77-6.43,2.77-5.5,0-7.79-3.61-7.79-7.13,0-5.19,4.14-7.61,10.83-7.61h3.25V78.55c0-1.63-.57-3.22-3.52-3.22-2.64,0-3.25,1.1-3.52,2.78h-6c.31-4,2.81-7.31,9.77-7.31,6.07,0,9.41,2.42,9.41,7.88Zm-6.16-4.49h-2.55c-3.83,0-5.24,1.19-5.24,3.39,0,1.62,1,3,3.31,3,4,0,4.48-2.81,4.48-5.81Z"/><path d="M168.63,77.09c0-1.93,0-4,0-5.76h6.11a28.87,28.87,0,0,1,.27,2.9c.75-1.4,2.59-3.43,6.6-3.43,4.58,0,7.52,3.12,7.52,8.85V94.12H182.8V80.35c0-2.6-.83-4.44-3.65-4.44S175,77.4,175,81.45V94.12h-6.34Z"/><path d="M214.7,62V87.88c0,2.06,0,4.18.05,6.24h-6c-.13-.7-.27-1.84-.31-2.37-1.1,1.8-3.08,2.9-6.47,2.9-5.76,0-9.42-4.62-9.42-11.75s3.88-12.1,10.34-12.1c3.31,0,5.07,1.19,5.55,2.2V62ZM203.83,89.59c4.32,0,4.84-3.61,4.84-6.86,0-3.92-.57-6.87-4.71-6.87-3.3,0-5,2.6-5,6.91S200.71,89.59,203.83,89.59Z"/><path d="M2.4,139.23c0-2,0-3.92,0-5.9h6c.08.57.22,1.85.26,2.73A7.14,7.14,0,0,1,15,132.8a6,6,0,0,1,5.85,3.48,8,8,0,0,1,7-3.48c4,0,7.22,2.46,7.22,8.36v15H28.94V142c0-2.06-.75-4.09-3.35-4.09s-3.69,1.76-3.69,5.24v13H15.69v-14c0-2.33-.57-4.26-3.26-4.26s-3.78,1.58-3.78,5.5v12.71H2.4Z"/><path d="M45.74,146.09c0,2.86,1.45,5.63,4.58,5.63,2.64,0,3.39-1.05,4-2.42h6.29c-.79,2.78-3.3,7.35-10.42,7.35-7.53,0-10.79-5.59-10.79-11.57,0-7.17,3.66-12.28,11-12.28,7.78,0,10.47,5.68,10.47,11.35a13,13,0,0,1-.09,1.94Zm8.8-3.87c0-2.64-1.1-4.89-4.18-4.89s-4.22,2.07-4.49,4.89Z"/><path d="M86.05,124v25.88c0,2.06,0,4.18,0,6.24h-6c-.13-.7-.26-1.84-.31-2.37-1.1,1.8-3.08,2.9-6.46,2.9-5.77,0-9.42-4.62-9.42-11.75s3.87-12.1,10.34-12.1c3.3,0,5.06,1.19,5.54,2.2V124ZM75.18,151.59c4.31,0,4.84-3.61,4.84-6.86,0-3.92-.57-6.87-4.71-6.87-3.3,0-5,2.6-5,6.91S72.05,151.59,75.18,151.59Z"/><path d="M91.63,129.63V124H98v5.63Zm0,3.7H98v22.79H91.63Z"/><path d="M122.52,150.23a50.81,50.81,0,0,0,.31,5.89h-6a8.72,8.72,0,0,1-.31-2.24c-.83,1.28-2.37,2.77-6.42,2.77-5.5,0-7.79-3.61-7.79-7.13,0-5.19,4.14-7.61,10.82-7.61h3.26v-1.36c0-1.63-.57-3.22-3.52-3.22-2.64,0-3.26,1.1-3.52,2.78h-6c.3-4.05,2.81-7.31,9.76-7.31,6.08,0,9.42,2.42,9.42,7.88Zm-6.16-4.49h-2.55c-3.83,0-5.24,1.19-5.24,3.39,0,1.62,1,3,3.3,3,4,0,4.49-2.81,4.49-5.81Z"/><path d="M138.84,129.63V124h6.34v5.63Zm0,3.7h6.34v22.79h-6.34Z"/><path d="M150.85,139.09c0-1.93,0-4.05,0-5.76h6.12a28.94,28.94,0,0,1,.26,2.9c.75-1.4,2.6-3.43,6.6-3.43,4.58,0,7.53,3.12,7.53,8.85v14.47H165V142.35c0-2.6-.83-4.44-3.65-4.44s-4.18,1.49-4.18,5.54v12.67h-6.34Z"/><path d="M190.63,153.7c-1.27,2.07-3.3,3-6.33,3-5.07,0-9.6-3.78-9.6-11.7,0-7.35,4.4-12.15,10.12-12.15,3.61,0,5.28,1.5,5.81,2.69.05-.58.13-1.59.22-2.16h5.94c0,1.93,0,4.18,0,6.25v25.26h-6.12ZM186,151.59c3.87,0,4.75-2.77,4.75-6.91,0-4.4-.88-6.82-4.62-6.82-3.39,0-4.93,2.82-4.93,6.91S182.67,151.59,186,151.59Z"/><path d="M222.44,149.52c0,2.16,0,4.58.05,6.6h-6.16c-.09-.61-.13-1.84-.18-2.64-1.36,2.29-3.34,3.17-6.29,3.17-4.62,0-7.57-2.81-7.57-8.45V133.33h6.29v13.6c0,2.5.79,4.57,3.52,4.57s4.05-1.54,4.05-6V133.33h6.29Z"/><path d="M228.12,129.63V124h6.33v5.63Zm0,3.7h6.33v22.79h-6.33Z"/><path d="M240.08,139.53c0-2.28,0-4.27,0-6.2h6.21c.08.53.17,2.77.17,4,1-2.59,3.43-4.49,7.31-4.53v6c-4.58-.13-7.31,1.1-7.31,7.35v9.94h-6.34Z"/><path d="M257.42,129.63V124h6.34v5.63Zm0,3.7h6.34v22.79h-6.34Z"/><path d="M274.4,146.09c0,2.86,1.46,5.63,4.58,5.63,2.64,0,3.39-1.05,4-2.42h6.29c-.79,2.78-3.3,7.35-10.43,7.35-7.53,0-10.78-5.59-10.78-11.57,0-7.17,3.65-12.28,11-12.28,7.79,0,10.47,5.68,10.47,11.35a13,13,0,0,1-.09,1.94Zm8.81-3.87c0-2.64-1.1-4.89-4.18-4.89s-4.23,2.07-4.49,4.89Z"/><path d="M298.47,149.26c.49,1.85,2,2.86,4.32,2.86s3.16-.84,3.16-2.24-1-2-4.22-2.82c-7.44-1.85-8.63-4.14-8.63-7.35s2.34-6.91,9.2-6.91,9.29,3.78,9.46,6.87h-6c-.22-.84-.79-2.42-3.74-2.42-2.07,0-2.77.92-2.77,1.93s.7,1.67,4.4,2.55c7.61,1.76,8.71,4.36,8.71,7.7,0,3.79-2.91,7.22-9.82,7.22s-9.76-3.34-10.29-7.39Z"/><path d="M314,161.23a37.6,37.6,0,0,0,3.26-12.85h6.47c-.49,4.36-1.94,9.24-4.85,12.85Z"/><path d="M22.12,210.78c-.75,3.78-3.44,7.87-10.21,7.87-7.09,0-10.74-4.88-10.74-11.75s4.09-12.1,11-12.1c7.66,0,9.82,5.55,9.91,8.1H16a3.57,3.57,0,0,0-3.92-3.13c-2.9,0-4.53,2.51-4.53,6.91,0,4.89,1.76,7.09,4.49,7.09a3.88,3.88,0,0,0,3.91-3Z"/><path d="M47.33,206.68c0,6.91-4.14,12-11.36,12-7,0-11.17-5.06-11.17-11.84,0-7,4.26-12,11.48-12C43,194.8,47.33,199.55,47.33,206.68Zm-16.15,0c0,4.4,1.89,7,4.93,7S41,211.13,41,206.77c0-4.75-1.76-7-4.93-7C33.11,199.77,31.18,201.93,31.18,206.73Z"/><path d="M51.68,201.09c0-1.93,0-4.05,0-5.76h6.11a28.87,28.87,0,0,1,.27,2.9c.75-1.4,2.59-3.43,6.6-3.43,4.57,0,7.52,3.12,7.52,8.85v14.47H65.85V204.35c0-2.6-.84-4.44-3.65-4.44S58,201.4,58,205.45v12.67H51.68Z"/><path d="M75.53,195.33h3.52v-6.16h6.29v6.16h4.49v4.75H85.34v11.27c0,1.71.53,2.37,2.42,2.37.35,0,1,0,1.41,0V218a13.7,13.7,0,0,1-4.23.44c-4.44,0-5.89-2.37-5.89-6.38v-12H75.53Z"/><path d="M112.62,212.23a50.81,50.81,0,0,0,.31,5.89h-6a9.18,9.18,0,0,1-.31-2.24c-.83,1.28-2.37,2.77-6.42,2.77-5.5,0-7.79-3.61-7.79-7.13,0-5.19,4.14-7.61,10.82-7.61h3.26v-1.36c0-1.63-.57-3.22-3.52-3.22-2.64,0-3.25,1.1-3.52,2.78h-6c.3-4.05,2.81-7.31,9.76-7.31,6.08,0,9.42,2.42,9.42,7.88Zm-6.16-4.49h-2.55c-3.83,0-5.24,1.19-5.24,3.39,0,1.62,1,3,3.3,3,4,0,4.49-2.81,4.49-5.81Z"/><path d="M138,210.78c-.75,3.78-3.43,7.87-10.21,7.87-7.08,0-10.74-4.88-10.74-11.75s4.1-12.1,11.05-12.1c7.66,0,9.81,5.55,9.9,8.1h-6.12a3.56,3.56,0,0,0-3.91-3.13c-2.91,0-4.54,2.51-4.54,6.91,0,4.89,1.76,7.09,4.49,7.09a3.89,3.89,0,0,0,3.92-3Z"/><path d="M139.81,195.33h3.52v-6.16h6.29v6.16h4.49v4.75h-4.49v11.27c0,1.71.53,2.37,2.42,2.37.36,0,1,0,1.41,0V218a13.67,13.67,0,0,1-4.22.44c-4.45,0-5.9-2.37-5.9-6.38v-12h-3.52Z"/><path d="M188.7,211.52c0,2.16,0,4.58,0,6.6h-6.16c-.09-.61-.13-1.84-.18-2.64-1.36,2.29-3.34,3.17-6.29,3.17-4.62,0-7.57-2.81-7.57-8.45V195.33h6.3v13.6c0,2.5.79,4.57,3.52,4.57s4-1.54,4-6V195.33h6.3Z"/><path d="M199,211.26c.49,1.85,2,2.86,4.32,2.86s3.17-.84,3.17-2.24-1-2-4.23-2.82c-7.44-1.85-8.62-4.14-8.62-7.35s2.33-6.91,9.19-6.91,9.29,3.78,9.46,6.87h-6c-.22-.84-.79-2.42-3.74-2.42-2.07,0-2.77.92-2.77,1.93s.7,1.67,4.4,2.55c7.61,1.76,8.71,4.36,8.71,7.7,0,3.79-2.9,7.22-9.81,7.22s-9.77-3.34-10.3-7.39Z"/><path d="M216.41,218.12v-7.74h6.74v7.74Z"/></g></g></svg>