<svg viewBox="0 0 577.14 418.7" xmlns="http://www.w3.org/2000/svg"><path d="m3 12a18.49 18.49 0 0 1 -1.2 5.16 11.76 11.76 0 0 0 -1.8-.82 14.54 14.54 0 0 0 1.06-4.64zm2.46-1.56v8.26h-2.08v-8.06l-3 .2-.16-2.08 1.48-.06c.3-.38.62-.8.92-1.24a18.84 18.84 0 0 0 -2.4-2.74l1.12-1.64.48.42a26.44 26.44 0 0 0 1.46-3.5l2.1.74c-.72 1.38-1.54 2.92-2.26 4 .26.28.5.58.7.84a31.27 31.27 0 0 0 1.84-3.22l2 .84a64.39 64.39 0 0 1 -3.8 5.42l2-.08c-.22-.48-.46-1-.7-1.38l1.68-.74a16.31 16.31 0 0 1 1.86 4.22l-1.8.84a10.88 10.88 0 0 0 -.28-1.08zm1.8 1.1a22.81 22.81 0 0 1 1.3 3.76l-1.86.7a20.36 20.36 0 0 0 -1.18-3.86zm11.74 4.46v2.14h-11.66v-2.14h1.84v-15h8.52v15zm-7.52-12.86v2.78h3.82v-2.78zm3.82 4.86h-3.82v2.9h3.82zm-3.82 8h3.82v-3h-3.82z"/><path d="m23.06 12a21 21 0 0 1 -1 5.12 10.92 10.92 0 0 0 -1.62-.76 15.44 15.44 0 0 0 .8-4.64zm16.16-2.5a18.88 18.88 0 0 1 -2.4 5.08c.22 1 .5 1.58.82 1.6s.46-.9.56-2.44a7.6 7.6 0 0 0 1.46 1.26c-.48 3.08-1.36 3.8-2.1 3.78-1 0-1.72-.86-2.24-2.38a14.67 14.67 0 0 1 -2.78 2.3 7.29 7.29 0 0 0 -1.42-1.52 11.29 11.29 0 0 0 1.14-.76h-2.66v1h-1.8v-8.28h5.66v6.3a16.6 16.6 0 0 0 1.28-1.38 50.46 50.46 0 0 1 -.58-5.82h-7.26a12.13 12.13 0 0 1 .76 2.48l-1.68.7a8.38 8.38 0 0 0 -.22-1.06l-.66.06v1.58l1.5-.46a22.41 22.41 0 0 1 1 3.62l-1.64.58a25.33 25.33 0 0 0 -.84-3.52v6.44h-1.96v-8.06l-2.44.2-.2-2.08 1.3-.06c.3-.44.6-.94.92-1.46a18.42 18.42 0 0 0 -2.1-2.64l1-1.68c.14.12.26.26.4.4a24.08 24.08 0 0 0 1.08-3.28l2 .64c-.6 1.34-1.28 2.88-1.86 4a8 8 0 0 1 .54.68c.54-1 1-2 1.4-2.92l1.84.8v-1.28h2.26v-1.92h2.16v1.92h2.26v1.78h-1.14l.74.16c-.32.88-.66 1.84-.94 2.52h1.7c-.08-1.92-.08-4-.08-6.26h2v1.8l1.58-.66a20.89 20.89 0 0 1 1.8 3.74l-1.82.8a18.41 18.41 0 0 0 -1.56-3.58c0 1.46 0 2.86.06 4.16h3.14v1.86h-3.06c.06 1.2.12 2.3.22 3.26a14.1 14.1 0 0 0 1-2.5zm-14.08-1c-.18-.42-.36-.84-.54-1.24-.28.46-.58.9-.86 1.32zm1-2c.2.38.4.8.58 1.22v-1.34h1.56a10 10 0 0 0 -.5-2.44l1.02-.24h-1.8v-.44c-.64 1.16-1.42 2.48-2.22 3.74zm4.6-.3a21.32 21.32 0 0 0 .66-2.48h-2a8.24 8.24 0 0 1 .56 2.5l-.72.18h2.3zm-1.1 4.6v1.2h1.94v-1.2zm1.94 4v-1.22h-1.98v1.24z"/><path d="m46.36 1.68a16.65 16.65 0 0 0 -.48 1.76 49 49 0 0 0 -1 7.26 9.56 9.56 0 0 0 .12 1.3c.28-.7.6-1.36.88-2l1.24 1a47.75 47.75 0 0 0 -1.42 4.8 5.82 5.82 0 0 0 -.12.92v.82l-2.28.16a25.28 25.28 0 0 1 -.78-6.48 54.92 54.92 0 0 1 .82-7.84 14.8 14.8 0 0 0 .2-1.94zm4.64 9.78a6.52 6.52 0 0 0 -.24 1.66c0 .88.76 1.4 2.76 1.4a22.83 22.83 0 0 0 5-.52l.06 2.68a27.53 27.53 0 0 1 -5.12.4c-3.42 0-5-1.24-5-3.26a12.21 12.21 0 0 1 .34-2.58zm6.92-8.46v2.54a54.82 54.82 0 0 1 -8.5 0l-.02-2.54a40.41 40.41 0 0 0 8.52 0z"/><path d="m66.52 10.84a8.22 8.22 0 0 0 -.34 2c0 1.26 1.2 2.18 4.06 2.18a28.09 28.09 0 0 0 7-.78v2.78a30.24 30.24 0 0 1 -6.88.68c-4.54 0-6.82-1.52-6.82-4.24a12.74 12.74 0 0 1 .4-2.86zm-1.68-8.4a51.91 51.91 0 0 0 5.4.24c2 0 4.22-.12 5.74-.28v2.66c-1.38.1-3.84.24-5.72.24-2.08 0-3.8-.1-5.42-.22z"/><path d="m92.06 5.72a35.65 35.65 0 0 1 -3.84.66c-.18.84-.38 1.72-.6 2.54a64.74 64.74 0 0 1 -3.14 9.16l-2.78-.92a44.12 44.12 0 0 0 3.42-8.92c.14-.54.3-1.1.42-1.66-.46 0-.9 0-1.3 0-1 0-1.7 0-2.4-.08l-.06-2.46a19.19 19.19 0 0 0 2.5.14c.58 0 1.16 0 1.76-.06.08-.42.14-.82.18-1.12a10.43 10.43 0 0 0 .08-2l3 .24c-.14.56-.32 1.44-.42 1.88l-.16.74c1.12-.16 2.24-.38 3.32-.64zm-.4 6.5a7 7 0 0 0 -.28 1.66c0 .86.5 1.52 2.62 1.52a25 25 0 0 0 4.12-.4l-.12 2.54a31.69 31.69 0 0 1 -4 .28c-3.34 0-5-1.16-5-3.16a13.2 13.2 0 0 1 .28-2.66zm-1.16-5a37.31 37.31 0 0 1 3.8-.2 34.29 34.29 0 0 1 3.48.16l-.06 2.4a28.38 28.38 0 0 0 -3.4-.26 33 33 0 0 0 -3.82.22zm5.2-2a22.39 22.39 0 0 0 -1.56-2.78l1.58-.66a27.51 27.51 0 0 1 1.58 2.74zm2.38-4.34a23.67 23.67 0 0 1 1.62 2.72l-1.58.68a21.2 21.2 0 0 0 -1.62-2.76z"/><path d="m109 4.64c-.26.34-.68 1-1 1.5v.58a9.66 9.66 0 0 1 5.82-2.06 5.23 5.23 0 0 1 5.44 5.34c0 4-2.5 6.4-7.42 7.38l-1.18-2.38c3.48-.54 6-1.94 6-5a3 3 0 0 0 -3.26-3 8.29 8.29 0 0 0 -5.62 2.54v1.64c0 1.62 0 3.28.12 5.14 0 .36.1 1.08.14 1.52h-2.72c0-.42.06-1.14.06-1.46 0-1.54 0-2.68.08-4.36-.84 1.26-1.82 2.7-2.5 3.66l-1.56-2.2c1.12-1.36 3.12-4 4.24-5.66l.08-1.38-3.6.46-.24-2.54a16.84 16.84 0 0 0 1.72 0c.58 0 1.44-.14 2.28-.26 0-.74.08-1.3.08-1.52a10.56 10.56 0 0 0 -.12-1.78l2.9.08c-.12.56-.28 1.58-.44 2.82z"/><path d="m126.54 9.5a9.71 9.71 0 0 1 5.82-1.88c3.48 0 5.5 2.14 5.5 4.54 0 3.62-2.86 6.4-11.1 5.68l-.76-2.6c5.94.84 9.08-.62 9.08-3.14 0-1.28-1.22-2.22-3-2.22a6.94 6.94 0 0 0 -5.46 2.32 4.29 4.29 0 0 0 -.74 1.16l-2.3-.58a72.12 72.12 0 0 0 1-8.26l2.68.36c-.26 1.12-.58 3.48-.72 4.62zm.62-8.6a62.7 62.7 0 0 0 7.92 1.54l-.6 2.44c-2-.26-6.42-1.18-8-1.58z"/><path d="m151.52 5.28a29 29 0 0 1 -3.44.68 36.56 36.56 0 0 1 -4.24 8.48l-2.42-1.22a30.22 30.22 0 0 0 4-7c-.34 0-.68 0-1 0-.82 0-1.62 0-2.48-.06l-.18-2.32a25.18 25.18 0 0 0 2.64.14c.58 0 1.18 0 1.78-.06a16.86 16.86 0 0 0 .54-3.32l2.74.28c-.16.64-.4 1.64-.68 2.7a20.92 20.92 0 0 0 2.68-.58zm2.6 1.78c-.06.84 0 1.66 0 2.54 0 .56.06 1.52.12 2.5a13.19 13.19 0 0 1 4.1 2.54l-1.34 2.12a17.63 17.63 0 0 0 -2.68-2.1v.18c0 1.84-1 3.28-3.82 3.28-2.46 0-4.4-1.1-4.4-3.28 0-1.94 1.62-3.44 4.38-3.44.46 0 .92 0 1.34.08-.06-1.48-.16-3.22-.22-4.42zm-2.18 6.56a7 7 0 0 0 -1.6-.2c-1.14 0-1.88.48-1.88 1.18s.62 1.24 1.7 1.24c1.34 0 1.78-.78 1.78-1.84zm5.58-5.5a26.41 26.41 0 0 0 -4.76-2.82l1.28-2a35.64 35.64 0 0 1 4.88 2.7z"/><path d="m165 5.1c0 1.28 0 2.78.12 4.2.28 2.86.88 4.8 2.12 4.8.94 0 1.72-2.32 2.1-3.88l2 2.4c-1.32 3.44-2.56 4.66-4.16 4.66-2.16 0-4.06-2-4.62-7.28-.18-1.82-.22-4.12-.22-5.34a11.48 11.48 0 0 0 -.14-2h3a15.69 15.69 0 0 0 -.2 2.44zm13.76 8.14-2.62 1c-.3-3.18-1.36-7.84-3.52-10.28l2.52-.84c1.92 2.3 3.44 7.08 3.66 10.12z"/><path d="m187.14 15.22a3.23 3.23 0 1 1 -3.24-3.22 3.24 3.24 0 0 1 3.24 3.22zm-1.44 0a1.79 1.79 0 1 0 -1.8 1.78 1.79 1.79 0 0 0 1.8-1.78z"/><path d="m17.08 55.18a8.65 8.65 0 0 0 -.14 1.06c-.08 2.16-.32 7.76-1.18 9.76a2.46 2.46 0 0 1 -2.58 1.54c-1.14 0-2.34-.08-3.32-.16l-.3-2.68a16.55 16.55 0 0 0 2.8.28 1.06 1.06 0 0 0 1.14-.7c.58-1.26.84-5.26.84-7.42h-4.5c-.74 5.28-2.64 8.42-6.22 11l-2.32-1.86a11.47 11.47 0 0 0 2.62-2 11.76 11.76 0 0 0 3.3-7.12h-2.64c-.68 0-1.78 0-2.64.08v-2.62c.84.08 1.88.14 2.64.14h2.86c0-.56 0-1.14 0-1.74a14.8 14.8 0 0 0 -.14-1.84h2.94c-.06.46-.1 1.3-.12 1.78s0 1.22-.08 1.8h3.76a9.76 9.76 0 0 0 1.52-.14z"/><path d="m37.62 54.18a9.41 9.41 0 0 0 -.62 1.42 23 23 0 0 1 -2.76 5.48c.74.46 1.42.92 1.92 1.28l-1.86 2.34a23.16 23.16 0 0 0 -1.86-1.42 19.09 19.09 0 0 1 -7.38 5l-2.32-2a16.91 16.91 0 0 0 7.46-4.48c-1.36-.88-2.72-1.7-3.74-2.28l1.7-1.9c1.06.54 2.42 1.3 3.76 2.1a14.57 14.57 0 0 0 2.08-4.3h-5.74a23.54 23.54 0 0 1 -5.26 5.16l-2.16-1.66a18.31 18.31 0 0 0 6.38-6.64 8.85 8.85 0 0 0 .9-2.1l2.9.9c-.48.7-1 1.62-1.24 2h4.1a6.35 6.35 0 0 0 1.74-.22z"/><path d="m56.34 57.48c.42 0 1.38-.08 1.82-.12v2.58c-.54 0-1.22-.08-1.76-.08h-5.18a10 10 0 0 1 -5.12 8.22l-2.54-1.72a7.92 7.92 0 0 0 5-6.5h-5.5c-.62 0-1.36 0-1.88.08v-2.58a17.41 17.41 0 0 0 1.84.12h5.64v-2.84c-1.92.16-4 .22-5.36.26l-.62-2.32a47.2 47.2 0 0 0 6.82-.32 21.68 21.68 0 0 0 5-1.2l1.64 2.2-1.54.38a32.29 32.29 0 0 1 -3.36.66v3.18z"/><path d="m65.56 51.68a16.65 16.65 0 0 0 -.48 1.76 49 49 0 0 0 -1 7.26 9.56 9.56 0 0 0 .12 1.3c.28-.7.6-1.36.88-2l1.24 1a47.75 47.75 0 0 0 -1.42 4.8 5.82 5.82 0 0 0 -.12.92v.82l-2.28.16a25.28 25.28 0 0 1 -.78-6.48 54.92 54.92 0 0 1 .82-7.84 14.8 14.8 0 0 0 .2-1.94zm4.64 9.78a6.52 6.52 0 0 0 -.2 1.66c0 .88.76 1.4 2.76 1.4a22.83 22.83 0 0 0 5-.52l.06 2.68a27.53 27.53 0 0 1 -5.12.4c-3.42 0-5-1.24-5-3.26a12.21 12.21 0 0 1 .34-2.58zm6.92-8.46v2.56a54.82 54.82 0 0 1 -8.5 0v-2.56a40.41 40.41 0 0 0 8.5 0z"/><path d="m85.72 60.84a8.22 8.22 0 0 0 -.34 2c0 1.26 1.2 2.18 4.06 2.18a28.09 28.09 0 0 0 7-.78v2.78a30.24 30.24 0 0 1 -6.88.68c-4.54 0-6.82-1.52-6.82-4.24a12.74 12.74 0 0 1 .4-2.86zm-1.72-8.4a51.91 51.91 0 0 0 5.4.24c2 0 4.22-.12 5.74-.28v2.66c-1.38.1-3.84.24-5.72.24-2.08 0-3.8-.1-5.42-.22z"/><path d="m111.26 55.72a35.65 35.65 0 0 1 -3.84.66c-.18.84-.38 1.72-.6 2.54a64.74 64.74 0 0 1 -3.14 9.16l-2.78-.92a44.12 44.12 0 0 0 3.42-8.92c.14-.54.3-1.1.42-1.66-.46 0-.9 0-1.3 0-1 0-1.7 0-2.4-.08l-.04-2.42a19.19 19.19 0 0 0 2.5.14c.58 0 1.16 0 1.76-.06.08-.42.14-.82.18-1.12a10.43 10.43 0 0 0 .08-2l3 .24c-.14.56-.32 1.44-.42 1.88l-.16.74c1.12-.16 2.24-.38 3.32-.64zm-.4 6.5a7 7 0 0 0 -.28 1.66c0 .86.5 1.52 2.62 1.52a25 25 0 0 0 4.12-.4l-.1 2.54a31.69 31.69 0 0 1 -4 .28c-3.34 0-5-1.16-5-3.16a13.2 13.2 0 0 1 .34-2.64zm-1.16-5a37.31 37.31 0 0 1 3.8-.2 34.29 34.29 0 0 1 3.48.16l-.06 2.4a28.38 28.38 0 0 0 -3.4-.26 33 33 0 0 0 -3.82.22zm5.2-2a22.39 22.39 0 0 0 -1.56-2.78l1.58-.66a27.51 27.51 0 0 1 1.58 2.74zm2.38-4.34a23.67 23.67 0 0 1 1.62 2.72l-1.58.68a21.2 21.2 0 0 0 -1.62-2.76z"/><path d="m129 54.64c-.26.34-.68 1-1 1.5v.58a9.66 9.66 0 0 1 5.82-2.06 5.23 5.23 0 0 1 5.44 5.34c0 4-2.5 6.4-7.42 7.38l-1.18-2.38c3.48-.54 6-1.94 6-5a3 3 0 0 0 -3.26-3 8.29 8.29 0 0 0 -5.62 2.54v1.64c0 1.62 0 3.28.12 5.14 0 .36.1 1.08.14 1.52h-2.72c0-.42.06-1.14.06-1.46 0-1.54 0-2.68.08-4.36-.84 1.26-1.82 2.7-2.5 3.66l-1.56-2.2c1.12-1.36 3.12-4 4.24-5.66l.08-1.38-3.6.46-.24-2.54a16.84 16.84 0 0 0 1.72 0c.58 0 1.44-.14 2.28-.26 0-.74.08-1.3.08-1.52a10.56 10.56 0 0 0 -.08-1.76l2.9.08c-.12.56-.28 1.58-.44 2.82z"/><path d="m146.54 59.5a9.71 9.71 0 0 1 5.82-1.88c3.48 0 5.5 2.14 5.5 4.54 0 3.62-2.86 6.4-11.1 5.68l-.76-2.6c5.94.84 9.08-.62 9.08-3.14 0-1.28-1.22-2.22-3-2.22a6.94 6.94 0 0 0 -5.46 2.32 4.29 4.29 0 0 0 -.74 1.16l-2.3-.58a72.12 72.12 0 0 0 1-8.26l2.68.36c-.26 1.12-.58 3.48-.72 4.62zm.62-8.6a62.7 62.7 0 0 0 7.92 1.54l-.6 2.44c-2-.26-6.42-1.18-8-1.58z"/><path d="m171.12 55.28a29 29 0 0 1 -3.44.68 36.56 36.56 0 0 1 -4.24 8.48l-2.44-1.22a30.22 30.22 0 0 0 4-7c-.34 0-.68 0-1 0-.82 0-1.62 0-2.48-.06l-.18-2.32a25.18 25.18 0 0 0 2.66.16c.58 0 1.18 0 1.78-.06a16.86 16.86 0 0 0 .54-3.32l2.74.28c-.16.64-.4 1.64-.68 2.7a20.92 20.92 0 0 0 2.66-.62zm2.6 1.78c-.06.84 0 1.66 0 2.54 0 .56.06 1.52.12 2.5a13.19 13.19 0 0 1 4.1 2.54l-1.32 2.12a17.63 17.63 0 0 0 -2.68-2.1v.18c0 1.84-1 3.28-3.82 3.28-2.46 0-4.4-1.1-4.4-3.28 0-1.94 1.62-3.44 4.38-3.44.46 0 .92 0 1.34.08-.06-1.48-.16-3.22-.22-4.42zm-2.18 6.56a7 7 0 0 0 -1.6-.2c-1.14 0-1.88.48-1.88 1.18s.62 1.24 1.7 1.24c1.34 0 1.78-.78 1.78-1.84zm5.58-5.5a26.41 26.41 0 0 0 -4.76-2.82l1.28-2a35.64 35.64 0 0 1 4.88 2.7z"/><path d="m184.24 55.1c0 1.28 0 2.78.12 4.2.28 2.86.88 4.8 2.12 4.8.94 0 1.72-2.32 2.1-3.88l2 2.4c-1.32 3.44-2.56 4.66-4.16 4.66-2.16 0-4.06-2-4.62-7.28-.18-1.82-.22-4.12-.22-5.34a11.48 11.48 0 0 0 -.14-2h3a15.69 15.69 0 0 0 -.2 2.44zm13.76 8.14-2.62 1c-.3-3.18-1.36-7.84-3.52-10.28l2.52-.84c1.88 2.3 3.4 7.08 3.62 10.12z"/><path d="m206.34 65.22a3.23 3.23 0 1 1 -3.24-3.22 3.24 3.24 0 0 1 3.24 3.22zm-1.44 0a1.79 1.79 0 1 0 -1.8 1.78 1.79 1.79 0 0 0 1.8-1.78z"/><path d="m9.48 109.88v8.8h-2.32v-8.8h-2.34c-.1 3.26-.64 6.5-3 9a9.08 9.08 0 0 0 -1.74-1.68c1.92-2 2.42-4.64 2.54-7.32h-2.3v-2.2h2.32v-4.3h-2v-2.22h10.5v2.22h-1.66v4.3h1.92v2.2zm-2.32-2.2v-4.3h-2.32v4.3zm11.9 4.26a17.88 17.88 0 0 1 -7.24 6.72 8.91 8.91 0 0 0 -1.66-1.94 14.3 14.3 0 0 0 6.64-5.66zm-.74-10.74a20.36 20.36 0 0 1 -5.74 4.92 7.86 7.86 0 0 0 -1.68-1.68 15.06 15.06 0 0 0 5.16-4.16zm.32 5.46a21.33 21.33 0 0 1 -5.8 5.2 10 10 0 0 0 -1.66-1.66 16.21 16.21 0 0 0 5.28-4.42z"/><path d="m33.18 105.72c.42 5.84 1.64 10.46 3.1 10.46.42 0 .66-1.06.76-3.6a6.36 6.36 0 0 0 2.08 1.4c-.36 3.78-1.16 4.7-3.06 4.7-3.42 0-4.92-5.92-5.4-13h-9.94v-2.28h9.82c0-1.08-.06-2.2-.06-3.3h2.52v3.3h3.16a14.16 14.16 0 0 0 -2.34-2.1l1.58-1.3a14.94 14.94 0 0 1 2.62 2.22l-1.36 1.18h1.94v2.32zm-6.32 9c1.22-.22 2.5-.46 3.72-.7l.18 2.12c-3.28.72-6.8 1.46-9.38 2l-.66-2.4c1-.16 2.34-.36 3.78-.6v-4.84h-3v-2.3h8.58v2.3h-3.2z"/><path d="m46.76 101.68a16.65 16.65 0 0 0 -.48 1.76 49 49 0 0 0 -1 7.26 9.56 9.56 0 0 0 .12 1.3c.28-.7.6-1.36.88-2l1.24 1a47.75 47.75 0 0 0 -1.42 4.86 5.82 5.82 0 0 0 -.12.92v.82l-2.28.16a25.28 25.28 0 0 1 -.78-6.48 54.92 54.92 0 0 1 .82-7.84 14.8 14.8 0 0 0 .2-1.94zm4.64 9.78a6.52 6.52 0 0 0 -.24 1.66c0 .88.76 1.4 2.76 1.4a22.83 22.83 0 0 0 5-.52l.06 2.68a27.53 27.53 0 0 1 -5.12.4c-3.42 0-5-1.24-5-3.26a12.21 12.21 0 0 1 .34-2.58zm6.92-8.46v2.56a54.82 54.82 0 0 1 -8.5 0v-2.56a40.41 40.41 0 0 0 8.5 0z"/><path d="m66.92 110.84a8.22 8.22 0 0 0 -.34 2c0 1.26 1.2 2.18 4.06 2.18a28.09 28.09 0 0 0 7-.78v2.78a30.24 30.24 0 0 1 -6.88.68c-4.54 0-6.82-1.52-6.82-4.24a12.74 12.74 0 0 1 .4-2.86zm-1.68-8.4a51.91 51.91 0 0 0 5.4.24c2 0 4.22-.12 5.74-.28v2.66c-1.38.1-3.84.24-5.72.24-2.08 0-3.8-.1-5.42-.22z"/><path d="m92.46 105.72a35.65 35.65 0 0 1 -3.84.66c-.18.84-.38 1.72-.6 2.54a64.74 64.74 0 0 1 -3.14 9.16l-2.78-.92a44.12 44.12 0 0 0 3.42-8.92c.14-.54.3-1.1.42-1.66-.46 0-.9 0-1.3 0-1 0-1.7 0-2.4-.08l-.06-2.46a19.19 19.19 0 0 0 2.5.14c.58 0 1.16 0 1.76-.06.08-.42.14-.82.18-1.12a10.43 10.43 0 0 0 .08-2l3 .24c-.14.56-.32 1.44-.42 1.88l-.16.74c1.12-.16 2.24-.38 3.32-.64zm-.4 6.5a7 7 0 0 0 -.28 1.66c0 .86.5 1.52 2.62 1.52a25 25 0 0 0 4.12-.4l-.1 2.54a31.69 31.69 0 0 1 -4 .28c-3.34 0-5-1.16-5-3.16a13.2 13.2 0 0 1 .34-2.64zm-1.16-5a37.31 37.31 0 0 1 3.8-.2 34.29 34.29 0 0 1 3.48.16l-.06 2.4a28.38 28.38 0 0 0 -3.4-.26 33 33 0 0 0 -3.82.22zm5.2-2a22.39 22.39 0 0 0 -1.56-2.78l1.58-.66a27.51 27.51 0 0 1 1.58 2.74zm2.38-4.34a23.67 23.67 0 0 1 1.62 2.72l-1.58.68a21.2 21.2 0 0 0 -1.62-2.76z"/><path d="m109.84 104.64c-.26.34-.68 1-1 1.5v.58a9.66 9.66 0 0 1 5.82-2.06 5.23 5.23 0 0 1 5.46 5.34c0 4-2.5 6.4-7.42 7.38l-1.18-2.4c3.48-.54 6-1.94 6-5a3 3 0 0 0 -3.32-2.98 8.29 8.29 0 0 0 -5.62 2.54v1.64c0 1.62 0 3.28.12 5.14 0 .36.1 1.08.14 1.52h-2.72c0-.42.06-1.14.06-1.46 0-1.54 0-2.68.08-4.36-.84 1.26-1.82 2.7-2.5 3.66l-1.56-2.2c1.12-1.36 3.12-4 4.24-5.66l.08-1.38-3.6.46-.24-2.54a16.84 16.84 0 0 0 1.72 0c.58 0 1.44-.14 2.28-.26 0-.74.08-1.3.08-1.52a10.56 10.56 0 0 0 -.08-1.76l2.9.08c-.12.56-.28 1.58-.44 2.82z"/><path d="m126.94 109.5a9.71 9.71 0 0 1 5.82-1.88c3.48 0 5.5 2.14 5.5 4.54 0 3.62-2.86 6.4-11.1 5.68l-.76-2.6c5.94.84 9.08-.62 9.08-3.14 0-1.28-1.22-2.22-3-2.22a6.94 6.94 0 0 0 -5.46 2.32 4.29 4.29 0 0 0 -.74 1.16l-2.3-.58a72.12 72.12 0 0 0 1-8.26l2.68.36c-.24 1.12-.58 3.48-.72 4.62zm.62-8.6a62.7 62.7 0 0 0 7.92 1.54l-.6 2.44c-2-.26-6.42-1.18-8-1.58z"/><path d="m151.92 105.28a29 29 0 0 1 -3.44.68 36.56 36.56 0 0 1 -4.24 8.48l-2.42-1.22a30.22 30.22 0 0 0 4-7c-.34 0-.68 0-1 0-.82 0-1.62 0-2.48-.06l-.18-2.32a25.18 25.18 0 0 0 2.64.14c.58 0 1.18 0 1.78-.06a16.86 16.86 0 0 0 .54-3.32l2.74.28c-.16.64-.4 1.64-.68 2.7a20.92 20.92 0 0 0 2.66-.62zm2.6 1.78c-.06.84 0 1.66 0 2.54 0 .56.06 1.52.12 2.5a13.19 13.19 0 0 1 4.1 2.54l-1.32 2.12a17.63 17.63 0 0 0 -2.68-2.1v.18c0 1.84-1 3.28-3.82 3.28-2.46 0-4.4-1.1-4.4-3.28 0-1.94 1.62-3.44 4.38-3.44.46 0 .92 0 1.34.08-.06-1.48-.16-3.22-.22-4.42zm-2.18 6.56a7 7 0 0 0 -1.6-.2c-1.14 0-1.88.48-1.88 1.18s.62 1.24 1.7 1.24c1.34 0 1.78-.78 1.78-1.84zm5.58-5.5a26.41 26.41 0 0 0 -4.76-2.82l1.28-2a35.64 35.64 0 0 1 4.88 2.68z"/><path d="m165.44 105.1c0 1.28 0 2.78.12 4.2.28 2.86.88 4.8 2.12 4.8.94 0 1.72-2.32 2.1-3.88l2 2.4c-1.32 3.44-2.56 4.66-4.16 4.66-2.16 0-4.06-2-4.62-7.28-.18-1.82-.22-4.12-.22-5.34a11.48 11.48 0 0 0 -.14-2h3a15.69 15.69 0 0 0 -.2 2.44zm13.76 8.14-2.62 1c-.3-3.18-1.36-7.84-3.52-10.28l2.52-.84c1.88 2.3 3.42 7.08 3.62 10.12z"/><path d="m187.54 115.22a3.23 3.23 0 1 1 -3.24-3.22 3.24 3.24 0 0 1 3.24 3.22zm-1.44 0a1.79 1.79 0 1 0 -1.8 1.78 1.79 1.79 0 0 0 1.8-1.78z"/><path d="m15.56 167a15.3 15.3 0 0 0 -4.38-3.1v.68c0 1.74-.9 3.42-4.22 3.42-2.82 0-5.14-.92-5.14-3.62 0-2.06 1.76-3.7 5.4-3.7a11.37 11.37 0 0 1 1.18.06c-.06-1.54-.14-3.24-.14-4.28 0-1.2 0-2.38 0-3.22a12.57 12.57 0 0 0 -.26-2.24h3c-.08.58-.14 1.54-.18 2.32v1.44c1.56 0 3.88-.12 5.52-.3l.1 2.36c-1.66.16-4 .24-5.62.28 0 1.2.12 2.76.22 4.22a15.66 15.66 0 0 1 6 3.4zm-7.06-4a10.88 10.88 0 0 0 -1.64-.14c-1.54 0-2.46.52-2.46 1.36s1 1.34 2.38 1.34 1.74-.58 1.74-1.88c0-.1 0-.34-.02-.6z"/><path d="m24.24 155.1c0 1.28 0 2.78.12 4.2.28 2.86.88 4.8 2.12 4.8.94 0 1.72-2.32 2.1-3.88l2 2.4c-1.32 3.44-2.56 4.66-4.16 4.66-2.16 0-4.06-2-4.62-7.28-.18-1.82-.22-4.12-.22-5.34a11.48 11.48 0 0 0 -.14-2h3a15.69 15.69 0 0 0 -.2 2.44zm13.76 8.14-2.62 1c-.3-3.18-1.36-7.84-3.52-10.28l2.52-.84c1.88 2.3 3.4 7.08 3.62 10.12z"/><path d="m55.48 158.16a7.37 7.37 0 0 1 1.92 4.76c0 3-2.68 5.14-7 5.14-3.12 0-5.32-1.36-5.32-4.66 0-.48.06-1.18.14-2a22.21 22.21 0 0 1 -3.8-.66l.14-2.4a16.86 16.86 0 0 0 3.9.78c.12-.88.22-1.8.34-2.7a24.76 24.76 0 0 1 -3.94-.7l.14-2.3a18.36 18.36 0 0 0 4.06.74c.08-.6.12-1.14.16-1.58a12.47 12.47 0 0 0 0-1.76l2.78.18c-.16.72-.26 1.24-.34 1.76-.06.34-.12.86-.22 1.5a29.07 29.07 0 0 0 3.66-.26l-.1 2.36a35.49 35.49 0 0 1 -3.86.18c-.12.88-.24 1.82-.34 2.7h.2a39.29 39.29 0 0 0 4-.24l-.06 2.36c-1.12.1-2.28.18-3.5.18h-.8c0 .58-.08 1.08-.08 1.44 0 1.62 1 2.52 3 2.52 2.76 0 4.28-1.26 4.28-2.9a5.5 5.5 0 0 0 -2-3.84z"/><path d="m69.06 165.42c.76-.1 1.32-.2 1.84-.32a5.36 5.36 0 0 0 4.5-5.3c0-2.74-1.48-4.78-4.14-5.24a43 43 0 0 1 -1.18 5.38c-1.18 4-2.9 6.44-5.06 6.44s-4-2.42-4-5.76c0-4.56 4-8.48 9.12-8.48 4.9 0 8 3.42 8 7.74 0 4.16-2.56 7.12-7.56 7.88zm-1.54-6a31.79 31.79 0 0 0 1.06-4.8 6.21 6.21 0 0 0 -5 5.74c0 2 .8 3 1.54 3s1.6-1.26 2.4-3.94z"/><path d="m89.72 164.06c0-.58.06-1.5.08-2.36-1.46.8-2.26 1.58-2.26 2.56s.94 1.4 2.88 1.4a30.29 30.29 0 0 0 5.62-.58l-.04 2.58a54.8 54.8 0 0 1 -5.6.32c-3.1 0-5.44-.74-5.44-3.3s2.4-4.12 4.66-5.28a1.55 1.55 0 0 0 -1.38-.68 4.9 4.9 0 0 0 -3.1 1.36 25.37 25.37 0 0 0 -1.84 2.18l-2.12-1.58a19.36 19.36 0 0 0 4.36-5.44h-.24c-.8 0-2.26 0-3.34-.14v-2.32a25.41 25.41 0 0 0 3.48.22h1a11 11 0 0 0 .4-2.26l2.6.22c-.1.48-.24 1.16-.48 2a45.74 45.74 0 0 0 5.6-.58v2.32a64.52 64.52 0 0 1 -6.46.52 12.1 12.1 0 0 1 -1.14 2 6.2 6.2 0 0 1 2.24-.4 2.7 2.7 0 0 1 2.64 1.54c1-.48 1.86-.82 2.68-1.18s1.46-.68 2.18-1l1 2.3a21 21 0 0 0 -2.36.84c-.88.34-2 .78-3.22 1.34 0 1.1.06 2.56.08 3.46z"/><path d="m103.24 155.38c1.54-.46 5.56-1.88 8.46-1.88 3.58 0 6.4 2.06 6.4 5.72 0 4.48-4.28 7.36-11.26 7.72l-1.14-2.64c5.36-.12 9.56-1.68 9.56-5.12 0-1.86-1.28-3.28-3.66-3.28-2.92 0-7.6 2-9.66 2.88l-1.12-2.8a21.37 21.37 0 0 0 2.42-.6z"/><path d="m133.88 152.58c-.62.46-1.28 1-1.74 1.34-1.28 1-3.9 3.06-5.22 4.2-1.06.9-1 1.12 0 2 1.48 1.26 5.3 4.28 7.26 6.18l-2.3 2.12c-.56-.62-1.18-1.24-1.74-1.84-1.08-1.14-4.1-3.72-5.92-5.26s-1.8-2.76.18-4.4c1.54-1.26 4.26-3.46 5.6-4.78a13.68 13.68 0 0 0 1.52-1.66z"/><path d="m153.9 153.22q-.72.45-1.38.9c-1.06.74-3.14 2.5-4.38 3.5a6.66 6.66 0 0 1 1.86-.22c3.36 0 5.92 2.1 5.92 5 0 3.12-2.38 5.6-7.16 5.6-2.76 0-4.84-1.26-4.84-3.24a3.33 3.33 0 0 1 3.56-3.08 4 4 0 0 1 4.22 3.32 2.89 2.89 0 0 0 1.62-2.7c0-1.78-1.8-3-4.1-3-3 0-5 1.62-7.14 4l-1.8-1.86c1.4-1.14 3.78-3.16 5-4.12s3.16-2.58 4.14-3.44c-1 0-3.74.14-4.78.22a13.07 13.07 0 0 0 -1.62.16l-.08-2.58c.56.06 1.24.1 1.8.1 1 0 5.28-.1 6.4-.2a9.55 9.55 0 0 0 1.52-.2zm-4.48 12.46c-.12-1.28-.86-2.12-1.94-2.12-.74 0-1.22.44-1.22.94 0 .74.84 1.24 2 1.24a10.44 10.44 0 0 0 1.16-.06z"/><path d="m164.52 160.84a8.22 8.22 0 0 0 -.34 2c0 1.26 1.2 2.18 4.06 2.18a28.09 28.09 0 0 0 7-.78v2.78a30.24 30.24 0 0 1 -6.88.68c-4.54 0-6.82-1.52-6.82-4.24a12.74 12.74 0 0 1 .4-2.86zm-1.68-8.4a51.91 51.91 0 0 0 5.4.24c2 0 4.22-.12 5.74-.28v2.66c-1.38.1-3.84.24-5.72.24-2.08 0-3.8-.1-5.42-.22z"/><path d="m194.64 155.3c-.6.36-1.24.7-2 1.06a60.66 60.66 0 0 0 -5.52 2.94c-1.66 1.08-2.76 2.22-2.76 3.6s1.38 2.18 4.12 2.18a33.13 33.13 0 0 0 6.48-.72v2.86a38.74 38.74 0 0 1 -6.36.48c-3.94 0-6.92-1.1-6.92-4.5 0-2.2 1.38-3.82 3.28-5.22-.92-1.7-1.88-3.8-2.78-5.9l2.5-1a46.44 46.44 0 0 0 2.48 5.48c1.62-.94 3.34-1.82 4.28-2.34a13.68 13.68 0 0 0 1.82-1.2z"/><path d="m204.36 151.68a16.65 16.65 0 0 0 -.48 1.76 49 49 0 0 0 -1 7.26 9.56 9.56 0 0 0 .12 1.3c.28-.7.6-1.36.88-2l1.24 1a47.75 47.75 0 0 0 -1.42 4.86 5.82 5.82 0 0 0 -.12.92v.82l-2.28.16a25.28 25.28 0 0 1 -.78-6.48 54.92 54.92 0 0 1 .82-7.84 14.8 14.8 0 0 0 .2-1.94zm4.64 9.78a6.52 6.52 0 0 0 -.24 1.66c0 .88.76 1.4 2.76 1.4a22.83 22.83 0 0 0 5-.52l.06 2.68a27.53 27.53 0 0 1 -5.12.4c-3.42 0-5-1.24-5-3.26a12.21 12.21 0 0 1 .34-2.58zm6.92-8.48v2.56a54.82 54.82 0 0 1 -8.5 0v-2.56a40.41 40.41 0 0 0 8.5.02z"/><path d="m230.86 155.72a35.65 35.65 0 0 1 -3.84.66c-.18.84-.38 1.72-.6 2.54a64.74 64.74 0 0 1 -3.14 9.16l-2.78-.92a44.12 44.12 0 0 0 3.42-8.92c.14-.54.3-1.1.42-1.66-.46 0-.9 0-1.3 0-1 0-1.7 0-2.4-.08l-.06-2.46a19.19 19.19 0 0 0 2.5.14c.58 0 1.16 0 1.76-.06.08-.42.14-.82.18-1.12a10.43 10.43 0 0 0 .08-2l3 .24c-.14.56-.32 1.44-.42 1.88l-.16.74c1.12-.16 2.24-.38 3.32-.64zm-.4 6.5a7 7 0 0 0 -.28 1.66c0 .86.5 1.52 2.62 1.52a25 25 0 0 0 4.12-.4l-.1 2.54a31.69 31.69 0 0 1 -4 .28c-3.34 0-5-1.16-5-3.16a13.2 13.2 0 0 1 .34-2.64zm-1.16-5a37.31 37.31 0 0 1 3.8-.2 34.29 34.29 0 0 1 3.48.16l-.06 2.4a28.38 28.38 0 0 0 -3.4-.26 33 33 0 0 0 -3.82.22zm5.2-2a22.39 22.39 0 0 0 -1.56-2.78l1.58-.66a27.51 27.51 0 0 1 1.58 2.74zm2.38-4.34a23.67 23.67 0 0 1 1.62 2.72l-1.58.68a21.2 21.2 0 0 0 -1.62-2.76z"/><path d="m246.1 151.44a15.31 15.31 0 0 0 -.46 1.6c-.48 2.2-1.18 6.34-.66 8.8.26-.6.6-1.56.92-2.28l1.26.78a49.7 49.7 0 0 0 -1.34 4.84 4.63 4.63 0 0 0 -.14 1c0 .2 0 .54.06.82l-2.22.22a22.08 22.08 0 0 1 -1.14-6.42 51.79 51.79 0 0 1 .66-7.9 10.38 10.38 0 0 0 .12-1.72zm12.7 5.76c-.8.1-1.82.18-2.94.24v.82c0 4.68-.36 7.54-4.3 10.06l-2.3-1.8a7.7 7.7 0 0 0 2.32-1.58c1.52-1.58 1.84-3.34 1.84-6.68v-.72c-.74 0-1.5 0-2.22 0s-2.08-.06-3.06-.1v-2.44a20.8 20.8 0 0 0 3 .2h2.24c0-1.1-.06-2.12-.1-2.66a8.79 8.79 0 0 0 -.22-1.36h2.94a10.07 10.07 0 0 0 -.1 1.34v2.54a25.91 25.91 0 0 0 3-.36z"/><path d="m265.54 168.32a37.54 37.54 0 0 0 -4.3-4.42l2.08-1.8a37.49 37.49 0 0 1 4.36 4.38z"/><path d="m296.22 155.76a28.61 28.61 0 0 1 -1.56 7.78 8.54 8.54 0 0 0 2.62 3.38 7.56 7.56 0 0 0 -1.46 1.78 9.33 9.33 0 0 1 -2.28-2.88 11.25 11.25 0 0 1 -2.7 3 7.91 7.91 0 0 0 -.92-1.28 1.22 1.22 0 0 1 -.6.86 4.53 4.53 0 0 1 -2.2.34 7.77 7.77 0 0 0 -.5-1.86h1.26s.26-.08.26-.26v-1.62h-2.32v3.6h-1.88v-10.42h6.06v8.62a9.43 9.43 0 0 0 2.56-3.3 31.62 31.62 0 0 1 -1.12-4.86 6.81 6.81 0 0 1 -.6.88 10.42 10.42 0 0 0 -1-1.86l-.82.3a7 7 0 0 0 -.24-.92c-1.92.2-3.84.4-5.38.58l-.3-1.48c-.24.44-.48.88-.74 1.32v11.22h-2.06v-8.24c-.34.42-.68.82-1 1.16a17.45 17.45 0 0 0 -1.26-2.18 18.39 18.39 0 0 0 3.58-5.24l2.08.74c-.12.28-.26.54-.4.82l1.1-.08c.2-.64.4-1.38.56-2h-1.86v-1.78h2.66v-1.88h2.14v1.84h2.86v1.78h-3.64c-.24.64-.48 1.28-.74 1.9l1.74-.14a10.48 10.48 0 0 0 -.56-1.06l1.64-.58a11.58 11.58 0 0 1 1.26 2.48 21.44 21.44 0 0 0 1.54-6.22l2.06.34c-.2 1.2-.42 2.38-.72 3.52h3.66v1.9zm-12.82-5a19.82 19.82 0 0 1 -4.12 4.86 10.8 10.8 0 0 0 -1.16-1.82 13.67 13.67 0 0 0 3.14-3.8zm2.42 9.16v1h2.32v-1zm2.32 3.6v-1.06h-2.32v1.06zm4.64-7.72a32.45 32.45 0 0 0 .82 4.64 30.66 30.66 0 0 0 .66-4.68h-1.48z"/><path d="m302.18 154v3.5c0 3.22-.3 8.14-2.12 11.22a8.66 8.66 0 0 0 -1.94-1.3c1.66-2.84 1.78-7 1.78-9.92v-5.6h7.1v-1.9h2.48v1.86h7.28v2.14zm10 6.88c.44 3 1.26 5.06 2.22 5.06.36 0 .52-.8.58-2.52a5.43 5.43 0 0 0 1.84 1.08c-.28 3-1 3.7-2.58 3.68-2.38 0-3.74-3.08-4.36-7.3h-3.8v2.3l3.8-.4.06 2c-2.6.32-5.38.64-7.44.88l-.24-2.14 1.54-.14v-8.38l1.78.48a44.2 44.2 0 0 0 7.74-1.42l1.76 1.72c-1 .28-2.08.54-3.26.76q0 1.14.12 2.22h4.68v2.08zm-9.7 5.44h8.52v2h-8.48zm7.16-7.52q-.09-.9-.12-1.86c-1.16.16-2.32.3-3.44.4v1.46z"/><path d="m336.88 153.08s0 .8 0 1.08c-.26 8.94-.48 12.12-1.3 13.18a2.67 2.67 0 0 1 -1.92 1.1 22.42 22.42 0 0 1 -3.14 0 5.6 5.6 0 0 0 -.78-2.32c1.28.12 2.46.12 3 .12a1.07 1.07 0 0 0 .88-.34c.58-.64.84-3.64 1.06-10.7h-4.28a17.25 17.25 0 0 1 -1.76 3.16 14.86 14.86 0 0 0 -1.54-1.12v9.34h-5.34v1.46h-2.16v-14.82h2.26a21.45 21.45 0 0 0 .58-3.22l2.6.36c-.34 1-.7 2-1 2.86h3.1v3.24a20.69 20.69 0 0 0 2.7-6.44l2.26.52a23.21 23.21 0 0 1 -.78 2.54zm-12 2.22h-3.18v3.24h3.18zm0 9.22v-3.92h-3.18v3.92zm6.64-1.08a42.8 42.8 0 0 0 -2.78-4.62l1.86-1.06a48.27 48.27 0 0 1 2.94 4.44z"/><path d="m344.76 151.68a16.65 16.65 0 0 0 -.48 1.76 49 49 0 0 0 -1 7.26 9.56 9.56 0 0 0 .08 1.28c.28-.7.6-1.36.88-2l1.24 1a47.75 47.75 0 0 0 -1.42 4.86 5.82 5.82 0 0 0 -.12.92v.82l-2.28.16a25.28 25.28 0 0 1 -.78-6.48 54.92 54.92 0 0 1 .82-7.84 14.8 14.8 0 0 0 .2-1.94zm4.64 9.78a6.52 6.52 0 0 0 -.24 1.66c0 .88.76 1.4 2.76 1.4a22.83 22.83 0 0 0 5-.52l.06 2.68a27.53 27.53 0 0 1 -5.12.4c-3.42 0-5-1.24-5-3.26a12.21 12.21 0 0 1 .34-2.58zm6.92-8.48v2.56a54.82 54.82 0 0 1 -8.5 0v-2.56a40.41 40.41 0 0 0 8.5.02z"/><path d="m364.92 160.84a8.22 8.22 0 0 0 -.34 2c0 1.26 1.2 2.18 4.06 2.18a28.09 28.09 0 0 0 7-.78v2.78a30.24 30.24 0 0 1 -6.88.68c-4.54 0-6.82-1.52-6.82-4.24a12.74 12.74 0 0 1 .4-2.86zm-1.68-8.4a51.91 51.91 0 0 0 5.4.24c2 0 4.22-.12 5.74-.28v2.66c-1.38.1-3.84.24-5.72.24-2.08 0-3.8-.1-5.42-.22z"/><path d="m390.46 155.72a35.65 35.65 0 0 1 -3.84.66c-.18.84-.38 1.72-.6 2.54a64.74 64.74 0 0 1 -3.14 9.16l-2.78-.92a44.12 44.12 0 0 0 3.42-8.92c.14-.54.3-1.1.42-1.66-.46 0-.9 0-1.3 0-1 0-1.7 0-2.4-.08l-.06-2.46a19.19 19.19 0 0 0 2.5.14c.58 0 1.16 0 1.76-.06.08-.42.14-.82.18-1.12a10.43 10.43 0 0 0 .08-2l3 .24c-.14.56-.32 1.44-.42 1.88l-.16.74c1.12-.16 2.24-.38 3.32-.64zm-.4 6.5a7 7 0 0 0 -.28 1.66c0 .86.5 1.52 2.62 1.52a25 25 0 0 0 4.12-.4l-.1 2.54a31.69 31.69 0 0 1 -4 .28c-3.34 0-5-1.16-5-3.16a13.2 13.2 0 0 1 .34-2.64zm-1.16-5a37.31 37.31 0 0 1 3.8-.2 34.29 34.29 0 0 1 3.48.16l-.06 2.4a28.38 28.38 0 0 0 -3.4-.26 33 33 0 0 0 -3.82.22zm5.2-2a22.39 22.39 0 0 0 -1.56-2.78l1.58-.66a27.51 27.51 0 0 1 1.58 2.74zm2.38-4.34a23.67 23.67 0 0 1 1.62 2.72l-1.58.68a21.2 21.2 0 0 0 -1.62-2.76z"/><path d="m408.24 154.64c-.26.34-.68 1-1 1.5v.58a9.66 9.66 0 0 1 5.82-2.06 5.23 5.23 0 0 1 5.46 5.34c0 4-2.5 6.4-7.42 7.38l-1.18-2.4c3.48-.54 6-1.94 6-5a3 3 0 0 0 -3.32-2.98 8.29 8.29 0 0 0 -5.62 2.54v1.64c0 1.62 0 3.28.12 5.14 0 .36.1 1.08.14 1.52h-2.72c0-.42.06-1.14.06-1.46 0-1.54 0-2.68.08-4.36-.84 1.26-1.82 2.7-2.5 3.66l-1.56-2.2c1.12-1.36 3.12-4 4.24-5.66l.08-1.38-3.6.46-.24-2.54a16.84 16.84 0 0 0 1.72 0c.58 0 1.44-.14 2.28-.26 0-.74.08-1.3.08-1.52a10.56 10.56 0 0 0 -.08-1.76l2.9.08c-.12.56-.28 1.58-.44 2.82z"/><path d="m435.1 153.22q-.72.45-1.38.9c-1.06.74-3.14 2.5-4.38 3.5a6.66 6.66 0 0 1 1.86-.22c3.36 0 5.92 2.1 5.92 5 0 3.12-2.38 5.6-7.16 5.6-2.76 0-4.84-1.26-4.84-3.24a3.33 3.33 0 0 1 3.56-3.08 4 4 0 0 1 4.22 3.32 2.89 2.89 0 0 0 1.62-2.7c0-1.78-1.8-3-4.1-3-3 0-5 1.62-7.14 4l-1.8-1.86c1.4-1.14 3.78-3.16 5-4.12s3.16-2.58 4.14-3.44c-1 0-3.74.14-4.78.22a13.07 13.07 0 0 0 -1.62.16l-.08-2.58c.56.06 1.24.1 1.8.1 1 0 5.28-.1 6.4-.2a9.55 9.55 0 0 0 1.52-.2zm-4.48 12.46c-.12-1.28-.86-2.12-1.94-2.12-.74 0-1.22.44-1.22.94 0 .74.84 1.24 2 1.24a10.44 10.44 0 0 0 1.16-.06z"/><path d="m446.74 165.22a3.23 3.23 0 1 1 -3.24-3.22 3.24 3.24 0 0 1 3.24 3.22zm-1.44 0a1.79 1.79 0 1 0 -1.8 1.78 1.79 1.79 0 0 0 1.8-1.78z"/><path d="m6.48 201.76c.84 0 4.56-.18 5.76-.32a7.77 7.77 0 0 0 1.38-.24l1.56 1.8c-.4.28-1.14.76-1.54 1.1-1.42 1.12-3.38 2.76-4.72 3.82 2.66-.28 5.92-.48 8.34-.48v2.34a29.87 29.87 0 0 0 -5.08 0c-1.82.26-3.34 1.54-3.34 3.16s1.22 2.16 3 2.38a17.25 17.25 0 0 0 3 0l-.52 2.6c-5.08.22-8-1.3-8-4.6a4.63 4.63 0 0 1 1.44-3.12c-1.8.14-4 .44-6 .78l-.24-2.4c1.06-.1 2.44-.28 3.46-.4a56.11 56.11 0 0 0 5.58-4.5c-.8.06-3.24.18-4 .26-.5 0-1.16.12-1.78.18l-.12-2.54c.56.16 1.14.18 1.82.18z"/><path d="m30.26 202.82c-1 1.42-2.48 4.18-3.46 5.92a4.51 4.51 0 0 1 2.26-.6 2.39 2.39 0 0 1 2.46 2.6c0 .88 0 2.48.1 3.3a1.12 1.12 0 0 0 1.26 1.08c1.7 0 2.78-2.22 3.34-4.68l2.14 1.74c-1 3.42-2.86 5.66-5.92 5.66a2.94 2.94 0 0 1 -3.28-2.76c-.08-1.06-.06-2.68-.12-3.48a1.07 1.07 0 0 0 -1.16-1.1c-1.36 0-2.46 1.36-3.16 3a38.22 38.22 0 0 0 -1.5 4.4l-2.8-.94c1.46-4 5.64-12.28 6.68-14.16.26-.54.62-1.18 1-2l2.82 1.14c-.22.2-.44.56-.66.88z"/><path d="m50.32 205.28a29 29 0 0 1 -3.44.68 36.56 36.56 0 0 1 -4.24 8.48l-2.42-1.22a30.22 30.22 0 0 0 4-7c-.34 0-.68 0-1 0-.82 0-1.62 0-2.48-.06l-.18-2.32a25.18 25.18 0 0 0 2.64.14c.58 0 1.18 0 1.78-.06a16.86 16.86 0 0 0 .54-3.32l2.74.28c-.16.64-.4 1.64-.68 2.7a20.92 20.92 0 0 0 2.66-.62zm2.6 1.78c-.06.84 0 1.66 0 2.54 0 .56.06 1.52.12 2.5a13.19 13.19 0 0 1 4.1 2.54l-1.32 2.12a17.63 17.63 0 0 0 -2.68-2.1v.18c0 1.84-1 3.28-3.82 3.28-2.46 0-4.4-1.1-4.4-3.28 0-1.94 1.62-3.44 4.38-3.44.46 0 .92 0 1.34.08-.06-1.48-.16-3.22-.22-4.42zm-2.18 6.56a7 7 0 0 0 -1.6-.2c-1.14 0-1.88.48-1.88 1.18s.62 1.24 1.7 1.24c1.34 0 1.78-.78 1.78-1.84zm5.58-5.5a26.41 26.41 0 0 0 -4.76-2.82l1.28-2a35.64 35.64 0 0 1 4.88 2.7z"/><path d="m66.74 200.76a37.36 37.36 0 0 1 -1.94 4.3v13.62h-2.26v-10.08c-.4.52-.8 1-1.18 1.42a15.59 15.59 0 0 0 -1.3-2.48 21 21 0 0 0 4.44-7.48zm11.7 3.24v9.38h-2.36v-1h-2.64v6.34h-2.38v-6.34h-2.58v1.18h-2.24v-9.56h4.82v-3.74h2.38v3.74zm-7.38 6.14v-3.92h-2.58v3.92zm5 0v-3.92h-2.62v3.92z"/><path d="m84 208v10.7h-2.34v-17.94h7.66v7.24zm0-5.5v1.06h3.1v-1.06zm3.08 3.8v-1.14h-3.08v1.14zm11.44 9.58c0 1.28-.26 2-1.06 2.36a8.64 8.64 0 0 1 -3.66.46 8.81 8.81 0 0 0 -.52-1.86h-5v1h-2.1v-8.66h7.7v7.1h1.78s.48-.12.48-.44v-7.84h-5.44v-7.26h7.84zm-10.2-4.92v1.2h3.3v-1.2zm3.3 4.14v-1.24h-3.3v1.24zm1.38-12.62v1.06h3.18v-1.06zm3.18 3.84v-1.18h-3.18v1.18z"/><path d="m112.66 205.5c-1.18.26-2.52.48-3.84.64-.18.86-.38 1.74-.6 2.54a63.88 63.88 0 0 1 -3.14 9.16l-2.78-.92a43.67 43.67 0 0 0 3.42-8.92c.14-.52.28-1.08.42-1.64-.46 0-.9 0-1.3 0-1 0-1.7 0-2.4-.08l-.06-2.48a19.5 19.5 0 0 0 2.5.16c.58 0 1.16 0 1.76-.06q.12-.66.18-1.14a10.28 10.28 0 0 0 .08-2l3 .24c-.14.54-.32 1.42-.42 1.86l-.16.76c1.12-.18 2.24-.4 3.32-.66zm-.4 6.5a6.85 6.85 0 0 0 -.28 1.66c0 .86.5 1.5 2.62 1.5a23 23 0 0 0 4.12-.4l-.1 2.54a31.69 31.69 0 0 1 -4 .28c-3.34 0-5-1.16-5-3.16a13.59 13.59 0 0 1 .34-2.64zm-1.16-5c1.1-.1 2.52-.2 3.8-.2a34.39 34.39 0 0 1 3.48.18l-.06 2.38a28.61 28.61 0 0 0 -3.4-.24 29.1 29.1 0 0 0 -3.82.22z"/><path d="m135.88 205.14c-2.06.32-5.2.7-7.86.84a35 35 0 0 1 -.9 3.42 9.63 9.63 0 0 1 4.92-1.24c3.2 0 5.32 1.72 5.32 4.24 0 4.46-4.28 6.06-10.68 5.38l-.7-2.56c4.34.7 8.72.18 8.72-2.74 0-1.18-1-2.18-3-2.18a6.8 6.8 0 0 0 -5.48 2.34 5.81 5.81 0 0 0 -.56.86l-2.34-.84a32 32 0 0 0 2.26-6.64c-1.26 0-2.42-.1-3.42-.2v-2.46a28 28 0 0 0 3.88.38c0-.3.1-.56.12-.8a12.12 12.12 0 0 0 .1-2l2.8.12a20.7 20.7 0 0 0 -.46 2l-.12.6a47.65 47.65 0 0 0 7.32-.94z"/><path d="m149.72 214.06c0-.58.06-1.5.08-2.36-1.46.8-2.26 1.58-2.26 2.56s.94 1.4 2.88 1.4a30.29 30.29 0 0 0 5.62-.58l-.08 2.58a54.8 54.8 0 0 1 -5.6.32c-3.1 0-5.44-.74-5.44-3.3s2.4-4.12 4.66-5.28a1.55 1.55 0 0 0 -1.38-.68 4.9 4.9 0 0 0 -3.1 1.36 25.37 25.37 0 0 0 -1.84 2.18l-2.12-1.58a19.36 19.36 0 0 0 4.36-5.44h-.24c-.8 0-2.26 0-3.34-.14v-2.32a25.41 25.41 0 0 0 3.48.22h1a11 11 0 0 0 .4-2.26l2.6.22c-.1.48-.24 1.16-.48 2a45.74 45.74 0 0 0 5.6-.58v2.32a64.52 64.52 0 0 1 -6.46.52 12.1 12.1 0 0 1 -1.14 2 6.2 6.2 0 0 1 2.24-.4 2.7 2.7 0 0 1 2.64 1.54c1-.48 1.86-.82 2.68-1.18s1.46-.68 2.18-1l1 2.3a21 21 0 0 0 -2.36.84c-.88.34-2 .78-3.22 1.34 0 1.1.06 2.56.08 3.46z"/><path d="m172.7 214.12a23.57 23.57 0 0 0 6.4 2.42 9.54 9.54 0 0 0 -1.48 1.9 22.14 22.14 0 0 1 -6.86-3.28v3.5h-2.34v-3.42a22.4 22.4 0 0 1 -6.9 3.3 12.87 12.87 0 0 0 -1.52-2 24.22 24.22 0 0 0 6.62-2.46h-6v-1.9h7.76v-.78h-5.5v-5.4c-.36.34-.74.66-1.14 1a7.48 7.48 0 0 0 -1.68-1.6 16.07 16.07 0 0 0 4.74-5.44l2.46.46a20.3 20.3 0 0 1 -1.08 1.72h2.84a15.36 15.36 0 0 0 .88-2.16l2.68.32c-.34.64-.72 1.28-1.08 1.84h6v1.86h-6.28v.82h5.3v1.56h-5.3v.84h5.32v1.56h-5.32v.86h6.86v1.8h-7.34v.78h7.86v1.9zm-3.7-10.12h-3.78v.82h3.78zm0 2.38h-3.78v.84h3.78zm-3.78 3.26h3.78v-.86h-3.78z"/><path d="m193.34 204.08a6.53 6.53 0 0 1 5.2 6.68c0 4.2-3 6.6-7.14 7.22l-1.52-2.28c4.36-.38 6.06-2.6 6.06-5.08a4.24 4.24 0 0 0 -3.2-4.36 24.11 24.11 0 0 1 -2.68 6.3c.36.42.72.82 1.08 1.18l-2 1.58c-.24-.26-.48-.52-.68-.78-1.34 1.44-2.44 2.12-3.9 2.12-1.64 0-3.16-1.4-3.16-4a8.69 8.69 0 0 1 2.92-6.26c-.18-.52-.36-1.06-.52-1.6a14.57 14.57 0 0 0 -.8-2.06l2.6-.8c.12.64.28 1.3.44 1.88.1.38.22.8.36 1.22a10.33 10.33 0 0 1 4.48-1.18c.08-.34.14-.66.2-1a10.69 10.69 0 0 0 .14-1.88l2.74.26c-.16.54-.34 1.5-.46 2zm-6.3 8.5a21.8 21.8 0 0 1 -1.84-3.8 6 6 0 0 0 -1.44 3.72c0 1 .4 1.58 1.12 1.58a3.24 3.24 0 0 0 2.12-1.5zm.1-5.34a19.84 19.84 0 0 0 1.4 3.14 23.6 23.6 0 0 0 1.76-4.24 7.72 7.72 0 0 0 -3.16 1.1z"/><path d="m203.5 203.12c1.64-.16 4.92-.44 8.54-.76 2-.16 4.22-.28 5.6-.34v2.56a20.45 20.45 0 0 0 -3.82.26 6 6 0 0 0 -4.18 5.54c0 3.26 3.06 4.42 6.4 4.6l-.92 2.74c-4.16-.28-8.08-2.52-8.08-6.8a7.92 7.92 0 0 1 2.92-6.1c-1.7.18-5.88.62-8.18 1.12l-.24-2.72c.8-.02 1.56-.06 1.96-.1z"/><path d="m225 205.1c0 1.28 0 2.78.12 4.2.28 2.86.88 4.8 2.12 4.8.94 0 1.72-2.32 2.1-3.88l2 2.4c-1.32 3.44-2.56 4.66-4.16 4.66-2.16 0-4.06-2-4.62-7.28-.18-1.82-.22-4.12-.22-5.34a11.48 11.48 0 0 0 -.14-2h3a15.69 15.69 0 0 0 -.2 2.44zm13.76 8.14-2.62 1c-.3-3.18-1.36-7.84-3.52-10.28l2.52-.84c1.92 2.3 3.44 7.08 3.66 10.12z"/><path d="m255.68 217a15 15 0 0 0 -4-2.74v.7c0 1.7-1.28 3-3.9 3-3.16 0-4.84-1.2-4.84-3.3s1.84-3.4 4.9-3.4a12.16 12.16 0 0 1 1.22.06c0-.6-.06-1.22-.08-1.8h-1c-1.16 0-3.44-.1-4.76-.26v-2.34a35.93 35.93 0 0 0 4.78.36h1v-2.06h-1a33 33 0 0 1 -4.3-.3v-2.26a26.22 26.22 0 0 0 4.3.38h1v-.9a7.93 7.93 0 0 0 -.1-1.36h2.7a13.24 13.24 0 0 0 -.14 1.4v.78a41.5 41.5 0 0 0 4.72-.48l.06 2.28c-1.3.12-2.9.28-4.8.38v2.06c2-.08 3.66-.26 5.28-.46v2.34c-1.78.2-3.32.34-5.24.4 0 .74.08 1.54.14 2.3a15.32 15.32 0 0 1 5.54 3zm-6.52-3.56a10.61 10.61 0 0 0 -1.62-.14c-1.4 0-2.16.54-2.16 1.22s.7 1.22 2.06 1.22c1.06 0 1.74-.32 1.74-1.46 0-.18 0-.46-.02-.8z"/><path d="m277.84 205.52c-1.2-.06-3.06-.1-5.74-.1v2.94a4.88 4.88 0 0 1 .74 2.74c0 2.58-1.52 5.86-6.36 7.22l-2.1-2.12a9.05 9.05 0 0 0 4.84-2.26 4.28 4.28 0 0 1 -.9.1 3.49 3.49 0 0 1 -3.42-3.64 3.73 3.73 0 0 1 4-3.7 4.75 4.75 0 0 1 .78.06v-1.32c-3 0-6.06.16-8.5.3l-.06-2.4c2.26 0 5.86-.1 8.52-.14a5.08 5.08 0 0 0 0-.6 13.4 13.4 0 0 0 -.18-1.72h2.88c-.06.32-.12 1.38-.14 1.7v.6h5.74zm-9 6.32c.82 0 1.56-.62 1.3-2.34a1.41 1.41 0 0 0 -1.3-.7 1.52 1.52 0 1 0 0 3z"/><path d="m286.34 215.22a3.23 3.23 0 1 1 -3.24-3.22 3.24 3.24 0 0 1 3.24 3.22zm-1.44 0a1.79 1.79 0 1 0 -1.8 1.78 1.79 1.79 0 0 0 1.8-1.78z"/><path d="m6.4 312.06c.72.5 2.38 1.82 2.84 2.18l-1.38 1.7a18.72 18.72 0 0 0 -1.46-1.56v4.26h-2.3v-4a14.13 14.13 0 0 1 -2.54 2.82 8.79 8.79 0 0 0 -1.56-1.7 13.12 13.12 0 0 0 3.6-3.86h-3v-2h3.5v-1.54h-3.58v-2h1.84a9 9 0 0 0 -.6-2.2l1.24-.24h-2.26v-1.92h3.36v-1.82h2.3v1.82h3.32v1.94h-2.06l1.16.22c-.36.86-.68 1.66-1 2.26h2v2h-3.42v1.54h3.3v2h-3.3zm-2.76-8.14a7.89 7.89 0 0 1 .68 2.2l-1 .28h3.92l-1.32-.28a15 15 0 0 0 .74-2.2zm15.36 4.86h-1.9v9.78h-2.3v-9.78h-2c0 3-.44 7.2-3.08 9.94a5.48 5.48 0 0 0 -1.7-1.62c2.3-2.44 2.54-5.84 2.54-8.6v-6.94l1.4.4a23.33 23.33 0 0 0 5.04-1.76l1.9 1.74a32.41 32.41 0 0 1 -6.14 1.84v2.8h6.24z"/><path d="m27.48 315.68a32.35 32.35 0 0 0 -2-2.88 9.87 9.87 0 0 1 -3.26 5.62 8.63 8.63 0 0 0 -1.62-1.7c2.2-1.62 2.9-4.36 3.1-6.88h-2.82v-2.16h2.9v-2.52h-2.6v-2.1h2.6v-2.86h2.22v2.86h2.5v2.1h-2.5v2.52h2.82v2.16h-2.9v.48c.84.86 2.76 3.06 3.2 3.62zm9.7.54c.32 0 .4-.26.44-2.36a6.7 6.7 0 0 0 2 .86c-.2 2.84-.74 3.56-2.16 3.56h-1.36c-1.76 0-2.14-.66-2.14-2.62v-3.48h-1c-.34 2.94-1.24 5.18-4.76 6.52a6.31 6.31 0 0 0 -1.28-1.78c2.92-1 3.54-2.62 3.8-4.74h-1.3v-11.48h8.88v11.48h-2.14v3.44c0 .54 0 .6.34.6zm-5.56-12.22h4.38v-1.2h-4.38zm0 3.06h4.38v-1.18h-4.38zm0 3h4.38v-1.16h-4.38z"/><path d="m53.76 302.74a8.85 8.85 0 0 0 1.14-.08 2.22 2.22 0 0 1 0-.38 2.39 2.39 0 1 1 2.4 2.38 1.14 1.14 0 0 1 -.26 0l-.16.6a20.19 20.19 0 0 1 -3 7.28 15.83 15.83 0 0 1 -8 5.52l-2.18-2.38a13.14 13.14 0 0 0 7.84-4.7 12.84 12.84 0 0 0 2.36-5.64h-9.4c-.92 0-1.86 0-2.38.08v-2.82a22.27 22.27 0 0 0 2.38.16zm4.64-.46a1.15 1.15 0 1 0 -1.14 1.14 1.16 1.16 0 0 0 1.14-1.14z"/><path d="m77.62 314.5v2.78h-2.72v-1.1h-9.62v1.1h-2.74c0-.1.06-1.84.06-2.8v-9.78c0-.56 0-1.38 0-1.94h2.12 11 2v1.94zm-12.34-9.16v8.3h9.66v-8.3z"/><path d="m87.44 308.58-1.44 2.24c-1.14-.8-3.22-2.14-4.56-2.86l1.44-2.2c1.34.72 3.54 2.1 4.56 2.82zm1.6 4.56a20.25 20.25 0 0 0 7.78-7.5l1.54 2.72a24.13 24.13 0 0 1 -7.94 7.2 25.15 25.15 0 0 1 -6.68 2.44l-1.5-2.62a21.45 21.45 0 0 0 6.76-2.24zm1.46-9.08-1.5 2.2c-1.12-.78-3.2-2.12-4.52-2.86l1.44-2.2c1.34.72 3.54 2.14 4.58 2.86zm6 .62-1.74.74a18.07 18.07 0 0 0 -1.76-3.14l1.66-.7a30.1 30.1 0 0 1 1.8 3.1zm2.8-1.08-1.7.76a19.22 19.22 0 0 0 -1.88-3l1.7-.7a25.72 25.72 0 0 1 1.84 2.94z"/><path d="m115.24 315a14.69 14.69 0 0 0 1.52-.12v2.62a10.2 10.2 0 0 0 -1.52-.1h-11a11.81 11.81 0 0 0 -1.64.1v-2.62a15.45 15.45 0 0 0 1.64.12h4.08v-6.44h-3.12c-.42 0-1.14 0-1.58.08v-2.54a10.48 10.48 0 0 0 1.58.1h9.16a13.61 13.61 0 0 0 1.56-.1v2.52c-.5 0-1.12-.08-1.56-.08h-3.46v6.46z"/><path d="m137.62 304.5a8 8 0 0 0 -.66 1.44 20.87 20.87 0 0 1 -3.48 6.68 18.84 18.84 0 0 1 -8.08 5.64l-2.4-2.12a15.94 15.94 0 0 0 8.06-4.94 14.22 14.22 0 0 0 2.84-5.46h-5.62a22.8 22.8 0 0 1 -5 4.84l-2.28-1.66a17.61 17.61 0 0 0 6.24-6.44 9.62 9.62 0 0 0 .9-2.1l2.92 1c-.48.7-1 1.6-1.22 2l-.06.1h4a6.41 6.41 0 0 0 1.74-.24z"/><path d="m155.08 312.34a57.77 57.77 0 0 0 -7.22-3v5.66c0 .58.1 2 .18 2.78h-3.12a21.4 21.4 0 0 0 .2-2.78v-11.46a14 14 0 0 0 -.2-2.42h3.08a21.75 21.75 0 0 0 -.18 2.42v2.94a65.32 65.32 0 0 1 8.36 3.1z"/><path d="m168.26 315.42c.76-.1 1.32-.2 1.84-.32a5.36 5.36 0 0 0 4.5-5.3c0-2.74-1.48-4.78-4.14-5.24a43 43 0 0 1 -1.18 5.38c-1.18 4-2.9 6.44-5.06 6.44s-4-2.42-4-5.76c0-4.56 4-8.48 9.12-8.48 4.9 0 8 3.42 8 7.74 0 4.16-2.56 7.12-7.56 7.88zm-1.54-6a31.79 31.79 0 0 0 1.06-4.8 6.21 6.21 0 0 0 -5 5.74c0 2 .8 3 1.54 3s1.6-1.26 2.4-3.94z"/><path d="m184.48 311a8.15 8.15 0 0 0 -.32 2c0 1.26 1.18 2.18 4 2.18a28.09 28.09 0 0 0 7-.78v2.8a31.59 31.59 0 0 1 -6.88.66c-4.54 0-6.8-1.52-6.8-4.24a13.22 13.22 0 0 1 .38-2.86zm10-10.5c.5.74 1.22 2 1.6 2.74l-1.62.7-.56-1.1v2.38c-1.38.1-3.84.24-5.72.24-2.08 0-3.8-.1-5.4-.22v-2.64a51.23 51.23 0 0 0 5.38.24c1.9 0 4.08-.12 5.6-.26a15.22 15.22 0 0 0 -.86-1.44zm2.36-.9a22.08 22.08 0 0 1 1.62 2.72l-1.58.68a21.2 21.2 0 0 0 -1.62-2.76z"/><path d="m218.24 308.66c-1.16 1-2.48 2-3.62 2.8a10.21 10.21 0 0 0 4 5 10.47 10.47 0 0 0 -1.7 2c-3.26-2.24-4.86-6.3-5.82-11.36a17.59 17.59 0 0 1 -1.76 2.08v6c1.22-.24 2.52-.52 3.78-.8l.24 2.14c-2.7.66-5.6 1.3-7.8 1.78l-.66-2.26c.64-.12 1.38-.24 2.18-.4v-4.48a19 19 0 0 1 -1.72 1.2 19.67 19.67 0 0 0 -1.24-1.66v7.86h-2.24v-10.42a17.31 17.31 0 0 1 -1.54 1.78 15.94 15.94 0 0 0 -1.24-2.48 21.36 21.36 0 0 0 4.7-7.4l2.2.72c-.34.84-.72 1.7-1.14 2.56h5.3v-3.06h2.42v3.06h5.2v2.2h-4.78a29.73 29.73 0 0 0 .88 4 23.6 23.6 0 0 0 2.56-2.52zm-14.14 1.58a16.13 16.13 0 0 0 5.28-4.72h-4.6v-2.1c-.22.44-.44.86-.68 1.28z"/><path d="m227.68 315.36a24 24 0 0 0 -1.8-2.48v5.78h-2.12v-5.12a15.24 15.24 0 0 1 -2.7 3.64 12.62 12.62 0 0 0 -1-2.18 16.07 16.07 0 0 0 3.16-4.08h-2.36v-5.48h2.9v-1.28h-3.18v-2.1h3.18v-2h2.12v2h3.12v2.1h-3.08v1.28h3v5.48h-2.52c.9.84 2.28 2.22 2.66 2.62zm-5.06-6.24h1.3v-1.9h-1.3zm4.42-1.9h-1.32v1.9h1.28zm6.4 8.76a14.53 14.53 0 0 1 -4.38 2.74 13.72 13.72 0 0 0 -1.54-1.5 12.27 12.27 0 0 0 4-2.46zm4.8-1.22h-8.34v-10.54h2.56c.08-.46.16-.94.22-1.4h-3.52v-2h9.7v2h-3.68c-.14.48-.3 1-.46 1.4h3.52zm-2.24-8.76h-4v1.24h4zm0 2.88h-4v1.24h4zm0 2.9h-4v1.22h4zm.1 3.16a26.64 26.64 0 0 1 3.24 2.6l-1.86 1.2a26.18 26.18 0 0 0 -3.12-2.72z"/><path d="m244.74 318.32a37.54 37.54 0 0 0 -4.3-4.42l2.08-1.8a37.49 37.49 0 0 1 4.36 4.38z"/><path d="m263 310.52c-.64.2-1.28.4-1.92.58v5.06c0 1.1-.18 1.7-.78 2.08a5.19 5.19 0 0 1 -2.78.44 8.85 8.85 0 0 0 -.6-2.2 16.16 16.16 0 0 0 1.66 0c.24 0 .34-.08.34-.34v-4.42c-.66.2-1.32.38-1.9.54l-.52-2.28c.68-.14 1.52-.36 2.42-.58v-3.4h-2.1v-2.18h2.1v-3.82h2.16v3.76h1.82v2.24h-1.8v2.88l1.62-.46zm8.42 1.48a12.21 12.21 0 0 0 4.24 3.92 8.94 8.94 0 0 0 -1.56 1.8 14.59 14.59 0 0 1 -3.82-3.92v4.74h-2.24v-4.84a13.86 13.86 0 0 1 -4.4 4.12 10.8 10.8 0 0 0 -1.58-1.86 11.94 11.94 0 0 0 4.72-4h-3.44v-2.06h4.7v-2h2.24v2h4.82v2.1zm3.3-10a56.53 56.53 0 0 1 -11 1.54 8.12 8.12 0 0 0 -.62-1.9 53.69 53.69 0 0 0 10.06-1.5zm-10.14 6.28a17.52 17.52 0 0 0 -1.22-3.84l1.88-.48a15.24 15.24 0 0 1 1.36 3.74zm3.42-.76a13.17 13.17 0 0 0 -.8-3.68l2-.38a12.17 12.17 0 0 1 .92 3.64zm2.7.42a26.13 26.13 0 0 0 2.3-4.82l2.26.82a44.28 44.28 0 0 1 -2.72 4.74z"/><path d="m294.42 315.86c0 1.28-.28 1.92-1.08 2.28a9.29 9.29 0 0 1 -3.84.42 9 9 0 0 0 -.76-2.28c1.12.06 2.44 0 2.8 0s.52-.12.52-.48v-3h-4.22v5.58h-2.4v-5.58h-4.08a11.45 11.45 0 0 1 -2.52 5.94 8.79 8.79 0 0 0 -1.88-1.54c2.18-2.4 2.36-6 2.36-8.76v-7.14h15.1zm-9-5.26v-2.46h-3.76v.36c0 .64 0 1.36-.06 2.1zm-3.76-7v2.32h3.76v-2.32zm10.38 0h-4.22v2.32h4.22zm0 7v-2.46h-4.22v2.46z"/><path d="m302.76 301.68a16.65 16.65 0 0 0 -.48 1.76 49 49 0 0 0 -1 7.26 9.56 9.56 0 0 0 .08 1.28c.28-.7.6-1.36.88-2l1.24 1a47.75 47.75 0 0 0 -1.42 4.86 5.82 5.82 0 0 0 -.12.92v.82l-2.28.16a25.28 25.28 0 0 1 -.78-6.48 54.92 54.92 0 0 1 .82-7.84 14.8 14.8 0 0 0 .2-1.94zm4.64 9.78a6.52 6.52 0 0 0 -.24 1.66c0 .88.76 1.4 2.76 1.4a22.83 22.83 0 0 0 5-.52l.06 2.68a27.53 27.53 0 0 1 -5.12.4c-3.42 0-5-1.24-5-3.26a12.21 12.21 0 0 1 .34-2.58zm6.92-8.48v2.56a54.82 54.82 0 0 1 -8.5 0v-2.56a40.41 40.41 0 0 0 8.5.02z"/><path d="m321.18 307.52v11.16h-2.32v-17.92h7.7v6.76zm0-5.12v1h3.14v-1zm3.14 3.5v-1h-3.14v1zm11.4 10.26c0 1.1-.18 1.7-.82 2.08a5.52 5.52 0 0 1 -2.76.44 7.3 7.3 0 0 0 -.48-1.86 7 7 0 0 0 -.62 1 6.75 6.75 0 0 1 -3.78-2.52 7.64 7.64 0 0 1 -4 2.5 7.57 7.57 0 0 0 -1.38-1.54c2.24-.6 3.3-1.46 3.78-2.34h-3.42v-1.74h3.76v-1h-3.5v-1.66h1.56a7.94 7.94 0 0 0 -.66-1.3l1.82-.5a6.55 6.55 0 0 1 1 1.8h2.08c.24-.6.52-1.32.68-1.82l2.18.56-.86 1.26h1.7v1.66h-3.88v1h4.08v1.74h-3.7a6 6 0 0 0 3.82 2.18 4 4 0 0 0 -.38.42 10 10 0 0 0 1.12 0c.24 0 .32-.1.32-.34v-8.56h-5.5v-6.82h7.84zm-5.58-13.76v1h3.24v-1zm3.24 3.54v-1.08h-3.24v1.08z"/><path d="m355.84 305.52c-1.2-.06-3.06-.1-5.74-.1v2.94a4.88 4.88 0 0 1 .74 2.74c0 2.58-1.52 5.86-6.36 7.22l-2.1-2.12a9.05 9.05 0 0 0 4.84-2.26 4.28 4.28 0 0 1 -.9.1 3.49 3.49 0 0 1 -3.42-3.64 3.73 3.73 0 0 1 4-3.7 4.75 4.75 0 0 1 .78.06v-1.32c-3 0-6.06.16-8.5.3l-.06-2.4c2.26 0 5.86-.1 8.52-.14a5.08 5.08 0 0 0 0-.6 13.4 13.4 0 0 0 -.18-1.72h2.88c-.06.32-.12 1.38-.14 1.7v.6h5.74zm-9 6.32c.82 0 1.56-.62 1.3-2.34a1.41 1.41 0 0 0 -1.3-.7 1.52 1.52 0 1 0 0 3z"/><path d="m372.3 303.22q-.72.45-1.38.9c-1.06.74-3.14 2.5-4.38 3.5a6.66 6.66 0 0 1 1.86-.22c3.36 0 5.92 2.1 5.92 5 0 3.12-2.38 5.6-7.16 5.6-2.76 0-4.84-1.26-4.84-3.24a3.33 3.33 0 0 1 3.56-3.08 4 4 0 0 1 4.22 3.32 2.89 2.89 0 0 0 1.62-2.7c0-1.78-1.8-3-4.1-3-3 0-5 1.62-7.14 4l-1.8-1.86c1.4-1.14 3.78-3.16 5-4.12s3.16-2.58 4.14-3.44c-1 0-3.74.14-4.78.22a13.07 13.07 0 0 0 -1.62.16l-.08-2.58c.56.06 1.24.1 1.8.1 1 0 5.28-.1 6.4-.2a9.55 9.55 0 0 0 1.52-.2zm-4.48 12.46c-.12-1.28-.86-2.12-1.94-2.12-.74 0-1.22.44-1.22.94 0 .74.84 1.24 2 1.24a10.44 10.44 0 0 0 1.16-.06z"/><path d="m382.48 311a8.15 8.15 0 0 0 -.32 2c0 1.26 1.18 2.18 4 2.18a28.09 28.09 0 0 0 7-.78v2.8a31.59 31.59 0 0 1 -6.88.66c-4.54 0-6.8-1.52-6.8-4.24a13.22 13.22 0 0 1 .38-2.86zm10-10.5c.5.74 1.22 2 1.6 2.74l-1.62.7-.56-1.1v2.38c-1.38.1-3.84.24-5.72.24-2.08 0-3.8-.1-5.4-.22v-2.64a51.23 51.23 0 0 0 5.38.24c1.9 0 4.08-.12 5.6-.26a15.22 15.22 0 0 0 -.86-1.44zm2.36-.9a22.08 22.08 0 0 1 1.62 2.72l-1.58.68a21.2 21.2 0 0 0 -1.62-2.76z"/><path d="m410.22 315.32c2 .72 4.34 1.68 5.7 2.34l-2.76 1.06a39.44 39.44 0 0 0 -5.2-2.36l1.8-1h-5.84l1.82.8a24.78 24.78 0 0 1 -6.24 2.62 24.12 24.12 0 0 0 -1.76-1.74 23.48 23.48 0 0 0 5.5-1.68h-3v-8.16h6.64a5.68 5.68 0 0 0 -1.38-1.46 4.93 4.93 0 0 0 1.16-1h-1.8v2.08h-2.12v-2.12h-1.74a6.68 6.68 0 0 1 -1.9 3.3 6.86 6.86 0 0 0 -1.56-1.48 5.43 5.43 0 0 0 1.7-4.28v-1.82l1.52.38a24.43 24.43 0 0 0 4.16-.8l1.46 1.4a25.62 25.62 0 0 1 -5.08.86v.1.6h5.5v1.62a3.62 3.62 0 0 0 .7-2.32v-1.82l1.6.38a30.87 30.87 0 0 0 4.48-.82l1.44 1.42a31.22 31.22 0 0 1 -5.46.86v.1.58h6.26v1.72h-2.52v2.1h-2.12v-2.1h-2a5.31 5.31 0 0 1 -2 2.46h6.52v8.16zm-7.64-5.88h8.68v-.86h-8.68zm0 2.22h8.68v-.86h-8.68zm0 2.22h8.68v-.88h-8.68z"/><path d="m420.84 308.2v10.48h-2.36v-17.92h7.64v7.44zm0-5.62v1.08h3.06v-1.08zm3.06 3.82v-1.14h-3.06v1.14zm1.22 9.46v1.14h-2.22v-7.4h7.74v6.28zm0-4.32v2.36h3.3v-2.36zm10.22 4.3c0 1.32-.28 2-1.12 2.38a9.82 9.82 0 0 1 -3.92.46 8.52 8.52 0 0 0 -.8-2.44c1.16.08 2.52.06 2.9 0s.52-.12.52-.48v-7.58h-5.42v-7.46h7.84zm-5.58-13.28v1.1h3.16v-1.1zm3.16 3.86v-1.16h-3.16v1.16z"/><path d="m442.74 318.32a37.54 37.54 0 0 0 -4.3-4.42l2.08-1.8a37.49 37.49 0 0 1 4.36 4.38z"/><path d="m16.54 352.26a15.81 15.81 0 0 0 -.82 1.78 28.52 28.52 0 0 1 -2.7 5.44 51.77 51.77 0 0 1 4.76 4.4l-2.06 2.3a39.91 39.91 0 0 0 -4.42-4.4 25 25 0 0 1 -7.44 6.22l-2.3-2.06a21.82 21.82 0 0 0 7.6-5.9 51.87 51.87 0 0 0 -5.36-3.78l1.72-2.06c1.6 1 3.66 2.4 5.28 3.6a21.8 21.8 0 0 0 2.2-4.8 14.63 14.63 0 0 0 .48-1.84z"/><path d="m36.1 357.08a15.13 15.13 0 0 0 1.82-.12v2.6c-.5 0-1.26-.06-1.82-.06h-4.82a12.69 12.69 0 0 1 -1.28 5.14 9.6 9.6 0 0 1 -4 3.84l-2.34-1.7a8.17 8.17 0 0 0 3.62-2.86 8.59 8.59 0 0 0 1.24-4.42h-5.52c-.58 0-1.36 0-1.92.08v-2.58a15.23 15.23 0 0 0 1.92.12zm-10.56-2.72c-.68 0-1.54 0-2.14.06v-2.58a15 15 0 0 0 2.14.16h6.54a15.7 15.7 0 0 0 2.16-.16v2.58c-.68 0-1.46-.06-2.16-.06zm9.88-.46a27.49 27.49 0 0 0 -1.58-2.78l1.6-.66c.5.74 1.2 2 1.58 2.74zm2.4-.92a23.6 23.6 0 0 0 -1.6-2.76l1.58-.66a26.61 26.61 0 0 1 1.6 2.72z"/><path d="m55.12 356.26a25 25 0 0 1 -4.5 3.62v6.66a11.14 11.14 0 0 0 .14 2.16h-3a20.91 20.91 0 0 0 .1-2.16v-5.14a37.47 37.47 0 0 1 -5.64 2.18l-1.34-2.32a26.71 26.71 0 0 0 7.06-2.7 19.91 19.91 0 0 0 5.14-4.16z"/><path d="m76.74 353.4a10.07 10.07 0 0 0 -.78 1 20.12 20.12 0 0 1 -4.82 5.48l-2.06-1.66a11.89 11.89 0 0 0 3.68-3.72h-10.42c-.84 0-1.5.06-2.44.14v-2.74a15.86 15.86 0 0 0 2.44.2h10.78a10 10 0 0 0 2-.18zm-8.16 2.7c0 5-.1 9-5.56 12l-2.32-1.9a7.9 7.9 0 0 0 2.1-1.1c2.54-1.76 3-3.88 3-7.16a11.09 11.09 0 0 0 -.14-1.8z"/><path d="m96.94 352.86a26.55 26.55 0 0 1 -2.88 10.48 11 11 0 0 0 3.62 3.24 8.63 8.63 0 0 0 -1.64 2 12.62 12.62 0 0 1 -3.44-3.06 13.7 13.7 0 0 1 -3.6 3.02 9.51 9.51 0 0 0 -1.32-1.74v1.88h-2.3v-3.2c-2.3.4-4.64.76-6.48 1l-.46-2.38 1.84-.2v-10.58h-1.28v-2.2h10v1.42h6l.4-.06zm-14.36.46v1.9h2.84v-1.9zm0 6h2.84v-2h-2.84zm0 4.3 2.84-.38v-1.8h-2.84zm5.14 2.82a10.84 10.84 0 0 0 3.46-3.18 28.34 28.34 0 0 1 -2.7-7.92l2.28-.46a24.12 24.12 0 0 0 1.84 5.92 22.68 22.68 0 0 0 1.72-6h-5.9v-1.56h-.7z"/><path d="m107 362c-.4-.64-1-1.56-1.7-2.42v9h-2.4v-7.74a17.73 17.73 0 0 1 -2.44 4.48 11.62 11.62 0 0 0 -1.24-2.32 18.24 18.24 0 0 0 3.36-6.64h-2.78v-2.26h3.08v-4.1h2.4v4.12h2.52v2.26h-2.52v.54c.8.66 2.64 2.58 3.08 3.08zm11.14-5.66h-1.9v9.36c0 1.38-.3 2-1.12 2.38a9.44 9.44 0 0 1 -3.8.46 9.16 9.16 0 0 0 -.8-2.4h2.68s.5-.12.5-.48v-6.08a23.26 23.26 0 0 1 -5.32 6.06 9.31 9.31 0 0 0 -1.72-2 19.24 19.24 0 0 0 6.32-7.38h-4.6v-2.26h5.32v-4h2.54v4.08h1.9z"/><path d="m131.12 355.28a29 29 0 0 1 -3.44.68 36.56 36.56 0 0 1 -4.24 8.48l-2.44-1.22a30.22 30.22 0 0 0 4-7c-.34 0-.68 0-1 0-.82 0-1.62 0-2.48-.06l-.18-2.32a25.18 25.18 0 0 0 2.66.16c.58 0 1.18 0 1.78-.06a16.86 16.86 0 0 0 .54-3.32l2.74.28c-.16.64-.4 1.64-.68 2.7a20.92 20.92 0 0 0 2.66-.62zm2.6 1.78c-.06.84 0 1.66 0 2.54 0 .56.06 1.52.12 2.5a13.19 13.19 0 0 1 4.1 2.54l-1.32 2.12a17.63 17.63 0 0 0 -2.68-2.1v.18c0 1.84-1 3.28-3.82 3.28-2.46 0-4.4-1.1-4.4-3.28 0-1.94 1.62-3.44 4.38-3.44.46 0 .92 0 1.34.08-.06-1.48-.16-3.22-.22-4.42zm-2.18 6.56a7 7 0 0 0 -1.6-.2c-1.14 0-1.88.48-1.88 1.18s.62 1.24 1.7 1.24c1.34 0 1.78-.78 1.78-1.84zm5.58-5.5a26.41 26.41 0 0 0 -4.76-2.82l1.28-2a35.64 35.64 0 0 1 4.88 2.68z"/><path d="m154.84 355.88c-.6.36-1.22.7-2 1.06a54.44 54.44 0 0 0 -4.9 2.66c-1.64 1.08-2.74 2.22-2.74 3.6s1.36 2.18 4.12 2.18a33.09 33.09 0 0 0 6.46-.72v2.84a36.39 36.39 0 0 1 -6.36.5c-3.94 0-6.92-1.1-6.92-4.52 0-2.18 1.38-3.8 3.28-5.2-.9-1.68-1.86-3.8-2.76-5.9l2.5-1a46.44 46.44 0 0 0 2.48 5.48c1.46-.86 2.86-1.56 3.78-2.1a13.07 13.07 0 0 0 1.82-1.18zm.3-4.88a29.53 29.53 0 0 1 1.6 2.74l-1.62.68a23.94 23.94 0 0 0 -1.56-2.78zm2.38-.92a26.8 26.8 0 0 1 1.6 2.74l-1.58.68a21.2 21.2 0 0 0 -1.62-2.76z"/><path d="m169.06 365.42c.76-.1 1.32-.2 1.84-.32a5.36 5.36 0 0 0 4.5-5.3c0-2.74-1.48-4.78-4.14-5.24a43 43 0 0 1 -1.18 5.38c-1.18 4-2.9 6.44-5.06 6.44s-4-2.42-4-5.76c0-4.56 4-8.48 9.12-8.48 4.9 0 8 3.42 8 7.74 0 4.16-2.56 7.12-7.56 7.88zm-1.54-6a31.79 31.79 0 0 0 1.06-4.8 6.21 6.21 0 0 0 -5 5.74c0 2 .8 3 1.54 3s1.6-1.26 2.4-3.94z"/><path d="m188 358.74a16.12 16.12 0 0 1 3.8-.52c3 0 5.44 1.62 5.44 4.34 0 2.34-1.22 4.1-4.36 4.88a16.14 16.14 0 0 1 -2.6.32l-.92-2.54a15.14 15.14 0 0 0 2.44-.14c1.6-.28 2.88-1.1 2.88-2.54s-1.2-2.12-2.92-2.12a14.06 14.06 0 0 0 -3.72.54c0 1.58.1 3.1.1 3.78 0 2.46-.9 3.1-2.18 3.1-1.94 0-4.68-1.66-4.68-3.76 0-1.74 2-3.52 4.44-4.58 0-.46 0-.92 0-1.38v-1.66c-.38 0-.74 0-1.06 0-.9 0-1.9 0-2.76-.1v-2.4a21.7 21.7 0 0 0 2.74.16h1.14c0-.7 0-1.28 0-1.62a15.72 15.72 0 0 0 -.14-1.74h2.72c0 .36-.12 1.22-.16 1.72s0 .92-.06 1.42a27.12 27.12 0 0 0 3.64-.74l.06 2.48a38.25 38.25 0 0 1 -3.78.62v1.78zm-2.18 5.56c0-.5 0-1.4-.06-2.44-1.22.62-2 1.44-2 2.14s.92 1.16 1.44 1.16c.38 0 .66-.16.66-.86zm8.18-11.4a43.75 43.75 0 0 1 4.86 2.78l-1.2 2a30.09 30.09 0 0 0 -4.76-2.88z"/><path d="m203.64 358.2v10.48h-2.36v-17.92h7.64v7.44zm0-5.62v1.08h3.06v-1.08zm3.06 3.82v-1.14h-3.06v1.14zm1.22 9.46v1.14h-2.22v-7.4h7.74v6.28zm0-4.32v2.36h3.3v-2.36zm10.22 4.3c0 1.32-.28 2-1.12 2.38a9.82 9.82 0 0 1 -3.92.46 8.52 8.52 0 0 0 -.8-2.44c1.16.08 2.52.06 2.9 0s.52-.12.52-.48v-7.58h-5.42v-7.46h7.84zm-5.58-13.28v1.1h3.16v-1.1zm3.16 3.86v-1.16h-3.16v1.16z"/><path d="m225 355.1c0 1.28 0 2.78.12 4.2.28 2.86.88 4.8 2.12 4.8.94 0 1.72-2.32 2.1-3.88l2 2.4c-1.32 3.44-2.56 4.66-4.16 4.66-2.16 0-4.06-2-4.62-7.28-.18-1.82-.22-4.12-.22-5.34a11.48 11.48 0 0 0 -.14-2h3a15.69 15.69 0 0 0 -.2 2.44zm13.76 8.14-2.62 1c-.3-3.18-1.36-7.84-3.52-10.28l2.52-.84c1.92 2.3 3.44 7.08 3.66 10.12z"/><path d="m251.5 350a20.09 20.09 0 0 0 8.56 6.88 11.63 11.63 0 0 0 -1.54 2.14 24 24 0 0 1 -3.06-1.9v1.38h-10v-1.4a27.87 27.87 0 0 1 -3.1 2 9.71 9.71 0 0 0 -1.5-1.94 21.17 21.17 0 0 0 8.14-7.16zm-7.32 10.48h12.68v8.2h-2.44v-.68h-7.9v.74h-2.34zm10.3-4.08a21.91 21.91 0 0 1 -4.1-4.06 20.44 20.44 0 0 1 -4 4.06zm-8 6.18v3.26h7.9v-3.24z"/><path d="m269.44 354.64c-.26.34-.68 1-1 1.5v.58a9.66 9.66 0 0 1 5.82-2.06 5.23 5.23 0 0 1 5.46 5.34c0 4-2.5 6.4-7.42 7.38l-1.18-2.4c3.48-.54 6-1.94 6-5a3 3 0 0 0 -3.32-2.98 8.29 8.29 0 0 0 -5.62 2.54v1.64c0 1.62 0 3.28.12 5.14 0 .36.1 1.08.14 1.52h-2.72c0-.42.06-1.14.06-1.46 0-1.54 0-2.68.08-4.36-.84 1.26-1.82 2.7-2.5 3.66l-1.56-2.2c1.12-1.36 3.12-4 4.24-5.66l.08-1.38-3.6.46-.24-2.54a16.84 16.84 0 0 0 1.72 0c.58 0 1.44-.14 2.28-.26 0-.74.08-1.3.08-1.52a10.56 10.56 0 0 0 -.08-1.76l2.9.08c-.12.56-.28 1.58-.44 2.82z"/><path d="m296.1 351.32a16.87 16.87 0 0 0 -.1 1.68c0 .78 0 1.48-.06 2.14.54 0 1-.08 1.5-.1l1.9-.14v2.44c-.34 0-1.38 0-1.92 0l-1.52.08a34.65 34.65 0 0 1 -.3 4c-.2 1-.7 1.3-1.72 1.3a25.07 25.07 0 0 1 -3-.3l.06-2.18a12.36 12.36 0 0 0 1.82.24c.4 0 .56-.08.62-.46a22.39 22.39 0 0 0 .14-2.38c-1.74.14-3.68.32-5.38.5v4.48c.06 1.94.22 2.38 3.2 2.38a36.83 36.83 0 0 0 5.92-.52l-.1 2.72a55.65 55.65 0 0 1 -5.64.32c-5.14 0-5.76-1.08-5.84-4.5 0-.84 0-2.76 0-4.62l-1.34.14c-.62.08-1.86.28-2.38.36l-.26-2.54c.56 0 1.48 0 2.48-.12l1.5-.14v-2a15 15 0 0 0 -.16-2.2h2.8a15.67 15.67 0 0 0 -.12 2.06v1.9l5.4-.5v-2.24a15.34 15.34 0 0 0 -.14-1.8z"/><path d="m312.32 355.28a29 29 0 0 1 -3.44.68 36.56 36.56 0 0 1 -4.24 8.48l-2.42-1.22a30.22 30.22 0 0 0 4-7c-.34 0-.68 0-1 0-.82 0-1.62 0-2.48-.06l-.18-2.32a25.18 25.18 0 0 0 2.64.14c.58 0 1.18 0 1.78-.06a16.86 16.86 0 0 0 .54-3.32l2.74.28c-.16.64-.4 1.64-.68 2.7a20.92 20.92 0 0 0 2.66-.62zm2.6 1.78c-.06.84 0 1.66 0 2.54 0 .56.06 1.52.12 2.5a13.19 13.19 0 0 1 4.1 2.54l-1.32 2.12a17.63 17.63 0 0 0 -2.68-2.1v.18c0 1.84-1 3.28-3.82 3.28-2.46 0-4.4-1.1-4.4-3.28 0-1.94 1.62-3.44 4.38-3.44.46 0 .92 0 1.34.08-.06-1.48-.16-3.22-.22-4.42zm-2.18 6.56a7 7 0 0 0 -1.6-.2c-1.14 0-1.88.48-1.88 1.18s.62 1.24 1.7 1.24c1.34 0 1.78-.78 1.78-1.84zm5.58-5.5a26.41 26.41 0 0 0 -4.76-2.82l1.28-2a35.64 35.64 0 0 1 4.88 2.68z"/><path d="m336 355.88c-.6.36-1.22.7-2 1.06a54.44 54.44 0 0 0 -4.9 2.66c-1.64 1.08-2.74 2.22-2.74 3.6s1.36 2.18 4.12 2.18a33.09 33.09 0 0 0 6.46-.72v2.84a36.39 36.39 0 0 1 -6.36.5c-3.94 0-6.92-1.1-6.92-4.52 0-2.18 1.38-3.8 3.28-5.2-.9-1.68-1.86-3.8-2.76-5.9l2.5-1a46.44 46.44 0 0 0 2.48 5.48c1.46-.86 2.86-1.56 3.78-2.1a13.07 13.07 0 0 0 1.82-1.18zm.3-4.88a29.53 29.53 0 0 1 1.6 2.74l-1.62.68a23.94 23.94 0 0 0 -1.56-2.78zm2.38-.92a26.8 26.8 0 0 1 1.6 2.74l-1.58.68a21.2 21.2 0 0 0 -1.62-2.76z"/><path d="m345.94 368.32a37.54 37.54 0 0 0 -4.3-4.42l2.08-1.8a37.49 37.49 0 0 1 4.36 4.38z"/><path d="m5.72 410.84a8.22 8.22 0 0 0 -.34 2c0 1.26 1.2 2.18 4.06 2.18a28.09 28.09 0 0 0 7-.78v2.78a30.24 30.24 0 0 1 -6.88.68c-4.54 0-6.82-1.52-6.82-4.24a12.74 12.74 0 0 1 .4-2.86zm-1.72-8.4a51.91 51.91 0 0 0 5.4.24c2 0 4.22-.12 5.74-.28v2.66c-1.38.1-3.84.24-5.72.24-2.08 0-3.8-.1-5.42-.22z"/><path d="m34.68 405.14c-2.06.32-5.2.7-7.86.84a35 35 0 0 1 -.9 3.42 9.63 9.63 0 0 1 4.92-1.24c3.2 0 5.32 1.72 5.32 4.24 0 4.46-4.28 6.06-10.68 5.38l-.7-2.56c4.34.7 8.72.18 8.72-2.74 0-1.18-1-2.18-3-2.18a6.8 6.8 0 0 0 -5.48 2.34 5.81 5.81 0 0 0 -.56.86l-2.34-.84a32 32 0 0 0 2.3-6.66c-1.26 0-2.42-.1-3.42-.2v-2.46a28 28 0 0 0 3.88.38c0-.3.1-.56.12-.8a12.12 12.12 0 0 0 .1-2l2.8.12a20.7 20.7 0 0 0 -.46 2l-.12.6a47.65 47.65 0 0 0 7.32-.94z"/><path d="m44.14 409.5a9.71 9.71 0 0 1 5.86-1.88c3.48 0 5.5 2.14 5.5 4.54 0 3.62-2.86 6.4-11.1 5.68l-.76-2.6c5.94.84 9.08-.62 9.08-3.14 0-1.28-1.22-2.22-3-2.22a6.94 6.94 0 0 0 -5.46 2.32 4.29 4.29 0 0 0 -.74 1.16l-2.3-.58a72.12 72.12 0 0 0 1-8.26l2.68.36c-.28 1.12-.62 3.48-.76 4.62zm.62-8.6a62.7 62.7 0 0 0 7.92 1.54l-.6 2.44c-2-.26-6.42-1.18-8-1.58z"/><path d="m64.36 401.68a16.65 16.65 0 0 0 -.48 1.76 49 49 0 0 0 -1 7.26 9.56 9.56 0 0 0 .12 1.3c.28-.7.6-1.36.88-2l1.24 1a47.75 47.75 0 0 0 -1.42 4.86 5.82 5.82 0 0 0 -.12.92v.82l-2.28.16a25.28 25.28 0 0 1 -.78-6.48 54.92 54.92 0 0 1 .82-7.84 14.8 14.8 0 0 0 .2-1.94zm4.64 9.78a6.52 6.52 0 0 0 -.24 1.66c0 .88.76 1.4 2.76 1.4a22.83 22.83 0 0 0 5-.52l.06 2.68a27.53 27.53 0 0 1 -5.12.4c-3.42 0-5-1.24-5-3.26a12.21 12.21 0 0 1 .34-2.58zm6.92-8.46v2.56a54.82 54.82 0 0 1 -8.5 0v-2.56a40.41 40.41 0 0 0 8.5 0z"/><path d="m84.08 411a8.15 8.15 0 0 0 -.32 2c0 1.26 1.18 2.18 4 2.18a28.09 28.09 0 0 0 7-.78v2.8a31.59 31.59 0 0 1 -6.88.66c-4.54 0-6.8-1.52-6.8-4.24a13.22 13.22 0 0 1 .38-2.86zm10-10.5c.5.74 1.22 2 1.6 2.74l-1.62.7-.56-1.1v2.38c-1.38.1-3.84.24-5.72.24-2.08 0-3.8-.1-5.4-.22v-2.64a51.23 51.23 0 0 0 5.38.24c1.9 0 4.08-.12 5.6-.26a15.22 15.22 0 0 0 -.86-1.44zm2.36-.9a22.08 22.08 0 0 1 1.62 2.72l-1.58.68a21.2 21.2 0 0 0 -1.62-2.76z"/><path d="m104.16 414.14c.78 1.34 2.18 1.9 4.22 2 2.4.1 7.12 0 9.88-.18a10.84 10.84 0 0 0 -.74 2.32c-2.48.12-6.72.16-9.16.06s-4-.68-5.18-2.22c-.8.78-1.62 1.54-2.64 2.4l-1.12-2.36a24 24 0 0 0 2.48-1.84v-4.36h-2.24v-2.18h4.5zm-1.42-9a15.58 15.58 0 0 0 -3-3.32l1.82-1.36a17.38 17.38 0 0 1 3.14 3.18zm7.26 8.66h-5.2v-1.94h5.2v-.86h-4.18v-6.8h4.18v-.82h-5v-1.92h5v-1.46h2.32v1.42h5.24v1.92h-5.24v.82h4.36v6.84h-4.36v.88h5.48v1.94h-5.48v1.86h-2.32zm-2-7h2v-1h-2zm2 2.54v-1h-2v1zm2.32-3.5v1h2.08v-1zm2.08 2.5h-2.08v1h2.08z"/><path d="m123 412a18.49 18.49 0 0 1 -1.2 5.16 11.76 11.76 0 0 0 -1.82-.86 14.54 14.54 0 0 0 1.06-4.64zm15.1-9.56a15.54 15.54 0 0 1 -3.08 4.94 17.63 17.63 0 0 0 4.3 2.14 8.25 8.25 0 0 0 -1.52 1.9v7.16h-2.32v-.74h-4.38v.82h-2.2v-7l-.34.14a5.83 5.83 0 0 0 -.62-1l-1.32.6c-.06-.3-.14-.64-.24-1l-1 .08v8.18h-2.08v-8l-2.9.18-.2-2.06 1.44-.06c.3-.38.62-.82.94-1.28a19.63 19.63 0 0 0 -2.36-2.72l1.14-1.62.46.4a25.35 25.35 0 0 0 1.46-3.48l2.06.76c-.72 1.36-1.52 2.9-2.24 4 .26.28.48.56.68.8a36.27 36.27 0 0 0 1.78-3.24l1.94.9c-1.1 1.74-2.48 3.76-3.74 5.38l1.92-.08c-.22-.5-.46-1-.7-1.44l1.58-.66a21 21 0 0 1 1.44 3.16 15.93 15.93 0 0 0 3.74-2.1 20.58 20.58 0 0 1 -1.64-1.86 15.28 15.28 0 0 1 -1.66 1.54 6.88 6.88 0 0 0 -1.6-1.54 13 13 0 0 0 4.36-5.64l2.32.36a15 15 0 0 1 -.68 1.4h3.44l.36-.1zm-11 9.06a22.05 22.05 0 0 1 1.24 3.6l-1.76.64a23.67 23.67 0 0 0 -1.16-3.72zm9.72-.52a18.52 18.52 0 0 1 -3.38-2.08 16.76 16.76 0 0 1 -3.14 2.08zm-1.34 4.8v-2.76h-4.38v2.76zm-4-11.8a12 12 0 0 0 1.88 2.08 12.77 12.77 0 0 0 1.72-2.3h-3.48z"/><path d="m153.88 402.58c-.62.46-1.28 1-1.74 1.34-1.28 1-3.9 3.06-5.22 4.2-1.06.9-1 1.12 0 2 1.48 1.26 5.3 4.28 7.26 6.18l-2.3 2.12c-.56-.62-1.18-1.24-1.74-1.84-1.08-1.14-4.1-3.72-5.92-5.26s-1.8-2.76.18-4.4c1.54-1.26 4.26-3.46 5.6-4.78a13.68 13.68 0 0 0 1.52-1.66z"/><path d="m170.46 405.72a35.65 35.65 0 0 1 -3.84.66c-.18.84-.38 1.72-.6 2.54a64.74 64.74 0 0 1 -3.14 9.16l-2.78-.92a44.12 44.12 0 0 0 3.42-8.92c.14-.54.3-1.1.42-1.66-.46 0-.9 0-1.3 0-1 0-1.7 0-2.4-.08l-.06-2.46a19.19 19.19 0 0 0 2.5.14c.58 0 1.16 0 1.76-.06.08-.42.14-.82.18-1.12a10.43 10.43 0 0 0 .08-2l3 .24c-.14.56-.32 1.44-.42 1.88l-.16.74c1.12-.16 2.24-.38 3.32-.64zm-.4 6.5a7 7 0 0 0 -.28 1.66c0 .86.5 1.52 2.62 1.52a25 25 0 0 0 4.12-.4l-.1 2.54a31.69 31.69 0 0 1 -4 .28c-3.34 0-5-1.16-5-3.16a13.2 13.2 0 0 1 .34-2.64zm-1.16-5a37.31 37.31 0 0 1 3.8-.2 34.29 34.29 0 0 1 3.48.16l-.06 2.4a28.38 28.38 0 0 0 -3.4-.26 33 33 0 0 0 -3.82.22zm5.2-2a22.39 22.39 0 0 0 -1.56-2.78l1.58-.66a27.51 27.51 0 0 1 1.58 2.74zm2.38-4.34a23.67 23.67 0 0 1 1.62 2.72l-1.58.68a21.2 21.2 0 0 0 -1.62-2.76z"/><path d="m196 405.16c-1 .28-2.16.56-3.36.8.76 1.6 1.7 3.48 2.56 5.06l-1.4 1.5c-1.08-.22-3-.54-4.5-.72l.22-2c.66.06 1.74.18 2.34.22-.48-1-1.16-2.38-1.74-3.62a44.5 44.5 0 0 1 -8.34 0l-.08-2.54a33.74 33.74 0 0 0 7.4.2c-.16-.32-.3-.64-.42-.94a15.37 15.37 0 0 0 -1-1.9l2.8-.54c.34 1 .72 2 1.16 3a29 29 0 0 0 3.88-1zm-10.82 5.5a8.89 8.89 0 0 0 -.54 2.36c0 1.44.74 2.42 3.54 2.42a21.9 21.9 0 0 0 5.4-.58l-.06 2.62a27.76 27.76 0 0 1 -5.34.48c-4 0-6.12-1.5-6.12-4.26a13.42 13.42 0 0 1 .56-3.26z"/><path d="m203.84 405.1c0 1.28 0 2.78.12 4.2.28 2.86.88 4.8 2.12 4.8.94 0 1.72-2.32 2.1-3.88l2 2.4c-1.32 3.44-2.56 4.66-4.16 4.66-2.16 0-4.06-2-4.62-7.28-.18-1.82-.22-4.12-.22-5.34a11.48 11.48 0 0 0 -.14-2h3a15.69 15.69 0 0 0 -.2 2.44zm13.76 8.14-2.62 1c-.3-3.18-1.36-7.84-3.52-10.28l2.52-.84c1.88 2.3 3.4 7.08 3.62 10.12z"/><path d="m225.94 415.22a3.23 3.23 0 1 1 -3.24-3.22 3.24 3.24 0 0 1 3.24 3.22zm-1.44 0a1.79 1.79 0 1 0 -1.8 1.78 1.79 1.79 0 0 0 1.8-1.78z"/></svg>