<svg viewBox="0 0 551.89 99.3" xmlns="http://www.w3.org/2000/svg"><path d="m295.06 45.23v-15.31h-16.28v-16.59h-15.87v16.59h-12.26v15.31h12.26v29.5c0 14.15 4.62 26.16 32.15 22.23v-14.55c-9.74 1-16.28.3-16.28-7.27v-29.91z"/><path d="m370.73 70a43.79 43.79 0 0 0 .47-6.34c0-20.11-14.69-35.66-34.15-35.66-21.19 0-35.64 15.52-35.64 35.64s14.59 35.66 36.99 35.66c13.4 0 23.22-5.46 29-14l-13.2-7.78c-3.87 5-10 6.83-15.4 6.83-11-.05-18.5-5.35-20.8-14.35zm-33.66-27.1c10 0 16 6.05 18 14.42h-37.07c2.09-8.55 8.42-14.42 19.07-14.42z"/><path d="m507.54 70a43.8 43.8 0 0 0 .46-6.34c0-20.11-14.68-35.66-34.15-35.66-21.19 0-35.63 15.52-35.63 35.64s14.62 35.63 37 35.63c13.41 0 23.22-5.46 29-14l-13.22-7.8c-3.86 5-10.05 6.83-15.4 6.83-11 0-18.51-5.32-20.78-14.29zm-33.66-27.1c10 0 16 6.05 18 14.42h-37.04c2.06-8.55 8.38-14.42 19.04-14.42z"/><path d="m422.16 29.92-17.43 48.34h-.29l-17.44-48.34h-17.35l25.82 67.49h18.22l25.82-67.49z"/><path d="m137.37 28c-6.09 0-13.79 3.27-17.83 7.3v-35.3h-15.87v97.41h15.87v-36.95c0-11.74 7.12-17.12 15.62-17.12 7.83 0 14.13 5 14.13 14.28v39.79h15.88v-38c0-20.59-10.82-31.41-27.8-31.41z"/><path d="m531.37 36.88v-7h-15.88v67.53h15.88v-33.21c0-11.93 8-19.41 20.51-18.33v-17.3c-8.88 0-15.57 3.08-20.51 8.31z"/><path d="m243.16 29.92h-15.87v4a35.92 35.92 0 0 0 -19.83-5.92 35.64 35.64 0 1 0 0 71.27 35.92 35.92 0 0 0 19.83-5.89v4h15.87zm-35.7 54.08c-11.2 0-19.83-8.39-19.83-20.32s8.63-20.33 19.83-20.33 19.82 8.39 19.83 20.31c-.01 11.94-8.64 20.34-19.83 20.34z"/><path d="m80 29.92-11.48 40.89h-.23l-12.04-40.89h-15.29l-12.04 40.89h-.23l-11.48-40.89h-17.21l21.13 67.49h14.69l12.67-41.21h.24l12.66 41.21h14.69l21.13-67.49z"/></svg>