<svg xmlns="http://www.w3.org/2000/svg" viewBox="0 0 398.89 42.91"><title>logo3-sp</title><g id="Layer_2" data-name="Layer 2"><g id="レイヤー_1" data-name="レイヤー 1"><path d="M50.65,23.75l3.42-3.42a.78.78,0,0,0,0-1.11.77.77,0,0,0-1.1,0l-3.43,3.42-3.42-3.42A.78.78,0,0,0,45,20.33l3.42,3.42L45,27.18a.77.77,0,0,0,0,1.1.74.74,0,0,0,.55.23.78.78,0,0,0,.56-.23l3.42-3.42L53,28.28a.77.77,0,0,0,1.1,0,.77.77,0,0,0,0-1.1Z"/><path d="M8.26,12.92a1.2,1.2,0,0,0-1.2,1.23v3.36H4.74a4.78,4.78,0,0,0-3.46,1.3A4.77,4.77,0,0,0,0,22.25v3a4.71,4.71,0,0,0,1.3,3.43A4.71,4.71,0,0,0,4.74,30a11.33,11.33,0,0,0,3.71-.62A1.53,1.53,0,0,0,9.5,27.93V14.15A1.23,1.23,0,0,0,8.26,12.92ZM2.44,25.44V22.06a2.1,2.1,0,0,1,2.3-2.3H7.06v7.35c0,.2-.08.31-.35.41a8.5,8.5,0,0,1-2,.22A2.1,2.1,0,0,1,2.44,25.44Z"/><path d="M32.42,14.15a1.22,1.22,0,1,1,2.44,0v3.31h2.29a1.19,1.19,0,0,1,1.24,1.16,1.16,1.16,0,0,1-1.24,1.19H34.86v6.46c0,.9.47,1.47,1.09,1.47s.8-.19,1.25-.19a1.16,1.16,0,0,1,1.19,1.14,1.22,1.22,0,0,1-1,1.16A7.28,7.28,0,0,1,36,30a3.53,3.53,0,0,1-3.53-3.69Z"/><path d="M21,17.51a6,6,0,0,0-6.23,6.24A6,6,0,0,0,21,30a6.05,6.05,0,0,0,6.24-6.24A6.05,6.05,0,0,0,21,17.51Zm0,10.12a3.88,3.88,0,1,1,3.81-3.88A3.79,3.79,0,0,1,21,27.63Z"/><path d="M68.63,12.92a1.2,1.2,0,0,0-1.2,1.23v3.36H65.11a4.44,4.44,0,0,0-4.74,4.74v3A4.51,4.51,0,0,0,65.11,30a11.33,11.33,0,0,0,3.71-.62,1.53,1.53,0,0,0,1.05-1.44V14.15A1.23,1.23,0,0,0,68.63,12.92ZM62.81,25.44V22.06a2.1,2.1,0,0,1,2.3-2.3h2.32v7.35c0,.2-.08.31-.35.41a8.5,8.5,0,0,1-2,.22A2.1,2.1,0,0,1,62.81,25.44Z"/><path d="M92.79,14.15a1.22,1.22,0,1,1,2.44,0v3.31h2.29a1.19,1.19,0,0,1,1.24,1.16,1.16,1.16,0,0,1-1.24,1.19H95.23v6.46c0,.9.47,1.47,1.09,1.47s.8-.19,1.25-.19a1.16,1.16,0,0,1,1.19,1.14,1.22,1.22,0,0,1-1.05,1.16,7.28,7.28,0,0,1-1.39.14,3.53,3.53,0,0,1-3.53-3.69Z"/><path d="M81.36,17.51a6.05,6.05,0,0,0-6.24,6.24,6.24,6.24,0,1,0,12.48,0A6.05,6.05,0,0,0,81.36,17.51Zm0,10.12a3.88,3.88,0,1,1,3.8-3.88A3.79,3.79,0,0,1,81.36,27.63Z"/><path d="M154.13,13.74v9.43h-4.47V0h8.7c3,0,4.73.73,6,2.09a6.93,6.93,0,0,1,1.82,4.79,7,7,0,0,1-1.82,4.8c-1.25,1.32-3,2.05-6,2.05Zm4-4A3.52,3.52,0,0,0,161,8.85a2.83,2.83,0,0,0,.76-2,2.88,2.88,0,0,0-.76-2A3.52,3.52,0,0,0,158.16,4h-4V9.77Z"/><path d="M193.82,12.91V23.17h-4.47V0h8.44a7,7,0,0,1,5.06,1.72,6.48,6.48,0,0,1,0,9.46,6,6,0,0,1-2.31,1.36l8.66,10.62h-5.52l-8.24-10.26Zm3.71-4a2.74,2.74,0,0,0,2.25-.69,2.7,2.7,0,0,0,0-3.54A2.73,2.73,0,0,0,197.53,4h-3.71v5Z"/><path d="M226.71,0V4h-7.44V23.17H214.8V4h-7.44V0Z"/><path d="M240.66,12.68V23.17H236.2V12.68L228.26,0h5.09l5.1,8.14L243.51,0h5.09Z"/><path d="M177,0h-3.15L164,23.17h4.66l2.43-5.71h8.8l2.44,5.71H187Zm-1.59,6.66,2.71,6.82h-5.42Z"/><path d="M149.68,29h.79l9.21,11.43V29h1.17V42.71h-.78l-9.21-11.42V42.71h-1.18Z"/><path d="M166,30.11v4.47h4.9V35.7H166v5.9h6.47v1.11H164.8V29h7.45v1.12Z"/><path d="M183.72,29l3.67,11.35L191.07,29h1.2l-4.51,13.72H187l-3.64-11.27-3.65,11.27h-.78L174.39,29h1.2l3.68,11.35L182.94,29Z"/><path d="M203.84,36.26v6.45h-1.17V36.26L198,29h1.33l4,6.14,4-6.14h1.33Z"/><path d="M216.3,28.8a6.81,6.81,0,0,1,6.82,7.05,6.82,6.82,0,1,1-13.64,0A6.81,6.81,0,0,1,216.3,28.8Zm0,13a5.69,5.69,0,0,0,5.64-5.94,5.65,5.65,0,1,0-11.29,0A5.69,5.69,0,0,0,216.3,41.79Z"/><path d="M234.85,42.71l-5.29-7h-2.31v7h-1.18V29h4.68a3.72,3.72,0,0,1,2.67.89,3.35,3.35,0,0,1,0,4.93,3.54,3.54,0,0,1-2.45.89l5.29,7Zm-4.16-8.13A2.57,2.57,0,0,0,232.6,34a2.24,2.24,0,0,0,0-3.29,2.57,2.57,0,0,0-1.91-.59h-3.44v4.47Z"/><path d="M246.86,42.71l-7.06-6.94v6.94h-1.17V29h1.17v6.16L246.27,29h1.57l-6.78,6.49,7.37,7.23Z"/><path d="M304.41,13.73v9.43H300V0h8.7c3,0,4.73.73,6,2.08a7,7,0,0,1,1.82,4.8,7,7,0,0,1-1.82,4.8c-1.26,1.32-3,2.05-6,2.05Zm4-4a3.47,3.47,0,0,0,2.81-.93A2.76,2.76,0,0,0,312,6.88a2.83,2.83,0,0,0-.76-2A3.47,3.47,0,0,0,308.45,4h-4V9.76Z"/><path d="M344.11,12.9V23.16h-4.47V0h8.44a7,7,0,0,1,5.06,1.72,6.48,6.48,0,0,1,0,9.46,5.94,5.94,0,0,1-2.32,1.36l8.67,10.62H354L345.73,12.9Zm3.7-4a2.74,2.74,0,0,0,2.25-.69,2.64,2.64,0,0,0,.66-1.75,2.67,2.67,0,0,0-.66-1.79A2.73,2.73,0,0,0,347.81,4h-3.7v5Z"/><path d="M377,0V4h-7.45V23.16h-4.46V4h-7.45V0Z"/><path d="M391,12.67V23.16h-4.47V12.67L378.54,0h5.1l5.09,8.14L393.8,0h5.09Z"/><path d="M327.31,0h-3.14l-9.93,23.16h4.67l2.43-5.71h8.8l2.43,5.71h4.67Zm-1.59,6.66,2.72,6.82H323Z"/><path d="M331.35,29V30.1h-3.92V42.7h-1.17V30.1h-3.92V29Z"/><path d="M337.76,29l5.92,13.72H342.5l-1.8-4.13H334l-1.81,4.13h-1.17L337,29Zm-3.25,8.47h5.7l-2.84-6.63Z"/><path d="M346.13,29h1.17V42.7h-1.17Z"/><path d="M352.59,36.08V42.7h-1.17V29h5.07a4,4,0,0,1,2.69.83,3.58,3.58,0,0,1,0,5.44,4,4,0,0,1-2.69.83ZM356.44,35a2.71,2.71,0,0,0,2.11-.73,2.4,2.4,0,0,0,.71-1.7,2.44,2.44,0,0,0-.71-1.71,2.74,2.74,0,0,0-2.11-.72h-3.85V35Z"/><path d="M363.76,30.1v4.47h4.9v1.11h-4.9v5.9h6.47V42.7h-7.64V29H370V30.1Z"/><path d="M373.37,29h1.17V42.7h-1.17Z"/></g></g></svg>