<svg viewBox="0 0 480.84 47.53" xmlns="http://www.w3.org/2000/svg"><path d="m56.11 26.31 3.79-3.79a.87.87 0 0 0 -1.23-1.23l-3.79 3.79-3.79-3.79a.87.87 0 0 0 -1.23 1.23l3.79 3.79-3.79 3.79a.87.87 0 0 0 0 1.23.85.85 0 0 0 .61.25.88.88 0 0 0 .62-.25l3.79-3.79 3.79 3.79a.87.87 0 0 0 1.23-1.23z"/><path d="m9.15 14.31a1.32 1.32 0 0 0 -1.33 1.36v3.73h-2.57a5.25 5.25 0 0 0 -3.83 1.44 5.23 5.23 0 0 0 -1.42 3.8v3.36a5.22 5.22 0 0 0 1.44 3.8 5.23 5.23 0 0 0 3.81 1.47 12.65 12.65 0 0 0 4.11-.68 1.7 1.7 0 0 0 1.16-1.6v-15.32a1.35 1.35 0 0 0 -1.37-1.36zm-6.45 13.88v-3.76a2.33 2.33 0 0 1 2.55-2.54h2.57v8.11c0 .22-.09.34-.38.45a9.31 9.31 0 0 1 -2.19.25 2.32 2.32 0 0 1 -2.55-2.51z"/><path d="m35.91 15.67a1.36 1.36 0 0 1 1.37-1.36 1.34 1.34 0 0 1 1.33 1.36v3.68h2.55a1.3 1.3 0 0 1 1.36 1.28 1.28 1.28 0 0 1 -1.36 1.31h-2.55v7.16c0 1 .53 1.63 1.21 1.63s.89-.21 1.39-.21a1.26 1.26 0 0 1 1.31 1.26 1.35 1.35 0 0 1 -1.15 1.29 8.22 8.22 0 0 1 -1.55.15 3.92 3.92 0 0 1 -3.91-4.09z"/><path d="m23.26 19.4a6.69 6.69 0 0 0 -6.91 6.91 6.69 6.69 0 0 0 6.91 6.91 6.7 6.7 0 0 0 6.91-6.91 6.7 6.7 0 0 0 -6.91-6.91zm0 11.2a4.29 4.29 0 1 1 4.21-4.29 4.18 4.18 0 0 1 -4.21 4.29z"/><path d="m76 14.31a1.33 1.33 0 0 0 -1.34 1.36v3.73h-2.54a4.91 4.91 0 0 0 -5.24 5.24v3.36a5 5 0 0 0 5.24 5.27 12.67 12.67 0 0 0 4.12-.68 1.7 1.7 0 0 0 1.15-1.6v-15.32a1.35 1.35 0 0 0 -1.39-1.36zm-6.42 13.88v-3.76a2.33 2.33 0 0 1 2.54-2.54h2.57v8.11c0 .22-.08.34-.38.45a9.25 9.25 0 0 1 -2.19.25 2.32 2.32 0 0 1 -2.54-2.51z"/><path d="m102.79 15.67a1.35 1.35 0 1 1 2.7 0v3.68h2.51a1.31 1.31 0 0 1 1.37 1.28 1.28 1.28 0 0 1 -1.37 1.31h-2.54v7.16c0 1 .52 1.63 1.21 1.63s.89-.21 1.39-.21a1.27 1.27 0 0 1 1.31 1.26 1.35 1.35 0 0 1 -1.16 1.29 8 8 0 0 1 -1.54.15 3.91 3.91 0 0 1 -3.91-4.09z"/><path d="m90.13 19.4a6.7 6.7 0 0 0 -6.91 6.91 6.91 6.91 0 0 0 13.82 0 6.69 6.69 0 0 0 -6.91-6.91zm0 11.2a4.29 4.29 0 1 1 4.21-4.29 4.19 4.19 0 0 1 -4.21 4.29z"/><path d="m194 15.22v10.45h-5v-25.67h9.64c3.3 0 5.24.81 6.67 2.31a7.74 7.74 0 0 1 2 5.32 7.73 7.73 0 0 1 -2 5.31c-1.39 1.47-3.37 2.27-6.67 2.27zm4.47-4.4a3.87 3.87 0 0 0 3.11-1 3.09 3.09 0 0 0 .85-2.16 3.15 3.15 0 0 0 -.85-2.2 3.84 3.84 0 0 0 -3.11-1h-4.47v6.41z"/><path d="m238 14.31v11.36h-5v-25.67h9.34a7.77 7.77 0 0 1 5.66 1.92 7.18 7.18 0 0 1 0 10.48 6.58 6.58 0 0 1 -2.56 1.5l9.56 11.77h-6.12l-9.13-11.36zm4.1-4.4a3 3 0 0 0 2.49-.77 3 3 0 0 0 0-3.92 3 3 0 0 0 -2.49-.81h-4.1v5.5z"/><path d="m274.38 0v4.4h-8.24v21.27h-4.95v-21.26h-8.25v-4.41z"/><path d="m289.84 14.05v11.62h-4.95v-11.62l-8.8-14h5.65l5.64 9 5.62-9.05h5.64z"/><path d="m219.34 0h-3.48l-11 25.66h5.14l2.7-6.33h9.74l2.7 6.33h5.17zm-1.76 7.38 3 7.56h-6z"/><path d="m189.05 32.12h.87l10.2 12.66v-12.66h1.31v15.2h-.87l-10.21-12.66v12.66h-1.3z"/><path d="m207.1 33.36v5h5.43v1.23h-5.43v6.54h7.17v1.24h-8.47v-15.25h8.25v1.24z"/><path d="m226.76 32.12 4.06 12.57 4.08-12.57h1.32l-5 15.2h-.87l-4-12.49-4 12.49h-.87l-5-15.2h1.33l4.08 12.57 4.06-12.57z"/><path d="m249.05 40.17v7.15h-1.3v-7.15l-5.21-8.05h1.46l4.38 6.79 4.39-6.79h1.47z"/><path d="m262.84 31.9a7.55 7.55 0 0 1 7.56 7.82 7.56 7.56 0 1 1 -15.11 0 7.54 7.54 0 0 1 7.55-7.82zm0 14.39a6.3 6.3 0 0 0 6.26-6.57 6.26 6.26 0 1 0 -12.51 0 6.3 6.3 0 0 0 6.25 6.57z"/><path d="m283.4 47.32-5.86-7.78h-2.54v7.78h-1.3v-15.2h5.19a4.1 4.1 0 0 1 2.95 1 3.66 3.66 0 0 1 1.2 2.73 3.7 3.7 0 0 1 -1.2 2.74 3.93 3.93 0 0 1 -2.71 1l5.87 7.73zm-4.6-9a2.75 2.75 0 0 0 2.1-.66 2.47 2.47 0 0 0 0-3.64 2.75 2.75 0 0 0 -2.1-.65h-3.8v5z"/><path d="m296.7 47.32-7.82-7.69v7.69h-1.3v-15.2h1.3v6.82l7.17-6.82h1.74l-7.52 7.18 8.17 8z"/><path d="m376.18 15.21v10.45h-4.95v-25.66h9.64c3.3 0 5.24.81 6.67 2.31a7.68 7.68 0 0 1 2 5.31 7.69 7.69 0 0 1 -2 5.32c-1.39 1.46-3.37 2.27-6.67 2.27zm4.47-4.4a3.9 3.9 0 0 0 3.12-1 3.09 3.09 0 0 0 .84-2.17 3.18 3.18 0 0 0 -.84-2.2 3.9 3.9 0 0 0 -3.12-1h-4.47v6.41z"/><path d="m420.15 14.29v11.37h-4.95v-25.66h9.35a7.74 7.74 0 0 1 5.61 1.91 7.18 7.18 0 0 1 0 10.48 6.62 6.62 0 0 1 -2.57 1.5l9.6 11.77h-6.12l-9.07-11.37zm4.11-4.39a3 3 0 0 0 2.49-.77 3 3 0 0 0 0-3.93 3 3 0 0 0 -2.49-.8h-4.11v5.5z"/><path d="m456.59 0v4.4h-8.25v21.26h-4.95v-21.26h-8.24v-4.4z"/><path d="m472 14v11.66h-5v-11.66l-8.7-14h5.64l5.65 9 5.6-9h5.65z"/><path d="m401.55 0h-3.48l-11 25.66h5.17l2.69-6.33h9.75l2.7 6.33h5.16zm-1.76 7.38 3 7.55h-6z"/><path d="m406 32.11v1.23h-4.34v14h-1.3v-14h-4.36v-1.23z"/><path d="m413.12 32.11 6.56 15.19h-1.3l-2-4.58h-7.38l-2 4.58h-1.3l6.55-15.19zm-3.6 9.37h6.32l-3.15-7.33z"/><path d="m422.39 32.11h1.3v15.19h-1.3z"/><path d="m429.55 40v7.3h-1.3v-15.19h5.62a4.36 4.36 0 0 1 3 .91 4 4 0 0 1 0 6 4.36 4.36 0 0 1 -3 .91zm4.26-1.23a3 3 0 0 0 2.34-.81 2.64 2.64 0 0 0 0-3.77 3 3 0 0 0 -2.34-.81h-4.26v5.39z"/><path d="m441.93 33.34v4.95h5.42v1.24h-5.42v6.54h7.16v1.23h-8.47v-15.19h8.25v1.23z"/><path d="m452.56 32.11h1.31v15.19h-1.31z"/></svg>