<svg viewBox="0 0 788.92 181.96" xmlns="http://www.w3.org/2000/svg"><path d="m57 46.43c0-11.54.2-24.55.5-32.24h-.5c-3.18 13.9-10 36.48-16.49 57.81h-12.51c-5-18.67-12-44.4-15-58h-.49c.59 8 .89 22 .89 33.61v24.39h-13.4v-68h21.88c5.33 17.74 11.24 40 13.31 50.08h.1c1.71-8.84 9.07-32.69 14.78-50.08h21.1v68h-14.17z"/><path d="m127.45 58.75a112.77 112.77 0 0 0 .69 13.25h-13.51a20.24 20.24 0 0 1 -.69-5c-1.87 2.86-5.32 6.21-14.39 6.21-12.32 0-17.44-8.08-17.44-16 0-11.63 9.26-17.05 24.24-17.05h7.3v-3.1c0-3.64-1.28-7.19-7.89-7.19-5.91 0-7.29 2.46-7.88 6.21h-13.41c.69-9.07 6.31-16.37 21.88-16.37 13.61.1 21.1 5.43 21.1 17.65zm-13.8-10.06h-5.72c-8.57 0-11.73 2.67-11.73 7.59 0 3.65 2.27 6.81 7.39 6.81 9 0 10.06-6.31 10.06-13z"/><path d="m153.86 42.48c3.75-5.12 10.45-13 17.55-21.58h16.16l-17.74 19.32 19.42 31.78h-16l-12.88-22.71-6.51 6.3v16.41h-14.19v-72h14.19z"/><path d="m205.31 49.48c0 6.41 3.26 12.62 10.25 12.62 5.92 0 7.6-2.37 9-5.42h14.09c-1.77 6.21-7.39 16.46-23.36 16.46-16.86 0-24.15-12.52-24.15-25.92 0-16.07 8.18-27.51 24.64-27.51 17.45 0 23.46 12.72 23.46 25.44a29.35 29.35 0 0 1 -.2 4.33zm19.69-8.67c-.1-5.92-2.47-10.94-9.37-10.94-6.7 0-9.46 4.63-10 10.94z"/><path d="m281.9 20.9c4.63 20.5 7.1 32.1 8.1 38.54h.2c1.08-5.72 2.56-13.7 8.77-38.54h13.11c5.72 25.13 7.49 32.53 8.18 38h.1c1.07-5.28 2.64-12.9 8.56-38h14l-15.19 51.1h-15.08c-4.23-19.32-6.6-29.57-7.78-36.28h-.1c-.79 6.41-3.55 17.94-8.08 36.28h-15.18l-14.51-51.1z"/><path d="m364.6 0v27c2.17-3.35 6.31-7.3 14.59-7.3 9.46 0 17.05 5.72 17.05 19.52v32.78h-14v-30.7c0-6.6-2.36-10.15-8.28-10.15-7.88 0-9.36 5.91-9.36 13.7v27.15h-14.2v-72z"/><path d="m450.84 58.75a115.08 115.08 0 0 0 .69 13.25h-13.53a20.24 20.24 0 0 1 -.69-5c-1.87 2.86-5.32 6.21-14.39 6.21-12.32 0-17.45-8.08-17.45-16 0-11.63 9.27-17.05 24.25-17.05h7.28v-3.1c0-3.64-1.28-7.19-7.88-7.19-5.92 0-7.3 2.46-7.89 6.21h-13.4c.69-9.07 6.31-16.37 21.88-16.37 13.6.1 21.09 5.43 21.09 17.65zm-13.84-10.06h-5.71c-8.58 0-11.73 2.67-11.73 7.59 0 3.65 2.26 6.81 7.39 6.81 9 0 10.05-6.31 10.05-13z"/><path d="m458.14 20.9h7.86v-13.8h14.1v13.8h10.05v10.64h-10.03v25.24c0 3.84 1.18 5.32 5.42 5.32.79 0 2.17 0 3.15-.1v9.66c-2.76 1-6.6 1-9.46 1-10 0-13.21-5.33-13.21-14.3v-26.82h-7.88z"/><path d="m509.59 49.48c0 6.41 3.25 12.62 10.25 12.62 5.91 0 7.59-2.37 9-5.42h14.1c-1.78 6.21-7.4 16.46-23.37 16.46-16.85 0-24.15-12.52-24.15-25.92 0-16.07 8.19-27.51 24.65-27.51 17.44 0 23.46 12.72 23.46 25.44a29.35 29.35 0 0 1 -.2 4.33zm19.71-8.67c-.1-5.92-2.46-10.94-9.36-10.94-6.7 0-9.46 4.63-10.06 10.94z"/><path d="m562.12 20.9c4.88 17.35 8.88 32.43 9.88 38.54h.1c1.48-8.38 6.41-23.76 10.84-38.54h14.06l-18 51.1h-14.81l-17.34-51.1z"/><path d="m614.66 49.48c0 6.41 3.25 12.62 10.25 12.62 5.92 0 7.59-2.37 9-5.42h14.09c-1.78 6.21-7.4 16.46-23.36 16.46-16.86 0-24.15-12.52-24.15-25.92 0-16.07 8.18-27.51 24.64-27.51 17.45 0 23.46 12.72 23.46 25.44a29.35 29.35 0 0 1 -.2 4.33zm19.71-8.67c-.09-5.92-2.46-10.94-9.36-10.94-6.7 0-9.46 4.63-10 10.94z"/><path d="m657.63 34.8c0-5.13 0-9.57-.09-13.9h13.89c.2 1.18.4 6.21.4 9 2.27-5.82 7.69-10.06 16.36-10.16v13.48c-10.25-.3-16.36 2.46-16.36 16.46v22.32h-14.2z"/><path d="m694.5 72v-17.39h15.08v17.39z"/><path d="m64.76 143.32v27.21h-14.39v-67.92h29.86c14.79 0 22.77 8.08 22.77 18.63 0 9.07-4.93 14-9.85 16.07 3.35 1.28 8.47 4.73 8.47 16.95v3.35c0 4.54 0 9.76 1 12.92h-14c-1.18-3-1.38-8.09-1.38-15.28v-1c0-7.39-1.87-10.94-12.81-10.94zm0-11.73h12.32c8 0 11.14-3.06 11.14-8.67s-3.65-8.68-10.85-8.68h-12.61z"/><path d="m158.3 155.74c0 4.83 0 10.25.1 14.79h-13.8c-.2-1.38-.3-4.14-.4-5.92-3 5.13-7.49 7.1-14.09 7.1-10.35 0-17-6.31-17-18.93v-33.31h14.1v30.45c0 5.62 1.77 10.26 7.88 10.26 6.41 0 9.07-3.45 9.07-13.51v-27.2h14.1z"/><path d="m170.52 170.53v-72h14.19v72z"/><path d="m208.07 148.05c0 6.41 3.25 12.62 10.25 12.62 5.92 0 7.59-2.37 9-5.42h14.1c-1.78 6.21-7.4 16.46-23.36 16.46-16.86 0-24.15-12.52-24.15-25.93 0-16.06 8.18-27.5 24.64-27.5 17.45 0 23.45 12.72 23.45 25.43a29.42 29.42 0 0 1 -.2 4.34zm19.71-8.67c-.09-5.92-2.46-10.94-9.36-10.94-6.7 0-9.46 4.63-10 10.94z"/><path d="m261.49 155.15c1.09 4.14 4.44 6.41 9.66 6.41s7.1-1.88 7.1-5-2.17-4.54-9.46-6.31c-16.66-4.14-19.32-9.27-19.32-16.46 0-7.49 5.22-15.48 20.6-15.48s20.8 8.48 21.19 15.38h-13.4c-.5-1.87-1.78-5.42-8.38-5.42-4.63 0-6.21 2.07-6.21 4.34 0 2.56 1.58 3.74 9.86 5.71 17.05 4 19.51 9.76 19.51 17.25 0 8.48-6.5 16.17-22 16.17s-21.88-7.49-23.06-16.56z"/><path d="m295.7 182a84.1 84.1 0 0 0 7.3-28.82h14.49c-1.08 9.76-4.34 20.7-10.84 28.78z"/><path d="m361.24 119.47c4.64 20.5 7.1 32.13 8.08 38.54h.2c1.09-5.72 2.57-13.7 8.78-38.54h13.1c5.72 25.13 7.5 32.52 8.19 37.95h.1c1.08-5.23 2.66-12.82 8.57-37.95h14l-15.18 51.06h-15.08c-4.24-19.32-6.61-29.58-7.79-36.28h-.1c-.79 6.41-3.55 17.94-8.08 36.28h-15.18l-14.49-51.06z"/><path d="m443.94 98.57v27c2.17-3.35 6.31-7.3 14.59-7.3 9.46 0 17.05 5.72 17.05 19.52v32.73h-14v-30.65c0-6.6-2.36-10.15-8.28-10.15-7.88 0-9.36 5.91-9.36 13.7v27.11h-14.19v-72z"/><path d="m530.19 157.32a112.77 112.77 0 0 0 .69 13.21h-13.51a20.24 20.24 0 0 1 -.69-5c-1.87 2.86-5.32 6.21-14.39 6.21-12.32 0-17.45-8.08-17.45-16 0-11.63 9.27-17.05 24.25-17.05h7.3v-3.06c0-3.65-1.28-7.19-7.89-7.19-5.91 0-7.29 2.46-7.88 6.21h-13.41c.69-9.07 6.31-16.37 21.88-16.37 13.61.1 21.1 5.42 21.1 17.65zm-13.8-10.06h-5.72c-8.58 0-11.73 2.66-11.73 7.59 0 3.65 2.27 6.8 7.39 6.8 9 0 10.06-6.3 10.06-13z"/><path d="m537.48 119.47h7.88v-13.8h14.1v13.8h10v10.64h-10v25.24c0 3.84 1.18 5.32 5.42 5.32.79 0 2.17 0 3.16-.1v9.66c-2.77 1-6.61 1-9.47 1-10 0-13.21-5.33-13.21-14.3v-26.82h-7.88z"/><path d="m588.93 148.05c0 6.41 3.25 12.62 10.25 12.62 5.92 0 7.59-2.37 9-5.42h14.1c-1.78 6.21-7.4 16.46-23.36 16.46-16.86 0-24.15-12.52-24.15-25.93 0-16.06 8.18-27.5 24.64-27.5 17.45 0 23.46 12.72 23.46 25.43a29.42 29.42 0 0 1 -.2 4.34zm19.71-8.67c-.09-5.92-2.46-10.94-9.36-10.94-6.7 0-9.46 4.63-10 10.94z"/><path d="m641.47 119.47c4.83 17.34 8.87 32.43 9.85 38.54h.1c1.48-8.38 6.41-23.76 10.85-38.54h14.09l-18 51.06h-14.82l-17.35-51.06z"/><path d="m694 148.05c0 6.41 3.26 12.62 10.25 12.62 5.92 0 7.6-2.37 9-5.42h14.09c-1.77 6.21-7.39 16.46-23.36 16.46-16.86 0-24.15-12.52-24.15-25.93 0-16.06 8.18-27.5 24.64-27.5 17.45 0 23.46 12.72 23.46 25.43a29.42 29.42 0 0 1 -.2 4.34zm19.72-8.67c-.1-5.92-2.47-10.94-9.37-10.94-6.7 0-9.46 4.63-10.05 10.94z"/><path d="m737 133.36c0-5.12 0-9.56-.1-13.89h13.9c.19 1.18.39 6.21.39 9 2.27-5.82 7.69-10.06 16.36-10.16v13.51c-10.25-.3-16.36 2.46-16.36 16.46v22.28h-14.19z"/><path d="m773.84 170.53v-17.35h15.08v17.35z"/></svg>