<svg xmlns="http://www.w3.org/2000/svg" viewBox="0 0 517.59 344.21">
  <title>Asset 1</title>
  <g id="Layer_2" data-name="Layer 2">
    <g id="レイヤー_1" data-name="レイヤー 1">
      <g>
        <path d="M57.8,47.1c0-11.7.2-24.9.5-32.7h-.5C54.6,28.5,47.7,51.4,41.1,73H28.4C23.3,54.1,16.2,28,13.2,14.2h-.5c.6,8.1.9,22.3.9,34.1V73H0V4.1H22.2c5.4,18,11.4,40.6,13.5,50.8h.1c1.7-9,9.2-33.2,15-50.8H72.2V73H57.8Z"/>
        <path d="M129.3,59.6A115.28,115.28,0,0,0,130,73H116.3a20.27,20.27,0,0,1-.7-5.1c-1.9,2.9-5.4,6.3-14.6,6.3C88.5,74.2,83.3,66,83.3,58c0-11.8,9.4-17.3,24.6-17.3h7.4V37.6c0-3.7-1.3-7.3-8-7.3-6,0-7.4,2.5-8,6.3H85.7c.7-9.2,6.4-16.6,22.2-16.6,13.8.1,21.4,5.5,21.4,17.9Zm-14-10.2h-5.8c-8.7,0-11.9,2.7-11.9,7.7,0,3.7,2.3,6.9,7.5,6.9,9.1,0,10.2-6.4,10.2-13.2Z"/>
        <path d="M156.1,43.1c3.8-5.2,10.6-13.2,17.8-21.9h16.4l-18,19.6L192,73H175.8L162.7,50l-6.6,6.4V73H141.7V0h14.4Z"/>
        <path d="M208.3,50.2c0,6.5,3.3,12.8,10.4,12.8,6,0,7.7-2.4,9.1-5.5h14.3c-1.8,6.3-7.5,16.7-23.7,16.7-17.1,0-24.5-12.7-24.5-26.3,0-16.3,8.3-27.9,25-27.9,17.7,0,23.8,12.9,23.8,25.8a30.27,30.27,0,0,1-.2,4.4Zm20-8.8c-.1-6-2.5-11.1-9.5-11.1-6.8,0-9.6,4.7-10.2,11.1Z"/>
        <path d="M83.7,111.2c4.7,20.8,7.2,32.6,8.2,39.1h.2c1.1-5.8,2.6-13.9,8.9-39.1h13.3c5.8,25.5,7.6,33,8.3,38.5h.1c1.1-5.3,2.7-13,8.7-38.5h14.2L130.2,163H114.9c-4.3-19.6-6.7-30-7.9-36.8h-.1c-.8,6.5-3.6,18.2-8.2,36.8H83.3L68.6,111.2Z"/>
        <path d="M167.6,90v27.4c2.2-3.4,6.4-7.4,14.8-7.4,9.6,0,17.3,5.8,17.3,19.8V163H185.5V131.9c0-6.7-2.4-10.3-8.4-10.3-8,0-9.5,6-9.5,13.9V163H153.19V90Z"/>
        <path d="M255.1,149.6a115.28,115.28,0,0,0,.7,13.4H242.1a20.27,20.27,0,0,1-.7-5.1c-1.9,2.9-5.4,6.3-14.6,6.3-12.51,0-17.71-8.2-17.71-16.2,0-11.8,9.4-17.3,24.61-17.3h7.4v-3.1c0-3.7-1.3-7.3-8-7.3-6,0-7.41,2.5-8,6.3H211.49c.7-9.2,6.41-16.6,22.21-16.6,13.8.1,21.4,5.5,21.4,17.9Zm-14-10.2h-5.8c-8.7,0-11.9,2.7-11.9,7.7,0,3.7,2.29,6.9,7.5,6.9,9.1,0,10.2-6.4,10.2-13.2Z"/>
        <path d="M262.49,111.2h8v-14h14.3v14H295V122H284.79v25.6c0,3.9,1.2,5.4,5.51,5.4.8,0,2.2,0,3.2-.1v9.8c-2.81,1-6.71,1-9.6,1-10.11,0-13.41-5.4-13.41-14.5V122h-8Z"/>
        <path d="M314.69,140.2c0,6.5,3.3,12.8,10.4,12.8,6,0,7.7-2.4,9.1-5.5H348.5c-1.81,6.3-7.51,16.7-23.71,16.7-17.1,0-24.5-12.7-24.5-26.3,0-16.3,8.3-27.9,25-27.9,17.7,0,23.81,12.9,23.81,25.8a30.27,30.27,0,0,1-.2,4.4Zm20-8.8c-.1-6-2.5-11.1-9.5-11.1-6.8,0-9.6,4.7-10.2,11.1Z"/>
        <path d="M368,111.2c4.9,17.6,9,32.9,10,39.1h.1c1.5-8.5,6.5-24.1,11-39.1h14.3L385.09,163h-15l-17.6-51.8Z"/>
        <path d="M421.29,140.2c0,6.5,3.3,12.8,10.4,12.8,6,0,7.7-2.4,9.1-5.5h14.3c-1.8,6.3-7.5,16.7-23.7,16.7-17.1,0-24.5-12.7-24.5-26.3,0-16.3,8.3-27.9,25-27.9,17.7,0,23.8,12.9,23.8,25.8a30.27,30.27,0,0,1-.2,4.4Zm20-8.8c-.1-6-2.5-11.1-9.5-11.1-6.8,0-9.6,4.7-10.2,11.1Z"/>
        <path d="M464.89,125.3c0-5.2,0-9.7-.1-14.1h14.1c.2,1.2.4,6.3.4,9.1,2.3-5.9,7.8-10.2,16.6-10.3v13.7c-10.4-.3-16.6,2.5-16.6,16.7V163h-14.4Z"/>
        <path d="M502.29,163V145.4h15.3V163Z"/>
        <path d="M14.6,225.4V253H0V184.1H30.3c15,0,23.1,8.2,23.1,18.9,0,9.2-5,14.2-10,16.3,3.4,1.3,8.6,4.8,8.6,17.2v3.4c0,4.6,0,9.9,1,13.1H38.8c-1.2-3-1.4-8.2-1.4-15.5v-1c0-7.5-1.9-11.1-13-11.1Zm0-11.9H27.1c8.1,0,11.3-3.1,11.3-8.8s-3.7-8.8-11-8.8H14.6Z"/>
        <path d="M109.5,238c0,4.9,0,10.4.1,15h-14c-.2-1.4-.3-4.2-.4-6-3.1,5.21-7.6,7.21-14.3,7.21-10.5,0-17.2-6.41-17.2-19.21V201.2H78v30.9c0,5.7,1.8,10.4,8,10.4,6.5,0,9.2-3.5,9.2-13.7V201.2h14.3Z"/>
        <path d="M121.9,253V180h14.4v73Z"/>
        <path d="M160,230.2c0,6.5,3.3,12.8,10.4,12.8,6,0,7.7-2.4,9.1-5.5h14.3c-1.8,6.3-7.5,16.71-23.7,16.71-17.1,0-24.5-12.71-24.5-26.31,0-16.3,8.3-27.9,25-27.9,17.7,0,23.8,12.9,23.8,25.8a30.27,30.27,0,0,1-.2,4.4Zm20-8.8c-.1-6-2.5-11.1-9.5-11.1-6.8,0-9.6,4.7-10.2,11.1Z"/>
        <path d="M214.2,237.4c1.1,4.2,4.5,6.5,9.8,6.5s7.2-1.9,7.2-5.1-2.2-4.6-9.6-6.4C204.69,228.2,202,223,202,215.7c0-7.6,5.31-15.7,20.91-15.7s21.1,8.6,21.5,15.6H230.8c-.5-1.9-1.8-5.5-8.5-5.5-4.7,0-6.3,2.1-6.3,4.4,0,2.6,1.6,3.8,10,5.8,17.3,4,19.8,9.9,19.8,17.5,0,8.6-6.6,16.41-22.3,16.41s-22.2-7.61-23.4-16.81Z"/>
        <path d="M248.89,264.61a85.33,85.33,0,0,0,7.41-29.21H271c-1.1,9.9-4.4,21-11,29.21Z"/>
        <path d="M83.7,291.2c4.7,20.8,7.2,32.6,8.2,39.1h.2c1.1-5.8,2.6-13.9,8.9-39.1h13.3c5.8,25.5,7.6,33,8.3,38.5h.1c1.1-5.3,2.7-13,8.7-38.5h14.2L130.2,343H114.9c-4.3-19.6-6.7-30-7.9-36.8h-.1c-.8,6.5-3.6,18.2-8.2,36.8H83.3L68.6,291.2Z"/>
        <path d="M167.6,270v27.4c2.2-3.4,6.4-7.4,14.8-7.4,9.6,0,17.3,5.8,17.3,19.8V343H185.5V311.9c0-6.7-2.4-10.3-8.4-10.3-8,0-9.5,6-9.5,13.9V343H153.19V270Z"/>
        <path d="M255.1,329.6a115.28,115.28,0,0,0,.7,13.4H242.1a20.2,20.2,0,0,1-.7-5.1c-1.9,2.9-5.4,6.31-14.6,6.31-12.51,0-17.71-8.21-17.71-16.21,0-11.8,9.4-17.3,24.61-17.3h7.4v-3.1c0-3.7-1.3-7.3-8-7.3-6,0-7.41,2.5-8,6.3H211.49c.7-9.2,6.41-16.6,22.21-16.6,13.8.1,21.4,5.5,21.4,17.9Zm-14-10.2h-5.8c-8.7,0-11.9,2.7-11.9,7.7,0,3.7,2.29,6.9,7.5,6.9,9.1,0,10.2-6.4,10.2-13.2Z"/>
        <path d="M262.49,291.2h8v-14h14.3v14H295V302H284.79v25.6c0,3.9,1.2,5.4,5.51,5.4.8,0,2.2,0,3.2-.1v9.81c-2.81,1-6.71,1-9.6,1-10.11,0-13.41-5.41-13.41-14.51V302h-8Z"/>
        <path d="M314.69,320.2c0,6.5,3.3,12.8,10.4,12.8,6,0,7.7-2.4,9.1-5.5H348.5c-1.81,6.3-7.51,16.71-23.71,16.71-17.1,0-24.5-12.71-24.5-26.31,0-16.3,8.3-27.9,25-27.9,17.7,0,23.81,12.9,23.81,25.8a30.27,30.27,0,0,1-.2,4.4Zm20-8.8c-.1-6-2.5-11.1-9.5-11.1-6.8,0-9.6,4.7-10.2,11.1Z"/>
        <path d="M368,291.2c4.9,17.6,9,32.9,10,39.1h.1c1.5-8.5,6.5-24.1,11-39.1h14.3L385.09,343h-15l-17.6-51.8Z"/>
        <path d="M421.29,320.2c0,6.5,3.3,12.8,10.4,12.8,6,0,7.7-2.4,9.1-5.5h14.3c-1.8,6.3-7.5,16.71-23.7,16.71-17.1,0-24.5-12.71-24.5-26.31,0-16.3,8.3-27.9,25-27.9,17.7,0,23.8,12.9,23.8,25.8a30.27,30.27,0,0,1-.2,4.4Zm20-8.8c-.1-6-2.5-11.1-9.5-11.1-6.8,0-9.6,4.7-10.2,11.1Z"/>
        <path d="M464.89,305.3c0-5.2,0-9.7-.1-14.1h14.1c.2,1.2.4,6.3.4,9.1,2.3-5.9,7.8-10.2,16.6-10.3v13.7c-10.4-.3-16.6,2.5-16.6,16.7V343h-14.4Z"/>
        <path d="M502.29,343V325.4h15.3V343Z"/>
      </g>
    </g>
  </g>
</svg>
