<svg viewBox="0 0 960 320.86" xmlns="http://www.w3.org/2000/svg"><path d="m3.87 16.28-3.87-15.16h3.5c1.43 7 2.07 10.06 2.24 11.73.58-2.79 2.05-8.08 2.93-11.73h3c.76 2.88 2.33 8.78 2.79 11.58.5-3.35 2-9.22 2.53-11.58h3.17l-4.1 15.16h-3.39c-.79-3.36-2.13-8.28-2.67-10.87-.55 2.71-1.91 7.81-2.73 10.87z"/><path d="m25.24.22v6a3.57 3.57 0 0 1 3.25-1.63c2.11.03 3.81 1.31 3.81 4.41v7.3h-3.13v-6.86c0-1.48-.52-2.27-1.84-2.27-1.77 0-2.09 1.32-2.09 3.06v6.05h-3.17v-16.06z"/><path d="m44.71 13.33a24.7 24.7 0 0 0 .15 3h-3a4.81 4.81 0 0 1 -.15-1.12c-.42.64-1.19 1.39-3.21 1.39-2.75 0-3.9-1.81-3.9-3.57 0-2.59 2.07-3.8 5.42-3.8h1.62v-.74c0-.81-.28-1.6-1.75-1.6s-1.63.55-1.77 1.38h-3c.16-2 1.41-3.65 4.89-3.65 3 0 4.71 1.21 4.71 3.94zm-3.09-2.24h-1.27c-1.92 0-2.62.59-2.62 1.69a1.47 1.47 0 0 0 1.65 1.52c2 0 2.24-1.41 2.24-2.9z"/><path d="m47 4.88h1.76v-3.08h3.14v3.08h2.24v2.38h-2.24v5.63c0 .86.26 1.19 1.21 1.19h.7v2.16a6.8 6.8 0 0 1 -2.11.22c-2.22 0-3-1.19-3-3.19v-6h-1.7z"/><path d="m58.7 11.27c0 1.43.72 2.81 2.28 2.81a1.83 1.83 0 0 0 2-1.21h3.14a5 5 0 0 1 -5.21 3.68c-3.76 0-5.39-2.8-5.39-5.79 0-3.59 1.82-6.14 5.5-6.14 3.89 0 5.23 2.84 5.23 5.68a7.4 7.4 0 0 1 0 1zm4.4-1.94c0-1.32-.55-2.44-2.09-2.44s-2.12 1-2.25 2.44z"/><path d="m70.64 4.88c1.08 3.88 2 7.24 2.2 8.61.33-1.87 1.43-5.3 2.43-8.61h3.14l-4 11.4h-3.31l-3.87-11.4z"/><path d="m82.59 11.27c0 1.43.72 2.81 2.29 2.81a1.82 1.82 0 0 0 2-1.21h3.12a5 5 0 0 1 -5.21 3.68c-3.76 0-5.39-2.8-5.39-5.79 0-3.59 1.83-6.14 5.5-6.14 3.89 0 5.24 2.84 5.24 5.68a5.93 5.93 0 0 1 0 1zm4.41-1.94c0-1.33-.56-2.44-2.1-2.44s-2.11 1-2.25 2.44z"/><path d="m92.4 8c0-1.15 0-2.14 0-3.11h3.1c0 .27.09 1.39.09 2a3.66 3.66 0 0 1 3.65-2.27v3c-2.29-.06-3.65.56-3.65 3.68v5h-3.19z"/><path d="m107.05 3v-2.78h3.17v2.78zm0 1.84h3.17v11.4h-3.17z"/><path d="m115.92 12.85a2 2 0 0 0 2.15 1.43c1.17 0 1.59-.42 1.59-1.12s-.49-1-2.11-1.41c-3.72-.92-4.32-2.07-4.32-3.67s1.17-3.46 4.6-3.46 4.64 1.89 4.73 3.43h-3c-.11-.42-.4-1.21-1.87-1.21-1 0-1.39.46-1.39 1s.36.84 2.2 1.28c3.81.88 4.36 2.18 4.36 3.85 0 1.89-1.45 3.61-4.91 3.61s-4.88-1.68-5.15-3.7z"/><path d="m140.38 13.33a24.1 24.1 0 0 0 .16 3h-3a4.33 4.33 0 0 1 -.15-1.12c-.42.64-1.19 1.39-3.21 1.39-2.75 0-3.9-1.81-3.9-3.57 0-2.59 2.07-3.8 5.41-3.8h1.63v-.74c0-.81-.28-1.6-1.76-1.6-1.32 0-1.63.55-1.76 1.38h-3c.15-2 1.41-3.65 4.88-3.65 3 0 4.71 1.21 4.71 3.94zm-3.08-2.24h-1.3c-1.92 0-2.62.59-2.62 1.69a1.47 1.47 0 0 0 1.65 1.52c2 0 2.24-1.41 2.24-2.9z"/><path d="m158.62 12.61c-.37 1.89-1.72 3.94-5.1 3.94-3.55 0-5.37-2.45-5.37-5.88s2-6 5.52-6c3.83 0 4.91 2.77 5 4.05h-3.06a1.78 1.78 0 0 0 -2-1.56c-1.45 0-2.26 1.25-2.26 3.45 0 2.44.88 3.54 2.24 3.54a1.94 1.94 0 0 0 2-1.49z"/><path d="m160.73 8c0-1.15 0-2.14 0-3.11h3.1c0 .27.09 1.39.09 2a3.67 3.67 0 0 1 3.65-2.27v3c-2.29-.06-3.65.56-3.65 3.68v5h-3.17z"/><path d="m172 11.27c0 1.43.72 2.81 2.28 2.81a1.83 1.83 0 0 0 2-1.21h3.14a5 5 0 0 1 -5.21 3.68c-3.76 0-5.39-2.8-5.39-5.79 0-3.59 1.82-6.14 5.5-6.14 3.89 0 5.23 2.84 5.23 5.68a7.4 7.4 0 0 1 0 1zm4.4-1.94c0-1.32-.55-2.44-2.09-2.44s-2.12 1-2.25 2.44z"/><path d="m191.73 13.33a27.1 27.1 0 0 0 .15 3h-3a4.33 4.33 0 0 1 -.15-1.12c-.42.64-1.19 1.39-3.22 1.39-2.75 0-3.89-1.81-3.89-3.57 0-2.59 2.07-3.8 5.41-3.8h1.63v-.74c0-.81-.29-1.6-1.76-1.6-1.32 0-1.63.55-1.76 1.38h-3c.15-2 1.4-3.65 4.88-3.65 3 0 4.71 1.21 4.71 3.94zm-3.08-2.24h-1.28c-1.91 0-2.62.59-2.62 1.69a1.47 1.47 0 0 0 1.66 1.52c2 0 2.24-1.41 2.24-2.9z"/><path d="m193.58 4.88h1.76v-3.08h3.14v3.08h2.25v2.38h-2.25v5.63c0 .86.27 1.19 1.21 1.19h.71v2.16a6.9 6.9 0 0 1 -2.12.22c-2.22 0-2.94-1.19-2.94-3.19v-6h-1.76z"/><path d="m202.77 3v-2.78h3.17v2.78zm0 1.84h3.17v11.4h-3.17z"/><path d="m211 4.88c1.08 3.88 2 7.24 2.2 8.61.33-1.87 1.43-5.3 2.42-8.61h3.15l-4 11.4h-3.3l-3.87-11.4z"/><path d="m223 11.27c0 1.43.72 2.81 2.28 2.81a1.83 1.83 0 0 0 2-1.21h3.14a5 5 0 0 1 -5.21 3.68c-3.77 0-5.39-2.8-5.39-5.79 0-3.59 1.82-6.14 5.5-6.14 3.89 0 5.23 2.84 5.23 5.68a7.4 7.4 0 0 1 0 1zm4.4-1.94c0-1.32-.55-2.44-2.1-2.44s-2.11 1-2.24 2.44z"/><path d="m241.4 12.85a2 2 0 0 0 2.16 1.43c1.17 0 1.58-.42 1.58-1.12s-.48-1-2.11-1.41c-3.72-.92-4.31-2.07-4.31-3.67s1.17-3.46 4.6-3.46 4.64 1.89 4.73 3.43h-3c-.11-.42-.4-1.21-1.87-1.21-1 0-1.39.46-1.39 1s.35.84 2.2 1.28c3.81.88 4.36 2.18 4.36 3.85 0 1.89-1.46 3.61-4.91 3.61s-4.88-1.68-5.15-3.7z"/><path d="m249.87 4.88h1.76v-3.08h3.15v3.08h2.22v2.38h-2.24v5.63c0 .86.26 1.19 1.21 1.19h.7v2.16a6.8 6.8 0 0 1 -2.11.22c-2.22 0-3-1.19-3-3.19v-6h-1.76z"/><path d="m269.1 13v3.3h-3.1c0-.31-.06-.92-.09-1.32a3.24 3.24 0 0 1 -3.14 1.59c-2.31 0-3.79-1.41-3.79-4.23v-7.46h3.15v6.8c0 1.26.4 2.29 1.76 2.29s2-.77 2-3v-6.09h3.15z"/><path d="m282.5.22v12.94 3.12h-3c-.07-.35-.13-.92-.16-1.19a3.41 3.41 0 0 1 -3.23 1.46c-2.88 0-4.71-2.31-4.71-5.88s1.94-6 5.17-6c1.65 0 2.53.59 2.77 1.1v-5.55zm-5.44 13.78c2.16 0 2.43-1.81 2.43-3.44 0-2-.29-3.43-2.36-3.43-1.65 0-2.49 1.3-2.49 3.46s.86 3.41 2.42 3.41z"/><path d="m285.4 3v-2.78h3.17v2.78zm0 1.84h3.17v11.4h-3.17z"/><path d="m302.54 10.56c0 3.46-2.07 6-5.68 6s-5.58-2.53-5.58-5.92 2.13-6 5.74-6c3.34-.02 5.52 2.36 5.52 5.92zm-8.07 0c0 2.2.94 3.5 2.46 3.5s2.42-1.3 2.42-3.47c0-2.38-.88-3.5-2.46-3.5s-2.42 1.1-2.42 3.49z"/><path d="m310 4.88h1.76v-3.08h3.15v3.08h2.24v2.38h-2.24v5.63c0 .86.26 1.19 1.21 1.19h.7v2.16a6.83 6.83 0 0 1 -2.11.22c-2.23 0-3-1.19-3-3.19v-6h-1.71z"/><path d="m322.38.22v6a3.6 3.6 0 0 1 3.26-1.63c2.11 0 3.81 1.28 3.81 4.36v7.3h-3.13v-6.81c0-1.48-.53-2.27-1.85-2.27-1.76 0-2.09 1.32-2.09 3.06v6.05h-3.17v-16.06z"/><path d="m341.85 13.33a24.1 24.1 0 0 0 .16 3h-3a4.81 4.81 0 0 1 -.15-1.12c-.42.64-1.19 1.39-3.21 1.39-2.75 0-3.9-1.81-3.9-3.57 0-2.59 2.07-3.8 5.42-3.8h1.62v-.74c0-.81-.28-1.6-1.76-1.6-1.32 0-1.63.55-1.76 1.38h-3c.16-2 1.41-3.65 4.89-3.65 3 0 4.7 1.21 4.7 3.94zm-3.08-2.24h-1.27c-1.92 0-2.62.59-2.62 1.69a1.47 1.47 0 0 0 1.65 1.52c2 0 2.24-1.41 2.24-2.9z"/><path d="m343.7 4.88h1.76v-3.08h3.15v3.08h2.24v2.38h-2.24v5.63c0 .86.26 1.19 1.21 1.19h.7v2.16a6.83 6.83 0 0 1 -2.11.22c-2.22 0-3-1.19-3-3.19v-6h-1.71z"/><path d="m368.67 13.33a24.1 24.1 0 0 0 .16 3h-3a4.33 4.33 0 0 1 -.15-1.12c-.42.64-1.19 1.39-3.22 1.39-2.75 0-3.89-1.81-3.89-3.57 0-2.59 2.07-3.8 5.41-3.8h1.63v-.74c0-.81-.29-1.6-1.76-1.6-1.32 0-1.63.55-1.76 1.38h-3c.15-2 1.41-3.65 4.88-3.65 3 0 4.71 1.21 4.71 3.94zm-3.08-2.24h-1.28c-1.91 0-2.61.59-2.61 1.69a1.47 1.47 0 0 0 1.65 1.52c2 0 2.24-1.41 2.24-2.9z"/><path d="m371.62 3v-2.78h3.17v2.78zm0 1.84h3.17v11.4h-3.17z"/><path d="m377.71 7.83c0-1 0-2 0-2.95h3c.05.29.11.93.13 1.37a3.59 3.59 0 0 1 3.16-1.63 3 3 0 0 1 2.93 1.74 4 4 0 0 1 3.52-1.74c2 0 3.61 1.23 3.61 4.18v7.48h-3.06v-7.08c0-1-.38-2-1.67-2s-1.85.88-1.85 2.62v6.51h-3.1v-7c0-1.17-.29-2.14-1.63-2.14s-1.9.79-1.9 2.75v6.36h-3.12z"/><path d="m399.32 12.85a2 2 0 0 0 2.15 1.43c1.17 0 1.59-.42 1.59-1.12s-.49-1-2.12-1.41c-3.71-.92-4.31-2.07-4.31-3.67s1.17-3.46 4.6-3.46 4.64 1.89 4.73 3.43h-3c-.11-.42-.4-1.21-1.87-1.21-1 0-1.39.46-1.39 1s.35.84 2.2 1.28c3.81.88 4.36 2.18 4.36 3.85 0 1.89-1.45 3.61-4.91 3.61s-4.88-1.68-5.15-3.7z"/><path d="m413.66 4.88h1.76v-3.08h3.15v3.08h2.24v2.38h-2.24v5.63c0 .86.26 1.19 1.21 1.19h.7v2.16a6.83 6.83 0 0 1 -2.11.22c-2.22 0-2.95-1.19-2.95-3.19v-6h-1.76z"/><path d="m433.46 10.56c0 3.46-2.07 6-5.68 6s-5.59-2.53-5.59-5.92 2.14-6 5.75-6c3.34-.02 5.52 2.36 5.52 5.92zm-8.07 0c0 2.2.94 3.5 2.46 3.5s2.42-1.3 2.42-3.47c0-2.38-.88-3.5-2.46-3.5s-2.42 1.1-2.42 3.49z"/><path d="m451.9 12.61c-.38 1.89-1.72 3.94-5.11 3.94-3.54 0-5.37-2.45-5.37-5.88s2.05-6 5.52-6c3.83 0 4.91 2.77 5 4.05h-3.06a1.79 1.79 0 0 0 -2-1.56c-1.45 0-2.27 1.25-2.27 3.45 0 2.44.88 3.54 2.25 3.54a1.94 1.94 0 0 0 2-1.49z"/><path d="m464.61 10.56c0 3.46-2.07 6-5.67 6s-5.59-2.53-5.59-5.92 2.13-6 5.74-6c3.34-.02 5.52 2.36 5.52 5.92zm-8.07 0c0 2.2.94 3.5 2.46 3.5s2.42-1.3 2.42-3.47c0-2.38-.88-3.5-2.46-3.5s-2.42 1.1-2.42 3.49z"/><path d="m466.9 7.77c0-1 0-2 0-2.89h3.05c.07.31.11 1.1.14 1.46a3.44 3.44 0 0 1 3.3-1.72c2.28 0 3.76 1.56 3.76 4.42v7.24h-3.15v-6.88c0-1.3-.42-2.23-1.82-2.23s-2.09.75-2.09 2.78v6.33h-3.19z"/><path d="m489.89 12.61c-.37 1.89-1.72 3.94-5.11 3.94s-5.36-2.45-5.36-5.88 2-6 5.52-6c3.83 0 4.91 2.77 4.95 4.05h-3.06a1.79 1.79 0 0 0 -2-1.56c-1.45 0-2.26 1.25-2.26 3.45 0 2.44.88 3.54 2.24 3.54a1.94 1.94 0 0 0 2-1.49z"/><path d="m494.51 11.27c0 1.43.72 2.81 2.29 2.81a1.82 1.82 0 0 0 2-1.21h3.14a5 5 0 0 1 -5.21 3.68c-3.76 0-5.39-2.8-5.39-5.79 0-3.59 1.83-6.14 5.5-6.14 3.89 0 5.24 2.84 5.24 5.68a5.93 5.93 0 0 1 -.05 1zm4.4-1.94c0-1.32-.55-2.44-2.09-2.44s-2.11 1-2.25 2.44z"/><path d="m504.32 3v-2.78h3.17v2.78zm0 1.84h3.17v11.4h-3.17z"/><path d="m512.55 4.88c1.08 3.88 2 7.24 2.2 8.61.33-1.87 1.43-5.3 2.42-8.61h3.15l-4 11.4h-3.32l-3.87-11.4z"/><path d="m524.49 11.27c0 1.43.73 2.81 2.29 2.81a1.81 1.81 0 0 0 2-1.21h3.15a5 5 0 0 1 -5.21 3.68c-3.77 0-5.4-2.8-5.4-5.79 0-3.59 1.83-6.14 5.51-6.14 3.89 0 5.23 2.84 5.23 5.68a7.4 7.4 0 0 1 0 1zm4.4-1.94c0-1.32-.55-2.44-2.09-2.44s-2.11 1-2.24 2.44z"/><path d="m550.65 13v3.3h-3.08c0-.31-.06-.92-.08-1.32a3.27 3.27 0 0 1 -3.15 1.59c-2.31 0-3.79-1.41-3.79-4.23v-7.46h3.15v6.8c0 1.26.4 2.29 1.76 2.29s2-.77 2-3v-6.09h3.14z"/><path d="m553.62 7.77c0-1 0-2 0-2.89h3.06c.06.31.11 1.1.13 1.46a3.45 3.45 0 0 1 3.3-1.72c2.29 0 3.76 1.56 3.76 4.42v7.24h-3.14v-6.88c0-1.3-.42-2.23-1.83-2.23s-2.09.75-2.09 2.78v6.33h-3.17z"/><path d="m569.26 11.27c0 1.43.73 2.81 2.29 2.81a1.81 1.81 0 0 0 2-1.21h3.15a5 5 0 0 1 -5.22 3.68c-3.76 0-5.39-2.8-5.39-5.79 0-3.59 1.83-6.14 5.51-6.14 3.89 0 5.23 2.84 5.23 5.68a7.4 7.4 0 0 1 0 1zm4.4-1.94c0-1.32-.55-2.44-2.09-2.44s-2.11 1-2.24 2.44z"/><path d="m582 4.88c1.19 2.16 1.67 3 2 3.59.4-.7 1.1-2 2-3.59h3.5l-3.7 5.44 3.67 6h-3.56c-1-1.93-1.65-3.17-2-3.83-.29.6-1.08 2.07-2 3.83h-3.45l3.54-5.58-3.52-5.86z"/><path d="m591.39 20.64v-13c0-.92 0-1.82 0-2.75h3.06c0 .31.11 1 .11 1.43a3.59 3.59 0 0 1 3.3-1.69c2.58 0 4.53 2.16 4.53 5.68 0 4-2.2 6.25-5 6.25a3.19 3.19 0 0 1 -2.88-1.28v5.37zm5.44-13.49c-1.78 0-2.42 1.17-2.42 3.46s.59 3.39 2.29 3.39 2.48-1.3 2.48-3.61c0-2.05-.83-3.24-2.35-3.24z"/><path d="m604.66 16.28v-16.06h3.17v16.06z"/><path d="m621.36 10.56c0 3.46-2.07 6-5.68 6s-5.59-2.53-5.59-5.92 2.14-6 5.75-6c3.34-.02 5.52 2.36 5.52 5.92zm-8.08 0c0 2.2 1 3.5 2.47 3.5s2.42-1.3 2.42-3.47c0-2.38-.88-3.5-2.47-3.5s-2.42 1.1-2.42 3.49z"/><path d="m623.62 8c0-1.15 0-2.14 0-3.11h3.1c0 .27.09 1.39.09 2a3.67 3.67 0 0 1 3.65-2.27v3c-2.28-.06-3.65.56-3.65 3.68v5h-3.17z"/><path d="m635.35 11.27c0 1.43.73 2.81 2.29 2.81a1.82 1.82 0 0 0 2-1.21h3.15a5 5 0 0 1 -5.22 3.68c-3.76 0-5.39-2.8-5.39-5.79 0-3.59 1.83-6.14 5.5-6.14 3.9 0 5.24 2.84 5.24 5.68a5.93 5.93 0 0 1 0 1zm4.4-1.94c0-1.32-.55-2.44-2.09-2.44s-2.11 1-2.24 2.44z"/><path d="m655.61.22v12.94 3.12h-3c-.07-.35-.13-.92-.15-1.19-.55.91-1.54 1.46-3.24 1.46-2.88 0-4.71-2.31-4.71-5.88s1.94-6 5.17-6c1.65 0 2.54.59 2.78 1.1v-5.55zm-5.43 13.78c2.15 0 2.42-1.81 2.42-3.44 0-2-.29-3.43-2.36-3.43-1.65 0-2.48 1.3-2.48 3.46s.86 3.41 2.42 3.41z"/><path d="m665.71 3v-2.78h3.17v2.78zm0 1.84h3.17v11.4h-3.17z"/><path d="m682.69.22v12.94 3.12h-3c-.06-.35-.13-.92-.15-1.19-.55.91-1.54 1.46-3.24 1.46-2.88 0-4.7-2.31-4.7-5.88s1.93-6 5.17-6c1.65 0 2.53.59 2.77 1.1v-5.55zm-5.43 13.78c2.16 0 2.42-1.81 2.42-3.44 0-2-.28-3.43-2.35-3.43-1.65 0-2.49 1.3-2.49 3.46s.86 3.41 2.42 3.41z"/><path d="m688.11 11.27c0 1.43.72 2.81 2.28 2.81a1.83 1.83 0 0 0 2-1.21h3.14a5 5 0 0 1 -5.21 3.68c-3.77 0-5.39-2.8-5.39-5.79 0-3.59 1.82-6.14 5.5-6.14 3.89 0 5.23 2.84 5.23 5.68a7.4 7.4 0 0 1 0 1zm4.4-1.94c0-1.32-.55-2.44-2.09-2.44s-2.12 1-2.25 2.44z"/><path d="m707.38 13.33a27.1 27.1 0 0 0 .15 3h-3a4.32 4.32 0 0 1 -.16-1.12c-.41.64-1.18 1.39-3.21 1.39-2.75 0-3.89-1.81-3.89-3.57 0-2.59 2.07-3.8 5.41-3.8h1.63v-.74c0-.81-.29-1.6-1.76-1.6-1.32 0-1.63.55-1.76 1.38h-3c.15-2 1.4-3.65 4.88-3.65 3 0 4.71 1.21 4.71 3.94zm-3.08-2.24h-1.3c-1.91 0-2.62.59-2.62 1.69a1.47 1.47 0 0 0 1.65 1.52c2 0 2.25-1.41 2.25-2.9z"/><path d="m712.66 12.85a2 2 0 0 0 2.15 1.43c1.17 0 1.59-.42 1.59-1.12s-.49-1-2.11-1.41c-3.72-.92-4.32-2.07-4.32-3.67s1.17-3.46 4.6-3.46 4.65 1.89 4.73 3.43h-3c-.11-.42-.4-1.21-1.87-1.21-1 0-1.39.46-1.39 1s.36.84 2.2 1.28c3.81.88 4.36 2.18 4.36 3.85 0 1.89-1.45 3.61-4.91 3.61s-4.88-1.68-5.14-3.7z"/><path d="m720.51 18.83a18.73 18.73 0 0 0 1.63-6.42h3.23a12.63 12.63 0 0 1 -2.37 6.42z"/><path d="m742.75 13.33a24.1 24.1 0 0 0 .16 3h-3a4.81 4.81 0 0 1 -.15-1.12c-.42.64-1.19 1.39-3.21 1.39-2.75 0-3.9-1.81-3.9-3.57 0-2.59 2.07-3.8 5.42-3.8h1.62v-.74c0-.81-.28-1.6-1.76-1.6-1.32 0-1.63.55-1.76 1.38h-3c.15-2 1.41-3.65 4.89-3.65 3 0 4.7 1.21 4.7 3.94zm-3.08-2.24h-1.27c-1.92 0-2.62.59-2.62 1.69a1.47 1.47 0 0 0 1.65 1.52c2 0 2.24-1.41 2.24-2.9z"/><path d="m745.72 7.77c0-1 0-2 0-2.89h3.06c.06.31.11 1.1.13 1.46a3.47 3.47 0 0 1 3.3-1.72c2.27 0 3.79 1.56 3.79 4.38v7.24h-3.14v-6.84c0-1.3-.42-2.23-1.83-2.23s-2.09.75-2.09 2.78v6.33h-3.17z"/><path d="m769.31.22v12.94 3.12h-3c-.07-.35-.14-.92-.16-1.19a3.41 3.41 0 0 1 -3.23 1.46c-2.88 0-4.71-2.31-4.71-5.88s1.93-6 5.17-6c1.65 0 2.53.59 2.77 1.1v-5.55zm-5.44 13.78c2.16 0 2.42-1.81 2.42-3.44 0-2-.28-3.43-2.35-3.43-1.65 0-2.49 1.3-2.49 3.46s.86 3.41 2.42 3.41z"/><path d="m777.65.22h3.16v5.87a3.59 3.59 0 0 1 3.26-1.47c3.1 0 4.64 2.57 4.64 5.77s-1.67 6.16-5 6.16c-1.69 0-2.44-.51-3-1.35a5.51 5.51 0 0 1 -.13 1.08h-3c0-1.23 0-2.48 0-3.72zm5.45 6.93c-1.8 0-2.44 1.17-2.44 3.5 0 1.91.57 3.39 2.4 3.39 1.6 0 2.46-1.43 2.46-3.59 0-1.91-.72-3.3-2.42-3.3z"/><path d="m791 8c0-1.15 0-2.14 0-3.11h3.11c0 .27.09 1.39.09 2a3.66 3.66 0 0 1 3.65-2.27v3c-2.29-.06-3.65.56-3.65 3.68v5h-3.2z"/><path d="m799.75 3v-2.78h3.17v2.78zm0 1.84h3.17v11.4h-3.17z"/><path d="m805.87 7.77c0-1 0-2 0-2.89h3.06c.06.31.11 1.1.13 1.46a3.45 3.45 0 0 1 3.3-1.72c2.29 0 3.76 1.56 3.76 4.42v7.24h-3.12v-6.88c0-1.3-.42-2.23-1.83-2.23s-2.17.75-2.17 2.83v6.33h-3.17z"/><path d="m828.93 14.9c0 3.65-1.34 6-5.66 6-4.16 0-5-2.31-5.08-3.61h3.21a1.8 1.8 0 0 0 2 1.32c2.05 0 2.45-1.25 2.45-3.48v-.55a3.38 3.38 0 0 1 -3.22 1.61c-3 0-4.7-2.46-4.7-5.52 0-3.57 2.13-6 5-6 2 0 2.77.92 3 1.45 0-.31.11-1 .13-1.19h3v3.28zm-5.39-1.3c1.89 0 2.4-1.3 2.4-3.21s-.34-3.24-2.34-3.24c-1.36 0-2.44 1.06-2.44 3.35 0 1.95.99 3.1 2.38 3.1z"/><path d="m837.92 4.88h1.77v-3.08h3.14v3.08h2.25v2.38h-2.25v5.63c0 .86.27 1.19 1.21 1.19h.71v2.16a6.9 6.9 0 0 1 -2.12.22c-2.22 0-2.94-1.19-2.94-3.19v-6h-1.77z"/><path d="m850.29.22v6a3.58 3.58 0 0 1 3.25-1.63c2.12 0 3.81 1.28 3.81 4.36v7.3h-3.12v-6.81c0-1.48-.53-2.27-1.85-2.27-1.76 0-2.09 1.32-2.09 3.06v6.05h-3.17v-16.06z"/><path d="m862.81 11.27c0 1.43.72 2.81 2.29 2.81a1.82 1.82 0 0 0 2-1.21h3.14a5 5 0 0 1 -5.24 3.68c-3.76 0-5.39-2.8-5.39-5.79 0-3.59 1.82-6.14 5.5-6.14 3.89 0 5.24 2.84 5.24 5.68a5.93 5.93 0 0 1 0 1zm4.4-1.94c0-1.32-.55-2.44-2.09-2.44s-2.12 1-2.25 2.44z"/><path d="m872.62 7.83c0-1 0-2 0-2.95h3c0 .29.11.93.13 1.37a3.58 3.58 0 0 1 3.17-1.63 3 3 0 0 1 2.93 1.74 4 4 0 0 1 3.52-1.74c2 0 3.61 1.23 3.61 4.18v7.48h-3.08v-7.08c0-1-.38-2-1.68-2s-1.85.88-1.85 2.62v6.51h-3.1v-7c0-1.17-.28-2.14-1.63-2.14s-1.89.79-1.89 2.75v6.36h-3.12z"/><path d="m897.1 4.88h1.76v-3.08h3.14v3.08h2.25v2.38h-2.25v5.63c0 .86.26 1.19 1.21 1.19h.71v2.16a6.9 6.9 0 0 1 -2.12.22c-2.22 0-2.95-1.19-2.95-3.19v-6h-1.75z"/><path d="m916.47 10.56c0 3.46-2.07 6-5.68 6s-5.59-2.56-5.59-5.93 2.13-6 5.74-6c3.35-.01 5.53 2.37 5.53 5.93zm-8.08 0c0 2.2 1 3.5 2.46 3.5s2.42-1.3 2.42-3.47c0-2.38-.87-3.5-2.46-3.5s-2.42 1.1-2.42 3.49z"/><path d="m925.48 16.28v-16.06h3.17v16.06z"/><path d="m932.46 3v-2.78h3.17v2.78zm0 1.84h3.17v11.4h-3.17z"/><path d="m939.87 16.28v-9h-1.67v-2.4h1.67v-1c0-2.34 1.13-3.88 3.63-3.88a6.35 6.35 0 0 1 1.5.13v2.49a5.76 5.76 0 0 0 -.66-.05c-.92 0-1.27.33-1.27 1.57v.74h2v2.38h-2v9z"/><path d="m949.73 11.27c0 1.43.72 2.81 2.29 2.81a1.82 1.82 0 0 0 2-1.21h3.14a5 5 0 0 1 -5.16 3.68c-3.76 0-5.39-2.8-5.39-5.79 0-3.59 1.83-6.14 5.5-6.14 3.89 0 5.24 2.84 5.24 5.68a5.93 5.93 0 0 1 0 1zm4.4-1.94c0-1.32-.55-2.44-2.09-2.44s-2.11 1-2.25 2.44z"/><path d="m1 50.22h3.2v5.87a3.59 3.59 0 0 1 3.26-1.47c3.1 0 4.64 2.57 4.64 5.77s-1.67 6.16-4.95 6.16c-1.69 0-2.44-.51-3-1.35a5.51 5.51 0 0 1 -.15 1.08h-3c0-1.23 0-2.48 0-3.72zm5.46 6.93c-1.8 0-2.44 1.17-2.44 3.5 0 1.91.57 3.39 2.4 3.39 1.6 0 2.46-1.43 2.46-3.59.03-1.91-.69-3.3-2.39-3.3z"/><path d="m16.46 54.88c1.16 3.94 2.2 7.44 2.37 8.5.25-1.15.93-3.7 2.27-8.5h3.15l-3.81 11.73c-1.08 3.28-2 4.25-4.73 4.25a13.32 13.32 0 0 1 -1.48-.09v-2.53h.82a2 2 0 0 0 2.18-1.65l-4.16-11.71z"/><path d="m33.62 54.88c1 4.58 1.58 7.18 1.8 8.61.25-1.28.58-3.06 2-8.61h2.93c1.28 5.62 1.67 7.27 1.83 8.48.24-1.17.59-2.86 1.91-8.48h3.13l-3.39 11.4h-3.35c-.94-4.31-1.47-6.6-1.74-8.09-.18 1.43-.79 4-1.8 8.09h-3.41l-3.24-11.4z"/><path d="m52.29 50.22v6a3.6 3.6 0 0 1 3.26-1.63c2.11 0 3.81 1.28 3.81 4.36v7.3h-3.13v-6.81c0-1.48-.52-2.27-1.85-2.27-1.76 0-2.09 1.32-2.09 3.06v6.05h-3.16v-16.06z"/><path d="m71.76 63.33a24.1 24.1 0 0 0 .16 3h-3a4.81 4.81 0 0 1 -.15-1.12c-.42.64-1.19 1.39-3.21 1.39-2.75 0-3.9-1.81-3.9-3.57 0-2.59 2.07-3.8 5.42-3.8h1.62v-.69c0-.81-.28-1.6-1.76-1.6-1.32 0-1.63.55-1.76 1.38h-3c.16-2 1.41-3.65 4.89-3.65 3 0 4.7 1.21 4.7 3.94zm-3.08-2.24h-1.27c-1.92 0-2.62.59-2.62 1.69a1.47 1.47 0 0 0 1.65 1.52c2 0 2.24-1.41 2.24-2.9z"/><path d="m73.61 54.88h1.76v-3.08h3.15v3.08h2.24v2.38h-2.24v5.63c0 .86.26 1.19 1.21 1.19h.7v2.16a6.8 6.8 0 0 1 -2.11.22c-2.22 0-2.95-1.19-2.95-3.19v-6h-1.76z"/><path d="m85.31 61.27c0 1.43.73 2.81 2.29 2.81a1.81 1.81 0 0 0 2-1.21h3.15a5 5 0 0 1 -5.21 3.68c-3.77 0-5.39-2.8-5.39-5.79 0-3.59 1.82-6.14 5.5-6.14 3.89 0 5.23 2.84 5.23 5.68a7.4 7.4 0 0 1 0 1zm4.4-1.94c0-1.32-.54-2.44-2.09-2.44s-2.11 1-2.24 2.44z"/><path d="m97.26 54.88c1.08 3.88 2 7.24 2.2 8.61.33-1.87 1.43-5.3 2.42-8.61h3.15l-4 11.4h-3.3l-3.87-11.4z"/><path d="m109.21 61.27c0 1.43.72 2.81 2.29 2.81a1.82 1.82 0 0 0 2-1.21h3.14a5 5 0 0 1 -5.21 3.68c-3.76 0-5.39-2.8-5.39-5.79 0-3.59 1.82-6.14 5.5-6.14 3.89 0 5.24 2.84 5.24 5.68a5.93 5.93 0 0 1 0 1zm4.4-1.94c0-1.32-.55-2.44-2.09-2.44s-2.12 1-2.25 2.44z"/><path d="m119 58c0-1.15 0-2.14 0-3.11h3.1c0 .27.09 1.39.09 2a3.66 3.66 0 0 1 3.65-2.27v3c-2.29-.06-3.65.56-3.65 3.68v5h-3.19z"/><path d="m133.23 57.83c0-1 0-2 0-2.95h3c.05.29.11.93.13 1.37a3.59 3.59 0 0 1 3.17-1.63 3 3 0 0 1 2.93 1.74 4 4 0 0 1 3.54-1.74c2 0 3.61 1.23 3.61 4.18v7.48h-3.11v-7.08c0-1-.38-2.05-1.67-2.05s-1.83.85-1.83 2.62v6.51h-3.1v-7c0-1.17-.29-2.14-1.63-2.14s-1.9.79-1.9 2.75v6.36h-3.12z"/><path d="m155 61.27c0 1.43.73 2.81 2.29 2.81a1.82 1.82 0 0 0 2-1.21h3.15a5 5 0 0 1 -5.22 3.68c-3.76 0-5.39-2.8-5.39-5.79 0-3.59 1.83-6.14 5.5-6.14 3.9 0 5.24 2.84 5.24 5.68a7.4 7.4 0 0 1 0 1zm4.4-1.94c0-1.32-.55-2.44-2.09-2.44s-2.11 1-2.24 2.44z"/><path d="m174.28 63.33a24.1 24.1 0 0 0 .16 3h-3a4.33 4.33 0 0 1 -.15-1.12c-.42.64-1.19 1.39-3.21 1.39-2.75 0-3.9-1.81-3.9-3.57 0-2.59 2.07-3.8 5.42-3.8h1.62v-.69c0-.81-.28-1.6-1.76-1.6-1.32 0-1.63.55-1.76 1.38h-3c.15-2 1.41-3.65 4.89-3.65 3 0 4.7 1.21 4.7 3.94zm-3.08-2.24h-1.27c-1.92 0-2.62.59-2.62 1.69a1.47 1.47 0 0 0 1.69 1.52c2 0 2.24-1.41 2.24-2.9z"/><path d="m177.25 57.77c0-1 0-2 0-2.89h3.06c.06.31.11 1.1.13 1.46a3.45 3.45 0 0 1 3.3-1.72c2.29 0 3.76 1.56 3.76 4.42v7.24h-3.14v-6.88c0-1.3-.42-2.23-1.83-2.23s-2.09.75-2.09 2.78v6.33h-3.17z"/><path d="m192.72 62.85a2 2 0 0 0 2.15 1.43c1.17 0 1.59-.42 1.59-1.12s-.49-1-2.11-1.41c-3.72-.92-4.32-2.07-4.32-3.67s1.17-3.46 4.6-3.46 4.65 1.89 4.73 3.43h-3c-.11-.42-.4-1.21-1.87-1.21-1 0-1.39.46-1.39 1s.36.84 2.2 1.28c3.81.88 4.36 2.18 4.36 3.85 0 1.89-1.45 3.61-4.91 3.61s-4.88-1.68-5.14-3.7z"/><path d="m207.28 70.64v-13c0-.92 0-1.82 0-2.75h3.06c0 .31.11 1 .11 1.43a3.58 3.58 0 0 1 3.3-1.69c2.57 0 4.53 2.16 4.53 5.68 0 4-2.2 6.25-4.95 6.25a3.19 3.19 0 0 1 -2.88-1.28v5.37zm5.44-13.49c-1.79 0-2.42 1.17-2.42 3.46s.59 3.43 2.28 3.43 2.49-1.3 2.49-3.61c0-2.09-.83-3.28-2.35-3.28z"/><path d="m231.15 60.56c0 3.46-2.07 6-5.67 6s-5.59-2.53-5.59-5.92 2.13-6 5.74-6c3.37-.02 5.52 2.36 5.52 5.92zm-8.07 0c0 2.2.94 3.5 2.46 3.5s2.42-1.3 2.42-3.47c0-2.38-.88-3.5-2.46-3.5s-2.42 1.1-2.42 3.49z"/><path d="m235.75 62.85a2 2 0 0 0 2.16 1.43c1.16 0 1.58-.42 1.58-1.12s-.48-1-2.11-1.41c-3.72-.92-4.31-2.07-4.31-3.67s1.16-3.46 4.6-3.46 4.64 1.89 4.73 3.43h-3c-.11-.42-.39-1.21-1.87-1.21-1 0-1.38.46-1.38 1s.35.84 2.2 1.28c3.8.88 4.35 2.18 4.35 3.85 0 1.89-1.45 3.61-4.9 3.61s-4.89-1.68-5.15-3.7z"/><path d="m247.21 62.85a2 2 0 0 0 2.16 1.43c1.16 0 1.58-.42 1.58-1.12s-.48-1-2.11-1.41c-3.72-.92-4.31-2.07-4.31-3.67s1.16-3.46 4.6-3.46 4.64 1.89 4.73 3.43h-3c-.11-.42-.39-1.21-1.87-1.21-1 0-1.38.46-1.38 1s.35.84 2.2 1.28c3.8.88 4.35 2.18 4.35 3.85 0 1.89-1.45 3.61-4.9 3.61s-4.89-1.68-5.15-3.7z"/><path d="m256.34 53v-2.78h3.17v2.78zm0 1.84h3.17v11.4h-3.17z"/><path d="m262.43 50.22h3.17v5.87a3.59 3.59 0 0 1 3.26-1.47c3.1 0 4.64 2.57 4.64 5.77s-1.67 6.16-4.95 6.16c-1.69 0-2.44-.51-3-1.35a5.51 5.51 0 0 1 -.13 1.08h-3c0-1.23 0-2.48 0-3.72zm5.46 6.93c-1.8 0-2.44 1.17-2.44 3.5 0 1.91.57 3.39 2.4 3.39 1.6 0 2.46-1.43 2.46-3.59 0-1.91-.72-3.3-2.42-3.3z"/><path d="m275.77 66.28v-16.06h3.16v16.06z"/><path d="m284.37 61.27c0 1.43.72 2.81 2.29 2.81a1.82 1.82 0 0 0 2-1.21h3.14a5 5 0 0 1 -5.21 3.68c-3.76 0-5.39-2.8-5.39-5.79 0-3.59 1.83-6.14 5.5-6.14 3.89 0 5.24 2.84 5.24 5.68a5.93 5.93 0 0 1 -.05 1zm4.4-1.94c0-1.32-.55-2.44-2.09-2.44s-2.11 1-2.25 2.44z"/><path d="m293.85 66.28v-3.87h3.37v3.87z"/><path d="m1.43 101.12h6.62c3.68 0 5.06 1.89 5.06 3.87a3.42 3.42 0 0 1 -1.93 3.28 3.65 3.65 0 0 1 2.37 3.48c0 2.6-2 4.53-5.26 4.53h-6.86zm6.25 6c1.56 0 2.2-.71 2.2-1.79s-.84-1.67-2.09-1.67h-3.15v3.46zm-3 6.64h3c1.79 0 2.58-.75 2.58-2.11s-.79-2-2.6-2h-3.02z"/><path d="m25.46 113.33a24.7 24.7 0 0 0 .15 3h-3a4.81 4.81 0 0 1 -.15-1.12c-.42.64-1.19 1.39-3.21 1.39-2.75 0-3.9-1.81-3.9-3.57 0-2.59 2.07-3.81 5.42-3.81h1.63v-.68c0-.81-.29-1.6-1.76-1.6s-1.63.55-1.77 1.38h-3c.16-2 1.41-3.65 4.89-3.65 3 0 4.71 1.21 4.71 3.94zm-3.08-2.24h-1.28c-1.92 0-2.62.59-2.62 1.69a1.47 1.47 0 0 0 1.65 1.52c2 0 2.25-1.41 2.25-2.9z"/><path d="m30.73 112.85a2 2 0 0 0 2.16 1.43c1.17 0 1.58-.42 1.58-1.12s-.48-1-2.11-1.41c-3.72-.92-4.31-2.07-4.31-3.67s1.17-3.46 4.6-3.46 4.64 1.89 4.73 3.43h-3c-.11-.42-.4-1.21-1.87-1.21-1 0-1.39.46-1.39 1s.35.84 2.2 1.28c3.81.88 4.36 2.18 4.36 3.85 0 1.89-1.46 3.61-4.91 3.61s-4.88-1.68-5.15-3.7z"/><path d="m42.37 111.27c0 1.43.73 2.81 2.29 2.81a1.82 1.82 0 0 0 2-1.21h3.15a5 5 0 0 1 -5.22 3.68c-3.76 0-5.39-2.8-5.39-5.79 0-3.59 1.83-6.14 5.5-6.14 3.9 0 5.24 2.84 5.24 5.68a7.4 7.4 0 0 1 0 1zm4.4-1.94c0-1.32-.55-2.44-2.09-2.44s-2.11 1-2.24 2.44z"/><path d="m62.63 100.22v12.94 3.12h-3c-.06-.35-.13-.92-.15-1.19-.55.91-1.54 1.46-3.24 1.46-2.88 0-4.7-2.31-4.7-5.88s1.93-6 5.17-6c1.65 0 2.53.59 2.77 1.1v-5.5zm-5.43 13.78c2.16 0 2.42-1.81 2.42-3.44 0-2-.29-3.43-2.35-3.43-1.65 0-2.49 1.3-2.49 3.46s.86 3.41 2.42 3.41z"/><path d="m71 103v-2.82h3.17v2.82zm0 1.84h3.17v11.4h-3.17z"/><path d="m77.09 107.77c0-1 0-2 0-2.89h3.06a13.21 13.21 0 0 1 .13 1.46 3.47 3.47 0 0 1 3.31-1.72c2.28 0 3.76 1.56 3.76 4.42v7.24h-3.18v-6.88c0-1.3-.42-2.23-1.83-2.23s-2.09.75-2.09 2.78v6.33h-3.16z"/><path d="m99.09 103.81h-4.62v-2.69h12.53v2.69h-4.59v12.47h-3.32z"/><path d="m117.55 110.56c0 3.46-2.07 6-5.68 6s-5.59-2.53-5.59-5.92 2.14-6 5.74-6c3.35-.02 5.53 2.36 5.53 5.92zm-8.08 0c0 2.2 1 3.5 2.47 3.5s2.42-1.3 2.42-3.47c0-2.38-.88-3.5-2.47-3.5s-2.42 1.09-2.42 3.49z"/><path d="m123 109.7c.84-1.14 2.33-2.9 3.92-4.82h3.6l-4 4.32 4.34 7.08h-3.57l-2.88-5.06-1.41 1.41v3.65h-3.17v-16.06h3.17z"/><path d="m134.7 104.88c1.17 3.94 2.21 7.44 2.38 8.5.24-1.15.93-3.7 2.27-8.5h3.15l-3.83 11.73c-1.08 3.28-2 4.25-4.73 4.25a13.32 13.32 0 0 1 -1.48-.09v-2.53h.82c1.16 0 1.73-.39 2.17-1.65l-4.15-11.75z"/><path d="m154.75 110.56c0 3.46-2.07 6-5.68 6s-5.59-2.53-5.59-5.92 2.14-6 5.75-6c3.34-.02 5.52 2.36 5.52 5.92zm-8.08 0c0 2.2 1 3.5 2.47 3.5s2.42-1.3 2.42-3.47c0-2.38-.88-3.5-2.47-3.5s-2.42 1.09-2.42 3.49z"/><path d="m155.74 118.83a18.66 18.66 0 0 0 1.62-6.42h3.24a12.63 12.63 0 0 1 -2.42 6.42z"/><path d="m168.92 116.28v-15.16h4.08c1.89 3.39 5.39 9.55 6.09 11.2-.17-1.58-.17-4.22-.17-6.71v-4.49h3v15.16h-3.85c-1.63-3-5.5-10-6.27-11.77h-.05c.11 1.32.16 4.45.16 7.15v4.62z"/><path d="m187.75 111.27c0 1.43.72 2.81 2.28 2.81a1.83 1.83 0 0 0 2-1.21h3.14a5 5 0 0 1 -5.21 3.68c-3.76 0-5.39-2.8-5.39-5.79 0-3.59 1.82-6.14 5.5-6.14 3.89 0 5.23 2.84 5.23 5.68a7.4 7.4 0 0 1 0 1zm4.4-1.94c0-1.32-.55-2.44-2.09-2.44s-2.12 1-2.25 2.44z"/><path d="m199.85 104.88c1 4.58 1.58 7.18 1.8 8.61.25-1.28.58-3.06 2-8.61h2.93c1.28 5.62 1.67 7.27 1.83 8.48.24-1.17.59-2.86 1.91-8.48h3.13l-3.39 11.4h-3.37c-1-4.31-1.47-6.6-1.74-8.1-.18 1.44-.79 4-1.8 8.1h-3.39l-3.24-11.4z"/><path d="m224.53 116.28v-5.37a.85.85 0 0 0 -.13-.48l-5.24-9.31h3.72c1.17 2.29 2.68 5.33 3.45 7 .66-1.59 2.31-4.8 3.46-7h3.43l-5.3 9.27a.82.82 0 0 0 -.11.48v5.41z"/><path d="m245.12 110.56c0 3.46-2.07 6-5.67 6s-5.59-2.53-5.59-5.92 2.13-6 5.74-6c3.34-.02 5.52 2.36 5.52 5.92zm-8.07 0c0 2.2.94 3.5 2.46 3.5s2.42-1.3 2.42-3.47c0-2.38-.88-3.5-2.46-3.5s-2.42 1.09-2.42 3.49z"/><path d="m247.39 108c0-1.15 0-2.14 0-3.11h3.11c0 .27.09 1.39.09 2a3.66 3.66 0 0 1 3.65-2.27v3c-2.29-.06-3.65.55-3.65 3.68v5h-3.17z"/><path d="m259.33 109.7c.84-1.14 2.34-2.9 3.92-4.82h3.61l-4 4.32 4.33 7.08h-3.56l-2.88-5.06-1.46 1.41v3.65h-3.16v-16.06h3.16z"/><path d="m267.25 118.83a18.49 18.49 0 0 0 1.63-6.42h3.24a12.72 12.72 0 0 1 -2.42 6.42z"/><path d="m283.47 103.81h-4.62v-2.69h12.49v2.69h-4.59v12.47h-3.28z"/><path d="m300.34 113.33a24.1 24.1 0 0 0 .16 3h-3a4.33 4.33 0 0 1 -.15-1.12c-.42.64-1.19 1.39-3.21 1.39-2.75 0-3.9-1.81-3.9-3.57 0-2.59 2.07-3.81 5.41-3.81h1.63v-.68c0-.81-.28-1.6-1.76-1.6-1.32 0-1.63.55-1.76 1.38h-3c.15-2 1.41-3.65 4.88-3.65 3 0 4.71 1.21 4.71 3.94zm-3.08-2.24h-1.26c-1.92 0-2.62.59-2.62 1.69a1.47 1.47 0 0 0 1.62 1.52c2 0 2.24-1.41 2.24-2.9z"/><path d="m303.29 103v-2.82h3.17v2.82zm0 1.84h3.17v11.4h-3.17z"/><path d="m309.38 120.64v-13c0-.92 0-1.82 0-2.75h3.06c0 .31.11 1 .11 1.43a3.58 3.58 0 0 1 3.3-1.69c2.57 0 4.53 2.16 4.53 5.68 0 4-2.2 6.25-4.95 6.25a3.18 3.18 0 0 1 -2.88-1.28v5.37zm5.44-13.49c-1.79 0-2.42 1.17-2.42 3.46s.6 3.39 2.28 3.39 2.49-1.3 2.49-3.61c0-2.05-.84-3.24-2.35-3.24z"/><path d="m325.16 111.27c0 1.43.72 2.81 2.29 2.81a1.82 1.82 0 0 0 2-1.21h3.14a5 5 0 0 1 -5.21 3.68c-3.76 0-5.39-2.8-5.39-5.79 0-3.59 1.82-6.14 5.5-6.14 3.89 0 5.24 2.84 5.24 5.68a5.93 5.93 0 0 1 -.05 1zm4.4-1.94c0-1.32-.55-2.44-2.09-2.44s-2.12 1-2.25 2.44z"/><path d="m335 103v-2.82h3.17v2.82zm0 1.84h3.17v11.4h-3.17z"/><path d="m339.79 118.83a18.66 18.66 0 0 0 1.62-6.42h3.24a12.63 12.63 0 0 1 -2.42 6.42z"/><path d="m362 113.33a27.1 27.1 0 0 0 .15 3h-3a4.32 4.32 0 0 1 -.16-1.12c-.41.64-1.18 1.39-3.21 1.39-2.75 0-3.89-1.81-3.89-3.57 0-2.59 2.07-3.81 5.41-3.81h1.7v-.68c0-.81-.29-1.6-1.76-1.6-1.32 0-1.63.55-1.76 1.38h-3c.15-2 1.4-3.65 4.88-3.65 3 0 4.71 1.21 4.71 3.94zm-3-2.24h-1.28c-1.91 0-2.62.59-2.62 1.69a1.47 1.47 0 0 0 1.65 1.52c2 0 2.25-1.41 2.25-2.9z"/><path d="m365 107.77c0-1 0-2 0-2.89h3c.07.31.11 1.1.14 1.46a3.44 3.44 0 0 1 3.3-1.72c2.28 0 3.76 1.56 3.76 4.42v7.24h-3.15v-6.88c0-1.3-.41-2.23-1.82-2.23s-2.09.75-2.09 2.78v6.33h-3.14z"/><path d="m388.58 100.22v12.94 3.12h-3c-.07-.35-.13-.92-.15-1.19-.55.91-1.54 1.46-3.24 1.46-2.88 0-4.71-2.31-4.71-5.88s1.94-6 5.17-6c1.65 0 2.54.59 2.78 1.1v-5.5zm-5.43 13.78c2.15 0 2.42-1.81 2.42-3.44 0-2-.29-3.43-2.36-3.43-1.65 0-2.48 1.3-2.48 3.46s.86 3.41 2.42 3.41z"/><path d="m397.32 101.12h6.62c3.67 0 5.06 1.89 5.06 3.87a3.41 3.41 0 0 1 -1.94 3.28 3.65 3.65 0 0 1 2.38 3.48c0 2.6-2.05 4.53-5.26 4.53h-6.86zm6.24 6c1.57 0 2.21-.71 2.21-1.79s-.84-1.67-2.09-1.67h-3.15v3.46zm-3 6.64h3c1.78 0 2.57-.75 2.57-2.11s-.79-2-2.59-2h-3z"/><path d="m414.39 111.27c0 1.43.72 2.81 2.29 2.81a1.82 1.82 0 0 0 2-1.21h3.14a5 5 0 0 1 -5.21 3.68c-3.76 0-5.39-2.8-5.39-5.79 0-3.59 1.83-6.14 5.5-6.14 3.89 0 5.24 2.84 5.24 5.68a5.93 5.93 0 0 1 0 1zm4.4-1.94c0-1.32-.55-2.44-2.09-2.44s-2.11 1-2.25 2.44z"/><path d="m424.2 108c0-1.15 0-2.14 0-3.11h3.1c0 .27.09 1.39.09 2a3.66 3.66 0 0 1 3.65-2.27v3c-2.29-.06-3.65.55-3.65 3.68v5h-3.19z"/><path d="m433 116.28v-16.06h3.17v16.06z"/><path d="m439.07 103v-2.82h3.17v2.82zm0 1.84h3.17v11.4h-3.17z"/><path d="m445.19 107.77c0-1 0-2 0-2.89h3.06a13.21 13.21 0 0 1 .13 1.46 3.47 3.47 0 0 1 3.31-1.72c2.28 0 3.76 1.56 3.76 4.42v7.24h-3.15v-6.88c0-1.3-.42-2.23-1.83-2.23s-2.09.75-2.09 2.78v6.33h-3.16z"/><path d="m457 118.83a18.49 18.49 0 0 0 1.63-6.42h3.24a12.63 12.63 0 0 1 -2.42 6.42z"/><path d="m480.43 110.56c0 3.46-2.07 6-5.67 6s-5.59-2.53-5.59-5.92 2.13-6 5.74-6c3.34-.02 5.52 2.36 5.52 5.92zm-8.07 0c0 2.2.94 3.5 2.46 3.5s2.42-1.3 2.42-3.47c0-2.38-.88-3.5-2.46-3.5s-2.42 1.09-2.42 3.49z"/><path d="m492.73 113v3.3h-3.08c0-.31-.06-.92-.09-1.32a3.24 3.24 0 0 1 -3.14 1.59c-2.31 0-3.79-1.41-3.79-4.23v-7.44h3.15v6.8c0 1.26.39 2.29 1.76 2.29s2-.77 2-3v-6.08h3.15z"/><path d="m495.68 108c0-1.15 0-2.14 0-3.11h3.11c0 .27.09 1.39.09 2a3.66 3.66 0 0 1 3.65-2.27v3c-2.29-.06-3.65.55-3.65 3.68v5h-3.17z"/><path d="m509.89 107.83c0-1 0-2 0-3h3c0 .29.11.93.13 1.37a3.59 3.59 0 0 1 3.17-1.63 3 3 0 0 1 2.93 1.74 4 4 0 0 1 3.52-1.74c2 0 3.61 1.23 3.61 4.18v7.48h-3.08v-7.03c0-1-.38-2-1.68-2s-1.84.88-1.84 2.62v6.51h-3.11v-7c0-1.17-.28-2.14-1.62-2.14s-1.9.79-1.9 2.75v6.36h-3.12z"/><path d="m539.19 113v3.3h-3.08c0-.31-.07-.92-.09-1.32a3.25 3.25 0 0 1 -3.15 1.59c-2.31 0-3.78-1.41-3.78-4.23v-7.44h3.14v6.8c0 1.26.4 2.29 1.76 2.29s2-.77 2-3v-6.08h3.14z"/><path d="m542.14 116.28v-16.06h3.17v16.06z"/><path d="m547.13 104.88h1.76v-3.08h3.11v3.08h2.24v2.38h-2.24v5.63c0 .86.26 1.19 1.21 1.19h.7v2.16a6.8 6.8 0 0 1 -2.11.22c-2.22 0-3-1.19-3-3.19v-6h-1.76z"/><path d="m556.33 103v-2.82h3.17v2.82zm0 1.84h3.17v11.4h-3.17z"/><path d="m572.87 100.22v12.94 3.12h-3c-.06-.35-.13-.92-.15-1.19-.55.91-1.54 1.46-3.24 1.46-2.88 0-4.7-2.31-4.7-5.88s1.93-6 5.17-6c1.65 0 2.53.59 2.77 1.1v-5.5zm-5.43 13.78c2.16 0 2.42-1.81 2.42-3.44 0-2-.29-3.43-2.35-3.43-1.65 0-2.49 1.3-2.49 3.46s.86 3.41 2.42 3.41z"/><path d="m575.78 103v-2.82h3.16v2.82zm0 1.84h3.16v11.4h-3.16z"/><path d="m584.2 112.85a2 2 0 0 0 2.16 1.43c1.17 0 1.58-.42 1.58-1.12s-.48-1-2.11-1.41c-3.72-.92-4.31-2.07-4.31-3.67s1.17-3.46 4.6-3.46 4.64 1.89 4.73 3.43h-3c-.1-.42-.39-1.21-1.87-1.21-1 0-1.38.46-1.38 1s.35.84 2.2 1.28c3.81.88 4.36 2.18 4.36 3.85 0 1.89-1.46 3.61-4.91 3.61s-4.89-1.68-5.15-3.7z"/><path d="m603.19 112.61c-.37 1.89-1.72 3.94-5.1 3.94-3.55 0-5.37-2.45-5.37-5.88s2-6 5.52-6c3.83 0 4.91 2.77 5 4h-3.06a1.78 1.78 0 0 0 -2-1.56c-1.45 0-2.26 1.25-2.26 3.45 0 2.44.88 3.54 2.24 3.54a1.94 1.94 0 0 0 2-1.49z"/><path d="m605.3 103v-2.82h3.17v2.82zm0 1.84h3.17v11.4h-3.17z"/><path d="m611.39 120.64v-13c0-.92 0-1.82 0-2.75h3.06c0 .31.11 1 .11 1.43a3.59 3.59 0 0 1 3.3-1.69c2.57 0 4.53 2.16 4.53 5.68 0 4-2.2 6.25-5 6.25a3.19 3.19 0 0 1 -2.88-1.28v5.37zm5.44-13.49c-1.78 0-2.42 1.17-2.42 3.46s.59 3.39 2.29 3.39 2.48-1.3 2.48-3.61c0-2.05-.83-3.24-2.35-3.24z"/><path d="m624.66 116.28v-16.06h3.17v16.06z"/><path d="m630.75 103v-2.82h3.17v2.82zm0 1.84h3.17v11.4h-3.17z"/><path d="m636.87 107.77c0-1 0-2 0-2.89h3a13.15 13.15 0 0 1 .14 1.46 3.44 3.44 0 0 1 3.3-1.72c2.29 0 3.76 1.56 3.76 4.42v7.24h-3.07v-6.88c0-1.3-.42-2.23-1.82-2.23s-2.18.75-2.18 2.83v6.33h-3.17z"/><path d="m659.46 113.33a24.1 24.1 0 0 0 .16 3h-3a4.33 4.33 0 0 1 -.15-1.12c-.42.64-1.19 1.39-3.21 1.39-2.75 0-3.9-1.81-3.9-3.57 0-2.59 2.07-3.81 5.41-3.81h1.63v-.68c0-.81-.28-1.6-1.76-1.6-1.32 0-1.63.55-1.76 1.38h-3c.15-2 1.41-3.65 4.88-3.65 3 0 4.71 1.21 4.71 3.94zm-3.08-2.24h-1.27c-1.92 0-2.62.59-2.62 1.69a1.47 1.47 0 0 0 1.65 1.52c2 0 2.24-1.41 2.24-2.9z"/><path d="m662.41 108c0-1.15 0-2.14 0-3.11h3.1c0 .27.09 1.39.09 2a3.66 3.66 0 0 1 3.65-2.27v3c-2.29-.06-3.65.55-3.65 3.68v5h-3.17z"/><path d="m673.28 104.88c1.16 3.94 2.2 7.44 2.37 8.5.24-1.15.92-3.7 2.26-8.5h3.15l-3.83 11.73c-1.08 3.28-2 4.25-4.73 4.25a13.16 13.16 0 0 1 -1.47-.09v-2.53h.81a2 2 0 0 0 2.18-1.65l-4.16-11.75z"/><path d="m687.05 104.88h1.76v-3.08h3.19v3.08h2.24v2.38h-2.24v5.63c0 .86.26 1.19 1.21 1.19h.7v2.16a6.83 6.83 0 0 1 -2.11.22c-2.22 0-3-1.19-3-3.19v-6h-1.76z"/><path d="m698.75 111.27c0 1.43.73 2.81 2.29 2.81a1.81 1.81 0 0 0 2-1.21h3.15a5 5 0 0 1 -5.21 3.68c-3.77 0-5.39-2.8-5.39-5.79 0-3.59 1.82-6.14 5.5-6.14 3.89 0 5.23 2.84 5.23 5.68a7.4 7.4 0 0 1 0 1zm4.4-1.94c0-1.32-.55-2.44-2.09-2.44s-2.11 1-2.24 2.44z"/><path d="m718 113.33a24.7 24.7 0 0 0 .15 3h-3a4.32 4.32 0 0 1 -.16-1.12c-.42.64-1.19 1.39-3.21 1.39-2.75 0-3.9-1.81-3.9-3.57 0-2.59 2.07-3.81 5.42-3.81h1.7v-.68c0-.81-.29-1.6-1.76-1.6s-1.63.55-1.76 1.38h-3c.16-2 1.41-3.65 4.89-3.65 3 0 4.71 1.21 4.71 3.94zm-3-2.24h-1.28c-1.91 0-2.62.59-2.62 1.69a1.47 1.47 0 0 0 1.65 1.52c2 0 2.25-1.41 2.25-2.9z"/><path d="m721 107.83c0-1 0-2 0-3h3c0 .29.11.93.13 1.37a3.56 3.56 0 0 1 3.17-1.63 3 3 0 0 1 2.92 1.74 4 4 0 0 1 3.52-1.74c2 0 3.61 1.23 3.61 4.18v7.48h-3.08v-7.03c0-1-.37-2-1.67-2s-1.85.88-1.85 2.62v6.51h-3.1v-7c0-1.17-.29-2.14-1.63-2.14s-1.89.79-1.89 2.75v6.36h-3.13z"/><path d="m755.14 113.33a27.1 27.1 0 0 0 .15 3h-3a4.33 4.33 0 0 1 -.15-1.12c-.42.64-1.19 1.39-3.22 1.39-2.75 0-3.89-1.81-3.89-3.57 0-2.59 2.07-3.81 5.41-3.81h1.63v-.68c0-.81-.29-1.6-1.76-1.6-1.32 0-1.63.55-1.76 1.38h-3c.15-2 1.41-3.65 4.88-3.65 3 0 4.71 1.21 4.71 3.94zm-3.08-2.24h-1.28c-1.91 0-2.61.59-2.61 1.69a1.47 1.47 0 0 0 1.65 1.52c2 0 2.24-1.41 2.24-2.9z"/><path d="m758.09 116.28v-16.06h3.17v16.06z"/><path d="m764.18 116.28v-16.06h3.17v16.06z"/><path d="m780.88 110.56c0 3.46-2.07 6-5.68 6s-5.59-2.53-5.59-5.92 2.14-6 5.75-6c3.34-.02 5.52 2.36 5.52 5.92zm-8.08 0c0 2.2 1 3.5 2.47 3.5s2.42-1.3 2.42-3.47c0-2.38-.88-3.5-2.46-3.5s-2.43 1.09-2.43 3.49z"/><path d="m785.43 104.88c1 4.58 1.59 7.18 1.81 8.61.24-1.28.57-3.06 2-8.61h2.93c1.27 5.62 1.67 7.27 1.82 8.48.25-1.17.6-2.86 1.92-8.48h3.12l-3.39 11.4h-3.34c-.95-4.31-1.48-6.6-1.74-8.1-.18 1.44-.8 4-1.81 8.1h-3.39l-3.23-11.4z"/><path d="m803.27 112.85a2 2 0 0 0 2.16 1.43c1.17 0 1.58-.42 1.58-1.12s-.48-1-2.11-1.41c-3.72-.92-4.31-2.07-4.31-3.67s1.17-3.46 4.6-3.46 4.64 1.89 4.73 3.43h-3c-.11-.42-.4-1.21-1.87-1.21-1 0-1.39.46-1.39 1s.35.84 2.2 1.28c3.81.88 4.36 2.18 4.36 3.85 0 1.89-1.46 3.61-4.91 3.61s-4.88-1.68-5.15-3.7z"/><path d="m827.87 113v3.3h-3.08c0-.31-.06-.92-.09-1.32a3.24 3.24 0 0 1 -3.14 1.59c-2.31 0-3.79-1.41-3.79-4.23v-7.44h3.15v6.8c0 1.26.4 2.29 1.76 2.29s2-.77 2-3v-6.08h3.15z"/><path d="m833.15 112.85a2 2 0 0 0 2.16 1.43c1.16 0 1.58-.42 1.58-1.12s-.48-1-2.11-1.41c-3.72-.92-4.32-2.07-4.32-3.67s1.17-3.46 4.6-3.46 4.65 1.89 4.73 3.43h-3c-.11-.42-.39-1.21-1.87-1.21-1 0-1.38.46-1.38 1s.35.84 2.2 1.28c3.8.88 4.35 2.18 4.35 3.85 0 1.89-1.45 3.61-4.9 3.61s-4.89-1.68-5.15-3.7z"/><path d="m846.61 104.88h1.76v-3.08h3.15v3.08h2.24v2.38h-2.24v5.63c0 .86.26 1.19 1.21 1.19h.7v2.16a6.8 6.8 0 0 1 -2.11.22c-2.22 0-3-1.19-3-3.19v-6h-1.76z"/><path d="m866.41 110.56c0 3.46-2.06 6-5.67 6s-5.59-2.53-5.59-5.92 2.13-6 5.74-6c3.34-.02 5.52 2.36 5.52 5.92zm-8.07 0c0 2.2.94 3.5 2.46 3.5s2.42-1.3 2.42-3.47c0-2.38-.88-3.5-2.46-3.5s-2.42 1.09-2.42 3.49z"/><path d="m874.11 120.64v-13c0-.92 0-1.82 0-2.75h3.06c0 .31.11 1 .11 1.43a3.59 3.59 0 0 1 3.3-1.69c2.57 0 4.53 2.16 4.53 5.68 0 4-2.2 6.25-5 6.25a3.19 3.19 0 0 1 -2.88-1.28v5.37zm5.44-13.49c-1.78 0-2.42 1.17-2.42 3.46s.59 3.43 2.29 3.43 2.48-1.3 2.48-3.61c0-2.09-.83-3.28-2.35-3.28z"/><path d="m887.38 108c0-1.15 0-2.14 0-3.11h3.1c0 .27.09 1.39.09 2a3.66 3.66 0 0 1 3.65-2.27v3c-2.29-.06-3.65.55-3.65 3.68v5h-3.17z"/><path d="m906.76 110.56c0 3.46-2.07 6-5.67 6s-5.59-2.53-5.59-5.92 2.13-6 5.74-6c3.34-.02 5.52 2.36 5.52 5.92zm-8.07 0c0 2.2.94 3.5 2.46 3.5s2.42-1.3 2.42-3.47c0-2.38-.88-3.5-2.46-3.5s-2.42 1.09-2.42 3.49z"/><path d="m919.48 100.22v12.94 3.12h-3c-.06-.35-.13-.92-.15-1.19a3.41 3.41 0 0 1 -3.23 1.46c-2.89 0-4.71-2.31-4.71-5.88s1.93-6 5.17-6c1.65 0 2.53.59 2.77 1.1v-5.5zm-5.48 13.78c2.16 0 2.42-1.81 2.42-3.44 0-2-.28-3.43-2.35-3.43-1.65 0-2.49 1.3-2.49 3.46s.9 3.41 2.42 3.41z"/><path d="m932.41 113v3.3h-3.09c0-.31-.06-.92-.08-1.32a3.25 3.25 0 0 1 -3.15 1.59c-2.31 0-3.78-1.41-3.78-4.23v-7.44h3.14v6.8c0 1.26.4 2.29 1.76 2.29s2-.77 2-3v-6.08h3.14z"/><path d="m945.22 112.61c-.38 1.89-1.72 3.94-5.11 3.94s-5.37-2.45-5.37-5.88 2-6 5.53-6c3.83 0 4.9 2.77 5 4h-3.06a1.79 1.79 0 0 0 -2-1.56c-1.45 0-2.26 1.25-2.26 3.45 0 2.44.87 3.54 2.24 3.54a1.94 1.94 0 0 0 2-1.49z"/><path d="m949.84 111.27c0 1.43.72 2.81 2.28 2.81a1.83 1.83 0 0 0 2-1.21h3.14a5 5 0 0 1 -5.21 3.68c-3.76 0-5.39-2.8-5.39-5.79 0-3.59 1.82-6.14 5.5-6.14 3.89 0 5.23 2.84 5.23 5.68a7.4 7.4 0 0 1 0 1zm4.4-1.94c0-1.32-.55-2.44-2.09-2.44s-2.12 1-2.25 2.44z"/><path d="m1 153v-2.82h3.2v2.82zm0 1.84h3.2v11.4h-3.2z"/><path d="m7.15 157.77c0-1 0-2 0-2.89h3.06c.06.31.11 1.1.13 1.46a3.45 3.45 0 0 1 3.3-1.72c2.29 0 3.76 1.56 3.76 4.42v7.24h-3.16v-6.88c0-1.3-.42-2.23-1.83-2.23s-2.09.75-2.09 2.78v6.33h-3.17z"/><path d="m20.31 157.77c0-1 0-2 0-2.89h3.06a13.21 13.21 0 0 1 .13 1.46 3.47 3.47 0 0 1 3.3-1.72c2.29 0 3.77 1.56 3.77 4.42v7.24h-3.18v-6.88c0-1.3-.42-2.23-1.83-2.23s-2.09.75-2.09 2.78v6.33h-3.16z"/><path d="m44 160.56c0 3.46-2.06 6-5.67 6s-5.59-2.53-5.59-5.92 2.13-6 5.74-6c3.39-.02 5.52 2.36 5.52 5.92zm-8.07 0c0 2.2 1 3.5 2.46 3.5s2.42-1.3 2.42-3.47c0-2.38-.88-3.5-2.46-3.5s-2.35 1.09-2.35 3.49z"/><path d="m48.44 154.88c1.08 3.88 2 7.24 2.2 8.61.33-1.87 1.43-5.31 2.42-8.61h3.14l-4 11.4h-3.3l-3.9-11.4z"/><path d="m67.34 163.33a24.1 24.1 0 0 0 .16 2.95h-3a4.33 4.33 0 0 1 -.15-1.12c-.42.64-1.19 1.39-3.21 1.39-2.75 0-3.9-1.81-3.9-3.57 0-2.59 2.07-3.81 5.41-3.81h1.63v-.68c0-.81-.28-1.6-1.76-1.6-1.32 0-1.63.55-1.76 1.38h-3c.15-2 1.41-3.65 4.88-3.65 3 0 4.71 1.21 4.71 3.94zm-3.08-2.24h-1.26c-1.92 0-2.62.59-2.62 1.69a1.47 1.47 0 0 0 1.62 1.52c2 0 2.24-1.41 2.24-2.9z"/><path d="m69.19 154.88h1.81v-3.08h3.1v3.08h2.24v2.38h-2.24v5.63c0 .86.26 1.19 1.21 1.19h.7v2.16a6.83 6.83 0 0 1 -2.11.22c-2.23 0-3-1.19-3-3.19v-6h-1.71z"/><path d="m78.38 153v-2.82h3.17v2.82zm0 1.84h3.17v11.4h-3.17z"/><path d="m87.49 154.88c1.08 3.88 2 7.24 2.2 8.61.33-1.87 1.43-5.31 2.42-8.61h3.15l-4 11.4h-3.26l-3.87-11.4z"/><path d="m99.44 161.27c0 1.43.72 2.81 2.29 2.81a1.82 1.82 0 0 0 2-1.21h3.15a5 5 0 0 1 -5.22 3.68c-3.76 0-5.39-2.8-5.39-5.79 0-3.59 1.83-6.14 5.5-6.14 3.9 0 5.24 2.84 5.24 5.68a5.93 5.93 0 0 1 -.05 1zm4.4-1.94c0-1.32-.55-2.44-2.09-2.44s-2.11 1-2.25 2.44z"/><path d="m118.29 154.88c1 4.58 1.59 7.18 1.81 8.61.24-1.28.57-3.06 2-8.61h2.9c1.27 5.62 1.67 7.27 1.82 8.48.25-1.17.6-2.86 1.92-8.48h3.12l-3.39 11.4h-3.36c-1-4.31-1.48-6.6-1.74-8.1-.18 1.44-.8 4-1.81 8.1h-3.36l-3.2-11.4z"/><path d="m144.41 160.56c0 3.46-2.07 6-5.68 6s-5.59-2.53-5.59-5.92 2.14-6 5.74-6c3.35-.02 5.53 2.36 5.53 5.92zm-8.08 0c0 2.2.95 3.5 2.47 3.5s2.42-1.3 2.42-3.47c0-2.38-.88-3.5-2.47-3.5s-2.42 1.09-2.42 3.49z"/><path d="m146.67 158c0-1.15 0-2.14 0-3.11h3.1c0 .27.09 1.39.09 2a3.67 3.67 0 0 1 3.65-2.27v3c-2.29-.06-3.65.55-3.65 3.68v5h-3.17z"/><path d="m158.62 159.7c.83-1.14 2.33-2.9 3.91-4.82h3.61l-4 4.32 4.34 7.08h-3.48l-2.88-5.06-1.45 1.41v3.65h-3.17v-16.06h3.17z"/><path d="m173.69 153v-2.82h3.17v2.82zm0 1.84h3.17v11.4h-3.17z"/><path d="m180.24 157.77c0-1 0-2 0-2.89h3.06c.06.31.11 1.1.13 1.46a3.47 3.47 0 0 1 3.3-1.72c2.29 0 3.76 1.56 3.76 4.42v7.24h-3.14v-6.88c0-1.3-.42-2.23-1.83-2.23s-2.09.75-2.09 2.78v6.33h-3.17z"/><path d="m203.15 154.88c1.07 3.88 2 7.24 2.2 8.61.33-1.87 1.43-5.31 2.42-8.61h3.14l-4 11.4h-3.3l-3.88-11.4z"/><path d="m222.48 163.33a24.1 24.1 0 0 0 .16 2.95h-3a4.81 4.81 0 0 1 -.15-1.12c-.42.64-1.19 1.39-3.21 1.39-2.75 0-3.9-1.81-3.9-3.57 0-2.59 2.07-3.81 5.42-3.81h1.62v-.68c0-.81-.28-1.6-1.76-1.6-1.32 0-1.63.55-1.76 1.38h-3c.15-2 1.41-3.65 4.89-3.65 3 0 4.7 1.21 4.7 3.94zm-3.08-2.24h-1.27c-1.92 0-2.62.59-2.62 1.69a1.47 1.47 0 0 0 1.65 1.52c2 0 2.24-1.41 2.24-2.9z"/><path d="m225.43 158c0-1.15 0-2.14 0-3.11h3.1c0 .27.09 1.39.09 2a3.67 3.67 0 0 1 3.65-2.27v3c-2.29-.06-3.65.55-3.65 3.68v5h-3.17z"/><path d="m234.65 153v-2.82h3.17v2.82zm0 1.84h3.17v11.4h-3.17z"/><path d="m251.79 160.56c0 3.46-2.07 6-5.68 6s-5.59-2.53-5.59-5.92 2.14-6 5.74-6c3.35-.02 5.53 2.36 5.53 5.92zm-8.08 0c0 2.2.95 3.5 2.47 3.5s2.42-1.3 2.42-3.47c0-2.38-.88-3.5-2.47-3.5s-2.42 1.09-2.42 3.49z"/><path d="m264.08 163v3.3h-3.08c0-.31-.07-.92-.09-1.32a3.25 3.25 0 0 1 -3.15 1.59c-2.31 0-3.78-1.41-3.78-4.23v-7.44h3.14v6.8c0 1.26.4 2.29 1.76 2.29s2-.77 2-3v-6.08h3.14z"/><path d="m269.36 162.85a2 2 0 0 0 2.16 1.43c1.17 0 1.58-.42 1.58-1.12s-.48-1-2.11-1.41c-3.72-.92-4.31-2.07-4.31-3.67s1.17-3.46 4.6-3.46 4.64 1.89 4.73 3.43h-3c-.11-.42-.4-1.21-1.87-1.21-1 0-1.39.46-1.39 1s.35.84 2.2 1.28c3.81.88 4.36 2.18 4.36 3.85 0 1.89-1.46 3.61-4.91 3.61s-4.88-1.68-5.15-3.7z"/><path d="m295.1 162.61c-.37 1.89-1.71 3.94-5.1 3.94-3.54 0-5.37-2.45-5.37-5.88s2.05-6 5.52-6c3.83 0 4.91 2.77 5 4h-3.05a1.79 1.79 0 0 0 -2-1.56c-1.45 0-2.27 1.25-2.27 3.45 0 2.44.88 3.54 2.25 3.54a1.92 1.92 0 0 0 1.95-1.49z"/><path d="m297.66 158c0-1.15 0-2.14 0-3.11h3.11c0 .27.08 1.39.08 2a3.68 3.68 0 0 1 3.66-2.27v3c-2.29-.06-3.66.55-3.66 3.68v5h-3.16z"/><path d="m308.94 161.27c0 1.43.73 2.81 2.29 2.81a1.82 1.82 0 0 0 2-1.21h3.15a5 5 0 0 1 -5.22 3.68c-3.76 0-5.39-2.8-5.39-5.79 0-3.59 1.83-6.14 5.5-6.14 3.9 0 5.24 2.84 5.24 5.68a7.4 7.4 0 0 1 0 1zm4.4-1.94c0-1.32-.55-2.44-2.09-2.44s-2.11 1-2.24 2.44z"/><path d="m328.65 163.33a24.1 24.1 0 0 0 .16 2.95h-3a4.81 4.81 0 0 1 -.15-1.12c-.42.64-1.19 1.39-3.21 1.39-2.75 0-3.9-1.81-3.9-3.57 0-2.59 2.07-3.81 5.42-3.81h1.62v-.68c0-.81-.28-1.6-1.76-1.6-1.32 0-1.63.55-1.76 1.38h-3c.15-2 1.41-3.65 4.89-3.65 3 0 4.7 1.21 4.7 3.94zm-3.08-2.24h-1.27c-1.92 0-2.62.59-2.62 1.69a1.47 1.47 0 0 0 1.65 1.52c2 0 2.24-1.41 2.24-2.9z"/><path d="m330.5 154.88h1.76v-3.08h3.15v3.08h2.24v2.38h-2.24v5.63c0 .86.26 1.19 1.21 1.19h.7v2.16a6.8 6.8 0 0 1 -2.11.22c-2.22 0-2.95-1.19-2.95-3.19v-6h-1.76z"/><path d="m340.14 153v-2.82h3.16v2.82zm0 1.84h3.16v11.4h-3.16z"/><path d="m348.8 154.88c1.08 3.88 2 7.24 2.2 8.61.33-1.87 1.43-5.31 2.42-8.61h3.14l-4 11.4h-3.3l-3.88-11.4z"/><path d="m360.75 161.27c0 1.43.73 2.81 2.29 2.81a1.82 1.82 0 0 0 2-1.21h3.15a5 5 0 0 1 -5.22 3.68c-3.76 0-5.39-2.8-5.39-5.79 0-3.59 1.83-6.14 5.5-6.14 3.9 0 5.24 2.84 5.24 5.68a5.93 5.93 0 0 1 -.05 1zm4.4-1.94c0-1.32-.55-2.44-2.09-2.44s-2.11 1-2.24 2.44z"/><path d="m377.32 166.28v-9h-1.68v-2.38h1.68v-1c0-2.35 1.16-3.89 3.63-3.89a6.47 6.47 0 0 1 1.45.13v2.49a6 6 0 0 0 -.66-.05c-.93 0-1.28.33-1.28 1.57v.74h2v2.38h-2v9z"/><path d="m384.66 153v-2.82h3.17v2.82zm0 1.84h3.17v11.4h-3.17z"/><path d="m393.71 161.27c0 1.43.72 2.81 2.28 2.81a1.83 1.83 0 0 0 2-1.21h3.14a5 5 0 0 1 -5.21 3.68c-3.76 0-5.39-2.8-5.39-5.79 0-3.59 1.82-6.14 5.5-6.14 3.89 0 5.23 2.84 5.23 5.68a7.4 7.4 0 0 1 0 1zm4.4-1.94c0-1.32-.55-2.44-2.09-2.44s-2.12 1-2.25 2.44z"/><path d="m404 166.28v-16.06h3.17v16.06z"/><path d="m420.5 150.22v12.94 3.12h-3c-.07-.35-.13-.92-.15-1.19-.55.91-1.54 1.46-3.24 1.46-2.88 0-4.71-2.31-4.71-5.88s1.94-6 5.17-6c1.65 0 2.53.59 2.78 1.1v-5.5zm-5.43 13.78c2.15 0 2.42-1.81 2.42-3.44 0-2-.29-3.43-2.36-3.43-1.65 0-2.48 1.3-2.48 3.46s.86 3.41 2.42 3.41z"/><path d="m425.74 162.85a2 2 0 0 0 2.15 1.43c1.17 0 1.59-.42 1.59-1.12s-.49-1-2.11-1.41c-3.72-.92-4.32-2.07-4.32-3.67s1.17-3.46 4.6-3.46 4.64 1.89 4.73 3.43h-3c-.11-.42-.4-1.21-1.87-1.21-1 0-1.39.46-1.39 1s.35.84 2.2 1.28c3.81.88 4.36 2.18 4.36 3.85 0 1.89-1.45 3.61-4.91 3.61s-4.88-1.68-5.15-3.7z"/><path d="m444.39 162.85a2 2 0 0 0 2.16 1.43c1.17 0 1.58-.42 1.58-1.12s-.48-1-2.11-1.41c-3.72-.92-4.31-2.07-4.31-3.67s1.17-3.46 4.6-3.46 4.64 1.89 4.73 3.43h-3c-.11-.42-.4-1.21-1.87-1.21-1 0-1.39.46-1.39 1s.35.84 2.2 1.28c3.81.88 4.36 2.18 4.36 3.85 0 1.89-1.46 3.61-4.91 3.61s-4.88-1.68-5.15-3.7z"/><path d="m463.56 163v3.3h-3.06c-.05-.31-.07-.92-.09-1.32a3.25 3.25 0 0 1 -3.15 1.59c-2.31 0-3.78-1.41-3.78-4.23v-7.44h3.15v6.8c0 1.26.39 2.29 1.76 2.29s2-.77 2-3v-6.08h3.15z"/><path d="m476.36 162.61c-.37 1.89-1.72 3.94-5.1 3.94-3.55 0-5.37-2.45-5.37-5.88s2-6 5.52-6c3.83 0 4.91 2.77 4.95 4h-3.06a1.78 1.78 0 0 0 -2-1.56c-1.45 0-2.26 1.25-2.26 3.45 0 2.44.88 3.54 2.24 3.54a1.94 1.94 0 0 0 2-1.49z"/><path d="m481.64 150.22v6a3.59 3.59 0 0 1 3.26-1.63c2.11 0 3.8 1.28 3.8 4.36v7.3h-3.12v-6.84c0-1.48-.53-2.27-1.85-2.27-1.76 0-2.09 1.32-2.09 3.06v6.05h-3.17v-16.03z"/><path d="m507 163.33a24.1 24.1 0 0 0 .16 2.95h-3a4.33 4.33 0 0 1 -.15-1.12c-.42.64-1.19 1.39-3.21 1.39-2.75 0-3.9-1.81-3.9-3.57 0-2.59 2.07-3.81 5.41-3.81h1.63v-.68c0-.81-.28-1.6-1.76-1.6-1.32 0-1.63.55-1.76 1.38h-3c.15-2 1.41-3.65 4.88-3.65 3 0 4.71 1.21 4.71 3.94zm-3.08-2.24h-1.27c-1.92 0-2.62.59-2.62 1.69a1.47 1.47 0 0 0 1.65 1.52c2 0 2.24-1.41 2.24-2.9z"/><path d="m512.26 162.85a2 2 0 0 0 2.16 1.43c1.16 0 1.58-.42 1.58-1.12s-.48-1-2.11-1.41c-3.72-.92-4.31-2.07-4.31-3.67s1.16-3.46 4.6-3.46 4.64 1.89 4.73 3.43h-3c-.11-.42-.39-1.21-1.87-1.21-1 0-1.38.46-1.38 1s.35.84 2.2 1.28c3.8.88 4.35 2.18 4.35 3.85 0 1.89-1.45 3.61-4.9 3.61s-4.89-1.68-5.15-3.7z"/><path d="m536.73 163.33a24.7 24.7 0 0 0 .15 2.95h-3a4.32 4.32 0 0 1 -.16-1.12c-.42.64-1.19 1.39-3.21 1.39-2.75 0-3.9-1.81-3.9-3.57 0-2.59 2.07-3.81 5.42-3.81h1.63v-.68c0-.81-.29-1.6-1.76-1.6-1.32 0-1.63.55-1.76 1.38h-3c.16-2 1.41-3.65 4.89-3.65 3 0 4.71 1.21 4.71 3.94zm-3.08-2.24h-1.28c-1.91 0-2.62.59-2.62 1.69a1.47 1.47 0 0 0 1.65 1.52c2 0 2.25-1.41 2.25-2.9z"/><path d="m550.12 150.22v12.94 3.12h-3c-.06-.35-.13-.92-.15-1.19-.55.91-1.54 1.46-3.24 1.46-2.88 0-4.7-2.31-4.7-5.88s1.93-6 5.17-6c1.65 0 2.53.59 2.77 1.1v-5.5zm-5.43 13.78c2.16 0 2.42-1.81 2.42-3.44 0-2-.29-3.43-2.35-3.43-1.65 0-2.49 1.3-2.49 3.46s.86 3.41 2.42 3.41z"/><path d="m555.16 154.88c1.08 3.88 2 7.24 2.2 8.61.33-1.87 1.43-5.31 2.42-8.61h3.22l-4 11.4h-3.3l-3.87-11.4z"/><path d="m567.11 161.27c0 1.43.72 2.81 2.29 2.81a1.82 1.82 0 0 0 2-1.21h3.14a5 5 0 0 1 -5.21 3.68c-3.76 0-5.39-2.8-5.39-5.79 0-3.59 1.83-6.14 5.5-6.14 3.89 0 5.24 2.84 5.24 5.68a5.93 5.93 0 0 1 0 1zm4.4-1.94c0-1.32-.55-2.44-2.09-2.44s-2.11 1-2.25 2.44z"/><path d="m576.92 158c0-1.15 0-2.14 0-3.11h3.08c0 .27.09 1.39.09 2a3.66 3.66 0 0 1 3.65-2.27v3c-2.29-.06-3.65.55-3.65 3.68v5h-3.17z"/><path d="m585 154.88h1.76v-3.08h3.14v3.08h2.25v2.38h-2.25v5.63c0 .86.27 1.19 1.21 1.19h.71v2.16a6.86 6.86 0 0 1 -2.11.22c-2.23 0-3-1.19-3-3.19v-6h-1.71z"/><path d="m594.67 153v-2.82h3.17v2.82zm0 1.84h3.17v11.4h-3.17z"/><path d="m603.1 162.85a2 2 0 0 0 2.15 1.43c1.17 0 1.59-.42 1.59-1.12s-.49-1-2.11-1.41c-3.72-.92-4.32-2.07-4.32-3.67s1.17-3.46 4.6-3.46 4.65 1.89 4.73 3.43h-3c-.11-.42-.4-1.21-1.87-1.21-1 0-1.39.46-1.39 1s.36.84 2.2 1.28c3.81.88 4.36 2.18 4.36 3.85 0 1.89-1.45 3.61-4.9 3.61s-4.89-1.68-5.15-3.7z"/><path d="m612.23 153v-2.82h3.17v2.82zm0 1.84h3.17v11.4h-3.17z"/><path d="m618.78 157.77c0-1 0-2 0-2.89h3.06a13.21 13.21 0 0 1 .13 1.46 3.47 3.47 0 0 1 3.3-1.72c2.29 0 3.77 1.56 3.77 4.42v7.24h-3.15v-6.88c0-1.3-.42-2.23-1.83-2.23s-2.06.75-2.06 2.83v6.33h-3.17z"/><path d="m642.28 164.9c0 3.65-1.34 6-5.65 6-4.16 0-5-2.31-5.09-3.61h3.22a1.8 1.8 0 0 0 2 1.32c2 0 2.44-1.25 2.44-3.48v-.55a3.38 3.38 0 0 1 -3.21 1.61c-3 0-4.71-2.46-4.71-5.52 0-3.57 2.13-6 5-6 2 0 2.77.92 3 1.45 0-.31.11-1 .13-1.19h3v3.28zm-5.39-1.3c1.89 0 2.4-1.3 2.4-3.21s-.33-3.24-2.33-3.24c-1.37 0-2.45 1.06-2.45 3.35 0 1.95.99 3.1 2.38 3.1z"/><path d="m661.84 163.33a27.1 27.1 0 0 0 .15 2.95h-3a4.32 4.32 0 0 1 -.16-1.12c-.41.64-1.18 1.39-3.21 1.39-2.75 0-3.89-1.81-3.89-3.57 0-2.59 2.07-3.81 5.41-3.81h1.63v-.68c0-.81-.29-1.6-1.76-1.6s-1.63.55-1.76 1.38h-3c.15-2 1.4-3.65 4.88-3.65 3 0 4.71 1.21 4.71 3.94zm-3.08-2.24h-1.28c-1.91 0-2.62.59-2.62 1.69a1.47 1.47 0 0 0 1.65 1.52c2 0 2.25-1.41 2.25-2.9z"/><path d="m664.81 157.77c0-1 0-2 0-2.89h3.06c.07.31.11 1.1.14 1.46a3.44 3.44 0 0 1 3.3-1.72c2.28 0 3.76 1.56 3.76 4.42v7.24h-3.15v-6.88c0-1.3-.42-2.23-1.82-2.23s-2.1.75-2.1 2.83v6.33h-3.17z"/><path d="m688.39 150.22v12.94 3.12h-3c-.07-.35-.13-.92-.15-1.19-.55.91-1.54 1.46-3.24 1.46-2.88 0-4.71-2.31-4.71-5.88s1.94-6 5.17-6c1.65 0 2.53.59 2.78 1.1v-5.5zm-5.39 13.78c2.15 0 2.42-1.81 2.42-3.44 0-2-.29-3.43-2.36-3.43-1.65 0-2.48 1.3-2.48 3.46s.82 3.41 2.42 3.41z"/><path d="m698.05 150.22h3.17v5.87a3.57 3.57 0 0 1 3.25-1.47c3.11 0 4.65 2.58 4.65 5.77s-1.68 6.16-5 6.16c-1.7 0-2.45-.51-3-1.35a4.84 4.84 0 0 1 -.13 1.08h-3c0-1.23 0-2.48 0-3.72zm5.46 6.93c-1.81 0-2.45 1.17-2.45 3.5 0 1.91.58 3.39 2.4 3.39 1.61 0 2.47-1.43 2.47-3.59 0-1.91-.73-3.3-2.42-3.3z"/><path d="m711.38 158c0-1.15 0-2.14 0-3.11h3.1c0 .27.09 1.39.09 2a3.67 3.67 0 0 1 3.65-2.27v3c-2.29-.06-3.65.55-3.65 3.68v5h-3.17z"/><path d="m730.06 163.33a27.1 27.1 0 0 0 .15 2.95h-3a4.33 4.33 0 0 1 -.15-1.12c-.42.64-1.19 1.39-3.22 1.39-2.75 0-3.89-1.81-3.89-3.57 0-2.59 2.07-3.81 5.41-3.81h1.64v-.68c0-.81-.29-1.6-1.76-1.6s-1.63.55-1.76 1.38h-3c.15-2 1.41-3.65 4.88-3.65 3 0 4.71 1.21 4.71 3.94zm-3.06-2.24h-1.3c-1.91 0-2.61.59-2.61 1.69a1.47 1.47 0 0 0 1.65 1.52c2 0 2.24-1.41 2.24-2.9z"/><path d="m733 157.77c0-1 0-2 0-2.89h3a13.15 13.15 0 0 1 .14 1.46 3.44 3.44 0 0 1 3.3-1.72c2.29 0 3.76 1.56 3.76 4.42v7.24h-3.15v-6.88c0-1.3-.42-2.23-1.82-2.23s-2.09.75-2.09 2.78v6.33h-3.14z"/><path d="m756.61 150.22v12.94 3.12h-3c-.06-.35-.13-.92-.15-1.19-.55.91-1.54 1.46-3.24 1.46-2.88 0-4.71-2.31-4.71-5.88s1.94-6 5.17-6c1.66 0 2.54.59 2.78 1.1v-5.5zm-5.43 13.78c2.16 0 2.42-1.81 2.42-3.44 0-2-.29-3.43-2.35-3.43-1.65 0-2.49 1.3-2.49 3.46s.86 3.41 2.42 3.41z"/><path d="m776.72 150.22v12.94 3.12h-3c-.07-.35-.13-.92-.15-1.19-.55.91-1.54 1.46-3.24 1.46-2.88 0-4.71-2.31-4.71-5.88s1.94-6 5.17-6c1.65 0 2.53.59 2.78 1.1v-5.5zm-5.43 13.78c2.15 0 2.42-1.81 2.42-3.44 0-2-.29-3.43-2.36-3.43-1.65 0-2.48 1.3-2.48 3.46s.86 3.41 2.42 3.41z"/><path d="m782.13 161.27c0 1.43.73 2.81 2.29 2.81a1.81 1.81 0 0 0 2-1.21h3.15a5 5 0 0 1 -5.21 3.68c-3.77 0-5.39-2.8-5.39-5.79 0-3.59 1.82-6.14 5.5-6.14 3.89 0 5.23 2.84 5.23 5.68a7.4 7.4 0 0 1 0 1zm4.4-1.94c0-1.32-.55-2.44-2.09-2.44s-2.11 1-2.24 2.44z"/><path d="m794.28 162.85a2 2 0 0 0 2.15 1.43c1.17 0 1.59-.42 1.59-1.12s-.49-1-2.11-1.41c-3.72-.92-4.32-2.07-4.32-3.67s1.17-3.46 4.6-3.46 4.64 1.89 4.73 3.43h-3c-.11-.42-.4-1.21-1.87-1.21-1 0-1.39.46-1.39 1s.35.84 2.2 1.28c3.81.88 4.36 2.18 4.36 3.85 0 1.89-1.45 3.61-4.91 3.61s-4.88-1.68-5.15-3.7z"/><path d="m803.41 153v-2.82h3.17v2.82zm0 1.84h3.17v11.4h-3.17z"/><path d="m819.86 164.9c0 3.65-1.34 6-5.65 6s-5-2.31-5.08-3.61h3.21a1.8 1.8 0 0 0 2 1.32c2 0 2.44-1.25 2.44-3.48v-.55a3.36 3.36 0 0 1 -3.21 1.61c-3 0-4.71-2.46-4.71-5.52 0-3.57 2.14-6 5-6 1.95 0 2.77.92 2.94 1.45 0-.31.11-1 .14-1.19h3v3.28zm-5.39-1.3c1.9 0 2.4-1.3 2.4-3.21s-.33-3.24-2.33-3.24c-1.36 0-2.44 1.06-2.44 3.35 0 1.95.99 3.1 2.37 3.1z"/><path d="m822.79 157.77c0-1 0-2 0-2.89h3.05a13.15 13.15 0 0 1 .14 1.46 3.44 3.44 0 0 1 3.3-1.72c2.29 0 3.76 1.56 3.76 4.42v7.24h-3.15v-6.88c0-1.3-.42-2.23-1.82-2.23s-2.07.75-2.07 2.83v6.33h-3.17z"/><path d="m836.41 168.83a18.66 18.66 0 0 0 1.62-6.42h3.24a12.63 12.63 0 0 1 -2.42 6.42z"/><path d="m850.29 154.88h1.76v-3.08h3.14v3.08h2.25v2.38h-2.25v5.63c0 .86.27 1.19 1.21 1.19h.71v2.16a6.83 6.83 0 0 1 -2.11.22c-2.23 0-3-1.19-3-3.19v-6h-1.76z"/><path d="m870.09 160.56c0 3.46-2.07 6-5.68 6s-5.59-2.53-5.59-5.92 2.14-6 5.75-6c3.34-.02 5.52 2.36 5.52 5.92zm-8.08 0c0 2.2 1 3.5 2.47 3.5s2.42-1.3 2.42-3.47c0-2.38-.88-3.5-2.46-3.5s-2.44 1.09-2.44 3.49z"/><path d="m888.52 162.61c-.37 1.89-1.71 3.94-5.1 3.94s-5.37-2.45-5.37-5.88 2.05-6 5.52-6c3.83 0 4.91 2.77 4.95 4h-3a1.79 1.79 0 0 0 -2-1.56c-1.45 0-2.27 1.25-2.27 3.45 0 2.44.88 3.54 2.25 3.54a1.92 1.92 0 0 0 2-1.49z"/><path d="m901.24 160.56c0 3.46-2.07 6-5.68 6s-5.56-2.56-5.56-5.93 2.13-6 5.74-6c3.32-.01 5.5 2.37 5.5 5.93zm-8.07 0c0 2.2.94 3.5 2.46 3.5s2.42-1.3 2.42-3.47c0-2.38-.88-3.5-2.46-3.5s-2.42 1.09-2.42 3.49z"/><path d="m903.53 157.77c0-1 0-2 0-2.89h3c.07.31.11 1.1.14 1.46a3.44 3.44 0 0 1 3.3-1.72c2.28 0 3.76 1.56 3.76 4.42v7.24h-3.15v-6.88c0-1.3-.42-2.23-1.82-2.23s-2.09.75-2.09 2.78v6.33h-3.17z"/><path d="m915.56 154.88h1.76v-3.08h3.15v3.08h2.24v2.38h-2.24v5.63c0 .86.26 1.19 1.21 1.19h.7v2.16a6.8 6.8 0 0 1 -2.11.22c-2.22 0-2.95-1.19-2.95-3.19v-6h-1.76z"/><path d="m927.27 161.27c0 1.43.72 2.81 2.28 2.81a1.83 1.83 0 0 0 2-1.21h3.14a5 5 0 0 1 -5.21 3.68c-3.77 0-5.39-2.8-5.39-5.79 0-3.59 1.82-6.14 5.5-6.14 3.89 0 5.23 2.84 5.23 5.68a7.4 7.4 0 0 1 0 1zm4.4-1.94c0-1.32-.55-2.44-2.1-2.44s-2.11 1-2.24 2.44z"/><path d="m937.1 157.77c0-1 0-2 0-2.89h3c.07.31.11 1.1.14 1.46a3.44 3.44 0 0 1 3.3-1.72c2.28 0 3.76 1.56 3.76 4.42v7.24h-3.15v-6.88c0-1.3-.41-2.23-1.82-2.23s-2.09.75-2.09 2.78v6.33h-3.14z"/><path d="m949.13 154.88h1.76v-3.08h3.11v3.08h2.24v2.38h-2.24v5.63c0 .86.26 1.19 1.21 1.19h.7v2.16a6.8 6.8 0 0 1 -2.11.22c-2.22 0-3-1.19-3-3.19v-6h-1.76z"/><path d="m1 220.64v-13c0-.92 0-1.82 0-2.75h3.07c0 .31.11 1 .11 1.43a3.61 3.61 0 0 1 3.3-1.69c2.58 0 4.53 2.16 4.53 5.68 0 4-2.2 6.25-4.95 6.25a3.19 3.19 0 0 1 -2.88-1.28v5.37zm5.44-13.49c-1.78 0-2.42 1.17-2.42 3.46s.62 3.39 2.32 3.39 2.48-1.3 2.48-3.61c0-2.05-.82-3.24-2.35-3.24z"/><path d="m14.3 208c0-1.15 0-2.14 0-3.11h3.1c0 .27.09 1.39.09 2a3.67 3.67 0 0 1 3.65-2.27v3c-2.29-.06-3.65.55-3.65 3.68v5h-3.19z"/><path d="m33.68 210.56c0 3.46-2.06 6-5.67 6s-5.59-2.53-5.59-5.92 2.13-6 5.74-6c3.34-.02 5.52 2.36 5.52 5.92zm-8.07 0c0 2.2.94 3.5 2.46 3.5s2.42-1.3 2.42-3.47c0-2.38-.88-3.5-2.46-3.5s-2.42 1.09-2.42 3.49z"/><path d="m46.4 200.22v12.94 3.12h-3c-.07-.35-.13-.92-.16-1.19a3.41 3.41 0 0 1 -3.24 1.46c-2.88 0-4.71-2.31-4.71-5.88s1.94-6 5.17-6c1.65 0 2.53.59 2.77 1.1v-5.5zm-5.4 13.78c2.16 0 2.43-1.81 2.43-3.44 0-2-.29-3.43-2.36-3.43-1.65 0-2.49 1.3-2.49 3.46s.82 3.41 2.42 3.41z"/><path d="m59.34 213v3.3h-3.06c-.05-.31-.07-.92-.09-1.32a3.25 3.25 0 0 1 -3.19 1.57c-2.31 0-3.78-1.41-3.78-4.23v-7.44h3.15v6.8c0 1.26.39 2.29 1.76 2.29s2-.77 2-3v-6.08h3.15z"/><path d="m72.14 212.61c-.37 1.89-1.72 3.94-5.1 3.94-3.55 0-5.37-2.45-5.37-5.88s2-6 5.52-6c3.83 0 4.91 2.77 5 4h-3.11a1.78 1.78 0 0 0 -2-1.56c-1.45 0-2.26 1.25-2.26 3.45 0 2.44.88 3.54 2.24 3.54a1.94 1.94 0 0 0 2-1.49z"/><path d="m73.59 204.88h1.76v-3.08h3.15v3.08h2.24v2.38h-2.24v5.63c0 .86.26 1.19 1.21 1.19h.7v2.16a6.83 6.83 0 0 1 -2.11.22c-2.22 0-3-1.19-3-3.19v-6h-1.71z"/><path d="m83.67 203v-2.82h3.16v2.82zm0 1.84h3.16v11.4h-3.16z"/><path d="m100.8 210.56c0 3.46-2.06 6-5.67 6s-5.59-2.53-5.59-5.92 2.13-6 5.74-6c3.34-.02 5.52 2.36 5.52 5.92zm-8.07 0c0 2.2.94 3.5 2.46 3.5s2.42-1.3 2.42-3.47c0-2.38-.88-3.5-2.46-3.5s-2.42 1.09-2.42 3.49z"/><path d="m103.09 207.77c0-1 0-2 0-2.89h3.06c.06.31.11 1.1.13 1.46a3.45 3.45 0 0 1 3.3-1.72c2.29 0 3.76 1.56 3.76 4.42v7.24h-3.14v-6.88c0-1.3-.42-2.23-1.83-2.23s-2.09.75-2.09 2.78v6.33h-3.17z"/><path d="m118.56 212.85a2 2 0 0 0 2.15 1.43c1.17 0 1.59-.42 1.59-1.12s-.49-1-2.11-1.41c-3.72-.92-4.32-2.07-4.32-3.67s1.17-3.46 4.6-3.46 4.64 1.89 4.73 3.43h-3c-.11-.42-.4-1.21-1.87-1.21-1 0-1.39.46-1.39 1s.35.84 2.2 1.28c3.81.88 4.36 2.18 4.36 3.85 0 1.89-1.45 3.61-4.91 3.61s-4.88-1.68-5.15-3.7z"/><path d="m136.77 212.85a2 2 0 0 0 2.16 1.43c1.17 0 1.58-.42 1.58-1.12s-.48-1-2.11-1.41c-3.72-.92-4.31-2.07-4.31-3.67s1.16-3.46 4.6-3.46 4.64 1.89 4.73 3.43h-3c-.1-.42-.39-1.21-1.87-1.21-1 0-1.38.46-1.38 1s.35.84 2.2 1.28c3.81.88 4.36 2.18 4.36 3.85 0 1.89-1.46 3.61-4.91 3.61s-4.89-1.68-5.15-3.7z"/><path d="m155.93 213v3.3h-3.08c0-.31-.07-.92-.09-1.32a3.25 3.25 0 0 1 -3.15 1.59c-2.31 0-3.78-1.41-3.78-4.23v-7.44h3.17v6.8c0 1.26.4 2.29 1.76 2.29s2-.77 2-3v-6.08h3.14z"/><path d="m168.74 212.61c-.37 1.89-1.72 3.94-5.11 3.94s-5.36-2.45-5.36-5.88 2-6 5.52-6c3.83 0 4.91 2.77 5 4h-3.06a1.78 1.78 0 0 0 -2-1.56c-1.45 0-2.26 1.25-2.26 3.45 0 2.44.88 3.54 2.24 3.54a1.94 1.94 0 0 0 2-1.49z"/><path d="m174 200.22v6a3.58 3.58 0 0 1 3.25-1.63c2.12 0 3.81 1.28 3.81 4.36v7.3h-3.06v-6.84c0-1.48-.53-2.27-1.85-2.27-1.76 0-2.09 1.32-2.09 3.06v6.05h-3.17v-16.03z"/><path d="m200.24 213.33a24.1 24.1 0 0 0 .16 2.95h-3a4.33 4.33 0 0 1 -.15-1.12c-.42.64-1.19 1.39-3.22 1.39-2.75 0-3.89-1.81-3.89-3.57 0-2.59 2.07-3.81 5.41-3.81h1.63v-.68c0-.81-.28-1.6-1.76-1.6-1.32 0-1.63.55-1.76 1.38h-3c.15-2 1.41-3.65 4.88-3.65 3 0 4.71 1.21 4.71 3.94zm-3.08-2.24h-1.28c-1.91 0-2.61.59-2.61 1.69a1.47 1.47 0 0 0 1.65 1.52c2 0 2.24-1.41 2.24-2.9z"/><path d="m205.52 212.85a2 2 0 0 0 2.16 1.43c1.16 0 1.58-.42 1.58-1.12s-.48-1-2.11-1.41c-3.72-.92-4.31-2.07-4.31-3.67s1.16-3.46 4.6-3.46 4.64 1.89 4.73 3.43h-3c-.11-.42-.39-1.21-1.87-1.21-1 0-1.38.46-1.38 1s.35.84 2.2 1.28c3.8.88 4.35 2.18 4.35 3.85 0 1.89-1.45 3.61-4.9 3.61s-4.89-1.68-5.15-3.7z"/><path d="m225.72 203.81h-4.62v-2.69h12.49v2.69h-4.59v12.47h-3.28z"/><path d="m240.61 216.28-5.35-15.16h3.53l2.24 7c.7 2.11 1.21 3.92 1.56 5.48a54.69 54.69 0 0 1 1.62-5.44l2.38-7h3.41l-5.5 15.16z"/><path d="m265.58 212.85a2 2 0 0 0 2.16 1.43c1.16 0 1.58-.42 1.58-1.12s-.48-1-2.11-1.41c-3.72-.92-4.31-2.07-4.31-3.67s1.16-3.46 4.6-3.46 4.64 1.89 4.73 3.43h-3c-.11-.42-.39-1.21-1.87-1.21-1 0-1.38.46-1.38 1s.35.84 2.2 1.28c3.8.88 4.35 2.18 4.35 3.85 0 1.89-1.45 3.61-4.9 3.61s-4.89-1.68-5.15-3.7z"/><path d="m277.88 200.22v6a3.58 3.58 0 0 1 3.25-1.63c2.12 0 3.81 1.28 3.81 4.36v7.3h-3.12v-6.84c0-1.48-.53-2.27-1.85-2.27-1.76 0-2.09 1.32-2.09 3.06v6.05h-3.17v-16.03z"/><path d="m298.49 210.56c0 3.46-2.07 6-5.67 6s-5.59-2.53-5.59-5.92 2.13-6 5.74-6c3.34-.02 5.52 2.36 5.52 5.92zm-8.07 0c0 2.2.94 3.5 2.46 3.5s2.42-1.3 2.42-3.47c0-2.38-.88-3.5-2.46-3.5s-2.42 1.09-2.42 3.49z"/><path d="m303 204.88c1 4.58 1.59 7.18 1.81 8.61.25-1.28.58-3.06 2-8.61h2.93c1.27 5.62 1.67 7.27 1.82 8.48.24-1.17.59-2.86 1.91-8.48h3.13l-3.39 11.4h-3.37c-1-4.31-1.47-6.6-1.74-8.1-.18 1.44-.79 4-1.8 8.1h-3.3l-3.24-11.4z"/><path d="m320.89 212.85a2 2 0 0 0 2.15 1.43c1.17 0 1.59-.42 1.59-1.12s-.49-1-2.11-1.41c-3.72-.92-4.32-2.07-4.32-3.67s1.17-3.46 4.6-3.46 4.64 1.89 4.73 3.43h-3c-.11-.42-.4-1.21-1.87-1.21-1 0-1.39.46-1.39 1s.35.84 2.2 1.28c3.81.88 4.36 2.18 4.36 3.85 0 1.89-1.45 3.61-4.91 3.61s-4.88-1.68-5.15-3.7z"/><path d="m330.06 218.83a18.73 18.73 0 0 0 1.63-6.42h3.23a12.63 12.63 0 0 1 -2.42 6.42z"/><path d="m345.92 220.64v-13c0-.92 0-1.82 0-2.75h3.08c0 .31.11 1 .11 1.43a3.59 3.59 0 0 1 3.3-1.69c2.57 0 4.53 2.16 4.53 5.68 0 4-2.2 6.25-4.95 6.25a3.19 3.19 0 0 1 -2.88-1.28v5.37zm5.44-13.49c-1.78 0-2.42 1.17-2.42 3.46s.59 3.43 2.29 3.43 2.48-1.3 2.48-3.61c0-2.09-.83-3.28-2.35-3.28z"/><path d="m359.19 208c0-1.15 0-2.14 0-3.11h3.1c0 .27.09 1.39.09 2a3.66 3.66 0 0 1 3.65-2.27v3c-2.29-.06-3.65.55-3.65 3.68v5h-3.17z"/><path d="m379 210.56c0 3.46-2.07 6-5.68 6s-5.58-2.53-5.58-5.92 2.13-6 5.74-6c3.35-.02 5.52 2.36 5.52 5.92zm-8.07 0c0 2.2.94 3.5 2.46 3.5s2.42-1.3 2.42-3.47c0-2.38-.88-3.5-2.46-3.5s-2.41 1.09-2.41 3.49z"/><path d="m391.73 200.22v12.94 3.12h-3c-.07-.35-.14-.92-.16-1.19a3.41 3.41 0 0 1 -3.23 1.46c-2.89 0-4.71-2.31-4.71-5.88s1.93-6 5.17-6c1.65 0 2.53.59 2.77 1.1v-5.5zm-5.44 13.78c2.16 0 2.42-1.81 2.42-3.44 0-2-.28-3.43-2.35-3.43-1.65 0-2.49 1.3-2.49 3.46s.86 3.41 2.42 3.41z"/><path d="m405.1 213v3.3h-3.08c-.05-.31-.07-.92-.09-1.32a3.25 3.25 0 0 1 -3.15 1.59c-2.31 0-3.78-1.41-3.78-4.23v-7.44h3.14v6.8c0 1.26.4 2.29 1.76 2.29s2-.77 2-3v-6.08h3.14z"/><path d="m417.91 212.61c-.38 1.89-1.72 3.94-5.11 3.94-3.54 0-5.36-2.45-5.36-5.88s2-6 5.52-6c3.83 0 4.9 2.77 5 4h-3.06a1.79 1.79 0 0 0 -2-1.56c-1.45 0-2.26 1.25-2.26 3.45 0 2.44.88 3.54 2.24 3.54a1.94 1.94 0 0 0 2-1.49z"/><path d="m419.36 204.88h1.76v-3.08h3.15v3.08h2.24v2.38h-2.24v5.63c0 .86.26 1.19 1.21 1.19h.7v2.16a6.83 6.83 0 0 1 -2.11.22c-2.23 0-2.95-1.19-2.95-3.19v-6h-1.76z"/><path d="m431.77 212.85a2 2 0 0 0 2.15 1.43c1.17 0 1.59-.42 1.59-1.12s-.49-1-2.11-1.41c-3.72-.92-4.32-2.07-4.32-3.67s1.17-3.46 4.6-3.46 4.64 1.89 4.73 3.43h-3c-.11-.42-.4-1.21-1.87-1.21-1 0-1.39.46-1.39 1s.35.84 2.2 1.28c3.81.88 4.36 2.18 4.36 3.85 0 1.89-1.45 3.61-4.91 3.61s-4.88-1.68-5.15-3.7z"/><path d="m441.38 218.83a18.73 18.73 0 0 0 1.63-6.42h3.23a12.63 12.63 0 0 1 -2.42 6.42z"/><path d="m464.5 213.33a24.1 24.1 0 0 0 .16 2.95h-3a4.33 4.33 0 0 1 -.15-1.12c-.42.64-1.19 1.39-3.21 1.39-2.75 0-3.9-1.81-3.9-3.57 0-2.59 2.07-3.81 5.41-3.81h1.63v-.68c0-.81-.28-1.6-1.76-1.6-1.32 0-1.63.55-1.76 1.38h-3c.15-2 1.41-3.65 4.88-3.65 3 0 4.71 1.21 4.71 3.94zm-3.08-2.24h-1.27c-1.92 0-2.62.59-2.62 1.69a1.47 1.47 0 0 0 1.65 1.52c2 0 2.24-1.41 2.24-2.9z"/><path d="m467.47 207.77c0-1 0-2 0-2.89h3.06c.06.31.11 1.1.13 1.46a3.45 3.45 0 0 1 3.3-1.72c2.29 0 3.76 1.56 3.76 4.42v7.24h-3.14v-6.88c0-1.3-.42-2.23-1.83-2.23s-2.09.75-2.09 2.78v6.33h-3.17z"/><path d="m491.06 200.22v12.94 3.12h-3c-.06-.35-.13-.92-.15-1.19a3.41 3.41 0 0 1 -3.23 1.46c-2.89 0-4.71-2.31-4.71-5.88s1.93-6 5.17-6c1.65 0 2.53.59 2.77 1.1v-5.5zm-5.44 13.78c2.16 0 2.42-1.81 2.42-3.44 0-2-.28-3.43-2.35-3.43-1.65 0-2.49 1.3-2.49 3.46s.86 3.41 2.42 3.41z"/><path d="m503.05 212.85a2 2 0 0 0 2.15 1.43c1.17 0 1.59-.42 1.59-1.12s-.49-1-2.12-1.41c-3.71-.92-4.31-2.07-4.31-3.67s1.17-3.46 4.6-3.46 4.64 1.89 4.73 3.43h-3c-.11-.42-.4-1.21-1.87-1.21-1 0-1.39.46-1.39 1s.35.84 2.2 1.28c3.81.88 4.36 2.18 4.36 3.85 0 1.89-1.45 3.61-4.91 3.61s-4.88-1.68-5.15-3.7z"/><path d="m515.12 211.27c0 1.43.73 2.81 2.29 2.81a1.81 1.81 0 0 0 2-1.21h3.15a5 5 0 0 1 -5.21 3.68c-3.77 0-5.39-2.8-5.39-5.79 0-3.59 1.82-6.14 5.5-6.14 3.89 0 5.23 2.84 5.23 5.68a7.4 7.4 0 0 1 0 1zm4.4-1.94c0-1.32-.54-2.44-2.09-2.44s-2.11 1-2.24 2.44z"/><path d="m525.38 208c0-1.15 0-2.14 0-3.11h3.11c0 .27.08 1.39.08 2a3.68 3.68 0 0 1 3.66-2.27v3c-2.29-.06-3.66.55-3.66 3.68v5h-3.16z"/><path d="m537.17 204.88c1.08 3.88 2 7.24 2.2 8.61.33-1.87 1.43-5.31 2.42-8.61h3.21l-4 11.4h-3.3l-3.87-11.4z"/><path d="m547.05 203v-2.82h3.16v2.82zm0 1.84h3.16v11.4h-3.16z"/><path d="m563.44 212.61c-.38 1.89-1.72 3.94-5.11 3.94-3.54 0-5.37-2.45-5.37-5.88s2-6 5.52-6c3.83 0 4.91 2.77 5 4h-3.06a1.79 1.79 0 0 0 -2-1.56c-1.45 0-2.27 1.25-2.27 3.45 0 2.44.88 3.54 2.25 3.54a1.94 1.94 0 0 0 2-1.49z"/><path d="m568.49 211.27c0 1.43.73 2.81 2.29 2.81a1.81 1.81 0 0 0 2-1.21h3.15a5 5 0 0 1 -5.21 3.68c-3.77 0-5.39-2.8-5.39-5.79 0-3.59 1.82-6.14 5.5-6.14 3.89 0 5.23 2.84 5.23 5.68a7.4 7.4 0 0 1 0 1zm4.41-1.94c0-1.32-.55-2.44-2.1-2.44s-2.11 1-2.24 2.44z"/><path d="m596.39 200.22v12.94 3.12h-3c-.07-.35-.13-.92-.16-1.19a3.41 3.41 0 0 1 -3.23 1.46c-2.88 0-4.71-2.31-4.71-5.88s1.94-6 5.17-6c1.65 0 2.53.59 2.77 1.1v-5.5zm-5.39 13.78c2.15 0 2.42-1.81 2.42-3.44 0-2-.29-3.43-2.36-3.43-1.65 0-2.48 1.3-2.48 3.46s.81 3.41 2.42 3.41z"/><path d="m601.8 211.27c0 1.43.73 2.81 2.29 2.81a1.81 1.81 0 0 0 2-1.21h3.15a5 5 0 0 1 -5.22 3.68c-3.76 0-5.39-2.8-5.39-5.79 0-3.59 1.83-6.14 5.51-6.14 3.89 0 5.23 2.84 5.23 5.68a7.4 7.4 0 0 1 0 1zm4.4-1.94c0-1.32-.55-2.44-2.09-2.44s-2.11 1-2.24 2.44z"/><path d="m614 212.85a2 2 0 0 0 2.15 1.43c1.17 0 1.59-.42 1.59-1.12s-.49-1-2.11-1.41c-3.72-.92-4.32-2.07-4.32-3.67s1.17-3.46 4.6-3.46 4.64 1.89 4.73 3.43h-3c-.11-.42-.4-1.21-1.87-1.21-1 0-1.39.46-1.39 1s.35.84 2.2 1.28c3.81.88 4.36 2.18 4.36 3.85 0 1.89-1.45 3.61-4.91 3.61s-4.88-1.68-5.15-3.7z"/><path d="m623.08 203v-2.82h3.16v2.82zm0 1.84h3.16v11.4h-3.16z"/><path d="m640.41 214.9c0 3.65-1.34 6-5.65 6-4.16 0-5-2.31-5.08-3.61h3.21a1.8 1.8 0 0 0 2 1.32c2.05 0 2.44-1.25 2.44-3.48v-.55a3.36 3.36 0 0 1 -3.21 1.61c-3 0-4.71-2.46-4.71-5.52 0-3.57 2.14-6 5-6 2 0 2.78.92 3 1.45 0-.31.11-1 .13-1.19h3v3.28zm-5.41-1.3c1.89 0 2.4-1.3 2.4-3.21s-.33-3.24-2.33-3.24c-1.37 0-2.44 1.06-2.44 3.35.02 1.95 1.01 3.1 2.37 3.1z"/><path d="m643.34 207.77c0-1 0-2 0-2.89h3c.07.31.11 1.1.14 1.46a3.44 3.44 0 0 1 3.3-1.72c2.29 0 3.76 1.56 3.76 4.42v7.24h-3.15v-6.88c0-1.3-.41-2.23-1.82-2.23s-2.09.75-2.09 2.78v6.33h-3.17z"/><path d="m658.8 212.85a2 2 0 0 0 2.16 1.43c1.17 0 1.58-.42 1.58-1.12s-.48-1-2.11-1.41c-3.72-.92-4.31-2.07-4.31-3.67s1.17-3.46 4.6-3.46 4.64 1.89 4.73 3.43h-3c-.11-.42-.4-1.21-1.87-1.21-1 0-1.39.46-1.39 1s.35.84 2.2 1.28c3.81.88 4.36 2.18 4.36 3.85 0 1.89-1.46 3.61-4.91 3.61s-4.88-1.68-5.15-3.7z"/><path d="m668.92 216.28v-3.87h3.37v3.87z"/><path d="m1.43 251.12h6.62c3.68 0 5.06 1.89 5.06 3.87a3.42 3.42 0 0 1 -1.93 3.28 3.65 3.65 0 0 1 2.37 3.48c0 2.6-2 4.53-5.26 4.53h-6.86zm6.25 6c1.56 0 2.2-.71 2.2-1.79s-.84-1.67-2.09-1.67h-3.15v3.46zm-3 6.64h3c1.79 0 2.58-.75 2.58-2.11s-.79-2-2.6-2h-3.02z"/><path d="m18.52 254.88c1.17 3.94 2.2 7.44 2.38 8.5.24-1.15.93-3.7 2.27-8.5h3.14l-3.82 11.73c-1.08 3.28-2 4.25-4.73 4.25a13.32 13.32 0 0 1 -1.48-.09v-2.53h.82c1.16 0 1.73-.39 2.17-1.65l-4.15-11.75z"/><path d="m37.93 250.26a32.18 32.18 0 0 0 -1 6.52h-3.2a18.91 18.91 0 0 1 1.82-6.52zm4.75 0a27.2 27.2 0 0 0 -1 6.52h-3.18a17.85 17.85 0 0 1 1.83-6.52z"/><path d="m45.3 254.88h1.76v-3.08h3.14v3.08h2.25v2.38h-2.25v5.63c0 .86.27 1.19 1.21 1.19h.71v2.16a6.86 6.86 0 0 1 -2.11.22c-2.23 0-2.95-1.19-2.95-3.19v-6h-1.76z"/><path d="m57.66 250.22v6a3.6 3.6 0 0 1 3.26-1.63c2.11 0 3.8 1.28 3.8 4.36v7.3h-3.12v-6.84c0-1.48-.53-2.27-1.85-2.27-1.76 0-2.09 1.32-2.09 3.06v6h-3.17v-15.98z"/><path d="m68.11 253v-2.82h3.17v2.82zm0 1.84h3.17v11.4h-3.17z"/><path d="m74.67 257.77c0-1 0-2 0-2.89h3.03a13.21 13.21 0 0 1 .13 1.46 3.47 3.47 0 0 1 3.3-1.72c2.29 0 3.77 1.56 3.77 4.42v7.24h-3.15v-6.88c0-1.3-.42-2.23-1.83-2.23s-2.09.75-2.09 2.78v6.33h-3.16z"/><path d="m91 259.7c.83-1.14 2.33-2.9 3.91-4.82h3.61l-4 4.32 4.34 7.08h-3.56l-2.88-5.06-1.42 1.41v3.65h-3.2v-16.06h3.2z"/><path d="m100.6 253v-2.82h3.17v2.82zm0 1.84h3.17v11.4h-3.17z"/><path d="m107.16 257.77c0-1 0-2 0-2.89h3.06c.06.31.11 1.1.13 1.46a3.44 3.44 0 0 1 3.3-1.72c2.29 0 3.76 1.56 3.76 4.42v7.24h-3.15v-6.88c0-1.3-.41-2.23-1.82-2.23s-2.09.75-2.09 2.78v6.33h-3.17z"/><path d="m130.66 264.9c0 3.65-1.35 6-5.66 6-4.16 0-5-2.31-5.08-3.61h3.21a1.8 1.8 0 0 0 2 1.32c2.05 0 2.45-1.25 2.45-3.48v-.55a3.38 3.38 0 0 1 -3.22 1.61c-3 0-4.7-2.46-4.7-5.52 0-3.57 2.13-6 5-6 2 0 2.77.92 3 1.45 0-.31.11-1 .13-1.19h3v3.28zm-5.39-1.3c1.89 0 2.39-1.3 2.39-3.21s-.33-3.24-2.33-3.24c-1.36 0-2.44 1.06-2.44 3.35 0 1.95.99 3.1 2.38 3.1z"/><path d="m150.21 263.33a24.1 24.1 0 0 0 .16 2.95h-3a4.81 4.81 0 0 1 -.15-1.12c-.42.64-1.19 1.39-3.21 1.39-2.75 0-3.9-1.81-3.9-3.57 0-2.59 2.07-3.81 5.42-3.81h1.62v-.68c0-.81-.28-1.6-1.76-1.6-1.32 0-1.62.55-1.76 1.38h-3c.16-2 1.41-3.65 4.89-3.65 3 0 4.7 1.21 4.7 3.94zm-3.08-2.24h-1.27c-1.92 0-2.62.59-2.62 1.69a1.47 1.47 0 0 0 1.65 1.52c2 0 2.24-1.41 2.24-2.9z"/><path d="m153.18 257.77c0-1 0-2 0-2.89h3.06a13.21 13.21 0 0 1 .13 1.46 3.47 3.47 0 0 1 3.3-1.72c2.29 0 3.77 1.56 3.77 4.42v7.24h-3.15v-6.88c0-1.3-.42-2.23-1.83-2.23s-2.09.75-2.09 2.78v6.33h-3.17z"/><path d="m176.77 250.22v12.94 3.12h-3c-.07-.35-.14-.92-.16-1.19a3.41 3.41 0 0 1 -3.23 1.46c-2.89 0-4.71-2.31-4.71-5.88s1.93-6.05 5.17-6.05c1.65 0 2.53.59 2.77 1.1v-5.5zm-5.44 13.78c2.16 0 2.42-1.81 2.42-3.44 0-2-.28-3.43-2.35-3.43-1.65 0-2.49 1.3-2.49 3.46s.86 3.41 2.42 3.41z"/><path d="m186.87 257.83c0-1 0-1.95 0-2.95h3c0 .29.11.93.13 1.37a3.58 3.58 0 0 1 3.17-1.63 3 3 0 0 1 2.92 1.74 4 4 0 0 1 3.53-1.74c2 0 3.6 1.23 3.6 4.18v7.48h-3.08v-7.08c0-1-.37-2.05-1.67-2.05s-1.85.88-1.85 2.62v6.51h-3.1v-7c0-1.17-.29-2.14-1.63-2.14s-1.89.86-1.89 2.78v6.36h-3.12z"/><path d="m215.6 263.33a27.1 27.1 0 0 0 .15 2.95h-3a4.32 4.32 0 0 1 -.16-1.12c-.41.64-1.18 1.39-3.21 1.39-2.75 0-3.89-1.81-3.89-3.57 0-2.59 2.07-3.81 5.41-3.81h1.63v-.68c0-.81-.29-1.6-1.76-1.6-1.32 0-1.63.55-1.76 1.38h-3c.15-2 1.4-3.65 4.88-3.65 3 0 4.71 1.21 4.71 3.94zm-3.08-2.24h-1.28c-1.91 0-2.62.59-2.62 1.69a1.47 1.47 0 0 0 1.65 1.52c2 0 2.25-1.41 2.25-2.9z"/><path d="m221.71 259.7c.84-1.14 2.34-2.9 3.92-4.82h3.61l-4 4.32 4.33 7.08h-3.56l-2.88-5.06-1.46 1.41v3.65h-3.17v-16.06h3.17z"/><path d="m231.79 253v-2.82h3.21v2.82zm0 1.84h3.21v11.4h-3.17z"/><path d="m238.34 257.77c0-1 0-2 0-2.89h3.06a13.21 13.21 0 0 1 .13 1.46 3.47 3.47 0 0 1 3.3-1.72c2.29 0 3.77 1.56 3.77 4.42v7.24h-3.15v-6.88c0-1.3-.42-2.23-1.83-2.23s-2.09.75-2.09 2.78v6.33h-3.17z"/><path d="m262.28 264.9c0 3.65-1.34 6-5.65 6-4.16 0-5-2.31-5.09-3.61h3.22a1.8 1.8 0 0 0 2 1.32c2 0 2.44-1.25 2.44-3.48v-.55a3.36 3.36 0 0 1 -3.21 1.61c-3 0-4.71-2.46-4.71-5.52 0-3.57 2.13-6 5-6 2 0 2.78.92 2.95 1.45 0-.31.11-1 .13-1.19h3v3.28zm-5.39-1.3c1.89 0 2.4-1.3 2.4-3.21s-.33-3.24-2.33-3.24c-1.37 0-2.45 1.06-2.45 3.35 0 1.95.99 3.1 2.38 3.1z"/><path d="m265.08 256.75a26.53 26.53 0 0 0 1-6.53h3.19a17.73 17.73 0 0 1 -1.83 6.53zm4.77 0a32.43 32.43 0 0 0 1-6.53h3.15a18.57 18.57 0 0 1 -1.8 6.53z"/><path d="m290.57 263v3.3h-3.09c0-.31-.06-.92-.08-1.32a3.26 3.26 0 0 1 -3.15 1.59c-2.31 0-3.78-1.41-3.78-4.23v-7.44h3.14v6.8c0 1.26.4 2.29 1.76 2.29s2-.77 2-3v-6.08h3.14z"/><path d="m293.54 257.77c0-1 0-2 0-2.89h3.06c.06.31.11 1.1.13 1.46a3.45 3.45 0 0 1 3.3-1.72c2.29 0 3.76 1.56 3.76 4.42v7.24h-3.14v-6.88c0-1.3-.42-2.23-1.83-2.23s-2.09.75-2.09 2.78v6.33h-3.17z"/><path d="m317.13 250.22v12.94 3.12h-3c-.06-.35-.13-.92-.15-1.19a3.41 3.41 0 0 1 -3.23 1.46c-2.89 0-4.71-2.31-4.71-5.88s1.93-6.05 5.17-6.05c1.65 0 2.53.59 2.77 1.1v-5.5zm-5.44 13.78c2.16 0 2.42-1.81 2.42-3.44 0-2-.28-3.43-2.35-3.43-1.65 0-2.49 1.3-2.49 3.46s.86 3.41 2.42 3.41z"/><path d="m322.54 261.27c0 1.43.72 2.81 2.29 2.81a1.82 1.82 0 0 0 2-1.21h3.17a5 5 0 0 1 -5.22 3.68c-3.76 0-5.39-2.8-5.39-5.79 0-3.59 1.83-6.14 5.5-6.14 3.9 0 5.24 2.84 5.24 5.68a5.93 5.93 0 0 1 -.05 1zm4.4-1.94c0-1.32-.55-2.44-2.09-2.44s-2.11 1-2.25 2.44z"/><path d="m332.35 258c0-1.15 0-2.14 0-3.11h3.1c0 .27.09 1.39.09 2a3.67 3.67 0 0 1 3.65-2.27v3c-2.29-.06-3.65.55-3.65 3.68v5h-3.17z"/><path d="m357.17 260.56c0 3.46-2.07 6-5.68 6s-5.59-2.53-5.59-5.92 2.14-6 5.75-6c3.35-.02 5.52 2.36 5.52 5.92zm-8.08 0c0 2.2 1 3.5 2.47 3.5s2.42-1.3 2.42-3.47c0-2.38-.88-3.5-2.47-3.5s-2.42 1.09-2.42 3.49z"/><path d="m359.46 257.77c0-1 0-2 0-2.89h3.06a13.21 13.21 0 0 1 .13 1.46 3.47 3.47 0 0 1 3.3-1.72c2.29 0 3.77 1.56 3.77 4.42v7.24h-3.15v-6.88c0-1.3-.42-2.23-1.83-2.23s-2.09.75-2.09 2.78v6.33h-3.16z"/><path d="m375.1 261.27c0 1.43.72 2.81 2.28 2.81a1.83 1.83 0 0 0 2-1.21h3.14a5 5 0 0 1 -5.21 3.68c-3.76 0-5.39-2.8-5.39-5.79 0-3.59 1.82-6.14 5.5-6.14 3.89 0 5.24 2.84 5.24 5.68a5.93 5.93 0 0 1 -.05 1zm4.4-1.94c0-1.32-.55-2.44-2.09-2.44s-2.12 1-2.25 2.44z"/><path d="m390.34 258c0-1.15 0-2.14 0-3.11h3.1c.05.27.09 1.39.09 2a3.67 3.67 0 0 1 3.65-2.27v3c-2.28-.06-3.65.55-3.65 3.68v5h-3.17z"/><path d="m409.73 260.56c0 3.46-2.07 6-5.68 6s-5.59-2.53-5.59-5.92 2.14-6 5.74-6c3.35-.02 5.53 2.36 5.53 5.92zm-8.08 0c0 2.2 1 3.5 2.47 3.5s2.42-1.3 2.42-3.47c0-2.38-.88-3.5-2.47-3.5s-2.42 1.09-2.42 3.49z"/><path d="m422.6 260.56c0 3.46-2.07 6-5.68 6s-5.59-2.53-5.59-5.92 2.14-6 5.74-6c3.35-.02 5.53 2.36 5.53 5.92zm-8.08 0c0 2.2 1 3.5 2.47 3.5s2.42-1.3 2.42-3.47c0-2.38-.88-3.5-2.47-3.5s-2.42 1.09-2.42 3.49z"/><path d="m425.3 266.28v-9h-1.67v-2.38h1.67v-1c0-2.35 1.17-3.89 3.63-3.89a6.35 6.35 0 0 1 1.45.13v2.49a5.58 5.58 0 0 0 -.66-.05c-.92 0-1.27.33-1.27 1.57v.74h2v2.38h-2v9z"/><path d="m432.69 268.83a18.49 18.49 0 0 0 1.63-6.42h3.24a12.64 12.64 0 0 1 -2.43 6.42z"/><path d="m450.84 254.88c1 4.58 1.59 7.18 1.81 8.61.24-1.28.57-3.06 2-8.61h2.93c1.27 5.62 1.67 7.27 1.82 8.48.25-1.17.6-2.86 1.92-8.48h3.12l-3.39 11.4h-3.36c-.95-4.31-1.48-6.6-1.74-8.1-.18 1.44-.79 4-1.81 8.1h-3.38l-3.24-11.4z"/><path d="m468.86 261.27c0 1.43.73 2.81 2.29 2.81a1.82 1.82 0 0 0 2-1.21h3.15a5 5 0 0 1 -5.22 3.68c-3.76 0-5.39-2.8-5.39-5.79 0-3.59 1.83-6.14 5.5-6.14 3.9 0 5.24 2.84 5.24 5.68a7.4 7.4 0 0 1 0 1zm4.4-1.94c0-1.32-.55-2.44-2.09-2.44s-2.11 1-2.24 2.44z"/><path d="m486.44 262.85a2 2 0 0 0 2.16 1.43c1.16 0 1.58-.42 1.58-1.12s-.48-1-2.11-1.41c-3.72-.92-4.31-2.07-4.31-3.67s1.16-3.46 4.59-3.46 4.65 1.89 4.73 3.43h-3c-.11-.42-.39-1.21-1.87-1.21-1 0-1.38.46-1.38 1s.35.84 2.2 1.28c3.8.88 4.35 2.18 4.35 3.85 0 1.89-1.45 3.61-4.9 3.61s-4.89-1.68-5.15-3.7z"/><path d="m494.47 254.88h1.76v-3.08h3.14v3.08h2.25v2.38h-2.25v5.63c0 .86.27 1.19 1.21 1.19h.71v2.16a6.86 6.86 0 0 1 -2.11.22c-2.23 0-2.95-1.19-2.95-3.19v-6h-1.76z"/><path d="m503.66 258c0-1.15 0-2.14 0-3.11h3.1c.05.27.09 1.39.09 2a3.67 3.67 0 0 1 3.65-2.27v3c-2.28-.06-3.65.55-3.65 3.68v5h-3.17z"/><path d="m513.32 253v-2.82h3.17v2.82zm0 1.84h3.17v11.4h-3.17z"/><path d="m522 254.88c1.08 3.88 2 7.24 2.2 8.61.33-1.87 1.43-5.31 2.42-8.61h3.15l-4 11.4h-3.3l-3.87-11.4z"/><path d="m534.38 261.27c0 1.43.72 2.81 2.28 2.81a1.83 1.83 0 0 0 2-1.21h3.14a5 5 0 0 1 -5.21 3.68c-3.77 0-5.39-2.8-5.39-5.79 0-3.59 1.82-6.14 5.5-6.14 3.89 0 5.23 2.84 5.23 5.68a7.4 7.4 0 0 1 0 1zm4.4-1.94c0-1.32-.55-2.44-2.09-2.44s-2.12 1-2.25 2.44z"/><path d="m548.52 254.88h1.76v-3.08h3.15v3.08h2.24v2.38h-2.24v5.63c0 .86.26 1.19 1.21 1.19h.7v2.16a6.8 6.8 0 0 1 -2.11.22c-2.22 0-3-1.19-3-3.19v-6h-1.76z"/><path d="m568.32 260.56c0 3.46-2.07 6-5.67 6s-5.59-2.53-5.59-5.92 2.13-6 5.74-6c3.34-.02 5.52 2.36 5.52 5.92zm-8.07 0c0 2.2.94 3.5 2.46 3.5s2.42-1.3 2.42-3.47c0-2.38-.88-3.5-2.46-3.5s-2.42 1.09-2.42 3.49z"/><path d="m585.88 262.61c-.38 1.89-1.72 3.94-5.11 3.94s-5.37-2.45-5.37-5.88 2.05-6.05 5.53-6.05c3.83 0 4.9 2.77 5 4.05h-3.06a1.79 1.79 0 0 0 -2-1.56c-1.45 0-2.27 1.25-2.27 3.45 0 2.44.88 3.54 2.25 3.54a1.94 1.94 0 0 0 2-1.49z"/><path d="m588 258c0-1.15 0-2.14 0-3.11h3.1c0 .27.09 1.39.09 2a3.66 3.66 0 0 1 3.65-2.27v3c-2.29-.06-3.65.55-3.65 3.68v5h-3.19z"/><path d="m599.27 261.27c0 1.43.73 2.81 2.29 2.81a1.81 1.81 0 0 0 2-1.21h3.15a5 5 0 0 1 -5.21 3.68c-3.77 0-5.4-2.8-5.4-5.79 0-3.59 1.83-6.14 5.51-6.14 3.89 0 5.23 2.84 5.23 5.68a7.4 7.4 0 0 1 0 1zm4.4-1.94c0-1.32-.55-2.44-2.09-2.44s-2.11 1-2.24 2.44z"/><path d="m618.55 263.33a27.1 27.1 0 0 0 .15 2.95h-3a4.32 4.32 0 0 1 -.16-1.12c-.42.64-1.19 1.39-3.21 1.39-2.75 0-3.89-1.81-3.89-3.57 0-2.59 2.06-3.81 5.41-3.81h1.63v-.68c0-.81-.29-1.6-1.76-1.6s-1.63.55-1.76 1.38h-3c.16-2 1.41-3.65 4.89-3.65 3 0 4.71 1.21 4.71 3.94zm-3.08-2.24h-1.28c-1.91 0-2.62.59-2.62 1.69a1.47 1.47 0 0 0 1.65 1.52c2 0 2.25-1.41 2.25-2.9z"/><path d="m620.39 254.88h1.76v-3.08h3.15v3.08h2.24v2.38h-2.24v5.63c0 .86.26 1.19 1.21 1.19h.7v2.16a6.8 6.8 0 0 1 -2.11.22c-2.22 0-3-1.19-3-3.19v-6h-1.76z"/><path d="m632.1 261.27c0 1.43.72 2.81 2.29 2.81a1.82 1.82 0 0 0 2-1.21h3.14a5 5 0 0 1 -5.21 3.68c-3.76 0-5.39-2.8-5.39-5.79 0-3.59 1.82-6.14 5.5-6.14 3.89 0 5.24 2.84 5.24 5.68a5.93 5.93 0 0 1 0 1zm4.4-1.94c0-1.32-.55-2.44-2.09-2.44s-2.12 1-2.25 2.44z"/><path d="m647.34 250.22h3.17v5.87a3.58 3.58 0 0 1 3.26-1.47c3.1 0 4.64 2.58 4.64 5.77s-1.67 6.16-4.95 6.16c-1.69 0-2.44-.51-3-1.35a5.51 5.51 0 0 1 -.13 1.08h-3c0-1.23 0-2.48 0-3.72zm5.46 6.93c-1.8 0-2.44 1.17-2.44 3.5 0 1.91.57 3.39 2.4 3.39 1.6 0 2.46-1.43 2.46-3.59 0-1.91-.73-3.3-2.42-3.3z"/><path d="m663.18 261.27c0 1.43.73 2.81 2.29 2.81a1.81 1.81 0 0 0 2-1.21h3.15a5 5 0 0 1 -5.22 3.68c-3.76 0-5.39-2.8-5.39-5.79 0-3.59 1.83-6.14 5.51-6.14 3.89 0 5.23 2.84 5.23 5.68a7.4 7.4 0 0 1 0 1zm4.4-1.94c0-1.32-.55-2.44-2.09-2.44s-2.11 1-2.24 2.44z"/><path d="m682.46 263.33a24.7 24.7 0 0 0 .15 2.95h-3a4.32 4.32 0 0 1 -.16-1.12c-.42.64-1.19 1.39-3.21 1.39-2.75 0-3.9-1.81-3.9-3.57 0-2.59 2.07-3.81 5.42-3.81h1.63v-.68c0-.81-.29-1.6-1.76-1.6s-1.63.55-1.77 1.38h-3c.16-2 1.41-3.65 4.89-3.65 3 0 4.71 1.21 4.71 3.94zm-3.08-2.24h-1.28c-1.91 0-2.62.59-2.62 1.69a1.47 1.47 0 0 0 1.65 1.52c2 0 2.25-1.41 2.25-2.9z"/><path d="m695.44 263v3.3h-3.08c0-.31-.07-.92-.09-1.32a3.25 3.25 0 0 1 -3.15 1.59c-2.31 0-3.78-1.41-3.78-4.23v-7.44h3.15v6.8c0 1.26.39 2.29 1.76 2.29s2-.77 2-3v-6.08h3.15z"/><path d="m697.28 254.88h1.72v-3.08h3.15v3.08h2.24v2.38h-2.24v5.63c0 .86.26 1.19 1.21 1.19h.7v2.16a6.8 6.8 0 0 1 -2.11.22c-2.22 0-3-1.19-3-3.19v-6h-1.76z"/><path d="m706.48 253v-2.82h3.17v2.82zm0 1.84h3.17v11.4h-3.17z"/><path d="m713.89 266.28v-9h-1.67v-2.38h1.67v-1c0-2.35 1.17-3.89 3.63-3.89a6.35 6.35 0 0 1 1.45.13v2.49a5.58 5.58 0 0 0 -.66-.05c-.92 0-1.27.33-1.27 1.57v.74h2v2.38h-2v9z"/><path d="m730.83 263v3.3h-3.08c0-.31-.06-.92-.08-1.32a3.27 3.27 0 0 1 -3.15 1.59c-2.31 0-3.78-1.41-3.78-4.23v-7.44h3.14v6.8c0 1.26.4 2.29 1.76 2.29s2-.77 2-3v-6.08h3.14z"/><path d="m733.78 266.28v-16.06h3.22v16.06z"/><path d="m747.82 261.27c0 1.43.72 2.81 2.28 2.81a1.83 1.83 0 0 0 2-1.21h3.14a5 5 0 0 1 -5.21 3.68c-3.77 0-5.39-2.8-5.39-5.79 0-3.59 1.82-6.14 5.5-6.14 3.89 0 5.23 2.84 5.23 5.68a7.4 7.4 0 0 1 0 1zm4.4-1.94c0-1.32-.55-2.44-2.09-2.44s-2.12 1-2.25 2.44z"/><path d="m759.65 254.88c1.19 2.16 1.67 3 2 3.59l2-3.59h3.5l-3.7 5.44 3.68 6h-3.57c-1-1.93-1.65-3.17-2-3.83-.29.6-1.08 2.07-2 3.83h-3.46l3.54-5.54-3.52-5.86z"/><path d="m768.63 270.64v-13c0-.92 0-1.82 0-2.75h3.06a11.9 11.9 0 0 1 .11 1.43 3.61 3.61 0 0 1 3.3-1.69c2.58 0 4.54 2.16 4.54 5.68 0 4-2.2 6.25-5 6.25a3.2 3.2 0 0 1 -2.89-1.28v5.37zm5.43-13.49c-1.78 0-2.42 1.17-2.42 3.46s.59 3.43 2.29 3.43 2.49-1.3 2.49-3.61c0-2.09-.84-3.28-2.36-3.28z"/><path d="m784.4 261.27c0 1.43.73 2.81 2.29 2.81a1.82 1.82 0 0 0 2-1.21h3.15a5 5 0 0 1 -5.22 3.68c-3.76 0-5.39-2.8-5.39-5.79 0-3.59 1.83-6.14 5.5-6.14 3.9 0 5.24 2.84 5.24 5.68a7.4 7.4 0 0 1 0 1zm4.4-1.94c0-1.32-.55-2.44-2.09-2.44s-2.11 1-2.24 2.44z"/><path d="m794.21 258c0-1.15 0-2.14 0-3.11h3.1c.05.27.09 1.39.09 2a3.67 3.67 0 0 1 3.65-2.27v3c-2.28-.06-3.65.55-3.65 3.68v5h-3.17z"/><path d="m803 253v-2.82h3.17v2.82zm0 1.84h3.17v11.4h-3.17z"/><path d="m811.59 261.27c0 1.43.73 2.81 2.29 2.81a1.81 1.81 0 0 0 2-1.21h3.12a5 5 0 0 1 -5.22 3.68c-3.76 0-5.39-2.8-5.39-5.79 0-3.59 1.83-6.14 5.51-6.14 3.89 0 5.23 2.84 5.23 5.68a7.4 7.4 0 0 1 0 1zm4.4-1.94c0-1.32-.55-2.44-2.09-2.44s-2.11 1-2.24 2.44z"/><path d="m821.43 257.77c0-1 0-2 0-2.89h3.06c.07.31.11 1.1.14 1.46a3.44 3.44 0 0 1 3.3-1.72c2.28 0 3.76 1.56 3.76 4.42v7.24h-3.15v-6.88c0-1.3-.42-2.23-1.82-2.23s-2.09.75-2.09 2.78v6.33h-3.17z"/><path d="m844.42 262.61c-.38 1.89-1.72 3.94-5.11 3.94s-5.37-2.45-5.37-5.88 2-6.05 5.53-6.05c3.83 0 4.9 2.77 4.95 4.05h-3.06a1.79 1.79 0 0 0 -2-1.56c-1.45 0-2.27 1.25-2.27 3.45 0 2.44.88 3.54 2.25 3.54a1.94 1.94 0 0 0 2-1.49z"/><path d="m849 261.27c0 1.43.72 2.81 2.28 2.81a1.83 1.83 0 0 0 2-1.21h3.14a5 5 0 0 1 -5.21 3.68c-3.76 0-5.39-2.8-5.39-5.79 0-3.59 1.82-6.14 5.5-6.14 3.89 0 5.23 2.84 5.23 5.68a7.4 7.4 0 0 1 0 1zm4.4-1.94c0-1.32-.55-2.44-2.09-2.44s-2.12 1-2.25 2.44z"/><path d="m861.18 262.85a2 2 0 0 0 2.16 1.43c1.16 0 1.58-.42 1.58-1.12s-.48-1-2.11-1.41c-3.72-.92-4.31-2.07-4.31-3.67s1.16-3.46 4.6-3.46 4.64 1.89 4.73 3.43h-3c-.11-.42-.39-1.21-1.87-1.21-1 0-1.38.46-1.38 1s.35.84 2.2 1.28c3.8.88 4.35 2.18 4.35 3.85 0 1.89-1.45 3.61-4.9 3.61s-4.89-1.68-5.15-3.7z"/><path d="m874.64 254.88h1.76v-3.08h3.15v3.08h2.24v2.38h-2.24v5.63c0 .86.26 1.19 1.21 1.19h.7v2.16a6.8 6.8 0 0 1 -2.11.22c-2.22 0-3-1.19-3-3.19v-6h-1.76z"/><path d="m887 250.22v6a3.58 3.58 0 0 1 3.25-1.63c2.12 0 3.81 1.28 3.81 4.36v7.3h-3.06v-6.84c0-1.48-.53-2.27-1.85-2.27-1.76 0-2.09 1.32-2.09 3.06v6h-3.17v-15.98z"/><path d="m906.48 263.33a27.1 27.1 0 0 0 .15 2.95h-3a4.32 4.32 0 0 1 -.16-1.12c-.41.64-1.19 1.39-3.21 1.39-2.75 0-3.89-1.81-3.89-3.57 0-2.59 2.06-3.81 5.41-3.81h1.63v-.68c0-.81-.29-1.6-1.76-1.6-1.32 0-1.63.55-1.76 1.38h-3c.16-2 1.41-3.65 4.89-3.65 3 0 4.71 1.21 4.71 3.94zm-3.08-2.24h-1.28c-1.91 0-2.62.59-2.62 1.69a1.47 1.47 0 0 0 1.65 1.52c2 0 2.25-1.41 2.25-2.9z"/><path d="m908.32 254.88h1.76v-3.08h3.15v3.08h2.25v2.38h-2.25v5.63c0 .86.26 1.19 1.21 1.19h.71v2.16a6.9 6.9 0 0 1 -2.12.22c-2.22 0-2.95-1.19-2.95-3.19v-6h-1.76z"/><path d="m932.81 262.61c-.37 1.89-1.71 3.94-5.1 3.94-3.55 0-5.37-2.45-5.37-5.88s2-6.05 5.52-6.05c3.83 0 4.91 2.77 4.95 4.05h-3.06a1.78 1.78 0 0 0 -2-1.56c-1.45 0-2.26 1.25-2.26 3.45 0 2.44.88 3.54 2.24 3.54a1.94 1.94 0 0 0 2-1.49z"/><path d="m944.38 263.33a24.1 24.1 0 0 0 .16 2.95h-3a4.33 4.33 0 0 1 -.15-1.12c-.42.64-1.19 1.39-3.21 1.39-2.75 0-3.9-1.81-3.9-3.57 0-2.59 2.07-3.81 5.41-3.81h1.63v-.68c0-.81-.28-1.6-1.76-1.6-1.32 0-1.63.55-1.76 1.38h-3c.15-2 1.41-3.65 4.88-3.65 3 0 4.71 1.21 4.71 3.94zm-3.08-2.24h-1.3c-1.92 0-2.62.59-2.62 1.69a1.47 1.47 0 0 0 1.65 1.52c2 0 2.24-1.41 2.24-2.9z"/><path d="m947.35 257.77c0-1 0-2 0-2.89h3.06c.06.31.11 1.1.13 1.46a3.45 3.45 0 0 1 3.3-1.72c2.29 0 3.76 1.56 3.76 4.42v7.24h-3.14v-6.88c0-1.3-.42-2.23-1.83-2.23s-2.09.75-2.09 2.78v6.33h-3.17z"/><path d="m1 300.22h3.2v5.87a3.59 3.59 0 0 1 3.26-1.47c3.1 0 4.64 2.58 4.64 5.77s-1.67 6.16-4.95 6.16c-1.69 0-2.44-.51-3-1.35a5.51 5.51 0 0 1 -.15 1.08h-3c0-1.23 0-2.48 0-3.72zm5.46 6.93c-1.8 0-2.44 1.17-2.44 3.5 0 1.91.57 3.39 2.4 3.39 1.6 0 2.46-1.43 2.46-3.59.03-1.91-.69-3.3-2.39-3.3z"/><path d="m16.88 311.27c0 1.43.72 2.81 2.28 2.81a1.83 1.83 0 0 0 2-1.21h3.14a5 5 0 0 1 -5.21 3.68c-3.77 0-5.39-2.8-5.39-5.79 0-3.59 1.82-6.14 5.5-6.14 3.89 0 5.23 2.84 5.23 5.68a7.4 7.4 0 0 1 0 1zm4.4-1.94c0-1.32-.55-2.44-2.1-2.44s-2.11 1-2.24 2.44z"/><path d="m31 304.88h1.76v-3.08h3.15v3.08h2.24v2.38h-2.22v5.63c0 .86.26 1.19 1.21 1.19h.7v2.16a6.83 6.83 0 0 1 -2.11.22c-2.22 0-2.95-1.19-2.95-3.19v-6h-1.78z"/><path d="m49.68 313.33a27.1 27.1 0 0 0 .15 2.95h-3a4.32 4.32 0 0 1 -.16-1.12c-.41.64-1.19 1.39-3.21 1.39-2.75 0-3.89-1.81-3.89-3.57 0-2.59 2.06-3.81 5.41-3.81h1.62v-.68c0-.81-.29-1.6-1.76-1.6s-1.63.55-1.76 1.38h-3c.16-2 1.41-3.65 4.89-3.65 3 0 4.71 1.21 4.71 3.94zm-3.08-2.24h-1.28c-1.91 0-2.62.59-2.62 1.69a1.47 1.47 0 0 0 1.65 1.52c2 0 2.25-1.41 2.25-2.9z"/><path d="m52.62 316.28v-16.06h3.17v16.06z"/><path d="m61.89 309.7c.83-1.14 2.33-2.9 3.91-4.82h3.61l-4 4.32 4.33 7.08h-3.52l-2.88-5.06-1.45 1.41v3.65h-3.17v-16.06h3.17z"/><path d="m73.59 311.27c0 1.43.72 2.81 2.29 2.81a1.82 1.82 0 0 0 2-1.21h3.12a5 5 0 0 1 -5.22 3.68c-3.76 0-5.39-2.8-5.39-5.79 0-3.59 1.83-6.14 5.5-6.14 3.9 0 5.24 2.84 5.24 5.68a5.93 5.93 0 0 1 0 1zm4.4-1.94c0-1.32-.55-2.44-2.09-2.44s-2.11 1-2.25 2.44z"/><path d="m93.85 300.22v12.94 3.12h-3c-.07-.35-.13-.92-.15-1.19-.55.91-1.54 1.46-3.24 1.46-2.88 0-4.71-2.31-4.71-5.88s1.94-6.05 5.17-6.05c1.65 0 2.53.59 2.78 1.1v-5.5zm-5.43 13.78c2.15 0 2.42-1.81 2.42-3.44 0-2-.29-3.43-2.36-3.43-1.65 0-2.48 1.3-2.48 3.46s.85 3.41 2.42 3.41z"/><path d="m111.65 313.33a27.1 27.1 0 0 0 .15 2.95h-3a4.33 4.33 0 0 1 -.15-1.12c-.42.64-1.19 1.39-3.22 1.39-2.75 0-3.89-1.81-3.89-3.57 0-2.59 2.07-3.81 5.41-3.81h1.63v-.68c0-.81-.29-1.6-1.76-1.6s-1.63.55-1.76 1.38h-3c.15-2 1.4-3.65 4.88-3.65 3 0 4.71 1.21 4.71 3.94zm-3.08-2.24h-1.28c-1.91 0-2.62.59-2.62 1.69a1.47 1.47 0 0 0 1.66 1.52c2 0 2.24-1.41 2.24-2.9z"/><path d="m114.62 307.77c0-1 0-2 0-2.89h3.06c.06.31.1 1.1.13 1.46a3.44 3.44 0 0 1 3.3-1.72c2.29 0 3.76 1.56 3.76 4.42v7.24h-3.17v-6.88c0-1.3-.41-2.23-1.82-2.23s-2.09.75-2.09 2.78v6.33h-3.17z"/><path d="m138.2 300.22v12.94 3.12h-3c-.06-.35-.13-.92-.15-1.19-.55.91-1.54 1.46-3.24 1.46-2.88 0-4.7-2.31-4.7-5.88s1.93-6.05 5.17-6.05c1.65 0 2.53.59 2.77 1.1v-5.5zm-5.43 13.78c2.16 0 2.42-1.81 2.42-3.44 0-2-.29-3.43-2.35-3.43-1.65 0-2.49 1.3-2.49 3.46s.86 3.41 2.42 3.41z"/><path d="m149.05 311.27c0 1.43.73 2.81 2.29 2.81a1.82 1.82 0 0 0 2-1.21h3.15a5 5 0 0 1 -5.22 3.68c-3.76 0-5.39-2.8-5.39-5.79 0-3.59 1.83-6.14 5.5-6.14 3.9 0 5.24 2.84 5.24 5.68a5.93 5.93 0 0 1 -.05 1zm4.4-1.94c0-1.32-.55-2.44-2.09-2.44s-2.11 1-2.24 2.44z"/><path d="m158.88 307.77c0-1 0-2 0-2.89h3.06a13.21 13.21 0 0 1 .13 1.46 3.47 3.47 0 0 1 3.3-1.72c2.29 0 3.77 1.56 3.77 4.42v7.24h-3.14v-6.88c0-1.3-.42-2.23-1.83-2.23s-2.09.75-2.09 2.78v6.33h-3.17z"/><path d="m182.47 300.22v12.94 3.12h-3c-.07-.35-.14-.92-.16-1.19a3.41 3.41 0 0 1 -3.23 1.46c-2.88 0-4.71-2.31-4.71-5.88s1.93-6.05 5.17-6.05c1.65 0 2.53.59 2.77 1.1v-5.5zm-5.47 13.78c2.16 0 2.42-1.81 2.42-3.44 0-2-.28-3.43-2.35-3.43-1.65 0-2.49 1.3-2.49 3.46s.89 3.41 2.42 3.41z"/><path d="m187.88 311.27c0 1.43.73 2.81 2.29 2.81a1.82 1.82 0 0 0 2-1.21h3.15a5 5 0 0 1 -5.22 3.68c-3.76 0-5.39-2.8-5.39-5.79 0-3.59 1.83-6.14 5.5-6.14 3.9 0 5.24 2.84 5.24 5.68a5.93 5.93 0 0 1 0 1zm4.4-1.94c0-1.32-.55-2.44-2.09-2.44s-2.11 1-2.24 2.44z"/><path d="m207.15 313.33a24.1 24.1 0 0 0 .16 2.95h-3a4.33 4.33 0 0 1 -.15-1.12c-.42.64-1.19 1.39-3.21 1.39-2.75 0-3.9-1.81-3.9-3.57 0-2.59 2.07-3.81 5.41-3.81h1.63v-.68c0-.81-.28-1.6-1.76-1.6-1.32 0-1.63.55-1.76 1.38h-3c.15-2 1.41-3.65 4.88-3.65 3 0 4.71 1.21 4.71 3.94zm-3.08-2.24h-1.27c-1.92 0-2.62.59-2.62 1.69a1.47 1.47 0 0 0 1.65 1.52c2 0 2.24-1.41 2.24-2.9z"/><path d="m210.1 308c0-1.15 0-2.14 0-3.11h3.1c0 .27.09 1.39.09 2a3.66 3.66 0 0 1 3.65-2.27v3c-2.29-.06-3.65.55-3.65 3.68v5h-3.19z"/><path d="m221.39 311.27c0 1.43.72 2.81 2.28 2.81a1.83 1.83 0 0 0 2-1.21h3.14a5 5 0 0 1 -5.21 3.68c-3.77 0-5.39-2.8-5.39-5.79 0-3.59 1.82-6.14 5.5-6.14 3.89 0 5.23 2.84 5.23 5.68a7.4 7.4 0 0 1 0 1zm4.4-1.94c0-1.32-.55-2.44-2.09-2.44s-2.12 1-2.25 2.44z"/><path d="m241.65 300.22v12.94 3.12h-3c-.07-.35-.14-.92-.16-1.19a3.41 3.41 0 0 1 -3.23 1.46c-2.89 0-4.71-2.31-4.71-5.88s1.93-6.05 5.17-6.05c1.65 0 2.53.59 2.77 1.1v-5.5zm-5.44 13.78c2.16 0 2.42-1.81 2.42-3.44 0-2-.28-3.43-2.35-3.43-1.65 0-2.49 1.3-2.49 3.46s.86 3.41 2.42 3.41z"/><path d="m250 300.22h3.16v5.87a3.59 3.59 0 0 1 3.26-1.47c3.1 0 4.64 2.58 4.64 5.77s-1.67 6.16-4.95 6.16c-1.69 0-2.44-.51-3-1.35a5.51 5.51 0 0 1 -.13 1.08h-3c0-1.23 0-2.48 0-3.72zm5.45 6.93c-1.8 0-2.44 1.17-2.44 3.5 0 1.91.57 3.39 2.4 3.39 1.6 0 2.46-1.43 2.46-3.59-.01-1.91-.73-3.3-2.43-3.3z"/><path d="m265.41 304.88c1.16 3.94 2.2 7.44 2.37 8.5.25-1.15.93-3.7 2.27-8.5h3.15l-3.83 11.73c-1.08 3.28-2 4.25-4.73 4.25a13.32 13.32 0 0 1 -1.48-.09v-2.53h.82a2 2 0 0 0 2.18-1.65l-4.16-11.71z"/><path d="m279.18 304.88h1.76v-3.08h3.15v3.08h2.24v2.38h-2.24v5.63c0 .86.26 1.19 1.21 1.19h.7v2.16a6.83 6.83 0 0 1 -2.11.22c-2.22 0-2.95-1.19-2.95-3.19v-6h-1.76z"/><path d="m291.54 300.22v6a3.6 3.6 0 0 1 3.26-1.63c2.11 0 3.81 1.28 3.81 4.36v7.3h-3.13v-6.84c0-1.48-.53-2.27-1.85-2.27-1.76 0-2.09 1.32-2.09 3.06v6h-3.17v-15.98z"/><path d="m304.06 311.27c0 1.43.73 2.81 2.29 2.81a1.82 1.82 0 0 0 2-1.21h3.15a5 5 0 0 1 -5.22 3.68c-3.76 0-5.39-2.8-5.39-5.79 0-3.59 1.83-6.14 5.5-6.14 3.9 0 5.24 2.84 5.24 5.68a5.93 5.93 0 0 1 -.05 1zm4.4-1.94c0-1.32-.55-2.44-2.09-2.44s-2.11 1-2.24 2.44z"/><path d="m319.31 320.64v-13c0-.92 0-1.82 0-2.75h3.06a11.9 11.9 0 0 1 .11 1.43 3.61 3.61 0 0 1 3.3-1.69c2.58 0 4.54 2.16 4.54 5.68 0 4-2.21 6.25-5 6.25a3.19 3.19 0 0 1 -2.88-1.28v5.37zm5.43-13.49c-1.78 0-2.42 1.17-2.42 3.46s.59 3.43 2.29 3.43 2.48-1.3 2.48-3.61c0-2.09-.83-3.28-2.35-3.28z"/><path d="m335.08 311.27c0 1.43.73 2.81 2.29 2.81a1.82 1.82 0 0 0 2-1.21h3.15a5 5 0 0 1 -5.22 3.68c-3.76 0-5.39-2.8-5.39-5.79 0-3.59 1.83-6.14 5.5-6.14 3.9 0 5.24 2.84 5.24 5.68a7.4 7.4 0 0 1 0 1zm4.4-1.94c0-1.32-.55-2.44-2.09-2.44s-2.11 1-2.24 2.44z"/><path d="m355.5 310.56c0 3.46-2.07 6-5.68 6s-5.59-2.53-5.59-5.92 2.14-6 5.74-6c3.35-.02 5.53 2.36 5.53 5.92zm-8.08 0c0 2.2.95 3.5 2.47 3.5s2.42-1.3 2.42-3.47c0-2.38-.88-3.5-2.47-3.5s-2.42 1.09-2.42 3.49z"/><path d="m357.76 320.64v-13c0-.92 0-1.82 0-2.75h3.06c0 .31.11 1 .11 1.43a3.58 3.58 0 0 1 3.3-1.69c2.57 0 4.53 2.16 4.53 5.68 0 4-2.2 6.25-4.95 6.25a3.18 3.18 0 0 1 -2.88-1.28v5.37zm5.44-13.49c-1.79 0-2.42 1.17-2.42 3.46s.59 3.43 2.28 3.43 2.49-1.3 2.49-3.61c0-2.09-.84-3.28-2.35-3.28z"/><path d="m371 316.28v-16.06h3.17v16.06z"/><path d="m379.63 311.27c0 1.43.73 2.81 2.29 2.81a1.82 1.82 0 0 0 2-1.21h3.15a5 5 0 0 1 -5.22 3.68c-3.76 0-5.39-2.8-5.39-5.79 0-3.59 1.83-6.14 5.5-6.14 3.9 0 5.24 2.84 5.24 5.68a5.93 5.93 0 0 1 -.05 1zm4.4-1.94c0-1.32-.55-2.44-2.09-2.44s-2.11 1-2.24 2.44z"/><path d="m404.34 313.33a27.1 27.1 0 0 0 .15 2.95h-3a4.32 4.32 0 0 1 -.16-1.12c-.41.64-1.18 1.39-3.21 1.39-2.75 0-3.89-1.81-3.89-3.57 0-2.59 2.06-3.81 5.41-3.81h1.63v-.68c0-.81-.29-1.6-1.76-1.6-1.32 0-1.63.55-1.76 1.38h-3c.16-2 1.41-3.65 4.89-3.65 3 0 4.71 1.21 4.71 3.94zm-3.08-2.24h-1.26c-1.91 0-2.62.59-2.62 1.69a1.47 1.47 0 0 0 1.62 1.52c2 0 2.25-1.41 2.25-2.9z"/><path d="m407.28 308c0-1.15 0-2.14 0-3.11h3.1c.05.27.09 1.39.09 2a3.67 3.67 0 0 1 3.65-2.27v3c-2.28-.06-3.65.55-3.65 3.68v5h-3.17z"/><path d="m426.67 310.56c0 3.46-2.07 6-5.68 6s-5.59-2.53-5.59-5.92 2.14-6 5.75-6c3.34-.02 5.52 2.36 5.52 5.92zm-8.08 0c0 2.2 1 3.5 2.47 3.5s2.42-1.3 2.42-3.47c0-2.38-.88-3.5-2.47-3.5s-2.42 1.09-2.42 3.49z"/><path d="m439 313v3.3h-3.08c-.05-.31-.07-.92-.09-1.32a3.25 3.25 0 0 1 -3.15 1.59c-2.31 0-3.78-1.41-3.78-4.23v-7.44h3.1v6.8c0 1.26.4 2.29 1.76 2.29s2-.77 2-3v-6.08h3.24z"/><path d="m441.93 307.77c0-1 0-2 0-2.89h3.07a13.21 13.21 0 0 1 .13 1.46 3.47 3.47 0 0 1 3.3-1.72c2.29 0 3.77 1.56 3.77 4.42v7.24h-3.2v-6.88c0-1.3-.42-2.23-1.83-2.23s-2.09.75-2.09 2.78v6.33h-3.17z"/><path d="m465.52 300.22v12.94 3.12h-3c-.07-.35-.13-.92-.16-1.19a3.41 3.41 0 0 1 -3.23 1.46c-2.88 0-4.71-2.31-4.71-5.88s1.94-6.05 5.17-6.05c1.65 0 2.53.59 2.77 1.1v-5.5zm-5.44 13.78c2.16 0 2.43-1.81 2.43-3.44 0-2-.29-3.43-2.36-3.43-1.65 0-2.49 1.3-2.49 3.46s.86 3.41 2.42 3.41z"/><path d="m472.76 304.88h1.76v-3.08h3.14v3.08h2.25v2.38h-2.25v5.63c0 .86.27 1.19 1.21 1.19h.71v2.16a6.9 6.9 0 0 1 -2.12.22c-2.22 0-2.94-1.19-2.94-3.19v-6h-1.76z"/><path d="m485.12 300.22v6a3.59 3.59 0 0 1 3.26-1.63c2.11 0 3.8 1.28 3.8 4.36v7.3h-3.12v-6.84c0-1.48-.53-2.27-1.85-2.27-1.76 0-2.09 1.32-2.09 3.06v6h-3.12v-15.98z"/><path d="m497.64 311.27c0 1.43.72 2.81 2.29 2.81a1.82 1.82 0 0 0 2-1.21h3.14a5 5 0 0 1 -5.21 3.68c-3.76 0-5.39-2.8-5.39-5.79 0-3.59 1.83-6.14 5.5-6.14 3.89 0 5.24 2.84 5.24 5.68a5.93 5.93 0 0 1 0 1zm4.4-1.94c0-1.32-.55-2.44-2.09-2.44s-2.11 1-2.25 2.44z"/><path d="m515.17 304.88c1 4.58 1.59 7.18 1.81 8.61.24-1.28.57-3.06 2-8.61h2.93c1.27 5.62 1.67 7.27 1.82 8.48.25-1.17.6-2.86 1.92-8.48h3.12l-3.39 11.4h-3.38c-.95-4.31-1.48-6.6-1.74-8.1-.18 1.44-.8 4-1.81 8.1h-3.39l-3.23-11.4z"/><path d="m541.29 310.56c0 3.46-2.07 6-5.68 6s-5.61-2.56-5.61-5.93 2.14-6 5.74-6c3.37-.01 5.55 2.37 5.55 5.93zm-8.08 0c0 2.2.95 3.5 2.47 3.5s2.42-1.3 2.42-3.47c0-2.38-.88-3.5-2.47-3.5s-2.42 1.09-2.42 3.49z"/><path d="m543.55 308c0-1.15 0-2.14 0-3.11h3.1c0 .27.09 1.39.09 2a3.67 3.67 0 0 1 3.65-2.27v3c-2.29-.06-3.65.55-3.65 3.68v5h-3.17z"/><path d="m552.33 316.28v-16.06h3.17v16.06z"/><path d="m568.87 300.22v12.94 3.12h-3c-.06-.35-.13-.92-.15-1.19-.55.91-1.54 1.46-3.24 1.46-2.88 0-4.71-2.31-4.71-5.88s1.94-6.05 5.17-6.05c1.65 0 2.54.59 2.78 1.1v-5.5zm-5.43 13.78c2.16 0 2.42-1.81 2.42-3.44 0-2-.29-3.43-2.35-3.43-1.66 0-2.49 1.3-2.49 3.46s.86 3.41 2.42 3.41z"/><path d="m571.45 316.28v-3.87h3.36v3.87z"/></svg>