<svg viewBox="0 0 960 219.02" xmlns="http://www.w3.org/2000/svg"><path d="m0 2.34h3l1.2 7.22c.22 1.56.46 3.14.68 4.72h.12c.3-1.58.62-3.18.94-4.72l1.68-7.22h2.52l1.72 7.22c.32 1.52.62 3.12.94 4.72h.1c.22-1.6.44-3.18.66-4.72l1.16-7.22h2.82l-2.74 14.8h-3.68l-1.66-7.32c-.24-1.16-.46-2.3-.64-3.42h-.08c-.2 1.12-.4 2.26-.64 3.42l-1.62 7.32h-3.62z"/><path d="m19.52 1.18h2.92v4l-.12 2.1a5.1 5.1 0 0 1 3.52-1.64c2.42 0 3.46 1.68 3.46 4.5v7h-2.94v-6.62c0-1.72-.48-2.34-1.58-2.34a3.22 3.22 0 0 0 -2.34 1.26v7.7h-2.92z"/><path d="m31.76 14.1c0-2.4 1.94-3.66 6.44-4.14 0-1.1-.52-1.94-1.9-1.94a6.33 6.33 0 0 0 -3.08 1.06l-1.06-1.94a9 9 0 0 1 4.68-1.48c2.84 0 4.3 1.7 4.3 4.94v6.54h-2.4l-.22-1.2h-.06a5.27 5.27 0 0 1 -3.38 1.48 3.18 3.18 0 0 1 -3.32-3.32zm6.44-.1v-2.24c-2.72.36-3.64 1.1-3.64 2.1s.62 1.26 1.48 1.26a3 3 0 0 0 2.16-1.12z"/><path d="m44.56 13.22v-5h-1.56v-2.14l1.72-.14.34-3h2.44v3h2.76v2.32h-2.76v5c0 1.28.52 1.88 1.52 1.88a3.27 3.27 0 0 0 1.1-.24l.48 2.1a7.24 7.24 0 0 1 -2.36.42c-2.66 0-3.68-1.68-3.68-4.2z"/><path d="m51.84 11.56c0-3.64 2.54-5.9 5.22-5.9 3.08 0 4.68 2.26 4.68 5.36a5.46 5.46 0 0 1 -.14 1.34h-6.9a2.94 2.94 0 0 0 3.1 2.8 4.62 4.62 0 0 0 2.52-.78l1 1.8a7.07 7.07 0 0 1 -3.92 1.24c-3.12 0-5.56-2.18-5.56-5.86zm7.38-1.14c0-1.52-.68-2.48-2.12-2.48a2.53 2.53 0 0 0 -2.44 2.48z"/><path d="m62.86 5.94h3l1.64 5.58c.28 1.1.6 2.26.9 3.4h.1c.28-1.14.6-2.3.9-3.4l1.6-5.58h2.82l-3.74 11.2h-3.4z"/><path d="m75 11.56c0-3.64 2.54-5.9 5.22-5.9 3.08 0 4.68 2.26 4.68 5.36a5.46 5.46 0 0 1 -.14 1.34h-6.9a2.94 2.94 0 0 0 3.1 2.8 4.62 4.62 0 0 0 2.52-.78l1 1.8a7.07 7.07 0 0 1 -3.92 1.24c-3.14 0-5.56-2.18-5.56-5.86zm7.38-1.14c0-1.52-.68-2.48-2.12-2.48a2.53 2.53 0 0 0 -2.44 2.48z"/><path d="m87.3 5.94h2.4l.2 2h.1a3.88 3.88 0 0 1 3.18-2.26 3.17 3.17 0 0 1 1.32.24l-.5 2.52a3.53 3.53 0 0 0 -1.16-.18c-.88 0-1.94.58-2.58 2.2v6.68h-2.96z"/><path d="m110.4 16.3c.52 0 1.06.06 1.6.06 1.12 0 5 0 6.38-.06a8.09 8.09 0 0 0 -.8 2.28h-5.7c-3.66 0-6.14-.52-7.82-2.84a9 9 0 0 1 -2.8 3.18 9.59 9.59 0 0 0 -1.8-1.66 8.45 8.45 0 0 0 3.72-6.06l2.38.36c-.14.64-.3 1.24-.46 1.82a4.4 4.4 0 0 0 2.88 2.5v-5.08h-7.8v-2.1h17.64v2.1h-7.42v1.5h6.16v2.06h-6.16zm5.52-8.48h-13.92v-6.94h13.9zm-2.42-5.28h-9.16v1h9.16zm0 2.58h-9.16v1h9.16z"/><path d="m138.2 8.06v2.58h-18.4v-2.58z"/><path d="m157.5 9a36.33 36.33 0 0 1 -3.68 2.42 10.19 10.19 0 0 0 4.46 4 10 10 0 0 0 -1.66 2.06c-3.56-1.9-5.54-5.58-6.68-10.24a12.86 12.86 0 0 1 -1.66 1.16c3.78 3.28 3.62 8.26 1.64 9.7a3.29 3.29 0 0 1 -2.44.84 16.58 16.58 0 0 1 -1.7 0 5 5 0 0 0 -.68-2.28c.76.06 1.4.1 1.92.1a1.42 1.42 0 0 0 1.2-.42 2.61 2.61 0 0 0 .66-2.24 30.84 30.84 0 0 1 -7.64 4 10.25 10.25 0 0 0 -1.24-2.1 23 23 0 0 0 8.34-4 7.8 7.8 0 0 0 -.38-.7 29.47 29.47 0 0 1 -6.06 3 8.55 8.55 0 0 0 -1.2-1.8 21.54 21.54 0 0 0 6.18-2.6c-.16-.16-.32-.32-.5-.48a29.83 29.83 0 0 1 -4.74 1.7 14.1 14.1 0 0 0 -1.22-1.86 24.18 24.18 0 0 0 6.12-2h-2.92v-2h10.74v2h-2.36a17.68 17.68 0 0 0 .82 2.32 24.06 24.06 0 0 0 2.78-2.18zm-14.62-2.76h-2.34v-4.46h7.2v-1.56h2.44v1.56h7.32v4.46h-2.44v-2.3h-12.18z"/><path d="m166 10.72c-.64.2-1.28.4-1.92.58v5.06c0 1.1-.18 1.7-.78 2.08a5.19 5.19 0 0 1 -2.78.44 9.71 9.71 0 0 0 -.58-2.2 15.77 15.77 0 0 0 1.64 0c.24 0 .34-.08.34-.34v-4.4c-.66.2-1.32.38-1.9.54l-.52-2.28c.68-.14 1.52-.36 2.42-.58v-3.46h-2.1v-2.16h2.1v-3.78h2.08v3.78h1.82v2.16h-1.82v2.84l1.62-.46zm12.42 5.9v1.72h-13.1v-1.72zm-.42-13.06h-12v-1.72h4.86v-1.62h2.26v1.62h4.88zm-.68 6.86h-10.5v-6.2h10.5zm-10 5.56v-4.92h9.4v4.94zm7.9-10.58h-6.48v3.84h6.48zm-5.78 7.6h5.1v-.74h-5.1zm0 1.84h5.1v-.72h-5.1zm4.86-6.2h-4.68v-2.64h4.68zm-1.5-1.64h-1.72v.72h1.72z"/><path d="m197.4 12.78a33.68 33.68 0 0 1 -3.68 2.22 13.23 13.23 0 0 0 4.66 1.72 10.57 10.57 0 0 0 -1.5 2.14 11.75 11.75 0 0 1 -8.88-7.16h-2.3v4.24l4.32-.64.1 2.1c-3.06.5-6.36 1-8.78 1.36l-.54-2.18c.72-.08 1.54-.2 2.44-.3v-4.58h-3.24v-2.1h3.32v-8.72h12.62v1.94h-10.2v1.06h9.62v1.84h-9.62v1h9.62v1.84h-9.62v1h12.26v2.1h-2.14zm-6.88-1.08a9.52 9.52 0 0 0 1.58 2.08 28.17 28.17 0 0 0 3.06-2.08z"/><path d="m218 3.52c-.74.64-1.56 1.28-2.28 1.8a13.11 13.11 0 0 0 2.78 1 9.68 9.68 0 0 0 -1.5 1.92 15.3 15.3 0 0 1 -2.26-.94v1.84a1.25 1.25 0 0 0 0 .48.27.27 0 0 0 .22.08h.34a.9.9 0 0 0 .26 0 .36.36 0 0 0 .2-.24 6.41 6.41 0 0 0 .08-.92 5.22 5.22 0 0 0 1.66.88 4.63 4.63 0 0 1 -.3 1.28 1.24 1.24 0 0 1 -.74.56 3.1 3.1 0 0 1 -1 .14h-1a1.92 1.92 0 0 1 -1.32-.44c-.34-.34-.46-.72-.46-1.84v-1.18h-1.68a4.64 4.64 0 0 1 -2.2 4 9.3 9.3 0 0 0 -1.24-1.32v.88h-2.1v-.24h-2c-.08.44-.16.86-.26 1.28h4.44s0 .56 0 .84c-.22 2.88-.46 4.2-1 4.74a2.15 2.15 0 0 1 -1.6.68 22.37 22.37 0 0 1 -2.66 0 4.59 4.59 0 0 0 -.68-2c1 .08 2 .1 2.42.1a1.05 1.05 0 0 0 .74-.18c.26-.24.42-1 .56-2.48h-2.58l-.12.48-1.9-.3a48.48 48.48 0 0 0 1-4.94h3.68v-1.42h-3.3v-.14c-.46.22-.92.4-1.4.58a11.79 11.79 0 0 0 -1.28-1.74 13.23 13.23 0 0 0 3.34-1.52 19.39 19.39 0 0 0 -1.86-1.24l1.34-1.26a14.6 14.6 0 0 1 2.06 1.26 10.05 10.05 0 0 0 1.18-1.28h-3.94v-1.82h5.22l.4-.1 1.46.72a11.62 11.62 0 0 1 -3.72 4.72h2.56v4a2.89 2.89 0 0 0 1.44-2.68v-1.42h4a13.87 13.87 0 0 1 -4.18-5.4l1.9-.54a10.59 10.59 0 0 0 1.16 1.94 16.14 16.14 0 0 0 1.82-1.82l1.7 1.22c-.8.66-1.66 1.36-2.4 1.9a11.7 11.7 0 0 0 1.08.9 16.41 16.41 0 0 0 2.16-2zm-1.46 8.8a8.88 8.88 0 0 1 -2.3 3.76 13.18 13.18 0 0 0 3.5.88 8.93 8.93 0 0 0 -1.4 1.92 12.6 12.6 0 0 1 -3.94-1.46 14.13 14.13 0 0 1 -4.12 1.46 7.42 7.42 0 0 0 -1-1.72 13.56 13.56 0 0 0 3.44-1 8.81 8.81 0 0 1 -1.72-2.26l1.3-.36h-1.9v-1.54h6.44l.36-.06zm-5.6 1.22a6 6 0 0 0 1.48 1.54 6 6 0 0 0 1.4-1.54z"/><path d="m223.28 8.26a11.5 11.5 0 0 1 -2.26 2.9 8.46 8.46 0 0 0 -1.52-1.64 11.93 11.93 0 0 0 3.4-4.46h-2.9v-2.06h3.28v-2.78h2.26v2.78h2.82v2h-2.82v.8a38.3 38.3 0 0 1 3.16 2.2l-1.24 1.9c-.46-.5-1.2-1.22-1.92-1.88v4.18h-2.26zm-3.64 8.44a13.68 13.68 0 0 0 1.74-4.12l2.12.84a19.55 19.55 0 0 1 -1.68 4.36zm11.42-.32c.94 0 1.08-.28 1.2-2.3a5.78 5.78 0 0 0 2.14.84c-.3 2.86-1 3.56-3.16 3.56h-3.6c-2.72 0-3.4-.66-3.4-2.74v-2.74h2.34v2.7c0 .6.2.68 1.28.68zm-2.32-5 .4.36v-10.54h8.12v10.8h-7.92c.78.72 1.64 1.56 2.12 2.12l-1.72 1.44a29.8 29.8 0 0 0 -2.64-2.78zm2.56-7.18h3.7v-1.12h-3.7zm0 2.92h3.7v-1.12h-3.7zm0 2.94h3.7v-1.16h-3.7zm4.62 2.22c.8 1.24 2 2.94 2.5 4l-2.22 1.14c-.48-1.06-1.58-2.82-2.36-4.16z"/><path d="m257 10.4v8.46h-2.48v-1.14h-11.06v1.16h-2.46v-8.48h2.42v5h4.18v-6h-5.8v-7.32h2.36v4.92h3.44v-6.6h2.44v6.6h3.64v-4.92h2.5v7.26h-6.14v6h4.46v-5z"/><path d="m278 3.16v2.14h-18.1v-2.14h4.26a13.41 13.41 0 0 0 -1.5-2.2l2.26-.78a11.05 11.05 0 0 1 1.86 2.6l-1.1.38h5.56a22.42 22.42 0 0 0 1.64-3l2.58.76c-.48.78-1 1.56-1.52 2.26zm-9.1 13.36c0 1-.2 1.58-.88 1.92a6.27 6.27 0 0 1 -2.78.38 8.22 8.22 0 0 0 -.76-2h1.8s.32-.08.32-.32v-1.78h-3.34v4h-2.26v-12.04h7.9zm-5.64-7.84v1.24h3.34v-1.24zm3.34 4.3v-1.3h-3.34v1.32zm6.2 2.06h-2.18v-8.16h2.18zm1.8-8.72h2.4v9.94c0 1.18-.22 1.76-1 2.14a7.85 7.85 0 0 1 -3.28.4 8.34 8.34 0 0 0 -.86-2.24h2.4s.42-.08.42-.36z"/><path d="m283 11.64c-.12 2.44-.54 5.3-1.78 7.26a10.3 10.3 0 0 0 -1.88-1.42c1.32-2.14 1.44-5.26 1.44-7.56v-5.08h7.78v6.8zm6-8.3h-8.84v-2.16h8.84zm-6 3.66v2.5h3.22v-2.5zm15.36 2.28h-1.78v9.64h-2.36v-9.68h-2.32c-.18 3.06-.92 6.94-3.58 9.6a5.88 5.88 0 0 0 -1.76-1.6c2.78-2.82 3.06-6.78 3.06-9.74v-5.5l1.64.38a22.44 22.44 0 0 0 4.88-2l2.1 1.8a32.84 32.84 0 0 1 -6.3 2.14v2.6h6.42z"/><path d="m311.34 10.48a19.52 19.52 0 0 0 7.12 5.5 11.33 11.33 0 0 0 -1.72 2.02 21.07 21.07 0 0 1 -6.5-5.5v6.4h-2.54v-6.24a22 22 0 0 1 -6.5 5.34 12.16 12.16 0 0 0 -1.76-2 19.39 19.39 0 0 0 7.16-5.48h-6.48v-2.4h7.58v-2.56h-6.08v-2.36h6.08v-3h2.54v3h6.26v2.36h-6.26v2.56h7.7v2.36z"/><path d="m327.18 4.84a16.72 16.72 0 0 1 -.8 1.58h9.26v9.88c0 1.18-.22 1.82-1 2.18a8.81 8.81 0 0 1 -3.54.4 9.87 9.87 0 0 0 -.72-2.3c1 .06 2.18.06 2.52.06s.46-.12.46-.4v-1.24h-7.26v3.82h-2.36v-8.7a14.66 14.66 0 0 1 -2.64 2.34 13.4 13.4 0 0 0 -1.56-1.82 15.53 15.53 0 0 0 5-5.84h-4.38v-2.2h5.38a20 20 0 0 0 .76-2.42l2.46.56c-.2.62-.4 1.24-.64 1.86h9.76v2.24zm6.14 3.66h-7.22v1.28h7.22zm0 4.56v-1.3h-7.22v1.3z"/><path d="m357.82 3.28s0 .8 0 1.08c-.26 8.94-.48 12.12-1.3 13.18a2.67 2.67 0 0 1 -1.92 1.1 22.42 22.42 0 0 1 -3.14 0 5.6 5.6 0 0 0 -.78-2.32c1.28.12 2.46.12 3 .12a1.07 1.07 0 0 0 .88-.34c.58-.64.84-3.64 1.06-10.7h-4.32a17.25 17.25 0 0 1 -1.76 3.16 14.86 14.86 0 0 0 -1.54-1.08v9.34h-5.34v1.46h-2.16v-14.86h2.26a21.45 21.45 0 0 0 .58-3.22l2.6.36c-.34 1-.7 2-1 2.86h3.06v3.24a20.69 20.69 0 0 0 2.7-6.44l2.3.52a23.21 23.21 0 0 1 -.78 2.54zm-12 2.22h-3.18v3.24h3.18zm0 9.22v-3.92h-3.18v3.92zm6.64-1.08a42.8 42.8 0 0 0 -2.76-4.64l1.86-1a48.27 48.27 0 0 1 2.94 4.44z"/><path d="m363.54 5.68v-.76a19.3 19.3 0 0 1 -1.78 1.46h8v6.22h-6.46c0 .26-.08.54-.14.8h6.9v5.38h-2.06v-.56h-3.38v.62h-2v-3.3a9.49 9.49 0 0 1 -1.54 2.92 7.49 7.49 0 0 0 -1.56-1.46c1.76-2.3 2-5.5 2-7.76v-2.68l-.66.44a6.74 6.74 0 0 0 -1.42-1.68 13.84 13.84 0 0 0 5-4.88h2.12a39.45 39.45 0 0 1 4.18 3.56l-1.52 1.8c-.28-.32-.64-.72-1.06-1.16v1zm4.08 5.26v-.76h-4.12v.76zm-4.1-2.94v.72h4.1v-.72zm4.08-4c-.58-.56-1.2-1.14-1.78-1.6-.42.52-.88 1.06-1.4 1.6zm-3 11v1.42h3.4v-1.32zm8.56-1.22h-2.24v-11.16h2.24zm4.46-13.18v15.4c0 1.32-.26 2-1.06 2.34a8.84 8.84 0 0 1 -3.72.48 9.73 9.73 0 0 0 -.78-2.42h2.74s.5-.12.5-.46v-15.34z"/><path d="m379.58 17.22a6.61 6.61 0 0 0 2.62-3.38l2 .7a7.63 7.63 0 0 1 -2.76 3.94zm18.08-10.92h-17.3v-1.84h4.28a12.14 12.14 0 0 0 -.5-1.34h.1-2.9v-1.86h6.44v-1.06h2.36v1.06h6.46v1.84h-2.82l.3.06c-.3.52-.6.94-.84 1.3h4.42zm-6.8 10.46c.74 0 .86-.22 1-1.64a6.42 6.42 0 0 0 2 .76c-.26 2.22-.9 2.78-2.76 2.78h-3.22c-2.52 0-3.14-.58-3.14-2.48v-2.1h2.16l-.24-.1.82-.8h-5v-6.06h13.26v6.06h-6.5a12.72 12.72 0 0 1 2.08 1.22l-1.44 1.48a12.48 12.48 0 0 0 -2.88-1.72v2c0 .54.16.6 1.06.6zm-6.14-7.32h8.64v-.86h-8.64zm0 2.28h8.64v-.9h-8.64zm1.8-8.62a12.18 12.18 0 0 1 .48 1.3l-.26.06h4.44l-.28-.06c.18-.38.42-.88.58-1.3zm8.58 10.5a14.69 14.69 0 0 1 3.26 3.62l-2 1.14a16.58 16.58 0 0 0 -3.14-3.74z"/><path d="m402.22 18.28c1.56-.5 2.46-1.36 2.58-2.42a.75.75 0 0 1 -.22 0 1.77 1.77 0 0 1 -1.9-1.78 1.82 1.82 0 0 1 2-1.8c1.42 0 2.16 1.06 2.16 2.74a5 5 0 0 1 -3.94 4.86z"/><path d="m434 15.68v2.46h-18v-2.46h5.64v-9.6h-5.24v-2.34h4.06a14.69 14.69 0 0 0 -1.46-2.74l2.12-.82a14 14 0 0 1 1.78 3.2l-.76.32h4.86a20.61 20.61 0 0 0 1.86-3.52l2.66.7c-.6 1-1.22 2-1.8 2.86h3.84v2.34h-5.26v9.6zm-14.64-8.1a23.72 23.72 0 0 1 1.76 6.1l-2.3.58a22.58 22.58 0 0 0 -1.6-6.12zm4.66 8.1h1.92v-9.6h-1.94zm4.62-2a36.07 36.07 0 0 0 1.86-6.24l2.58.58a58.1 58.1 0 0 1 -2.28 6.22z"/><path d="m440.3 14.34c.78 1.34 2.18 1.9 4.22 2 2.4.1 7.12 0 9.88-.18a10.84 10.84 0 0 0 -.74 2.32c-2.48.12-6.72.16-9.16.06s-4-.68-5.18-2.22c-.8.78-1.62 1.54-2.64 2.4l-1.12-2.36a24 24 0 0 0 2.44-1.86v-4.36h-2.2v-2.14h4.5zm-1.42-9a15.58 15.58 0 0 0 -3-3.32l1.82-1.32a17.38 17.38 0 0 1 3.14 3.18zm3.9 3.9c-.26.12-.5.22-.76.32a7.45 7.45 0 0 0 -1.4-1.68 13.68 13.68 0 0 0 4.7-2.36h-4v-1.74h5.24v-1c-1.38.08-2.76.14-4.06.16a6 6 0 0 0 -.5-1.6 65.83 65.83 0 0 0 9.9-.88l1.46 1.54c-1.32.26-2.88.46-4.54.62v1.16h5.26v1.78h-4.08a12.79 12.79 0 0 0 4.54 2.08 9 9 0 0 0 -1.38 1.74 12.46 12.46 0 0 1 -4.32-2.66v1.82h-2.26v-1.74a13.57 13.57 0 0 1 -3 2.08h5.62 1.54c-.1.48-.2 1-.32 1.52h3.26s0 .5-.06.78c-.18 2.22-.42 3.28-.88 3.74a2.19 2.19 0 0 1 -1.44.6 19.43 19.43 0 0 1 -2.44 0 4.32 4.32 0 0 0 -.56-1.76c.84.08 1.64.1 2 .1s.5 0 .66-.18a3.15 3.15 0 0 0 .44-1.6h-1.34l-.18.74-2-.3c.16-.52.32-1.2.46-1.88h-1.42c-.36 2.48-1.36 4.2-4.56 5.22a5.49 5.49 0 0 0 -1.2-1.78c2.52-.66 3.28-1.78 3.58-3.44h-2z"/><path d="m460.3 14.34c.78 1.34 2.18 1.9 4.22 2 2.4.1 7.12 0 9.88-.18a10.84 10.84 0 0 0 -.74 2.32c-2.48.12-6.72.16-9.16.06s-4-.68-5.18-2.22c-.8.78-1.62 1.54-2.64 2.4l-1.12-2.36a24 24 0 0 0 2.44-1.86v-4.36h-2.2v-2.14h4.5zm-1.42-9a15.58 15.58 0 0 0 -3-3.32l1.82-1.32a17.38 17.38 0 0 1 3.14 3.18zm4.92 10.26h-2.06v-8.7h1.48v-6.12h8.62v6.12h1.46v6.68c0 .92-.16 1.44-.78 1.76a5.83 5.83 0 0 1 -2.5.32 6.69 6.69 0 0 0 -.48-1.72h-3v.6h-1.7v-5h5.16v4.3h.82c.22 0 .28-.06.28-.26v-4.88h-7.3zm1.48-8.7h1.2v-3.12h3.22v-1.24h-4.42zm3 4.14h-1.8v1.38h1.8zm1.38-5.78h-1.56v1.64h1.56z"/><path d="m492.12 3.1a16 16 0 0 1 -4.62 4.64 28.59 28.59 0 0 0 7.08 2 11.29 11.29 0 0 0 -1.58 2.26c-.64-.12-1.24-.28-1.86-.44v7.28h-2.56v-.66h-7.24v.74h-2.34v-7.38c-.76.22-1.52.42-2.28.58a9.63 9.63 0 0 0 -1.2-2.12 32.7 32.7 0 0 0 7.36-2.28 20.05 20.05 0 0 1 -2.4-2.1 20.63 20.63 0 0 1 -2.8 2.12 14.78 14.78 0 0 0 -1.76-1.78 16.12 16.12 0 0 0 6.36-5.96l2.26.78c-.28.44-.56.9-.88 1.34h6.34l.4-.12zm-1.48 8.32a25.61 25.61 0 0 1 -5.52-2.28 29.68 29.68 0 0 1 -5.72 2.28zm-2 4.66v-2.5h-7.24v2.5zm-6.58-11.92a16.29 16.29 0 0 0 3.06 2.36 14.93 14.93 0 0 0 3.06-2.36z"/><path d="m508.52 5.92c.42 5.84 1.64 10.46 3.1 10.46.42 0 .66-1.06.76-3.6a6.36 6.36 0 0 0 2.08 1.4c-.36 3.78-1.16 4.7-3.06 4.7-3.42 0-4.92-5.92-5.4-13h-9.94v-2.28h9.82c0-1.08-.06-2.2-.06-3.3h2.56v3.3h3.16a14.16 14.16 0 0 0 -2.34-2.1l1.6-1.3a14.94 14.94 0 0 1 2.62 2.22l-1.36 1.18h1.88v2.32zm-6.32 9c1.22-.22 2.5-.46 3.72-.7l.18 2.12c-3.28.72-6.8 1.46-9.38 2l-.66-2.4c1-.16 2.34-.36 3.78-.6v-4.84h-3v-2.3h8.58v2.3h-3.2z"/><path d="m532.12 3.1a16 16 0 0 1 -4.62 4.64 28.59 28.59 0 0 0 7.08 2 11.29 11.29 0 0 0 -1.58 2.26c-.64-.12-1.24-.28-1.86-.44v7.28h-2.56v-.66h-7.24v.74h-2.34v-7.38c-.76.22-1.52.42-2.28.58a9.63 9.63 0 0 0 -1.2-2.12 32.7 32.7 0 0 0 7.36-2.28 20.05 20.05 0 0 1 -2.4-2.1 20.63 20.63 0 0 1 -2.8 2.12 14.78 14.78 0 0 0 -1.76-1.78 16.12 16.12 0 0 0 6.36-5.96l2.26.78c-.28.44-.56.9-.88 1.34h6.34l.4-.12zm-1.48 8.32a25.61 25.61 0 0 1 -5.52-2.28 29.68 29.68 0 0 1 -5.72 2.28zm-2 4.66v-2.5h-7.24v2.5zm-6.58-11.92a16.29 16.29 0 0 0 3.06 2.36 14.93 14.93 0 0 0 3.06-2.36z"/><path d="m541.62 12.58c-.24-.58-.66-1.48-1.1-2.34v8.62h-2.16v-7.48a16.87 16.87 0 0 1 -1.82 3.94 11.41 11.41 0 0 0 -1-2.1 20 20 0 0 0 2.68-6.7h-2.22v-2.2h2.4v-4.12h2.16v4.12h2v2.2h-2v.88c.54.74 2 2.94 2.32 3.48zm5.44.82a8.24 8.24 0 0 1 -4.14 5.16 9.68 9.68 0 0 0 -1.22-1.56 6.43 6.43 0 0 0 2.78-2.5h-2.18v-1.6h3.12l.34-.06zm7.14-1c-1 .72-2 1.46-2.94 2a9 9 0 0 0 3.32 2.16 9.06 9.06 0 0 0 -1.4 1.74 9.88 9.88 0 0 1 -3.68-3.2v1.56c0 1-.18 1.52-.86 1.84a6.62 6.62 0 0 1 -2.76.34 6.44 6.44 0 0 0 -.6-1.94h1.68s.32-.06.32-.28v-4.36h-3.28v-1.62h4.8c-.92-.38-1.94-.76-2.82-1l.58-.64h-4.08v-1.76h4.76v-.78h-3.48v-1.62h3.48v-.74h-4.24v-1.68h2.12a12.36 12.36 0 0 0 -.9-1.58l1.78-.64a11.68 11.68 0 0 1 1.22 2l-.52.22h3.22l-.4-.14a18.33 18.33 0 0 0 1-2.08l2.1.6-1.2 1.62h2.46v1.68h-4.4v.74h3.92v1.62h-3.92v.78h4.74v1.76h-5a16.94 16.94 0 0 1 2.5 1.08l-1.26 1.42c-.28-.16-.62-.34-1-.52v1a7.69 7.69 0 0 0 .72 1.24 20.88 20.88 0 0 0 2.24-2.06z"/><path d="m573.82 3.28s0 .8 0 1.08c-.26 8.94-.48 12.12-1.3 13.18a2.67 2.67 0 0 1 -1.92 1.1 22.42 22.42 0 0 1 -3.14 0 5.6 5.6 0 0 0 -.78-2.32c1.28.12 2.46.12 3 .12a1.07 1.07 0 0 0 .88-.34c.58-.64.84-3.64 1.06-10.7h-4.32a17.25 17.25 0 0 1 -1.76 3.16 14.86 14.86 0 0 0 -1.54-1.08v9.34h-5.34v1.46h-2.16v-14.86h2.26a21.45 21.45 0 0 0 .58-3.22l2.6.36c-.34 1-.7 2-1 2.86h3.06v3.24a20.69 20.69 0 0 0 2.7-6.44l2.3.52a23.21 23.21 0 0 1 -.78 2.54zm-12 2.22h-3.18v3.24h3.18zm0 9.22v-3.92h-3.18v3.92zm6.64-1.08a42.8 42.8 0 0 0 -2.76-4.64l1.86-1a48.27 48.27 0 0 1 2.94 4.44z"/><path d="m584.32 5.66c-.06.86-.12 1.74-.22 2.6h7.72a9.73 9.73 0 0 1 -.08 1c-.36 5.44-.78 7.68-1.58 8.56a3 3 0 0 1 -2.16.92 27.39 27.39 0 0 1 -3.42 0 5.53 5.53 0 0 0 -.84-2.34c1.38.14 2.78.14 3.36.14a1.28 1.28 0 0 0 1-.26c.52-.44.88-2.18 1.16-5.82h-5.5a11.74 11.74 0 0 1 -6.46 8.54 7.6 7.6 0 0 0 -1.68-2c5.4-2.5 5.86-7.06 6.08-11.34h-5.7v-2.28h7.66v-3.26h2.46v3.26h7.88v2.28z"/><path d="m608.52 5.92c.42 5.84 1.64 10.46 3.1 10.46.42 0 .66-1.06.76-3.6a6.36 6.36 0 0 0 2.08 1.4c-.36 3.78-1.16 4.7-3.06 4.7-3.42 0-4.92-5.92-5.4-13h-9.94v-2.28h9.82c0-1.08-.06-2.2-.06-3.3h2.56v3.3h3.16a14.16 14.16 0 0 0 -2.34-2.1l1.6-1.3a14.94 14.94 0 0 1 2.62 2.22l-1.36 1.18h1.88v2.32zm-6.32 9c1.22-.22 2.5-.46 3.72-.7l.18 2.12c-3.28.72-6.8 1.46-9.38 2l-.66-2.4c1-.16 2.34-.36 3.78-.6v-4.84h-3v-2.3h8.58v2.3h-3.2z"/><path d="m634.18 12.42h-2.18v3.9c0 1.16-.16 1.78-.94 2.16a8 8 0 0 1 -3.28.42 9.26 9.26 0 0 0 -.68-2.32h2.26s.4-.08.4-.34v-3.82h-6.88v-2.08h1a7.85 7.85 0 0 0 -1.14-1.62 15.76 15.76 0 0 0 3.26-1.16 11.06 11.06 0 0 0 -1.78-1.68l-.68.36a15.9 15.9 0 0 0 -1.3-1.3v13.94h-2.24v-6.78h-1.3c0 1.66-.22 4.76-1.52 6.8a9.32 9.32 0 0 0 -1.74-1.14 11.65 11.65 0 0 0 1.2-5.68h-1v-2h4.36v-2.3h-3.6v-6.66h2.06v4.54h1.54v-5.44h2.18v4.48a13 13 0 0 0 5.52-4.48l2.3.6a10.39 10.39 0 0 1 -.72.92h2.64l.38-.08 1.48.68c-1.68 4.3-5.38 6.74-9.58 8h5.52v-2.34h2.28v2.32h2.22zm-8.56.14a13.77 13.77 0 0 1 2.18 2.82l-2 1.16a13.28 13.28 0 0 0 -2-2.92zm2-5.9a10.3 10.3 0 0 0 .9-.64 10 10 0 0 0 -2-1.62c-.26.18-.5.38-.76.56a13.19 13.19 0 0 1 1.82 1.7zm.18-3.32a13.77 13.77 0 0 1 2 1.52 10.4 10.4 0 0 0 1.14-1.52z"/><path d="m642.06 14.58 1.9 1.5a35.15 35.15 0 0 1 -6.64 2.78 12.44 12.44 0 0 0 -1.54-1.76 26.91 26.91 0 0 0 6.1-2.52h-5.88v-2.18h3.38v-8h-2.78v-2.2h2.78v-1.94h2.36v1.94h6.3v-1.94h2.42v1.94h2.92v2.18h-2.88v8h3.42v2.18zm-.28-10.2v1.24h6.3v-1.24zm0 4.56h6.3v-1.34h-6.3zm0 3.46h6.3v-1.46h-6.3zm5.9 2.32a57.7 57.7 0 0 1 6.34 2.6l-2.28 1.5a38.24 38.24 0 0 0 -5.74-2.64z"/><path d="m663 1.24a32.21 32.21 0 0 1 -2.08 4v13.6h-2.38v-10.2a22.66 22.66 0 0 1 -2 2.12 17.45 17.45 0 0 0 -1.38-2.52 20.67 20.67 0 0 0 5.52-7.78zm8 15.18c1 0 1.12-.68 1.28-3.5a6.87 6.87 0 0 0 2.2 1c-.28 3.44-.9 4.7-3.26 4.7h-3.42c-2.52 0-3.24-.8-3.24-3.62v-14.28h2.4v6.84a34 34 0 0 0 5-3.5l1.76 2.08a48.45 48.45 0 0 1 -6.8 3.86v5c0 1.18.14 1.38 1.1 1.38z"/><path d="m693.78 11.86c-.34 3.88-.68 5.56-1.3 6.2a2.13 2.13 0 0 1 -1.5.74 17.27 17.27 0 0 1 -2.38 0 5.2 5.2 0 0 0 -.64-2.12 15.66 15.66 0 0 0 1.94.1.86.86 0 0 0 .66-.22c.32-.32.58-1.32.82-3.6h-11.9c-.32.24-.66.46-1 .68l1.82.58a8.36 8.36 0 0 1 -2.34 4.52l-1.86-1.18a7.22 7.22 0 0 0 2.16-3.78c-.48.3-1 .56-1.48.82a14.63 14.63 0 0 0 -1.24-2.08 18.24 18.24 0 0 0 7.66-6.86h-6.42v-2.04h3.36a16.64 16.64 0 0 0 -1.26-2.54l2.06-.8a13.8 13.8 0 0 1 1.54 2.92l-1 .42h2.9a22.65 22.65 0 0 0 1.36-3.42l2.38.66q-.51 1.41-1.14 2.76h3.92c-.2 1.2-.5 2.56-.76 3.66h2.28c-.22 1.2-.48 2.6-.72 3.68h2.14zm-10.88 2.38a13.89 13.89 0 0 1 .54 3.68l-2.06.26a13.75 13.75 0 0 0 -.4-3.7zm.5-4.9a18.93 18.93 0 0 1 -1.5 1.66h7.64c.12-.48.24-1 .36-1.62zm2.46 4.54a15.88 15.88 0 0 1 1 3.24l-1.9.48a17.42 17.42 0 0 0 -.92-3.32zm0-8.18c-.3.54-.62 1.06-1 1.58h3.14c.12-.48.24-1 .34-1.58zm2.22 10.86a11.33 11.33 0 0 0 -1.18-2.7l1.64-.56a10.39 10.39 0 0 1 1.3 2.64z"/><path d="m703.26 14-7.26 2.08-.6-2.24c.8-.18 1.78-.44 2.86-.72v-4h-2.26v-2.2h2.22v-3.48h-2.4v-2.2h7v2.2h-2.3v3.48h2.08v2.18h-2.08v3.42l2.38-.66zm8.88 2.78c.36 0 .44-.32.48-2.32a6.12 6.12 0 0 0 2 .88c-.2 2.74-.72 3.48-2.2 3.48h-1.5c-1.84 0-2.24-.68-2.24-2.7v-3.96h-1.22c-.36 3.26-1.28 5.58-5.54 6.84a7 7 0 0 0 -1.32-2c3.62-.9 4.26-2.54 4.52-4.88h-1.46v-11.12h9.76v11.2h-2.46v3.92c0 .58 0 .66.38.66zm-6.28-12.6h5.22v-1.28h-5.22zm0 3h5.22v-1.24h-5.22zm0 3h5.22v-1.18h-5.22z"/><path d="m728.9 16c1.84.52 3.68 1.1 4.92 1.52l-2.06 1.32c-1.34-.54-3.66-1.32-5.94-2l1-.86h-3.82l1.18.8a22.23 22.23 0 0 1 -6.76 2 11.27 11.27 0 0 0 -1.42-1.44 27.84 27.84 0 0 0 5.3-1.34h-2.88v-6.62h13.26v6.62zm5-10.52v1.72h-3.34l-.14 1.58h-11.56l.2-1.58h-2.92v-1.68h3.14l.2-1.6h11.36l-.16 1.6zm-15.24-.6h-2.14v-3.46h7.3v-1.22h2.38v1.22h7.34v3.5h-2.22v-1.64h-12.7zm2.1 6.28h8.54v-.58h-8.54zm0 1.78h8.54v-.6h-8.54zm0 1.8h8.54v-.62h-8.54zm.38-7.18h2.52l.04-.56h-2.52zm.32-2.48-.08.62h2.52l.06-.62zm6.9 2.48.06-.62h-2.7l-.08.62zm.22-2.48h-2.66l-.06.62h2.66z"/><path d="m753.82 3.28s0 .8 0 1.08c-.26 8.94-.48 12.12-1.3 13.18a2.67 2.67 0 0 1 -1.92 1.1 22.42 22.42 0 0 1 -3.14 0 5.6 5.6 0 0 0 -.78-2.32c1.28.12 2.46.12 3 .12a1.07 1.07 0 0 0 .88-.34c.58-.64.84-3.64 1.06-10.7h-4.32a17.25 17.25 0 0 1 -1.76 3.16 14.86 14.86 0 0 0 -1.54-1.08v9.34h-5.34v1.46h-2.16v-14.86h2.26a21.45 21.45 0 0 0 .58-3.22l2.6.36c-.34 1-.7 2-1 2.86h3.06v3.24a20.69 20.69 0 0 0 2.7-6.44l2.3.52a23.21 23.21 0 0 1 -.78 2.54zm-12 2.22h-3.18v3.24h3.18zm0 9.22v-3.92h-3.18v3.92zm6.64-1.08a42.8 42.8 0 0 0 -2.76-4.64l1.86-1a48.27 48.27 0 0 1 2.94 4.44z"/><path d="m759.54 5.68v-.76a19.3 19.3 0 0 1 -1.78 1.46h8v6.22h-6.46c0 .26-.08.54-.14.8h6.9v5.38h-2.06v-.56h-3.38v.62h-2v-3.3a9.49 9.49 0 0 1 -1.54 2.92 7.49 7.49 0 0 0 -1.56-1.46c1.76-2.3 2-5.5 2-7.76v-2.68l-.66.44a6.74 6.74 0 0 0 -1.42-1.68 13.84 13.84 0 0 0 5-4.88h2.12a39.45 39.45 0 0 1 4.18 3.56l-1.52 1.8c-.28-.32-.64-.72-1.06-1.16v1zm4.08 5.26v-.76h-4.12v.76zm-4.1-2.94v.72h4.1v-.72zm4.08-4c-.58-.56-1.2-1.14-1.78-1.6-.42.52-.88 1.06-1.4 1.6zm-3 11v1.42h3.4v-1.32zm8.56-1.22h-2.24v-11.16h2.24zm4.46-13.18v15.4c0 1.32-.26 2-1.06 2.34a8.84 8.84 0 0 1 -3.72.48 9.73 9.73 0 0 0 -.78-2.42h2.74s.5-.12.5-.46v-15.34z"/><path d="m775.58 17.22a6.61 6.61 0 0 0 2.62-3.38l2 .7a7.63 7.63 0 0 1 -2.76 3.94zm18.08-10.92h-17.3v-1.84h4.28a12.14 12.14 0 0 0 -.5-1.34h.1-2.9v-1.86h6.44v-1.06h2.36v1.06h6.46v1.84h-2.82l.3.06c-.3.52-.6.94-.84 1.3h4.42zm-6.8 10.46c.74 0 .86-.22 1-1.64a6.42 6.42 0 0 0 2 .76c-.26 2.22-.9 2.78-2.76 2.78h-3.22c-2.52 0-3.14-.58-3.14-2.48v-2.1h2.16l-.24-.1.82-.8h-5v-6.06h13.26v6.06h-6.5a12.72 12.72 0 0 1 2.08 1.22l-1.44 1.48a12.48 12.48 0 0 0 -2.88-1.72v2c0 .54.16.6 1.06.6zm-6.14-7.32h8.64v-.86h-8.64zm0 2.28h8.64v-.9h-8.64zm1.8-8.62a12.18 12.18 0 0 1 .48 1.3l-.26.06h4.44l-.28-.06c.18-.38.42-.88.58-1.3zm8.58 10.5a14.69 14.69 0 0 1 3.26 3.62l-2 1.14a16.58 16.58 0 0 0 -3.14-3.74z"/><path d="m814.12 15.1v2.4h-18.18v-2.4h7.62v-10.34h-6.56v-2.48h16v2.48h-6.72v10.34z"/><path d="m822.34 1a31.15 31.15 0 0 1 -1.92 4.16v13.7h-2.42v-10c-.42.5-.84 1-1.24 1.44a16.25 16.25 0 0 0 -1.32-2.54 20.81 20.81 0 0 0 4.56-7.48zm6.34 4.72v2.1h5.18v2.18h-5.18v2.26h5.44v2.2h-5.44v4.44h-2.44v-13.18h-.76a22.21 22.21 0 0 1 -2.62 3.88 16.18 16.18 0 0 0 -1.86-1.66 19.85 19.85 0 0 0 4.28-7.54l2.3.58a23.64 23.64 0 0 1 -1 2.48h7.76v2.26z"/><path d="m853.9 16.22v2.1h-17.72v-2.1h7.52v-1.54h-5.7v-2h5.74v-1.68l-6 .16-.14-2.16h2.84c.3-.6.62-1.26.88-1.88h-2.88v-1.46h-2.2v-4.16h7.46v-1.28h2.44v1.28h7.64v4.16h-2.2v1.44h-2.5a25.3 25.3 0 0 1 4 3.5l-1.86 1.3a14.49 14.49 0 0 0 -1-1.12l-4.06.12v1.74h6.16v2h-6.16v1.54zm-15.34-12.56v1.42h12.8v-1.42zm5.44 3.44c-.36.62-.76 1.26-1.12 1.84l5.14-.1c-.38-.32-.76-.62-1.12-.88l1.28-.86z"/><path d="m862.08 15.42a3.23 3.23 0 1 1 -3.24-3.24 3.24 3.24 0 0 1 3.24 3.24zm-1.44 0a1.79 1.79 0 1 0 -1.8 1.78 1.79 1.79 0 0 0 1.8-1.78z"/><path d="m18 59.68a19.76 19.76 0 0 1 -3.32 4.38c.54 1.54 1.16 2.46 1.76 2.46.42 0 .66-1 .76-3.32a6.08 6.08 0 0 0 2 1.36c-.38 3.5-1.12 4.38-2.94 4.38-1.46 0-2.58-1.2-3.44-3.16a20.74 20.74 0 0 1 -3.7 2.44 10.43 10.43 0 0 0 -1.62-1.92 20.37 20.37 0 0 0 4.5-2.82 37.07 37.07 0 0 1 -1-5.36h-4.12v2.28l3.12-.56.14 2.16-3.26.66v3.42c0 1.3-.28 1.94-1.08 2.32a8.6 8.6 0 0 1 -3.6.46 9.55 9.55 0 0 0 -.84-2.4c1.12.06 2.28 0 2.64 0s.48-.1.48-.42v-2.9c-1.28.26-2.52.52-3.58.72l-.58-2.4c1.14-.18 2.58-.4 4.16-.68v-2.66h-3.78v-2.26h3.78v-2.28c-1.08.18-2.18.32-3.2.44a9.08 9.08 0 0 0 -.68-2.02 50.79 50.79 0 0 0 7.94-1.68l1.6 2c-1 .3-2.1.56-3.26.8v2.7h3.84c-.16-1.8-.22-3.66-.24-5.48h2.52a49.28 49.28 0 0 0 .2 5.48h5.44v2.26h-5.2c.16 1.2.36 2.36.58 3.38a16.63 16.63 0 0 0 1.9-2.72zm-1.46-4.4a15.86 15.86 0 0 0 -2.84-3.28l1.8-1.22a17.26 17.26 0 0 1 3 3.18z"/><path d="m31.58 58.88h-3.44v9.94h-2.2v-17.52c-.4 1.14-.86 2.32-1.38 3.46v14.1h-2.26v-10a16 16 0 0 1 -1.24 1.64 16.54 16.54 0 0 0 -1.14-2.56 22 22 0 0 0 4-7.72l2.2.66-.12.38h5.62zm-3.44-5.82v1.14h1.64v-1.14zm1.64 4v-1.16h-1.64v1.18zm8.64 9c0 1.32-.28 2-1.08 2.3a10.41 10.41 0 0 1 -4 .44 8.63 8.63 0 0 0 -.76-2.3c1.22.08 2.6.06 3 0s.52-.12.52-.5v-7.2h-3.62v-7.54h5.94zm-4.06-13v1.14h1.78v-1.14zm1.78 4v-1.16h-1.78v1.18z"/><path d="m48.26 60.42c-.3 4.16-1.2 7-6.62 8.5a7.21 7.21 0 0 0 -1.38-2.1c4.74-1.12 5.22-3.18 5.48-6.4zm-6.7-2.82 3.16-.06a29.7 29.7 0 0 0 1.28-3h-5.1v-2.22h7.48v-2.12h2.44v2.12h7.56v2.24h-4.92a31.65 31.65 0 0 1 4.86 5.06l-2.16 1.32a16.43 16.43 0 0 0 -1.1-1.5c-4.84.26-10 .48-13.42.62zm7.26-3c-.48 1-1 2-1.54 2.9l5.8-.18c-.56-.58-1.14-1.14-1.7-1.64l1.84-1.08zm7.18 12c.64 0 .76-.42.86-3.2a6.13 6.13 0 0 0 2.16.94c-.22 3.58-.82 4.5-2.8 4.5h-2.4c-2.24 0-2.8-.72-2.8-3v-5.52h2.4v5.44c0 .66.1.76.76.76z"/><path d="m73.38 50.42a23 23 0 0 0 5.94 7.12 11.39 11.39 0 0 0 -2 2.14c-.42-.38-.84-.82-1.28-1.28v.14c-.22 6-.46 8.4-1.16 9.24a2.41 2.41 0 0 1 -1.82.94 20 20 0 0 1 -3 .06 5.75 5.75 0 0 0 -.78-2.4c1.1.08 2.14.1 2.64.1a.93.93 0 0 0 .8-.28c.4-.42.62-2.2.8-6.38h-3.98c-.5 3.84-1.8 7.26-7 9.2a8 8 0 0 0 -1.54-2.2c4.52-1.46 5.56-4.08 6-7h-3.44v-1.4a15.07 15.07 0 0 1 -1.56 1.44 14.3 14.3 0 0 0 -2-1.92 16.58 16.58 0 0 0 5.9-7.48l2.56.74a24 24 0 0 1 -4 6.3h10.8a34 34 0 0 1 -4.26-6.14z"/><path d="m84.12 59.84c-.82-.58-2.54-1.52-3.72-2.16l1.28-1.76c1.1.54 2.88 1.4 3.76 1.94zm-3.44 7.16a59.11 59.11 0 0 0 3.8-6.3l1.74 1.6c-1.06 2.1-2.32 4.38-3.54 6.32zm4.32-12.62a41.39 41.39 0 0 0 -3.64-2.2l1.34-1.72c1.12.56 2.86 1.44 3.72 2zm8.86 3.9v2.52h4.08v8h-2.28v-.72h-6v.82h-2.16v-8.1h4.08v-2.52h-5.32v-2.28h5.32v-2.34c-1.32.2-2.64.34-3.9.46a8.38 8.38 0 0 0 -.66-2 39.36 39.36 0 0 0 9.34-1.88l1.84 1.88a25.56 25.56 0 0 1 -4.36 1.18v2.7h5.08v2.28zm1.8 4.72h-6v2.9h6z"/><path d="m117.62 66.06c0 1.28-.28 1.92-1.08 2.28a9.29 9.29 0 0 1 -3.84.42 9 9 0 0 0 -.76-2.28c1.12.06 2.44 0 2.8 0s.52-.12.52-.48v-3h-4.26v5.58h-2.4v-5.58h-4.08a11.45 11.45 0 0 1 -2.52 6 8.79 8.79 0 0 0 -1.88-1.54c2.18-2.4 2.36-6 2.36-8.76v-7.16h15.1zm-9-5.26v-2.46h-3.76v.36c0 .64 0 1.36-.06 2.1zm-3.76-7v2.32h3.76v-2.32zm10.38 0h-4.24v2.32h4.22zm0 7v-2.46h-4.24v2.46z"/><path d="m133.38 50.42a23 23 0 0 0 5.94 7.12 11.39 11.39 0 0 0 -2 2.14c-.42-.38-.84-.82-1.28-1.28v.14c-.22 6-.46 8.4-1.16 9.24a2.41 2.41 0 0 1 -1.82.94 20 20 0 0 1 -3 .06 5.75 5.75 0 0 0 -.78-2.4c1.1.08 2.14.1 2.64.1a.93.93 0 0 0 .8-.28c.4-.42.62-2.2.8-6.38h-3.94c-.5 3.84-1.8 7.26-7 9.2a8 8 0 0 0 -1.58-2.2c4.52-1.46 5.56-4.08 6-7h-3.38v-1.4a15.07 15.07 0 0 1 -1.6 1.44 14.3 14.3 0 0 0 -2-1.92 16.58 16.58 0 0 0 5.9-7.48l2.56.74a24 24 0 0 1 -4 6.3h10.8a34 34 0 0 1 -4.28-6.14z"/><path d="m147.88 55.32a24.32 24.32 0 0 1 -1.62 3h3.22v-2.32h2.4v2.3h5.74v6.2c0 1.1-.22 1.7-1 2.06a8.88 8.88 0 0 1 -3.34.36 8.37 8.37 0 0 0 -.74-2.16h2.26s.42-.08.42-.34v-3.82h-3.32v8.26h-2.4v-8.26h-3.16v6.5h-2.38v-5.78a16.72 16.72 0 0 1 -2.54 2.2 15.53 15.53 0 0 0 -1.34-2.1 15.52 15.52 0 0 0 5.16-6.1h-4.46v-2.32h5.48a21 21 0 0 0 .9-2.9l2.46.56q-.36 1.17-.78 2.34h9.76v2.28z"/><path d="m168.44 57.58s0 .66 0 .94c-.1 6.32-.2 8.68-.72 9.42a1.9 1.9 0 0 1 -1.34.84 11.48 11.48 0 0 1 -2.14.08 5.68 5.68 0 0 0 -.62-2.16c.66.06 1.2.06 1.52.06a.54.54 0 0 0 .58-.3c.26-.38.4-2.06.48-6.72h-1.64c-.24 3.8-.92 7-2.8 9.28a6.75 6.75 0 0 0 -1.68-1.78c2.14-2.62 2.3-6.8 2.34-11.8h-1.94v-2.2h3.12v-3h2.36v3h3.18v2.2h-4.44c0 .72 0 1.44-.06 2.14zm6.24-7.44c1 2.76 2.6 5.62 4.48 6.74a15 15 0 0 0 -1.16 2.42 14.12 14.12 0 0 1 -4.4-6.42 14.38 14.38 0 0 1 -4.34 6.46 11.36 11.36 0 0 0 -1.08-2.28c1.94-1.38 3.5-4.48 4.18-6.92zm-3.68 12.7a29 29 0 0 1 6.78 4l-1.58 2.08a28.83 28.83 0 0 0 -6.62-4.2zm3.68-.48a15.29 15.29 0 0 0 -3.4-3.1l1.56-1.5a17.23 17.23 0 0 1 3.54 2.92z"/><path d="m192.62 62.86a19.07 19.07 0 0 0 6.46 3.76 10.47 10.47 0 0 0 -1.7 2.06 19.82 19.82 0 0 1 -6.56-4.68v4.86h-2.46v-4.74a19.52 19.52 0 0 1 -6.44 4.52 13 13 0 0 0 -1.64-2 18.09 18.09 0 0 0 6.3-3.78h-4v-7.64h5.82v-1.14h-7.52v-2.22h7.52v-1.64h2.46v1.64h7.7v2.22h-7.7v1.14h6.1v7.64zm-7.78-4.68h3.52v-1.18h-3.52zm0 2.9h3.52v-1.22h-3.52zm6-4.08v1.18h3.68v-1.18zm3.68 2.86h-3.68v1.22h3.68z"/><path d="m206.08 63.72a18.13 18.13 0 0 1 -3.88 4.44 17.29 17.29 0 0 0 -1.94-1.38 12.21 12.21 0 0 0 3.38-3.84zm12.36-9.34h-17.62v-2.26h7.5v-1.92h2.52v1.92h7.6zm-7.6 7.78v4.22c0 1.2-.22 1.8-1.1 2.14a10.89 10.89 0 0 1 -3.66.36 9.55 9.55 0 0 0 -.76-2.28c1 0 2.28.06 2.6 0s.44-.08.44-.34v-4.1h-5.26v-6.38h13.22v6.38zm-5.36-2h8.32v-2.3h-8.32zm9.72 2.82a31.67 31.67 0 0 1 3.62 4.22l-2.34 1.18a30.09 30.09 0 0 0 -3.48-4.38z"/><path d="m224.74 68.52a37.54 37.54 0 0 0 -4.3-4.42l2.08-1.8a37.49 37.49 0 0 1 4.36 4.38z"/><path d="m239 62.24a18.49 18.49 0 0 1 -1.2 5.16 11.76 11.76 0 0 0 -1.82-.86 14.54 14.54 0 0 0 1.06-4.64zm16 3.9v2.16h-11.5v-2.16h2.06c.22-1.66.44-3.64.62-5.7h-2c0 .16.08.32.1.46l-1.68.76a9.59 9.59 0 0 0 -.26-1l-1 .08v8.16h-2.04v-8l-2.9.18-.2-2.08 1.44-.06c.3-.38.62-.82.94-1.28a19.63 19.63 0 0 0 -2.36-2.72l1.14-1.62.46.4a25.35 25.35 0 0 0 1.46-3.48l2.06.76c-.72 1.36-1.52 2.92-2.24 4 .24.28.48.54.68.8a36.27 36.27 0 0 0 1.78-3.24l1.94.9c-1.1 1.74-2.48 3.76-3.74 5.38l1.92-.08c-.22-.5-.46-1-.7-1.44l1.58-.66a20.27 20.27 0 0 1 1.58 3.54v-2h2.26c.14-1.64.24-3.28.32-4.82h-2.26v-2.12h8.94c0 2.18 0 4.6-.06 7h1.58v2.2h-1.62c-.06 2.08-.12 4-.2 5.7zm-11.94-4.4a22.05 22.05 0 0 1 1.24 3.6l-1.76.64a23.67 23.67 0 0 0 -1.16-3.72zm5.4-1.3c-.18 2.08-.38 4.06-.56 5.7h2.82c.1-1.68.2-3.64.26-5.7zm.5-7c-.1 1.54-.2 3.18-.34 4.82h2.42c0-1.62.06-3.26.06-4.82z"/><path d="m259 62.24a18.49 18.49 0 0 1 -1.2 5.16 11.76 11.76 0 0 0 -1.82-.86 14.54 14.54 0 0 0 1.06-4.64zm15.56-8.66s0 .8 0 1.1c-.26 8.76-.54 11.92-1.38 13a2.48 2.48 0 0 1 -1.92 1.1 19.09 19.09 0 0 1 -3.12.06 5.69 5.69 0 0 0 -.8-2.4c1.26.12 2.4.12 2.94.12a1 1 0 0 0 .84-.34c.6-.62.9-3.54 1.12-10.36h-5.52a16.48 16.48 0 0 1 -1.7 2.58 15.28 15.28 0 0 0 -1.88-1.32 15.93 15.93 0 0 1 1.56 3.74l-1.8.84a10.88 10.88 0 0 0 -.28-1.08l-1.14.08v8.2h-2.1v-8.06l-3 .2-.2-2.08 1.48-.06c.3-.38.62-.8.92-1.24a18.84 18.84 0 0 0 -2.4-2.74l1.12-1.64.48.42a24 24 0 0 0 1.46-3.48l2.1.74c-.72 1.38-1.54 2.92-2.26 4 .26.28.5.58.7.84a31.27 31.27 0 0 0 1.84-3.28l2 .84a64.39 64.39 0 0 1 -3.82 5.42l2-.08c-.22-.48-.46-1-.7-1.38l1.68-.74.14.24a15.92 15.92 0 0 0 3.3-6.66l2.44.52a22.94 22.94 0 0 1 -1 2.86zm-11.3 8.2a22.81 22.81 0 0 1 1.3 3.76l-1.88.66a20.36 20.36 0 0 0 -1.18-3.86zm4.68 2a18.89 18.89 0 0 0 -2.44-4.62l1.9-1a18.81 18.81 0 0 1 2.6 4.48z"/><path d="m280.74 68.52a37.54 37.54 0 0 0 -4.3-4.42l2.08-1.8a37.49 37.49 0 0 1 4.36 4.38z"/><path d="m305.54 52.2a26.58 26.58 0 0 1 5.38 5.64l-2.06 1.58a12.91 12.91 0 0 0 -1.28-1.82c-5.28.28-10.86.5-14.58.64l-.14-2.4 3.08-.08a34.32 34.32 0 0 0 2.94-5.7l2.74.88c-.84 1.58-1.84 3.26-2.8 4.72l6.78-.28c-.64-.64-1.3-1.24-1.92-1.78zm-10.54 7.86h13.3v8.78h-2.56v-.78h-8.32v.8h-2.42zm2.44 2.26v3.46h8.32v-3.46z"/><path d="m317.52 50.52h2.48v18.14h-2.5v-4.1c-1.52.66-3.06 1.3-4.36 1.84l-1.04-2.4c1.36-.4 3.4-1.1 5.42-1.82v-4.88h-4.72v-2.38h4.72zm10.4 15.62c.76 0 .88-.8 1-4a7 7 0 0 0 2.28 1.08c-.24 3.82-.82 5.28-3.06 5.28h-2.68c-2.28 0-2.94-.82-2.94-3.64v-14.32h2.48v6a39.76 39.76 0 0 0 4.1-3l1.72 2.14a59.13 59.13 0 0 1 -5.82 3.32v5.84c0 1.12.12 1.26.84 1.26z"/><path d="m350 56.48a16.57 16.57 0 0 1 -4.06 8 16.89 16.89 0 0 0 5.26 2 10.19 10.19 0 0 0 -1.66 2.32 17.37 17.37 0 0 1 -5.7-2.54 18.94 18.94 0 0 1 -5.18 2.54 9.86 9.86 0 0 0 -1.4-2.1 15.37 15.37 0 0 0 4.66-2.08 16.75 16.75 0 0 1 -3.3-4.9 14.85 14.85 0 0 1 -4.68 8.78 10.57 10.57 0 0 0 -1.72-2c4-3.4 4.36-8.4 4.36-11.66v-1.32h-3.18v-2.32h10.44l.42-.1 1.86.3c-.26 1.4-.62 3-1 4.54h2.78l.44-.1zm-11-3v.82a17 17 0 0 0 4.9 8.7 12.88 12.88 0 0 0 3-4.86h-2.36l-.22.88-2.5-.38c.44-1.6.9-3.52 1.26-5.14z"/><path d="m357.28 56.14c.66 1 2.18 3.58 2.52 4.22l-1.6 1.94c-.24-.74-.66-1.74-1.1-2.74v9.32h-2.18v-7.12a17.91 17.91 0 0 1 -1.6 3.6 13.55 13.55 0 0 0 -1.22-2.26 23.3 23.3 0 0 0 2.5-7h-2.12v-2.2h2.44v-3.68h2.18v3.72h2.1v2.2zm12.72-2.4v14.9h-2.48v-.88h-5.06v1h-2.38v-15h2.92a26.42 26.42 0 0 0 .7-3.5l2.82.3c-.34 1.1-.72 2.22-1.08 3.2zm-7.54 2.26v3.58h5.06v-3.58zm5.06 9.52v-3.72h-5.06v3.7z"/><path d="m379.7 62.38c-.36-.66-1-1.62-1.56-2.5v9h-2.32v-8a17.08 17.08 0 0 1 -2.54 4.64 13.15 13.15 0 0 0 -1.18-2.3 18.32 18.32 0 0 0 3.38-6.62h-2.82v-2.26h3.16v-4.14h2.32v4.14h2.62v2.24h-2.62v.32c.6.6 2.58 2.86 3 3.42zm7.84-5.8a20.87 20.87 0 0 0 3.66 7.18 9.72 9.72 0 0 0 -1.78 1.84 19.91 19.91 0 0 1 -2.36-4.76v8h-2.4v-8.1a18 18 0 0 1 -3.44 5.36 11.6 11.6 0 0 0 -1.34-2.18 18.8 18.8 0 0 0 4.4-7.36h-2.9v-2.22h3.28v-4.14h2.4v4.14h3.52v2.24z"/><path d="m410.48 53.28s0 .8 0 1.08c-.26 8.94-.48 12.12-1.3 13.18a2.67 2.67 0 0 1 -1.92 1.1 22.42 22.42 0 0 1 -3.14 0 5.6 5.6 0 0 0 -.78-2.32c1.28.12 2.46.12 3 .12a1.07 1.07 0 0 0 .88-.34c.58-.64.84-3.64 1.06-10.7h-4.28a17.25 17.25 0 0 1 -1.76 3.16 14.86 14.86 0 0 0 -1.54-1.12v9.34h-5.34v1.46h-2.16v-14.82h2.26a21.45 21.45 0 0 0 .54-3.22l2.6.36c-.34 1-.7 2-1 2.86h3.1v3.24a20.69 20.69 0 0 0 2.7-6.44l2.26.52a23.21 23.21 0 0 1 -.78 2.54zm-12 2.22h-3.18v3.24h3.18zm0 9.22v-3.92h-3.18v3.92zm6.64-1.08a42.8 42.8 0 0 0 -2.76-4.64l1.86-1a48.27 48.27 0 0 1 2.94 4.44z"/><path d="m418.42 60.68-1.82.56v5.16c0 1.1-.18 1.68-.8 2a5 5 0 0 1 -2.72.44 8.57 8.57 0 0 0 -.6-2.16h1.66s.34-.08.34-.36v-4.44l-1.88.52-.52-2.28c.68-.14 1.5-.36 2.4-.58v-3.38h-2v-2.16h2v-3.78h2.12v3.78h1.54v2.18h-1.54v2.82l1.52-.42zm2.24-1.06c0 2.82-.28 6.74-2 9.24a8.21 8.21 0 0 0 -1.76-1.18c1.62-2.28 1.76-5.56 1.76-8.06v-5.94h4.34v-3.42h2.28v1h4.56v1.64h-4.56v.8h3.72.32l1.46.28a19.48 19.48 0 0 1 -1 3.24l-1.76-.38a11.53 11.53 0 0 0 .4-1.42h-3.52v.74l2.64-.22.14 1.26-2.78.26v.08c0 .46.12.52.78.52h2.16c.48 0 .58-.12.64-.82a5.49 5.49 0 0 0 1.56.5c-.16 1.26-.66 1.62-2 1.62h-2.66c-1.92 0-2.44-.36-2.46-1.72l-1.92.18-.14-1.32 2.06-.18v-.9h-2.3zm10.1 3.1a17.16 17.16 0 0 1 -2 1.5 6.06 6.06 0 0 0 2.52 2.4 6.55 6.55 0 0 0 -1.26 1.6c-2.14-1.26-3.32-3.8-4-6.86a8.46 8.46 0 0 1 -1.16.8c2.48 2 2.34 5.14 1.26 6.12a2.13 2.13 0 0 1 -1.6.64c-.32 0-.68 0-1 0a3.43 3.43 0 0 0 -.48-1.64c.46 0 .82.06 1.14.06a.73.73 0 0 0 .7-.3 1.72 1.72 0 0 0 .26-1.2 17.12 17.12 0 0 1 -4.4 2.4 4.76 4.76 0 0 0 -.84-1.22 13.67 13.67 0 0 0 4.9-2.5 4.23 4.23 0 0 0 -.22-.42 16.05 16.05 0 0 1 -3.24 1.68 4.9 4.9 0 0 0 -.8-1.14 12.15 12.15 0 0 0 3.34-1.4c-.1-.12-.24-.22-.36-.34a14.59 14.59 0 0 1 -2 .74 8.51 8.51 0 0 0 -.7-1.16 13.44 13.44 0 0 0 3.18-1.16h-3v-1.54h9.72v1.52h-3.2a12.49 12.49 0 0 0 .52 1.6c.52-.4 1.06-.86 1.42-1.2z"/><path d="m432.12 68.08a7.2 7.2 0 0 0 1.36-3.54l1.6.48a7.79 7.79 0 0 1 -1.42 3.86zm.44-6 3.56-.1v-.98h-3.12v-1.8h3.08v-.88h-3.08v-7.52h8.46v7.54h-3.24v.88h3.2v1.78h-3.2v.88l3.52-.14v1.84c-3.24.2-6.66.38-9.08.48zm2.22-5.34h1.68v-4.34h-1.68v.84l.94-.28a13 13 0 0 1 .64 2.88l-1.06.32a12.7 12.7 0 0 0 -.52-2.78zm1.9 7.74a20.78 20.78 0 0 1 .42 3.5l-1.54.18a17.09 17.09 0 0 0 -.34-3.5zm2-.18a18.11 18.11 0 0 1 .86 3.32l-1.46.3a16.87 16.87 0 0 0 -.82-3.34zm1-11.9h-1.78v3.3a20.26 20.26 0 0 0 .76-2.76l1 .34zm0 4.34v-2.84c-.32.84-.64 1.7-.9 2.28l-.82-.3v.86zm1 7.14a12.76 12.76 0 0 1 1.54 3.1l-1.5.62a14 14 0 0 0 -1.46-3.2zm6.52-7.36v3.08h3.2v9.18h-2.4v-.7h-3.7v.78h-2.16v-9.26h2.62v-9.38h2.32v4.1h3.92v2.2zm.92 5.24h-3.7v4.18h3.58z"/><path d="m454.88 68.28c1.56-.5 2.46-1.36 2.58-2.42a.75.75 0 0 1 -.22 0 1.77 1.77 0 0 1 -1.9-1.78 1.82 1.82 0 0 1 2-1.8c1.42 0 2.16 1.06 2.16 2.74a5 5 0 0 1 -3.94 4.86z"/><path d="m476.88 63.24c-2.64 1.18-5.6 2.44-7.86 3.38l-.8-2.54c.76-.26 1.66-.58 2.66-1l-.4-11.68 2.48-.1.36 10.82c1-.42 2-.84 3-1.24zm8.28 5.62a35 35 0 0 0 -3.74-4.86 14.28 14.28 0 0 1 -6.08 4.86 14 14 0 0 0 -1.9-2.1c6.34-2.4 8.4-7.24 9.14-15.46l2.62.24a30.91 30.91 0 0 1 -2.44 10.16 43.62 43.62 0 0 1 4.44 5.14zm-7.5-10.26a20.38 20.38 0 0 0 -3-5l2.16-1.08a20.39 20.39 0 0 1 3.16 4.8z"/><path d="m498.82 66.26h7.4v2.14h-17v-2.14h7.14v-2.38h-5.56v-2.08h5.54v-2.3h-4.52v-1.58a25.59 25.59 0 0 1 -2.22 1.38 8.79 8.79 0 0 0 -1.5-1.92 21.83 21.83 0 0 0 8.12-7.24h2.46a21.14 21.14 0 0 0 8.56 7 11.59 11.59 0 0 0 -1.58 2.14 25.35 25.35 0 0 1 -2.16-1.34v1.56h-4.68v2.3h5.6v2.08h-5.6zm3.9-8.86a24.1 24.1 0 0 1 -5.16-5 23 23 0 0 1 -5 5z"/><path d="m521.54 63.46v-.8h-2.68v.82h-2.4v-6.18h-2.72v8h12.48v2.3h-12.48v1.26h-2.46v-11.56h-2.84v-2.3h2.84v-4.2h2.46v4.2h2.72v-4.64h2.4v4.64h2.68v-4.44h2.4v4.44h3v2.3h-3v6.16zm0-3v-3.16h-2.68v3.14z"/><path d="m541.56 59.38a14.22 14.22 0 0 0 5.48 2.7 10.67 10.67 0 0 0 -1.58 2 14.62 14.62 0 0 1 -3.38-1.62v6.32h-2.48v-7h1.5a12.07 12.07 0 0 1 -2.34-2.4h-2.06a13.53 13.53 0 0 1 -2.4 2.38h1.7v1.38c0 1.9-.58 4.42-4.56 5.88a8.79 8.79 0 0 0 -1.64-1.92c3.34-1.1 3.74-2.78 3.74-4.06v-.72a16 16 0 0 1 -3.64 1.86 11 11 0 0 0 -1.56-2 15 15 0 0 0 5.4-2.84h-3.18v-8.5h14.26v8.5zm-8.62-5.14h3.5v-1.44h-3.5zm0 3.22h3.5v-1.46h-3.5zm9.4-4.66h-3.5v1.44h3.5zm0 3.22h-3.5v1.44h3.5z"/><path d="m566.44 61.86c-.34 3.88-.68 5.56-1.3 6.2a2.13 2.13 0 0 1 -1.5.74 17.27 17.27 0 0 1 -2.38 0 5.2 5.2 0 0 0 -.64-2.12 15.66 15.66 0 0 0 1.94.1.86.86 0 0 0 .66-.22c.32-.32.58-1.32.82-3.6h-11.9c-.32.24-.66.46-1 .68l1.82.58a8.36 8.36 0 0 1 -2.34 4.52l-1.86-1.18a7.22 7.22 0 0 0 2.16-3.78c-.48.3-1 .56-1.48.82a14.63 14.63 0 0 0 -1.24-2.08 18.24 18.24 0 0 0 7.66-6.86h-6.42v-2.04h3.36a16.64 16.64 0 0 0 -1.26-2.54l2.06-.8a13.8 13.8 0 0 1 1.54 2.92l-1 .42h2.86a22.65 22.65 0 0 0 1.38-3.42l2.38.66q-.51 1.41-1.14 2.76h3.92c-.2 1.2-.5 2.56-.76 3.66h2.28c-.22 1.2-.48 2.6-.72 3.68h2.14zm-10.88 2.38a13.89 13.89 0 0 1 .54 3.68l-2.06.26a13.75 13.75 0 0 0 -.4-3.7zm.5-4.9a18.93 18.93 0 0 1 -1.5 1.62h7.64c.12-.48.24-1 .36-1.62zm2.46 4.54a15.88 15.88 0 0 1 1 3.24l-1.9.48a17.42 17.42 0 0 0 -.92-3.32zm0-8.18c-.3.54-.62 1.06-1 1.58h3.06c.12-.48.24-1 .34-1.58zm2.22 10.86a11.33 11.33 0 0 0 -1.18-2.7l1.64-.56a10.39 10.39 0 0 1 1.3 2.64z"/><path d="m586.68 66.7h-2.92v2.16h-2.26v-2.16h-5v-1.78h1.84v-1.7h-.82v-1.82h4v-1.16h-7.18a11.86 11.86 0 0 1 -.8 1.24h2.28l.36-.06 1.26.6a10.39 10.39 0 0 1 -7.26 6.88 7.66 7.66 0 0 0 -1.32-1.66 11.74 11.74 0 0 0 3.46-1.48 11.78 11.78 0 0 0 -1.62-1.5 11.59 11.59 0 0 1 -1 .68 11.69 11.69 0 0 0 -1.4-1.42 10 10 0 0 0 3.86-3.28h-2.92v-1.86h2.52v-1.3h-2.9v-1.9h2.9v-1.18c-.38.36-.8.72-1.24 1.06a7.07 7.07 0 0 0 -1.74-1.36 10.78 10.78 0 0 0 3.38-3.56l2.26.42a16.36 16.36 0 0 1 -.9 1.38h12.18v1.86h-1.88v1.38h2.76v1.9h-2.76v1.3h2.52v1.86h-2.52v1.16h2.42v1.82h-2.42v1.7h2.92zm-14.68-3.54a12.83 12.83 0 0 1 1.72 1.4 7.65 7.65 0 0 0 1.14-1.56h-2.72zm1.84-8h1.22v-1.36h-1.22zm0 3.2h1.22v-1.3h-1.22zm4.48-3.2v-1.36h-1.32v1.38zm-1.3 1.9v1.3h1.3v-1.3zm4.46 7.84v-1.7h-1.26v1.7zm.08-11.12h-1.26v1.38h1.28zm0 3.28h-1.26v1.3h1.28z"/><path d="m601.54 52.2a26.58 26.58 0 0 1 5.38 5.64l-2.06 1.58a12.91 12.91 0 0 0 -1.28-1.82c-5.28.28-10.86.5-14.58.64l-.14-2.4 3.08-.08a34.32 34.32 0 0 0 2.94-5.7l2.74.88c-.84 1.58-1.84 3.26-2.8 4.72l6.78-.28c-.64-.64-1.3-1.24-1.92-1.78zm-10.54 7.86h13.3v8.78h-2.56v-.78h-8.32v.8h-2.42zm2.44 2.26v3.46h8.32v-3.46z"/><path d="m609.28 68.28c1.56-.5 2.46-1.36 2.58-2.42a.75.75 0 0 1 -.22 0 1.77 1.77 0 0 1 -1.9-1.78 1.82 1.82 0 0 1 2-1.8c1.42 0 2.16 1.06 2.16 2.74a5 5 0 0 1 -3.94 4.86z"/><path d="m4.68 111.44v4.66c0 1.1-.18 1.68-.78 2a4.94 4.94 0 0 1 -2.76.46 7.82 7.82 0 0 0 -.62-2.18h1.66s.34-.08.34-.34v-4l-1.84.52-.54-2.3c.68-.14 1.48-.36 2.38-.58v-3.54h-2.16v-2.14h2.16v-3.8h2.16v3.8h2v2.2h-2v3l1.8-.48.32 2.14zm9.1 5c.46 0 .9.06 1.4.06h4a7 7 0 0 0 -.64 2.08h-3.46c-2.62 0-4.64-.48-6-2.9a8.84 8.84 0 0 1 -2.08 3.16 12.22 12.22 0 0 0 -1.74-1.42c1.66-1.32 2.48-3.54 2.78-6.26l2.16.26a18.18 18.18 0 0 1 -.38 2 4.49 4.49 0 0 0 1.74 2.34v-5.22h-4.72v-1.92h11.82v1.92h-4.88v1.76h3.82v1.86h-3.82zm3.88-8.76h-9.84v-6.9h9.84zm-2.28-5.24h-5.38v1h5.38zm0 2.54h-5.38v1h5.38z"/><path d="m26.76 100.94a36.68 36.68 0 0 1 -1.9 4.16v13.76h-2.34v-10.14c-.42.54-.84 1-1.26 1.48a13.92 13.92 0 0 0 -1.26-2.48 20.91 20.91 0 0 0 4.56-7.48zm4.66 13.24a18.46 18.46 0 0 1 -4 4.64 13.28 13.28 0 0 0 -1.86-1.5 12.43 12.43 0 0 0 3.62-3.82zm7.58-3.82v2.32h-13v-2.32h2.68v-4h-2.2v-2.26h2.18v-3.74h2.34v3.74h2.9v-3.76h2.3v3.76h2.6v2.28h-2.6v4zm-8 0h2.9v-4h-2.9zm4.48 3.12a24.76 24.76 0 0 1 3.4 4.12l-2 1.26a22.18 22.18 0 0 0 -3.3-4.32z"/><path d="m46.56 105.26a26.8 26.8 0 0 1 -1.56 2.42v11.24h-2.18v-8.56a17.71 17.71 0 0 1 -1.56 1.48 14.45 14.45 0 0 0 -1.26-2.22 16.79 16.79 0 0 0 4.46-5.14zm-.34-4.26a24.59 24.59 0 0 1 -4.78 4.88 18.2 18.2 0 0 0 -1.24-1.74 16.71 16.71 0 0 0 3.92-4zm7.72 15.36a9.39 9.39 0 0 0 1.52.1h3.52a7 7 0 0 0 -.66 2.14h-3.06c-2.72 0-4.84-.66-6.3-3.12a8.85 8.85 0 0 1 -2.12 3.34 10.46 10.46 0 0 0 -1.8-1.52c1.88-1.6 2.56-4.34 2.74-7.68l2.3.18c-.08 1-.18 1.92-.34 2.8a5.74 5.74 0 0 0 2 2.94v-7.24h.72a14.24 14.24 0 0 0 -1.28-.9c1.94-1.5 3-4.08 3.4-7.18l2.22.26a20 20 0 0 1 -.76 3.34 26.59 26.59 0 0 1 3.1 3.2l-1.58 1.58a21.34 21.34 0 0 0 -2.36-2.72 10.57 10.57 0 0 1 -1.66 2.42h.42v2.82h3.84v2h-3.86zm-2.38-9.58a15.49 15.49 0 0 0 -1.56-1.38 11.64 11.64 0 0 1 -2.42 3.44 10.79 10.79 0 0 0 -1.68-1.62c1.78-1.54 2.86-4.12 3.36-7l2.26.34a21.49 21.49 0 0 1 -.76 2.92 18.2 18.2 0 0 1 1.9 1.48z"/><path d="m64.24 107.7c0 3.24-.28 8-2.08 11.06a8.29 8.29 0 0 0 -2-1.16c1.68-2.84 1.8-7 1.8-9.9v-6.06h7v-1.42h2.38v1.42h7.18v2h-3.12v1h3v1.44h-3v2.12h-8.12v-2.12h-3v-1.44h3v-1h-3zm9.7 8.3c1.78.48 3.84 1.14 5 1.6l-2.18 1.32a39.69 39.69 0 0 0 -4.68-1.68l1.56-1.24h-4.72l1.6 1.16a25.73 25.73 0 0 1 -5.34 1.76 14.23 14.23 0 0 0 -1.44-1.48 25.39 25.39 0 0 0 4.68-1.44h-3.22v-5h5v-.68h-5.92v-1.5h14.28v1.5h-6.18v.68h5.12v5zm-6.58-3.08h2.8v-.8h-2.8zm0 1.92h2.8v-.84h-2.8zm5.7-11.2h-3.54v1h3.54zm0 2.44h-3.54v.84h3.54zm-.68 6v.8h2.84v-.8zm2.84 1.92h-2.84v.8h2.84z"/><path d="m98.46 107.26v2.2h-17.62v-2.2h8v-2.26h-4.32a14 14 0 0 1 -1.64 2.26 13.76 13.76 0 0 0 -2.18-1.26 14.3 14.3 0 0 0 3.4-5.72l2.38.6a17.86 17.86 0 0 1 -.78 1.94h3.18v-2.6h2.52v2.6h5.84v2.18h-5.84v2.3zm-15.32 3.62h13.4v8h-2.54v-.88h-8.4v1h-2.46zm2.44 2.2v2.7h8.42v-2.7z"/><path d="m104.74 118.52a37.54 37.54 0 0 0 -4.3-4.42l2.08-1.8a37.49 37.49 0 0 1 4.36 4.38z"/><path d="m124 109.62v7.26c0 .86-.12 1.36-.66 1.66a4.11 4.11 0 0 1 -2.14.34 8.11 8.11 0 0 0 -.54-1.8h1.1s.22-.08.22-.24v-1.38h-2.14v3.4h-2v-9.26h-1.18v-3.1h1.14v-5.68h6.28v5.68h1.2v2.26h9.52v1.58h-9.54v-.72zm-.5-1.5h-5.14v.8h5.14zm-4-1.62h.7v-3.18h2.1v-.82h-2.8zm2.48 4h-2.14v.88h2.16zm0 3.36v-.86h-2.14v.92zm.32-7.38v-1.84h-.84v1.84zm12.7 10.52v1.68h-10.16v-1.68h2.56a8.07 8.07 0 0 0 -.74-1.64l1.22-.44h-1.88v-3.92h8.18v3.9h-1.88l1.2.28c-.36.64-.72 1.26-1 1.8zm-.6-8.88h-8.74v-6.2h2.22v-1.66h1.66v1.66h.86v-1.66h1.68v1.66h2.32zm-7-3.84h.86v-.86h-.86zm0 2.32h.86v-.88h-.86zm.46 6.92h4.26v-1.1h-4.26zm.5 1.4a7.71 7.71 0 0 1 .9 2.08h1.36a16.49 16.49 0 0 0 .8-2.08zm2-10.64v-.86h-.86v.86zm-.86 1.44v.88h.86v-.88zm3-2.3h-.88v.86h.88zm0 2.3h-.88v.88h.88z"/><path d="m136.08 117.16a9.75 9.75 0 0 0 .9-4.48l1.3.24c-.1 1.84-.26 3.7-1 4.86zm17-4.28a12.93 12.93 0 0 1 -.38 2.12 22 22 0 0 1 2.34 2.72l-1.5 1.16a21.6 21.6 0 0 0 -1.56-2 6.07 6.07 0 0 1 -1.82 2.08 8.52 8.52 0 0 0 -1.28-1.26l-.56.6a12.61 12.61 0 0 0 -1.22-1.56 6 6 0 0 1 -1.88 2.24 8.15 8.15 0 0 0 -1.4-1.34 1.76 1.76 0 0 1 -.26.58 1.51 1.51 0 0 1 -1.14.68 10.24 10.24 0 0 1 -1.7.08 4.88 4.88 0 0 0 -.46-1.78 9.53 9.53 0 0 0 1.18.06.52.52 0 0 0 .5-.24 4.86 4.86 0 0 0 .3-1.82l-.54.2a11.69 11.69 0 0 0 -.84-2.58l.88-.28a11.72 11.72 0 0 1 .56 1.34c0-.58.06-1.26.08-2h-5.28v-10.96h7v1.86h-2.1v1.22h1.72v1.74h-1.72v1.26h1.78v1.74h-1.78v1.26h2.3s0 .5 0 .76a44 44 0 0 1 -.42 6.8c1.52-1 2.16-2.64 2.34-4.78l2 .12a14.27 14.27 0 0 1 -.34 2 18.64 18.64 0 0 1 1.78 2 6.59 6.59 0 0 0 1.54-4.1zm-13.66.1a21.55 21.55 0 0 1 .18 3.68l-1.08.12a21 21 0 0 0 -.1-3.68zm-.5-10.2v1.22h1.24v-1.24zm1.24 3h-1.16v1.22h1.24zm-1.16 4.22h1.24v-1.28h-1.24zm1.7 2.78a17.36 17.36 0 0 1 .58 3.24l-1 .18a14.7 14.7 0 0 0 -.56-3.24zm6.24-7.4a11.73 11.73 0 0 1 -2 1.48 7.26 7.26 0 0 0 -1.06-2 11.62 11.62 0 0 0 4.52-4.66h2.12a11.94 11.94 0 0 0 4.8 4.48 15.44 15.44 0 0 0 -1.2 2.1 13.65 13.65 0 0 1 -1.88-1.34v1.22h-5.34zm-2 2.18h4.3v4.88h-4.3zm1.56 3.38h1.12v-1.94h-1.12zm5.16-6a13.39 13.39 0 0 1 -2.16-2.62 11.93 11.93 0 0 1 -2.06 2.62zm-1.7 2.62h4.46v4.88h-4.52zm1.54 3.38h1.26v-1.94h-1.26z"/><path d="m163.78 105.4a26.53 26.53 0 0 1 -2.14 3.06v10.44h-2.38v-7.82c-.56.54-1.1 1-1.64 1.48a23.43 23.43 0 0 0 -1.62-2.06 19.49 19.49 0 0 0 5.5-6zm-.74-4.26a26.85 26.85 0 0 1 -5.5 5.26 13.83 13.83 0 0 0 -1.32-1.94 17.79 17.79 0 0 0 4.52-4.26zm11.76 8h-2.74v7c0 1.28-.24 1.94-1.12 2.3a11 11 0 0 1 -3.9.4 9.85 9.85 0 0 0 -.72-2.42c1.14.06 2.46.06 2.82 0s.5-.08.5-.38v-7h-5.9v-2.26h11.06zm-.5-5.5h-9.72v-2.26h9.72z"/><path d="m181.5 115.58 2.88-.48.12 2c-2.62.5-5.46 1-7.56 1.34l-.46-2.12c.84-.1 1.86-.26 3-.42v-5.3h-2.72v-2h2.72v-1.46h-1.88v-.62l-.14.14a6.11 6.11 0 0 0 -1.46-1.58 13.17 13.17 0 0 0 3.44-4.84h1.9a20.11 20.11 0 0 1 3.44 3.48l-1.26 1.7v1.72h-2v1.46h2.6v2h-2.6zm-3.1-4.22a20.5 20.5 0 0 1 .76 3.42l-1.64.46a18.37 18.37 0 0 0 -.68-3.48zm4.62-6.22a18.47 18.47 0 0 0 -2.26-2.68 19.22 19.22 0 0 1 -1.86 2.68zm-1.32 9.42a23 23 0 0 0 .74-3.38l1.8.44c-.4 1.18-.78 2.5-1.12 3.36zm12.44 1.78c0 1.1-.2 1.74-.92 2.12a6.53 6.53 0 0 1 -3 .42 7.66 7.66 0 0 0 -.72-2.3c.82.06 1.72 0 2 0s.36-.08.36-.32v-1.24h-4.44v3.8h-2.28v-12.34h.74a17.28 17.28 0 0 0 -1.82-1.14 11.16 11.16 0 0 0 1.94-4.14l2.18.5a16.24 16.24 0 0 1 -2.16 4.78h2.42v-6.28h2.3v6.28h3.42zm-6.72-7.78v1.24h4.44v-1.24zm4.44 4.54v-1.36h-4.44v1.36zm1.18-6.66a20 20 0 0 0 -2.28-4.44l1.92-.92a20.21 20.21 0 0 1 2.42 4.32z"/><path d="m200.74 118.52a37.54 37.54 0 0 0 -4.3-4.42l2.08-1.8a37.49 37.49 0 0 1 4.36 4.38z"/><path d="m213.08 109.88h7.62v8.9h-2.38v-.9h-3v1h-2.26zm2.26 2.28v3.44h3v-3.44zm12.22-3.94h-11.72v-7.22h11.72zm-2.42-5h-7v2.78h7zm5.12 6.62v8.92h-2.4v-.92h-3.18v1h-2.28v-9zm-2.4 5.72v-3.44h-3.18v3.44z"/><path d="m235.46 108.14v1.62h3.78v9.14h-2.14v-7.14h-1.74a28 28 0 0 1 -1.22 7.16 11.54 11.54 0 0 0 -2-.7c1.08-2.88 1.26-7.28 1.26-10.08v-7.42h2v4.72h1.26v-5.22h2.06v5.22h1.32v2h-4.64zm15.38 6.8h-2.62v4h-2.22v-4h-6.24v-2h1.76a8.91 8.91 0 0 0 -1.22-1 6.92 6.92 0 0 0 2.86-1.92h-2.72v-8h3.14a12.84 12.84 0 0 0 .62-1.88l2.62.44q-.42.75-.84 1.44h4.36v8h-4.72a6.82 6.82 0 0 1 -3.2 2.94h3.58v-2.54h2.22v2.58h2.62zm-8.3-9.74h1.82v-1.36h-1.82zm1.6 3a8.59 8.59 0 0 0 .22-1.38h-1.82v1.38zm4-1.38h-1.8a11.13 11.13 0 0 1 -.14 1.38h1.94zm0-3h-1.8v1.36h1.8z"/><path d="m269.34 112.26c0 1-.2 1.48-.92 1.78a7.38 7.38 0 0 1 -2.66.3 19.63 19.63 0 0 0 5.36 1.78 10.89 10.89 0 0 0 -1.5 2.1 17.16 17.16 0 0 1 -6.48-3.24v3.92h-2.56v-4a17 17 0 0 1 -6.64 3.44 9.59 9.59 0 0 0 -1.48-2c3.32-.66 6.42-2.16 8.12-4.1v-1.4h-3.82v3.54h-2.52v-5.56h6.34v-1h-7.58v-2h4.24a12.46 12.46 0 0 0 -1-2.1h-.34a12.24 12.24 0 0 1 -1.66 2 15.38 15.38 0 0 0 -2-1.3 11.48 11.48 0 0 0 3.06-4.38l2.26.62c-.14.34-.3.72-.48 1.08h4.32v1.64a10.42 10.42 0 0 0 1.9-3.34l2.34.58c-.14.36-.3.74-.48 1.12h5.56v2h-3.26a9 9 0 0 1 .7 1.38l-2.12.68a10.24 10.24 0 0 0 -1-2.06h-1a11 11 0 0 1 -.88 1.16v.94h7.2v2h-7.2v1h6.2zm-8.76-6.42v-1.06h.34l-.6-.36a7.84 7.84 0 0 0 .74-.68h-2.46a12.38 12.38 0 0 1 .68 1.4l-1.8.7zm2.56 6.78a12.61 12.61 0 0 0 2.5 1.66 8.89 8.89 0 0 0 -.78-1.78c.66.06 1.48 0 1.7 0s.32-.06.32-.28v-1.4h-3.74z"/><path d="m290.3 102.84a15.58 15.58 0 0 1 -3.2 5.18 14 14 0 0 0 4.34 2.26 11.46 11.46 0 0 0 -1.52 2l-.14-.06v6.62h-2.32v-.62h-4.1v.62h-2.2v-6.54l-.5.22a10.09 10.09 0 0 0 -.68-1v3.48h-5.2v1.64h-1.72v-15.26h6.94v3.78a13.21 13.21 0 0 0 3.42-5l2.24.62a12.57 12.57 0 0 1 -.64 1.4h3.34l.4-.1zm-15.52.58v3.58h.94v-3.54zm0 9.5h.94v-4h-.94zm3.42-9.5h-1v3.58h1zm0 9.5v-4h-1v4zm1.8-2.52a16 16 0 0 0 3.9-2.4 16.43 16.43 0 0 1 -1.48-2 12.92 12.92 0 0 1 -1.48 1.48 10.46 10.46 0 0 0 -1-1zm8.24 1.08a14.93 14.93 0 0 1 -2.74-1.92 19.84 19.84 0 0 1 -2.74 1.92zm-.76 4.66v-2.58h-4.1v2.58zm-3.62-12-.12.16a13 13 0 0 0 1.72 2.22 13.3 13.3 0 0 0 1.76-2.38z"/><path d="m296.74 118.52a37.54 37.54 0 0 0 -4.3-4.42l2.08-1.8a37.49 37.49 0 0 1 4.36 4.38z"/><path d="m318.68 114.88.08 2.22c-3.56.5-7.38 1-10.08 1.32l-.38-2.36c1.16-.12 2.58-.26 4.12-.44v-2.62h-3.32v-2.12h3.32v-1.88h2.36v1.94h3.22v2.06h-3.26v2.3zm-2.32-10.94a20.72 20.72 0 0 1 2.88 4.42l-1.88 1.08a9.19 9.19 0 0 0 -.48-1c-3 .16-6 .3-8.26.4l-.14-2.22h1.74c.34-.94.68-2 .92-3h-2.62v-2.1h10.14v2.1h-4.86c-.38 1-.8 2-1.22 2.92 1 0 2.06-.06 3.12-.1-.36-.54-.74-1.06-1.1-1.52zm5.32 9.94h-2.28v-11.26h2.28zm4.6-13.12v15.24c0 1.34-.28 2-1.08 2.38a9.71 9.71 0 0 1 -3.78.46 9.86 9.86 0 0 0 -.78-2.44c1.2.06 2.42.06 2.82.06s.48-.12.48-.46v-15.24z"/><path d="m345.78 116.1c0 1.3-.26 2-1.12 2.36a10.29 10.29 0 0 1 -3.84.4 8.22 8.22 0 0 0 -.78-2.4h2.82s.48-.12.48-.44v-3.58a13.49 13.49 0 0 0 -1.34 1.76 10 10 0 0 1 -4.3-5.4 9.43 9.43 0 0 1 -4.56 5.54 10.7 10.7 0 0 0 -1.08-1.42v6h-2.42v-14.28h7.08c-.06-.5-.1-1-.14-1.54h-3.38v-2.1h5.44a28.91 28.91 0 0 0 .34 3.62h6.8zm-13.72-3.92a8.19 8.19 0 0 0 3.88-5.22h-3.88zm7.48-5.22a8.22 8.22 0 0 0 3.8 5v-5z"/><path d="m358.82 106.84a18.39 18.39 0 0 0 8.26 5.58 14.25 14.25 0 0 0 -1.48 2.16c-.72-.32-1.48-.7-2.24-1.12v5.4h-2.42v-.54h-6.58v.56h-2.3v-5.24a20.71 20.71 0 0 1 -2.2 1.12 11.79 11.79 0 0 0 -1.34-2 18.94 18.94 0 0 0 7.88-5.9zm-7.38-.74h-2.32v-4.3h7.24v-1.6h2.44v1.6h7.38v4.3h-2.44v-2.1h-12.3zm4.88-1a16.8 16.8 0 0 1 -5.1 4.56 14.49 14.49 0 0 0 -1.64-1.9 11.65 11.65 0 0 0 4.44-3.44zm4.62 11.1v-2.1h-6.58v2.12zm.16-4.2a16.94 16.94 0 0 1 -3.38-3 16.78 16.78 0 0 1 -3.2 3zm-.56-7.72a29.34 29.34 0 0 1 5 3.66l-1.8 1.56a27.11 27.11 0 0 0 -4.9-3.82z"/><path d="m372.2 105.68v-.76a19.3 19.3 0 0 1 -1.78 1.46h8v6.22h-6.42c0 .26-.08.54-.14.8h6.9v5.38h-2.06v-.56h-3.38v.62h-2v-3.3a9.49 9.49 0 0 1 -1.54 2.92 7.49 7.49 0 0 0 -1.56-1.42c1.76-2.3 2-5.5 2-7.76v-2.72l-.66.44a6.74 6.74 0 0 0 -1.42-1.68 13.84 13.84 0 0 0 5-4.88h2.12a39.45 39.45 0 0 1 4.18 3.6l-1.52 1.76c-.28-.32-.64-.72-1.06-1.16v1zm4.08 5.26v-.76h-4.12v.76zm-4.1-2.9v.72h4.1v-.76zm4.08-4c-.58-.56-1.2-1.14-1.78-1.6-.42.52-.88 1.06-1.4 1.6zm-3 11v1.42h3.38v-1.36zm8.56-1.22h-2.22v-11.2h2.24zm4.44-13.28v15.46c0 1.32-.26 2-1.06 2.34a8.84 8.84 0 0 1 -3.72.48 9.73 9.73 0 0 0 -.78-2.42h2.74s.5-.12.5-.46v-15.34z"/><path d="m395 101a31.15 31.15 0 0 1 -1.92 4.16v13.7h-2.4v-10c-.42.5-.84 1-1.24 1.44a16.25 16.25 0 0 0 -1.32-2.54 20.81 20.81 0 0 0 4.56-7.48zm6.34 4.72v2.1h5.18v2.18h-5.18v2.26h5.44v2.2h-5.44v4.44h-2.44v-13.18h-.76a22.21 22.21 0 0 1 -2.62 3.88 16.18 16.18 0 0 0 -1.82-1.66 19.85 19.85 0 0 0 4.24-7.54l2.3.58a23.64 23.64 0 0 1 -1 2.48h7.76v2.26z"/><path d="m426 106.48a16.57 16.57 0 0 1 -4.06 8 16.89 16.89 0 0 0 5.26 2 10.19 10.19 0 0 0 -1.66 2.32 17.37 17.37 0 0 1 -5.7-2.54 18.94 18.94 0 0 1 -5.18 2.54 9.86 9.86 0 0 0 -1.4-2.1 15.37 15.37 0 0 0 4.66-2.08 16.75 16.75 0 0 1 -3.3-4.9 14.85 14.85 0 0 1 -4.68 8.78 10.57 10.57 0 0 0 -1.72-2c4-3.4 4.36-8.4 4.36-11.66v-1.34h-3.18v-2.3h10.44l.42-.1 1.86.3c-.26 1.4-.62 3-1 4.54h2.78l.44-.1zm-11-3v.82a17 17 0 0 0 4.9 8.68 12.88 12.88 0 0 0 3-4.86h-2.36l-.22.88-2.5-.38c.44-1.6.9-3.52 1.26-5.14z"/><path d="m446.74 108.58h-14.54v1.42c0 2.64-.36 6.58-2.22 9.1a9.56 9.56 0 0 0 -1.86-1.5c1.6-2.24 1.76-5.4 1.76-7.62v-3.34h2.5a9.78 9.78 0 0 0 -.64-1c1.2-.18 2.52-.42 3.82-.72-1.06-.28-2.1-.54-3.08-.76l1-.76h-3.78v-1.86h6.66v-1.34h2.38v1.34h7v1.86h-3.24l.44.24a15.39 15.39 0 0 1 -2.3 1.18c1.12.34 2.14.68 3 1l-1 .84h4.08zm-11.58 3.42a9.65 9.65 0 0 1 -1.22 1.52 14.36 14.36 0 0 0 -1.74-1.26 8.6 8.6 0 0 0 2.36-3.66l2.08.5c-.12.34-.26.7-.42 1h2.22v-1.3h2.32v1.32h4.84v1.88h-4.84v1.28h4.24v1.8h-4.24v1.52h5.82v1.92h-14v-1.92h5.9v-1.52h-4.2v-1.8h4.2v-1.28zm6-5.32c-.86-.3-1.84-.62-2.9-.94-1.14.36-2.36.68-3.54.94zm-5.76-3.24c.94.22 1.92.48 2.88.74a17.92 17.92 0 0 0 1.94-.74z"/><path d="m449.08 109.88h7.62v8.9h-2.38v-.9h-3v1h-2.26zm2.26 2.28v3.44h3v-3.44zm12.22-3.94h-11.72v-7.22h11.72zm-2.42-5h-7v2.78h7zm5.12 6.62v8.92h-2.4v-.92h-3.18v1h-2.28v-9zm-2.4 5.72v-3.44h-3.18v3.44z"/><path d="m471.58 108v10.84h-2.32v-17.84h7.74v7zm0-5.38v1h3.14v-1zm3.14 3.66v-1.1h-3.14v1.1zm5.86 8.06v4.12h-2.08v-4.12h-1.92a6.51 6.51 0 0 1 -2.56 4.48 9 9 0 0 0 -1.52-1.36 4.69 4.69 0 0 0 2-3.12h-2v-1.94h2.1v-1.5h-1.8v-1.88h9.66v1.88h-1.88v1.5h2.2v1.94zm-2.08-1.94v-1.5h-1.86v1.5zm7.62 3.66c0 1.22-.22 1.88-.94 2.26a7.11 7.11 0 0 1 -3.28.46 8.46 8.46 0 0 0 -.72-2.36h2.18s.42-.12.42-.4v-8h-5.5v-7.02h7.84zm-5.58-13.44v1h3.24v-1zm3.24 3.7v-1.14h-3.24v1.14z"/><path d="m506.62 103.52c-.74.64-1.56 1.28-2.28 1.8a13.11 13.11 0 0 0 2.78 1 9.68 9.68 0 0 0 -1.42 1.88 15.3 15.3 0 0 1 -2.26-.94v1.84a1.25 1.25 0 0 0 0 .48.27.27 0 0 0 .22.08h.34a.9.9 0 0 0 .26 0 .36.36 0 0 0 .2-.24 6.41 6.41 0 0 0 .08-.92 5.22 5.22 0 0 0 1.66.88 4.63 4.63 0 0 1 -.3 1.28 1.24 1.24 0 0 1 -.74.56 3.1 3.1 0 0 1 -1 .14h-1a1.92 1.92 0 0 1 -1.32-.44c-.34-.34-.46-.72-.46-1.84v-1.16h-1.8a4.64 4.64 0 0 1 -2.2 4 9.3 9.3 0 0 0 -1.24-1.32v.88h-2.1v-.24h-2c-.08.44-.16.86-.26 1.28h4.44s0 .56 0 .84c-.22 2.88-.46 4.2-1 4.74a2.15 2.15 0 0 1 -1.6.68 22.37 22.37 0 0 1 -2.66 0 4.59 4.59 0 0 0 -.68-2c1 .08 2 .1 2.42.1a1.05 1.05 0 0 0 .74-.18c.26-.24.42-1 .56-2.48h-2.6l-.12.48-1.9-.3a48.48 48.48 0 0 0 1-4.94h3.68v-1.4h-3.3v-.14c-.46.22-.92.4-1.4.58a11.79 11.79 0 0 0 -1.28-1.74 13.23 13.23 0 0 0 3.34-1.52 19.39 19.39 0 0 0 -1.84-1.2l1.34-1.26a14.6 14.6 0 0 1 2.1 1.26 10.05 10.05 0 0 0 1.18-1.28h-3.9v-1.86h5.22l.4-.1 1.46.72a11.62 11.62 0 0 1 -3.74 4.72h2.56v4a2.89 2.89 0 0 0 1.46-2.7v-1.42h4a13.87 13.87 0 0 1 -4.18-5.4l1.9-.54a10.59 10.59 0 0 0 1.16 1.94 16.14 16.14 0 0 0 1.86-1.82l1.7 1.22c-.8.66-1.66 1.36-2.4 1.9a11.7 11.7 0 0 0 1.08.9 16.41 16.41 0 0 0 2.16-2zm-1.46 8.8a8.88 8.88 0 0 1 -2.3 3.76 13.18 13.18 0 0 0 3.5.88 8.93 8.93 0 0 0 -1.4 1.92 12.6 12.6 0 0 1 -3.94-1.46 14.13 14.13 0 0 1 -4.12 1.46 7.42 7.42 0 0 0 -1-1.72 13.56 13.56 0 0 0 3.44-1 8.81 8.81 0 0 1 -1.66-2.24l1.3-.36h-1.92v-1.56h6.44l.36-.06zm-5.6 1.22a6 6 0 0 0 1.48 1.54 6 6 0 0 0 1.4-1.54z"/><path d="m522.78 111v1.2h3.38v2h-3.38v2.16c0 1.18-.24 1.74-1.1 2.1a9.89 9.89 0 0 1 -3.46.36 10 10 0 0 0 -.86-2.22h2.54s.42-.08.42-.32v-2.12h-5.94a12.31 12.31 0 0 1 2.42 2.32l-1.8 1.52a13.41 13.41 0 0 0 -3-3l1.06-.8h-3.68v-2h11v-1.2h-11.82v-2h7.82v-1.14h-5.8v-2h5.8v-1h1.2c-.42-.26-.86-.54-1.16-.7a5.79 5.79 0 0 0 .72-.68h-2.68a8.62 8.62 0 0 1 .6 1.26l-2 .84a11.22 11.22 0 0 0 -.92-2.1h-.2a17.54 17.54 0 0 1 -1.86 2.28 14.82 14.82 0 0 0 -2-1.32 12.09 12.09 0 0 0 3.18-4.5l2.28.6c-.14.34-.3.66-.48 1h4.38v1.62a10.18 10.18 0 0 0 1.86-3.22l2.28.58a8.48 8.48 0 0 1 -.42 1h5.52v1.94h-3.32a9.55 9.55 0 0 1 .76 1.26l-2 .86a11.23 11.23 0 0 0 -1.24-2.12h-.88a10.74 10.74 0 0 1 -1.18 1.54v.8h6.06v2h-6.06v1.2h7.9v2z"/><path d="m546.48 103.28s0 .8 0 1.08c-.26 8.94-.48 12.12-1.3 13.18a2.67 2.67 0 0 1 -1.92 1.1 22.42 22.42 0 0 1 -3.14 0 5.6 5.6 0 0 0 -.78-2.32c1.28.12 2.46.12 3 .12a1.07 1.07 0 0 0 .88-.34c.58-.64.84-3.64 1.06-10.7h-4.28a17.25 17.25 0 0 1 -1.76 3.16 14.86 14.86 0 0 0 -1.54-1.12v9.34h-5.34v1.46h-2.16v-14.82h2.26a21.45 21.45 0 0 0 .58-3.22l2.6.36c-.34 1-.7 2-1 2.86h3.1v3.24a20.69 20.69 0 0 0 2.7-6.44l2.26.52a23.21 23.21 0 0 1 -.78 2.54zm-12 2.22h-3.18v3.24h3.18zm0 9.22v-3.92h-3.18v3.92zm6.64-1.08a42.8 42.8 0 0 0 -2.78-4.62l1.86-1.06a48.27 48.27 0 0 1 2.94 4.44z"/><path d="m566.44 109.66c-2.42 5.94-8.16 8.3-15 9.24a9.38 9.38 0 0 0 -1-2.18 25.94 25.94 0 0 0 7.8-1.9 21.29 21.29 0 0 0 -2.94-2.1 25.07 25.07 0 0 1 -2.86 1.2 6.82 6.82 0 0 0 -1.46-1.84 18.21 18.21 0 0 0 8.16-4.62 26.47 26.47 0 0 1 -9.28 3.58 8.41 8.41 0 0 0 -1.1-2 26.81 26.81 0 0 0 6.74-2 22.89 22.89 0 0 0 -2.68-1.72 22.16 22.16 0 0 1 -2.3 1 8.34 8.34 0 0 0 -1.6-1.76 15.86 15.86 0 0 0 7.38-4.44l2.58.54q-.45.51-1 1h4l.4-.1 1.52.88a13.68 13.68 0 0 1 -4.12 4.58l2.4.56a15.39 15.39 0 0 1 -1.24 1.32h3.58l.42-.1zm-10.9-6c-.24.18-.48.34-.74.52a16.47 16.47 0 0 1 2.76 1.74 12.46 12.46 0 0 0 2.76-2.26zm2.88 7.26c-.34.24-.68.46-1.06.68a17.4 17.4 0 0 1 3 2 9.67 9.67 0 0 0 2.76-2.72z"/><path d="m570.46 106.3c-.38.42-.8.86-1.24 1.26a7 7 0 0 0 -1.32-1.8 14.22 14.22 0 0 0 3.8-5.54h1.9a21.39 21.39 0 0 1 3.82 3.78l-1.42 2.1a19.15 19.15 0 0 0 -2.94-3.48 19.8 19.8 0 0 1 -1.84 2.82h4.32v2h-5zm6 8c0 .9-.12 1.5-.7 1.82a4.44 4.44 0 0 1 -2.28.36 7.07 7.07 0 0 0 -.54-2 12.14 12.14 0 0 0 1.24 0c.18 0 .22-.06.22-.24v-3.42h-1.7v8.06h-2.12v-8.06h-1.66v-2.06h7.5zm4.74 1.9a15.19 15.19 0 0 1 -4.52 2.78 13.19 13.19 0 0 0 -1.6-1.56 12.19 12.19 0 0 0 4.18-2.48zm-1-11.86c.08-.44.14-.88.2-1.32h-3.8v-2h10.14v2h-3.74q-.21.69-.42 1.32h3.6v10.58h-8.9v-10.62zm3.7 1.76h-4.46v1.26h4.46zm0 2.88h-4.46v1.28h4.46zm0 2.92h-4.46v1.28h4.46zm0 3.18a26.9 26.9 0 0 1 3.4 2.56l-1.88 1.34a24.15 24.15 0 0 0 -3.28-2.72z"/><path d="m594.46 113.46c-1.76 1-3.7 2.14-5.34 3l-.9-2.4c.56-.24 1.24-.56 2-.9v-6h-1.8v-2.26h1.8v-4.48h2.22v4.48h1.5v2.28h-1.5v4.82l1.36-.68zm12-6.64a25.6 25.6 0 0 1 -2.66 7c.34 1.78.8 2.86 1.28 2.86.28 0 .44-.74.5-2.52a5.36 5.36 0 0 0 1.6 1.32c-.34 2.66-.92 3.42-2.42 3.42-1.12 0-2-1.06-2.58-2.76a14 14 0 0 1 -2.8 2.64 10.46 10.46 0 0 0 -1.7-1.5 13.13 13.13 0 0 0 2.56-2.12c-2.12.56-4.36 1.16-6.08 1.6l-.56-2.22c1.74-.32 4.36-.92 6.88-1.48l.18 1.58c.3-.36.58-.72.84-1.1a57.81 57.81 0 0 1 -.84-8.4h-6.46v-2.16h6.38c0-.92 0-1.82 0-2.74h2.26v2.74h2.12a18.77 18.77 0 0 0 -1.74-1.58l1.34-1.16a12.65 12.65 0 0 1 2.2 1.94l-.86.8h.88v2.16h-3.88c.08 1.82.2 3.52.38 5a24.82 24.82 0 0 0 1.1-3.74zm-6.54-.38v6.08h-5.12v-6.08zm-1.86 1.82h-1.54v2.44h1.54z"/><path d="m612.2 105.68v-.76a19.3 19.3 0 0 1 -1.78 1.46h8v6.22h-6.42c0 .26-.08.54-.14.8h6.9v5.38h-2.06v-.56h-3.38v.62h-2v-3.3a9.49 9.49 0 0 1 -1.54 2.92 7.49 7.49 0 0 0 -1.56-1.42c1.76-2.3 2-5.5 2-7.76v-2.72l-.66.44a6.74 6.74 0 0 0 -1.42-1.68 13.84 13.84 0 0 0 5-4.88h2.12a39.45 39.45 0 0 1 4.18 3.6l-1.52 1.76c-.28-.32-.64-.72-1.06-1.16v1zm4.08 5.26v-.76h-4.12v.76zm-4.1-2.9v.72h4.1v-.76zm4.08-4c-.58-.56-1.2-1.14-1.78-1.6-.42.52-.88 1.06-1.4 1.6zm-3 11v1.42h3.38v-1.36zm8.56-1.22h-2.22v-11.2h2.24zm4.44-13.28v15.46c0 1.32-.26 2-1.06 2.34a8.84 8.84 0 0 1 -3.72.48 9.73 9.73 0 0 0 -.78-2.42h2.74s.5-.12.5-.46v-15.34z"/><path d="m628.24 117.22a6.61 6.61 0 0 0 2.62-3.38l2 .7a7.63 7.63 0 0 1 -2.76 3.94zm18.08-10.92h-17.32v-1.84h4.28a12.14 12.14 0 0 0 -.5-1.34h.1-2.88v-1.84h6.44v-1.08h2.36v1.06h6.46v1.84h-2.82l.3.06c-.3.52-.6.94-.84 1.3h4.42zm-6.8 10.46c.74 0 .86-.22 1-1.64a6.42 6.42 0 0 0 2 .76c-.26 2.22-.9 2.78-2.76 2.78h-3.22c-2.52 0-3.14-.58-3.14-2.48v-2.1h2.16l-.24-.1.82-.8h-5v-6.06h13.26v6.06h-6.5a12.72 12.72 0 0 1 2.1 1.22l-1.44 1.48a12.48 12.48 0 0 0 -2.82-1.72v2c0 .54.16.6 1.06.6zm-6.14-7.32h8.62v-.86h-8.64zm0 2.28h8.62v-.9h-8.64zm1.8-8.62a12.18 12.18 0 0 1 .48 1.3l-.26.06h4.44l-.28-.06c.18-.38.42-.88.58-1.3zm8.58 10.5a14.69 14.69 0 0 1 3.26 3.62l-2 1.14a16.58 16.58 0 0 0 -3.14-3.74z"/><path d="m666 113.84a27 27 0 0 1 -3.3 1.84 13.52 13.52 0 0 0 4.3 1.32 8.21 8.21 0 0 0 -1.3 1.9c-4.16-.8-6.66-2.68-8.16-5.86a15.06 15.06 0 0 1 -2.36 1.42v1.74l4-.52.08 1.86c-2.82.4-5.8.8-8 1.12l-.34-1.94 2-.22v-1.1a22.79 22.79 0 0 1 -3.3.84 10.24 10.24 0 0 0 -1.26-1.72 22.55 22.55 0 0 0 6.18-1.68h-5.84v-1.84h7.78v-1h-.8a6.08 6.08 0 0 0 -.58-1.38h1.08s.24-.06.24-.22v-.82h-1.64v2.92h-2v-2.92h-1.5v2.42h-1.8v-3.9h3.3v-.7h-4.1v-1.6h1.22c-.4-.24-.92-.54-1.24-.7a8.7 8.7 0 0 0 1.56-2.88l1.74.44c-.1.28-.2.54-.32.82h1.14v-1.28h2v1.28h3.32v1.52h-3.32v.8h3.86v1.6h-3.86v.7h3.54v2.26c0 .76-.14 1.12-.66 1.36a2.61 2.61 0 0 1 -.94.2h2.12v1h7.8v1.88h-2zm-13.22-10v-.84h-1.9a7.78 7.78 0 0 1 -.5.8zm8.82 3.86h-2.12v-6.7h2.12zm-1.92 5.18a7.32 7.32 0 0 0 1.42 1.72 23.27 23.27 0 0 0 2.84-1.72zm6.26-4.5c0 1-.2 1.52-.92 1.82a8.41 8.41 0 0 1 -3.06.32 7.38 7.38 0 0 0 -.7-1.88h2.14s.38-.08.38-.34v-7.94h2.16z"/><path d="m675 101a31.15 31.15 0 0 1 -1.92 4.16v13.7h-2.4v-10c-.42.5-.84 1-1.24 1.44a16.25 16.25 0 0 0 -1.32-2.54 20.81 20.81 0 0 0 4.56-7.48zm6.34 4.72v2.1h5.18v2.18h-5.18v2.26h5.44v2.2h-5.44v4.44h-2.44v-13.18h-.76a22.21 22.21 0 0 1 -2.62 3.88 16.18 16.18 0 0 0 -1.82-1.66 19.85 19.85 0 0 0 4.24-7.54l2.3.58a23.64 23.64 0 0 1 -1 2.48h7.76v2.26z"/><path d="m695.8 116.28c0 1.1-.16 1.76-.82 2.16a5.43 5.43 0 0 1 -2.78.44 8.07 8.07 0 0 0 -.64-2.3h1.7s.34-.08.34-.36v-4h-2.1a20.9 20.9 0 0 1 -1.4 6.62 9.57 9.57 0 0 0 -1.92-1.1c1.24-2.72 1.32-6.72 1.32-9.64v-7.2h6.3zm-2.2-6.28v-2.42h-2v.54 1.88zm-2-6.94v2.32h2v-2.28zm15.08 5.14a18.35 18.35 0 0 1 -2.4 6.7 9.53 9.53 0 0 0 3 2.1 9.61 9.61 0 0 0 -1.48 1.86 12.49 12.49 0 0 1 -2.84-2.18 11.27 11.27 0 0 1 -2.62 2.14 7.64 7.64 0 0 0 -1.18-1.6v1.64h-2.26v-18h9.2v3.86c0 1-.22 1.6-1.06 1.92a10.75 10.75 0 0 1 -3.44.3 8.21 8.21 0 0 0 -.7-2c1 .06 2.18.06 2.5 0s.42-.08.42-.32v-1.6h-4.66v4.74h5.78l.36-.08zm-7.52 8.8a9.34 9.34 0 0 0 2.44-2 20.2 20.2 0 0 1 -2.32-5h-.12zm2.14-7a15.61 15.61 0 0 0 1.54 3.12 14 14 0 0 0 1.3-3.12z"/><path d="m725.52 104.18a9.82 9.82 0 0 1 -2 2.92 15.56 15.56 0 0 0 3.68 1.18 9.13 9.13 0 0 0 -1.5 2 14.41 14.41 0 0 1 -4.08-1.72 16 16 0 0 1 -4.08 1.68 7.57 7.57 0 0 0 -.56-.84 23.35 23.35 0 0 1 -1 3.34l-1.6-.74a26.07 26.07 0 0 0 .64-2.76h-1.02v7c0 1.08-.16 1.72-.86 2.08a5.9 5.9 0 0 1 -2.82.42 7.92 7.92 0 0 0 -.68-2.26h1.8s.32-.06.32-.3v-4.18a12.12 12.12 0 0 1 -2.5 3.7 13.33 13.33 0 0 0 -1.08-2.3 12.57 12.57 0 0 0 2.84-4.12h-2.5v-2.08h4.58a29 29 0 0 0 -3.86-1.94l1.5-1.52c.48.18 1 .4 1.58.64a12.49 12.49 0 0 0 1.26-1.26h-4.8v-2h6.46l.36-.08 1.52 1a14.93 14.93 0 0 1 -2.92 3.3 11.19 11.19 0 0 1 1.46.88l-1 1h1l.32-.1 1.44.48-.08.46a12.12 12.12 0 0 0 2.44-.92 11.31 11.31 0 0 1 -1.42-1.66 11.91 11.91 0 0 1 -.9.86 17.46 17.46 0 0 0 -1.94-1.34 11.92 11.92 0 0 0 3.82-4.76l2.22.6a13.41 13.41 0 0 1 -.74 1.4h5.9v2zm.94 7.16s0 .62-.08.9c-.32 3.46-.68 5-1.26 5.64a2.2 2.2 0 0 1 -1.46.7 15.28 15.28 0 0 1 -2.24 0 5.16 5.16 0 0 0 -.64-2.2 16.94 16.94 0 0 0 1.72.1.81.81 0 0 0 .64-.22c.28-.26.54-1.12.76-3h-2.32a8 8 0 0 1 -5.26 5.56 6.73 6.73 0 0 0 -1.38-1.84 6.41 6.41 0 0 0 4.18-3.72h-2.42v-2h2.92a16.7 16.7 0 0 0 .2-1.78h2.38c-.06.6-.12 1.2-.2 1.78zm-6.56-7.16a7.84 7.84 0 0 0 1.66 1.7 6.08 6.08 0 0 0 1.32-1.7z"/><path d="m734.74 115.42a3.23 3.23 0 1 1 -3.24-3.24 3.24 3.24 0 0 1 3.24 3.24zm-1.44 0a1.79 1.79 0 1 0 -1.8 1.78 1.79 1.79 0 0 0 1.8-1.78z"/><path d="m18 159.68a19.76 19.76 0 0 1 -3.32 4.38c.54 1.54 1.16 2.46 1.76 2.46.42 0 .66-1 .76-3.32a6.08 6.08 0 0 0 2 1.36c-.38 3.5-1.12 4.38-2.94 4.38-1.46 0-2.58-1.2-3.44-3.16a20.74 20.74 0 0 1 -3.7 2.44 10.43 10.43 0 0 0 -1.62-1.92 20.37 20.37 0 0 0 4.5-2.82 37.07 37.07 0 0 1 -1-5.36h-4.12v2.28l3.08-.56.18 2.16-3.26.66v3.42c0 1.3-.28 1.94-1.08 2.32a8.6 8.6 0 0 1 -3.6.46 9.55 9.55 0 0 0 -.84-2.4c1.12.06 2.28 0 2.64 0s.48-.1.48-.42v-2.9c-1.28.26-2.52.52-3.58.72l-.58-2.4c1.14-.18 2.58-.4 4.16-.68v-2.68h-3.78v-2.26h3.78v-2.28c-1.08.18-2.18.32-3.2.44a9.08 9.08 0 0 0 -.68-2 50.79 50.79 0 0 0 7.94-1.68l1.6 2c-1 .3-2.1.56-3.26.8v2.7h3.84c-.16-1.8-.22-3.66-.24-5.48h2.52a49.28 49.28 0 0 0 .2 5.48h5.44v2.26h-5.2c.16 1.2.36 2.36.58 3.38a16.63 16.63 0 0 0 1.9-2.72zm-1.46-4.4a15.86 15.86 0 0 0 -2.84-3.28l1.8-1.22a17.26 17.26 0 0 1 3 3.18z"/><path d="m31.58 158.88h-3.44v9.94h-2.2v-17.52c-.4 1.14-.86 2.32-1.38 3.46v14.1h-2.26v-10a16 16 0 0 1 -1.24 1.64 16.54 16.54 0 0 0 -1.14-2.56 22 22 0 0 0 4-7.72l2.2.66-.12.38h5.62zm-3.44-5.82v1.14h1.64v-1.14zm1.64 4v-1.16h-1.64v1.18zm8.64 9c0 1.32-.28 2-1.08 2.3a10.41 10.41 0 0 1 -4 .44 8.63 8.63 0 0 0 -.76-2.3c1.22.08 2.6.06 3 0s.52-.12.52-.5v-7.2h-3.62v-7.62h5.94zm-4.06-13v1.14h1.78v-1.14zm1.78 4v-1.16h-1.78v1.18z"/><path d="m52.42 156.66a52 52 0 0 1 6.66 5.42l-2 1.82a46.71 46.71 0 0 0 -6.12-5.42v10.36h-2.6v-9.76a23.89 23.89 0 0 1 -6.36 4.92 14.29 14.29 0 0 0 -1.64-2.16 21 21 0 0 0 8.64-7.84h-8v-2.44h17.32v2.44h-6.22a20.14 20.14 0 0 1 -1.16 1.84v2.08z"/><path d="m66.68 151a31.88 31.88 0 0 1 -1.92 4.12v13.74h-2.26v-10.24a18.38 18.38 0 0 1 -1.36 1.6 15.07 15.07 0 0 0 -1.26-2.46 21.26 21.26 0 0 0 4.54-7.5zm12.32 15.84v1.72h-12.9v-1.72h5.26v-.9h-4.06v-1.7h4.06v-.82h-4.56v-1.72h4.56v-.7h-4.36v-4.38h4.34v-.68h-2.7v-2.42h-2.26v-1.7h2.28v-1.62h2.18v1.62h3.32v-1.62h2.34v1.62h2.32v1.7h-2.32v2.42h-2.8v.68h4.48v4.38h-4.48v.7h4.62v1.72h-4.62v.82h4.18v1.7h-4.18v.9zm-7.62-7.4v-1.28h-2.18v1.28zm-.52-5h3.32v-.88h-3.34zm2.86 3.76v1.28h2.18v-1.28z"/><path d="m87.84 151.9c-.56 1.74-1.24 3.94-1.86 5.5a6 6 0 0 1 1.54 4.08 2.87 2.87 0 0 1 -.92 2.6 2.57 2.57 0 0 1 -1.18.46 10.09 10.09 0 0 1 -1.38 0 5.2 5.2 0 0 0 -.54-2.12h.94a1 1 0 0 0 .58-.18 1.36 1.36 0 0 0 .36-1.12 5.26 5.26 0 0 0 -1.48-3.52c.42-1.28.88-3.08 1.24-4.48h-1.76v15.7h-2.22v-17.76h4.72l.34-.1zm10.8 9.94a35.2 35.2 0 0 1 -2.7 2.34 7.57 7.57 0 0 0 3.14 2.62 8.45 8.45 0 0 0 -1.54 2c-2.94-1.56-4.5-4.54-5.4-8.44h-1.44v5.16l2.88-.52.18 2.08c-2.3.54-4.76 1-6.64 1.46l-.78-2.3c.6-.08 1.3-.2 2.08-.32v-14.84h9.28v9.3h-3.48a14 14 0 0 0 .78 2.12 17.74 17.74 0 0 0 1.8-2zm-7.94-8.7v1.58h4.64v-1.58zm0 5.2h4.64v-1.68h-4.64z"/><path d="m108.44 157.58s0 .66 0 .94c-.1 6.32-.2 8.68-.72 9.42a1.9 1.9 0 0 1 -1.34.84 11.48 11.48 0 0 1 -2.14.08 5.68 5.68 0 0 0 -.62-2.16c.66.06 1.2.06 1.52.06a.54.54 0 0 0 .58-.3c.26-.38.4-2.06.48-6.72h-1.64c-.24 3.8-.92 7-2.8 9.28a6.75 6.75 0 0 0 -1.68-1.78c2.14-2.62 2.3-6.8 2.34-11.8h-1.94v-2.2h3.12v-3h2.36v3h3.18v2.2h-4.44c0 .72 0 1.44-.06 2.14zm6.24-7.44c1 2.76 2.6 5.62 4.48 6.74a15 15 0 0 0 -1.16 2.42 14.12 14.12 0 0 1 -4.4-6.42 14.38 14.38 0 0 1 -4.34 6.46 11.36 11.36 0 0 0 -1.08-2.28c1.94-1.38 3.5-4.48 4.18-6.92zm-3.68 12.7a29 29 0 0 1 6.78 4l-1.58 2.08a28.83 28.83 0 0 0 -6.62-4.2zm3.68-.48a15.29 15.29 0 0 0 -3.4-3.1l1.56-1.5a17.23 17.23 0 0 1 3.54 2.92z"/><path d="m128.62 164a26.19 26.19 0 0 1 -6 4.9 22.51 22.51 0 0 0 -2-1.7 18.57 18.57 0 0 0 5.38-4.2zm-3.4-1.58h-2.4v-11h14.12v10.9h-2.48v-.54h-9.24zm0-8.72v5.8h9.24v-5.8zm7.72 9.26a41.47 41.47 0 0 1 5.58 4.52l-2.18 1.46a43.1 43.1 0 0 0 -5.4-4.7z"/><path d="m158.62 153.52c-.74.64-1.56 1.28-2.28 1.8a13.11 13.11 0 0 0 2.78 1 9.68 9.68 0 0 0 -1.42 1.88 15.3 15.3 0 0 1 -2.26-.94v1.84a1.25 1.25 0 0 0 0 .48.27.27 0 0 0 .22.08h.34a.9.9 0 0 0 .26 0 .36.36 0 0 0 .2-.24 6.41 6.41 0 0 0 .08-.92 5.22 5.22 0 0 0 1.66.88 4.63 4.63 0 0 1 -.3 1.28 1.24 1.24 0 0 1 -.74.56 3.1 3.1 0 0 1 -1 .14h-1a1.92 1.92 0 0 1 -1.32-.44c-.34-.34-.46-.72-.46-1.84v-1.16h-1.8a4.64 4.64 0 0 1 -2.2 4 9.3 9.3 0 0 0 -1.24-1.32v.88h-2.1v-.24h-2c-.08.44-.16.86-.26 1.28h4.44s0 .56 0 .84c-.22 2.88-.46 4.2-1 4.74a2.15 2.15 0 0 1 -1.6.68 22.37 22.37 0 0 1 -2.66 0 4.59 4.59 0 0 0 -.68-2c1 .08 2 .1 2.42.1a1.05 1.05 0 0 0 .74-.18c.26-.24.42-1 .56-2.48h-2.6l-.12.48-1.9-.3a48.48 48.48 0 0 0 1-4.94h3.68v-1.4h-3.3v-.14c-.46.22-.92.4-1.4.58a11.79 11.79 0 0 0 -1.28-1.74 13.23 13.23 0 0 0 3.34-1.52 19.39 19.39 0 0 0 -1.84-1.2l1.34-1.26a14.6 14.6 0 0 1 2.1 1.26 10.05 10.05 0 0 0 1.18-1.28h-3.9v-1.86h5.22l.4-.1 1.46.72a11.62 11.62 0 0 1 -3.74 4.72h2.56v4a2.89 2.89 0 0 0 1.46-2.7v-1.42h4a13.87 13.87 0 0 1 -4.18-5.4l1.9-.54a10.59 10.59 0 0 0 1.16 1.94 16.14 16.14 0 0 0 1.86-1.82l1.7 1.22c-.8.66-1.66 1.36-2.4 1.9a11.7 11.7 0 0 0 1.08.9 16.41 16.41 0 0 0 2.16-2zm-1.46 8.8a8.88 8.88 0 0 1 -2.3 3.76 13.18 13.18 0 0 0 3.5.88 8.93 8.93 0 0 0 -1.4 1.92 12.6 12.6 0 0 1 -3.94-1.46 14.13 14.13 0 0 1 -4.12 1.46 7.42 7.42 0 0 0 -1-1.72 13.56 13.56 0 0 0 3.44-1 8.81 8.81 0 0 1 -1.66-2.24l1.3-.36h-1.92v-1.56h6.44l.36-.06zm-5.6 1.22a6 6 0 0 0 1.48 1.54 6 6 0 0 0 1.4-1.54z"/><path d="m163.94 158.26a11.5 11.5 0 0 1 -2.26 2.9 8.46 8.46 0 0 0 -1.52-1.64 11.93 11.93 0 0 0 3.4-4.46h-2.9v-2h3.28v-2.82h2.26v2.76h2.8v2h-2.8v.74a38.3 38.3 0 0 1 3.16 2.2l-1.24 1.9c-.46-.5-1.2-1.22-1.92-1.88v4.18h-2.26zm-3.64 8.44a13.68 13.68 0 0 0 1.74-4.12l2.12.84a19.55 19.55 0 0 1 -1.68 4.36zm11.42-.32c.94 0 1.08-.28 1.2-2.3a5.78 5.78 0 0 0 2.14.84c-.3 2.86-1 3.56-3.16 3.56h-3.6c-2.72 0-3.4-.66-3.4-2.74v-2.74h2.34v2.7c0 .6.2.68 1.28.68zm-2.32-5 .4.36v-10.54h8.12v10.8h-7.92c.78.72 1.64 1.56 2.12 2.12l-1.72 1.44a29.8 29.8 0 0 0 -2.64-2.78zm2.56-7.18h3.68v-1.16h-3.64zm0 2.92h3.68v-1.12h-3.64zm0 2.94h3.68v-1.2h-3.64zm4.62 2.22c.8 1.24 2 2.94 2.5 4l-2.22 1.14c-.48-1.06-1.58-2.82-2.36-4.16z"/><path d="m184.2 155.68v-.76a19.3 19.3 0 0 1 -1.78 1.46h8v6.22h-6.42c0 .26-.08.54-.14.8h6.9v5.38h-2.06v-.56h-3.38v.62h-2v-3.3a9.49 9.49 0 0 1 -1.54 2.92 7.49 7.49 0 0 0 -1.56-1.42c1.76-2.3 2-5.5 2-7.76v-2.72l-.66.44a6.74 6.74 0 0 0 -1.42-1.68 13.84 13.84 0 0 0 5-4.88h2.12a39.45 39.45 0 0 1 4.18 3.6l-1.52 1.76c-.28-.32-.64-.72-1.06-1.16v1zm4.08 5.26v-.76h-4.12v.76zm-4.1-2.9v.72h4.1v-.76zm4.08-4c-.58-.56-1.2-1.14-1.78-1.6-.42.52-.88 1.06-1.4 1.6zm-3 11v1.42h3.38v-1.36zm8.56-1.22h-2.22v-11.2h2.24zm4.44-13.28v15.46c0 1.32-.26 2-1.06 2.34a8.84 8.84 0 0 1 -3.72.48 9.73 9.73 0 0 0 -.78-2.42h2.74s.5-.12.5-.46v-15.34z"/><path d="m200.24 167.22a6.61 6.61 0 0 0 2.62-3.38l2 .7a7.63 7.63 0 0 1 -2.76 3.94zm18.08-10.92h-17.32v-1.84h4.28a12.14 12.14 0 0 0 -.5-1.34h.1-2.88v-1.84h6.44v-1.08h2.36v1.06h6.46v1.84h-2.82l.3.06c-.3.52-.6.94-.84 1.3h4.42zm-6.8 10.46c.74 0 .86-.22 1-1.64a6.42 6.42 0 0 0 2 .76c-.26 2.22-.9 2.78-2.76 2.78h-3.22c-2.52 0-3.14-.58-3.14-2.48v-2.1h2.16l-.24-.1.82-.8h-5v-6.06h13.26v6.06h-6.5a12.72 12.72 0 0 1 2.1 1.22l-1.44 1.48a12.48 12.48 0 0 0 -2.82-1.72v2c0 .54.16.6 1.06.6zm-6.14-7.32h8.62v-.86h-8.64zm0 2.28h8.62v-.9h-8.64zm1.8-8.62a12.18 12.18 0 0 1 .48 1.3l-.26.06h4.44l-.28-.06c.18-.38.42-.88.58-1.3zm8.58 10.5a14.69 14.69 0 0 1 3.26 3.62l-2 1.14a16.58 16.58 0 0 0 -3.14-3.74z"/><path d="m222.88 168.28c1.56-.5 2.46-1.36 2.58-2.42a.75.75 0 0 1 -.22 0 1.77 1.77 0 0 1 -1.9-1.78 1.82 1.82 0 0 1 2-1.8c1.42 0 2.16 1.06 2.16 2.74a5 5 0 0 1 -3.94 4.86z"/><path d="m254 157a25.4 25.4 0 0 1 -3.4 7.1c.52 1.46 1.1 2.3 1.64 2.3s.64-1 .76-3.54a6.31 6.31 0 0 0 2 1.4c-.36 3.74-1.16 4.64-3 4.64-1.28 0-2.3-1-3.14-2.6a19 19 0 0 1 -3.14 2.72 16.05 16.05 0 0 0 -1.86-1.82 16.12 16.12 0 0 0 1.8-1.26c-3 .66-6.12 1.34-8.5 1.84l-.44-2.44c2.24-.38 5.7-1 8.9-1.7l.22 2.16a16.23 16.23 0 0 0 2-2 44.25 44.25 0 0 1 -1.4-8.28h-9.66v-2.36h9.54c0-1-.08-1.92-.08-2.88h2.54v2.88h3.22a14.5 14.5 0 0 0 -2.38-1.5l1.42-1.48a13 13 0 0 1 3 1.9l-1 1.08h1.48v2.36h-5.62a44.56 44.56 0 0 0 .78 5.48 23.55 23.55 0 0 0 1.88-4.52zm-8.8-.26v6.26h-7.44v-6.3zm-2.3 2h-3v2.26h3z"/><path d="m274.56 166.34h-7.78v2.54h-2.44v-2.54h-7.6v-2h7.6v-1h-5.7v-7.5h14.18v7.5h-6v1h7.78zm-9.5-11.34h-7.14v-4h7.14zm-2.22-2.58h-2.84v1.16h2.8zm-1.84 6.24h3.38v-1.06h-3.38zm3.38 2.78v-1.08h-3.38v1.08zm9.12-6.46h-7.18v-4h7.18zm-3.08 2.62h-3.6v1.06h3.6zm0 2.76h-3.6v1.08h3.6zm.86-8h-2.86v1.16h2.86z"/><path d="m279 162.24a18.49 18.49 0 0 1 -1.2 5.16 11.76 11.76 0 0 0 -1.82-.86 14.54 14.54 0 0 0 1.06-4.64zm3.54-5.58a17 17 0 0 1 1.76 4.24l-1.68.76a9.59 9.59 0 0 0 -.26-1l-1 .08v8.18h-2.06v-8l-2.9.18-.2-2.06 1.44-.06c.3-.38.62-.82.94-1.28a19.63 19.63 0 0 0 -2.36-2.72l1.14-1.62.46.4a25.35 25.35 0 0 0 1.46-3.48l2.06.76c-.72 1.36-1.52 2.92-2.24 4 .24.28.48.54.68.8a36.27 36.27 0 0 0 1.78-3.24l1.94.9c-1.1 1.74-2.48 3.76-3.74 5.38l1.92-.08c-.22-.5-.46-1-.7-1.44zm.52 5.08a22.05 22.05 0 0 1 1.24 3.6l-1.76.64a23.67 23.67 0 0 0 -1.16-3.72zm9 4.84a1.86 1.86 0 0 0 .52-.06.56.56 0 0 0 .3-.42 14.77 14.77 0 0 0 .12-1.66 6.18 6.18 0 0 0 2 1.06 6.93 6.93 0 0 1 -.38 2.1 1.45 1.45 0 0 1 -.94.86 4.69 4.69 0 0 1 -1.42.2h-1.72a2.73 2.73 0 0 1 -1.68-.5c-.46-.36-.68-.8-.68-2.56v-2.26h-1.5v1.08h-2.1v-8.42h2.1v5.24h1.5v-6.6c-1.34.16-2.68.28-3.94.36a8 8 0 0 0 -.62-1.88c1.5-.12 3.08-.3 4.56-.54v-2.32h2.24v1.92a20.7 20.7 0 0 0 2.44-.68l1.68 1.78a25.84 25.84 0 0 1 -4.12 1v6.94h1.58v-5.22h2.16v8.14h-2.16v-.76h-1.5v2.3c0 .44 0 .74.16.84a1 1 0 0 0 .5.1z"/><path d="m300.68 161.44v4.66c0 1.1-.18 1.68-.78 2a4.94 4.94 0 0 1 -2.76.46 7.82 7.82 0 0 0 -.62-2.18h1.66s.34-.08.34-.34v-4l-1.84.52-.54-2.3c.68-.14 1.48-.36 2.38-.58v-3.54h-2.16v-2.14h2.16v-3.8h2.16v3.8h2v2.2h-2v3l1.8-.48.32 2.14zm9.1 5c.46 0 .9.06 1.4.06h4a7 7 0 0 0 -.64 2.08h-3.48c-2.62 0-4.64-.48-6-2.9a8.84 8.84 0 0 1 -2.1 3.14 12.22 12.22 0 0 0 -1.74-1.42c1.66-1.32 2.48-3.54 2.78-6.26l2.16.26a18.18 18.18 0 0 1 -.38 2 4.49 4.49 0 0 0 1.74 2.34v-5.22h-4.7v-1.92h11.82v1.92h-4.88v1.76h3.82v1.86h-3.82zm3.88-8.76h-9.84v-6.9h9.84zm-2.28-5.24h-5.38v1h5.38zm0 2.54h-5.38v1h5.38z"/><path d="m322.76 150.94a36.68 36.68 0 0 1 -1.9 4.16v13.76h-2.34v-10.14c-.42.54-.84 1-1.26 1.48a13.92 13.92 0 0 0 -1.28-2.48 20.91 20.91 0 0 0 4.56-7.48zm4.66 13.24a18.46 18.46 0 0 1 -4 4.64 13.28 13.28 0 0 0 -1.86-1.5 12.43 12.43 0 0 0 3.62-3.82zm7.54-3.82v2.32h-12.96v-2.32h2.68v-4h-2.18v-2.26h2.18v-3.74h2.32v3.74h2.9v-3.76h2.32v3.76h2.6v2.28h-2.6v4zm-8 0h2.9v-4h-2.86zm4.48 3.12a24.76 24.76 0 0 1 3.4 4.12l-2 1.26a22.18 22.18 0 0 0 -3.3-4.32z"/><path d="m354 163.84a27 27 0 0 1 -3.3 1.84 13.52 13.52 0 0 0 4.3 1.32 8.21 8.21 0 0 0 -1.3 1.9c-4.16-.8-6.66-2.68-8.16-5.86a15.06 15.06 0 0 1 -2.36 1.42v1.74l4-.52.08 1.86c-2.82.4-5.8.8-8 1.12l-.34-1.94 2-.22v-1.1a22.79 22.79 0 0 1 -3.3.84 10.24 10.24 0 0 0 -1.26-1.72 22.55 22.55 0 0 0 6.18-1.68h-5.84v-1.84h7.78v-1h-.8a6.08 6.08 0 0 0 -.58-1.38h1.08s.24-.06.24-.22v-.82h-1.64v2.92h-2v-2.92h-1.5v2.42h-1.8v-3.9h3.3v-.7h-4.1v-1.6h1.22c-.4-.24-.92-.54-1.24-.7a8.7 8.7 0 0 0 1.56-2.88l1.74.44c-.1.28-.2.54-.32.82h1.14v-1.28h2v1.28h3.32v1.52h-3.32v.8h3.86v1.6h-3.86v.7h3.54v2.26c0 .76-.14 1.12-.66 1.36a2.61 2.61 0 0 1 -.94.2h2.12v1h7.8v1.88h-2zm-13.22-10v-.84h-1.9a7.78 7.78 0 0 1 -.5.8zm8.82 3.86h-2.12v-6.7h2.12zm-1.92 5.18a7.32 7.32 0 0 0 1.42 1.72 23.27 23.27 0 0 0 2.84-1.72zm6.26-4.5c0 1-.2 1.52-.92 1.82a8.41 8.41 0 0 1 -3.06.32 7.38 7.38 0 0 0 -.7-1.88h2.14s.38-.08.38-.34v-7.94h2.16z"/><path d="m363 151a31.15 31.15 0 0 1 -1.92 4.16v13.7h-2.4v-10c-.42.5-.84 1-1.24 1.44a16.25 16.25 0 0 0 -1.32-2.54 20.81 20.81 0 0 0 4.56-7.48zm6.34 4.72v2.1h5.18v2.18h-5.18v2.26h5.44v2.2h-5.44v4.44h-2.44v-13.18h-.76a22.21 22.21 0 0 1 -2.62 3.88 16.18 16.18 0 0 0 -1.82-1.66 19.85 19.85 0 0 0 4.24-7.54l2.3.58a23.64 23.64 0 0 1 -1 2.48h7.76v2.26z"/><path d="m378.88 168.28c1.56-.5 2.46-1.36 2.58-2.42a.75.75 0 0 1 -.22 0 1.77 1.77 0 0 1 -1.9-1.78 1.82 1.82 0 0 1 2-1.8c1.42 0 2.16 1.06 2.16 2.74a5 5 0 0 1 -3.94 4.86z"/><path d="m402.68 153.36q-.36 1.11-.72 2.1h7.9v10.9c0 1.12-.2 1.7-.92 2.08a7.54 7.54 0 0 1 -3.06.4 8.42 8.42 0 0 0 -.76-2.16h2s.36-.08.36-.36v-8.66h-2.36v10.58h-2.42v-10.56h-2.2v10.58h-2.36v-10.58h-2.14v11.2h-2.46v-13.42h5.82c.2-.68.36-1.4.5-2.1h-7.26v-2.42h18.14v2.42z"/><path d="m423.06 166.3c.52 0 1.06.06 1.6.06 1.12 0 5 0 6.38-.06a8.09 8.09 0 0 0 -.8 2.28h-5.7c-3.66 0-6.14-.52-7.82-2.84a9 9 0 0 1 -2.8 3.18 9.59 9.59 0 0 0 -1.8-1.66 8.45 8.45 0 0 0 3.72-6.06l2.38.36c-.14.64-.3 1.24-.46 1.82a4.4 4.4 0 0 0 2.88 2.5v-5.08h-7.8v-2.1h17.64v2.1h-7.42v1.5h6.16v2.06h-6.16zm5.52-8.48h-13.9v-6.94h13.9zm-2.42-5.28h-9.16v1h9.16zm0 2.58h-9.16v1h9.16z"/><path d="m446 163.84a14.69 14.69 0 0 0 4.92 2.78 8.61 8.61 0 0 0 -1.58 1.92 14.68 14.68 0 0 1 -4.68-3.3v3.62h-2.26v-5h-1.82v5h-2.28v-3.42a14.55 14.55 0 0 1 -4.42 3.14 9.3 9.3 0 0 0 -1.52-1.8 13.77 13.77 0 0 0 4.66-2.94h-2.68v-1.84h4v-1.2h-5.66v-2h5.66v-1.1h-3.76v-1.7h3.76v-1.2h-5.34v-2h4a12.79 12.79 0 0 0 -1.58-1.72l2.18-1a10.88 10.88 0 0 1 2.18 2.4l-.68.32h4.64a17.72 17.72 0 0 0 1.94-2.68l2.56.8c-.54.68-1.08 1.3-1.62 1.88h3.8v2h-5.68v1.2h4.1v2.88h2v2h-2v3zm-5.42-7.84h1.82v-1.2h-1.82zm0 2.88h1.82v-1.1h-1.82zm1.82 3.12v-1.2h-1.82v1.2zm2.28-4.28v1.1h1.78v-1.1zm1.78 3.08h-1.78v1.2h1.78z"/><path d="m458.58 164.58 2 1.58a33.41 33.41 0 0 1 -6.44 2.7 19.52 19.52 0 0 0 -1.64-1.82 26 26 0 0 0 6-2.46h-5.76v-2.2h17.78v2.2zm9.24-3.12h-12.24v-10.54h12.24zm-2.46-8.74h-7.44v1.2h7.44zm0 2.86h-7.44v1.2h7.44zm0 2.88h-7.44v1.2h7.44zm-.84 6.22a65.18 65.18 0 0 1 6.3 2.58l-2.4 1.62a38.88 38.88 0 0 0 -5.74-2.62z"/><path d="m480.46 150.1h6.62v2.16h-4.26v10.62h-2.36z"/><path d="m509 154.7s0 .78 0 1.06c-.18 8.18-.34 11.08-1 12a2.23 2.23 0 0 1 -1.58 1 13.42 13.42 0 0 1 -2.48.08 5.57 5.57 0 0 0 -.7-2.28c.88.08 1.64.1 2 .1a.73.73 0 0 0 .68-.34c.42-.54.62-3 .74-9.44h-1.8c-.26 5.36-1.18 9.48-4.54 12.14a7.79 7.79 0 0 0 -1.4-1.58c-2.88.3-5.76.6-7.92.78l-.28-2 4.06-.28v-1.2h-3.52v-1.68h3.52v-.78h-3.44v-6.18h3.44v-.78h-3.94v-1.72h3.94v-.8c-1.16.08-2.3.14-3.38.16a7.41 7.41 0 0 0 -.52-1.68 62 62 0 0 0 8.62-1l1 1.78c-1.06.22-2.3.4-3.6.54v1h3.84v1.1h1.88c0-1.32 0-2.7 0-4.18h2.28v4.18zm-15.76 3.78h1.56v-.88h-1.6zm1.56 2.32v-.9h-1.6v.9zm2.16 5c1.14-.08 2.32-.18 3.48-.28 1.56-2.16 2-5 2.18-8.6h-1.82v-1.56h-3.84v.78h3.54v6.18h-3.54v.78h3.62v1.68h-3.62zm1.56-7.28v-.88h-1.56v.88zm-1.56 1.42v.9h1.56v-.9z"/><path d="m517.34 166.38c0 1-.14 1.68-.72 2a4.54 4.54 0 0 1 -2.5.42 8.41 8.41 0 0 0 -.6-2.2h1.46s.26-.08.26-.34v-4.08h-1.64a23.22 23.22 0 0 1 -1.2 6.58 8.06 8.06 0 0 0 -1.82-1c1.06-2.76 1.14-6.78 1.14-9.68v-7.18h5.62zm-2.1-6.3v-2.48h-1.52v.54 1.94zm-1.52-7v2.4h1.52v-2.48zm6.38 5.12a21 21 0 0 0 -2.52-4.12 29.1 29.1 0 0 0 2.18-3.82l2.08.48c-.62 1.14-1.34 2.3-2 3.32a21 21 0 0 1 2.2 3.32zm4.84-.56c-.2.42-.42.82-.62 1.2h4.58v10h-2.2v-.66h-6.28v.76h-2.12v-10.14h3.46a15 15 0 0 0 .4-1.56l1.2.16a23.64 23.64 0 0 0 -2.36-3.4 29 29 0 0 0 2.2-3.74l2.06.48c-.6 1.12-1.36 2.26-2 3.24a21.57 21.57 0 0 1 2.3 3.24l-.9.38zm1.76 3.14h-2l1.52.78a14.16 14.16 0 0 1 -1.24 1.7 14.64 14.64 0 0 1 1.56 1.34l-1.32 1.34a13.41 13.41 0 0 0 -1.5-1.38 15.42 15.42 0 0 1 -2.06 1.64 8.9 8.9 0 0 0 -1.22-1.24v1.26h6.28zm-6.28 0v4.14a10.67 10.67 0 0 0 1.88-1.44c-.54-.38-1.1-.76-1.6-1.08l1.24-1.18c.5.28 1 .64 1.56 1a10.61 10.61 0 0 0 1-1.44zm7-2.64a21.52 21.52 0 0 0 -3-4.08 36.27 36.27 0 0 0 2.38-3.8l2.14.52a36.18 36.18 0 0 1 -2.1 3.24 23.11 23.11 0 0 1 2.52 3.18z"/><path d="m534.34 158.26a11.5 11.5 0 0 1 -2.26 2.9 8.46 8.46 0 0 0 -1.52-1.64 11.93 11.93 0 0 0 3.4-4.46h-2.9v-2h3.28v-2.82h2.26v2.76h2.82v2h-2.82v.74a38.3 38.3 0 0 1 3.16 2.2l-1.24 1.9c-.46-.5-1.2-1.22-1.92-1.88v4.18h-2.26zm-3.64 8.44a13.68 13.68 0 0 0 1.74-4.12l2.12.84a19.55 19.55 0 0 1 -1.68 4.36zm11.42-.32c.94 0 1.08-.28 1.2-2.3a5.78 5.78 0 0 0 2.14.84c-.3 2.86-1 3.56-3.16 3.56h-3.6c-2.72 0-3.4-.66-3.4-2.74v-2.74h2.34v2.7c0 .6.2.68 1.28.68zm-2.32-5 .4.36v-10.54h8.12v10.8h-7.92c.78.72 1.64 1.56 2.12 2.12l-1.72 1.44a29.8 29.8 0 0 0 -2.64-2.78zm2.56-7.18h3.64v-1.16h-3.68zm0 2.92h3.64v-1.12h-3.68zm0 2.94h3.64v-1.2h-3.68zm4.62 2.22c.8 1.24 2 2.94 2.5 4l-2.22 1.14c-.48-1.06-1.58-2.82-2.36-4.16z"/><path d="m556.94 158.68c.8.8 2.6 2.9 3 3.44l-1.36 2c-.38-.68-1-1.68-1.68-2.62v7.38h-2.4v-7.12a17.73 17.73 0 0 1 -2.8 4.78 10.49 10.49 0 0 0 -1.2-2.24 17.89 17.89 0 0 0 3.42-5.94h-3v-2.2h3.56v-2.6c-1 .16-1.94.3-2.86.42a8.2 8.2 0 0 0 -.64-1.86 35.79 35.79 0 0 0 7.34-1.72l1.54 1.86a25.38 25.38 0 0 1 -3 .84v3.06h2.9v2.2h-2.9zm11.42-6.6v15.7h-2.46v-1.44h-3.2v1.58h-2.34v-15.84zm-2.46 12v-9.7h-3.2v9.7z"/><path d="m589 154.7s0 .78 0 1.06c-.18 8.18-.34 11.08-1 12a2.23 2.23 0 0 1 -1.58 1 13.42 13.42 0 0 1 -2.48.08 5.57 5.57 0 0 0 -.7-2.28c.88.08 1.64.1 2 .1a.73.73 0 0 0 .68-.34c.42-.54.62-3 .74-9.44h-1.8c-.26 5.36-1.18 9.48-4.54 12.14a7.79 7.79 0 0 0 -1.4-1.58c-2.88.3-5.76.6-7.92.78l-.28-2 4.06-.28v-1.2h-3.52v-1.68h3.52v-.78h-3.44v-6.18h3.44v-.78h-3.94v-1.72h3.94v-.8c-1.16.08-2.3.14-3.38.16a7.41 7.41 0 0 0 -.52-1.68 62 62 0 0 0 8.62-1l1 1.78c-1.06.22-2.3.4-3.6.54v1h3.84v1.1h1.88c0-1.32 0-2.7 0-4.18h2.28v4.18zm-15.76 3.78h1.56v-.88h-1.6zm1.56 2.32v-.9h-1.6v.9zm2.16 5c1.14-.08 2.32-.18 3.48-.28 1.56-2.16 2-5 2.18-8.6h-1.82v-1.56h-3.84v.78h3.54v6.18h-3.54v.78h3.62v1.68h-3.62zm1.56-7.28v-.88h-1.56v.88zm-1.56 1.42v.9h1.56v-.9z"/><path d="m609.2 162.76h-7.9v3.24c0 1.42-.36 2-1.3 2.42a13.6 13.6 0 0 1 -4.44.4 9.23 9.23 0 0 0 -1-2.36c1.48.06 3.16.06 3.6.06s.64-.16.64-.56v-3.22h-7.9v-2.32h7.9v-2.32h-6.54v-2.28h6.54v-2.34c-2.08.18-4.18.3-6.14.38a8 8 0 0 0 -.6-2.1 74.27 74.27 0 0 0 13.58-1.6l1.72 2a47.12 47.12 0 0 1 -6.08 1.06v2.62h6.72v2.28h-6.7v2.34h7.9z"/><path d="m616.48 150.9a40.34 40.34 0 0 1 -1.6 4v13.92h-2.18v-10a19.43 19.43 0 0 1 -1.22 1.64 16.08 16.08 0 0 0 -1.16-2.58 21.77 21.77 0 0 0 4-7.68zm12 5a25 25 0 0 1 -1.8 7.9 8.59 8.59 0 0 0 2.84 3.14 9.66 9.66 0 0 0 -1.42 1.88 9.91 9.91 0 0 1 -2.6-2.94 10.78 10.78 0 0 1 -3 2.94 12.94 12.94 0 0 0 -1.42-1.6 9.37 9.37 0 0 0 .8-.54h-3.88v1.42h-2v-8.86h2v-3.24h-2.3v-2.14h2.3v-3.36h2.24v3.36h2.08v2.14h-2.08v3.26h1.52c-.18-.26-.36-.5-.48-.66 1.38-2 2.14-5.12 2.56-8.34l2.12.36c-.18 1.1-.38 2.24-.62 3.3h4.08v2zm-8.36 5.36h-2.12v3.42h2.06zm2.08 5.18a9.53 9.53 0 0 0 2.28-2.7 23.07 23.07 0 0 1 -1.18-4.24 8.6 8.6 0 0 1 -.7 1.1 5.74 5.74 0 0 0 -.4-.7zm2.6-10.54-.18.58a27.67 27.67 0 0 0 .94 4.64 27.13 27.13 0 0 0 .92-5.22z"/><path d="m638.84 169h-6.64v-2.16h4.26v-10.64h2.38z"/><path d="m666.48 153.28s0 .8 0 1.08c-.26 8.94-.48 12.12-1.3 13.18a2.67 2.67 0 0 1 -1.92 1.1 22.42 22.42 0 0 1 -3.14 0 5.6 5.6 0 0 0 -.78-2.32c1.28.12 2.46.12 3 .12a1.07 1.07 0 0 0 .88-.34c.58-.64.84-3.64 1.06-10.7h-4.28a17.25 17.25 0 0 1 -1.76 3.16 14.86 14.86 0 0 0 -1.54-1.12v9.34h-5.34v1.46h-2.16v-14.82h2.26a21.45 21.45 0 0 0 .58-3.22l2.6.36c-.34 1-.7 2-1 2.86h3.1v3.24a20.69 20.69 0 0 0 2.7-6.44l2.26.52a23.21 23.21 0 0 1 -.78 2.54zm-12 2.22h-3.18v3.24h3.18zm0 9.22v-3.92h-3.18v3.92zm6.64-1.08a42.8 42.8 0 0 0 -2.78-4.62l1.86-1.06a48.27 48.27 0 0 1 2.94 4.44z"/><path d="m674.08 150.88a38.88 38.88 0 0 1 -1.52 3.88v14.1h-2.26v-10a16 16 0 0 1 -1.24 1.64 16.54 16.54 0 0 0 -1.14-2.56 22.28 22.28 0 0 0 4-7.72zm11.42 13.18a7.85 7.85 0 0 1 -2.7 2.44 31.62 31.62 0 0 0 4.4.52 9.13 9.13 0 0 0 -1.24 1.9 23 23 0 0 1 -5.82-1.24 30.54 30.54 0 0 1 -5.7 1.28 7.14 7.14 0 0 0 -1.14-1.72 35.41 35.41 0 0 0 4.5-.72 9.14 9.14 0 0 1 -1.38-1.08c-.56.28-1.18.54-1.84.8a6 6 0 0 0 -1.3-1.44 12.3 12.3 0 0 0 4.66-2.3c-.42-.24-.56-.66-.58-1.36a8.92 8.92 0 0 1 -1.92 2l-1.44-1.14a5.43 5.43 0 0 0 1-.78h-1.5v-2.86h1.82v-4.96h3.3c.06-.22.1-.46.16-.7h-4.58v-1.7h12.26v1.7h-5.22l-.32.7h4.28v4.94h1.8v2.86h-1.3a7.63 7.63 0 0 1 .8 1l-1.5.8a10 10 0 0 0 -1.28-1.62c-.18 1-.64 1.34-1.78 1.34h-1.68a5.51 5.51 0 0 1 -.6.58h4.06l.4-.08zm-6.28-4v1c0 .42.12.48.66.48h1.76c.4 0 .5-.12.58-.68a5 5 0 0 0 1.3.42c-.18-.18-.38-.38-.56-.54l1.46-.74c.14.12.28.24.42.38v-.64h-3.46a5.46 5.46 0 0 1 .76.8l-1.44.84a7.6 7.6 0 0 0 -1.7-1.68h-3.4v1a6.79 6.79 0 0 0 .5-.62l1.26.68v-.76zm-1.7-5.46v.6h5.54v-.6zm5.54 1.56h-5.54v.64h5.54zm-5.54 2.22h5.54v-.62h-5.54zm.76 6.34a8.07 8.07 0 0 0 2 1.08 8.63 8.63 0 0 0 2-1.08z"/><path d="m705.28 152.34c0 4.16-.08 7.62.46 7.62.22 0 .28-1 .3-2.3a10.53 10.53 0 0 0 1.28 1.36c-.16 2-.5 3-1.76 3-2.06 0-2.34-3.32-2.38-7.78h-1.36a19.45 19.45 0 0 1 -.34 2.38 10.73 10.73 0 0 1 1.84 1.32l-1 1.7a10 10 0 0 0 -1.4-1.12 6.69 6.69 0 0 1 -2.48 3.06 5.24 5.24 0 0 0 -1.14-1.38v1c-3.1.22-6.32.42-8.6.58l-.12-1.66 3.46-.16v-.96h-2.68v-1.4h2.64v-.88h1.9c-.3-.24-.38-.66-.38-1.34v-.54h-1a4.18 4.18 0 0 1 -3.2 2.72 6.42 6.42 0 0 0 -.88-1.38c1.14-.22 2-.6 2.32-1.34h-2.08v-1.5h3.32v-.72h-2.7v-1.4h2.7v-1h2.16v1h2.84v1.4h-2.78v.72h3.48v1.5h-2.4v.54c0 .38 0 .4.22.4h.48c.22 0 .28-.1.34-.68a4.89 4.89 0 0 0 1.38.48c-.12 1.08-.54 1.42-1.46 1.42h-1a2.82 2.82 0 0 1 -1-.14v.74h2.74v1.4h-2.8v.82l3.1-.18v.36a5.42 5.42 0 0 0 1.9-2.5 17.63 17.63 0 0 0 -1.62-.82l1-1.5c.36.14.74.32 1.14.5.06-.44.12-.92.16-1.42h-1.88v-1.9h1.88c0-.68 0-1.38 0-2.14h2c0 .74 0 1.46-.06 2.14zm0 10.28s0 .62-.1.92c-.28 2.72-.62 4.06-1.2 4.6a2.51 2.51 0 0 1 -1.76.68c-.62.06-1.7.06-2.86 0a4.64 4.64 0 0 0 -.68-2.14c1 .1 2.08.12 2.52.12a1.09 1.09 0 0 0 .8-.2c.28-.22.48-.88.68-2.22h-4.6c-.9 2.36-3 3.78-8.26 4.5a6.66 6.66 0 0 0 -1.08-1.94c4.08-.44 5.88-1.24 6.74-2.56h-5.56v-1.8h6.22c.06-.32.12-.64.16-1h2.4c0 .34-.08.68-.14 1z"/><path d="m710.88 168.28c1.56-.5 2.46-1.36 2.58-2.42a.75.75 0 0 1 -.22 0 1.77 1.77 0 0 1 -1.9-1.78 1.82 1.82 0 0 1 2-1.8c1.42 0 2.16 1.06 2.16 2.74a5 5 0 0 1 -3.94 4.86z"/><path d="m16.9 212a27.34 27.34 0 0 0 -2.58-2.32 8.39 8.39 0 0 1 -1.32 1.7 11.12 11.12 0 0 0 -1.56-1 17.5 17.5 0 0 0 7.64 5.58 10.92 10.92 0 0 0 -1.76 2.18 19.22 19.22 0 0 1 -6.48-5.06v5.82h-2.52v-5.7a19.29 19.29 0 0 1 -6.42 4.94 14.68 14.68 0 0 0 -1.68-2 17.7 17.7 0 0 0 8.1-6.44v-4.7h-7.32v-2.34h7.32v-2.46h2.5v2.46h7.54v2.34h-7.54v4.48l.3.46a8.91 8.91 0 0 0 2.52-4.82l2.32.42a17.78 17.78 0 0 1 -.66 2.14c1.14.88 2.52 1.94 3.26 2.62zm-10.3-6.4a19.53 19.53 0 0 1 -.72 2.16c.72.62 1.48 1.28 1.94 1.76l-1.6 1.66a16.19 16.19 0 0 0 -1.34-1.4 10.73 10.73 0 0 1 -2.3 2.74 14.25 14.25 0 0 0 -1.84-1.56 9.68 9.68 0 0 0 3.54-5.8z"/><path d="m24.2 205.68v-.76a19.3 19.3 0 0 1 -1.78 1.46h8v6.22h-6.42c0 .26-.08.54-.14.8h6.9v5.38h-2.1v-.56h-3.38v.62h-2v-3.3a9.49 9.49 0 0 1 -1.54 2.92 7.49 7.49 0 0 0 -1.56-1.46c1.76-2.3 2-5.5 2-7.76v-2.72l-.66.44a6.74 6.74 0 0 0 -1.42-1.68 13.84 13.84 0 0 0 5-4.88h2.12a39.45 39.45 0 0 1 4.18 3.6l-1.52 1.76c-.28-.32-.64-.72-1.06-1.16v1zm4.08 5.26v-.76h-4.12v.76zm-4.1-2.9v.72h4.1v-.76zm4.08-4c-.58-.56-1.2-1.14-1.78-1.6-.42.52-.88 1.06-1.4 1.6zm-3 11v1.42h3.38v-1.36zm8.56-1.22h-2.22v-11.2h2.24zm4.44-13.28v15.46c0 1.32-.26 2-1.06 2.34a8.84 8.84 0 0 1 -3.72.48 9.73 9.73 0 0 0 -.78-2.42h2.74s.5-.12.5-.46v-15.34z"/><path d="m45.2 214.24c.82 1.34 2.32 1.88 4.4 2 2.34.1 6.84 0 9.5-.16a12.46 12.46 0 0 0 -.74 2.4c-2.4.12-6.42.16-8.8.06s-4.1-.66-5.4-2.22c-.88.78-1.76 1.56-2.86 2.4l-1.16-2.48a26.27 26.27 0 0 0 2.74-1.84v-4.22h-2.3v-2.18h4.62zm-1.38-9a15.13 15.13 0 0 0 -3.22-3.16l1.76-1.44a16 16 0 0 1 3.34 3zm3.5.9a14.82 14.82 0 0 0 -2-1.12 10.86 10.86 0 0 0 2.84-4.66l2.22.52a14.56 14.56 0 0 1 -.62 1.54h1.4v-2.22h2.36v2.22h4.38v2h-4.36v1.7h5.18v2h-12.86v-2zm1.36-1.7a11.91 11.91 0 0 1 -1.32 1.7h3.82v-1.7zm-1.22 10.6v-5.82h10.06v5.82zm2.32-1.9h5.22v-2h-5.22z"/><path d="m77.68 210.4v8.46h-2.48v-1.14h-11.08v1.16h-2.42v-8.48h2.42v5h4.18v-6h-5.8v-7.26h2.36v4.86h3.44v-6.6h2.44v6.6h3.64v-4.94h2.5v7.26h-6.14v6h4.46v-5z"/><path d="m86.9 205.38h-6.6v-1.88h6.6zm-.52 12.42h-3.48v.8h-1.84v-6.82h5.32zm-5.26-11.52h5.3v1.82h-5.3zm0 2.74h5.3v1.78h-5.3zm5.24-6.4h-5.12v-1.8h5.12zm-3.46 11v2.3h1.58v-2.3zm15.84 1.38a13.58 13.58 0 0 1 -2.06 1.1 7.34 7.34 0 0 0 2.5 1.12 6.25 6.25 0 0 0 -1.18 1.7 7.4 7.4 0 0 1 -4-2.76l.12 1.54c-2.06.36-4.22.74-5.9 1l-.56-1.78 1.6-.22v-1c-.58.24-1.16.44-1.74.62a12.1 12.1 0 0 0 -1.08-1.48 18 18 0 0 0 3.14-1h-2.74v-1.64h2.84v-.66h-1.94v-1.42h1.94v-.64h-2.2v-1.42h2.2v-.88h-1.92v-3.5h4.78v3.5h-.76v.88h2.12v-.88h-.62v-3.5h4.84v3.5h-2.12v.88h2.5v1.42h-2.5v.64h2.22v1.42h-2.22v.66h2.74v1.62h-4a5.93 5.93 0 0 0 .82 1.26c.68-.38 1.46-.86 2-1.2zm-.06-11.9h-11.62v-1.7h4.5v-1.2h2.44v1.24h4.7zm-7.94 2.9v-1h-1.28v1zm.56 10.44 2.6-.38a9.84 9.84 0 0 1 -1.1-2.2h-.32a7.73 7.73 0 0 1 -1.18.84zm.48-6.28h2.12v-.64h-2.12zm0 2.08h2.12v-.66h-2.12zm3.22-6.24h1.34v-1h-1.34z"/><path d="m110.82 216.26h7.4v2.14h-17v-2.14h7.14v-2.38h-5.56v-2.08h5.54v-2.3h-4.52v-1.58a25.59 25.59 0 0 1 -2.22 1.38 8.79 8.79 0 0 0 -1.5-1.92 21.83 21.83 0 0 0 8.12-7.24h2.46a21.14 21.14 0 0 0 8.56 7 11.59 11.59 0 0 0 -1.58 2.14 25.35 25.35 0 0 1 -2.16-1.34v1.56h-4.68v2.3h5.6v2.08h-5.6zm3.9-8.86a24.1 24.1 0 0 1 -5.16-5 23 23 0 0 1 -5 5z"/><path d="m133.54 213.46v-.8h-2.68v.82h-2.4v-6.18h-2.72v8h12.48v2.3h-12.48v1.26h-2.46v-11.56h-2.84v-2.3h2.84v-4.2h2.46v4.2h2.72v-4.64h2.4v4.64h2.68v-4.44h2.4v4.44h3v2.3h-3v6.16zm0-3v-3.16h-2.68v3.14z"/><path d="m153.56 209.38a14.22 14.22 0 0 0 5.48 2.7 10.67 10.67 0 0 0 -1.58 2 14.62 14.62 0 0 1 -3.38-1.62v6.32h-2.48v-7h1.5a12.07 12.07 0 0 1 -2.34-2.4h-2.06a13.53 13.53 0 0 1 -2.4 2.38h1.7v1.38c0 1.9-.58 4.42-4.56 5.88a8.79 8.79 0 0 0 -1.64-1.92c3.34-1.1 3.74-2.78 3.74-4.06v-.72a16 16 0 0 1 -3.64 1.86 11 11 0 0 0 -1.56-2 15 15 0 0 0 5.4-2.84h-3.18v-8.5h14.26v8.5zm-8.62-5.14h3.5v-1.44h-3.5zm0 3.22h3.5v-1.46h-3.5zm9.4-4.66h-3.5v1.44h3.5zm0 3.22h-3.5v1.44h3.5z"/><path d="m177.44 203.22a6.91 6.91 0 0 1 -1.68 2.3 13.83 13.83 0 0 0 3.4 1.1 7.3 7.3 0 0 0 -1.32 1.72 13.55 13.55 0 0 1 -3.78-1.56 16.2 16.2 0 0 1 -3.34 1.36 9.17 9.17 0 0 0 -1.16-1.64 2.43 2.43 0 0 1 -.42 1.18 1.42 1.42 0 0 1 -1 .52 13.74 13.74 0 0 1 -1.62 0 4.65 4.65 0 0 0 -.12-.66h-4.4v-2.2q-.3.24-.66.48a5.3 5.3 0 0 0 -1.24-1.26 5.49 5.49 0 0 0 2.2-2l.44.08v-.34h-2v-1.36h2v-.72h1.92v.72h1.72v-.72h1.92v.72h2v1.36h-2v.6h-1.92v-.6h-1.72v.6h-.66l-.16.28h5.68a7.85 7.85 0 0 0 2.5-3l2 .52a8.72 8.72 0 0 1 -.46.84h5.06v1.66zm.76 10.78s0 .5-.08.76c-.24 2.1-.5 3.14-.94 3.56a1.92 1.92 0 0 1 -1.22.56 12.79 12.79 0 0 1 -2 0 4.34 4.34 0 0 0 -.28-1.28l-.78.32a9.42 9.42 0 0 0 -1.14-1.84l1.58-.58a8.06 8.06 0 0 1 1.22 1.72h-.06.26a.63.63 0 0 0 .52-.16 3.5 3.5 0 0 0 .5-1.68h-10.52v.06h-2.26l1.44.62a6.4 6.4 0 0 1 -2.34 2.84l-1.82-1.22a5.69 5.69 0 0 0 2.22-2.46l.46.2v-7.1h13.54v1.4h-5.6v.64h5v1.18h-5v.62h5v1.18h-5v.66zm-11.52-7.2h.32a.47.47 0 0 0 .44-.18 5.25 5.25 0 0 0 .34-2.22h-4.78c-.14.16-.3.32-.46.48h4.12zm-1.62-.9h-1.5v.66h1.5zm.2 3.84v.64h3.38v-.64zm3.38 1.82h-3.38v.62h3.38zm-3.38 2.44h3.38v-.64h-3.38zm1.9 1.88a12.41 12.41 0 0 1 .58 2.46l-2 .36a14.76 14.76 0 0 0 -.48-2.54zm3.22-.08a11.31 11.31 0 0 1 .88 2.18l-1.86.5a12.5 12.5 0 0 0 -.8-2.28zm2.06-10.22a9.37 9.37 0 0 1 -1.14-1.22 7.83 7.83 0 0 1 -.66.54c-.18-.2-.5-.5-.84-.8-.06 1.06-.14 1.82-.22 2.4a13.32 13.32 0 0 0 2.86-.94zm.28-2.34a6.7 6.7 0 0 0 1.38 1.32 5.12 5.12 0 0 0 1.14-1.32z"/><path d="m199.1 216.36v1.94h-9.68v-.94c-3.24.38-6.62.74-9 1l-.26-1.88c.78-.06 1.7-.14 2.7-.24a9.06 9.06 0 0 0 -.52-1.7l1.08-.28h-1.86v-3.64h7.88v3.64h-1.52l.74.18c-.26.48-.46.92-.64 1.3l1.84-.2v.82h.64v-5.12h7.9v5.12zm-8.74-6.4h-9.9v-1.7h9.9zm-.16-2.38h-9.2v-6.74h1.38v5.24h.72v-.7h-.48v-.84h.48v-.62h-.42v-.84h.42v-.64h-.46v-.84h.46v-.84h.9v.84h.54v.84h-.54v.64h.48v.84h-.48v.62h.54v.84h-.54v.7h.86v-5.88h1.36v5.88h.78v-.7h-.48v-.84h.48v-.62h-.42v-.84h.42v-.64h-.48v-.84h.48v-.84h1v.84h.58v.84h-.58v.64h.5v.84h-.5v.62h.58v.84h-.58v.7h.82v-5.14h1.4zm-6 6.68a7.13 7.13 0 0 1 .52 1.56l-1.32.38c1-.1 2.1-.22 3.22-.32l-.54-.14c.14-.42.34-1 .48-1.48zm-.68-1.36h3.9v-.9h-3.9zm6.9-4.2c.42 0 .9 0 1.42-.08.22-.68.46-1.5.62-2.24h-1.94v-1.8h2.92v-1.24h-2.44v-1.72h2.46v-1.4h2.14v1.4h2.66v1.72h-2.66v1.24h3.14v1.8h-4.08c-.26.72-.56 1.46-.82 2.12l2.12-.12c-.2-.32-.4-.64-.6-.92l1.58-.82a17.34 17.34 0 0 1 2.06 3.56l-1.7.92a7.55 7.55 0 0 0 -.46-1.08l-6.22.56zm1.68 7.66h.72v-3.3h-.72zm1.9-3.3v3.3h.76v-3.3zm1.92 0v3.3h.76v-3.3z"/><path d="m218.66 215.74v2.32h-18v-2.32h3v-14.48h12.34v14.48zm-12.66-12.18v2.52h7.46v-2.52zm7.46 4.72h-7.46v2.56h7.46zm-7.46 7.46h7.46v-2.6h-7.46z"/><path d="m232.06 210.22c-.6.38-1.24.72-1.86 1.06h6.64v7.56h-2.36v-.5h-7.62v.54h-2.38v-5.14c-1 .38-2.12.7-3.18 1a14.29 14.29 0 0 0 -1.2-2 38.11 38.11 0 0 0 7.52-2.48h-6.84v-2h6.42v-1.26h-4.78v-1.9h4.78v-.54h-2.2v-1.18h-4.18v-2.08h4.18v-1.08h2.32v1.08h4.58v-1.08h2.32v1.08h4.3v2.08h-4.3v1.18h-2.32v-1.18h-4.58v.62h2.28v1.1h4.4v1.1a14.47 14.47 0 0 0 1.88-2l2 1.12a25.62 25.62 0 0 1 -2.88 2.82h3.68v2zm2.42 2.86h-7.62v1h7.62zm0 3.46v-1h-7.62v1zm-4.92-8.36h1.82c.56-.36 1.08-.74 1.6-1.14h-3.42z"/><path d="m245.2 214.24c.82 1.34 2.32 1.88 4.4 2 2.34.1 6.84 0 9.5-.16a12.46 12.46 0 0 0 -.74 2.4c-2.4.12-6.42.16-8.8.06s-4.1-.66-5.4-2.22c-.88.78-1.76 1.56-2.84 2.4l-1.16-2.48a28.37 28.37 0 0 0 2.72-1.84v-4.22h-2.3v-2.18h4.62zm-1.38-9a15.13 15.13 0 0 0 -3.22-3.16l1.76-1.44a16 16 0 0 1 3.34 3zm7.12 5.12a15.12 15.12 0 0 1 -3.9 4.36 9.71 9.71 0 0 0 -1.64-1.88 13.24 13.24 0 0 0 4.46-4.58h-4v-2.16h5.08v-5.64h2.36v5.64h5.24v2.16h-4.12a12.92 12.92 0 0 0 4.52 4.48 9.46 9.46 0 0 0 -1.64 1.92 14.51 14.51 0 0 1 -4-4.58v5.48h-2.36zm-3-4.78a14.18 14.18 0 0 0 -1.56-3.78l2-.78a15.39 15.39 0 0 1 1.7 3.7zm10.46-3.84c-.76 1.36-1.6 2.84-2.26 3.82l-1.86-.76a22.33 22.33 0 0 0 1.78-3.9z"/><path d="m278.48 203.28s0 .8 0 1.08c-.26 8.94-.48 12.12-1.3 13.18a2.67 2.67 0 0 1 -1.92 1.1 22.42 22.42 0 0 1 -3.14 0 5.6 5.6 0 0 0 -.78-2.32c1.28.12 2.46.12 3 .12a1.07 1.07 0 0 0 .88-.34c.58-.64.84-3.64 1.06-10.7h-4.28a17.25 17.25 0 0 1 -1.76 3.16 14.86 14.86 0 0 0 -1.54-1.12v9.34h-5.34v1.46h-2.16v-14.82h2.26a21.45 21.45 0 0 0 .58-3.22l2.6.36c-.34 1-.7 2-1 2.86h3.1v3.24a20.69 20.69 0 0 0 2.7-6.44l2.26.52a23.21 23.21 0 0 1 -.78 2.54zm-12 2.22h-3.18v3.24h3.18zm0 9.22v-3.92h-3.18v3.92zm6.64-1.08a42.8 42.8 0 0 0 -2.78-4.62l1.86-1.06a48.27 48.27 0 0 1 2.94 4.44z"/><path d="m288 209.62v7.26c0 .86-.12 1.36-.66 1.66a4.11 4.11 0 0 1 -2.14.34 8.11 8.11 0 0 0 -.54-1.8h1.1s.22-.08.22-.24v-1.38h-2.14v3.4h-2v-9.26h-1.18v-3.1h1.14v-5.68h6.28v5.68h1.2v2.26h9.52v1.58h-9.54v-.72zm-.5-1.5h-5.14v.8h5.14zm-4-1.62h.7v-3.18h2.1v-.82h-2.8zm2.48 4h-2.14v.88h2.16zm0 3.36v-.86h-2.14v.92zm.32-7.38v-1.84h-.84v1.84zm12.7 10.52v1.68h-10.16v-1.68h2.56a8.07 8.07 0 0 0 -.74-1.64l1.22-.44h-1.88v-3.92h8.18v3.9h-1.88l1.2.28c-.36.64-.72 1.26-1 1.8zm-.6-8.88h-8.74v-6.2h2.22v-1.66h1.66v1.66h.86v-1.66h1.68v1.66h2.32zm-7-3.84h.86v-.86h-.86zm0 2.32h.86v-.88h-.86zm.46 6.92h4.26v-1.1h-4.26zm.5 1.4a7.71 7.71 0 0 1 .9 2.08h1.36a16.49 16.49 0 0 0 .8-2.08zm2-10.64v-.86h-.86v.86zm-.86 1.44v.88h.86v-.88zm3-2.3h-.88v.86h.88zm0 2.3h-.88v.88h.88z"/><path d="m300.08 217.16a9.75 9.75 0 0 0 .9-4.48l1.3.24c-.1 1.84-.26 3.7-1 4.86zm17-4.28a12.93 12.93 0 0 1 -.38 2.12 22 22 0 0 1 2.34 2.72l-1.5 1.16a21.6 21.6 0 0 0 -1.56-2 6.07 6.07 0 0 1 -1.82 2.08 8.52 8.52 0 0 0 -1.28-1.26l-.56.6a12.61 12.61 0 0 0 -1.22-1.56 6 6 0 0 1 -1.88 2.24 8.15 8.15 0 0 0 -1.4-1.34 1.76 1.76 0 0 1 -.26.58 1.51 1.51 0 0 1 -1.14.68 10.24 10.24 0 0 1 -1.7.08 4.88 4.88 0 0 0 -.46-1.78 9.53 9.53 0 0 0 1.18.06.52.52 0 0 0 .5-.24 4.86 4.86 0 0 0 .3-1.82l-.54.2a11.69 11.69 0 0 0 -.84-2.58l.88-.28a11.72 11.72 0 0 1 .56 1.34c0-.58.06-1.26.08-2h-5.28v-10.96h7v1.86h-2.1v1.22h1.72v1.74h-1.72v1.26h1.78v1.74h-1.78v1.26h2.3s0 .5 0 .76a44 44 0 0 1 -.42 6.8c1.52-1 2.16-2.64 2.34-4.78l2 .12a14.27 14.27 0 0 1 -.34 2 18.64 18.64 0 0 1 1.78 2 6.59 6.59 0 0 0 1.54-4.1zm-13.66.1a21.55 21.55 0 0 1 .18 3.68l-1.08.12a21 21 0 0 0 -.1-3.68zm-.5-10.2v1.22h1.24v-1.24zm1.24 3h-1.16v1.22h1.24zm-1.16 4.22h1.24v-1.28h-1.24zm1.7 2.78a17.36 17.36 0 0 1 .58 3.24l-1 .18a14.7 14.7 0 0 0 -.56-3.24zm6.24-7.4a11.73 11.73 0 0 1 -2 1.48 7.26 7.26 0 0 0 -1.06-2 11.62 11.62 0 0 0 4.52-4.66h2.12a11.94 11.94 0 0 0 4.8 4.48 15.44 15.44 0 0 0 -1.2 2.1 13.65 13.65 0 0 1 -1.88-1.34v1.22h-5.34zm-2 2.18h4.3v4.88h-4.3zm1.56 3.38h1.12v-1.94h-1.12zm5.16-6a13.39 13.39 0 0 1 -2.16-2.62 11.93 11.93 0 0 1 -2.06 2.62zm-1.7 2.62h4.46v4.88h-4.52zm1.54 3.38h1.26v-1.94h-1.26z"/><path d="m326.74 215.42a3.23 3.23 0 1 1 -3.24-3.24 3.24 3.24 0 0 1 3.24 3.24zm-1.44 0a1.79 1.79 0 1 0 -1.8 1.78 1.79 1.79 0 0 0 1.8-1.78z"/></svg>