<svg viewBox="0 0 519.06 782.26" xmlns="http://www.w3.org/2000/svg"><path d="m5 20.44-4.92-19.29h4.46c1.82 8.85 2.63 12.79 2.85 14.92.76-3.55 2.61-10.27 3.75-14.92h3.76c1 3.69 2.94 11.17 3.58 14.73.67-4.26 2.52-11.74 3.25-14.73h4l-5.18 19.29h-4.34c-1-4.28-2.71-10.53-3.39-13.83-.7 3.44-2.44 9.94-3.48 13.83z"/><path d="m32.2 0v7.67a4.58 4.58 0 0 1 4.14-2.07c2.69 0 4.85 1.62 4.85 5.54v9.3h-4v-8.71c0-1.87-.67-2.88-2.35-2.88-2.24 0-2.66 1.68-2.66 3.89v7.7h-4v-20.44z"/><path d="m57 16.69a33.66 33.66 0 0 0 .19 3.75h-3.85a5.74 5.74 0 0 1 -.2-1.43c-.53.81-1.51 1.77-4.08 1.77-3.5 0-5-2.3-5-4.54 0-3.3 2.63-4.84 6.89-4.84h2.07v-.87c0-1-.37-2-2.24-2-1.68 0-2.07.7-2.24 1.77h-3.77c.23-2.63 1.79-4.7 6.23-4.7 3.86 0 6 1.54 6 5zm-3.92-2.86h-1.64c-2.44 0-3.34.76-3.34 2.16a1.88 1.88 0 0 0 2.1 1.93c2.55 0 2.86-1.79 2.86-3.7z"/><path d="m59.89 5.94h2.24v-3.94h4v3.94h2.87v3.06h-2.87v7.17c0 1.09.34 1.51 1.54 1.51h.9v2.75a8.71 8.71 0 0 1 -2.69.28c-2.82 0-3.75-1.52-3.75-4.06v-7.65h-2.24z"/><path d="m75.35 14.06c0 1.82.92 3.58 2.91 3.58a2.32 2.32 0 0 0 2.55-1.54h4c-.5 1.76-2.1 4.68-6.64 4.68-4.78 0-6.86-3.56-6.86-7.37 0-4.56 2.33-7.81 7-7.81 5 0 6.67 3.61 6.67 7.22a8 8 0 0 1 -.06 1.24zm5.65-2.47c0-1.68-.7-3.11-2.66-3.11s-2.74 1.32-2.91 3.11z"/><path d="m90.55 5.94c1.37 4.92 2.52 9.21 2.8 10.94.42-2.38 1.82-6.74 3.08-10.94h4l-5.12 14.5h-4.2l-4.9-14.5z"/><path d="m105.75 14.06c0 1.82.93 3.58 2.92 3.58a2.3 2.3 0 0 0 2.54-1.54h4c-.51 1.76-2.1 4.68-6.64 4.68-4.79 0-6.86-3.56-6.86-7.37 0-4.56 2.33-7.81 7-7.81 5 0 6.67 3.61 6.67 7.22a8 8 0 0 1 -.06 1.24zm5.6-2.47c0-1.68-.7-3.11-2.66-3.11s-2.69 1.32-2.85 3.11z"/><path d="m118.24 9.88c0-1.45 0-2.71 0-3.94h4c.06.33.11 1.76.11 2.54a4.69 4.69 0 0 1 4.65-2.88v3.84c-2.91-.09-4.65.7-4.65 4.67v6.33h-4z"/><path d="m136.89 3.58v-3.58h4v3.58zm0 2.36h4v14.5h-4z"/><path d="m148.17 16.07a2.51 2.51 0 0 0 2.75 1.82c1.48 0 2-.53 2-1.43s-.61-1.28-2.68-1.79c-4.74-1.17-5.49-2.63-5.49-4.67s1.48-4.4 5.85-4.4 5.91 2.41 6 4.37h-3.81c-.14-.53-.5-1.54-2.38-1.54-1.31 0-1.76.59-1.76 1.23s.45 1.06 2.8 1.62c4.84 1.12 5.54 2.78 5.54 4.9 0 2.41-1.85 4.6-6.24 4.6s-6.22-2.13-6.55-4.71z"/><path d="m179.31 16.69a30.73 30.73 0 0 0 .2 3.75h-3.84a5.74 5.74 0 0 1 -.2-1.43c-.53.81-1.51 1.77-4.08 1.77-3.5 0-5-2.3-5-4.54 0-3.3 2.63-4.84 6.89-4.84h2.07v-.87c0-1-.36-2-2.24-2-1.68 0-2.07.7-2.24 1.77h-3.77c.2-2.58 1.79-4.65 6.22-4.65 3.86 0 6 1.54 6 5zm-3.92-2.86h-1.62c-2.44 0-3.34.76-3.34 2.16a1.88 1.88 0 0 0 2.1 1.93c2.55 0 2.86-1.79 2.86-3.7z"/><path d="m202.52 15.76c-.48 2.41-2.18 5-6.5 5-4.5 0-6.83-3.11-6.83-7.48s2.61-7.7 7-7.7c4.87 0 6.24 3.53 6.3 5.15h-3.89a2.27 2.27 0 0 0 -2.49-2c-1.85 0-2.89 1.6-2.89 4.4 0 3.11 1.12 4.51 2.86 4.51a2.46 2.46 0 0 0 2.49-1.91z"/><path d="m205.21 9.88c0-1.45 0-2.71 0-3.94h3.95c.06.33.11 1.76.11 2.54a4.67 4.67 0 0 1 4.65-2.88v3.84c-2.91-.09-4.65.7-4.65 4.67v6.33h-4z"/><path d="m220.13 14.06c0 1.82.93 3.58 2.91 3.58a2.31 2.31 0 0 0 2.55-1.54h4c-.51 1.76-2.1 4.68-6.64 4.68-4.79 0-6.86-3.56-6.86-7.37 0-4.56 2.32-7.81 7-7.81 5 0 6.66 3.61 6.66 7.22a9.56 9.56 0 0 1 0 1.24zm5.6-2.47c0-1.68-.7-3.11-2.66-3.11s-2.69 1.32-2.85 3.11z"/><path d="m245.78 16.69a30.73 30.73 0 0 0 .2 3.75h-3.84a5.74 5.74 0 0 1 -.2-1.43c-.53.81-1.51 1.77-4.08 1.77-3.5 0-5-2.3-5-4.54 0-3.3 2.63-4.84 6.89-4.84h2.07v-.87c0-1-.36-2-2.24-2-1.68 0-2.07.7-2.24 1.77h-3.81c.2-2.58 1.79-4.65 6.22-4.65 3.86 0 6 1.54 6 5zm-3.92-2.86h-1.62c-2.44 0-3.34.76-3.34 2.16a1.88 1.88 0 0 0 2.1 1.93c2.55 0 2.86-1.79 2.86-3.7z"/><path d="m248.13 5.94h2.24v-3.94h4v3.94h2.85v3.06h-2.85v7.17c0 1.09.33 1.51 1.54 1.51h.89v2.75a8.68 8.68 0 0 1 -2.69.28c-2.82 0-3.75-1.52-3.75-4.06v-7.65h-2.24z"/><path d="m261 3.58v-3.58h4v3.58zm0 2.36h4v14.5h-4z"/><path d="m272 5.94c1.37 4.92 2.52 9.21 2.8 10.94.42-2.38 1.82-6.74 3.08-10.94h4l-5.12 14.5h-4.2l-4.93-14.5z"/><path d="m287.19 14.06c0 1.82.93 3.58 2.91 3.58a2.32 2.32 0 0 0 2.55-1.54h4c-.51 1.76-2.11 4.68-6.64 4.68-4.79 0-6.86-3.56-6.86-7.37 0-4.56 2.32-7.81 7-7.81 5 0 6.66 3.61 6.66 7.22a9.56 9.56 0 0 1 -.05 1.24zm5.6-2.47c0-1.68-.7-3.11-2.66-3.11s-2.69 1.32-2.85 3.11z"/><path d="m310.12 16.07a2.51 2.51 0 0 0 2.75 1.82c1.48 0 2-.53 2-1.43s-.61-1.28-2.68-1.79c-4.74-1.17-5.49-2.63-5.49-4.67s1.48-4.4 5.85-4.4 5.91 2.41 6 4.37h-3.81c-.14-.53-.5-1.54-2.38-1.54-1.31 0-1.76.59-1.76 1.23s.45 1.06 2.8 1.62c4.84 1.12 5.54 2.78 5.54 4.9 0 2.41-1.85 4.6-6.24 4.6s-6.22-2.13-6.56-4.71z"/><path d="m320.34 5.94h2.24v-3.94h4v3.94h2.85v3.06h-2.85v7.17c0 1.09.33 1.51 1.54 1.51h.89v2.75a8.68 8.68 0 0 1 -2.69.28c-2.82 0-3.75-1.52-3.75-4.06v-7.65h-2.24z"/><path d="m344.81 16.24v4.2h-3.92c-.05-.39-.08-1.18-.11-1.68a4.14 4.14 0 0 1 -4 2c-2.94 0-4.82-1.8-4.82-5.38v-9.44h4v8.65c0 1.59.51 2.91 2.24 2.91s2.58-1 2.58-3.84v-7.72h4z"/><path d="m362.43 0v16.46 4h-3.83c-.09-.45-.17-1.18-.2-1.51-.7 1.15-2 1.85-4.11 1.85-3.67 0-6-2.94-6-7.48s2.47-7.7 6.58-7.7c2.1 0 3.22.76 3.53 1.4v-7.02zm-6.92 17.56c2.74 0 3.08-2.3 3.08-4.37 0-2.49-.36-4.37-3-4.37-2.1 0-3.16 1.65-3.16 4.4s1.09 4.34 3.08 4.34z"/><path d="m366.12 3.58v-3.58h4v3.58zm0 2.36h4v14.5h-4z"/><path d="m387.37 13.16c0 4.4-2.63 7.62-7.22 7.62s-7.15-3.22-7.15-7.54c0-4.48 2.71-7.64 7.3-7.64 4.3 0 7.07 3.02 7.07 7.56zm-10.27 0c0 2.8 1.2 4.45 3.13 4.45s3.08-1.65 3.08-4.42c0-3-1.12-4.46-3.13-4.46-1.85.03-3.08 1.41-3.08 4.46z"/><path d="m395.77 5.94h2.23v-3.94h4v3.94h2.85v3.06h-2.85v7.17c0 1.09.33 1.51 1.54 1.51h.89v2.75a8.68 8.68 0 0 1 -2.69.28c-2.82 0-3.75-1.52-3.75-4.06v-7.65h-2.24z"/><path d="m412.07 0v7.67a4.56 4.56 0 0 1 4.14-2.07c2.69 0 4.84 1.62 4.84 5.54v9.3h-4v-8.71c0-1.87-.67-2.88-2.35-2.88-2.24 0-2.66 1.68-2.66 3.89v7.7h-4v-20.44z"/><path d="m436.85 16.69a33.66 33.66 0 0 0 .19 3.75h-3.83a5.74 5.74 0 0 1 -.21-1.44c-.53.81-1.51 1.77-4.09 1.77-3.5 0-4.95-2.3-4.95-4.54 0-3.3 2.63-4.84 6.89-4.84h2.07v-.87c0-1-.37-2-2.24-2-1.68 0-2.07.7-2.24 1.77h-3.81c.2-2.58 1.79-4.65 6.22-4.65 3.86 0 6 1.54 6 5zm-3.92-2.86h-1.63c-2.43 0-3.33.76-3.33 2.16a1.88 1.88 0 0 0 2.1 1.93c2.55 0 2.86-1.79 2.86-3.7z"/><path d="m439.2 5.94h2.24v-3.94h4v3.94h2.86v3.06h-2.86v7.17c0 1.09.34 1.51 1.54 1.51h.9v2.75a8.74 8.74 0 0 1 -2.69.28c-2.83 0-3.75-1.52-3.75-4.06v-7.65h-2.24z"/><path d="m469.86 16.69a33.66 33.66 0 0 0 .19 3.75h-3.83a5.74 5.74 0 0 1 -.22-1.44c-.53.81-1.51 1.77-4.09 1.77-3.5 0-4.95-2.3-4.95-4.54 0-3.3 2.63-4.84 6.89-4.84h2.07v-.87c0-1-.37-2-2.24-2-1.68 0-2.07.7-2.24 1.77h-3.81c.2-2.58 1.79-4.65 6.22-4.65 3.86 0 6 1.54 6 5zm-3.92-2.86h-1.63c-2.43 0-3.33.76-3.33 2.16a1.88 1.88 0 0 0 2.1 1.93c2.55 0 2.86-1.79 2.86-3.7z"/><path d="m473.61 3.58v-3.58h4v3.58zm0 2.36h4v14.5h-4z"/><path d="m481.92 9.69c0-1.26 0-2.49 0-3.75h3.83c.06.36.14 1.17.17 1.73a4.56 4.56 0 0 1 4-2.07 3.84 3.84 0 0 1 3.73 2.21 5.09 5.09 0 0 1 4.48-2.21c2.52 0 4.59 1.57 4.59 5.32v9.52h-3.92v-9c0-1.31-.48-2.6-2.13-2.6s-2.35 1.12-2.35 3.33v8.29h-3.95v-8.9c0-1.48-.36-2.71-2.07-2.71s-2.41 1-2.41 3.5v8.09h-4z"/><path d="m509.42 16.07a2.51 2.51 0 0 0 2.74 1.82c1.49 0 2-.53 2-1.43s-.62-1.28-2.69-1.79c-4.71-1.17-5.47-2.67-5.47-4.67s1.49-4.4 5.86-4.4 5.9 2.41 6 4.37h-3.81c-.14-.53-.51-1.54-2.38-1.54-1.32 0-1.77.59-1.77 1.23s.45 1.06 2.8 1.62c4.85 1.12 5.55 2.78 5.55 4.9 0 2.41-1.85 4.6-6.25 4.6s-6.21-2.13-6.55-4.71z"/><path d="m0 68.94h2.24v-3.94h4v3.92h2.86v3h-2.86v7.17c0 1.09.34 1.51 1.54 1.51h.9v2.75a8.71 8.71 0 0 1 -2.68.29c-2.83 0-3.75-1.52-3.75-4.06v-7.58h-2.25z"/><path d="m25.2 76.16c0 4.4-2.63 7.62-7.22 7.62s-7.12-3.22-7.12-7.54c0-4.48 2.72-7.64 7.31-7.64 4.26 0 7.03 3.02 7.03 7.56zm-10.28 0c0 2.8 1.21 4.45 3.14 4.45s3.08-1.65 3.08-4.42c0-3-1.12-4.46-3.14-4.46-1.84.03-3.08 1.41-3.08 4.46z"/><path d="m47.54 78.76c-.47 2.41-2.18 5-6.49 5-4.51 0-6.84-3.11-6.84-7.48s2.61-7.7 7-7.7c4.87 0 6.25 3.53 6.3 5.15h-3.86a2.27 2.27 0 0 0 -2.49-2c-1.85 0-2.89 1.6-2.89 4.4 0 3.11 1.13 4.51 2.86 4.51a2.46 2.46 0 0 0 2.49-1.91z"/><path d="m63.73 76.16c0 4.4-2.64 7.62-7.23 7.62s-7.11-3.22-7.11-7.54c0-4.48 2.72-7.64 7.31-7.64 4.3 0 7.03 3.02 7.03 7.56zm-10.28 0c0 2.8 1.2 4.45 3.14 4.45s3.08-1.65 3.08-4.42c0-3-1.12-4.46-3.14-4.46-1.85.03-3.08 1.41-3.08 4.46z"/><path d="m66.64 72.6c0-1.23 0-2.57 0-3.66h3.86a17.69 17.69 0 0 1 .17 1.84 4.42 4.42 0 0 1 4.2-2.18c2.91 0 4.79 2 4.79 5.63v9.21h-4v-8.76c0-1.66-.53-2.83-2.32-2.83s-2.66 1-2.66 3.53v8.06h-4z"/><path d="m95.9 78.76c-.48 2.41-2.19 5-6.5 5-4.51 0-6.83-3.11-6.83-7.48s2.6-7.7 7-7.7c4.87 0 6.24 3.53 6.3 5.15h-3.87a2.28 2.28 0 0 0 -2.5-2c-1.84 0-2.88 1.6-2.88 4.4 0 3.11 1.12 4.51 2.86 4.51a2.47 2.47 0 0 0 2.52-1.88z"/><path d="m101.78 77.06c0 1.82.92 3.58 2.91 3.58a2.32 2.32 0 0 0 2.55-1.54h4c-.5 1.76-2.1 4.68-6.63 4.68-4.79 0-6.86-3.56-6.86-7.37 0-4.56 2.32-7.81 7-7.81 5 0 6.66 3.61 6.66 7.22a8 8 0 0 1 -.06 1.24zm5.6-2.47c0-1.68-.7-3.11-2.66-3.11s-2.69 1.32-2.86 3.11z"/><path d="m114.27 66.58v-3.58h4v3.58zm0 2.36h4v14.5h-4z"/><path d="m124.74 68.94c1.37 4.92 2.52 9.21 2.8 10.94.42-2.38 1.82-6.74 3.09-10.94h4l-5.13 14.5h-4.19l-4.93-14.5z"/><path d="m139.94 77.06c0 1.82.93 3.58 2.91 3.58a2.32 2.32 0 0 0 2.55-1.54h4c-.5 1.76-2.09 4.68-6.63 4.68-4.79 0-6.86-3.56-6.86-7.37 0-4.56 2.32-7.81 7-7.81 5 0 6.66 3.61 6.66 7.22a9.56 9.56 0 0 1 0 1.24zm5.6-2.47c0-1.68-.7-3.11-2.66-3.11s-2.69 1.32-2.86 3.11z"/><path d="m172.11 79.24v4.2h-3.92c-.06-.39-.08-1.18-.11-1.68a4.15 4.15 0 0 1 -4 2c-2.94 0-4.81-1.8-4.81-5.38v-9.44h4v8.65c0 1.59.51 2.91 2.24 2.91s2.58-1 2.58-3.84v-7.72h4z"/><path d="m175.89 72.6c0-1.23 0-2.57 0-3.66h3.9a17.74 17.74 0 0 1 .16 1.84 4.43 4.43 0 0 1 4.2-2.18c2.92 0 4.79 2 4.79 5.63v9.21h-4v-8.76c0-1.66-.53-2.83-2.33-2.83s-2.66 1-2.66 3.53v8.06h-4z"/><path d="m195.8 77.06c0 1.82.92 3.58 2.91 3.58a2.32 2.32 0 0 0 2.55-1.54h4c-.5 1.76-2.1 4.68-6.63 4.68-4.79 0-6.86-3.56-6.86-7.37 0-4.56 2.32-7.81 7-7.81 4.95 0 6.66 3.61 6.66 7.22a9.56 9.56 0 0 1 -.05 1.24zm5.6-2.47c0-1.68-.7-3.11-2.66-3.11s-2.69 1.32-2.86 3.11z"/><path d="m210.86 68.94c1.52 2.74 2.13 3.8 2.55 4.56.5-.9 1.4-2.49 2.58-4.56h4.45l-4.71 6.91 4.68 7.59h-4.51l-2.54-4.87c-.37.75-1.37 2.63-2.55 4.87h-4.4l4.51-7.06-4.48-7.44z"/><path d="m222.29 89v-16.56c0-1.18 0-2.33 0-3.5h3.89a15.53 15.53 0 0 1 .14 1.82 4.56 4.56 0 0 1 4.2-2.16c3.28 0 5.77 2.74 5.77 7.22 0 5.13-2.8 8-6.3 8a4.06 4.06 0 0 1 -3.67-1.63v6.81zm6.91-17.16c-2.26 0-3.08 1.48-3.08 4.4 0 2.77.76 4.36 2.92 4.36s3.16-1.65 3.16-4.59c0-2.68-1.06-4.19-3-4.19z"/><path d="m239.17 83.44v-20.44h4v20.44z"/><path d="m260.42 76.16c0 4.4-2.63 7.62-7.22 7.62s-7.11-3.22-7.11-7.54c0-4.48 2.71-7.64 7.3-7.64 4.26 0 7.03 3.02 7.03 7.56zm-10.27 0c0 2.8 1.2 4.45 3.13 4.45s3.08-1.65 3.08-4.42c0-3-1.12-4.46-3.13-4.46-1.85.03-3.08 1.41-3.08 4.46z"/><path d="m263.31 72.88c0-1.45 0-2.71 0-3.94h4c0 .33.11 1.76.11 2.54a4.67 4.67 0 0 1 4.58-2.88v3.84c-2.92-.09-4.65.7-4.65 4.67v6.33h-4z"/><path d="m277.67 77.06c0 1.82.92 3.58 2.91 3.58a2.32 2.32 0 0 0 2.55-1.54h4c-.5 1.76-2.1 4.68-6.63 4.68-4.79 0-6.86-3.56-6.86-7.37 0-4.56 2.32-7.81 7-7.81 4.95 0 6.66 3.61 6.66 7.22a9.56 9.56 0 0 1 -.05 1.24zm5.6-2.47c0-1.68-.7-3.11-2.66-3.11s-2.69 1.32-2.86 3.11z"/><path d="m303.46 63v16.46 4h-3.84c-.08-.45-.17-1.18-.19-1.51-.71 1.15-2 1.85-4.12 1.85-3.67 0-6-2.94-6-7.48s2.46-7.7 6.58-7.7c2.1 0 3.22.76 3.53 1.4v-7.02zm-6.92 17.56c2.75 0 3.08-2.3 3.08-4.37 0-2.49-.36-4.37-3-4.37-2.1 0-3.17 1.65-3.17 4.4s1.1 4.34 3.09 4.34z"/><path d="m313.51 66.58v-3.58h4v3.58zm0 2.36h4v14.5h-4z"/><path d="m334.56 63v16.46 4h-3.83c-.09-.45-.17-1.18-.2-1.51-.7 1.15-2 1.85-4.12 1.85-3.66 0-6-2.94-6-7.48s2.47-7.7 6.58-7.7c2.1 0 3.22.76 3.53 1.4v-7.02zm-6.91 17.56c2.74 0 3.08-2.3 3.08-4.37 0-2.49-.37-4.37-3-4.37-2.1 0-3.16 1.65-3.16 4.4s1.09 4.34 3.08 4.34z"/><path d="m340.89 77.06c0 1.82.93 3.58 2.91 3.58a2.32 2.32 0 0 0 2.55-1.54h4c-.51 1.76-2.1 4.68-6.64 4.68-4.79 0-6.86-3.56-6.86-7.37 0-4.56 2.32-7.81 7-7.81 5 0 6.66 3.61 6.66 7.22a9.56 9.56 0 0 1 0 1.24zm5.6-2.47c0-1.68-.7-3.11-2.66-3.11s-2.69 1.32-2.85 3.11z"/><path d="m365.42 79.69a30.73 30.73 0 0 0 .2 3.75h-3.84a5.74 5.74 0 0 1 -.2-1.43c-.53.81-1.51 1.77-4.08 1.77-3.5 0-5-2.3-5-4.54 0-3.3 2.63-4.84 6.89-4.84h2.07v-.87c0-1-.36-2-2.24-2-1.68 0-2.07.7-2.24 1.77h-3.81c.2-2.58 1.79-4.65 6.22-4.65 3.86 0 6 1.54 6 5zm-3.92-2.86h-1.62c-2.44 0-3.34.76-3.34 2.16a1.88 1.88 0 0 0 2.1 1.93c2.55 0 2.86-1.79 2.86-3.7z"/><path d="m372.14 79.07a2.51 2.51 0 0 0 2.74 1.82c1.49 0 2-.53 2-1.43s-.62-1.28-2.69-1.79c-4.73-1.17-5.49-2.63-5.49-4.67s1.49-4.4 5.86-4.4 5.9 2.41 6 4.37h-3.81c-.14-.53-.51-1.54-2.38-1.54-1.32 0-1.77.59-1.77 1.23s.45 1.06 2.8 1.62c4.85 1.12 5.55 2.78 5.55 4.9 0 2.41-1.85 4.6-6.25 4.6s-6.21-2.13-6.55-4.71z"/><path d="m382.13 86.69a23.87 23.87 0 0 0 2.08-8.18h4.11a16.15 16.15 0 0 1 -3.08 8.18z"/><path d="m409.32 79.69a30.73 30.73 0 0 0 .2 3.75h-3.84a5.75 5.75 0 0 1 -.19-1.43c-.54.81-1.52 1.77-4.09 1.77-3.5 0-5-2.3-5-4.54 0-3.3 2.63-4.84 6.89-4.84h2.07v-.87c0-1-.36-2-2.24-2-1.68 0-2.07.7-2.24 1.77h-3.81c.2-2.58 1.8-4.65 6.22-4.65 3.86 0 6 1.54 6 5zm-3.92-2.86h-1.62c-2.44 0-3.33.76-3.33 2.16a1.87 1.87 0 0 0 2.1 1.93c2.54 0 2.85-1.79 2.85-3.7z"/><path d="m412.54 72.6c0-1.23 0-2.57 0-3.66h3.9a17.74 17.74 0 0 1 .16 1.84 4.43 4.43 0 0 1 4.2-2.18c2.92 0 4.79 2 4.79 5.63v9.21h-4v-8.76c0-1.66-.53-2.83-2.33-2.83s-2.66 1-2.66 3.53v8.06h-4z"/><path d="m442.56 63v16.46 4h-3.83c-.08-.45-.17-1.18-.2-1.51-.7 1.15-2 1.85-4.11 1.85-3.67 0-6-2.94-6-7.48s2.46-7.7 6.57-7.7c2.1 0 3.23.76 3.53 1.4v-7.02zm-6.92 17.56c2.74 0 3.08-2.3 3.08-4.37 0-2.49-.36-4.37-3-4.37-2.1 0-3.16 1.65-3.16 4.4s1.09 4.34 3.08 4.34z"/><path d="m452.61 63h4v7.48c.59-.93 1.79-1.88 4.14-1.88 4 0 5.91 3.28 5.91 7.34s-2.13 7.84-6.3 7.84c-2.15 0-3.11-.65-3.81-1.71a6.87 6.87 0 0 1 -.16 1.37h-3.84c0-1.57 0-3.16 0-4.73zm6.94 8.82c-2.29 0-3.11 1.48-3.11 4.45 0 2.44.73 4.31 3.06 4.31 2 0 3.13-1.82 3.13-4.56 0-2.44-.92-4.2-3.08-4.2z"/><path d="m469 72.88c0-1.45 0-2.71 0-3.94h3.95c.05.33.11 1.76.11 2.54a4.67 4.67 0 0 1 4.65-2.88v3.84c-2.92-.09-4.65.7-4.65 4.67v6.33h-4z"/><path d="m480.19 66.58v-3.58h4v3.58zm0 2.36h4v14.5h-4z"/><path d="m488 72.6c0-1.23 0-2.57 0-3.66h3.89a15.33 15.33 0 0 1 .17 1.84 4.43 4.43 0 0 1 4.2-2.18c2.92 0 4.79 2 4.79 5.63v9.21h-4v-8.76c0-1.66-.53-2.83-2.33-2.83s-2.66 1-2.66 3.53v8.06h-4z"/><path d="m517.88 81.68c0 4.64-1.71 7.58-7.2 7.58-5.29 0-6.33-2.94-6.47-4.59h4.09a2.29 2.29 0 0 0 2.55 1.68c2.6 0 3.11-1.59 3.11-4.42v-.7a4.29 4.29 0 0 1 -4.09 2c-3.81 0-6-3.13-6-7 0-4.53 2.71-7.64 6.32-7.64 2.5 0 3.53 1.18 3.76 1.85 0-.39.14-1.26.16-1.51h3.78v4.17zm-6.88-1.68c2.4 0 3.05-1.65 3.05-4.08s-.42-4.12-3-4.12c-1.74 0-3.11 1.34-3.11 4.26.06 2.51 1.31 3.94 3.06 3.94z"/><path d="m0 131.94h2.24v-3.94h4v3.92h2.86v3h-2.86v7.17c0 1.09.34 1.51 1.54 1.51h.9v2.75a8.71 8.71 0 0 1 -2.69.28c-2.83 0-3.75-1.52-3.75-4.06v-7.57h-2.24z"/><path d="m15.74 126v7.67a4.56 4.56 0 0 1 4.14-2.07c2.69 0 4.84 1.62 4.84 5.54v9.3h-4v-8.71c0-1.87-.67-2.88-2.35-2.88-2.24 0-2.66 1.68-2.66 3.89v7.7h-4v-20.44z"/><path d="m31.11 140.06c0 1.82.92 3.58 2.91 3.58a2.32 2.32 0 0 0 2.55-1.54h4c-.5 1.76-2.1 4.68-6.63 4.68-4.79 0-6.86-3.56-6.86-7.37 0-4.56 2.32-7.81 7-7.81 5 0 6.66 3.61 6.66 7.22a8 8 0 0 1 -.06 1.24zm5.6-2.47c0-1.68-.7-3.11-2.66-3.11s-2.69 1.32-2.86 3.11z"/><path d="m43 135.69c0-1.26 0-2.49 0-3.75h3.83c.06.36.14 1.17.17 1.73a4.57 4.57 0 0 1 4-2.07 3.83 3.83 0 0 1 3.73 2.21 5.1 5.1 0 0 1 4.48-2.21c2.52 0 4.59 1.57 4.59 5.32v9.52h-3.88v-9c0-1.31-.48-2.6-2.13-2.6s-2.35 1.12-2.35 3.33v8.29h-3.95v-8.88c0-1.48-.36-2.71-2.07-2.71s-2.41 1-2.41 3.5v8.09h-4.01z"/><path d="m70.84 131.94h2.24v-3.94h4v3.92h2.86v3h-2.86v7.17c0 1.09.34 1.51 1.54 1.51h.9v2.75a8.74 8.74 0 0 1 -2.69.28c-2.83 0-3.75-1.52-3.75-4.06v-7.57h-2.24z"/><path d="m95.48 139.16c0 4.4-2.63 7.62-7.23 7.62s-7.11-3.22-7.11-7.54c0-4.48 2.72-7.64 7.31-7.64 4.26 0 7.03 3.02 7.03 7.56zm-10.28 0c0 2.8 1.21 4.45 3.14 4.45s3.08-1.65 3.08-4.42c0-3-1.12-4.46-3.14-4.46-1.85.03-3.08 1.41-3.08 4.46z"/><path d="m104.16 146.44v-20.44h4v20.44z"/><path d="m111.91 129.58v-3.58h4v3.58zm0 2.36h4v14.5h-4z"/><path d="m120.23 146.44v-11.44h-2.13v-3h2.13v-1.26c0-3 1.48-5 4.62-5a8.5 8.5 0 0 1 1.85.17v3.16a6.78 6.78 0 0 0 -.84-.05c-1.18 0-1.63.42-1.63 2v1h2.52v3h-2.52v11.48z"/><path d="m132.21 140.06c0 1.82.93 3.58 2.92 3.58a2.3 2.3 0 0 0 2.54-1.54h4c-.51 1.76-2.1 4.68-6.64 4.68-4.79 0-6.86-3.56-6.86-7.37 0-4.56 2.33-7.81 7-7.81 5 0 6.67 3.61 6.67 7.22a8 8 0 0 1 -.06 1.24zm5.6-2.47c0-1.68-.7-3.11-2.66-3.11s-2.68 1.32-2.85 3.11z"/><path d="m149.94 126h4v7.48c.59-.93 1.79-1.88 4.14-1.88 3.95 0 5.91 3.28 5.91 7.34s-2.13 7.84-6.3 7.84c-2.15 0-3.11-.65-3.81-1.71a6.87 6.87 0 0 1 -.16 1.37h-3.84c0-1.57 0-3.16 0-4.73zm6.94 8.82c-2.29 0-3.11 1.48-3.11 4.45 0 2.44.73 4.31 3.06 4.31 2 0 3.13-1.82 3.13-4.56.04-2.44-.96-4.2-3.08-4.2z"/><path d="m169.57 131.94c1.48 5 2.8 9.46 3 10.8.31-1.45 1.17-4.7 2.88-10.8h4l-4.88 14.92c-1.37 4.17-2.54 5.4-6 5.4a16.43 16.43 0 0 1 -1.87-.11v-3.22c.28 0 .7.06 1 .06 1.49 0 2.22-.51 2.78-2.1l-5.3-14.95z"/><path d="m189.73 131.94c1.31 5.82 2 9.12 2.29 10.94h.06c.3-1.62.73-3.89 2.49-10.94h3.72c1.63 7.14 2.13 9.24 2.33 10.78.3-1.49.75-3.64 2.43-10.78h4l-4.31 14.5h-4.29c-1.2-5.49-1.88-8.4-2.21-10.3-.22 1.82-1 5.09-2.3 10.3h-4.31l-4.11-14.5z"/><path d="m213.5 126v7.67a4.56 4.56 0 0 1 4.14-2.07c2.69 0 4.84 1.62 4.84 5.54v9.3h-4v-8.71c0-1.87-.67-2.88-2.35-2.88-2.24 0-2.66 1.68-2.66 3.89v7.7h-4v-20.44z"/><path d="m238.28 142.69a33.66 33.66 0 0 0 .19 3.75h-3.83a5.31 5.31 0 0 1 -.2-1.43c-.53.81-1.51 1.77-4.09 1.77-3.5 0-4.95-2.3-4.95-4.54 0-3.3 2.63-4.84 6.88-4.84h2.08v-.87c0-1-.37-2.05-2.24-2.05-1.68 0-2.08.7-2.24 1.77h-3.81c.19-2.58 1.79-4.65 6.21-4.65 3.87 0 6 1.54 6 5zm-3.92-2.86h-1.63c-2.43 0-3.33.76-3.33 2.16a1.87 1.87 0 0 0 2.1 1.93c2.55 0 2.86-1.79 2.86-3.7z"/><path d="m240.63 131.94h2.24v-3.94h4v3.92h2.86v3h-2.86v7.17c0 1.09.34 1.51 1.54 1.51h.9v2.75a8.74 8.74 0 0 1 -2.69.28c-2.83 0-3.75-1.52-3.75-4.06v-7.57h-2.24z"/><path d="m255.53 140.06c0 1.82.92 3.58 2.91 3.58a2.32 2.32 0 0 0 2.56-1.54h4c-.5 1.76-2.1 4.68-6.64 4.68-4.78 0-6.86-3.56-6.86-7.37 0-4.56 2.33-7.81 7-7.81 5 0 6.67 3.61 6.67 7.22a8 8 0 0 1 -.06 1.24zm5.59-2.47c0-1.68-.7-3.11-2.66-3.11s-2.68 1.32-2.85 3.11z"/><path d="m270.73 131.94c1.37 4.92 2.52 9.21 2.8 10.94.42-2.38 1.82-6.74 3.08-10.94h4l-5.12 14.5h-4.2l-4.93-14.5z"/><path d="m285.37 140.06c0 1.82.93 3.58 2.91 3.58a2.32 2.32 0 0 0 2.55-1.54h4c-.51 1.76-2.1 4.68-6.64 4.68-4.79 0-6.86-3.56-6.86-7.37 0-4.56 2.33-7.81 7-7.81 5 0 6.66 3.61 6.66 7.22a9.56 9.56 0 0 1 -.05 1.24zm5.6-2.47c0-1.68-.7-3.11-2.66-3.11s-2.69 1.32-2.85 3.11z"/><path d="m297.86 135.88c0-1.45 0-2.71 0-3.94h3.95c.06.33.11 1.76.11 2.54a4.69 4.69 0 0 1 4.65-2.88v3.84c-2.91-.09-4.65.7-4.65 4.67v6.33h-4z"/><path d="m314.83 135.69c0-1.26 0-2.49 0-3.75h3.84c.05.36.14 1.17.16 1.73a4.58 4.58 0 0 1 4-2.07 3.81 3.81 0 0 1 3.72 2.21 5.1 5.1 0 0 1 4.45-2.21c2.52 0 4.59 1.57 4.59 5.32v9.52h-3.92v-9c0-1.31-.47-2.6-2.13-2.6s-2.35 1.12-2.35 3.33v8.29h-4v-8.88c0-1.48-.36-2.71-2.07-2.71s-2.41 1-2.41 3.5v8.09h-4z"/><path d="m342 140.06c0 1.82.92 3.58 2.91 3.58a2.32 2.32 0 0 0 2.55-1.54h4c-.5 1.76-2.1 4.68-6.63 4.68-4.79 0-6.86-3.56-6.86-7.37 0-4.56 2.32-7.81 7-7.81 5 0 6.66 3.61 6.66 7.22a8 8 0 0 1 -.06 1.24zm5.6-2.47c0-1.68-.7-3.11-2.66-3.11s-2.69 1.32-2.86 3.11z"/><path d="m366.52 142.69a33.66 33.66 0 0 0 .19 3.75h-3.83a5.31 5.31 0 0 1 -.2-1.43c-.53.81-1.51 1.77-4.09 1.77-3.5 0-4.95-2.3-4.95-4.54 0-3.3 2.63-4.84 6.88-4.84h2.08v-.87c0-1-.37-2.05-2.24-2.05-1.68 0-2.08.7-2.24 1.77h-3.81c.19-2.58 1.79-4.65 6.21-4.65 3.87 0 6 1.54 6 5zm-3.92-2.86h-1.6c-2.43 0-3.33.76-3.33 2.16a1.87 1.87 0 0 0 2.1 1.93c2.55 0 2.86-1.79 2.86-3.7z"/><path d="m369.74 135.6c0-1.23 0-2.57 0-3.66h3.89c.08.39.14 1.4.17 1.84a4.41 4.41 0 0 1 4.2-2.18c2.91 0 4.78 2 4.78 5.63v9.21h-4v-8.76c0-1.66-.53-2.83-2.32-2.83s-2.66 1-2.66 3.53v8.06h-4z"/><path d="m388.86 142.07a2.51 2.51 0 0 0 2.74 1.82c1.49 0 2-.53 2-1.43s-.62-1.28-2.69-1.79c-4.73-1.17-5.49-2.63-5.49-4.67s1.49-4.4 5.85-4.4 5.91 2.41 6 4.37h-3.8c-.14-.53-.51-1.54-2.38-1.54-1.32 0-1.77.59-1.77 1.23s.45 1.06 2.8 1.62c4.85 1.12 5.55 2.78 5.55 4.9 0 2.41-1.85 4.6-6.25 4.6s-6.21-2.13-6.55-4.71z"/><path d="m406.27 152v-16.56c0-1.18 0-2.33 0-3.5h3.89a18 18 0 0 1 .14 1.82 4.54 4.54 0 0 1 4.2-2.16c3.27 0 5.77 2.74 5.77 7.22 0 5.13-2.8 8-6.3 8a4 4 0 0 1 -3.67-1.63v6.81zm6.92-17.16c-2.27 0-3.08 1.48-3.08 4.4s.76 4.36 2.91 4.36 3.17-1.65 3.17-4.59c0-2.68-1.07-4.19-3-4.19z"/><path d="m436.09 139.16c0 4.4-2.63 7.62-7.22 7.62s-7.11-3.22-7.11-7.54c0-4.48 2.71-7.64 7.31-7.64 4.25 0 7.02 3.02 7.02 7.56zm-10.27 0c0 2.8 1.2 4.45 3.14 4.45s3.04-1.61 3.04-4.39c0-3-1.11-4.46-3.13-4.46-1.82 0-3.05 1.38-3.05 4.43z"/><path d="m441.39 142.07a2.5 2.5 0 0 0 2.74 1.82c1.48 0 2-.53 2-1.43s-.62-1.28-2.69-1.79c-4.71-1.17-5.44-2.67-5.44-4.67s1.48-4.4 5.85-4.4 5.91 2.41 6 4.37h-3.85c-.14-.53-.5-1.54-2.38-1.54-1.31 0-1.76.59-1.76 1.23s.45 1.06 2.8 1.62c4.84 1.12 5.54 2.78 5.54 4.9 0 2.41-1.84 4.6-6.24 4.6s-6.22-2.13-6.55-4.71z"/><path d="m455.41 142.07a2.51 2.51 0 0 0 2.75 1.82c1.48 0 2-.53 2-1.43s-.61-1.28-2.68-1.79c-4.73-1.17-5.48-2.67-5.48-4.67s1.48-4.4 5.85-4.4 5.91 2.41 6 4.37h-3.81c-.14-.53-.5-1.54-2.38-1.54-1.31 0-1.76.59-1.76 1.23s.45 1.06 2.8 1.62c4.84 1.12 5.54 2.78 5.54 4.9 0 2.41-1.85 4.6-6.24 4.6s-6.22-2.13-6.55-4.71z"/><path d="m467 129.58v-3.58h4v3.58zm0 2.36h4v14.5h-4z"/><path d="m474.79 126h4v7.48c.59-.93 1.79-1.88 4.14-1.88 4 0 5.91 3.28 5.91 7.34s-2.12 7.84-6.3 7.84c-2.15 0-3.11-.65-3.81-1.71a6.87 6.87 0 0 1 -.16 1.37h-3.84c0-1.57 0-3.16 0-4.73zm6.94 8.82c-2.29 0-3.11 1.48-3.11 4.45 0 2.44.73 4.31 3.06 4.31 2 0 3.13-1.82 3.13-4.56 0-2.44-.92-4.2-3.08-4.2z"/><path d="m491.76 146.44v-20.44h4v20.44z"/><path d="m502.7 140.06c0 1.82.93 3.58 2.92 3.58a2.3 2.3 0 0 0 2.54-1.54h4c-.51 1.76-2.1 4.68-6.64 4.68-4.79 0-6.86-3.56-6.86-7.37 0-4.56 2.33-7.81 7-7.81 5 0 6.67 3.61 6.67 7.22a8 8 0 0 1 -.06 1.24zm5.6-2.47c0-1.68-.7-3.11-2.66-3.11s-2.68 1.32-2.85 3.11z"/><path d="m514.77 146.44v-4.93h4.29v4.93z"/><path d="m1.9 190.15h8.43c4.68 0 6.44 2.41 6.44 4.93a4.36 4.36 0 0 1 -2.46 4.17 4.63 4.63 0 0 1 3 4.42c0 3.31-2.6 5.77-6.69 5.77h-8.72zm8 7.61c2 0 2.8-.89 2.8-2.26s-1.07-2.13-2.66-2.13h-4.04v4.39zm-3.9 8.46h3.77c2.27 0 3.28-.95 3.28-2.69 0-1.57-1-2.55-3.31-2.55h-3.74z"/><path d="m32.48 205.69a30.73 30.73 0 0 0 .2 3.75h-3.84a5.74 5.74 0 0 1 -.2-1.43c-.53.81-1.51 1.77-4.08 1.77-3.5 0-5-2.3-5-4.54 0-3.3 2.63-4.84 6.89-4.84h2.07v-.87c0-1-.36-2.05-2.24-2.05-1.68 0-2.07.7-2.24 1.77h-3.77c.2-2.58 1.79-4.65 6.22-4.65 3.86 0 6 1.54 6 5zm-3.92-2.86h-1.62c-2.44 0-3.34.76-3.34 2.16a1.88 1.88 0 0 0 2.1 1.93c2.55 0 2.86-1.79 2.86-3.7z"/><path d="m38.64 205.07a2.51 2.51 0 0 0 2.74 1.82c1.49 0 2-.53 2-1.43s-.62-1.28-2.69-1.79c-4.69-1.17-5.47-2.67-5.47-4.67s1.49-4.4 5.86-4.4 5.92 2.4 6.02 4.4h-3.81c-.14-.53-.51-1.54-2.38-1.54-1.32 0-1.77.59-1.77 1.23s.45 1.06 2.8 1.62c4.85 1.12 5.55 2.78 5.55 4.9 0 2.41-1.85 4.6-6.25 4.6s-6.21-2.13-6.55-4.71z"/><path d="m53.45 203.06c0 1.82.93 3.58 2.91 3.58a2.32 2.32 0 0 0 2.55-1.54h4c-.51 1.76-2.1 4.68-6.64 4.68-4.79 0-6.86-3.56-6.86-7.37 0-4.56 2.32-7.81 7-7.81 5 0 6.66 3.61 6.66 7.22a9.56 9.56 0 0 1 0 1.24zm5.6-2.47c0-1.68-.7-3.11-2.66-3.11s-2.69 1.32-2.85 3.11z"/><path d="m79.24 189v16.46 4h-3.81c-.08-.45-.17-1.18-.19-1.51-.7 1.15-2 1.85-4.12 1.85-3.67 0-6-2.94-6-7.48s2.46-7.7 6.58-7.7c2.1 0 3.22.76 3.53 1.4v-7zm-6.92 17.56c2.75 0 3.08-2.3 3.08-4.37 0-2.49-.36-4.37-3-4.37-2.1 0-3.17 1.65-3.17 4.4s1.11 4.34 3.09 4.34z"/><path d="m90.41 192.58v-3.58h4v3.58zm0 2.36h4v14.5h-4z"/><path d="m98.19 198.6c0-1.23 0-2.57 0-3.66h3.89c.08.39.14 1.4.17 1.84a4.41 4.41 0 0 1 4.2-2.18c2.91 0 4.78 2 4.78 5.63v9.21h-4v-8.76c0-1.66-.53-2.83-2.32-2.83s-2.66 1-2.66 3.53v8.06h-4z"/><path d="m126.19 193.56h-5.88v-3.41h15.91v3.41h-5.85v15.88h-4.18z"/><path d="m149.13 202.16c0 4.4-2.64 7.62-7.23 7.62s-7.11-3.22-7.11-7.54c0-4.48 2.72-7.64 7.31-7.64 4.25 0 7.03 3.02 7.03 7.56zm-10.28 0c0 2.8 1.2 4.45 3.14 4.45s3.08-1.65 3.08-4.42c0-3-1.12-4.46-3.14-4.46-1.85.03-3.08 1.41-3.08 4.46z"/><path d="m156.6 201.07c1.07-1.46 3-3.7 5-6.13h4.59l-5 5.48 5.51 9h-4.53l-3.72-6.42-1.85 1.79v4.65h-4v-20.44h4z"/><path d="m172.09 194.94c1.48 5 2.8 9.46 3 10.8.31-1.45 1.17-4.7 2.88-10.8h4l-4.88 14.92c-1.37 4.17-2.54 5.4-6 5.4a16.43 16.43 0 0 1 -1.87-.11v-3.22c.28 0 .7.06 1 .06 1.49 0 2.22-.51 2.78-2.1l-5.3-14.95z"/><path d="m197.59 202.16c0 4.4-2.63 7.62-7.22 7.62s-7.11-3.22-7.11-7.54c0-4.48 2.71-7.64 7.3-7.64 4.26 0 7.03 3.02 7.03 7.56zm-10.27 0c0 2.8 1.2 4.45 3.13 4.45s3.08-1.65 3.08-4.42c0-3-1.12-4.46-3.13-4.46-1.85.03-3.08 1.41-3.08 4.46z"/><path d="m200 212.69a23.57 23.57 0 0 0 2.07-8.18h4.12a16.15 16.15 0 0 1 -3.08 8.18z"/><path d="m216.74 209.44v-19.29h5.18c2.41 4.31 6.86 12.15 7.76 14.25h.06c-.23-2-.23-5.38-.23-8.54v-5.71h3.78v19.29h-4.9c-2.07-3.78-7-12.74-8-15 .14 1.68.19 5.66.19 9.1v5.88z"/><path d="m240.15 203.06c0 1.82.93 3.58 2.91 3.58a2.32 2.32 0 0 0 2.55-1.54h4c-.51 1.76-2.1 4.68-6.64 4.68-4.79 0-6.86-3.56-6.86-7.37 0-4.56 2.32-7.81 7-7.81 5 0 6.66 3.61 6.66 7.22a9.56 9.56 0 0 1 -.05 1.24zm5.6-2.47c0-1.68-.7-3.11-2.66-3.11s-2.69 1.32-2.85 3.11z"/><path d="m255.55 194.94c1.32 5.82 2 9.12 2.3 10.94.31-1.62.73-3.89 2.5-10.94h3.72c1.62 7.14 2.13 9.24 2.32 10.78.31-1.49.76-3.64 2.44-10.78h4l-4.31 14.5h-4.28c-1.21-5.49-1.88-8.4-2.21-10.3-.23 1.82-1 5.09-2.3 10.3h-4.31l-4.12-14.5z"/><path d="m287 209.44v-6.83a1.1 1.1 0 0 0 -.17-.62l-6.67-11.84h4.74c1.48 2.91 3.41 6.77 4.39 8.87.84-2 2.94-6.1 4.4-8.87h4.31l-6.75 11.79a1.08 1.08 0 0 0 -.14.61v6.89z"/><path d="m310.38 202.16c0 4.4-2.64 7.62-7.23 7.62s-7.11-3.22-7.11-7.54c0-4.48 2.71-7.64 7.31-7.64 4.25 0 7.03 3.02 7.03 7.56zm-10.28 0c0 2.8 1.2 4.45 3.14 4.45s3.07-1.65 3.07-4.42c0-3-1.11-4.46-3.13-4.46-1.85.03-3.08 1.41-3.08 4.46z"/><path d="m313.26 198.88c0-1.45 0-2.71 0-3.94h3.95c.05.33.11 1.76.11 2.54a4.67 4.67 0 0 1 4.65-2.88v3.84c-2.91-.09-4.65.7-4.65 4.67v6.33h-4z"/><path d="m328.46 201.07c1.07-1.46 3-3.7 5-6.13h4.54l-5 5.48 5.51 9h-4.51l-3.69-6.42-1.85 1.79v4.65h-4v-20.44h4z"/><path d="m341.9 212.69a23.57 23.57 0 0 0 2.07-8.18h4.12a16.15 16.15 0 0 1 -3.08 8.18z"/><path d="m362.54 193.56h-5.88v-3.41h15.9v3.41h-5.85v15.88h-4.17z"/><path d="m384.57 205.69a33 33 0 0 0 .2 3.75h-3.84a5.75 5.75 0 0 1 -.19-1.43c-.53.81-1.51 1.77-4.09 1.77-3.5 0-5-2.3-5-4.54 0-3.3 2.64-4.84 6.89-4.84h2.07v-.87c0-1-.36-2.05-2.24-2.05-1.68 0-2.07.7-2.24 1.77h-3.8c.19-2.58 1.79-4.65 6.21-4.65 3.87 0 6 1.54 6 5zm-3.92-2.86h-1.65c-2.44 0-3.33.76-3.33 2.16a1.87 1.87 0 0 0 2.1 1.93c2.54 0 2.85-1.79 2.85-3.7z"/><path d="m388.32 192.58v-3.58h4v3.58zm0 2.36h4v14.5h-4z"/><path d="m396.64 215v-16.56c0-1.18 0-2.33 0-3.5h3.89a15.53 15.53 0 0 1 .14 1.82 4.56 4.56 0 0 1 4.2-2.16c3.28 0 5.77 2.74 5.77 7.22 0 5.13-2.8 8-6.3 8a4.06 4.06 0 0 1 -3.67-1.63v6.81zm6.92-17.16c-2.27 0-3.08 1.48-3.08 4.4s.75 4.36 2.91 4.36 3.16-1.65 3.16-4.59c0-2.68-1.06-4.19-2.99-4.19z"/><path d="m416.72 203.06c0 1.82.92 3.58 2.91 3.58a2.32 2.32 0 0 0 2.55-1.54h4c-.5 1.76-2.1 4.68-6.64 4.68-4.78 0-6.86-3.56-6.86-7.37 0-4.56 2.33-7.81 7-7.81 5 0 6.67 3.61 6.67 7.22a8 8 0 0 1 -.06 1.24zm5.6-2.47c0-1.68-.7-3.11-2.66-3.11s-2.69 1.32-2.86 3.11z"/><path d="m429.76 192.58v-3.58h4v3.58zm0 2.36h4v14.5h-4z"/><path d="m437.58 212.69a24 24 0 0 0 2.07-8.18h4.11a16.06 16.06 0 0 1 -3.08 8.18z"/><path d="m465.88 205.69a33 33 0 0 0 .2 3.75h-3.84a5.75 5.75 0 0 1 -.19-1.43c-.54.81-1.51 1.77-4.09 1.77-3.5 0-5-2.3-5-4.54 0-3.3 2.63-4.84 6.89-4.84h2.15v-.87c0-1-.36-2.05-2.24-2.05-1.68 0-2.07.7-2.24 1.77h-3.81c.2-2.58 1.8-4.65 6.22-4.65 3.86 0 6 1.54 6 5zm-3.88-2.86h-1.62c-2.44 0-3.33.76-3.33 2.16a1.87 1.87 0 0 0 2.1 1.93c2.54 0 2.85-1.79 2.85-3.7z"/><path d="m469.66 198.6c0-1.23 0-2.57 0-3.66h3.9a17.74 17.74 0 0 1 .16 1.84 4.43 4.43 0 0 1 4.2-2.18c2.92 0 4.79 2 4.79 5.63v9.21h-4v-8.76c0-1.66-.53-2.83-2.33-2.83s-2.66 1-2.66 3.53v8.06h-4z"/><path d="m499.68 189v16.46 4h-3.84c-.08-.45-.17-1.18-.2-1.51-.7 1.15-2 1.85-4.11 1.85-3.67 0-6-2.94-6-7.48s2.46-7.7 6.57-7.7c2.11 0 3.23.76 3.53 1.4v-7zm-6.92 17.56c2.74 0 3.08-2.3 3.08-4.37 0-2.49-.36-4.37-3-4.37-2.09 0-3.16 1.65-3.16 4.4s1.09 4.34 3.08 4.34z"/><path d="m1.9 253.15h8.43c4.68 0 6.44 2.41 6.44 4.93a4.36 4.36 0 0 1 -2.46 4.17 4.63 4.63 0 0 1 3 4.42c0 3.31-2.6 5.77-6.69 5.77h-8.72zm8 7.61c2 0 2.8-.89 2.8-2.26s-1.07-2.13-2.66-2.13h-4.04v4.39zm-3.9 8.46h3.77c2.27 0 3.28-1 3.28-2.69 0-1.57-1-2.55-3.31-2.55h-3.74z"/><path d="m23.07 266.06c0 1.82.93 3.58 2.91 3.58a2.32 2.32 0 0 0 2.55-1.54h4c-.51 1.76-2.1 4.68-6.64 4.68-4.79 0-6.86-3.56-6.86-7.37 0-4.56 2.32-7.81 7-7.81 5 0 6.66 3.61 6.66 7.22a9.56 9.56 0 0 1 -.05 1.24zm5.6-2.47c0-1.68-.7-3.11-2.66-3.11s-2.69 1.32-2.85 3.11z"/><path d="m35.56 261.88c0-1.45 0-2.71 0-3.94h3.95c.06.33.11 1.76.11 2.54a4.69 4.69 0 0 1 4.65-2.88v3.84c-2.91-.09-4.65.7-4.65 4.67v6.33h-4z"/><path d="m46.73 272.44v-20.44h4v20.44z"/><path d="m54.49 255.58v-3.58h4v3.58zm0 2.36h4v14.5h-4z"/><path d="m62.27 261.6c0-1.23 0-2.57 0-3.66h3.9a17.74 17.74 0 0 1 .16 1.84 4.43 4.43 0 0 1 4.2-2.18c2.92 0 4.79 2 4.79 5.63v9.21h-4v-8.76c0-1.66-.54-2.83-2.33-2.83s-2.66.95-2.66 3.53v8.06h-4z"/><path d="m77.36 275.69a23.57 23.57 0 0 0 2.07-8.18h4.12a16.15 16.15 0 0 1 -3.08 8.18z"/><path d="m105.45 265.16c0 4.4-2.64 7.62-7.23 7.62s-7.11-3.22-7.11-7.54c0-4.48 2.72-7.64 7.31-7.64 4.25 0 7.03 3.02 7.03 7.56zm-10.28 0c0 2.8 1.2 4.45 3.14 4.45s3.08-1.65 3.08-4.42c0-3-1.12-4.46-3.14-4.46-1.85.03-3.08 1.41-3.08 4.46z"/><path d="m120.54 268.24v4.2h-3.92c-.06-.39-.09-1.18-.12-1.68a4.12 4.12 0 0 1 -4 2c-2.94 0-4.82-1.8-4.82-5.38v-9.46h4v8.65c0 1.59.5 2.91 2.24 2.91s2.57-1 2.57-3.84v-7.72h4z"/><path d="m124.29 261.88c0-1.45 0-2.71 0-3.94h4c.06.33.11 1.76.11 2.54a4.69 4.69 0 0 1 4.6-2.88v3.84c-2.91-.09-4.65.7-4.65 4.67v6.33h-4z"/><path d="m141.26 261.69c0-1.26 0-2.49 0-3.75h3.84c.05.36.14 1.17.16 1.73a4.58 4.58 0 0 1 4-2.07 3.81 3.81 0 0 1 3.72 2.21 5.1 5.1 0 0 1 4.48-2.21c2.52 0 4.59 1.57 4.59 5.32v9.52h-3.92v-9c0-1.31-.47-2.6-2.13-2.6s-2.35 1.12-2.35 3.33v8.29h-3.95v-8.88c0-1.48-.36-2.71-2.07-2.71s-2.41 1-2.41 3.5v8.09h-4z"/><path d="m178 268.24v4.2h-3.9c-.06-.39-.08-1.18-.11-1.68a4.15 4.15 0 0 1 -4 2c-2.94 0-4.81-1.8-4.81-5.38v-9.46h4v8.65c0 1.59.51 2.91 2.24 2.91s2.58-1 2.58-3.84v-7.72h4z"/><path d="m181.75 272.44v-20.44h4v20.44z"/><path d="m188.1 257.94h2.24v-3.94h4v3.92h2.86v3h-2.86v7.17c0 1.09.34 1.51 1.54 1.51h.9v2.75a8.71 8.71 0 0 1 -2.69.28c-2.82 0-3.75-1.52-3.75-4.06v-7.57h-2.24z"/><path d="m199.8 255.58v-3.58h4v3.58zm0 2.36h4v14.5h-4z"/><path d="m220.86 252v16.46 4h-3.84c-.08-.45-.17-1.18-.19-1.51-.7 1.15-2 1.85-4.12 1.85-3.67 0-6-2.94-6-7.48s2.46-7.7 6.58-7.7c2.1 0 3.22.76 3.53 1.4v-7zm-6.92 17.56c2.75 0 3.08-2.3 3.08-4.37 0-2.49-.36-4.37-3-4.37-2.1 0-3.17 1.65-3.17 4.4s1.15 4.34 3.09 4.34z"/><path d="m224.56 255.58v-3.58h4v3.58zm0 2.36h4v14.5h-4z"/><path d="m235.28 268.07a2.51 2.51 0 0 0 2.74 1.82c1.49 0 2-.53 2-1.43s-.62-1.28-2.69-1.79c-4.73-1.17-5.49-2.63-5.49-4.67s1.49-4.4 5.86-4.4 5.9 2.41 6 4.37h-3.81c-.14-.53-.51-1.54-2.38-1.54-1.32 0-1.77.59-1.77 1.23s.45 1.06 2.8 1.62c4.85 1.12 5.55 2.78 5.55 4.9 0 2.41-1.85 4.6-6.25 4.6s-6.21-2.13-6.55-4.71z"/><path d="m259.44 267.76c-.47 2.41-2.18 5-6.49 5-4.51 0-6.83-3.11-6.83-7.48s2.6-7.7 7-7.7c4.87 0 6.25 3.53 6.3 5.15h-3.89a2.27 2.27 0 0 0 -2.49-2c-1.85 0-2.89 1.6-2.89 4.4 0 3.11 1.12 4.51 2.86 4.51a2.46 2.46 0 0 0 2.49-1.91z"/><path d="m262.13 255.58v-3.58h4v3.58zm0 2.36h4v14.5h-4z"/><path d="m269.89 278v-16.56c0-1.18 0-2.33 0-3.5h3.89a15.53 15.53 0 0 1 .14 1.82 4.55 4.55 0 0 1 4.2-2.16c3.28 0 5.77 2.74 5.77 7.22 0 5.13-2.8 8-6.3 8a4 4 0 0 1 -3.67-1.63v6.81zm6.91-17.16c-2.27 0-3.08 1.48-3.08 4.4 0 2.77.76 4.36 2.91 4.36s3.17-1.65 3.17-4.59c0-2.68-1.07-4.19-3-4.19z"/><path d="m286.77 272.44v-20.44h4v20.44z"/><path d="m294.53 255.58v-3.58h4v3.58zm0 2.36h4v14.5h-4z"/><path d="m302.31 261.6c0-1.23 0-2.57 0-3.66h3.89a17.69 17.69 0 0 1 .17 1.84 4.42 4.42 0 0 1 4.2-2.18c2.91 0 4.79 2 4.79 5.63v9.21h-4v-8.76c0-1.66-.53-2.83-2.32-2.83s-2.66.95-2.66 3.53v8.06h-4z"/><path d="m331.06 268.69a33 33 0 0 0 .2 3.75h-3.84a5.75 5.75 0 0 1 -.19-1.43c-.53.81-1.51 1.77-4.09 1.77-3.5 0-5-2.3-5-4.54 0-3.3 2.64-4.84 6.89-4.84h2.07v-.87c0-1-.36-2-2.24-2-1.68 0-2.07.7-2.24 1.77h-3.8c.19-2.58 1.79-4.65 6.21-4.65 3.87 0 6 1.54 6 5zm-3.92-2.86h-1.62c-2.44 0-3.33.76-3.33 2.16a1.87 1.87 0 0 0 2.1 1.93c2.55 0 2.85-1.79 2.85-3.7z"/><path d="m334.82 261.88c0-1.45 0-2.71 0-3.94h3.95c.05.33.11 1.76.11 2.54a4.67 4.67 0 0 1 4.65-2.88v3.84c-2.92-.09-4.65.7-4.65 4.67v6.33h-4z"/><path d="m348.65 257.94c1.48 5 2.8 9.46 3 10.8.31-1.45 1.18-4.7 2.88-10.8h4l-4.87 14.92c-1.38 4.17-2.55 5.4-6 5.4a16.47 16.47 0 0 1 -1.88-.11v-3.22c.28 0 .7.06 1 .06 1.48 0 2.21-.51 2.77-2.1l-5.29-14.95z"/><path d="m365.05 257.94h2.24v-3.94h4v3.92h2.86v3h-2.85v7.17c0 1.09.33 1.51 1.54 1.51h.9v2.75a8.74 8.74 0 0 1 -2.69.28c-2.83 0-3.76-1.52-3.76-4.06v-7.57h-2.24z"/><path d="m380 266.06c0 1.82.93 3.58 2.91 3.58a2.32 2.32 0 0 0 2.55-1.54h4c-.51 1.76-2.1 4.68-6.64 4.68-4.79 0-6.86-3.56-6.86-7.37 0-4.56 2.32-7.81 7-7.81 5 0 6.66 3.61 6.66 7.22a9.56 9.56 0 0 1 -.05 1.24zm5.6-2.47c0-1.68-.7-3.11-2.66-3.11s-2.69 1.32-2.85 3.11z"/><path d="m404.48 268.69a30.73 30.73 0 0 0 .2 3.75h-3.84a5.74 5.74 0 0 1 -.2-1.43c-.53.81-1.51 1.77-4.08 1.77-3.5 0-5-2.3-5-4.54 0-3.3 2.63-4.84 6.89-4.84h2.07v-.87c0-1-.36-2-2.24-2-1.68 0-2.07.7-2.24 1.77h-3.81c.2-2.58 1.79-4.65 6.22-4.65 3.86 0 6 1.54 6 5zm-3.92-2.86h-1.62c-2.44 0-3.34.76-3.34 2.16a1.88 1.88 0 0 0 2.1 1.93c2.55 0 2.86-1.79 2.86-3.7z"/><path d="m408.23 261.69c0-1.26 0-2.49 0-3.75h3.77c0 .36.14 1.17.17 1.73a4.55 4.55 0 0 1 4-2.07 3.81 3.81 0 0 1 3.72 2.21 5.1 5.1 0 0 1 4.48-2.21c2.52 0 4.59 1.57 4.59 5.32v9.52h-3.92v-9c0-1.31-.47-2.6-2.12-2.6s-2.36 1.12-2.36 3.33v8.29h-3.94v-8.88c0-1.48-.37-2.71-2.08-2.71s-2.4 1-2.4 3.5v8.09h-4z"/><path d="m450 268.69a33 33 0 0 0 .2 3.75h-3.84a5.75 5.75 0 0 1 -.19-1.43c-.53.81-1.51 1.77-4.09 1.77-3.5 0-5-2.3-5-4.54 0-3.3 2.64-4.84 6.89-4.84h2.07v-.87c0-1-.36-2-2.24-2-1.68 0-2.07.7-2.24 1.77h-3.8c.19-2.58 1.79-4.65 6.21-4.65 3.87 0 6 1.54 6 5zm-3.92-2.86h-1.62c-2.44 0-3.33.76-3.33 2.16a1.87 1.87 0 0 0 2.1 1.93c2.55 0 2.85-1.79 2.85-3.7z"/><path d="m453.79 272.44v-20.44h4v20.44z"/><path d="m461.54 272.44v-20.44h4v20.44z"/><path d="m482.79 265.16c0 4.4-2.63 7.62-7.22 7.62s-7.11-3.22-7.11-7.54c0-4.48 2.71-7.64 7.3-7.64 4.24 0 7.03 3.02 7.03 7.56zm-10.27 0c0 2.8 1.2 4.45 3.13 4.45s3.08-1.65 3.08-4.42c0-3-1.12-4.46-3.13-4.46-1.85.03-3.08 1.41-3.08 4.46z"/><path d="m488 257.94c1.31 5.82 2 9.12 2.29 10.94h.06c.31-1.62.73-3.89 2.49-10.94h3.72c1.63 7.14 2.13 9.24 2.33 10.78.3-1.49.75-3.64 2.43-10.78h4l-4.31 14.5h-4.29c-1.2-5.49-1.87-8.4-2.21-10.3-.22 1.82-1 5.09-2.29 10.3h-4.31l-4.12-14.5z"/><path d="m510.17 268.07a2.51 2.51 0 0 0 2.75 1.82c1.48 0 2-.53 2-1.43s-.61-1.28-2.68-1.79c-4.74-1.17-5.49-2.63-5.49-4.67s1.48-4.4 5.85-4.4 5.91 2.41 6 4.37h-3.81c-.14-.53-.5-1.54-2.38-1.54-1.31 0-1.76.59-1.76 1.23s.45 1.06 2.8 1.62c4.84 1.12 5.54 2.78 5.54 4.9 0 2.41-1.85 4.6-6.24 4.6s-6.22-2.13-6.55-4.71z"/><path d="m14.17 331.24v4.2h-3.89c-.06-.39-.09-1.18-.12-1.68a4.12 4.12 0 0 1 -4 2c-2.94 0-4.82-1.8-4.82-5.38v-9.46h4v8.65c0 1.59.5 2.91 2.24 2.91s2.57-1 2.57-3.84v-7.72h4z"/><path d="m20.89 331.07a2.51 2.51 0 0 0 2.74 1.82c1.49 0 2-.53 2-1.43s-.63-1.28-2.63-1.79c-4.73-1.17-5.49-2.63-5.49-4.67s1.49-4.4 5.85-4.4 5.91 2.41 6 4.37h-3.8c-.14-.53-.51-1.54-2.38-1.54-1.32 0-1.77.59-1.77 1.23s.45 1.06 2.8 1.62c4.85 1.12 5.55 2.78 5.55 4.9 0 2.41-1.85 4.6-6.25 4.6s-6.21-2.13-6.55-4.71z"/><path d="m36.9 320.94h2.24v-3.94h4v3.92h2.86v3h-2.85v7.17c0 1.09.33 1.51 1.54 1.51h.89v2.75a8.65 8.65 0 0 1 -2.68.28c-2.83 0-3.76-1.52-3.76-4.06v-7.57h-2.24z"/><path d="m61.54 328.16c0 4.4-2.63 7.62-7.22 7.62s-7.11-3.22-7.11-7.54c0-4.48 2.71-7.64 7.3-7.64 4.26 0 7.03 3.02 7.03 7.56zm-10.27 0c0 2.8 1.2 4.45 3.13 4.45s3.08-1.65 3.08-4.42c0-3-1.12-4.46-3.13-4.46-1.85.03-3.08 1.41-3.08 4.46z"/><path d="m70.22 341v-16.56c0-1.18 0-2.33 0-3.5h3.9a18 18 0 0 1 .14 1.82 4.54 4.54 0 0 1 4.2-2.16c3.27 0 5.76 2.74 5.76 7.22 0 5.13-2.8 8-6.3 8a4 4 0 0 1 -3.66-1.63v6.81zm6.92-17.16c-2.27 0-3.08 1.48-3.08 4.4 0 2.77.75 4.36 2.91 4.36s3.16-1.65 3.16-4.59c0-2.68-1.06-4.19-2.99-4.19z"/><path d="m87.11 324.88c0-1.45 0-2.71 0-3.94h4c0 .33.11 1.76.11 2.54a4.67 4.67 0 0 1 4.65-2.88v3.84c-2.92-.09-4.65.7-4.65 4.67v6.33h-4z"/><path d="m111.77 328.16c0 4.4-2.63 7.62-7.22 7.62s-7.11-3.22-7.11-7.54c0-4.48 2.71-7.64 7.31-7.64 4.25 0 7.02 3.02 7.02 7.56zm-10.27 0c0 2.8 1.2 4.45 3.13 4.45s3.08-1.65 3.08-4.42c0-3-1.12-4.46-3.13-4.46-1.85.03-3.08 1.41-3.08 4.46z"/><path d="m127.4 315v16.46 4h-3.84c-.08-.45-.17-1.18-.2-1.51-.7 1.15-2 1.85-4.11 1.85-3.67 0-6-2.94-6-7.48s2.46-7.7 6.58-7.7c2.1 0 3.22.76 3.52 1.4v-7zm-6.92 17.56c2.75 0 3.08-2.3 3.08-4.37 0-2.49-.36-4.37-3-4.37-2.1 0-3.17 1.65-3.17 4.4s1.1 4.34 3.09 4.34z"/><path d="m143.86 331.24v4.2h-3.86c-.06-.39-.08-1.18-.11-1.68a4.15 4.15 0 0 1 -4 2c-2.94 0-4.81-1.8-4.81-5.38v-9.46h4v8.65c0 1.59.51 2.91 2.24 2.91s2.58-1 2.58-3.84v-7.72h4z"/><path d="m160.16 330.76c-.48 2.41-2.19 5-6.5 5-4.51 0-6.83-3.11-6.83-7.48s2.6-7.7 7-7.7c4.87 0 6.24 3.53 6.3 5.15h-3.89a2.28 2.28 0 0 0 -2.5-2c-1.84 0-2.88 1.6-2.88 4.4 0 3.11 1.12 4.51 2.86 4.51a2.47 2.47 0 0 0 2.49-1.91z"/><path d="m165.48 329.06c0 1.82.92 3.58 2.91 3.58a2.32 2.32 0 0 0 2.55-1.54h4c-.5 1.76-2.1 4.68-6.63 4.68-4.79 0-6.86-3.56-6.86-7.37 0-4.56 2.32-7.81 7-7.81 5 0 6.66 3.61 6.66 7.22a8 8 0 0 1 -.06 1.24zm5.6-2.47c0-1.68-.7-3.11-2.66-3.11s-2.69 1.32-2.86 3.11z"/><path d="m183.2 318.58v-3.58h4v3.58zm0 2.36h4v14.5h-4z"/><path d="m191 324.6c0-1.23 0-2.57 0-3.66h3.89c.08.39.14 1.4.17 1.84a4.41 4.41 0 0 1 4.2-2.18c2.91 0 4.78 2 4.78 5.63v9.21h-4v-8.76c0-1.66-.53-2.83-2.32-2.83s-2.66.95-2.66 3.53v8.06h-4z"/><path d="m207.17 324.6c0-1.23 0-2.57 0-3.66h3.83a17.69 17.69 0 0 1 .17 1.84 4.42 4.42 0 0 1 4.2-2.18c2.91 0 4.79 2 4.79 5.63v9.21h-4v-8.76c0-1.66-.53-2.83-2.32-2.83s-2.66.95-2.66 3.53v8.06h-4z"/><path d="m236.82 328.16c0 4.4-2.63 7.62-7.22 7.62s-7.12-3.22-7.12-7.54c0-4.48 2.72-7.64 7.31-7.64 4.26 0 7.03 3.02 7.03 7.56zm-10.28 0c0 2.8 1.21 4.45 3.14 4.45s3.08-1.65 3.08-4.42c0-3-1.12-4.46-3.14-4.46-1.84.03-3.08 1.41-3.08 4.46z"/><path d="m242.42 320.94c1.37 4.92 2.52 9.21 2.8 10.94.42-2.38 1.82-6.74 3.08-10.94h4l-5.12 14.5h-4.18l-4.93-14.5z"/><path d="m265.91 331.69a30.73 30.73 0 0 0 .2 3.75h-3.84a5.75 5.75 0 0 1 -.19-1.43c-.54.81-1.52 1.77-4.09 1.77-3.5 0-5-2.3-5-4.54 0-3.3 2.63-4.84 6.89-4.84h2.12v-.87c0-1-.36-2-2.24-2-1.68 0-2.07.7-2.24 1.77h-3.82c.2-2.58 1.8-4.65 6.22-4.65 3.86 0 6 1.54 6 5zm-3.91-2.86h-1.62c-2.44 0-3.33.76-3.33 2.16a1.87 1.87 0 0 0 2.1 1.93c2.54 0 2.85-1.79 2.85-3.7z"/><path d="m268.26 320.94h2.24v-3.94h4v3.92h2.85v3h-2.85v7.17c0 1.09.33 1.51 1.54 1.51h.89v2.75a8.68 8.68 0 0 1 -2.69.28c-2.82 0-3.75-1.52-3.75-4.06v-7.57h-2.24z"/><path d="m280 318.58v-3.58h4v3.58zm0 2.36h4v14.5h-4z"/><path d="m290.44 320.94c1.37 4.92 2.52 9.21 2.8 10.94.42-2.38 1.82-6.74 3.08-10.94h4l-5.12 14.5h-4.2l-4.93-14.5z"/><path d="m305.08 329.06c0 1.82.93 3.58 2.91 3.58a2.32 2.32 0 0 0 2.55-1.54h4c-.51 1.76-2.1 4.68-6.64 4.68-4.79 0-6.86-3.56-6.86-7.37 0-4.56 2.33-7.81 7-7.81 5 0 6.66 3.61 6.66 7.22a9.56 9.56 0 0 1 0 1.24zm5.6-2.47c0-1.68-.7-3.11-2.66-3.11s-2.69 1.32-2.85 3.11z"/><path d="m325.72 320.94c1.31 5.82 2 9.12 2.29 10.94h.06c.31-1.62.73-3.89 2.49-10.94h3.73c1.62 7.14 2.13 9.24 2.32 10.78.31-1.49.75-3.64 2.43-10.78h4l-4.31 14.5h-4.29c-1.2-5.49-1.87-8.4-2.21-10.3-.22 1.82-1 5.09-2.29 10.3h-4.31l-4.12-14.5z"/><path d="m359 328.16c0 4.4-2.63 7.62-7.22 7.62s-7.11-3.22-7.11-7.54c0-4.48 2.71-7.64 7.31-7.64 4.2 0 7.02 3.02 7.02 7.56zm-10.27 0c0 2.8 1.2 4.45 3.13 4.45s3.08-1.65 3.08-4.42c0-3-1.12-4.46-3.13-4.46-1.9.03-3.13 1.41-3.13 4.46z"/><path d="m361.28 324.88c0-1.45 0-2.71 0-3.94h3.95c.05.33.11 1.76.11 2.54a4.67 4.67 0 0 1 4.66-2.88v3.84c-2.92-.09-4.65.7-4.65 4.67v6.33h-4z"/><path d="m376.48 327.07c1.06-1.46 3-3.7 5-6.13h4.6l-5 5.48 5.51 9h-4.59l-3.67-6.42-1.85 1.79v4.65h-4v-20.44h4z"/><path d="m394 318.58v-3.58h4v3.58zm0 2.36h4v14.5h-4z"/><path d="m401.2 324.6c0-1.23 0-2.57 0-3.66h3.89c.08.39.14 1.4.17 1.84a4.41 4.41 0 0 1 4.2-2.18c2.91 0 4.78 2 4.78 5.63v9.21h-4v-8.76c0-1.66-.53-2.83-2.32-2.83s-2.66.95-2.66 3.53v8.06h-4z"/><path d="m427 320.94c1.37 4.92 2.52 9.21 2.8 10.94.42-2.38 1.82-6.74 3.08-10.94h4l-5.12 14.5h-4.2l-4.93-14.5z"/><path d="m451 331.69a33 33 0 0 0 .2 3.75h-3.8a5.75 5.75 0 0 1 -.19-1.43c-.54.81-1.51 1.77-4.09 1.77-3.5 0-5-2.3-5-4.54 0-3.3 2.63-4.84 6.89-4.84h2.07v-.87c0-1-.36-2-2.24-2-1.68 0-2.07.7-2.24 1.77h-3.81c.2-2.58 1.8-4.65 6.22-4.65 3.87 0 6 1.54 6 5zm-3.92-2.86h-1.58c-2.44 0-3.33.76-3.33 2.16a1.87 1.87 0 0 0 2.1 1.93c2.54 0 2.85-1.79 2.85-3.7z"/><path d="m454.79 324.88c0-1.45 0-2.71 0-3.94h3.94c.06.33.12 1.76.12 2.54a4.66 4.66 0 0 1 4.64-2.88v3.84c-2.91-.09-4.64.7-4.64 4.67v6.33h-4z"/><path d="m466 318.58v-3.58h4v3.58zm0 2.36h4v14.5h-4z"/><path d="m487.22 328.16c0 4.4-2.63 7.62-7.23 7.62s-7.11-3.22-7.11-7.54c0-4.48 2.72-7.64 7.31-7.64 4.26 0 7.03 3.02 7.03 7.56zm-10.28 0c0 2.8 1.21 4.45 3.14 4.45s3.08-1.65 3.08-4.42c0-3-1.12-4.46-3.14-4.46-1.85.03-3.08 1.41-3.08 4.46z"/><path d="m502.87 331.24v4.2h-3.87c-.06-.39-.09-1.18-.12-1.68a4.12 4.12 0 0 1 -4 2c-2.94 0-4.82-1.8-4.82-5.38v-9.46h4v8.65c0 1.59.5 2.91 2.24 2.91s2.57-1 2.57-3.84v-7.72h4z"/><path d="m509.59 331.07a2.51 2.51 0 0 0 2.74 1.82c1.49 0 2-.53 2-1.43s-.62-1.28-2.69-1.79c-4.73-1.17-5.49-2.63-5.49-4.67s1.49-4.4 5.85-4.4 5.91 2.41 6 4.37h-3.8c-.14-.53-.51-1.54-2.38-1.54-1.32 0-1.77.59-1.77 1.23s.45 1.06 2.8 1.62c4.85 1.12 5.55 2.78 5.55 4.9 0 2.41-1.85 4.6-6.25 4.6s-6.21-2.13-6.55-4.71z"/><path d="m13.94 393.76c-.47 2.41-2.18 5-6.49 5-4.51 0-6.83-3.11-6.83-7.48s2.6-7.7 7-7.7c4.88 0 6.25 3.53 6.3 5.15h-3.87a2.27 2.27 0 0 0 -2.49-2c-1.85 0-2.88 1.6-2.88 4.4 0 3.11 1.12 4.51 2.85 4.51a2.46 2.46 0 0 0 2.47-1.88z"/><path d="m17.19 387.88c0-1.45 0-2.71 0-3.94h3.95c.06.33.11 1.76.11 2.54a4.69 4.69 0 0 1 4.65-2.88v3.84c-2.91-.09-4.65.7-4.65 4.67v6.33h-4z"/><path d="m31.56 392.06c0 1.82.92 3.58 2.91 3.58a2.32 2.32 0 0 0 2.53-1.54h4c-.5 1.76-2.1 4.68-6.64 4.68-4.78 0-6.86-3.56-6.86-7.37 0-4.56 2.33-7.81 7-7.81 5 0 6.67 3.61 6.67 7.22a8 8 0 0 1 -.06 1.24zm5.6-2.47c0-1.68-.7-3.11-2.66-3.11s-2.69 1.32-2.86 3.11z"/><path d="m56.08 394.69a33 33 0 0 0 .2 3.75h-3.84a5.75 5.75 0 0 1 -.19-1.43c-.53.81-1.51 1.77-4.09 1.77-3.5 0-5-2.3-5-4.54 0-3.3 2.64-4.84 6.89-4.84h2.07v-.87c0-1-.36-2-2.24-2-1.68 0-2.07.7-2.24 1.77h-3.8c.19-2.58 1.79-4.65 6.21-4.65 3.87 0 6 1.54 6 5zm-3.92-2.86h-1.62c-2.44 0-3.33.76-3.33 2.16a1.87 1.87 0 0 0 2.1 1.93c2.55 0 2.85-1.79 2.85-3.7z"/><path d="m58.44 383.94h2.24v-3.94h4v3.92h2.86v3h-2.86v7.17c0 1.09.34 1.51 1.54 1.51h.9v2.75a8.74 8.74 0 0 1 -2.69.28c-2.83 0-3.75-1.52-3.75-4.06v-7.57h-2.24z"/><path d="m71.26 381.58v-3.58h4v3.58zm0 2.36h4v14.5h-4z"/><path d="m82.29 383.94c1.37 4.92 2.52 9.21 2.8 10.94.42-2.38 1.82-6.74 3.08-10.94h4l-5.12 14.5h-4.2l-4.85-14.5z"/><path d="m97.49 392.06c0 1.82.93 3.58 2.92 3.58a2.3 2.3 0 0 0 2.59-1.54h4c-.51 1.76-2.1 4.68-6.64 4.68-4.79 0-6.86-3.56-6.86-7.37 0-4.56 2.33-7.81 7-7.81 5 0 6.67 3.61 6.67 7.22a8 8 0 0 1 -.06 1.24zm5.6-2.47c0-1.68-.7-3.11-2.66-3.11s-2.68 1.32-2.85 3.11z"/><path d="m119.7 398.44v-11.44h-2.13v-3h2.13v-1.26c0-3 1.48-5 4.62-5a8.5 8.5 0 0 1 1.85.17v3.16a6.9 6.9 0 0 0 -.84-.05c-1.18 0-1.63.42-1.63 2v1h2.52v3h-2.52v11.48z"/><path d="m129.61 381.58v-3.58h4v3.58zm0 2.36h4v14.5h-4z"/><path d="m141.12 392.06c0 1.82.92 3.58 2.91 3.58a2.32 2.32 0 0 0 2.55-1.54h4c-.5 1.76-2.1 4.68-6.63 4.68-4.79 0-6.86-3.56-6.86-7.37 0-4.56 2.32-7.81 7-7.81 4.95 0 6.66 3.61 6.66 7.22a8 8 0 0 1 -.06 1.24zm5.6-2.47c0-1.68-.7-3.11-2.66-3.11s-2.69 1.32-2.86 3.11z"/><path d="m154.17 398.44v-20.44h4v20.44z"/><path d="m175.78 378v16.46 4h-3.78c-.08-.45-.16-1.18-.19-1.51-.7 1.15-2 1.85-4.12 1.85-3.67 0-6-2.94-6-7.48s2.46-7.7 6.58-7.7c2.1 0 3.22.76 3.53 1.4v-7zm-6.91 17.56c2.74 0 3.08-2.3 3.08-4.37 0-2.49-.37-4.37-3-4.37-2.1 0-3.16 1.65-3.16 4.4s1.09 4.34 3.08 4.34z"/><path d="m182.45 394.07a2.5 2.5 0 0 0 2.74 1.82c1.48 0 2-.53 2-1.43s-.62-1.28-2.69-1.79c-4.71-1.17-5.5-2.67-5.5-4.67s1.48-4.4 5.85-4.4 5.91 2.41 6 4.37h-3.81c-.14-.53-.5-1.54-2.38-1.54-1.31 0-1.76.59-1.76 1.23s.45 1.06 2.8 1.62c4.84 1.12 5.54 2.78 5.54 4.9 0 2.41-1.84 4.6-6.24 4.6s-6.22-2.13-6.55-4.71z"/><path d="m205.07 394.07a2.51 2.51 0 0 0 2.74 1.82c1.49 0 2-.53 2-1.43s-.62-1.28-2.69-1.79c-4.73-1.17-5.49-2.63-5.49-4.67s1.49-4.4 5.85-4.4 5.91 2.41 6 4.37h-3.8c-.14-.53-.51-1.54-2.38-1.54-1.32 0-1.77.59-1.77 1.23s.45 1.06 2.8 1.62c4.85 1.12 5.55 2.78 5.55 4.9 0 2.41-1.85 4.6-6.25 4.6s-6.21-2.13-6.55-4.71z"/><path d="m229.46 394.24v4.2h-3.92c-.05-.39-.08-1.18-.11-1.68a4.14 4.14 0 0 1 -4 2c-2.94 0-4.82-1.8-4.82-5.38v-9.46h4v8.65c0 1.59.5 2.91 2.24 2.91s2.57-1 2.57-3.84v-7.72h4z"/><path d="m245.75 393.76c-.47 2.41-2.18 5-6.49 5-4.51 0-6.84-3.11-6.84-7.48s2.61-7.7 7-7.7c4.87 0 6.25 3.53 6.3 5.15h-3.89a2.27 2.27 0 0 0 -2.49-2c-1.85 0-2.89 1.6-2.89 4.4 0 3.11 1.12 4.51 2.86 4.51a2.46 2.46 0 0 0 2.49-1.91z"/><path d="m252.47 378v7.67a4.58 4.58 0 0 1 4.15-2.07c2.68 0 4.84 1.62 4.84 5.54v9.3h-4v-8.71c0-1.87-.67-2.88-2.35-2.88-2.24 0-2.66 1.68-2.66 3.89v7.7h-4v-20.44z"/><path d="m284.73 394.69a33.66 33.66 0 0 0 .19 3.75h-3.83a5.74 5.74 0 0 1 -.2-1.43c-.53.81-1.51 1.77-4.09 1.77-3.5 0-4.95-2.3-4.95-4.54 0-3.3 2.63-4.84 6.89-4.84h2.07v-.87c0-1-.37-2-2.24-2-1.68 0-2.07.7-2.24 1.77h-3.81c.2-2.58 1.79-4.65 6.22-4.65 3.86 0 6 1.54 6 5zm-3.92-2.86h-1.63c-2.43 0-3.33.76-3.33 2.16a1.88 1.88 0 0 0 2.1 1.93c2.55 0 2.86-1.79 2.86-3.7z"/><path d="m291.45 394.07a2.5 2.5 0 0 0 2.74 1.82c1.48 0 2-.53 2-1.43s-.62-1.28-2.69-1.79c-4.71-1.17-5.5-2.67-5.5-4.67s1.48-4.4 5.85-4.4 5.91 2.41 6 4.37h-3.81c-.14-.53-.5-1.54-2.38-1.54-1.31 0-1.76.59-1.76 1.23s.45 1.06 2.8 1.62c4.84 1.12 5.54 2.78 5.54 4.9 0 2.41-1.84 4.6-6.24 4.6s-6.22-2.13-6.55-4.71z"/><path d="m322.58 394.69a30.73 30.73 0 0 0 .2 3.75h-3.84a5.75 5.75 0 0 1 -.19-1.43c-.54.81-1.52 1.77-4.09 1.77-3.5 0-5-2.3-5-4.54 0-3.3 2.63-4.84 6.89-4.84h2.07v-.87c0-1-.36-2-2.24-2-1.68 0-2.07.7-2.24 1.77h-3.81c.2-2.58 1.8-4.65 6.22-4.65 3.86 0 6 1.54 6 5zm-3.92-2.86h-1.66c-2.44 0-3.33.76-3.33 2.16a1.87 1.87 0 0 0 2.1 1.93c2.54 0 2.85-1.79 2.85-3.7z"/><path d="m339.63 378v16.46 4h-3.83c-.09-.45-.17-1.18-.2-1.51-.7 1.15-2 1.85-4.12 1.85-3.67 0-6-2.94-6-7.48s2.47-7.7 6.58-7.7c2.1 0 3.22.76 3.53 1.4v-7zm-6.91 17.56c2.74 0 3.08-2.3 3.08-4.37 0-2.49-.37-4.37-3-4.37-2.1 0-3.16 1.65-3.16 4.4s1.09 4.34 3.08 4.34z"/><path d="m346.6 383.94c1.38 4.92 2.52 9.21 2.8 10.94.42-2.38 1.82-6.74 3.08-10.94h4l-5.13 14.5h-4.2l-4.93-14.5z"/><path d="m361.81 392.06c0 1.82.92 3.58 2.91 3.58a2.32 2.32 0 0 0 2.55-1.54h4c-.5 1.76-2.1 4.68-6.63 4.68-4.79 0-6.86-3.56-6.86-7.37 0-4.56 2.32-7.81 7-7.81 5 0 6.66 3.61 6.66 7.22a8 8 0 0 1 -.06 1.24zm5.6-2.47c0-1.68-.7-3.11-2.66-3.11s-2.69 1.32-2.86 3.11z"/><path d="m374.3 387.88c0-1.45 0-2.71 0-3.94h4c0 .33.11 1.76.11 2.54a4.67 4.67 0 0 1 4.59-2.88v3.84c-2.92-.09-4.65.7-4.65 4.67v6.33h-4z"/><path d="m385.75 383.94h2.25v-3.94h4v3.92h2.86v3h-2.86v7.17c0 1.09.34 1.51 1.54 1.51h.9v2.75a8.71 8.71 0 0 1 -2.69.28c-2.83 0-3.75-1.52-3.75-4.06v-7.57h-2.24z"/><path d="m398.57 381.58v-3.58h4v3.58zm0 2.36h4v14.5h-4z"/><path d="m409.3 394.07a2.5 2.5 0 0 0 2.74 1.82c1.48 0 2-.53 2-1.43s-.62-1.28-2.69-1.79c-4.73-1.17-5.49-2.63-5.49-4.67s1.48-4.4 5.85-4.4 5.91 2.41 6 4.37h-3.81c-.14-.53-.5-1.54-2.38-1.54-1.31 0-1.76.59-1.76 1.23s.45 1.06 2.8 1.62c4.84 1.12 5.54 2.78 5.54 4.9 0 2.41-1.84 4.6-6.24 4.6s-6.22-2.13-6.55-4.71z"/><path d="m421.48 381.58v-3.58h4v3.58zm0 2.36h4v14.5h-4z"/><path d="m429.82 387.6c0-1.23 0-2.57 0-3.66h3.89a17.69 17.69 0 0 1 .17 1.84 4.42 4.42 0 0 1 4.2-2.18c2.91 0 4.79 2 4.79 5.63v9.21h-4v-8.76c0-1.66-.54-2.83-2.33-2.83s-2.66.95-2.66 3.53v8.06h-4z"/><path d="m459.72 396.68c0 4.64-1.71 7.58-7.19 7.58-5.29 0-6.33-2.94-6.47-4.59h4.09a2.29 2.29 0 0 0 2.55 1.68c2.6 0 3.1-1.59 3.1-4.42v-.7a4.28 4.28 0 0 1 -4.09 2c-3.8 0-6-3.13-6-7 0-4.53 2.72-7.64 6.33-7.64 2.49 0 3.53 1.18 3.75 1.85 0-.39.14-1.26.17-1.51h3.78v4.17zm-6.86-1.68c2.41 0 3.06-1.65 3.06-4.08s-.42-4.12-3-4.12c-1.74 0-3.11 1.34-3.11 4.26.03 2.51 1.29 3.94 3.05 3.94z"/><path d="m484.05 394.69a33 33 0 0 0 .2 3.75h-3.83a5.31 5.31 0 0 1 -.2-1.43c-.53.81-1.51 1.77-4.09 1.77-3.5 0-5-2.3-5-4.54 0-3.3 2.64-4.84 6.89-4.84h2.07v-.87c0-1-.36-2-2.24-2-1.68 0-2.07.7-2.24 1.77h-3.8c.19-2.58 1.79-4.65 6.21-4.65 3.87 0 6 1.54 6 5zm-3.92-2.86h-1.62c-2.44 0-3.33.76-3.33 2.16a1.87 1.87 0 0 0 2.1 1.93c2.55 0 2.85-1.79 2.85-3.7z"/><path d="m487.83 387.6c0-1.23 0-2.57 0-3.66h3.89c.08.39.14 1.4.17 1.84a4.41 4.41 0 0 1 4.2-2.18c2.91 0 4.78 2 4.78 5.63v9.21h-4v-8.76c0-1.66-.53-2.83-2.32-2.83s-2.66.95-2.66 3.53v8.06h-4z"/><path d="m517.85 378v16.46 4h-3.85c-.08-.45-.17-1.18-.19-1.51-.7 1.15-2 1.85-4.12 1.85-3.67 0-6-2.94-6-7.48s2.46-7.7 6.58-7.7c2.1 0 3.22.76 3.53 1.4v-7zm-6.92 17.56c2.75 0 3.08-2.3 3.08-4.37 0-2.49-.36-4.37-3-4.37-2.1 0-3.17 1.65-3.17 4.4s1.16 4.34 3.09 4.34z"/><path d="m1.4 441h4v7.48c.59-.93 1.79-1.88 4.15-1.88 3.94 0 5.9 3.28 5.9 7.34s-2.12 7.84-6.3 7.84c-2.15 0-3.1-.65-3.8-1.71a6.83 6.83 0 0 1 -.17 1.37h-3.81c0-1.57 0-3.16 0-4.73zm6.94 8.82c-2.29 0-3.1 1.48-3.1 4.45 0 2.44.72 4.31 3 4.31 2 0 3.13-1.82 3.13-4.56.05-2.44-.87-4.2-3.03-4.2z"/><path d="m17.81 450.88c0-1.45 0-2.71 0-3.94h3.95c.05.33.11 1.76.11 2.54a4.67 4.67 0 0 1 4.65-2.88v3.84c-2.91-.09-4.65.7-4.65 4.67v6.33h-4z"/><path d="m41 457.69a30.73 30.73 0 0 0 .2 3.75h-3.82a5.74 5.74 0 0 1 -.2-1.43c-.53.81-1.51 1.77-4.08 1.77-3.5 0-5-2.3-5-4.54 0-3.3 2.63-4.84 6.89-4.84h2.11v-.87c0-1-.36-2-2.24-2-1.68 0-2.07.7-2.24 1.77h-3.81c.2-2.58 1.79-4.65 6.22-4.65 3.86 0 6 1.54 6 5zm-3.92-2.86h-1.6c-2.44 0-3.34.76-3.34 2.16a1.88 1.88 0 0 0 2.1 1.93c2.55 0 2.86-1.79 2.86-3.7z"/><path d="m44.24 450.6c0-1.23 0-2.57 0-3.66h3.86a17.69 17.69 0 0 1 .17 1.84 4.42 4.42 0 0 1 4.2-2.18c2.91 0 4.79 2 4.79 5.63v9.21h-4v-8.76c0-1.66-.54-2.83-2.33-2.83s-2.66.95-2.66 3.53v8.06h-4z"/><path d="m73.69 441v16.46 4h-3.8c-.09-.45-.17-1.18-.2-1.51-.7 1.15-2 1.85-4.11 1.85-3.67 0-6-2.94-6-7.48s2.47-7.7 6.58-7.7c2.1 0 3.22.76 3.53 1.4v-7zm-6.91 17.56c2.74 0 3.08-2.3 3.08-4.37 0-2.49-.36-4.37-3-4.37-2.1 0-3.16 1.65-3.16 4.4s1.09 4.34 3.08 4.34z"/><path d="m97.05 441v16.46 4h-3.81c-.08-.45-.17-1.18-.2-1.51-.7 1.15-2 1.85-4.11 1.85-3.67 0-6-2.94-6-7.48s2.46-7.7 6.58-7.7c2.1 0 3.21.76 3.52 1.4v-7zm-6.92 17.56c2.75 0 3.08-2.3 3.08-4.37 0-2.49-.36-4.37-3-4.37-2.09 0-3.16 1.65-3.16 4.4s1.09 4.34 3.08 4.34z"/><path d="m103.94 455.06c0 1.82.92 3.58 2.91 3.58a2.32 2.32 0 0 0 2.55-1.54h4c-.5 1.76-2.1 4.68-6.64 4.68-4.78 0-6.86-3.56-6.86-7.37 0-4.56 2.33-7.81 7-7.81 5 0 6.67 3.61 6.67 7.22a8 8 0 0 1 -.06 1.24zm5.6-2.47c0-1.68-.71-3.11-2.66-3.11s-2.69 1.32-2.86 3.11z"/><path d="m119.39 457.07a2.51 2.51 0 0 0 2.74 1.82c1.49 0 2-.53 2-1.43s-.62-1.28-2.69-1.79c-4.71-1.17-5.44-2.67-5.44-4.67s1.49-4.4 5.86-4.4 5.9 2.41 6 4.37h-3.86c-.14-.53-.51-1.54-2.38-1.54-1.32 0-1.76.59-1.76 1.23s.44 1.06 2.79 1.62c4.85 1.12 5.55 2.78 5.55 4.9 0 2.41-1.85 4.6-6.25 4.6s-6.21-2.13-6.55-4.71z"/><path d="m131 444.58v-3.58h4v3.58zm0 2.36h4v14.5h-4z"/><path d="m152 459.68c0 4.64-1.7 7.58-7.19 7.58-5.29 0-6.33-2.94-6.47-4.59h4.09a2.29 2.29 0 0 0 2.55 1.68c2.6 0 3.1-1.59 3.1-4.42v-.7a4.27 4.27 0 0 1 -4.08 2c-3.81 0-6-3.13-6-7 0-4.53 2.72-7.64 6.33-7.64 2.49 0 3.53 1.18 3.75 1.85 0-.39.14-1.26.17-1.51h3.75v4.17zm-6.91-1.68c2.41 0 3.06-1.65 3.06-4.08s-.42-4.12-3-4.12c-1.74 0-3.11 1.34-3.11 4.26.03 2.51 1.29 3.94 3.05 3.94z"/><path d="m155.12 450.6c0-1.23 0-2.57 0-3.66h3.88a17.69 17.69 0 0 1 .17 1.84 4.42 4.42 0 0 1 4.2-2.18c2.91 0 4.79 2 4.79 5.63v9.21h-4v-8.76c0-1.66-.53-2.83-2.32-2.83s-2.66.95-2.66 3.53v8.06h-4z"/><path d="m171.33 464.69a23.8 23.8 0 0 0 2.07-8.18h4.12a16.15 16.15 0 0 1 -3.08 8.18z"/><path d="m186.2 446.94h2.24v-3.94h4v3.92h2.86v3h-2.86v7.17c0 1.09.34 1.51 1.54 1.51h.9v2.75a8.74 8.74 0 0 1 -2.69.28c-2.83 0-3.75-1.52-3.75-4.06v-7.57h-2.24z"/><path d="m211.4 454.16c0 4.4-2.64 7.62-7.23 7.62s-7.11-3.22-7.11-7.54c0-4.48 2.72-7.64 7.31-7.64 4.25 0 7.03 3.02 7.03 7.56zm-10.28 0c0 2.8 1.2 4.45 3.14 4.45s3.08-1.65 3.08-4.42c0-3-1.12-4.46-3.14-4.46-1.85.03-3.08 1.41-3.08 4.46z"/><path d="m232.06 456.76c-.48 2.41-2.18 5-6.5 5-4.5 0-6.83-3.11-6.83-7.48s2.61-7.7 7-7.7c4.87 0 6.24 3.53 6.3 5.15h-3.89a2.27 2.27 0 0 0 -2.49-2c-1.85 0-2.89 1.6-2.89 4.4 0 3.11 1.12 4.51 2.86 4.51a2.46 2.46 0 0 0 2.49-1.91z"/><path d="m248.24 454.16c0 4.4-2.63 7.62-7.22 7.62s-7.11-3.22-7.11-7.54c0-4.48 2.71-7.64 7.31-7.64 4.25 0 7.02 3.02 7.02 7.56zm-10.27 0c0 2.8 1.2 4.45 3.13 4.45s3.08-1.65 3.08-4.42c0-3-1.12-4.46-3.13-4.46-1.85.03-3.05 1.41-3.05 4.46z"/><path d="m250.6 450.6c0-1.23 0-2.57 0-3.66h3.89c.08.39.14 1.4.17 1.84a4.41 4.41 0 0 1 4.2-2.18c2.91 0 4.79 2 4.79 5.63v9.21h-4v-8.76c0-1.66-.53-2.83-2.32-2.83s-2.66.95-2.66 3.53v8.06h-4z"/><path d="m265.91 446.94h2.24v-3.94h4v3.92h2.85v3h-2.85v7.17c0 1.09.33 1.51 1.54 1.51h.89v2.75a8.68 8.68 0 0 1 -2.69.28c-2.82 0-3.75-1.52-3.75-4.06v-7.57h-2.24z"/><path d="m280.81 455.06c0 1.82.92 3.58 2.91 3.58a2.32 2.32 0 0 0 2.55-1.54h4c-.5 1.76-2.1 4.68-6.64 4.68-4.78 0-6.85-3.56-6.85-7.37 0-4.56 2.32-7.81 7-7.81 5 0 6.66 3.61 6.66 7.22a8 8 0 0 1 -.06 1.24zm5.6-2.47c0-1.68-.7-3.11-2.66-3.11s-2.69 1.32-2.86 3.11z"/><path d="m292.76 450.6c0-1.23 0-2.57 0-3.66h3.89a17.74 17.74 0 0 1 .16 1.84 4.44 4.44 0 0 1 4.19-2.18c2.91 0 4.78 2 4.78 5.63v9.21h-4v-8.76c0-1.66-.53-2.83-2.32-2.83s-2.67.95-2.67 3.53v8.06h-4z"/><path d="m308.08 446.94h2.24v-3.94h4v3.92h2.86v3h-2.86v7.17c0 1.09.34 1.51 1.54 1.51h.9v2.75a8.71 8.71 0 0 1 -2.69.28c-2.83 0-3.75-1.52-3.75-4.06v-7.57h-2.24z"/><path d="m328.94 467v-16.56c0-1.18 0-2.33 0-3.5h3.89a15.53 15.53 0 0 1 .14 1.82 4.56 4.56 0 0 1 4.2-2.16c3.28 0 5.77 2.74 5.77 7.22 0 5.13-2.8 8-6.3 8a4.06 4.06 0 0 1 -3.67-1.63v6.81zm6.91-17.16c-2.26 0-3.08 1.48-3.08 4.4 0 2.77.76 4.36 2.92 4.36s3.16-1.65 3.16-4.59c0-2.68-1.06-4.19-3-4.19z"/><path d="m345.82 450.88c0-1.45 0-2.71 0-3.94h3.95c.06.33.12 1.76.12 2.54a4.66 4.66 0 0 1 4.64-2.88v3.84c-2.91-.09-4.64.7-4.64 4.67v6.33h-4z"/><path d="m370.49 454.16c0 4.4-2.63 7.62-7.22 7.62s-7.11-3.22-7.11-7.54c0-4.48 2.71-7.64 7.3-7.64 4.26 0 7.03 3.02 7.03 7.56zm-10.28 0c0 2.8 1.21 4.45 3.14 4.45s3.08-1.65 3.08-4.42c0-3-1.12-4.46-3.14-4.46-1.84.03-3.08 1.41-3.08 4.46z"/><path d="m386.67 441v16.46 4h-3.83c-.09-.45-.17-1.18-.2-1.51-.7 1.15-2 1.85-4.12 1.85-3.66 0-6-2.94-6-7.48s2.47-7.7 6.58-7.7c2.1 0 3.22.76 3.53 1.4v-7zm-6.91 17.56c2.74 0 3.08-2.3 3.08-4.37 0-2.49-.37-4.37-3-4.37-2.1 0-3.16 1.65-3.16 4.4s1.09 4.34 3.08 4.34z"/><path d="m402.58 457.24v4.2h-3.92c-.06-.39-.09-1.18-.12-1.68a4.12 4.12 0 0 1 -4 2c-2.94 0-4.82-1.8-4.82-5.38v-9.46h4v8.65c0 1.59.5 2.91 2.24 2.91s2.57-1 2.57-3.84v-7.72h4z"/><path d="m418.87 456.76c-.47 2.41-2.18 5-6.49 5-4.51 0-6.83-3.11-6.83-7.48s2.6-7.7 7-7.7c4.88 0 6.25 3.53 6.3 5.15h-3.85a2.27 2.27 0 0 0 -2.49-2c-1.85 0-2.88 1.6-2.88 4.4 0 3.11 1.12 4.51 2.85 4.51a2.46 2.46 0 0 0 2.49-1.91z"/><path d="m420.16 446.94h2.24v-3.94h4v3.92h2.85v3h-2.85v7.17c0 1.09.33 1.51 1.54 1.51h.89v2.75a8.68 8.68 0 0 1 -2.69.28c-2.82 0-3.75-1.52-3.75-4.06v-7.57h-2.24z"/><path d="m433 444.58v-3.58h4v3.58zm0 2.36h4v14.5h-4z"/><path d="m454.8 454.16c0 4.4-2.63 7.62-7.23 7.62s-7.11-3.22-7.11-7.54c0-4.48 2.72-7.64 7.31-7.64 4.23 0 7.03 3.02 7.03 7.56zm-10.28 0c0 2.8 1.2 4.45 3.14 4.45s3.08-1.65 3.08-4.42c0-3-1.12-4.46-3.14-4.46-1.85.03-3.08 1.41-3.08 4.46z"/><path d="m457.71 450.6c0-1.23 0-2.57 0-3.66h3.89a17.69 17.69 0 0 1 .17 1.84 4.42 4.42 0 0 1 4.2-2.18c2.91 0 4.79 2 4.79 5.63v9.21h-4v-8.76c0-1.66-.53-2.83-2.32-2.83s-2.66.95-2.66 3.53v8.06h-4z"/><path d="m477.39 457.07a2.51 2.51 0 0 0 2.75 1.82c1.48 0 2-.53 2-1.43s-.61-1.28-2.69-1.79c-4.72-1.17-5.45-2.67-5.45-4.67s1.48-4.4 5.85-4.4 5.91 2.41 6 4.37h-3.85c-.14-.53-.5-1.54-2.38-1.54-1.32 0-1.76.59-1.76 1.23s.44 1.06 2.8 1.62c4.84 1.12 5.54 2.78 5.54 4.9 0 2.41-1.85 4.6-6.24 4.6s-6.22-2.13-6.56-4.71z"/><path d="m4.37 520.07a2.51 2.51 0 0 0 2.74 1.82c1.49 0 2-.53 2-1.43s-.62-1.28-2.69-1.79c-4.71-1.17-5.42-2.67-5.42-4.67s1.49-4.4 5.85-4.4 5.91 2.41 6 4.37h-3.85c-.14-.53-.51-1.54-2.38-1.54-1.32 0-1.77.59-1.77 1.23s.45 1.06 2.8 1.62c4.85 1.12 5.55 2.78 5.55 4.9 0 2.41-1.85 4.6-6.25 4.6s-6.19-2.13-6.53-4.71z"/><path d="m28.2 520.24v4.2h-3.9c-.05-.39-.08-1.18-.11-1.68a4.14 4.14 0 0 1 -4 2c-2.94 0-4.82-1.8-4.82-5.38v-9.46h4v8.65c0 1.59.5 2.91 2.24 2.91s2.57-1 2.57-3.84v-7.72h4z"/><path d="m43.93 519.76c-.47 2.41-2.18 5-6.49 5-4.51 0-6.84-3.11-6.84-7.48s2.61-7.7 7-7.7c4.87 0 6.25 3.53 6.3 5.15h-3.9a2.27 2.27 0 0 0 -2.49-2c-1.85 0-2.89 1.6-2.89 4.4 0 3.11 1.12 4.51 2.86 4.51a2.46 2.46 0 0 0 2.52-1.88z"/><path d="m50.65 504v7.67a4.58 4.58 0 0 1 4.14-2.07c2.69 0 4.85 1.62 4.85 5.54v9.3h-4v-8.71c0-1.87-.67-2.88-2.35-2.88-2.24 0-2.66 1.68-2.66 3.89v7.7h-4v-20.44z"/><path d="m80.67 520.69a33.66 33.66 0 0 0 .19 3.75h-3.86a5.74 5.74 0 0 1 -.2-1.43c-.53.81-1.51 1.77-4.09 1.77-3.5 0-4.95-2.3-4.95-4.54 0-3.3 2.63-4.84 6.88-4.84h2.08v-.87c0-1-.37-2-2.24-2-1.68 0-2.07.7-2.24 1.77h-3.78c.19-2.58 1.79-4.65 6.21-4.65 3.87 0 6 1.54 6 5zm-3.92-2.86h-1.63c-2.43 0-3.33.76-3.33 2.16a1.88 1.88 0 0 0 2.1 1.93c2.55 0 2.86-1.79 2.86-3.7z"/><path d="m86.83 520.07a2.5 2.5 0 0 0 2.74 1.82c1.48 0 2-.53 2-1.43s-.62-1.28-2.69-1.79c-4.73-1.17-5.49-2.63-5.49-4.67s1.49-4.4 5.85-4.4 5.91 2.41 6 4.37h-3.77c-.14-.53-.5-1.54-2.38-1.54-1.31 0-1.76.59-1.76 1.23s.45 1.06 2.8 1.62c4.84 1.12 5.54 2.78 5.54 4.9 0 2.41-1.84 4.6-6.24 4.6s-6.22-2.13-6.55-4.71z"/><path d="m108.05 508.56h-5.88v-3.41h15.9v3.41h-5.85v15.88h-4.17z"/><path d="m125.33 524.44-6.81-19.29h4.48l2.86 8.9c.89 2.69 1.54 5 2 7h.05a70.4 70.4 0 0 1 2.07-6.91l3-9h4.25l-7 19.29z"/><path d="m146.47 520.07a2.5 2.5 0 0 0 2.74 1.82c1.48 0 2-.53 2-1.43s-.62-1.28-2.69-1.79c-4.73-1.17-5.49-2.63-5.49-4.67s1.48-4.4 5.85-4.4 5.91 2.41 6 4.37h-3.81c-.14-.53-.5-1.54-2.38-1.54-1.31 0-1.76.59-1.76 1.23s.45 1.06 2.8 1.62c4.84 1.12 5.54 2.78 5.54 4.9 0 2.41-1.84 4.6-6.24 4.6s-6.22-2.13-6.55-4.71z"/><path d="m162.12 504v7.67a4.56 4.56 0 0 1 4.14-2.07c2.69 0 4.85 1.62 4.85 5.54v9.3h-4v-8.71c0-1.87-.67-2.88-2.35-2.88-2.24 0-2.66 1.68-2.66 3.89v7.7h-4v-20.44z"/><path d="m187.79 517.16c0 4.4-2.63 7.62-7.22 7.62s-7.11-3.22-7.11-7.54c0-4.48 2.71-7.64 7.31-7.64 4.23 0 7.02 3.02 7.02 7.56zm-10.27 0c0 2.8 1.2 4.45 3.13 4.45s3.08-1.65 3.08-4.42c0-3-1.12-4.46-3.13-4.46-1.85.03-3.08 1.41-3.08 4.46z"/><path d="m193.59 509.94c1.32 5.82 2 9.12 2.3 10.94h.05c.31-1.62.73-3.89 2.49-10.94h3.73c1.62 7.14 2.13 9.24 2.32 10.78.31-1.49.76-3.64 2.44-10.78h4l-4.31 14.5h-4.28c-1.21-5.49-1.88-8.4-2.22-10.3-.22 1.82-1 5.09-2.29 10.3h-4.31l-4.12-14.5z"/><path d="m216.3 520.07a2.5 2.5 0 0 0 2.74 1.82c1.48 0 2-.53 2-1.43s-.62-1.28-2.69-1.79c-4.73-1.17-5.49-2.63-5.49-4.67s1.49-4.4 5.85-4.4 5.91 2.41 6 4.37h-3.71c-.14-.53-.51-1.54-2.39-1.54-1.31 0-1.76.59-1.76 1.23s.45 1.06 2.8 1.62c4.84 1.12 5.55 2.78 5.55 4.9 0 2.41-1.85 4.6-6.25 4.6s-6.21-2.13-6.55-4.71z"/><path d="m226.29 527.69a23.57 23.57 0 0 0 2.07-8.18h4.12a16.15 16.15 0 0 1 -3.08 8.18z"/><path d="m241.44 530v-16.56c0-1.18 0-2.33 0-3.5h3.89a15.53 15.53 0 0 1 .14 1.82 4.56 4.56 0 0 1 4.2-2.16c3.28 0 5.77 2.74 5.77 7.22 0 5.13-2.8 8-6.3 8a4.06 4.06 0 0 1 -3.67-1.63v6.81zm6.92-17.16c-2.27 0-3.08 1.48-3.08 4.4 0 2.77.75 4.36 2.91 4.36s3.16-1.65 3.16-4.59c0-2.68-1.06-4.19-2.99-4.19z"/><path d="m258.32 513.88c0-1.45 0-2.71 0-3.94h3.95c.06.33.12 1.76.12 2.54a4.66 4.66 0 0 1 4.61-2.88v3.84c-2.91-.09-4.64.7-4.64 4.67v6.33h-4z"/><path d="m283 517.16c0 4.4-2.63 7.62-7.22 7.62s-7.11-3.22-7.11-7.54c0-4.48 2.71-7.64 7.3-7.64 4.25 0 7.03 3.02 7.03 7.56zm-10.27 0c0 2.8 1.2 4.45 3.13 4.45s3.08-1.65 3.08-4.42c0-3-1.12-4.46-3.13-4.46-1.81.03-3.09 1.41-3.09 4.46z"/><path d="m299.17 504v16.46 4h-3.83c-.09-.45-.17-1.18-.2-1.51-.7 1.15-2 1.85-4.12 1.85-3.66 0-6-2.94-6-7.48s2.47-7.7 6.58-7.7c2.1 0 3.22.76 3.53 1.4v-7zm-6.91 17.56c2.74 0 3.08-2.3 3.08-4.37 0-2.49-.37-4.37-3-4.37-2.1 0-3.16 1.65-3.16 4.4s1.09 4.34 3.08 4.34z"/><path d="m315.08 520.24v4.2h-3.92c-.06-.39-.09-1.18-.12-1.68a4.12 4.12 0 0 1 -4 2c-2.94 0-4.82-1.8-4.82-5.38v-9.46h4v8.65c0 1.59.5 2.91 2.24 2.91s2.57-1 2.57-3.84v-7.72h4z"/><path d="m331.37 519.76c-.47 2.41-2.18 5-6.49 5-4.51 0-6.83-3.11-6.83-7.48s2.6-7.7 7-7.7c4.88 0 6.25 3.53 6.3 5.15h-3.89a2.27 2.27 0 0 0 -2.49-2c-1.85 0-2.88 1.6-2.88 4.4 0 3.11 1.12 4.51 2.85 4.51a2.46 2.46 0 0 0 2.49-1.91z"/><path d="m332.66 509.94h2.24v-3.94h4v3.92h2.85v3h-2.85v7.17c0 1.09.33 1.51 1.54 1.51h.89v2.75a8.68 8.68 0 0 1 -2.69.28c-2.82 0-3.75-1.52-3.75-4.06v-7.57h-2.24z"/><path d="m347.33 520.07a2.51 2.51 0 0 0 2.75 1.82c1.48 0 2-.53 2-1.43s-.61-1.28-2.68-1.79c-4.74-1.17-5.49-2.63-5.49-4.67s1.48-4.4 5.85-4.4 5.91 2.41 6 4.37h-3.76c-.14-.53-.5-1.54-2.38-1.54-1.31 0-1.76.59-1.76 1.23s.45 1.06 2.8 1.62c4.84 1.12 5.54 2.78 5.54 4.9 0 2.41-1.85 4.6-6.24 4.6s-6.22-2.13-6.55-4.71z"/><path d="m357.33 527.69a23.57 23.57 0 0 0 2.07-8.18h4.12a16.15 16.15 0 0 1 -3.08 8.18z"/><path d="m384 520.69a33.66 33.66 0 0 0 .19 3.75h-3.83a5.74 5.74 0 0 1 -.2-1.43c-.53.81-1.51 1.77-4.09 1.77-3.5 0-4.95-2.3-4.95-4.54 0-3.3 2.63-4.84 6.89-4.84h1.99v-.87c0-1-.37-2-2.24-2-1.68 0-2.07.7-2.24 1.77h-3.81c.2-2.58 1.79-4.65 6.22-4.65 3.86 0 6 1.54 6 5zm-4-2.86h-1.63c-2.43 0-3.33.76-3.33 2.16a1.88 1.88 0 0 0 2.1 1.93c2.55 0 2.86-1.79 2.86-3.7z"/><path d="m387.18 513.6c0-1.23 0-2.57 0-3.66h3.82c.08.39.14 1.4.17 1.84a4.42 4.42 0 0 1 4.2-2.18c2.91 0 4.79 2 4.79 5.63v9.21h-4v-8.76c0-1.66-.53-2.83-2.32-2.83s-2.66.95-2.66 3.53v8.06h-4z"/><path d="m416.63 504v16.46 4h-3.83c-.09-.45-.17-1.18-.2-1.51-.7 1.15-2 1.85-4.12 1.85-3.67 0-6-2.94-6-7.48s2.47-7.7 6.58-7.7c2.1 0 3.22.76 3.53 1.4v-7zm-6.91 17.56c2.74 0 3.08-2.3 3.08-4.37 0-2.49-.37-4.37-3-4.37-2.1 0-3.16 1.65-3.16 4.4s1.09 4.34 3.08 4.34z"/><path d="m429.65 520.07a2.51 2.51 0 0 0 2.75 1.82c1.48 0 2-.53 2-1.43s-.61-1.28-2.69-1.79c-4.73-1.17-5.48-2.63-5.48-4.67s1.48-4.4 5.85-4.4 5.91 2.41 6 4.37h-3.78c-.14-.53-.5-1.54-2.38-1.54-1.32 0-1.76.59-1.76 1.23s.44 1.06 2.8 1.62c4.84 1.12 5.54 2.78 5.54 4.9 0 2.41-1.85 4.6-6.24 4.6s-6.22-2.13-6.56-4.71z"/><path d="m444.46 518.06c0 1.82.93 3.58 2.92 3.58a2.3 2.3 0 0 0 2.54-1.54h4c-.51 1.76-2.1 4.68-6.64 4.68-4.79 0-6.86-3.56-6.86-7.37 0-4.56 2.33-7.81 7-7.81 5 0 6.67 3.61 6.67 7.22a8 8 0 0 1 -.06 1.24zm5.6-2.47c0-1.68-.7-3.11-2.66-3.11s-2.68 1.32-2.85 3.11z"/><path d="m457 513.88c0-1.45 0-2.71 0-3.94h3.95c.06.33.11 1.76.11 2.54a4.69 4.69 0 0 1 4.65-2.88v3.84c-2.91-.09-4.65.7-4.65 4.67v6.33h-4z"/><path d="m470.84 509.94c1.37 4.92 2.52 9.21 2.8 10.94.42-2.38 1.82-6.74 3.08-10.94h4l-5.12 14.5h-4.2l-4.93-14.5z"/><path d="m482.85 507.58v-3.58h4v3.58zm0 2.36h4v14.5h-4z"/><path d="m502.59 519.76c-.47 2.41-2.18 5-6.5 5-4.5 0-6.83-3.11-6.83-7.48s2.61-7.7 7-7.7c4.87 0 6.25 3.53 6.3 5.15h-3.86a2.27 2.27 0 0 0 -2.49-2c-1.85 0-2.89 1.6-2.89 4.4 0 3.11 1.12 4.51 2.86 4.51a2.46 2.46 0 0 0 2.49-1.91z"/><path d="m508.47 518.06c0 1.82.93 3.58 2.91 3.58a2.32 2.32 0 0 0 2.55-1.54h4c-.51 1.76-2.11 4.68-6.64 4.68-4.79 0-6.86-3.56-6.86-7.37 0-4.56 2.32-7.81 7-7.81 5 0 6.66 3.61 6.66 7.22a9.56 9.56 0 0 1 -.05 1.24zm5.6-2.47c0-1.68-.7-3.11-2.66-3.11s-2.69 1.32-2.85 3.11z"/><path d="m14.7 567v16.46 4h-3.81c-.08-.45-.17-1.18-.19-1.51-.7 1.15-2 1.85-4.12 1.85-3.67 0-6-2.94-6-7.48s2.46-7.7 6.58-7.7c2.1 0 3.22.76 3.53 1.4v-7zm-6.92 17.56c2.75 0 3.08-2.3 3.08-4.37 0-2.49-.36-4.37-3-4.37-2.1 0-3.17 1.65-3.17 4.4s1.11 4.34 3.09 4.34z"/><path d="m21.59 581.06c0 1.82.92 3.58 2.91 3.58a2.32 2.32 0 0 0 2.55-1.54h4c-.5 1.76-2.1 4.68-6.63 4.68-4.79 0-6.86-3.56-6.86-7.37 0-4.56 2.32-7.81 7-7.81 5 0 6.66 3.61 6.66 7.22a8 8 0 0 1 -.06 1.24zm5.6-2.47c0-1.68-.7-3.11-2.66-3.11s-2.69 1.32-2.86 3.11z"/><path d="m36.48 583.07a2.51 2.51 0 0 0 2.75 1.82c1.48 0 2-.53 2-1.43s-.61-1.28-2.68-1.79c-4.74-1.17-5.49-2.63-5.49-4.67s1.48-4.4 5.85-4.4 5.91 2.41 6 4.37h-3.78c-.14-.53-.5-1.54-2.38-1.54-1.31 0-1.76.59-1.76 1.23s.45 1.06 2.8 1.62c4.84 1.12 5.54 2.78 5.54 4.9 0 2.41-1.85 4.6-6.24 4.6s-6.22-2.13-6.55-4.71z"/><path d="m48.1 570.58v-3.58h4v3.58zm0 2.36h4v14.5h-4z"/><path d="m69.05 585.68c0 4.64-1.71 7.58-7.2 7.58-5.29 0-6.33-2.94-6.47-4.59h4.09a2.29 2.29 0 0 0 2.53 1.68c2.6 0 3.11-1.59 3.11-4.42v-.7a4.29 4.29 0 0 1 -4.09 2c-3.81 0-6-3.13-6-7 0-4.53 2.71-7.64 6.33-7.64 2.49 0 3.52 1.18 3.75 1.85 0-.39.14-1.26.17-1.51h3.78v4.17zm-6.86-1.68c2.41 0 3-1.65 3-4.08s-.42-4.12-3-4.12c-1.73 0-3.11 1.34-3.11 4.26.08 2.51 1.34 3.94 3.11 3.94z"/><path d="m72.21 576.6c0-1.23 0-2.57 0-3.66h3.9c.08.39.13 1.4.16 1.84a4.43 4.43 0 0 1 4.2-2.18c2.91 0 4.79 2 4.79 5.63v9.21h-4v-8.76c0-1.66-.53-2.83-2.33-2.83s-2.66.95-2.66 3.53v8.06h-4z"/><path d="m91.33 583.07a2.51 2.51 0 0 0 2.75 1.82c1.48 0 2-.53 2-1.43s-.61-1.28-2.68-1.79c-4.74-1.17-5.49-2.63-5.49-4.67s1.48-4.4 5.85-4.4 5.91 2.41 6 4.37h-3.76c-.14-.53-.5-1.54-2.38-1.54-1.31 0-1.76.59-1.76 1.23s.45 1.06 2.8 1.62c4.84 1.12 5.54 2.78 5.54 4.9 0 2.41-1.85 4.6-6.24 4.6s-6.22-2.13-6.55-4.71z"/><path d="m102.53 587.44v-4.93h4.29v4.93z"/><path d="m114.74 568.15h8.43c4.68 0 6.44 2.41 6.44 4.93a4.36 4.36 0 0 1 -2.46 4.17 4.63 4.63 0 0 1 3 4.42c0 3.31-2.6 5.77-6.69 5.77h-8.74zm8 7.61c2 0 2.8-.89 2.8-2.26s-1.06-2.13-2.66-2.13h-4v4.39zm-3.86 8.46h3.78c2.27 0 3.28-1 3.28-2.69 0-1.57-1-2.55-3.31-2.55h-3.75z"/><path d="m135.94 572.94c1.48 5 2.8 9.46 3 10.8.31-1.45 1.18-4.7 2.88-10.8h4l-4.82 14.92c-1.38 4.17-2.55 5.4-6 5.4a16.47 16.47 0 0 1 -1.88-.11v-3.22c.28 0 .7.06 1 .06 1.48 0 2.21-.51 2.77-2.1l-5.29-14.95z"/><path d="m157.27 567.06a41.25 41.25 0 0 0 -1.29 8.28h-4.06a24.07 24.07 0 0 1 2.33-8.28zm6 0a34.52 34.52 0 0 0 -1.26 8.28h-4.01a22.48 22.48 0 0 1 2.33-8.28z"/><path d="m165 572.94h2.24v-3.94h4v3.92h2.85v3h-2.85v7.17c0 1.09.33 1.51 1.54 1.51h.89v2.75a8.68 8.68 0 0 1 -2.69.28c-2.82 0-3.75-1.52-3.75-4.06v-7.57h-2.23z"/><path d="m180.71 567v7.67a4.56 4.56 0 0 1 4.14-2.07c2.69 0 4.85 1.62 4.85 5.54v9.3h-4v-8.71c0-1.87-.67-2.88-2.35-2.88-2.24 0-2.66 1.68-2.66 3.89v7.7h-4v-20.44z"/><path d="m192.89 570.58v-3.58h4v3.58zm0 2.36h4v14.5h-4z"/><path d="m200.11 576.6c0-1.23 0-2.57 0-3.66h3.89a17.74 17.74 0 0 1 .16 1.84 4.43 4.43 0 0 1 4.2-2.18c2.92 0 4.79 2 4.79 5.63v9.21h-4v-8.76c0-1.66-.53-2.83-2.33-2.83s-2.66.95-2.66 3.53v8.06h-4z"/><path d="m220.86 579.07c1.06-1.46 3-3.7 5-6.13h4.6l-5 5.48 5.51 9h-4.53l-3.73-6.42-1.85 1.79v4.65h-4v-20.44h4z"/><path d="m232.56 570.58v-3.58h4v3.58zm0 2.36h4v14.5h-4z"/><path d="m240.35 576.6c0-1.23 0-2.57 0-3.66h3.89c.08.39.14 1.4.17 1.84a4.41 4.41 0 0 1 4.2-2.18c2.91 0 4.79 2 4.79 5.63v9.21h-4v-8.76c0-1.66-.53-2.83-2.32-2.83s-2.66.95-2.66 3.53v8.06h-4z"/><path d="m269.69 585.68c0 4.64-1.71 7.58-7.19 7.58-5.3 0-6.33-2.94-6.47-4.59h4.09a2.27 2.27 0 0 0 2.54 1.68c2.61 0 3.11-1.59 3.11-4.42v-.7a4.29 4.29 0 0 1 -4.09 2c-3.8 0-6-3.13-6-7 0-4.53 2.72-7.64 6.33-7.64 2.49 0 3.53 1.18 3.75 1.85 0-.39.14-1.26.17-1.51h3.78v4.17zm-6.86-1.68c2.41 0 3.05-1.65 3.05-4.08s-.42-4.12-3-4.12c-1.74 0-3.11 1.34-3.11 4.26.04 2.51 1.3 3.94 3.06 3.94z"/><path d="m290.1 583.69a30.73 30.73 0 0 0 .2 3.75h-3.84a5.75 5.75 0 0 1 -.19-1.43c-.54.81-1.52 1.77-4.09 1.77-3.5 0-5-2.3-5-4.54 0-3.3 2.63-4.84 6.89-4.84h2.07v-.87c0-1-.36-2-2.24-2-1.68 0-2.07.7-2.24 1.77h-3.81c.2-2.58 1.8-4.65 6.22-4.65 3.86 0 6 1.54 6 5zm-3.92-2.86h-1.62c-2.44 0-3.33.76-3.33 2.16a1.87 1.87 0 0 0 2.1 1.93c2.54 0 2.85-1.79 2.85-3.7z"/><path d="m293.32 576.6c0-1.23 0-2.57 0-3.66h3.89a15.33 15.33 0 0 1 .17 1.84 4.42 4.42 0 0 1 4.2-2.18c2.91 0 4.79 2 4.79 5.63v9.21h-4v-8.76c0-1.66-.54-2.83-2.33-2.83s-2.66.95-2.66 3.53v8.06h-4z"/><path d="m322.78 567v16.46 4h-3.78c-.09-.45-.17-1.18-.2-1.51-.7 1.15-2 1.85-4.11 1.85-3.67 0-6-2.94-6-7.48s2.46-7.7 6.57-7.7c2.1 0 3.22.76 3.53 1.4v-7zm-6.92 17.56c2.74 0 3.08-2.3 3.08-4.37 0-2.49-.36-4.37-3-4.37-2.1 0-3.16 1.65-3.16 4.4s1.09 4.34 3.08 4.34z"/><path d="m332.27 576.69c0-1.26 0-2.49 0-3.75h3.84c.05.36.14 1.17.16 1.73a4.58 4.58 0 0 1 4-2.07 3.81 3.81 0 0 1 3.72 2.21 5.1 5.1 0 0 1 4.48-2.21c2.52 0 4.59 1.57 4.59 5.32v9.52h-3.92v-9c0-1.31-.47-2.6-2.13-2.6s-2.35 1.12-2.35 3.33v8.29h-3.95v-8.88c0-1.48-.36-2.71-2.07-2.71s-2.41 1-2.41 3.5v8.09h-4z"/><path d="m368.28 583.69a33.66 33.66 0 0 0 .19 3.75h-3.83a5.31 5.31 0 0 1 -.2-1.43c-.53.81-1.51 1.77-4.09 1.77-3.5 0-5-2.3-5-4.54 0-3.3 2.63-4.84 6.88-4.84h2.08v-.87c0-1-.37-2-2.24-2-1.68 0-2.08.7-2.24 1.77h-3.81c.19-2.58 1.79-4.65 6.21-4.65 3.87 0 6 1.54 6 5zm-3.92-2.86h-1.63c-2.44 0-3.33.76-3.33 2.16a1.87 1.87 0 0 0 2.1 1.93c2.55 0 2.86-1.79 2.86-3.7z"/><path d="m376.06 579.07c1.06-1.46 3-3.7 5-6.13h4.6l-5 5.48 5.51 9h-4.53l-3.73-6.42-1.85 1.79v4.65h-4v-20.44h4z"/><path d="m387.76 570.58v-3.58h4v3.58zm0 2.36h4v14.5h-4z"/><path d="m395.55 576.6c0-1.23 0-2.57 0-3.66h3.89c.08.39.14 1.4.17 1.84a4.41 4.41 0 0 1 4.2-2.18c2.91 0 4.79 2 4.79 5.63v9.21h-4v-8.76c0-1.66-.53-2.83-2.32-2.83s-2.66.95-2.66 3.53v8.06h-4z"/><path d="m425.45 585.68c0 4.64-1.71 7.58-7.2 7.58-5.29 0-6.32-2.94-6.46-4.59h4.08a2.29 2.29 0 0 0 2.55 1.68c2.61 0 3.11-1.59 3.11-4.42v-.7a4.29 4.29 0 0 1 -4.09 2c-3.81 0-6-3.13-6-7 0-4.53 2.72-7.64 6.33-7.64 2.49 0 3.53 1.18 3.75 1.85 0-.39.14-1.26.17-1.51h3.78v4.17zm-6.86-1.68c2.41 0 3.05-1.65 3.05-4.08s-.42-4.12-3-4.12c-1.73 0-3.1 1.34-3.1 4.26.03 2.51 1.29 3.94 3.05 3.94z"/><path d="m428.45 575.32a33.21 33.21 0 0 0 1.28-8.32h4.06a22.59 22.59 0 0 1 -2.32 8.32zm6.07 0a40.88 40.88 0 0 0 1.26-8.32h4.06a23.74 23.74 0 0 1 -2.29 8.32z"/><path d="m457.54 583.24v4.2h-3.92c-.05-.39-.08-1.18-.11-1.68a4.14 4.14 0 0 1 -4 2c-2.94 0-4.82-1.8-4.82-5.38v-9.46h4v8.65c0 1.59.5 2.91 2.24 2.91s2.57-1 2.57-3.84v-7.72h4z"/><path d="m460.76 576.6c0-1.23 0-2.57 0-3.66h3.89c.08.39.14 1.4.17 1.84a4.41 4.41 0 0 1 4.2-2.18c2.91 0 4.79 2 4.79 5.63v9.21h-4v-8.76c0-1.66-.53-2.83-2.32-2.83s-2.66.95-2.66 3.53v8.06h-4z"/><path d="m490.77 567v16.46 4h-3.77c-.08-.45-.16-1.18-.19-1.51-.7 1.15-2 1.85-4.12 1.85-3.67 0-6-2.94-6-7.48s2.46-7.7 6.58-7.7c2.1 0 3.22.76 3.53 1.4v-7zm-6.91 17.56c2.74 0 3.08-2.3 3.08-4.37 0-2.49-.37-4.37-3-4.37-2.1 0-3.16 1.65-3.16 4.4s1.09 4.34 3.08 4.34z"/><path d="m496.54 581.06c0 1.82.92 3.58 2.91 3.58a2.32 2.32 0 0 0 2.55-1.54h4c-.5 1.76-2.1 4.68-6.63 4.68-4.79 0-6.86-3.56-6.86-7.37 0-4.56 2.32-7.81 7-7.81 4.95 0 6.66 3.61 6.66 7.22a8 8 0 0 1 -.06 1.24zm5.6-2.47c0-1.68-.7-3.11-2.66-3.11s-2.69 1.32-2.86 3.11z"/><path d="m509 576.88c0-1.45 0-2.71 0-3.94h4c0 .33.11 1.76.11 2.54a4.67 4.67 0 0 1 4.65-2.88v3.84c-2.92-.09-4.65.7-4.65 4.67v6.33h-4z"/><path d="m14.9 643.16c0 4.4-2.64 7.62-7.23 7.62s-7.11-3.22-7.11-7.54c0-4.48 2.72-7.64 7.31-7.64 4.25 0 7.03 3.02 7.03 7.56zm-10.28 0c0 2.8 1.2 4.45 3.14 4.45s3.08-1.65 3.08-4.42c0-3-1.12-4.46-3.14-4.46-1.85.03-3.08 1.41-3.08 4.46z"/><path d="m17.81 639.6c0-1.23 0-2.57 0-3.66h3.89a17.69 17.69 0 0 1 .17 1.84 4.42 4.42 0 0 1 4.13-2.18c2.91 0 4.79 2 4.79 5.63v9.21h-4v-8.76c0-1.66-.53-2.83-2.32-2.83s-2.66.95-2.66 3.53v8.06h-4z"/><path d="m38.27 644.06c0 1.82.93 3.58 2.92 3.58a2.3 2.3 0 0 0 2.54-1.54h4c-.51 1.76-2.1 4.68-6.64 4.68-4.79 0-6.86-3.56-6.86-7.37 0-4.56 2.33-7.81 7-7.81 5 0 6.67 3.61 6.67 7.22a8 8 0 0 1 -.06 1.24zm5.61-2.47c0-1.68-.71-3.11-2.67-3.11s-2.68 1.32-2.85 3.11z"/><path d="m58.8 639.88c0-1.45 0-2.71 0-3.94h3.95c.06.33.11 1.76.11 2.54a4.69 4.69 0 0 1 4.65-2.88v3.84c-2.91-.09-4.65.7-4.65 4.67v6.33h-4z"/><path d="m83.47 643.16c0 4.4-2.64 7.62-7.23 7.62s-7.11-3.22-7.11-7.54c0-4.48 2.72-7.64 7.31-7.64 4.25 0 7.03 3.02 7.03 7.56zm-10.28 0c0 2.8 1.2 4.45 3.14 4.45s3.08-1.65 3.08-4.42c0-3-1.12-4.46-3.14-4.46-1.85.03-3.08 1.41-3.08 4.46z"/><path d="m99.85 643.16c0 4.4-2.64 7.62-7.23 7.62s-7.11-3.22-7.11-7.54c0-4.48 2.72-7.64 7.31-7.64 4.25 0 7.03 3.02 7.03 7.56zm-10.28 0c0 2.8 1.2 4.45 3.14 4.45s3.08-1.65 3.08-4.42c0-3-1.12-4.46-3.14-4.46-1.85.03-3.08 1.41-3.08 4.46z"/><path d="m104.41 650.44v-11.44h-2.13v-3h2.13v-1.26c0-3 1.48-5 4.62-5a8.5 8.5 0 0 1 1.85.17v3.16a6.78 6.78 0 0 0 -.84 0c-1.18 0-1.63.42-1.63 2v1h2.52v3h-2.52v11.48z"/><path d="m113.26 653.69a24 24 0 0 0 2.07-8.18h4.12a16.24 16.24 0 0 1 -3.08 8.18z"/><path d="m137.48 635.94c1.31 5.82 2 9.12 2.29 10.94h.06c.31-1.62.73-3.89 2.49-10.94h3.73c1.62 7.14 2.12 9.24 2.32 10.78.31-1.49.75-3.64 2.43-10.78h4l-4.31 14.5h-4.29c-1.2-5.49-1.87-8.4-2.21-10.3-.22 1.82-1 5.09-2.29 10.3h-4.31l-4.12-14.5z"/><path d="m160.41 644.06c0 1.82.92 3.58 2.91 3.58a2.32 2.32 0 0 0 2.55-1.54h4c-.5 1.76-2.1 4.68-6.63 4.68-4.79 0-6.86-3.56-6.86-7.37 0-4.56 2.32-7.81 7-7.81 5 0 6.66 3.61 6.66 7.22a9.56 9.56 0 0 1 0 1.24zm5.6-2.47c0-1.68-.7-3.11-2.66-3.11s-2.69 1.32-2.86 3.11z"/><path d="m184.46 646.07a2.51 2.51 0 0 0 2.75 1.82c1.48 0 2-.53 2-1.43s-.62-1.28-2.69-1.79c-4.72-1.17-5.52-2.67-5.52-4.67s1.49-4.4 5.86-4.4 5.91 2.41 6 4.37h-3.81c-.14-.53-.51-1.54-2.38-1.54-1.32 0-1.76.59-1.76 1.23s.44 1.06 2.8 1.62c4.84 1.12 5.54 2.78 5.54 4.9 0 2.41-1.85 4.6-6.25 4.6s-6.21-2.13-6.55-4.71z"/><path d="m195.24 635.94h2.24v-3.94h4v3.92h2.86v3h-2.86v7.17c0 1.09.34 1.51 1.54 1.51h.9v2.75a8.71 8.71 0 0 1 -2.69.28c-2.82 0-3.75-1.52-3.75-4.06v-7.57h-2.24z"/><path d="m207.5 639.88c0-1.45 0-2.71 0-3.94h3.94c.06.33.12 1.76.12 2.54a4.66 4.66 0 0 1 4.64-2.88v3.84c-2.91-.09-4.64.7-4.64 4.67v6.33h-4z"/><path d="m220.36 633.58v-3.58h4v3.58zm0 2.36h4v14.5h-4z"/><path d="m232 635.94c1.37 4.92 2.52 9.21 2.8 10.94.42-2.38 1.82-6.74 3.08-10.94h4l-5.12 14.5h-4.2l-4.93-14.5z"/><path d="m247.15 644.06c0 1.82.93 3.58 2.91 3.58a2.32 2.32 0 0 0 2.55-1.54h4c-.51 1.76-2.1 4.68-6.64 4.68-4.79 0-6.86-3.56-6.86-7.37 0-4.56 2.32-7.81 7-7.81 5 0 6.66 3.61 6.66 7.22a9.56 9.56 0 0 1 0 1.24zm5.6-2.47c0-1.68-.7-3.11-2.66-3.11s-2.69 1.32-2.85 3.11z"/><path d="m268.51 635.94h2.24v-3.94h4v3.92h2.86v3h-2.86v7.17c0 1.09.33 1.51 1.54 1.51h.9v2.75a8.74 8.74 0 0 1 -2.69.28c-2.83 0-3.76-1.52-3.76-4.06v-7.57h-2.24z"/><path d="m293.71 643.16c0 4.4-2.63 7.62-7.22 7.62s-7.11-3.22-7.11-7.54c0-4.48 2.71-7.64 7.31-7.64 4.25 0 7.02 3.02 7.02 7.56zm-10.27 0c0 2.8 1.2 4.45 3.14 4.45s3.07-1.65 3.07-4.42c0-3-1.11-4.46-3.13-4.46-1.85.03-3.08 1.41-3.08 4.46z"/><path d="m317.18 645.76c-.48 2.41-2.19 5-6.5 5-4.51 0-6.83-3.11-6.83-7.48s2.6-7.7 7-7.7c4.87 0 6.24 3.53 6.3 5.15h-3.89a2.28 2.28 0 0 0 -2.5-2c-1.84 0-2.88 1.6-2.88 4.4 0 3.11 1.12 4.51 2.86 4.51a2.47 2.47 0 0 0 2.49-1.91z"/><path d="m319.87 639.88c0-1.45 0-2.71 0-3.94h4c0 .33.11 1.76.11 2.54a4.66 4.66 0 0 1 4.64-2.88v3.84c-2.91-.09-4.64.7-4.64 4.67v6.33h-4z"/><path d="m334.23 644.06c0 1.82.92 3.58 2.91 3.58a2.32 2.32 0 0 0 2.55-1.54h4c-.5 1.76-2.1 4.68-6.63 4.68-4.79 0-6.86-3.56-6.86-7.37 0-4.56 2.32-7.81 7-7.81 4.95 0 6.66 3.61 6.66 7.22a8 8 0 0 1 -.06 1.24zm5.6-2.47c0-1.68-.7-3.11-2.66-3.11s-2.69 1.32-2.86 3.11z"/><path d="m359.32 646.69a33.66 33.66 0 0 0 .19 3.75h-3.83a5.74 5.74 0 0 1 -.2-1.43c-.53.81-1.51 1.77-4.09 1.77-3.5 0-4.95-2.3-4.95-4.54 0-3.3 2.63-4.84 6.89-4.84h2.07v-.87c0-1-.37-2-2.24-2-1.68 0-2.08.7-2.24 1.77h-3.81c.2-2.58 1.79-4.65 6.22-4.65 3.86 0 6 1.54 6 5zm-3.92-2.86h-1.63c-2.43 0-3.33.76-3.33 2.16a1.87 1.87 0 0 0 2.1 1.93c2.55 0 2.86-1.79 2.86-3.7z"/><path d="m361.67 635.94h2.24v-3.94h4v3.92h2.86v3h-2.86v7.17c0 1.09.34 1.51 1.54 1.51h.9v2.75a8.71 8.71 0 0 1 -2.69.28c-2.83 0-3.75-1.52-3.75-4.06v-7.57h-2.24z"/><path d="m377.12 644.06c0 1.82.93 3.58 2.92 3.58a2.3 2.3 0 0 0 2.54-1.54h4c-.51 1.76-2.1 4.68-6.64 4.68-4.78 0-6.86-3.56-6.86-7.37 0-4.56 2.33-7.81 7-7.81 5 0 6.67 3.61 6.67 7.22a8 8 0 0 1 -.06 1.24zm5.6-2.47c0-1.68-.7-3.11-2.66-3.11s-2.68 1.32-2.85 3.11z"/><path d="m399.89 630h4v7.48c.59-.93 1.79-1.88 4.14-1.88 3.95 0 5.91 3.28 5.91 7.34s-2.13 7.84-6.3 7.84c-2.15 0-3.11-.65-3.81-1.71a6.87 6.87 0 0 1 -.16 1.37h-3.84c0-1.57 0-3.16 0-4.73zm6.94 8.82c-2.29 0-3.11 1.48-3.11 4.45 0 2.44.73 4.31 3.06 4.31 2 0 3.13-1.82 3.13-4.56 0-2.44-.91-4.2-3.08-4.2z"/><path d="m420.05 644.06c0 1.82.92 3.58 2.91 3.58a2.32 2.32 0 0 0 2.55-1.54h4c-.5 1.76-2.1 4.68-6.63 4.68-4.79 0-6.86-3.56-6.86-7.37 0-4.56 2.32-7.81 7-7.81 5 0 6.66 3.61 6.66 7.22a8 8 0 0 1 -.06 1.24zm5.6-2.47c0-1.68-.7-3.11-2.66-3.11s-2.69 1.32-2.86 3.11z"/><path d="m444.58 646.69a33.66 33.66 0 0 0 .19 3.75h-3.83a5.31 5.31 0 0 1 -.2-1.43c-.53.81-1.51 1.77-4.09 1.77-3.5 0-4.95-2.3-4.95-4.54 0-3.3 2.63-4.84 6.88-4.84h2.08v-.87c0-1-.37-2-2.24-2-1.68 0-2.08.7-2.24 1.77h-3.81c.19-2.58 1.79-4.65 6.21-4.65 3.87 0 6 1.54 6 5zm-3.92-2.86h-1.66c-2.43 0-3.33.76-3.33 2.16a1.87 1.87 0 0 0 2.1 1.93c2.55 0 2.86-1.79 2.86-3.7z"/><path d="m460.54 646.24v4.2h-3.92c-.05-.39-.08-1.18-.11-1.68a4.14 4.14 0 0 1 -4 2c-2.94 0-4.82-1.8-4.82-5.38v-9.46h4v8.65c0 1.59.5 2.91 2.24 2.91s2.57-1 2.57-3.84v-7.72h4z"/><path d="m463.45 635.94h2.24v-3.94h4v3.92h2.86v3h-2.86v7.17c0 1.09.34 1.51 1.54 1.51h.9v2.75a8.74 8.74 0 0 1 -2.69.28c-2.83 0-3.75-1.52-3.75-4.06v-7.57h-2.24z"/><path d="m476.27 633.58v-3.58h4v3.58zm0 2.36h4v14.5h-4z"/><path d="m486.27 650.44v-11.44h-2.13v-3h2.13v-1.26c0-3 1.48-5 4.62-5a8.5 8.5 0 0 1 1.85.17v3.16a7 7 0 0 0 -.85 0c-1.17 0-1.62.42-1.62 2v1h2.52v3h-2.52v11.48z"/><path d="m508.39 646.24v4.2h-3.89c-.06-.39-.09-1.18-.12-1.68a4.14 4.14 0 0 1 -4 2c-2.94 0-4.82-1.8-4.82-5.38v-9.46h4v8.65c0 1.59.5 2.91 2.24 2.91s2.57-1 2.57-3.84v-7.72h4z"/><path d="m512.7 650.44v-20.44h4v20.44z"/><path d="m4.59 707.06c0 1.82.93 3.58 2.91 3.58a2.32 2.32 0 0 0 2.55-1.54h4c-.51 1.76-2.1 4.68-6.64 4.68-4.79 0-6.86-3.56-6.86-7.37 0-4.56 2.32-7.81 7-7.81 5 0 6.66 3.61 6.66 7.22a9.56 9.56 0 0 1 -.05 1.24zm5.6-2.47c0-1.68-.7-3.11-2.66-3.11s-2.69 1.32-2.85 3.11z"/><path d="m20.22 698.94c1.51 2.74 2.12 3.8 2.54 4.56.51-.9 1.4-2.49 2.58-4.56h4.45l-4.7 6.91 4.67 7.59h-4.5c-1.29-2.46-2.1-4-2.55-4.87-.36.75-1.37 2.63-2.55 4.87h-4.42l4.5-7.06-4.48-7.44z"/><path d="m32.2 719v-16.56c0-1.18 0-2.33 0-3.5h3.89a15.53 15.53 0 0 1 .14 1.82 4.56 4.56 0 0 1 4.2-2.16c3.28 0 5.77 2.74 5.77 7.22 0 5.13-2.8 8-6.3 8a4.06 4.06 0 0 1 -3.67-1.63v6.81zm6.92-17.16c-2.27 0-3.08 1.48-3.08 4.4 0 2.77.75 4.36 2.91 4.36s3.16-1.65 3.16-4.59c0-2.68-1.06-4.19-2.99-4.19z"/><path d="m52.27 707.06c0 1.82.93 3.58 2.92 3.58a2.3 2.3 0 0 0 2.54-1.54h4c-.51 1.76-2.1 4.68-6.64 4.68-4.79 0-6.86-3.56-6.86-7.37 0-4.56 2.33-7.81 7-7.81 5 0 6.67 3.61 6.67 7.22a8 8 0 0 1 -.06 1.24zm5.61-2.47c0-1.68-.71-3.11-2.67-3.11s-2.68 1.32-2.85 3.11z"/><path d="m64.76 702.88c0-1.45 0-2.71 0-3.94h3.94c.06.33.11 1.76.11 2.54a4.69 4.69 0 0 1 4.65-2.88v3.84c-2.91-.09-4.65.7-4.65 4.67v6.33h-4z"/><path d="m77.05 696.58v-3.58h4v3.58zm0 2.36h4v14.5h-4z"/><path d="m88.56 707.06c0 1.82.93 3.58 2.91 3.58a2.32 2.32 0 0 0 2.53-1.54h4c-.51 1.76-2.1 4.68-6.64 4.68-4.79 0-6.86-3.56-6.86-7.37 0-4.56 2.32-7.81 7-7.81 5 0 6.66 3.61 6.66 7.22a9.56 9.56 0 0 1 0 1.24zm5.6-2.47c0-1.68-.7-3.11-2.66-3.11s-2.69 1.32-2.85 3.11z"/><path d="m101.64 702.6c0-1.23 0-2.57 0-3.66h3.89a17.69 17.69 0 0 1 .17 1.84 4.42 4.42 0 0 1 4.2-2.18c2.91 0 4.79 2 4.79 5.63v9.21h-4v-8.76c0-1.66-.53-2.83-2.32-2.83s-2.66.95-2.66 3.53v8.06h-4z"/><path d="m130.9 708.76c-.48 2.41-2.19 5-6.5 5-4.51 0-6.83-3.11-6.83-7.48s2.6-7.7 7-7.7c4.87 0 6.24 3.53 6.3 5.15h-3.87a2.28 2.28 0 0 0 -2.5-2c-1.84 0-2.88 1.6-2.88 4.4 0 3.11 1.12 4.51 2.86 4.51a2.47 2.47 0 0 0 2.49-1.91z"/><path d="m136.78 707.06c0 1.82.92 3.58 2.91 3.58a2.32 2.32 0 0 0 2.55-1.54h4c-.5 1.76-2.1 4.68-6.63 4.68-4.79 0-6.86-3.56-6.86-7.37 0-4.56 2.32-7.81 7-7.81 4.95 0 6.66 3.61 6.66 7.22a8 8 0 0 1 -.06 1.24zm5.6-2.47c0-1.68-.7-3.11-2.66-3.11s-2.69 1.32-2.86 3.11z"/><path d="m152.23 709.07a2.51 2.51 0 0 0 2.75 1.82c1.48 0 2-.53 2-1.43s-.61-1.28-2.68-1.79c-4.74-1.17-5.49-2.63-5.49-4.67s1.48-4.4 5.85-4.4 5.91 2.41 6 4.37h-3.81c-.14-.53-.5-1.54-2.38-1.54-1.31 0-1.76.59-1.76 1.23s.45 1.06 2.8 1.62c4.84 1.12 5.54 2.78 5.54 4.9 0 2.41-1.85 4.6-6.24 4.6s-6.22-2.13-6.55-4.71z"/><path d="m171.05 698.94h2.24v-3.94h4v3.92h2.86v3h-2.86v7.17c0 1.09.34 1.51 1.54 1.51h.9v2.75a8.71 8.71 0 0 1 -2.69.28c-2.83 0-3.75-1.52-3.75-4.06v-7.57h-2.24z"/><path d="m187.34 693v7.67a4.6 4.6 0 0 1 4.15-2.07c2.69 0 4.84 1.62 4.84 5.54v9.3h-4v-8.71c0-1.87-.67-2.88-2.36-2.88-2.23 0-2.66 1.68-2.66 3.89v7.7h-4v-20.44z"/><path d="m212.12 709.69a33 33 0 0 0 .2 3.75h-3.84a5.75 5.75 0 0 1 -.19-1.43c-.53.81-1.51 1.77-4.09 1.77-3.5 0-4.95-2.3-4.95-4.54 0-3.3 2.63-4.84 6.88-4.84h2.08v-.87c0-1-.37-2-2.25-2-1.67 0-2.07.7-2.23 1.77h-3.81c.19-2.58 1.79-4.65 6.21-4.65 3.87 0 6 1.54 6 5zm-3.91-2.86h-1.63c-2.43 0-3.33.76-3.33 2.16a1.87 1.87 0 0 0 2.1 1.93c2.55 0 2.86-1.79 2.86-3.7z"/><path d="m214.48 698.94h2.24v-3.94h4v3.92h2.86v3h-2.86v7.17c0 1.09.34 1.51 1.54 1.51h.9v2.75a8.74 8.74 0 0 1 -2.69.28c-2.83 0-3.75-1.52-3.75-4.06v-7.57h-2.24z"/><path d="m247.32 708.76c-.48 2.41-2.18 5-6.5 5-4.5 0-6.83-3.11-6.83-7.48s2.61-7.7 7-7.7c4.87 0 6.24 3.53 6.3 5.15h-3.89a2.27 2.27 0 0 0 -2.49-2c-1.85 0-2.89 1.6-2.89 4.4 0 3.11 1.12 4.51 2.86 4.51a2.46 2.46 0 0 0 2.49-1.91z"/><path d="m262.05 709.69a33.66 33.66 0 0 0 .19 3.75h-3.83a5.74 5.74 0 0 1 -.2-1.43c-.53.81-1.51 1.77-4.09 1.77-3.5 0-5-2.3-5-4.54 0-3.3 2.63-4.84 6.89-4.84h2.07v-.87c0-1-.37-2-2.24-2-1.68 0-2.07.7-2.24 1.77h-3.81c.2-2.58 1.79-4.65 6.22-4.65 3.86 0 6 1.54 6 5zm-3.92-2.86h-1.63c-2.43 0-3.33.76-3.33 2.16a1.88 1.88 0 0 0 2.1 1.93c2.55 0 2.86-1.79 2.86-3.7z"/><path d="m265.83 702.6c0-1.23 0-2.57 0-3.66h3.89a17.69 17.69 0 0 1 .17 1.84 4.42 4.42 0 0 1 4.2-2.18c2.91 0 4.79 2 4.79 5.63v9.21h-4v-8.76c0-1.66-.53-2.83-2.32-2.83s-2.66.95-2.66 3.53v8.06h-4z"/><path d="m291.14 693h4v7.48c.59-.93 1.79-1.88 4.14-1.88 3.95 0 5.91 3.28 5.91 7.34s-2.13 7.84-6.3 7.84c-2.15 0-3.11-.65-3.81-1.71a6.87 6.87 0 0 1 -.16 1.37h-3.84c0-1.57 0-3.16 0-4.73zm6.94 8.82c-2.29 0-3.11 1.48-3.11 4.45 0 2.44.73 4.31 3.06 4.31 2 0 3.13-1.82 3.13-4.56 0-2.44-.92-4.2-3.08-4.2z"/><path d="m311.3 707.06c0 1.82.92 3.58 2.91 3.58a2.32 2.32 0 0 0 2.55-1.54h4c-.5 1.76-2.1 4.68-6.63 4.68-4.79 0-6.86-3.56-6.86-7.37 0-4.56 2.32-7.81 7-7.81 5 0 6.66 3.61 6.66 7.22a8 8 0 0 1 -.06 1.24zm5.6-2.47c0-1.68-.7-3.11-2.66-3.11s-2.69 1.32-2.86 3.11z"/><path d="m330.42 698.94h2.24v-3.94h4v3.92h2.85v3h-2.85v7.17c0 1.09.33 1.51 1.54 1.51h.89v2.75a8.68 8.68 0 0 1 -2.69.28c-2.82 0-3.75-1.52-3.75-4.06v-7.57h-2.24z"/><path d="m354.73 709.69a33.66 33.66 0 0 0 .19 3.75h-3.83a5.31 5.31 0 0 1 -.2-1.43c-.53.81-1.51 1.77-4.09 1.77-3.5 0-4.95-2.3-4.95-4.54 0-3.3 2.63-4.84 6.88-4.84h2.08v-.87c0-1-.37-2-2.24-2-1.68 0-2.08.7-2.24 1.77h-3.81c.19-2.58 1.79-4.65 6.21-4.65 3.87 0 6 1.54 6 5zm-3.92-2.86h-1.63c-2.43 0-3.33.76-3.33 2.16a1.87 1.87 0 0 0 2.1 1.93c2.55 0 2.86-1.79 2.86-3.7z"/><path d="m358.48 713.44v-20.44h4v20.44z"/><path d="m370.26 705.07c1.07-1.46 3-3.7 5-6.13h4.59l-5 5.48 5.52 9h-4.54l-3.72-6.42-1.85 1.79v4.65h-4v-20.44h4z"/><path d="m385.16 707.06c0 1.82.92 3.58 2.91 3.58a2.32 2.32 0 0 0 2.55-1.54h4c-.5 1.76-2.1 4.68-6.63 4.68-4.79 0-6.86-3.56-6.86-7.37 0-4.56 2.32-7.81 7-7.81 4.95 0 6.66 3.61 6.66 7.22a9.56 9.56 0 0 1 -.05 1.24zm5.6-2.47c0-1.68-.7-3.11-2.66-3.11s-2.69 1.32-2.86 3.11z"/><path d="m411 693v16.46 4h-3.84c-.08-.45-.17-1.18-.2-1.51-.7 1.15-2 1.85-4.11 1.85-3.67 0-6-2.94-6-7.48s2.46-7.7 6.58-7.7c2.1 0 3.22.76 3.52 1.4v-7zm-7 17.56c2.75 0 3.08-2.3 3.08-4.37 0-2.49-.36-4.37-3-4.37-2.1 0-3.17 1.65-3.17 4.4s1.09 4.34 3.09 4.34z"/><path d="m435.28 709.69a30.73 30.73 0 0 0 .2 3.75h-3.84a5.74 5.74 0 0 1 -.2-1.43c-.53.81-1.51 1.77-4.08 1.77-3.5 0-5-2.3-5-4.54 0-3.3 2.63-4.84 6.89-4.84h2.07v-.87c0-1-.36-2-2.24-2-1.68 0-2.07.7-2.24 1.77h-3.81c.2-2.58 1.79-4.65 6.22-4.65 3.86 0 6 1.54 6 5zm-3.92-2.86h-1.62c-2.44 0-3.34.76-3.34 2.16a1.88 1.88 0 0 0 2.1 1.93c2.55 0 2.86-1.79 2.86-3.7z"/><path d="m438.5 702.6c0-1.23 0-2.57 0-3.66h3.89a17.69 17.69 0 0 1 .17 1.84 4.42 4.42 0 0 1 4.2-2.18c2.91 0 4.79 2 4.79 5.63v9.21h-4v-8.76c0-1.66-.53-2.83-2.32-2.83s-2.66.95-2.66 3.53v8.06h-4z"/><path d="m468 693v16.46 4h-3.83c-.09-.45-.17-1.18-.2-1.51-.7 1.15-2 1.85-4.12 1.85-3.66 0-6-2.94-6-7.48s2.47-7.7 6.58-7.7c2.1 0 3.22.76 3.53 1.4v-7zm-7 17.56c2.74 0 3.08-2.3 3.08-4.37 0-2.49-.37-4.37-3-4.37-2.1 0-3.16 1.65-3.16 4.4s1.13 4.34 3.08 4.34z"/><path d="m4.59 770.06c0 1.82.93 3.58 2.91 3.58a2.32 2.32 0 0 0 2.55-1.54h4c-.51 1.76-2.1 4.68-6.64 4.68-4.79 0-6.86-3.56-6.86-7.37 0-4.56 2.32-7.81 7-7.81 5 0 6.66 3.61 6.66 7.22a9.56 9.56 0 0 1 -.05 1.24zm5.6-2.47c0-1.68-.7-3.11-2.66-3.11s-2.69 1.32-2.85 3.11z"/><path d="m16.41 765.6c0-1.23 0-2.57 0-3.66h3.89a17.69 17.69 0 0 1 .17 1.84 4.42 4.42 0 0 1 4.2-2.18c2.91 0 4.79 2 4.79 5.63v9.21h-4v-8.76c0-1.66-.53-2.83-2.32-2.83s-2.66.95-2.66 3.53v8.06h-4z"/><path d="m45.72 756v16.46 4h-3.8c-.09-.45-.17-1.18-.2-1.51-.7 1.15-2 1.85-4.12 1.85-3.66 0-6-2.94-6-7.48s2.46-7.7 6.58-7.7c2.1 0 3.22.76 3.53 1.4v-7zm-6.91 17.56c2.74 0 3.08-2.3 3.08-4.37 0-2.49-.37-4.37-3-4.37-2.1 0-3.16 1.65-3.16 4.4s1.09 4.34 3.08 4.34z"/><path d="m51.91 770.06c0 1.82.92 3.58 2.91 3.58a2.32 2.32 0 0 0 2.55-1.54h4c-.5 1.76-2.1 4.68-6.63 4.68-4.79 0-6.86-3.56-6.86-7.37 0-4.56 2.32-7.81 7-7.81 4.95 0 6.66 3.61 6.66 7.22a9.56 9.56 0 0 1 0 1.24zm5.6-2.47c0-1.68-.7-3.11-2.66-3.11s-2.69 1.32-2.86 3.11z"/><path d="m76.3 772.69a33.66 33.66 0 0 0 .19 3.75h-3.83a5.74 5.74 0 0 1 -.2-1.43c-.53.81-1.51 1.77-4.09 1.77-3.5 0-5-2.3-5-4.54 0-3.3 2.63-4.84 6.89-4.84h2.07v-.87c0-1-.37-2-2.24-2-1.68 0-2.07.7-2.24 1.77h-3.76c.2-2.58 1.79-4.65 6.22-4.65 3.86 0 6 1.54 6 5zm-3.92-2.86h-1.63c-2.43 0-3.33.76-3.33 2.16a1.88 1.88 0 0 0 2.1 1.93c2.55 0 2.86-1.79 2.86-3.7z"/><path d="m79.91 765.88c0-1.45 0-2.71 0-3.94h4c.06.33.11 1.76.11 2.54a4.69 4.69 0 0 1 4.65-2.88v3.84c-2.91-.09-4.65.7-4.65 4.67v6.33h-4z"/><path d="m93.57 770.06c0 1.82.93 3.58 2.92 3.58a2.3 2.3 0 0 0 2.51-1.54h4c-.51 1.76-2.1 4.68-6.64 4.68-4.79 0-6.86-3.56-6.86-7.37 0-4.56 2.33-7.81 7-7.81 5 0 6.67 3.61 6.67 7.22a8 8 0 0 1 -.06 1.24zm5.6-2.47c0-1.68-.7-3.11-2.66-3.11s-2.68 1.32-2.85 3.11z"/><path d="m119.22 756v16.46 4h-3.84c-.08-.45-.16-1.18-.19-1.51-.7 1.15-2 1.85-4.12 1.85-3.67 0-6-2.94-6-7.48s2.46-7.7 6.58-7.7c2.1 0 3.22.76 3.53 1.4v-7zm-6.91 17.56c2.74 0 3.08-2.3 3.08-4.37 0-2.49-.37-4.37-3-4.37-2.1 0-3.16 1.65-3.16 4.4s1.09 4.34 3.08 4.34z"/><path d="m127.87 756h4v7.48c.58-.93 1.79-1.88 4.14-1.88 3.95 0 5.91 3.28 5.91 7.34s-2.13 7.84-6.3 7.84c-2.16 0-3.11-.65-3.81-1.71a6.18 6.18 0 0 1 -.17 1.37h-3.83c0-1.57 0-3.16 0-4.73zm6.95 8.82c-2.3 0-3.11 1.48-3.11 4.45 0 2.44.73 4.31 3 4.31 2.05 0 3.14-1.82 3.14-4.56.05-2.44-.85-4.2-3.03-4.2z"/><path d="m147.36 761.94c1.49 5 2.8 9.46 3 10.8.31-1.45 1.18-4.7 2.89-10.8h4l-4.87 14.92c-1.37 4.17-2.55 5.4-6 5.4a16.59 16.59 0 0 1 -1.88-.11v-3.22c.28 0 .7.06 1 .06 1.48 0 2.21-.51 2.77-2.1l-5.29-14.95z"/><path d="m162.93 761.94h2.24v-3.94h4v3.92h2.83v3h-2.86v7.17c0 1.09.34 1.51 1.54 1.51h.9v2.75a8.71 8.71 0 0 1 -2.69.28c-2.83 0-3.75-1.52-3.75-4.06v-7.57h-2.24z"/><path d="m178 756v7.67a4.6 4.6 0 0 1 4.15-2.07c2.69 0 4.84 1.62 4.84 5.54v9.3h-4v-8.71c0-1.87-.68-2.88-2.36-2.88-2.24 0-2.66 1.68-2.66 3.89v7.7h-4v-20.44z"/><path d="m193.2 770.06c0 1.82.92 3.58 2.91 3.58a2.32 2.32 0 0 0 2.55-1.54h4c-.5 1.76-2.1 4.68-6.64 4.68-4.78 0-6.86-3.56-6.86-7.37 0-4.56 2.33-7.81 7-7.81 5 0 6.67 3.61 6.67 7.22a8 8 0 0 1 -.06 1.24zm5.6-2.47c0-1.68-.7-3.11-2.66-3.11s-2.69 1.32-2.86 3.11z"/><path d="m210.7 782v-16.56c0-1.18 0-2.33 0-3.5h3.89a15.53 15.53 0 0 1 .14 1.82 4.55 4.55 0 0 1 4.2-2.16c3.28 0 5.77 2.74 5.77 7.22 0 5.13-2.8 8-6.3 8a4 4 0 0 1 -3.67-1.63v6.81zm6.91-17.16c-2.27 0-3.08 1.48-3.08 4.4 0 2.77.76 4.36 2.91 4.36s3.17-1.65 3.17-4.59c0-2.68-1.07-4.19-3-4.19z"/><path d="m230.63 770.06c0 1.82.93 3.58 2.91 3.58a2.32 2.32 0 0 0 2.55-1.54h4c-.51 1.76-2.1 4.68-6.64 4.68-4.79 0-6.86-3.56-6.86-7.37 0-4.56 2.32-7.81 7-7.81 5 0 6.66 3.61 6.66 7.22a9.56 9.56 0 0 1 0 1.24zm5.6-2.47c0-1.68-.7-3.11-2.66-3.11s-2.69 1.32-2.85 3.11z"/><path d="m256.48 769.16c0 4.4-2.64 7.62-7.23 7.62s-7.11-3.22-7.11-7.54c0-4.48 2.72-7.64 7.31-7.64 4.25 0 7.03 3.02 7.03 7.56zm-10.28 0c0 2.8 1.2 4.45 3.14 4.45s3.08-1.65 3.08-4.42c0-3-1.12-4.46-3.14-4.46-1.85.03-3.08 1.41-3.08 4.46z"/><path d="m258.66 782v-16.56c0-1.18 0-2.33 0-3.5h3.89a15.53 15.53 0 0 1 .14 1.82 4.56 4.56 0 0 1 4.2-2.16c3.28 0 5.77 2.74 5.77 7.22 0 5.13-2.8 8-6.3 8a4.06 4.06 0 0 1 -3.67-1.63v6.81zm6.92-17.16c-2.27 0-3.08 1.48-3.08 4.4 0 2.77.75 4.36 2.91 4.36s3.16-1.65 3.16-4.59c0-2.68-1.06-4.19-2.99-4.19z"/><path d="m274.84 776.44v-20.44h4v20.44z"/><path d="m285.09 770.06c0 1.82.92 3.58 2.91 3.58a2.32 2.32 0 0 0 2.55-1.54h4c-.5 1.76-2.1 4.68-6.63 4.68-4.79 0-6.86-3.56-6.86-7.37 0-4.56 2.32-7.81 7-7.81 4.95 0 6.66 3.61 6.66 7.22a9.56 9.56 0 0 1 -.05 1.24zm5.6-2.47c0-1.68-.7-3.11-2.66-3.11s-2.69 1.32-2.86 3.11z"/><path d="m314.57 772.69a33 33 0 0 0 .2 3.75h-3.84a5.75 5.75 0 0 1 -.19-1.43c-.53.81-1.51 1.77-4.09 1.77-3.5 0-5-2.3-5-4.54 0-3.3 2.64-4.84 6.89-4.84h2.07v-.87c0-1-.36-2-2.24-2-1.68 0-2.07.7-2.24 1.77h-3.8c.19-2.58 1.79-4.65 6.21-4.65 3.87 0 6 1.54 6 5zm-3.92-2.86h-1.65c-2.44 0-3.33.76-3.33 2.16a1.87 1.87 0 0 0 2.1 1.93c2.54 0 2.85-1.79 2.85-3.7z"/><path d="m317.62 765.88c0-1.45 0-2.71 0-3.94h3.94c.06.33.12 1.76.12 2.54a4.66 4.66 0 0 1 4.64-2.88v3.84c-2.91-.09-4.64.7-4.64 4.67v6.33h-4z"/><path d="m341.59 769.16c0 4.4-2.63 7.62-7.22 7.62s-7.11-3.22-7.11-7.54c0-4.48 2.71-7.64 7.31-7.64 4.25 0 7.02 3.02 7.02 7.56zm-10.27 0c0 2.8 1.2 4.45 3.13 4.45s3.08-1.65 3.08-4.42c0-3-1.12-4.46-3.13-4.46-1.85.03-3.08 1.41-3.08 4.46z"/><path d="m356.54 772.24v4.2h-3.92c0-.39-.08-1.18-.11-1.68a4.14 4.14 0 0 1 -4 2c-2.94 0-4.82-1.8-4.82-5.38v-9.46h4v8.65c0 1.59.51 2.91 2.24 2.91s2.58-1 2.58-3.84v-7.72h4z"/><path d="m359.62 765.6c0-1.23 0-2.57 0-3.66h3.89c.08.39.14 1.4.17 1.84a4.41 4.41 0 0 1 4.2-2.18c2.91 0 4.78 2 4.78 5.63v9.21h-4v-8.76c0-1.66-.53-2.83-2.32-2.83s-2.66.95-2.66 3.53v8.06h-4z"/><path d="m388.38 756v16.46 4h-3.84c-.08-.45-.17-1.18-.19-1.51-.7 1.15-2 1.85-4.12 1.85-3.67 0-6-2.94-6-7.48s2.46-7.7 6.58-7.7c2.1 0 3.22.76 3.53 1.4v-7zm-6.92 17.56c2.75 0 3.08-2.3 3.08-4.37 0-2.49-.36-4.37-3-4.37-2.1 0-3.17 1.65-3.17 4.4s1.11 4.34 3.09 4.34z"/><path d="m395.07 761.94h2.24v-3.94h4v3.92h2.86v3h-2.86v7.17c0 1.09.34 1.51 1.54 1.51h.9v2.75a8.68 8.68 0 0 1 -2.69.28c-2.83 0-3.75-1.52-3.75-4.06v-7.57h-2.24z"/><path d="m410.11 756v7.67a4.56 4.56 0 0 1 4.14-2.07c2.69 0 4.84 1.62 4.84 5.54v9.3h-4v-8.71c0-1.87-.67-2.88-2.35-2.88-2.24 0-2.66 1.68-2.66 3.89v7.7h-4v-20.44z"/><path d="m424.78 770.06c0 1.82.92 3.58 2.91 3.58a2.32 2.32 0 0 0 2.55-1.54h4c-.5 1.76-2.1 4.68-6.63 4.68-4.79 0-6.86-3.56-6.86-7.37 0-4.56 2.32-7.81 7-7.81 4.95 0 6.66 3.61 6.66 7.22a8 8 0 0 1 -.06 1.24zm5.6-2.47c0-1.68-.7-3.11-2.66-3.11s-2.69 1.32-2.86 3.11z"/><path d="m444.57 761.94c1.32 5.82 2 9.12 2.3 10.94h.06c.3-1.62.72-3.89 2.49-10.94h3.72c1.63 7.14 2.13 9.24 2.33 10.78.31-1.49.76-3.64 2.44-10.78h4l-4.32 14.5h-4.28c-1.2-5.49-1.88-8.4-2.21-10.3-.22 1.82-1 5.09-2.3 10.3h-4.31l-4.11-14.5z"/><path d="m476.55 769.16c0 4.4-2.63 7.62-7.22 7.62s-7.12-3.22-7.12-7.54c0-4.48 2.72-7.64 7.31-7.64 4.26 0 7.03 3.02 7.03 7.56zm-10.28 0c0 2.8 1.21 4.45 3.14 4.45s3.08-1.65 3.08-4.42c0-3-1.12-4.46-3.14-4.46-1.84.03-3.08 1.41-3.08 4.46z"/><path d="m478.73 765.88c0-1.45 0-2.71 0-3.94h3.94c.06.33.12 1.76.12 2.54a4.66 4.66 0 0 1 4.64-2.88v3.84c-2.91-.09-4.64.7-4.64 4.67v6.33h-4z"/><path d="m489.21 776.44v-20.44h4v20.44z"/><path d="m509.56 756v16.46 4h-3.84c-.08-.45-.17-1.18-.19-1.51-.7 1.15-2 1.85-4.12 1.85-3.67 0-6-2.94-6-7.48s2.46-7.7 6.58-7.7c2.1 0 3.22.76 3.53 1.4v-7zm-6.92 17.56c2.75 0 3.08-2.3 3.08-4.37 0-2.49-.36-4.37-3-4.37-2.1 0-3.17 1.65-3.17 4.4s1.11 4.34 3.09 4.34z"/><path d="m512.7 776.44v-4.93h4.3v4.93z"/></svg>