<svg viewBox="0 0 960 319.26" xmlns="http://www.w3.org/2000/svg"><path d="m8.24 5.08c-.26.34-.68 1-1 1.5v.58a9.66 9.66 0 0 1 5.76-2.06 5.23 5.23 0 0 1 5.46 5.34c0 4-2.5 6.4-7.42 7.38l-1.18-2.4c3.48-.54 6-1.94 6-5a3 3 0 0 0 -3.26-2.98 8.29 8.29 0 0 0 -5.6 2.56v1.64c0 1.62 0 3.28.12 5.14 0 .36.1 1.08.14 1.52h-2.78c0-.42.06-1.14.06-1.46 0-1.54 0-2.68.08-4.36-.84 1.26-1.82 2.7-2.5 3.66l-1.56-2.22c1.12-1.36 3.12-4 4.24-5.66l.08-1.38-3.6.46-.28-2.54a16.84 16.84 0 0 0 1.72 0c.58 0 1.44-.14 2.28-.26 0-.74.08-1.3.08-1.52a10.56 10.56 0 0 0 -.08-1.78l2.9.08c-.12.56-.28 1.58-.44 2.82z"/><path d="m31.86 5.94c-1.18.26-2.52.48-3.84.64-.18.86-.38 1.74-.6 2.54a63.88 63.88 0 0 1 -3.14 9.16l-2.78-.92a43.67 43.67 0 0 0 3.42-8.92c.14-.52.28-1.08.42-1.64-.46 0-.9 0-1.3 0-1 0-1.7 0-2.4-.08l-.06-2.48a19.5 19.5 0 0 0 2.5.16c.58 0 1.16 0 1.76-.06q.16-.62.16-1.1a10.28 10.28 0 0 0 .08-2l3 .24c-.08.52-.28 1.42-.38 1.86l-.16.76c1.12-.18 2.24-.4 3.32-.66zm-.4 6.5a6.85 6.85 0 0 0 -.28 1.66c0 .86.5 1.5 2.62 1.5a23 23 0 0 0 4.12-.4l-.1 2.54a31.69 31.69 0 0 1 -4 .28c-3.34 0-5-1.16-5-3.16a13.59 13.59 0 0 1 .34-2.64zm-1.16-5c1.1-.1 2.52-.2 3.8-.2a34.39 34.39 0 0 1 3.48.18l-.06 2.38a28.61 28.61 0 0 0 -3.4-.24 29.1 29.1 0 0 0 -3.82.22z"/><path d="m47.1 1.58a20.33 20.33 0 0 0 -.26 2.64c-.1 2.12-.24 6.56-.24 9 0 2 1.2 2.64 2.72 2.64 3.28 0 5.36-1.88 6.78-4l1.8 2.22a10.31 10.31 0 0 1 -8.6 4.52c-3.24 0-5.34-1.42-5.34-4.8 0-2.66.2-7.86.2-9.56a12.44 12.44 0 0 0 -.26-2.68z"/><path d="m71.86 5.94c-1.18.26-2.52.48-3.84.64-.18.86-.38 1.74-.6 2.54a63.88 63.88 0 0 1 -3.14 9.16l-2.78-.92a43.67 43.67 0 0 0 3.42-8.92c.14-.52.28-1.08.42-1.64-.46 0-.9 0-1.3 0-1 0-1.7 0-2.4-.08l-.06-2.48a19.5 19.5 0 0 0 2.5.16c.58 0 1.16 0 1.76-.06q.16-.62.16-1.1a10.28 10.28 0 0 0 .08-2l3 .24c-.08.52-.28 1.42-.38 1.86l-.16.76c1.12-.18 2.24-.4 3.32-.66zm-.4 6.5a6.85 6.85 0 0 0 -.28 1.66c0 .86.5 1.5 2.62 1.5a23 23 0 0 0 4.12-.4l-.1 2.54a31.69 31.69 0 0 1 -4 .28c-3.34 0-5-1.16-5-3.16a13.59 13.59 0 0 1 .34-2.64zm-1.16-5c1.1-.1 2.52-.2 3.8-.2a34.39 34.39 0 0 1 3.48.18l-.06 2.38a28.61 28.61 0 0 0 -3.4-.24 29.1 29.1 0 0 0 -3.82.22z"/><path d="m95.88 5.58c-2.06.32-5.2.7-7.86.84a35 35 0 0 1 -.9 3.42 9.63 9.63 0 0 1 4.88-1.24c3.2 0 5.32 1.72 5.32 4.24 0 4.46-4.28 6.06-10.68 5.38l-.64-2.56c4.34.7 8.72.18 8.72-2.74 0-1.18-1-2.18-3-2.18a6.8 6.8 0 0 0 -5.48 2.34 5.81 5.81 0 0 0 -.56.86l-2.34-.84a32 32 0 0 0 2.26-6.64c-1.26 0-2.42-.1-3.42-.2v-2.46a28 28 0 0 0 3.88.38c0-.3.1-.56.12-.8a12.12 12.12 0 0 0 .1-2l2.8.12a20.7 20.7 0 0 0 -.46 2l-.12.6a47.65 47.65 0 0 0 7.32-.94z"/><path d="m105.76 2a16.65 16.65 0 0 0 -.48 1.76 52.38 52.38 0 0 0 -.94 7.66 9.17 9.17 0 0 0 .08 1.28c.26-.7.58-1.36.88-2l1.22 1a47.25 47.25 0 0 0 -1.42 4.72 3.91 3.91 0 0 0 -.1.92v.82l-2.24.16a23.89 23.89 0 0 1 -.76-6.32 58.7 58.7 0 0 1 .82-8.26 14.86 14.86 0 0 0 .18-1.98zm12.16 14.94a20.2 20.2 0 0 0 -2.4-2c-.12 1.88-1.2 3.24-3.88 3.24s-4.44-1.18-4.44-3.18 1.7-3.4 4.4-3.4a8.9 8.9 0 0 1 1.3.08c-.06-1.22-.12-2.66-.14-4.06-.48 0-1 0-1.42 0-1.16 0-2.28 0-3.46-.12v-2.38a32.84 32.84 0 0 0 3.46.18h1.4c0-1 0-1.78 0-2.2a11.21 11.21 0 0 0 -.12-1.3h2.84a12.65 12.65 0 0 0 -.12 1.28c0 .44-.06 1.18-.06 2.06 1.08-.12 2.12-.26 3.06-.46v2.44c-1 .14-2 .26-3.08.34 0 1.92.14 3.5.22 4.84a12.57 12.57 0 0 1 3.82 2.56zm-4.92-3.22a6.17 6.17 0 0 0 -1.6-.22c-1.12 0-1.88.46-1.88 1.2s.8 1.16 1.84 1.16c1.22 0 1.64-.64 1.64-1.8z"/><path d="m125.14 18.76a37.54 37.54 0 0 0 -4.3-4.42l2.08-1.8a37.49 37.49 0 0 1 4.36 4.38z"/><path d="m145.5 5.62h-7.6v-1.88h7.6zm-.64 12.44h-4.08v.78h-2v-6.84h6.08zm11.74.12h-8.1v.94h-2.22v-10.56a11.26 11.26 0 0 1 -.76.9c-.2-.3-.48-.72-.76-1.12h-5.92v-1.82h6v.2a21.64 21.64 0 0 0 3.08-6.3l2.36.64a32.26 32.26 0 0 1 -1.4 3.28h2a18.64 18.64 0 0 0 1.32-3.64l2.48.56c-.46 1-1 2.14-1.5 3.08h3v2.12h-3.18v1.76h2.82v2.12h-2.82v1.66h2.82v2.14h-2.82v1.86h3.6zm-11.76-7.18h-6v-1.74h6zm-.06-8.18h-5.88v-1.76h5.88zm-4 11v2.3h2.06v-2.22zm10-7.44h-2.28v1.84h2.28zm0 3.88h-2.28v1.74h2.28zm-2.28 5.74h2.28v-1.8h-2.28z"/><path d="m173.48 8.6a7.37 7.37 0 0 1 1.92 4.76c0 3-2.68 5.14-7 5.14-3.12 0-5.32-1.36-5.32-4.66 0-.48.06-1.18.14-2a22.21 22.21 0 0 1 -3.8-.66l.14-2.4a16.86 16.86 0 0 0 3.9.78c.12-.88.22-1.8.34-2.7a24.76 24.76 0 0 1 -3.94-.7l.14-2.3a18.36 18.36 0 0 0 4 .74c.08-.6.12-1.14.16-1.58a12.47 12.47 0 0 0 0-1.76l2.78.16c-.16.72-.26 1.24-.34 1.76-.06.34-.12.86-.22 1.5a29.07 29.07 0 0 0 3.64-.24l-.02 2.36a35.49 35.49 0 0 1 -3.86.18c-.12.88-.24 1.82-.34 2.7h.2a39.29 39.29 0 0 0 4-.24l-.06 2.36c-1.12.1-2.28.18-3.5.18h-.8c0 .58-.08 1.08-.08 1.44 0 1.62 1 2.52 3 2.52 2.76 0 4.28-1.26 4.28-2.9a5.5 5.5 0 0 0 -2-3.84z"/><path d="m193.94 16.7c.68 0 .8-.34.9-2.66a7.58 7.58 0 0 0 2.16.96c-.26 3.16-.88 4-2.86 4h-2.64c-2.38 0-2.94-.72-2.94-3v-3.2h-2.42c-.42 3.18-1.6 5.28-6.54 6.4a7.54 7.54 0 0 0 -1.32-2.12c4.1-.76 5-2.1 5.3-4.28h-2.44v-11.74h13.08v11.74h-3.22v3.2c0 .64.12.72.88.72zm-10.48-12.32h8.36v-1.24h-8.36zm0 3.16h8.36v-1.24h-8.36zm0 3.18h8.36v-1.24h-8.36z"/><path d="m209.86 5.94c-1.18.26-2.52.48-3.84.64-.18.86-.38 1.74-.6 2.54a63.88 63.88 0 0 1 -3.14 9.16l-2.78-.92a43.67 43.67 0 0 0 3.42-8.92c.14-.52.28-1.08.42-1.64-.46 0-.9 0-1.3 0-1 0-1.7 0-2.4-.08l-.06-2.48a19.5 19.5 0 0 0 2.5.16c.58 0 1.16 0 1.76-.06q.12-.66.18-1.14a10.28 10.28 0 0 0 .08-2l3 .24c-.14.54-.32 1.42-.42 1.86l-.16.76c1.12-.18 2.24-.4 3.32-.66zm-.4 6.5a6.85 6.85 0 0 0 -.28 1.66c0 .86.5 1.5 2.62 1.5a23 23 0 0 0 4.12-.4l-.1 2.54a31.69 31.69 0 0 1 -4 .28c-3.34 0-5-1.16-5-3.16a13.59 13.59 0 0 1 .34-2.64zm-1.16-5c1.1-.1 2.52-.2 3.8-.2a34.39 34.39 0 0 1 3.48.18l-.06 2.38a28.61 28.61 0 0 0 -3.4-.24 29.1 29.1 0 0 0 -3.82.22z"/><path d="m223.72 11.28a8.22 8.22 0 0 0 -.34 2c0 1.26 1.2 2.18 4.06 2.18a28.09 28.09 0 0 0 7-.78v2.78a30.24 30.24 0 0 1 -6.88.68c-4.54 0-6.82-1.52-6.82-4.24a12.74 12.74 0 0 1 .4-2.86zm-1.72-8.4a51.91 51.91 0 0 0 5.4.24c2 0 4.22-.12 5.74-.28v2.66c-1.38.1-3.84.24-5.72.24-2.08 0-3.8-.1-5.42-.22z"/><path d="m253.84 5.74c-.6.36-1.24.7-2 1.06a60.66 60.66 0 0 0 -5.52 2.94c-1.66 1.08-2.76 2.22-2.76 3.6s1.38 2.18 4.12 2.18a33.13 33.13 0 0 0 6.48-.72v2.86a38.74 38.74 0 0 1 -6.36.48c-3.94 0-6.92-1.1-6.92-4.5 0-2.2 1.38-3.82 3.28-5.22-.92-1.7-1.88-3.8-2.78-5.9l2.5-1a46.44 46.44 0 0 0 2.48 5.48c1.64-1 3.34-1.84 4.28-2.36a13.68 13.68 0 0 0 1.82-1.2z"/><path d="m267.14 1.78c-.12.52-.24 1.14-.34 1.64s-.28 1.32-.42 2c.66 0 1.26-.08 1.66-.08 2.1 0 3.58.94 3.58 3.78 0 2.34-.28 5.5-1.12 7.22a3.16 3.16 0 0 1 -3.26 1.82 11.21 11.21 0 0 1 -2.36-.28l-.44-2.62a11.56 11.56 0 0 0 2.44.42 1.46 1.46 0 0 0 1.48-.86 15.12 15.12 0 0 0 .8-5.42c0-1.58-.68-1.8-1.92-1.8-.32 0-.8 0-1.36.08-.78 3-2.22 7.66-4 10.58l-2.58-1a29.38 29.38 0 0 0 4-9.26c-.7.08-1.32.16-1.7.22-.56.06-1.58.2-2.2.3l-.22-2.68a18.39 18.39 0 0 0 2.1 0c.62 0 1.56-.08 2.56-.16a21.93 21.93 0 0 0 .42-4.2zm7.1 2.36a39.35 39.35 0 0 1 3.22 6.9l-2.52 1.18a22.43 22.43 0 0 0 -3.34-7.46l1.84-.76a22.11 22.11 0 0 0 -1.36-2.36l1.58-.64c.5.74 1.2 2 1.6 2.74zm1.82-.66a20 20 0 0 0 -1.62-2.76l1.56-.66a23.81 23.81 0 0 1 1.63 2.72z"/><path d="m289.92 5.72a29 29 0 0 1 -3.44.68 36.56 36.56 0 0 1 -4.24 8.48l-2.42-1.22a30.22 30.22 0 0 0 4-7c-.34 0-.68 0-1 0-.82 0-1.62 0-2.48-.06l-.18-2.32a25.18 25.18 0 0 0 2.64.14c.58 0 1.18 0 1.78-.06a16.86 16.86 0 0 0 .54-3.32l2.74.28c-.16.64-.4 1.64-.68 2.7a20.92 20.92 0 0 0 2.66-.62zm2.6 1.78c-.06.84 0 1.66 0 2.54 0 .56.06 1.52.12 2.5a13.19 13.19 0 0 1 4.1 2.54l-1.32 2.12a17.63 17.63 0 0 0 -2.68-2.1v.18c0 1.84-1 3.28-3.82 3.28-2.46 0-4.4-1.1-4.4-3.28 0-1.94 1.62-3.44 4.38-3.44.46 0 .92 0 1.34.08-.06-1.48-.16-3.22-.22-4.42zm-2.18 6.56a7 7 0 0 0 -1.6-.2c-1.14 0-1.88.48-1.88 1.18s.62 1.24 1.7 1.24c1.34 0 1.78-.78 1.78-1.84zm5.58-5.5a26.41 26.41 0 0 0 -4.76-2.82l1.28-2a35.64 35.64 0 0 1 4.88 2.68z"/><path d="m303.84 5.54c0 1.28 0 2.78.12 4.2.28 2.86.88 4.8 2.12 4.8.94 0 1.72-2.32 2.1-3.88l2 2.4c-1.32 3.44-2.56 4.66-4.16 4.66-2.16 0-4.06-2-4.62-7.28-.18-1.82-.22-4.12-.22-5.34a11.48 11.48 0 0 0 -.14-2h3a15.69 15.69 0 0 0 -.2 2.44zm13.76 8.14-2.62 1c-.3-3.18-1.36-7.84-3.52-10.28l2.54-.84c1.86 2.3 3.38 7.08 3.6 10.12z"/><path d="m334.76 17.48a15.3 15.3 0 0 0 -4.38-3.1v.68c0 1.74-.9 3.42-4.22 3.42-2.82 0-5.14-.92-5.14-3.62 0-2.06 1.76-3.7 5.4-3.7a11.37 11.37 0 0 1 1.18.06c-.06-1.54-.14-3.24-.14-4.28 0-1.2 0-2.38 0-3.22a12.57 12.57 0 0 0 -.2-2.32h3c-.08.58-.14 1.54-.18 2.32v1.44c1.56 0 3.88-.12 5.52-.3l.1 2.36c-1.66.16-4 .24-5.62.28 0 1.2.12 2.76.22 4.22a15.66 15.66 0 0 1 6 3.4zm-7.06-4a10.88 10.88 0 0 0 -1.64-.14c-1.54 0-2.46.52-2.46 1.36s1 1.34 2.38 1.34 1.74-.58 1.74-1.88c0-.16 0-.38-.02-.64z"/><path d="m349.62 8.44a17.77 17.77 0 0 0 -5.16 1c-.58.18-1.34.48-1.92.68l-.74-2.82a19.42 19.42 0 0 0 2.2-.38 27.44 27.44 0 0 1 6-.9c3.14 0 5.34 1.78 5.34 4.88 0 4.24-3.92 6.88-9.42 7.64l-1.44-2.48c4.92-.56 8.06-2.16 8.06-5.26-.06-1.3-1.06-2.38-2.92-2.36zm4-6.26-.4 2.44c-2.32-.16-6.62-.54-8.9-.94l.4-2.4a55.94 55.94 0 0 0 8.9.9z"/><path d="m370.32 5.72a29 29 0 0 1 -3.44.68 36.56 36.56 0 0 1 -4.24 8.48l-2.42-1.22a30.22 30.22 0 0 0 4-7c-.34 0-.68 0-1 0-.82 0-1.62 0-2.48-.06l-.18-2.32a25.18 25.18 0 0 0 2.64.14c.58 0 1.18 0 1.78-.06a16.86 16.86 0 0 0 .54-3.32l2.74.28c-.16.64-.4 1.64-.68 2.7a20.92 20.92 0 0 0 2.66-.62zm2.6 1.78c-.06.84 0 1.66 0 2.54 0 .56.06 1.52.12 2.5a13.19 13.19 0 0 1 4.1 2.54l-1.32 2.12a17.63 17.63 0 0 0 -2.68-2.1v.18c0 1.84-1 3.28-3.82 3.28-2.46 0-4.4-1.1-4.4-3.28 0-1.94 1.62-3.44 4.38-3.44.46 0 .92 0 1.34.08-.06-1.48-.16-3.22-.22-4.42zm-2.18 6.56a7 7 0 0 0 -1.6-.2c-1.14 0-1.88.48-1.88 1.18s.62 1.24 1.7 1.24c1.34 0 1.78-.78 1.78-1.84zm5.58-5.5a26.41 26.41 0 0 0 -4.76-2.82l1.28-2a35.64 35.64 0 0 1 4.88 2.68z"/><path d="m398.34 3.84a10.07 10.07 0 0 0 -.78 1 20.12 20.12 0 0 1 -4.82 5.48l-2.06-1.62a11.89 11.89 0 0 0 3.68-3.7h-10.42c-.84 0-1.5.06-2.44.14v-2.8a15.86 15.86 0 0 0 2.44.2h10.78a10 10 0 0 0 2-.18zm-8.16 2.7c0 5-.1 9-5.56 12l-2.32-1.9a7.9 7.9 0 0 0 2.1-1.1c2.54-1.76 3-3.88 3-7.16a11.09 11.09 0 0 0 -.14-1.8z"/><path d="m411.64 15.64a13.75 13.75 0 0 0 .18 2.62h-3.16a22.4 22.4 0 0 0 .14-2.62v-6.56a39.1 39.1 0 0 1 -6.88 2.72l-1.44-2.44a30.73 30.73 0 0 0 9.1-3.62 21.11 21.11 0 0 0 5.22-4.52l2.14 1.94a32.68 32.68 0 0 1 -5.3 4.3z"/><path d="m435.7 7.52a15.13 15.13 0 0 0 1.82-.12v2.6c-.5 0-1.26-.06-1.82-.06h-4.82a12.69 12.69 0 0 1 -1.28 5.14 9.6 9.6 0 0 1 -4 3.84l-2.34-1.7a8.17 8.17 0 0 0 3.62-2.86 8.59 8.59 0 0 0 1.24-4.42h-5.5c-.58 0-1.36 0-1.92.08v-2.62a15.23 15.23 0 0 0 1.92.12zm-10.56-2.72c-.68 0-1.54 0-2.14.06v-2.58a15 15 0 0 0 2.14.16h6.54a15.7 15.7 0 0 0 2.16-.16v2.58c-.68 0-1.46-.06-2.16-.06zm9.86-.46a27.49 27.49 0 0 0 -1.58-2.78l1.58-.66c.5.74 1.2 2 1.58 2.74zm2.4-.92a23.6 23.6 0 0 0 -1.6-2.76l1.6-.66a26.61 26.61 0 0 1 1.6 2.72z"/><path d="m458.34 3.84a10.07 10.07 0 0 0 -.78 1 20.12 20.12 0 0 1 -4.82 5.48l-2.06-1.62a11.89 11.89 0 0 0 3.68-3.7h-10.42c-.84 0-1.5.06-2.44.14v-2.8a15.86 15.86 0 0 0 2.44.2h10.78a10 10 0 0 0 2-.18zm-8.16 2.7c0 5-.1 9-5.56 12l-2.32-1.9a7.9 7.9 0 0 0 2.1-1.1c2.54-1.76 3-3.88 3-7.16a11.09 11.09 0 0 0 -.14-1.8z"/><path d="m469.72 14.5c0-.58.06-1.5.08-2.36-1.46.8-2.26 1.58-2.26 2.56s.94 1.4 2.88 1.4a30.29 30.29 0 0 0 5.62-.58l-.04 2.58a54.8 54.8 0 0 1 -5.6.32c-3.1 0-5.44-.74-5.44-3.3s2.4-4.12 4.66-5.28a1.55 1.55 0 0 0 -1.38-.68 4.9 4.9 0 0 0 -3.1 1.36 25.37 25.37 0 0 0 -1.84 2.18l-2.12-1.58a19.36 19.36 0 0 0 4.36-5.44h-.24c-.8 0-2.26 0-3.34-.14v-2.32a25.41 25.41 0 0 0 3.48.22h1a11 11 0 0 0 .4-2.26l2.6.22c-.1.48-.24 1.16-.48 2a45.74 45.74 0 0 0 5.6-.58v2.32a64.52 64.52 0 0 1 -6.46.52 12.1 12.1 0 0 1 -1.14 2 6.2 6.2 0 0 1 2.24-.4 2.7 2.7 0 0 1 2.64 1.54c1-.48 1.86-.82 2.68-1.18s1.46-.68 2.18-1l1 2.3a21 21 0 0 0 -2.36.84c-.88.34-2 .78-3.22 1.34 0 1.1.06 2.56.08 3.46z"/><path d="m491.52 8c-.86.66-1.76 1.28-2.68 1.86a44.37 44.37 0 0 0 5.9-1l1.46 1.56a51.1 51.1 0 0 1 -9 1.28l-.24 1h9.24a8.12 8.12 0 0 1 -.12 1c-.48 2.7-1 4.06-1.64 4.66a2.61 2.61 0 0 1 -1.92.7 24.57 24.57 0 0 1 -3 0 5 5 0 0 0 -.76-2.2c1.16.12 2.42.16 2.94.16a1.48 1.48 0 0 0 .88-.2 4.08 4.08 0 0 0 .9-2.2h-7l-.24.92-2.38-.34c.28-.84.58-1.92.86-3.06-1.08.52-2.18 1-3.28 1.44a15.32 15.32 0 0 0 -1.44-1.78 38.14 38.14 0 0 0 5.34-2.32l.1-.46.64.08c.62-.34 1.22-.7 1.8-1.06h-7v-2.04h6.12v-1.56h-4.6v-1.94h4.6v-2.06h2.36v2.06h4.2v1a26 26 0 0 0 2-2.28l1.92 1.06a29.46 29.46 0 0 1 -3.48 3.72h4.34v2zm-.8-2c.66-.52 1.3-1 1.9-1.6h-3.24v1.6z"/><path d="m513.4 8.52c-.9.78-2.76 2.48-3.22 3a2.06 2.06 0 0 1 .74.16 1.93 1.93 0 0 1 1.22 1.32c.18.54.36 1.3.54 1.8a1.26 1.26 0 0 0 1.4.92 20.53 20.53 0 0 0 3.88-.34l-.16 2.62a29 29 0 0 1 -3.88.28c-1.88 0-2.9-.4-3.38-1.7-.22-.58-.44-1.5-.58-2-.24-.7-.66-1-1.06-1a2.05 2.05 0 0 0 -1.28.8 49.46 49.46 0 0 0 -3.54 4l-2.36-1.64a15.13 15.13 0 0 0 1.38-1.22c1-1 5.06-5.06 6.88-7-1.4.06-3.76.26-4.9.36-.68.06-1.28.16-1.7.24l-.24-2.74c.46 0 1.18.06 1.9.06.94 0 5.44-.2 7.08-.42a6.36 6.36 0 0 0 1.12-.24l1.46 1.66c-.52.44-.94.8-1.3 1.08zm.6-6.34-.32 2.34c-2.08-.18-5.78-.6-8.14-1l.38-2.3a79.12 79.12 0 0 0 8.08.96z"/><path d="m524.74 18.76a37.54 37.54 0 0 0 -4.3-4.42l2.08-1.8a37.49 37.49 0 0 1 4.36 4.38z"/><path d="m14.58 56.42c-.1.22-.24.64-.36 1a5.11 5.11 0 0 1 3.78 4.88c0 2.78-1.66 5.52-6.52 6.24l-1.28-2.08c3.82-.42 5.38-2.34 5.38-4.28a3 3 0 0 0 -2-2.78 15.4 15.4 0 0 1 -4.18 6c.14.52.3 1 .46 1.48l-2.28.68c-.08-.24-.18-.52-.26-.8a7 7 0 0 1 -3.06.8 2.57 2.57 0 0 1 -2.68-2.9c0-2.52 2.1-5.2 4.86-6.5.06-.84.12-1.68.2-2.48h-.64c-1 0-2.58-.08-3.5-.12l-.08-2.3a32.52 32.52 0 0 0 3.58.26h.8l.12-1.06a7.91 7.91 0 0 0 .08-1.18l2.6.06a7.69 7.69 0 0 0 -.3 1.06c-.08.32-.14.68-.2 1.06a33 33 0 0 0 6.72-.84v2.28a57.55 57.55 0 0 1 -7 .72c-.06.58-.12 1.18-.14 1.78a13.32 13.32 0 0 1 3-.36h.32a11.46 11.46 0 0 0 .18-1.18zm-7.8 8.08a27.61 27.61 0 0 1 -.42-4 5.18 5.18 0 0 0 -2.48 3.64c0 .62.28 1 .92 1a4.21 4.21 0 0 0 1.98-.64zm1.8-5a23.09 23.09 0 0 0 .22 3.28 11.32 11.32 0 0 0 2.5-3.76 9.67 9.67 0 0 0 -2.72.44z"/><path d="m24.94 59.94a9.71 9.71 0 0 1 5.82-1.88c3.48 0 5.5 2.14 5.5 4.54 0 3.62-2.86 6.4-11.1 5.68l-.76-2.6c5.94.84 9.08-.62 9.08-3.14 0-1.28-1.22-2.22-3-2.22a6.94 6.94 0 0 0 -5.46 2.32 4.29 4.29 0 0 0 -.74 1.16l-2.28-.58a72.12 72.12 0 0 0 1-8.22l2.68.36c-.26 1.06-.6 3.44-.74 4.58zm.62-8.6a62.7 62.7 0 0 0 7.92 1.54l-.6 2.44c-2-.26-6.42-1.18-8-1.58z"/><path d="m51 51.3c.1.6.24 1.5.36 2.54 3.6.16 5.86 2.54 5.86 5.66 0 3.4-2.16 6-6.4 6a2.17 2.17 0 0 1 -.36 0 8.5 8.5 0 0 1 -2.72 3.34l-2.4-1.4a6.76 6.76 0 0 0 2.66-2.64 6.07 6.07 0 0 1 -2.88-2.8l1.42-1.8a5.18 5.18 0 0 0 2.28 2.46 14.9 14.9 0 0 0 .44-3.84c0-.86 0-1.74-.08-2.58a7.64 7.64 0 0 0 -5.32 5.84 5.18 5.18 0 0 0 -.08 1 13.74 13.74 0 0 0 .22 1.92l-2.26.3a21 21 0 0 1 -.7-5.5 56.42 56.42 0 0 1 .48-5.84 6.28 6.28 0 0 0 .06-1.18l2.7.22c-.14.42-.28.86-.38 1.2a18.74 18.74 0 0 0 -.52 4.14 8.56 8.56 0 0 1 5.62-4.26c-.08-.52-.14-1-.22-1.34a12.67 12.67 0 0 0 -.34-1.38zm3.72 8.24a3.27 3.27 0 0 0 -3.14-3.54c.06.9.1 1.84.1 2.78a21.17 21.17 0 0 1 -.38 4.22c2.22-.16 3.44-1.5 3.44-3.46z"/><path d="m74.3 53.66q-.72.45-1.38.9c-1.06.74-3.14 2.5-4.38 3.5a6.66 6.66 0 0 1 1.86-.22c3.36 0 5.92 2.1 5.92 5 0 3.12-2.38 5.6-7.16 5.6-2.76 0-4.84-1.26-4.84-3.24a3.33 3.33 0 0 1 3.56-3.08 4 4 0 0 1 4.22 3.38 2.89 2.89 0 0 0 1.62-2.7c0-1.78-1.8-3-4.1-3-3 0-5 1.62-7.14 4l-1.8-1.8c1.4-1.14 3.78-3.16 5-4.12s3.16-2.58 4.14-3.44c-1 0-3.74.14-4.78.22a13.07 13.07 0 0 0 -1.62.16l-.12-2.62c.56.06 1.24.1 1.8.1 1 0 5.28-.1 6.4-.2a9.55 9.55 0 0 0 1.5-.2zm-4.48 12.46c-.12-1.28-.82-2.12-1.94-2.12-.74 0-1.22.44-1.22.94 0 .74.84 1.24 2 1.24a10.44 10.44 0 0 0 1.16-.06z"/><path d="m88.18 55.9c-.06.86-.12 1.74-.22 2.6h7.72a9.73 9.73 0 0 1 -.08 1c-.36 5.5-.78 7.72-1.6 8.6a3 3 0 0 1 -2.16.92 27.39 27.39 0 0 1 -3.42 0 5.53 5.53 0 0 0 -.84-2.34c1.38.14 2.78.14 3.36.14a1.28 1.28 0 0 0 1-.26c.52-.44.88-2.18 1.16-5.82h-5.5a11.74 11.74 0 0 1 -6.42 8.52 7.6 7.6 0 0 0 -1.68-2c5.4-2.5 5.86-7.06 6.08-11.34h-5.74v-2.3h7.66v-3.26h2.5v3.26h7.9v2.28z"/><path d="m103.64 59.76a15.41 15.41 0 0 0 -3.76-2.06l1.22-1.8a16.12 16.12 0 0 1 3.9 1.86zm2.1 2.8c-1 2.08-2.14 4.36-3.26 6.28l-2.06-1.52a59.77 59.77 0 0 0 3.58-6.32zm-1-8.08a15.25 15.25 0 0 0 -3.74-2.2l1.32-1.78a17.55 17.55 0 0 1 3.82 2zm11.82 14.64a11 11 0 0 0 -.68-1.58c-3.62.32-7.4.58-10.1.78l-.32-2.4 1.5-.06a36.24 36.24 0 0 0 1.9-5.18h-3.42v-2.28h5.14v-2.82h-4.14v-2.28h4.14v-2.84h2.48v2.84h4.34v2.28h-4.34v2.82h5.28v2.28h-6.72.08c-.64 1.68-1.44 3.52-2.16 5l5.14-.28c-.5-.8-1.06-1.58-1.6-2.28l2-1.08a23.27 23.27 0 0 1 3.7 5.82z"/><path d="m123 53.6 8.56-.76c2-.16 4.2-.28 5.6-.34v2.56a20.45 20.45 0 0 0 -3.82.26 6 6 0 0 0 -4.18 5.54c0 3.26 3 4.44 6.4 4.6l-.92 2.74c-4.16-.26-8.08-2.5-8.08-6.8a7.85 7.85 0 0 1 2.92-6.1c-1.72.18-5.88.62-8.18 1.12l-.26-2.72c.86-.02 1.62-.06 1.96-.1zm13 6.1-1.52.68a15.43 15.43 0 0 0 -1.48-2.78l1.48-.62a26.21 26.21 0 0 1 1.52 2.72zm2.32-1-1.5.72a17.59 17.59 0 0 0 -1.64-2.7l1.46-.68a29.92 29.92 0 0 1 1.72 2.68z"/><path d="m146.08 52.2c.84 0 4.56-.18 5.76-.32a7.77 7.77 0 0 0 1.38-.24l1.56 1.82c-.4.28-1.14.76-1.54 1.1-1.42 1.12-3.38 2.76-4.72 3.82 2.66-.28 5.92-.48 8.34-.48v2.34a29.87 29.87 0 0 0 -5.08 0c-1.82.26-3.34 1.54-3.34 3.16s1.22 2.16 3 2.38a17.25 17.25 0 0 0 3 0l-.52 2.6c-5.08.22-8-1.3-8-4.6a4.63 4.63 0 0 1 1.44-3.12c-1.8.14-4 .44-6 .78l-.24-2.4c1.06-.1 2.44-.28 3.46-.4a56.11 56.11 0 0 0 5.58-4.5c-.8.06-3.24.18-4 .26-.5 0-1.16.12-1.78.18l-.12-2.54c.56.14 1.14.16 1.82.16z"/><path d="m178.64 66.24a5.24 5.24 0 0 1 -3.72 1.5c-1.48 0-2.48-1.1-2.48-3 0-2.16.7-5.06.7-6.86 0-1-.5-1.46-1.32-1.46-1.48 0-3.64 1.82-5.24 3.6v1.6c0 1.62 0 3.28.12 5.14 0 .36.1 1.08.14 1.52h-2.72c0-.42.06-1.14.06-1.46 0-1.54 0-2.68.08-4.36-.86 1.26-1.82 2.72-2.5 3.66l-1.56-2.2c1.12-1.36 3.12-4 4.24-5.66l.08-1.38-3.6.46-.24-2.54a16.84 16.84 0 0 0 1.72 0c.58 0 1.44-.14 2.28-.26 0-.74.08-1.3.08-1.52a10.56 10.56 0 0 0 -.08-1.76l2.9.08c-.12.56-.28 1.58-.44 2.82l.74.94c-.26.34-.68 1-1 1.5a3 3 0 0 1 0 .42c1.56-1.36 3.84-2.94 5.76-2.94a2.78 2.78 0 0 1 3.02 2.92c0 2.06-.66 5-.66 7 0 .52.26.86.76.86a4 4 0 0 0 2.54-1.4z"/><path d="m189.32 64.5c0-.58.06-1.5.08-2.36-1.46.8-2.26 1.58-2.26 2.56s.94 1.4 2.88 1.4a30.29 30.29 0 0 0 5.62-.58l-.08 2.58a54.8 54.8 0 0 1 -5.6.32c-3.1 0-5.44-.74-5.44-3.3s2.4-4.12 4.66-5.28a1.55 1.55 0 0 0 -1.38-.68 4.9 4.9 0 0 0 -3.1 1.36 25.37 25.37 0 0 0 -1.84 2.18l-2.12-1.58a19.36 19.36 0 0 0 4.36-5.44h-.24c-.8 0-2.26 0-3.34-.14v-2.32a25.41 25.41 0 0 0 3.48.22h1a11 11 0 0 0 .4-2.26l2.6.22c-.1.48-.24 1.16-.48 2a45.74 45.74 0 0 0 5.6-.58v2.32a64.52 64.52 0 0 1 -6.46.52 12.1 12.1 0 0 1 -1.14 2 6.2 6.2 0 0 1 2.24-.4 2.7 2.7 0 0 1 2.64 1.54c1-.48 1.86-.82 2.68-1.18s1.46-.68 2.18-1l1 2.3a21 21 0 0 0 -2.36.84c-.88.34-2 .78-3.22 1.34 0 1.1.06 2.56.08 3.46z"/><path d="m211.48 64.22c1.42 1.6 3.66 2.52 6.82 2.86a9.25 9.25 0 0 0 -1.4 2.08c-3.8-.6-6.18-2-7.76-4.5-1.18 1.78-3.4 3.36-7.48 4.46a9.71 9.71 0 0 0 -1.48-1.92c3.36-.76 5.28-1.8 6.38-3h-6v-2.04h7.18a9.17 9.17 0 0 0 .2-1.26h-5.14v-1.9h5.14v-1.2h-5.46v-1.34h-1.78v-4.26h7.3v-1.74h2.44v1.74h7.32v4.26h-1.6v1.32h-5.84v1.22h5.44v1.9h-5.46a6.79 6.79 0 0 1 -.16 1.26h7.86v2.06zm-3.54-8.36v-1.14h2.38v1.14h5v-1.58h-12.26v1.58z"/><path d="m227.92 64.2-7.26 2.12-.6-2.24c.8-.18 1.78-.44 2.86-.72v-4h-2.22v-2.2h2.22v-3.48h-2.4v-2.2h7v2.2h-2.3v3.48h2.08v2.18h-2.08v3.42l2.38-.66zm8.88 2.8c.36 0 .44-.32.48-2.32a6.12 6.12 0 0 0 2 .88c-.2 2.74-.72 3.48-2.2 3.48h-1.5c-1.84 0-2.24-.68-2.24-2.7v-3.94h-1.24c-.36 3.26-1.28 5.58-5.54 6.84a7 7 0 0 0 -1.32-2c3.62-.9 4.26-2.54 4.52-4.88h-1.46v-11.16h9.76v11.2h-2.46v3.92c0 .58 0 .66.38.66zm-6.28-12.6h5.22v-1.26h-5.22zm0 3h5.22v-1.22h-5.22zm0 3h5.22v-1.18h-5.22z"/><path d="m247.1 51.58a20.33 20.33 0 0 0 -.26 2.64c-.1 2.12-.24 6.56-.24 9 0 2 1.2 2.64 2.72 2.64 3.28 0 5.36-1.88 6.78-4l1.8 2.22a10.31 10.31 0 0 1 -8.6 4.52c-3.24 0-5.34-1.42-5.34-4.8 0-2.66.2-7.86.2-9.56a12.44 12.44 0 0 0 -.26-2.68z"/><path d="m263.1 53.56c1.64-.16 4.92-.44 8.54-.76 2-.16 4.22-.28 5.6-.34v2.56a20.45 20.45 0 0 0 -3.82.26 6 6 0 0 0 -4.18 5.54c0 3.26 3.06 4.42 6.4 4.6l-.92 2.74c-4.16-.28-8.08-2.52-8.08-6.8a7.92 7.92 0 0 1 2.92-6.1c-1.7.18-5.88.62-8.18 1.12l-.24-2.72c.8-.02 1.56-.06 1.96-.1z"/><path d="m284.64 55.54c0 1.28 0 2.78.12 4.2.28 2.86.88 4.8 2.12 4.8.94 0 1.72-2.32 2.1-3.88l2 2.4c-1.32 3.44-2.56 4.66-4.16 4.66-2.16 0-4.06-2-4.62-7.28-.18-1.82-.22-4.12-.22-5.34a11.48 11.48 0 0 0 -.14-2h3a15.69 15.69 0 0 0 -.2 2.44zm13.76 8.14-2.62 1c-.3-3.18-1.36-7.84-3.52-10.28l2.52-.84c1.88 2.3 3.4 7.08 3.62 10.12z"/><path d="m314.28 53c-.62.46-1.28 1-1.74 1.34-1.28 1-3.9 3.06-5.22 4.2-1.06.9-1 1.12 0 2 1.48 1.26 5.3 4.28 7.26 6.18l-2.3 2.12c-.56-.62-1.18-1.24-1.74-1.84-1.08-1.14-4.1-3.72-5.92-5.26s-1.8-2.76.18-4.4c1.54-1.26 4.26-3.46 5.6-4.78a13.68 13.68 0 0 0 1.6-1.56z"/><path d="m337.62 54.94a8 8 0 0 0 -.66 1.44 20.87 20.87 0 0 1 -3.48 6.68 18.84 18.84 0 0 1 -8.08 5.64l-2.4-2.12a15.94 15.94 0 0 0 8.06-4.94 14.22 14.22 0 0 0 2.84-5.46h-5.62a22.8 22.8 0 0 1 -5 4.84l-2.28-1.66a17.61 17.61 0 0 0 6.24-6.44 9.62 9.62 0 0 0 .9-2.1l2.92 1c-.48.7-1 1.6-1.22 2l-.06.1h4a6.41 6.41 0 0 0 1.74-.24z"/><path d="m345.68 52c0 .44-.06.88-.06 1.52v6.76c0 .5 0 1.28.06 1.74h-3c0-.38.1-1.16.1-1.76v-6.7a13.6 13.6 0 0 0 -.08-1.52zm9.22-.18c0 .56-.08 1.2-.08 2v4c0 4.3-.84 6.14-2.32 7.78a11.62 11.62 0 0 1 -4.86 2.9l-2.1-2.2a9.36 9.36 0 0 0 4.9-2.52c1.36-1.5 1.62-3 1.62-6.12v-3.8a14.11 14.11 0 0 0 -.12-2z"/><path d="m375.48 64.24a11.72 11.72 0 0 0 1.86-.16v2.92a15.51 15.51 0 0 0 -1.86-.1h-13.18a16.71 16.71 0 0 0 -2 .1v-2.9a10.8 10.8 0 0 0 2 .16h5.08v-8.18h-3.86c-.54 0-1.4 0-1.9.08v-2.74a14.68 14.68 0 0 0 1.9.12h10.88c.6 0 1.3-.06 1.88-.12v2.74c-.6 0-1.3-.08-1.88-.08h-4.22v8.16z"/><path d="m391.24 65.64a13.75 13.75 0 0 0 .18 2.62h-3.16a22.4 22.4 0 0 0 .14-2.62v-6.56a39.1 39.1 0 0 1 -6.88 2.72l-1.44-2.44a30.73 30.73 0 0 0 9.1-3.62 21.11 21.11 0 0 0 5.22-4.52l2.14 1.94a32.68 32.68 0 0 1 -5.3 4.3z"/><path d="m415.16 57.28a15.39 15.39 0 0 0 1.82-.12v2.6c-.5 0-1.26-.06-1.82-.06h-4.82a12.69 12.69 0 0 1 -1.28 5.14 9.6 9.6 0 0 1 -4 3.84l-2.36-1.68a8.31 8.31 0 0 0 3.62-2.86 8.59 8.59 0 0 0 1.24-4.42h-5.5c-.58 0-1.36 0-1.92.08v-2.64c.6.06 1.3.12 1.92.12zm-10.54-2.74c-.7 0-1.54 0-2.14.08v-2.62a14.9 14.9 0 0 0 2.12.14h8a15.67 15.67 0 0 0 2.2-.14v2.58c-.7 0-1.46-.08-2.16-.08z"/><path d="m434.32 56.7a25 25 0 0 1 -4.5 3.62v6.68a11.14 11.14 0 0 0 .14 2.16h-3a20.91 20.91 0 0 0 .1-2.16v-5.16a37.47 37.47 0 0 1 -5.6 2.16l-1.34-2.32a26.71 26.71 0 0 0 7.06-2.7 19.91 19.91 0 0 0 5.14-4.16z"/><path d="m453.22 53.48 1.26.82a10.1 10.1 0 0 0 -.44 1.38 20.19 20.19 0 0 1 -3.04 7.32 15.83 15.83 0 0 1 -8 5.52l-2.18-2.38a13.14 13.14 0 0 0 7.84-4.7 12.84 12.84 0 0 0 2.34-5.68h-9.3c-.92 0-1.86 0-2.38.08v-2.84a22.27 22.27 0 0 0 2.38.16h9.3a8.39 8.39 0 0 0 .94 0c-.34-.66-.74-1.36-1.12-1.94l1.64-.68a26.38 26.38 0 0 1 1.54 2.62zm2-3.46c.5.72 1.22 1.94 1.6 2.64l-1.66.72a23.71 23.71 0 0 0 -1.6-2.68z"/><path d="m473.92 53.82a9.45 9.45 0 0 0 -.7 1.24 29.4 29.4 0 0 1 -3.14 5.5 56.22 56.22 0 0 1 5.58 5.72l-2.28 2a45.61 45.61 0 0 0 -5-5.66 26.34 26.34 0 0 1 -7.52 5.62l-2.06-2.16a22.66 22.66 0 0 0 8.2-5.74 15.5 15.5 0 0 0 3-4.9h-6.78c-.84 0-1.94.12-2.36.14v-2.86a22.34 22.34 0 0 0 2.36.14h7a7.22 7.22 0 0 0 2.08-.26z"/><path d="m495.22 54.62a9.41 9.41 0 0 0 -.66 1.42 23 23 0 0 1 -2.76 5.48c.74.46 1.42.92 1.92 1.28l-1.82 2.34a23.16 23.16 0 0 0 -1.9-1.42 19.09 19.09 0 0 1 -7.38 5l-2.32-2a16.91 16.91 0 0 0 7.46-4.48c-1.36-.88-2.72-1.7-3.74-2.28l1.7-1.9c1.06.54 2.42 1.3 3.76 2.1a14.57 14.57 0 0 0 2.08-4.26h-5.74a23.54 23.54 0 0 1 -5.24 5.1l-2.16-1.66a18.31 18.31 0 0 0 6.38-6.64 8.85 8.85 0 0 0 .9-2.1l2.9.9c-.48.7-1 1.62-1.24 2h4.1a6.35 6.35 0 0 0 1.74-.22z"/><path d="m505.44 59-1.44 2.26c-1.14-.8-3.22-2.14-4.56-2.86l1.44-2.2c1.34.72 3.54 2.1 4.56 2.8zm1.6 4.56a20.25 20.25 0 0 0 7.78-7.5l1.55 2.72a24.26 24.26 0 0 1 -7.95 7.2 25.15 25.15 0 0 1 -6.68 2.46l-1.5-2.62a21.45 21.45 0 0 0 6.76-2.24zm1.46-9.08-1.5 2.22c-1.12-.78-3.2-2.12-4.52-2.86l1.44-2.2c1.34.72 3.54 2.14 4.58 2.86zm6 .62-1.74.74a18.07 18.07 0 0 0 -1.76-3.12l1.66-.7a30.1 30.1 0 0 1 1.8 3.1zm2.8-1.08-1.7.76a19.22 19.22 0 0 0 -1.88-3l1.7-.7a24.44 24.44 0 0 1 1.84 2.92z"/><path d="m534.12 54.82a15.76 15.76 0 0 0 2.09-.16v2.66c-.65 0-1.41-.06-2-.06h-2.58c.06 2.92.14 6.26.18 9 0 1.28-.72 2-2.24 2-1.22 0-2.34 0-3.48-.12l-.22-2.6a17 17 0 0 0 2.66.24c.5 0 .7-.26.7-.84 0-1.34 0-3.34 0-5.4a27.5 27.5 0 0 1 -8.16 6.76l-1.84-2.08a24.08 24.08 0 0 0 8.8-6.94h-5.46c-.72 0-1.58 0-2.28.08v-2.68a19.14 19.14 0 0 0 2.22.14h6.62q0-.78-.06-1.44c0-.58-.1-1.32-.2-2h2.84a17.11 17.11 0 0 0 -.12 2v1.44z"/><path d="m541.44 53.6 8.56-.76c2-.16 4.2-.28 5.6-.34v2.56a20.45 20.45 0 0 0 -3.82.26 6 6 0 0 0 -4.18 5.54c0 3.26 3 4.44 6.4 4.6l-.92 2.74c-4.16-.26-8.08-2.5-8.08-6.8a7.85 7.85 0 0 1 2.92-6.1c-1.72.18-5.88.62-8.18 1.12l-.26-2.72c.82-.02 1.58-.06 1.96-.1zm13 6.1-1.52.68a15.43 15.43 0 0 0 -1.56-2.78l1.48-.62a26.21 26.21 0 0 1 1.6 2.72zm2.32-1-1.5.72a17.59 17.59 0 0 0 -1.64-2.7l1.46-.68a29.92 29.92 0 0 1 1.68 2.68z"/><path d="m576.64 56c-1.2-.06-3.06-.1-5.74-.1v2.94a4.88 4.88 0 0 1 .74 2.74c0 2.58-1.52 5.86-6.36 7.22l-2.1-2.12a9.05 9.05 0 0 0 4.82-2.3 4.28 4.28 0 0 1 -.9.1 3.49 3.49 0 0 1 -3.42-3.64 3.73 3.73 0 0 1 4-3.7 4.75 4.75 0 0 1 .78.06v-1.32c-3 0-6.06.16-8.5.3l-.06-2.4c2.26 0 5.86-.1 8.52-.14a5.08 5.08 0 0 0 0-.6 13.4 13.4 0 0 0 -.18-1.72h2.88c-.06.32-.12 1.38-.14 1.7v.6h5.75zm-9 6.32c.82 0 1.56-.62 1.3-2.34a1.41 1.41 0 0 0 -1.3-.7 1.52 1.52 0 1 0 0 3z"/><path d="m585.14 65.66a3.23 3.23 0 1 1 -3.24-3.24 3.24 3.24 0 0 1 3.24 3.24zm-1.44 0a1.79 1.79 0 1 0 -1.8 1.78 1.79 1.79 0 0 0 1.8-1.78z"/><path d="m12.62 113.1a19.07 19.07 0 0 0 6.46 3.76 10.47 10.47 0 0 0 -1.7 2.06 19.82 19.82 0 0 1 -6.56-4.66v4.86h-2.46v-4.76a19.52 19.52 0 0 1 -6.44 4.52 13 13 0 0 0 -1.64-2 18.09 18.09 0 0 0 6.3-3.78h-4v-7.64h5.78v-1.14h-7.52v-2.22h7.52v-1.64h2.46v1.64h7.7v2.22h-7.7v1.14h6.1v7.64zm-7.78-4.68h3.52v-1.18h-3.52zm0 2.9h3.52v-1.22h-3.52zm6-4.08v1.18h3.66v-1.18zm3.68 2.86h-3.7v1.22h3.68z"/><path d="m26.48 114a18.13 18.13 0 0 1 -3.88 4.44 17.29 17.29 0 0 0 -1.94-1.44 12.21 12.21 0 0 0 3.34-3.82zm12.36-9.34h-17.62v-2.26h7.5v-1.92h2.52v1.92h7.6zm-7.6 7.78v4.22c0 1.2-.22 1.8-1.1 2.14a10.89 10.89 0 0 1 -3.66.36 9.55 9.55 0 0 0 -.76-2.28c1 0 2.28.06 2.6 0s.44-.08.44-.34v-4.14h-5.26v-6.4h13.22v6.38zm-5.36-2h8.32v-2.3h-8.32zm9.72 2.82a31.67 31.67 0 0 1 3.62 4.22l-2.34 1.18a30.09 30.09 0 0 0 -3.46-4.36z"/><path d="m45.14 118.76a37.54 37.54 0 0 0 -4.3-4.42l2.08-1.8a37.49 37.49 0 0 1 4.36 4.38z"/><path d="m55.76 113.58c.78.06 1.72.14 2.5.14h11.48a20.3 20.3 0 0 0 2.2-.14v3.06a21.73 21.73 0 0 0 -2.2-.12h-11.48c-.78 0-1.76.06-2.5.12zm1.68-9.78c.72.08 1.66.12 2.34.12h8.28c.8 0 1.66-.06 2.22-.12v2.9c-.58 0-1.52-.08-2.22-.08h-8.26c-.76 0-1.68 0-2.36.08z"/><path d="m88.52 115.2c.52 0 1.44 0 2-.08v2.58c-.4 0-1.38-.06-1.9-.06h-10.62c-.72 0-1.22 0-2 .06v-2.6a19.21 19.21 0 0 0 2 .1h6.48c.28-1.7.72-4.54.78-5.66h-5.36c-.64 0-1.42.06-2 .1v-2.64c.52.06 1.44.12 2 .12h5.1a4.75 4.75 0 0 0 1.5-.22l1.92.94a5.58 5.58 0 0 0 -.2.84c-.16 1.18-.68 4.62-1 6.52z"/><path d="m94.68 108.12c.72.06 2.18.12 3.22.12h10.74c.92 0 1.82-.08 2.34-.12v3.14c-.48 0-1.5-.1-2.34-.1h-10.74c-1.14 0-2.48 0-3.22.1z"/><path d="m129.42 116.62v1.5h-2.76c0-.24 0-.62 0-1h-9.34c-.72 0-1.62 0-2 .08v-2.66c.4 0 1.16.08 2.06.08h9.32v-3.54h-7.82c-.92 0-2.08 0-2.64 0v-2.56c.66.06 1.72.1 2.64.1h7.82v-3.22h-8.1c-.92 0-2.4 0-3 .06v-2.6c.66.06 2.1.1 3 .1h9.1 1.74v1.62z"/><path d="m133.88 108.12c.72.06 2.18.12 3.22.12h10.74c.92 0 1.82-.08 2.34-.12v3.14c-.48 0-1.5-.1-2.34-.1h-10.74c-1.14 0-2.48 0-3.22.1z"/><path d="m169.62 104.94a8 8 0 0 0 -.66 1.44 20.87 20.87 0 0 1 -3.48 6.68 18.84 18.84 0 0 1 -8.08 5.64l-2.4-2.12a15.94 15.94 0 0 0 8.06-4.94 14.22 14.22 0 0 0 2.84-5.46h-5.62a22.8 22.8 0 0 1 -5 4.84l-2.28-1.66a17.61 17.61 0 0 0 6.24-6.44 9.62 9.62 0 0 0 .9-2.1l2.92 1c-.48.7-1 1.6-1.22 2l-.06.1h4a6.41 6.41 0 0 0 1.74-.24z"/><path d="m175.54 118.76a37.54 37.54 0 0 0 -4.3-4.42l2.08-1.8a37.49 37.49 0 0 1 4.36 4.38z"/><path d="m197.94 102.44a26.58 26.58 0 0 1 5.38 5.64l-2.06 1.58a12.91 12.91 0 0 0 -1.28-1.82c-5.28.28-10.86.5-14.58.64l-.14-2.4 3.08-.08a34.32 34.32 0 0 0 2.94-5.7l2.74.88c-.84 1.58-1.84 3.26-2.8 4.72l6.78-.28c-.64-.64-1.3-1.24-1.92-1.78zm-10.56 7.86h13.32v8.78h-2.56v-.78h-8.32v.8h-2.44zm2.44 2.26v3.44h8.32v-3.46z"/><path d="m210.72 100.76h2.5v18.14h-2.5v-4.1c-1.52.66-3.06 1.3-4.36 1.84l-1.06-2.44c1.36-.4 3.4-1.1 5.42-1.82v-4.84h-4.72v-2.38h4.72zm10.4 15.62c.76 0 .88-.8 1-4a7 7 0 0 0 2.28 1.08c-.24 3.82-.82 5.28-3.06 5.28h-2.68c-2.28 0-2.94-.82-2.94-3.64v-14.3h2.46v6a39.76 39.76 0 0 0 4.1-3l1.72 2.14a59.13 59.13 0 0 1 -5.82 3.4v5.84c0 1.12.12 1.26.84 1.26z"/><path d="m232.34 118.76a37.54 37.54 0 0 0 -4.3-4.42l2.08-1.8a37.49 37.49 0 0 1 4.36 4.38z"/><path d="m243.6 110.18c.92-.92 2.48-2.88 3.84-4.52 1.2-1.42 2.28-1.56 3.92-.18a52.05 52.05 0 0 1 4.08 4.06c1.34 1.46 3.48 3.74 4.93 5.4l-2.15 2.32c-1.28-1.64-3.1-3.86-4.28-5.24a43.68 43.68 0 0 0 -3.68-4c-.7-.6-1-.6-1.62.12-.78 1-2.22 3-3 4.08-.46.62-.94 1.34-1.28 1.86l-2.36-2.38c.56-.5 1-.92 1.6-1.52zm13.7-3.46-1.8.78a18.85 18.85 0 0 0 -1.82-3.26l1.74-.72a31.91 31.91 0 0 1 1.88 3.2zm2.74-1.18-1.74.84a20.92 20.92 0 0 0 -1.92-3.18l1.72-.78a29.11 29.11 0 0 1 1.9 3.12z"/><path d="m263.64 116.64a9.43 9.43 0 0 0 3.4-4.78c.56-1.72.58-5.5.58-7.92a7.3 7.3 0 0 0 -.18-1.82h2.94a12.76 12.76 0 0 0 -.14 1.8 44.13 44.13 0 0 1 -.6 8.6 11.58 11.58 0 0 1 -3.56 5.74zm9.26.3a7.61 7.61 0 0 0 .16-1.48v-11.66a8.87 8.87 0 0 0 -.16-1.72h3a10.16 10.16 0 0 0 -.14 1.74v10.46a12.67 12.67 0 0 0 4.94-4.22l1.54 2.2a22 22 0 0 1 -6.78 5.46 5.1 5.1 0 0 0 -.88.6z"/><path d="m289.68 102c0 .44-.06.88-.06 1.52v6.76c0 .5 0 1.28.06 1.74h-3c0-.38.1-1.16.1-1.76v-6.74a13.6 13.6 0 0 0 -.08-1.52zm9.22-.18c0 .56-.08 1.2-.08 2v4c0 4.3-.84 6.14-2.32 7.78a11.62 11.62 0 0 1 -4.86 2.9l-2.1-2.2a9.36 9.36 0 0 0 4.9-2.52c1.36-1.5 1.62-3 1.62-6.12v-3.8a14.11 14.11 0 0 0 -.12-2z"/><path d="m311.62 112.88a19 19 0 0 0 7.28-7.78l1.56 2.82a21.27 21.27 0 0 1 -7.4 7.4 21.66 21.66 0 0 1 -7.42 2.82l-1.64-2.64a20.61 20.61 0 0 0 7.62-2.62zm0-6.48-2 2.1a41.58 41.58 0 0 0 -5-4.32l1.88-2a42 42 0 0 1 5.12 4.22z"/><path d="m331.06 115.86c.76-.1 1.32-.2 1.84-.32a5.36 5.36 0 0 0 4.5-5.3c0-2.74-1.48-4.78-4.14-5.24a43 43 0 0 1 -1.18 5.38c-1.18 4-2.9 6.44-5.06 6.44s-4-2.42-4-5.76c0-4.56 4-8.48 9.12-8.48 4.9 0 8 3.42 8 7.74 0 4.16-2.56 7.12-7.56 7.88zm-1.54-6a31.79 31.79 0 0 0 1.06-4.8 6.21 6.21 0 0 0 -5 5.74c0 2 .8 3 1.54 3s1.6-1.26 2.4-3.94z"/><path d="m353.62 103.7a33 33 0 0 1 -1.62 10.16 5.27 5.27 0 0 0 5.2 2.94h4a7.73 7.73 0 0 0 -.66 2.06h-3.46c-2.52 0-4.52-.6-6-2.92a10 10 0 0 1 -2.86 3.24 7.46 7.46 0 0 0 -1.3-1.64 8.32 8.32 0 0 0 3.08-3.86 24.43 24.43 0 0 1 -.72-2.58 11.67 11.67 0 0 1 -.74 1.74 11.37 11.37 0 0 0 -1.52-1.38c.18-.36.36-.74.52-1.14l-1 .42v6c0 1-.2 1.62-.78 2a5.14 5.14 0 0 1 -2.66.44 7.76 7.76 0 0 0 -.58-2.08h1.64s.32-.08.32-.34v-5.2l-1.74.7-.58-2.16c.66-.22 1.46-.5 2.32-.82v-3.06h-2v-2.22h2v-3.54h2.06v3.54h1.38v2.18h-1.38v2.3l1.16-.44.24 1.1a40.78 40.78 0 0 0 1.14-8.68l1.92.14c-.06 1-.14 2-.24 3h1.42.34zm-3.16 1.92c-.08.52-.16 1-.24 1.52a32.64 32.64 0 0 0 .66 3.72 31.23 31.23 0 0 0 .78-5.24zm5.6 1.54c0 2.56-.26 6.18-1.86 8.48a6.88 6.88 0 0 0 -1.46-1.3c1.36-2 1.48-4.94 1.48-7.18v-5.58h4.84v10.92a4.41 4.41 0 0 0 0 .86.13.13 0 0 0 .14.1h.14a.17.17 0 0 0 .18-.1 2.38 2.38 0 0 0 .1-.6c0-.38.06-1.16.06-2.18a4.68 4.68 0 0 0 1.42.8 18.43 18.43 0 0 1 -.2 2.56 1.52 1.52 0 0 1 -.5 1 1.45 1.45 0 0 1 -1 .28h-.82a1.54 1.54 0 0 1 -1.12-.44c-.28-.34-.4-.72-.4-2.28v-8.9h-1.06z"/><path d="m362.26 118a11 11 0 0 0 2.5-3.9l2.3.56a12.77 12.77 0 0 1 -2.6 4.4zm16.34-4.72h-13.86v-6.94h5.6v-5.88h2.42v1.76h7.16v2.22h-7.16v1.9h5.84zm-2.42-4.74h-9.18v2.54h9.18zm-5.88 6a26.79 26.79 0 0 1 .56 4.12l-2.42.3a28.63 28.63 0 0 0 -.4-4.2zm4-.24a21.71 21.71 0 0 1 1.52 4l-2.3.6a24.78 24.78 0 0 0 -1.4-4.08zm4-.4a23.37 23.37 0 0 1 2.62 4.18l-2.3.88a22.12 22.12 0 0 0 -2.46-4.3z"/><path d="m391.72 114.5c0-.58.06-1.5.08-2.36-1.46.8-2.26 1.58-2.26 2.56s.94 1.4 2.88 1.4a30.29 30.29 0 0 0 5.62-.58l-.04 2.58a54.8 54.8 0 0 1 -5.6.32c-3.1 0-5.44-.74-5.44-3.3s2.4-4.12 4.66-5.28a1.55 1.55 0 0 0 -1.38-.68 4.9 4.9 0 0 0 -3.1 1.36 25.37 25.37 0 0 0 -1.84 2.18l-2.12-1.58a19.36 19.36 0 0 0 4.36-5.44h-.24c-.8 0-2.26 0-3.34-.14v-2.32a25.41 25.41 0 0 0 3.48.22h1a11 11 0 0 0 .4-2.26l2.6.22c-.1.48-.24 1.16-.48 2a45.74 45.74 0 0 0 5.6-.58v2.32a64.52 64.52 0 0 1 -6.46.52 12.1 12.1 0 0 1 -1.14 2 6.2 6.2 0 0 1 2.24-.4 2.7 2.7 0 0 1 2.64 1.54c1-.48 1.86-.82 2.68-1.18s1.46-.68 2.18-1l1 2.3a21 21 0 0 0 -2.36.84c-.88.34-2 .78-3.22 1.34 0 1.1.06 2.56.08 3.46z"/><path d="m406.12 110.08c-.82-.58-2.54-1.52-3.72-2.16l1.28-1.76c1.1.54 2.88 1.4 3.76 1.94zm-3.44 7.2a59.11 59.11 0 0 0 3.8-6.3l1.74 1.6c-1.06 2.1-2.32 4.38-3.54 6.32zm4.3-12.66a41.39 41.39 0 0 0 -3.64-2.2l1.34-1.72c1.12.56 2.86 1.44 3.72 2zm8.86 3.9v2.48h4.08v8h-2.26v-.72h-6v.82h-2.16v-8.1h4.08v-2.52h-5.32v-2.28h5.32v-2.3c-1.32.2-2.64.34-3.9.46a8.38 8.38 0 0 0 -.66-2 39.36 39.36 0 0 0 9.34-1.88l1.85 1.88a25.94 25.94 0 0 1 -4.37 1.18v2.74h5.08v2.28zm1.82 4.68h-6v2.94h6z"/><path d="m431.68 101.64c-.12.52-.26 1.14-.36 1.64s-.26 1.32-.4 2c.66 0 1.26-.08 1.66-.08 2.1 0 3.58.94 3.58 3.78 0 2.34-.28 5.5-1.12 7.22a3.18 3.18 0 0 1 -3.26 1.82 11.06 11.06 0 0 1 -2.36-.28l-.44-2.62a11.4 11.4 0 0 0 2.42.42 1.44 1.44 0 0 0 1.48-.86 14.65 14.65 0 0 0 .82-5.42c0-1.58-.68-1.8-1.94-1.8-.32 0-.8 0-1.36.08-.76 3-2.2 7.66-4 10.58l-2.6-1a29.44 29.44 0 0 0 4-9.26c-.7.08-1.32.16-1.7.22-.56.06-1.58.2-2.2.3l-.22-2.68a18.39 18.39 0 0 0 2.1 0c.62 0 1.56-.08 2.56-.16a21.93 21.93 0 0 0 .42-4.2zm6.84 1.86a35.7 35.7 0 0 1 3.46 7.36l-2.5 1.18a22.87 22.87 0 0 0 -3.36-7.54z"/><path d="m449.9 101.58a20.33 20.33 0 0 0 -.26 2.64c-.1 2.12-.24 6.56-.24 9 0 2 1.2 2.64 2.72 2.64 3.28 0 5.36-1.88 6.78-4l1.8 2.22a10.31 10.31 0 0 1 -8.6 4.52c-3.24 0-5.34-1.42-5.34-4.8 0-2.66.2-7.86.2-9.56a12.44 12.44 0 0 0 -.26-2.68z"/><path d="m469.14 118.76a37.54 37.54 0 0 0 -4.3-4.42l2.08-1.8a37.49 37.49 0 0 1 4.36 4.38z"/><path d="m492.34 113.7v-.8h-2.68v.82h-2.4v-6.18h-2.72v8h12.46v2.3h-12.46v1.26h-2.46v-11.56h-2.84v-2.3h2.84v-4.24h2.46v4.2h2.72v-4.6h2.4v4.64h2.68v-4.44h2.4v4.44h3v2.3h-3v6.16zm0-3v-3.14h-2.68v3.14z"/><path d="m512.36 109.62a14.22 14.22 0 0 0 5.48 2.7 10.67 10.67 0 0 0 -1.58 2 14.62 14.62 0 0 1 -3.38-1.62v6.32h-2.48v-7h1.5a12.07 12.07 0 0 1 -2.34-2.4h-2.06a13.53 13.53 0 0 1 -2.4 2.38h1.7v1.38c0 1.9-.58 4.42-4.56 5.88a8.79 8.79 0 0 0 -1.64-1.92c3.34-1.1 3.74-2.78 3.74-4.06v-.72a16 16 0 0 1 -3.64 1.86 11 11 0 0 0 -1.56-2 15 15 0 0 0 5.4-2.84h-3.18v-8.5h14.26v8.5zm-8.62-5.14h3.5v-1.48h-3.5zm0 3.22h3.5v-1.44h-3.5zm9.4-4.66h-3.5v1.44h3.5zm0 3.22h-3.5v1.44h3.5z"/><path d="m528.52 114.5c0-.58.06-1.5.08-2.36-1.46.8-2.26 1.58-2.26 2.56s.94 1.4 2.88 1.4a30.29 30.29 0 0 0 5.62-.58l-.08 2.58a54.8 54.8 0 0 1 -5.6.32c-3.1 0-5.44-.74-5.44-3.3s2.4-4.12 4.66-5.28a1.55 1.55 0 0 0 -1.38-.68 4.9 4.9 0 0 0 -3.1 1.36 25.37 25.37 0 0 0 -1.84 2.18l-2.12-1.58a19.36 19.36 0 0 0 4.36-5.44h-.24c-.8 0-2.26 0-3.34-.14v-2.32a25.41 25.41 0 0 0 3.48.22h1a11 11 0 0 0 .4-2.26l2.6.22c-.1.48-.24 1.16-.48 2a45.74 45.74 0 0 0 5.6-.58v2.32a64.52 64.52 0 0 1 -6.46.52 12.1 12.1 0 0 1 -1.14 2 6.2 6.2 0 0 1 2.24-.4 2.7 2.7 0 0 1 2.64 1.54c1-.48 1.86-.82 2.68-1.18s1.46-.68 2.18-1l1 2.3a21 21 0 0 0 -2.36.84c-.88.34-2 .78-3.22 1.34 0 1.1.06 2.56.08 3.46z"/><path d="m557.48 116.94h-2.92v2.16h-2.26v-2.16h-5v-1.78h1.84v-1.7h-.82v-1.82h4v-1.16h-7.18a11.86 11.86 0 0 1 -.8 1.24h2.28l.36-.06 1.26.6a10.39 10.39 0 0 1 -7.26 6.88 7.66 7.66 0 0 0 -1.32-1.66 11.74 11.74 0 0 0 3.44-1.48 11.78 11.78 0 0 0 -1.62-1.5 11.59 11.59 0 0 1 -1 .68 11.69 11.69 0 0 0 -1.4-1.42 10 10 0 0 0 3.86-3.28h-2.94v-1.86h2.52v-1.3h-2.9v-1.9h2.9v-1.18c-.38.36-.8.72-1.24 1.06a7.07 7.07 0 0 0 -1.74-1.36 10.78 10.78 0 0 0 3.38-3.56l2.26.42a16.36 16.36 0 0 1 -.9 1.38h12.18v1.82h-1.88v1.38h2.76v1.9h-2.76v1.3h2.52v1.86h-2.52v1.16h2.42v1.82h-2.42v1.7h2.92zm-14.66-3.54a12.83 12.83 0 0 1 1.72 1.4 7.65 7.65 0 0 0 1.12-1.52h-2.72zm1.84-8h1.22v-1.4h-1.22zm0 3.2h1.22v-1.3h-1.22zm4.48-3.2v-1.4h-1.3v1.38zm-1.3 1.9v1.3h1.3v-1.3zm4.46 7.84v-1.7h-1.3v1.7zm.08-11.12h-1.28v1.38h1.28zm0 3.28h-1.28v1.3h1.28z"/><path d="m572.34 102.44a26.58 26.58 0 0 1 5.38 5.64l-2.06 1.58a12.91 12.91 0 0 0 -1.28-1.82c-5.28.28-10.86.5-14.58.64l-.14-2.4 3.08-.08a34.32 34.32 0 0 0 2.94-5.7l2.74.88c-.84 1.58-1.84 3.26-2.8 4.72l6.78-.28c-.64-.64-1.3-1.24-1.92-1.78zm-10.56 7.86h13.32v8.78h-2.56v-.78h-8.32v.8h-2.44zm2.44 2.26v3.44h8.32v-3.46z"/><path d="m584.36 102.12a16.65 16.65 0 0 0 -.48 1.76 49 49 0 0 0 -1 7.26 9.56 9.56 0 0 0 .08 1.28c.28-.7.6-1.36.88-2l1.24 1a47.75 47.75 0 0 0 -1.42 4.86 5.82 5.82 0 0 0 -.12.92v.82l-2.28.16a25.28 25.28 0 0 1 -.78-6.48 54.92 54.92 0 0 1 .82-7.84 14.8 14.8 0 0 0 .2-1.94zm4.64 9.78a6.52 6.52 0 0 0 -.24 1.66c0 .88.76 1.4 2.76 1.4a22.83 22.83 0 0 0 5-.52l.06 2.68a27.53 27.53 0 0 1 -5.12.4c-3.42 0-5-1.24-5-3.26a12.21 12.21 0 0 1 .34-2.58zm6.92-8.48v2.58a54.82 54.82 0 0 1 -8.5 0v-2.56a40.41 40.41 0 0 0 8.5-.02z"/><path d="m603.56 108c0 3.16-.32 8-2.2 11.06a9.14 9.14 0 0 0 -2-1.32c1.72-2.82 1.86-6.92 1.86-9.74v-5h7v-2.52h2.48v2.52h7.22v2.28h-14.36zm12.34 11.14a12.18 12.18 0 0 0 -.68-1.72c-4.22.34-8.7.66-11.8.84l-.22-2.46 2.34-.08a61.23 61.23 0 0 0 2.62-9.54l2.72.54a89.82 89.82 0 0 1 -2.78 8.88c1.9-.08 4-.18 6.06-.3a37.6 37.6 0 0 0 -2.34-3.7l2.22-1a32.13 32.13 0 0 1 4.33 7.4z"/><path d="m638.06 107.5v2.2h-17.62v-2.2h8v-2.3h-4.36a14 14 0 0 1 -1.64 2.26 13.76 13.76 0 0 0 -2.18-1.26 14.3 14.3 0 0 0 3.4-5.72l2.38.6a17.86 17.86 0 0 1 -.78 1.94h3.18v-2.6h2.56v2.58h5.84v2.18h-5.84v2.3zm-15.32 3.62h13.4v8h-2.56v-.92h-8.4v1h-2.44zm2.44 2.2v2.68h8.4v-2.7z"/><path d="m644.76 102.58c.18.36.58 1.18.8 1.54.3.58.62 1.22.92 1.88 2.4-1.06 4.8-2 6.82-2 3.08 0 4.92 1.86 4.92 4.16 0 2.78-1.9 4.52-4.94 4.52a9.58 9.58 0 0 1 -3-.56l.06-2.48a7.32 7.32 0 0 0 2.72.66c1.52 0 2.58-.8 2.58-2.22 0-1-.86-1.84-2.36-1.84a16.15 16.15 0 0 0 -5.82 1.8l.56 1.22c.92 2.16 2.44 6.4 3.12 8.62l-2.74.7a59.67 59.67 0 0 0 -2.66-8.22l-.52-1.22c-1.42.7-2.68 1.38-3.52 1.76l-1.16-2.54a11.79 11.79 0 0 0 2-.64c.58-.22 1.18-.48 1.78-.74-.3-.6-.58-1.16-.88-1.68a16.43 16.43 0 0 0 -1.16-1.74zm5.14 1.84a28.62 28.62 0 0 0 -2.58-2.36l1.82-1.28a30.25 30.25 0 0 1 2.64 2.28z"/><path d="m675.62 103.48 1.26.82a10.1 10.1 0 0 0 -.44 1.38 20.19 20.19 0 0 1 -3 7.28 15.83 15.83 0 0 1 -8 5.52l-2.18-2.38a13.14 13.14 0 0 0 7.84-4.7 12.84 12.84 0 0 0 2.36-5.64h-9.36c-.92 0-1.86 0-2.38.08v-2.84a22.27 22.27 0 0 0 2.38.16h9.26a8.39 8.39 0 0 0 .94 0c-.34-.66-.74-1.36-1.12-1.94l1.64-.68a26.38 26.38 0 0 1 1.54 2.64zm2-3.46c.5.72 1.22 1.94 1.6 2.64l-1.66.72a23.71 23.71 0 0 0 -1.6-2.68z"/><path d="m696.92 107.84a7.41 7.41 0 0 0 -.38.84 14.37 14.37 0 0 1 -3 5.54 15 15 0 0 1 -7.14 4.32l-2-2.26a13.48 13.48 0 0 0 6.94-3.5 8.68 8.68 0 0 0 2.06-3.46h-9.66c-.48 0-1.48 0-2.32.1v-2.6c.84.08 1.7.12 2.32.12h9.9a4.22 4.22 0 0 0 1.46-.2zm-13.62-5.84a16.86 16.86 0 0 0 2.08.1h7.7a18.86 18.86 0 0 0 2.16-.1v2.58c-.54 0-1.48-.06-2.2-.06h-7.66c-.64 0-1.5 0-2.08.06z"/><path d="m708.82 112.88a19 19 0 0 0 7.28-7.78l1.57 2.82a21.39 21.39 0 0 1 -7.41 7.4 21.66 21.66 0 0 1 -7.42 2.82l-1.68-2.64a20.61 20.61 0 0 0 7.66-2.62zm0-6.48-2 2.1a41.58 41.58 0 0 0 -5-4.32l1.88-2a42 42 0 0 1 5.12 4.22z"/><path d="m735.3 107.52a15.13 15.13 0 0 0 1.82-.12v2.6c-.5 0-1.26-.06-1.82-.06h-4.82a12.69 12.69 0 0 1 -1.28 5.14 9.6 9.6 0 0 1 -4 3.84l-2.34-1.7a8.17 8.17 0 0 0 3.62-2.86 8.59 8.59 0 0 0 1.24-4.42h-5.5c-.58 0-1.36 0-1.92.08v-2.62a15.23 15.23 0 0 0 1.92.12zm-10.56-2.72c-.68 0-1.54 0-2.14.06v-2.58a15 15 0 0 0 2.14.16h6.54a15.7 15.7 0 0 0 2.16-.16v2.58c-.68 0-1.46-.06-2.16-.06zm9.88-.46a27.49 27.49 0 0 0 -1.58-2.78l1.6-.66c.5.74 1.2 2 1.58 2.74zm2.4-.92a23.6 23.6 0 0 0 -1.6-2.76l1.58-.66a28.77 28.77 0 0 1 1.61 2.72z"/><path d="m755.12 106.7a25 25 0 0 1 -4.5 3.62v6.68a11.14 11.14 0 0 0 .14 2.16h-3a20.91 20.91 0 0 0 .1-2.16v-5.14a37.47 37.47 0 0 1 -5.64 2.18l-1.34-2.32a26.71 26.71 0 0 0 7.12-2.72 19.91 19.91 0 0 0 5.14-4.16z"/><path d="m766.82 112.88a19 19 0 0 0 7.28-7.78l1.57 2.82a21.39 21.39 0 0 1 -7.41 7.4 21.66 21.66 0 0 1 -7.42 2.82l-1.68-2.64a20.61 20.61 0 0 0 7.66-2.62zm0-6.48-2 2.1a41.58 41.58 0 0 0 -5-4.32l1.88-2a42 42 0 0 1 5.12 4.22z"/><path d="m792.92 104.36 1.7 1a8.47 8.47 0 0 0 -.66 1.42 20.18 20.18 0 0 1 -3.5 6.68 18.63 18.63 0 0 1 -8.06 5.66l-2.4-2.12a16 16 0 0 0 8.06-5 14.15 14.15 0 0 0 2.84-5.44h-5.6a22 22 0 0 1 -5 4.84l-2.3-1.6a17.11 17.11 0 0 0 6.24-6.42 8.74 8.74 0 0 0 .9-2.1l2.94 1c-.48.7-1 1.6-1.24 2l-.06.1h4a6.3 6.3 0 0 0 1.74-.24l.14.08a23.19 23.19 0 0 0 -1.46-2.58l1.58-.64a29.28 29.28 0 0 1 1.58 2.74zm2.26-4.26a28.56 28.56 0 0 1 1.62 2.72l-1.6.68a19 19 0 0 0 -1.6-2.76z"/><path d="m806.88 101.64c-.12.52-.26 1.14-.36 1.64s-.26 1.32-.4 2c.66 0 1.26-.08 1.66-.08 2.1 0 3.58.94 3.58 3.78 0 2.34-.28 5.5-1.12 7.22a3.18 3.18 0 0 1 -3.26 1.82 11.06 11.06 0 0 1 -2.36-.28l-.44-2.62a11.4 11.4 0 0 0 2.42.42 1.44 1.44 0 0 0 1.48-.86 14.65 14.65 0 0 0 .82-5.42c0-1.58-.68-1.8-1.94-1.8-.32 0-.8 0-1.36.08-.76 3-2.2 7.66-4 10.58l-2.6-1a29.44 29.44 0 0 0 4-9.26c-.7.08-1.32.16-1.7.22-.56.06-1.58.2-2.2.3l-.22-2.68a18.39 18.39 0 0 0 2.1 0c.62 0 1.56-.08 2.56-.16a21.93 21.93 0 0 0 .42-4.2zm6.84 1.86a35.7 35.7 0 0 1 3.46 7.36l-2.5 1.18a22.87 22.87 0 0 0 -3.36-7.54z"/><path d="m824.14 109.94a9.71 9.71 0 0 1 5.82-1.88c3.48 0 5.5 2.14 5.5 4.54 0 3.62-2.86 6.4-11.1 5.68l-.76-2.6c5.94.84 9.08-.62 9.08-3.14 0-1.28-1.22-2.22-3-2.22a6.94 6.94 0 0 0 -5.46 2.32 4.29 4.29 0 0 0 -.74 1.16l-2.3-.58a72.12 72.12 0 0 0 1-8.26l2.68.36c-.24 1.1-.58 3.48-.72 4.62zm.62-8.6a62.7 62.7 0 0 0 7.92 1.54l-.6 2.44c-2-.26-6.42-1.18-8-1.58z"/><path d="m843.94 118.76a37.54 37.54 0 0 0 -4.3-4.42l2.08-1.8a37.49 37.49 0 0 1 4.36 4.38z"/><path d="m16.36 157.28a15.39 15.39 0 0 0 1.82-.12v2.6c-.5 0-1.26-.06-1.82-.06h-4.82a12.69 12.69 0 0 1 -1.28 5.14 9.6 9.6 0 0 1 -4 3.84l-2.36-1.68a8.31 8.31 0 0 0 3.62-2.86 8.59 8.59 0 0 0 1.24-4.42h-5.5c-.58 0-1.36 0-1.92.08v-2.62c.6.06 1.3.12 1.92.12zm-10.54-2.74c-.7 0-1.54 0-2.14.08v-2.62a14.9 14.9 0 0 0 2.12.14h8a15.67 15.67 0 0 0 2.2-.14v2.58c-.7 0-1.46-.08-2.16-.08z"/><path d="m23.54 166.58a2.61 2.61 0 0 0 .26-1.3v-10.84a12.36 12.36 0 0 0 -.22-2.26h3.14a14.17 14.17 0 0 0 -.2 2.26v10.38a22.7 22.7 0 0 0 10.28-6.6l1.42 2.26c-2.74 3.28-6.9 5.66-11.6 7.2a5.64 5.64 0 0 0 -1.2.54z"/><path d="m45.62 164.22c0 .86.4 1.08 1.3 1.26a18.71 18.71 0 0 0 2.32.12 33.88 33.88 0 0 0 7-.7v2.92a56.83 56.83 0 0 1 -7.12.42 22 22 0 0 1 -3.36-.24c-1.76-.3-2.76-1.26-2.76-3v-10.9a16.83 16.83 0 0 0 -.16-2.08h3a15.26 15.26 0 0 0 -.16 2.08v3.78a50.44 50.44 0 0 0 6.92-2.22 12.93 12.93 0 0 0 2.18-1.08l1.08 2.54c-.78.32-1.68.7-2.34.94a69 69 0 0 1 -7.84 2.44zm8.76-9.62a22.16 22.16 0 0 0 -1.56-2.76l1.58-.66c.5.74 1.22 2 1.6 2.74zm2.38-4.32a24.9 24.9 0 0 1 1.62 2.72l-1.58.68a21.2 21.2 0 0 0 -1.62-2.76z"/><path d="m73 157.8a18.7 18.7 0 0 0 6.24 2.7 10.2 10.2 0 0 0 -1.58 2c-.46-.14-.92-.32-1.38-.5v7h-2.4v-.54h-8.34v.62h-2.28v-7.22c-.52.24-1 .44-1.56.62a10.41 10.41 0 0 0 -1.46-1.82 18.82 18.82 0 0 0 5.92-2.92h-5.42v-1.94h3.86a10.71 10.71 0 0 0 -1.18-2l1-.34h-2a7 7 0 0 0 -.48-1.8 93.2 93.2 0 0 0 13.66-1.2l1.5 1.72c-1 .2-2.16.38-3.36.54l2.46.6c-.54.86-1.12 1.76-1.6 2.44h4v1.94zm1.68 3.46a17.21 17.21 0 0 1 -3.92-2.82v2.48h-2.36v-2.38a19.07 19.07 0 0 1 -3.82 2.72zm-6.2 1.74h-2.94v1.06h2.94zm-2.94 3.68h2.94v-1.08h-2.94zm2.86-13.4c-.9.06-1.78.1-2.68.14a8.56 8.56 0 0 1 1.2 2l-.92.36h2.4zm5.48 9.72h-3.18v1.06h3.18zm0 3.68v-1.08h-3.18v1.08zm-1.62-11.08a16.84 16.84 0 0 0 1.26-2.8c-.9.12-1.82.22-2.78.3v2.72h2.26z"/><path d="m83 162.48a18.49 18.49 0 0 1 -1.2 5.16 11.76 11.76 0 0 0 -1.82-.86 14.54 14.54 0 0 0 1.06-4.64zm2.46-1.56v8.22h-2.1v-8.06l-3 .2-.2-2.08 1.48-.06c.3-.38.62-.8.92-1.24a18.84 18.84 0 0 0 -2.4-2.74l1.12-1.64.48.42a26.44 26.44 0 0 0 1.46-3.48l2.1.74c-.72 1.38-1.54 2.92-2.26 4 .26.28.5.58.7.84a31.27 31.27 0 0 0 1.84-3.28l2 .84a64.39 64.39 0 0 1 -3.82 5.42l2-.08c-.22-.48-.46-1-.7-1.38l1.68-.74a16.31 16.31 0 0 1 1.84 4.22l-1.8.84a10.88 10.88 0 0 0 -.28-1.08zm1.8 1.1a22.81 22.81 0 0 1 1.3 3.76l-1.88.66a20.36 20.36 0 0 0 -1.18-3.86zm11.74 4.42v2.14h-11.66v-2.14h1.84v-15h8.52v15zm-7.56-12.86v2.78h3.86v-2.78zm3.82 4.9h-3.78v2.86h3.82zm-3.82 8h3.86v-3h-3.82z"/><path d="m105.54 168.76a37.54 37.54 0 0 0 -4.3-4.42l2.08-1.8a37.49 37.49 0 0 1 4.36 4.38z"/><path d="m129.44 155.26a13.11 13.11 0 0 0 2.08-.14v2.74c-.74-.06-1.62-.08-2.08-.08h-2.8c-.36 5.32-2.44 8.88-6.06 11.16l-2.7-1.8a7.81 7.81 0 0 0 1.9-1.12c2.1-1.6 3.76-4.06 4.08-8.24h-4.22a16.47 16.47 0 0 1 -3.24 4.2l-2.5-1.5a16 16 0 0 0 3.46-4.12 14.29 14.29 0 0 0 1.16-2.74 7.88 7.88 0 0 0 .42-2l3.08.6c-.22.5-.48 1.2-.64 1.64s-.34.92-.56 1.44zm-.78-.62a27.49 27.49 0 0 0 -1.58-2.78l1.6-.64a29.28 29.28 0 0 1 1.58 2.74zm2.4-.92a23.6 23.6 0 0 0 -1.6-2.76l1.58-.66a26.61 26.61 0 0 1 1.6 2.72z"/><path d="m135.08 158.12c.72.06 2.18.12 3.22.12h10.7c.92 0 1.82-.08 2.34-.12v3.14c-.48 0-1.5-.1-2.34-.1h-10.7c-1.14 0-2.48 0-3.22.1z"/><path d="m169.2 168.28c-.26-.68-.58-1.5-.94-2.36-3.26.38-9.32 1-11.84 1.28l-1.88.24-.46-2.92h2.2.54c1.16-3 2.88-8.44 3.46-10.52a14.84 14.84 0 0 0 .48-2.3l3.18.64a22.75 22.75 0 0 0 -.86 2.22c-.64 2-2.26 7-3.26 9.72 2.44-.24 5.28-.56 7.3-.8a24.17 24.17 0 0 0 -2.1-3.66l2.5-1a61.51 61.51 0 0 1 4.38 8.32z"/><path d="m178.74 168.76a37.54 37.54 0 0 0 -4.3-4.42l2.08-1.8a37.49 37.49 0 0 1 4.36 4.38z"/><path d="m198.56 153.18a8.85 8.85 0 0 0 1.14-.08 2.22 2.22 0 0 1 0-.38 2.39 2.39 0 1 1 2.4 2.38 1.14 1.14 0 0 1 -.26 0l-.16.6a20.19 20.19 0 0 1 -3 7.28 15.83 15.83 0 0 1 -8 5.52l-2.18-2.38a13.14 13.14 0 0 0 7.84-4.7 12.84 12.84 0 0 0 2.36-5.64h-9.4c-.92 0-1.86 0-2.38.08v-2.86a22.27 22.27 0 0 0 2.38.16zm4.64-.46a1.15 1.15 0 1 0 -1.14 1.14 1.16 1.16 0 0 0 1.14-1.14z"/><path d="m223.22 164.94v2.78h-2.72v-1.1h-9.64v1.1h-2.76c0-.1.06-1.84.06-2.8v-9.78c0-.56 0-1.38 0-1.94h2.12 11 2v1.94zm-12.34-9.16v8.3h9.66v-8.3z"/><path d="m242.48 154.18 1.46.9a10.72 10.72 0 0 0 -.66 1.44 21.86 21.86 0 0 1 -2.76 5.46c.74.48 1.42.92 1.92 1.28l-1.8 2.36c-.48-.42-1.14-.9-1.86-1.42a19.24 19.24 0 0 1 -7.38 5l-2.32-2a16.71 16.71 0 0 0 7.44-4.48c-1.34-.88-2.7-1.7-3.72-2.28l1.68-1.9c1.06.54 2.42 1.3 3.76 2.1a14.57 14.57 0 0 0 2.08-4.26h-5.74a23.87 23.87 0 0 1 -5.26 5.16l-2.16-1.66a18.55 18.55 0 0 0 6.36-6.64 9.22 9.22 0 0 0 .9-2.1l2.9.9c-.48.7-1 1.6-1.22 2h4.1a6.59 6.59 0 0 0 1.58-.18 22.69 22.69 0 0 0 -1.32-2.28l1.54-.58a29.28 29.28 0 0 1 1.58 2.74zm1.9-4.12a26.27 26.27 0 0 1 1.62 2.72l-1.6.68a19 19 0 0 0 -1.6-2.76z"/><path d="m264.42 154.94a8 8 0 0 0 -.66 1.44 20.87 20.87 0 0 1 -3.48 6.68 18.84 18.84 0 0 1 -8.08 5.64l-2.36-2.12a15.94 15.94 0 0 0 8.06-4.94 14.22 14.22 0 0 0 2.84-5.46h-5.62a22.8 22.8 0 0 1 -5 4.84l-2.24-1.66a17.61 17.61 0 0 0 6.24-6.44 9.62 9.62 0 0 0 .9-2.1l2.92 1c-.48.7-1 1.6-1.22 2l-.06.1h4a6.41 6.41 0 0 0 1.74-.24z"/><path d="m281.48 162.78a57.77 57.77 0 0 0 -7.22-3v5.66c0 .58.1 2 .18 2.78h-3.12a21.4 21.4 0 0 0 .2-2.78v-11.44a14 14 0 0 0 -.2-2.42h3.12a21.75 21.75 0 0 0 -.18 2.42v2.94a65.32 65.32 0 0 1 8.36 3.1z"/><path d="m296.72 155.72a29 29 0 0 1 -3.44.68 36.56 36.56 0 0 1 -4.24 8.48l-2.42-1.22a30.22 30.22 0 0 0 4-7c-.34 0-.68 0-1 0-.82 0-1.62 0-2.48-.06l-.14-2.3a25.18 25.18 0 0 0 2.64.14c.58 0 1.18 0 1.78-.06a16.86 16.86 0 0 0 .54-3.32l2.74.28c-.16.64-.4 1.64-.68 2.7a20.92 20.92 0 0 0 2.66-.62zm2.6 1.78c-.06.84 0 1.66 0 2.54 0 .56.06 1.52.12 2.5a13.19 13.19 0 0 1 4.1 2.54l-1.32 2.12a17.63 17.63 0 0 0 -2.68-2.1v.18c0 1.84-1 3.28-3.82 3.28-2.46 0-4.4-1.1-4.4-3.28 0-1.94 1.62-3.44 4.38-3.44.46 0 .92 0 1.34.08-.06-1.48-.16-3.22-.22-4.42zm-2.18 6.56a7 7 0 0 0 -1.6-.2c-1.14 0-1.88.48-1.88 1.18s.62 1.24 1.7 1.24c1.34 0 1.78-.78 1.78-1.84zm5.58-5.5a26.41 26.41 0 0 0 -4.76-2.82l1.28-2a35.64 35.64 0 0 1 4.88 2.68z"/><path d="m320.84 156.32c-.6.36-1.22.7-2 1.06a54.44 54.44 0 0 0 -4.84 2.62c-1.64 1.08-2.74 2.22-2.74 3.6s1.36 2.18 4.12 2.18a33.09 33.09 0 0 0 6.46-.72v2.84a36.39 36.39 0 0 1 -6.36.5c-3.94 0-6.92-1.1-6.92-4.52 0-2.18 1.38-3.8 3.28-5.2-.9-1.68-1.86-3.8-2.76-5.9l2.5-1a46.44 46.44 0 0 0 2.48 5.48c1.46-.86 2.86-1.56 3.78-2.1a13.07 13.07 0 0 0 1.76-1.16zm.3-4.88a29.53 29.53 0 0 1 1.6 2.74l-1.62.68a23.94 23.94 0 0 0 -1.56-2.78zm2.38-.92a25.07 25.07 0 0 1 1.6 2.74l-1.58.68a21.2 21.2 0 0 0 -1.62-2.76z"/><path d="m334.26 165.86c.76-.1 1.32-.2 1.84-.32a5.36 5.36 0 0 0 4.5-5.3c0-2.74-1.48-4.78-4.14-5.24a43 43 0 0 1 -1.18 5.38c-1.18 4-2.9 6.44-5.06 6.44s-4-2.42-4-5.76c0-4.56 4-8.48 9.12-8.48 4.9 0 8 3.42 8 7.74 0 4.16-2.56 7.12-7.56 7.88zm-1.54-6a31.79 31.79 0 0 0 1.06-4.8 6.21 6.21 0 0 0 -5 5.74c0 2 .8 3 1.54 3s1.6-1.26 2.4-3.94z"/><path d="m359.4 167.82c0-.32 0-.66 0-1h-9.1c-.78 0-1.92.06-2.58.12v-2.94c.7.06 1.6.12 2.5.12h9.22v-8.28h-9c-.84 0-1.92 0-2.48.08v-2.78c.74.08 1.78.12 2.48.12h10.06 1.76c0 .46-.06 1.26-.06 1.84v10.36c0 .7 0 1.76.08 2.36z"/><path d="m375.22 162.88a19 19 0 0 0 7.28-7.78l1.56 2.82a21.27 21.27 0 0 1 -7.4 7.4 21.66 21.66 0 0 1 -7.42 2.82l-1.68-2.64a20.61 20.61 0 0 0 7.66-2.62zm0-6.48-2 2.1a41.58 41.58 0 0 0 -5-4.32l1.88-2a42 42 0 0 1 5.12 4.22z"/><path d="m402.76 157.28a15.39 15.39 0 0 0 1.82-.12v2.6c-.5 0-1.26-.06-1.82-.06h-4.82a12.69 12.69 0 0 1 -1.28 5.14 9.6 9.6 0 0 1 -4 3.84l-2.36-1.68a8.31 8.31 0 0 0 3.62-2.86 8.59 8.59 0 0 0 1.24-4.42h-5.5c-.58 0-1.36 0-1.92.08v-2.62c.6.06 1.3.12 1.92.12zm-10.54-2.74c-.7 0-1.54 0-2.14.08v-2.62a14.9 14.9 0 0 0 2.12.14h8a15.67 15.67 0 0 0 2.16-.14v2.58c-.7 0-1.46-.08-2.16-.08z"/><path d="m415.62 162.88a19 19 0 0 0 7.28-7.78l1.56 2.82a21.27 21.27 0 0 1 -7.4 7.4 21.66 21.66 0 0 1 -7.42 2.82l-1.64-2.64a20.61 20.61 0 0 0 7.62-2.62zm0-6.48-2 2.1a41.58 41.58 0 0 0 -5-4.32l1.88-2a42 42 0 0 1 5.12 4.22z"/><path d="m432.66 158.64-2.58.94a49.88 49.88 0 0 0 -2.3-5.66l2.56-.88c.66 1.26 1.86 4.24 2.32 5.6zm12.34-5.24a14 14 0 0 0 -.5 1.56 22.85 22.85 0 0 1 -3.36 7.52 18.11 18.11 0 0 1 -7.86 5.86l-2.24-2.24a16 16 0 0 0 7.9-5.16 18.24 18.24 0 0 0 3.08-8.4zm-7 3.76-2.52.88a51.17 51.17 0 0 0 -2.08-5.42l2.5-.82a48.34 48.34 0 0 1 2.1 5.36z"/><path d="m452.76 152.58c.18.36.58 1.18.8 1.54.3.58.62 1.22.92 1.88 2.4-1.06 4.8-2 6.82-2 3.08 0 4.92 1.86 4.92 4.16 0 2.78-1.9 4.52-4.94 4.52a9.58 9.58 0 0 1 -3-.56l.06-2.48a7.32 7.32 0 0 0 2.72.66c1.52 0 2.58-.8 2.58-2.22 0-1-.86-1.84-2.36-1.84a16.15 16.15 0 0 0 -5.82 1.8l.56 1.22c.92 2.16 2.44 6.4 3.12 8.62l-2.74.7a59.67 59.67 0 0 0 -2.66-8.22l-.52-1.22c-1.42.7-2.68 1.38-3.52 1.76l-1.16-2.54a11.79 11.79 0 0 0 2-.64c.58-.22 1.18-.48 1.78-.74-.3-.6-.58-1.16-.88-1.68a16.43 16.43 0 0 0 -1.16-1.74zm5.14 1.84a28.62 28.62 0 0 0 -2.58-2.36l1.82-1.28a30.25 30.25 0 0 1 2.64 2.28z"/><path d="m475.6 162.5c.72.5 2.38 1.82 2.84 2.18l-1.38 1.7a18.72 18.72 0 0 0 -1.46-1.56v4.26h-2.3v-4a14.13 14.13 0 0 1 -2.54 2.82 8.79 8.79 0 0 0 -1.54-1.68 13.12 13.12 0 0 0 3.6-3.86h-3v-2h3.52v-1.56h-3.58v-2h1.84a9 9 0 0 0 -.6-2.2l1.22-.28h-2.24v-1.94h3.36v-1.78h2.3v1.82h3.32v1.94h-2.06l1.16.22c-.36.86-.68 1.66-1 2.26h2v2h-3.46v1.54h3.3v2h-3.3zm-2.76-8.14a7.89 7.89 0 0 1 .68 2.2l-1 .28h3.92l-1.32-.28a15 15 0 0 0 .74-2.2zm15.33 4.86h-1.91v9.78h-2.26v-9.78h-2c0 3-.44 7.2-3.08 9.94a5.48 5.48 0 0 0 -1.7-1.62c2.3-2.44 2.54-5.84 2.54-8.6v-6.94l1.4.4a23.33 23.33 0 0 0 5.08-1.76l1.9 1.74a32.41 32.41 0 0 1 -6.14 1.84v2.78h6.25z"/><path d="m497.08 166.12a32.35 32.35 0 0 0 -2-2.88 9.87 9.87 0 0 1 -3.26 5.62 8.63 8.63 0 0 0 -1.62-1.7c2.2-1.62 2.9-4.36 3.1-6.88h-2.82v-2.16h2.9v-2.52h-2.6v-2.1h2.6v-2.86h2.22v2.86h2.5v2.1h-2.5v2.52h2.82v2.16h-2.9v.48c.84.86 2.76 3.06 3.2 3.62zm9.7.54c.32 0 .4-.26.44-2.36a6.7 6.7 0 0 0 2 .86c-.2 2.84-.74 3.56-2.16 3.56h-1.36c-1.76 0-2.14-.66-2.14-2.62v-3.48h-1c-.34 2.94-1.24 5.18-4.76 6.52a6.31 6.31 0 0 0 -1.28-1.78c2.92-1 3.54-2.62 3.8-4.74h-1.32v-11.48h8.88v11.48h-2.14v3.44c0 .54 0 .6.34.6zm-5.56-12.24h4.38v-1.18h-4.38zm0 3.06h4.38v-1.18h-4.38zm0 3h4.38v-1.18h-4.38z"/><path d="m529.29 163.56h-2.08v3.44h-2.43v-.82h-3.6v.62c0 1.18-.28 1.66-1.06 2a10.53 10.53 0 0 1 -3.54.34 7.33 7.33 0 0 0 -.78-1.88h2.46s.5-.14.5-.5v-.62h-6.08v-1.64h6.08v-.94h-7.92v-1.82h7.92v-.86h-5.92v-1.6h5.92v-.88h-5.42v-4h5.42v-.82h-7.46v-1.88h7.46v-1.3h2.42v1.3h7.65v1.88h-7.65v.82h5.68v4h-5.68v.88h6v2.46h2.08zm-10.53-6.66v-1h-3.14v1zm2.42-1v1h3.24v-1zm0 5.8h3.6v-.86h-3.6zm3.6 1.82h-3.6v.94h3.6z"/><path d="m543.16 164.56a17.87 17.87 0 0 0 6.34 2.18 10.74 10.74 0 0 0 -1.59 2.16 17 17 0 0 1 -6.73-3.38v3.6h-2.34v-3.48a19 19 0 0 1 -6.7 3.24 11.09 11.09 0 0 0 -1.52-2 21 21 0 0 0 6.32-2.34h-5.74v-2h7.64v-.88h-5.76v-1.66h5.76v-.9h-6.76v-1.86h3.8a9 9 0 0 0 -.68-1.56h.24-4.18v-1.98h2.68a17.93 17.93 0 0 0 -1.24-2.48l2-.7a15.13 15.13 0 0 1 1.52 2.82l-1 .36h1.82v-3.26h2.22v3.26h1.48v-3.26h2.26v3.26h1.78l-.72-.22a16.11 16.11 0 0 0 1.26-2.9l2.51.6c-.57.92-1.11 1.82-1.57 2.52h2.61v1.94h-3.77c-.32.58-.64 1.12-.94 1.6h3.92v1.86h-6.94v.9h6v1.72h-6v.88h7.86v2zm-5.44-8.92a9.85 9.85 0 0 1 .68 1.54l-.34.06h3.74c.24-.48.48-1.06.7-1.6z"/><path d="m554.38 158.28v10.84h-2.32v-17.92h7.7v7.08zm0-5.38v1h3.14v-1zm3.14 3.66v-1.1h-3.14v1.1zm5.86 8.06v4.12h-2.08v-4.12h-1.92a6.51 6.51 0 0 1 -2.56 4.48 9 9 0 0 0 -1.52-1.36 4.69 4.69 0 0 0 2-3.12h-2v-1.94h2.1v-1.5h-1.8v-1.88h9.66v1.88h-1.88v1.5h2.2v1.94zm-2.08-1.94v-1.5h-1.86v1.5zm7.62 3.66c0 1.22-.22 1.88-.94 2.26a7.11 7.11 0 0 1 -3.28.46 8.46 8.46 0 0 0 -.72-2.36h2.18s.42-.12.42-.4v-8h-5.5v-7.1h7.84zm-5.58-13.44v1h3.24v-1zm3.24 3.7v-1.14h-3.24v1.14z"/><path d="m584.46 159.44v2.26h4.26v2.18h-4.26v2.12c0 .72.08.84.64.84h1.54c.52 0 .62-.4.7-2.28a5.92 5.92 0 0 0 2.14.94c-.23 2.64-.86 3.44-2.62 3.44h-2.18c-2.16 0-2.7-.7-2.7-2.92v-2.18h-2.64c-.44 2.1-1.76 4.08-5.46 5.32a9.07 9.07 0 0 0 -1.52-1.9c2.76-.84 4-2.08 4.46-3.42h-4v-2.14h4.28v-2.26h-1.68v-.66a16.35 16.35 0 0 1 -2.66 1.58 10.34 10.34 0 0 0 -1.44-1.8 12.37 12.37 0 0 0 3.32-2.06 21.35 21.35 0 0 0 -2-1.7l1.5-1.24c.6.42 1.36 1 1.92 1.48a11.19 11.19 0 0 0 1.26-1.8h-4.02v-2h5.22l.42-.08 1.6.74a13.71 13.71 0 0 1 -3.26 5.32h7.24a18.3 18.3 0 0 1 -3.64-6.12l2.14-.6a13.89 13.89 0 0 0 1 2.14 18.89 18.89 0 0 0 1.78-1.86l1.8 1.28c-.82.74-1.74 1.52-2.56 2.12.28.36.58.7.9 1a19.37 19.37 0 0 0 2.24-2.16l1.74 1.24a32.83 32.83 0 0 1 -2.64 2.16 12.45 12.45 0 0 0 3.1 1.82 9 9 0 0 0 -1.63 2.06 13.67 13.67 0 0 1 -2.47-1.5v.64zm-2.48 0h-2.46v2.26h2.48z"/><path d="m606.48 167.48a15 15 0 0 0 -4-2.74v.7c0 1.7-1.28 3-3.9 3-3.16 0-4.84-1.2-4.84-3.3s1.84-3.4 4.9-3.4a12.16 12.16 0 0 1 1.22.06c0-.6-.06-1.22-.08-1.8h-1c-1.16 0-3.44-.1-4.76-.26v-2.34a35.93 35.93 0 0 0 4.78.36h.94v-2.06h-.94a33 33 0 0 1 -4.3-.3v-2.26a26.22 26.22 0 0 0 4.3.38h1v-.9a7.93 7.93 0 0 0 -.1-1.36h2.7a13.24 13.24 0 0 0 -.14 1.4v.78a41.5 41.5 0 0 0 4.72-.48l.06 2.28c-1.3.12-2.9.28-4.8.38v2.06c2-.08 3.66-.26 5.28-.46v2.34c-1.78.2-3.32.34-5.24.4 0 .74.08 1.54.14 2.3a15.32 15.32 0 0 1 5.54 3zm-6.48-3.56a10.61 10.61 0 0 0 -1.62-.14c-1.4 0-2.16.54-2.16 1.22s.7 1.22 2.06 1.22c1.06 0 1.74-.32 1.74-1.46-.02-.22-.02-.5-.02-.84z"/><path d="m612.24 153.6 8.56-.76c2-.16 4.2-.28 5.6-.34v2.56a20.45 20.45 0 0 0 -3.82.26 6 6 0 0 0 -4.18 5.54c0 3.26 3 4.44 6.4 4.6l-.92 2.74c-4.16-.26-8.08-2.5-8.08-6.8a7.85 7.85 0 0 1 2.92-6.1c-1.72.18-5.88.62-8.18 1.12l-.26-2.72c.82-.02 1.58-.06 1.96-.1zm13 6.1-1.52.68a15.43 15.43 0 0 0 -1.56-2.78l1.48-.62a26.21 26.21 0 0 1 1.6 2.72zm2.32-1-1.5.72a17.59 17.59 0 0 0 -1.64-2.7l1.46-.68a29.92 29.92 0 0 1 1.68 2.68z"/><path d="m635.14 168.76a37.54 37.54 0 0 0 -4.3-4.42l2.08-1.8a37.49 37.49 0 0 1 4.36 4.38z"/><path d="m6.26 212.82c-.24-.58-.66-1.48-1.1-2.34v8.62h-2.16v-7.48a16.87 16.87 0 0 1 -1.82 3.94 11.41 11.41 0 0 0 -1-2.1 20 20 0 0 0 2.68-6.7h-2.26v-2.2h2.4v-4.12h2.16v4.12h2v2.2h-2v.88c.54.74 2 2.94 2.32 3.48zm5.46 2.7c-1.4.82-3 1.7-4.24 2.4l-1-2c1.18-.54 2.94-1.44 4.64-2.32zm7.06-4c-.84.86-1.86 1.82-2.64 2.46a8.2 8.2 0 0 0 3.12 2.26 8.85 8.85 0 0 0 -1.5 1.92 9.49 9.49 0 0 1 -3.54-3.52v2.08c0 1.08-.2 1.64-.84 2a6.52 6.52 0 0 1 -2.84.4 7.4 7.4 0 0 0 -.64-2.12h1.7s.32-.1.32-.34v-6.82h-4.7v-1.84h4.7v-.88h-3.78v-1.78h3.78v-.8h-4.32v-1.86h2a11.35 11.35 0 0 0 -.78-1.56l1.88-.64a10.55 10.55 0 0 1 1.14 2.2h2.48c.3-.68.7-1.6.9-2.24l2.36.54c-.36.6-.72 1.2-1 1.7h1.94v1.86h-4.3v.8h3.88v1.78h-3.88v.88h4.66v1.94h-4.66v.78a10.86 10.86 0 0 0 .82 1.76 15.74 15.74 0 0 0 1.96-2.18zm-9.56-1.2a13.7 13.7 0 0 1 2 2.42l-1.72 1.26a14 14 0 0 0 -1.9-2.56z"/><path d="m36.24 206.12a34.58 34.58 0 0 1 -4 7.68 15.66 15.66 0 0 1 2.38 1.84l-1.66 2.28a28.46 28.46 0 0 0 -7.58-4.92l1.48-2c1 .42 2.06.94 3.12 1.5a27.24 27.24 0 0 0 2.72-4.86h-5.7a22.29 22.29 0 0 1 -4.2 5.94 14.42 14.42 0 0 0 -2.3-1.34c3-2.66 5.18-7.2 6.18-10.82l2.66.6c-.36 1.06-.76 2.14-1.24 3.24h5.9l.44-.1z"/><path d="m49.12 205.72a29 29 0 0 1 -3.44.68 36.56 36.56 0 0 1 -4.24 8.48l-2.44-1.22a30.22 30.22 0 0 0 4-7c-.34 0-.68 0-1 0-.82 0-1.62 0-2.48-.06l-.18-2.32a25.18 25.18 0 0 0 2.64.14c.58 0 1.18 0 1.78-.06a16.86 16.86 0 0 0 .54-3.32l2.74.28c-.16.64-.4 1.64-.68 2.7a20.92 20.92 0 0 0 2.66-.62zm2.6 1.78c-.06.84 0 1.66 0 2.54 0 .56.06 1.52.12 2.5a13.19 13.19 0 0 1 4.1 2.54l-1.32 2.12a17.63 17.63 0 0 0 -2.68-2.1v.18c0 1.84-1 3.28-3.82 3.28-2.46 0-4.4-1.1-4.4-3.28 0-1.94 1.62-3.44 4.38-3.44.46 0 .92 0 1.34.08-.06-1.48-.16-3.22-.22-4.42zm-2.18 6.56a7 7 0 0 0 -1.6-.2c-1.14 0-1.88.48-1.88 1.18s.62 1.24 1.7 1.24c1.34 0 1.78-.78 1.78-1.84zm5.58-5.5a26.41 26.41 0 0 0 -4.76-2.82l1.28-2a35.64 35.64 0 0 1 4.88 2.68z"/><path d="m72.18 200.66a23 23 0 0 0 5.94 7.12 11.39 11.39 0 0 0 -2 2.14c-.42-.38-.84-.82-1.28-1.28v.14c-.22 6-.46 8.4-1.16 9.24a2.41 2.41 0 0 1 -1.82.94 20 20 0 0 1 -3 .06 5.75 5.75 0 0 0 -.78-2.4c1.1.08 2.14.1 2.64.1a.93.93 0 0 0 .8-.28c.4-.42.62-2.2.8-6.38h-3.98c-.5 3.84-1.8 7.26-7 9.2a8 8 0 0 0 -1.58-2.2c4.52-1.46 5.56-4.08 6-7h-3.4v-1.4a15.07 15.07 0 0 1 -1.6 1.44 14.3 14.3 0 0 0 -2-1.92 16.58 16.58 0 0 0 5.9-7.48l2.56.74a24 24 0 0 1 -4 6.3h10.78a34 34 0 0 1 -4.18-6.14z"/><path d="m86.08 215.6c1.2-.12 2.42-.26 3.64-.4l.06 2.08c-3.4.48-7 .9-9.62 1.24l-.28-2.32c1.08-.1 2.42-.2 3.9-.36v-2.2h-3.24v-2.14h3.24v-1.62h-3.28v-8.52h8.88v8.52h-3.3v1.62h3.32v2.14h-3.32zm-3.64-10.86h1.5v-1.48h-1.5zm0 3.26h1.5v-1.5h-1.5zm4.92-4.74h-1.44v1.48h1.44zm0 3.24h-1.44v1.5h1.44zm11.4 1.68a40.52 40.52 0 0 1 -1.34 5.06l-1.92-.4c.2-.7.42-1.68.62-2.68h-1.3v6.38c0 1.14-.22 1.8-1 2.16a7.85 7.85 0 0 1 -3.28.4 9.22 9.22 0 0 0 -.7-2.34c.9.06 1.92.06 2.2 0s.4-.06.4-.32v-6.32h-2.64v-2.22h4.2a25.23 25.23 0 0 0 -3.66-2.18l1.46-1.46c.54.24 1.12.52 1.7.84a17.55 17.55 0 0 0 1.32-1.6h-4.82v-2.14h6.4l.52-.12 1.5 1.08a19.55 19.55 0 0 1 -3.16 3.84c.6.42 1.18.8 1.62 1.16l-.52.58h.46l.34-.06z"/><path d="m109.86 215.86c.76-.1 1.32-.2 1.84-.32a5.36 5.36 0 0 0 4.5-5.3c0-2.74-1.48-4.78-4.14-5.24a43 43 0 0 1 -1.18 5.38c-1.18 4-2.9 6.44-5.06 6.44s-4-2.42-4-5.76c0-4.56 4-8.48 9.12-8.48 4.9 0 8 3.42 8 7.74 0 4.16-2.56 7.12-7.56 7.88zm-1.54-6a31.79 31.79 0 0 0 1.06-4.8 6.21 6.21 0 0 0 -5 5.74c0 2 .8 3 1.54 3s1.6-1.26 2.4-3.94z"/><path d="m130.34 214c0 1.1.68 1.5 2.28 1.5 1.8 0 3.56-.12 5.16-.28l-.18 2.7c-1.3.08-3.56.16-5.44.16-3.66 0-4.56-1.26-4.56-3.28v-3.86h-3.26c-.56 0-1.58.06-2.18.1v-2.62c.56 0 1.56.1 2.18.1h3.26v-3.4h-2.18c-.72 0-1.36 0-1.94.06v-2.5c.58 0 1.22.1 1.94.1h9.58a14.92 14.92 0 0 0 1.8-.1v2.5c-.52 0-1.08-.06-1.8-.06h-4.7v3.4h6c.42 0 1.42 0 1.94-.08v2.56c-.56-.06-1.46-.06-1.9-.06h-6.1z"/><path d="m155.84 205a27.74 27.74 0 0 1 -3.76 7.34 20 20 0 0 1 -7.58 5.8l-2.28-2.34a17.43 17.43 0 0 0 7.6-5.2 20.3 20.3 0 0 0 3.78-8.64l3.12.8a23.4 23.4 0 0 0 -.88 2.24z"/><path d="m162.9 206.12c1.52-.48 5.54-1.88 8.44-1.88 3.58 0 6.4 2 6.4 5.72 0 4.48-4.26 7.36-11.26 7.7l-1.14-2.66c5.36-.12 9.56-1.66 9.56-5.12 0-1.86-1.28-3.28-3.66-3.28-2.92 0-7.58 2-9.66 2.88l-1.12-2.78c.72-.1 1.72-.38 2.44-.58zm13.72-2.06-1.6.68a25.46 25.46 0 0 0 -1.58-2.78l1.58-.66a25.89 25.89 0 0 1 1.6 2.76zm2.4-.94-1.6.68a22.46 22.46 0 0 0 -1.6-2.76l1.58-.64a28.56 28.56 0 0 1 1.6 2.72z"/><path d="m194.68 203c-.62.46-1.28 1-1.74 1.34-1.28 1-3.9 3.06-5.22 4.2-1.06.9-1 1.12 0 2 1.48 1.26 5.3 4.28 7.26 6.18l-2.3 2.12c-.56-.62-1.18-1.24-1.74-1.84-1.08-1.14-4.1-3.72-5.92-5.26s-1.8-2.76.18-4.4c1.54-1.26 4.26-3.46 5.6-4.78a13.68 13.68 0 0 0 1.52-1.66z"/><path d="m204.9 201.38a32.34 32.34 0 0 0 -.8 4.1c.94-1.52 2.66-3.2 4.9-3.2 2.76 0 4.9 2.7 4.9 7.06 0 5.6-3.44 8.28-8.68 9.24l-1.5-2.3c4.4-.68 7.48-2.12 7.48-6.92 0-3.06-1-4.76-2.66-4.76-2.34 0-4.38 3.52-4.48 6.12a11.89 11.89 0 0 0 .1 2.1l-2.46.16a25.62 25.62 0 0 1 -.24-3.3 48 48 0 0 1 .56-6.34c.1-.72.14-1.52.16-2.08z"/><path d="m227.32 214.5c0-.58.06-1.5.08-2.36-1.46.8-2.26 1.58-2.26 2.56s.94 1.4 2.88 1.4a30.29 30.29 0 0 0 5.62-.58l-.08 2.58a54.8 54.8 0 0 1 -5.6.32c-3.1 0-5.44-.74-5.44-3.3s2.4-4.12 4.66-5.28a1.55 1.55 0 0 0 -1.38-.68 4.9 4.9 0 0 0 -3.1 1.36 25.37 25.37 0 0 0 -1.84 2.18l-2.12-1.58a19.36 19.36 0 0 0 4.36-5.44h-.24c-.8 0-2.26 0-3.34-.14v-2.32a25.41 25.41 0 0 0 3.48.22h1a11 11 0 0 0 .4-2.26l2.6.22c-.1.48-.24 1.16-.48 2a45.74 45.74 0 0 0 5.6-.58v2.32a64.52 64.52 0 0 1 -6.46.52 12.1 12.1 0 0 1 -1.14 2 6.2 6.2 0 0 1 2.24-.4 2.7 2.7 0 0 1 2.64 1.54c1-.48 1.86-.82 2.68-1.18s1.46-.68 2.18-1l1 2.3a21 21 0 0 0 -2.36.84c-.88.34-2 .78-3.22 1.34 0 1.1.06 2.56.08 3.46z"/><path d="m256.4 213h-7.9v3.26c0 1.42-.36 2-1.3 2.42a13.6 13.6 0 0 1 -4.44.4 9.23 9.23 0 0 0 -1-2.36c1.48.06 3.16.06 3.6.06s.64-.16.64-.56v-3.22h-7.9v-2.32h7.9v-2.34h-6.54v-2.28h6.54v-2.34c-2.08.18-4.18.3-6.14.38a8 8 0 0 0 -.6-2.1 74.27 74.27 0 0 0 13.58-1.6l1.72 2a47.12 47.12 0 0 1 -6.08 1.06v2.62h6.72v2.28h-6.7v2.34h7.9z"/><path d="m266.74 201.78c-.12.52-.24 1.14-.34 1.64s-.28 1.32-.42 2c.66 0 1.26-.08 1.66-.08 2.1 0 3.58.94 3.58 3.78 0 2.34-.28 5.5-1.12 7.22a3.16 3.16 0 0 1 -3.26 1.82 11.21 11.21 0 0 1 -2.36-.28l-.48-2.58a11.56 11.56 0 0 0 2.44.42 1.46 1.46 0 0 0 1.48-.86 15.12 15.12 0 0 0 .8-5.42c0-1.58-.68-1.8-1.92-1.8-.32 0-.8 0-1.36.08-.78 3-2.22 7.66-4 10.58l-2.58-1a29.38 29.38 0 0 0 4-9.26c-.7.08-1.32.16-1.7.22-.56.06-1.58.2-2.2.3l-.22-2.68a18.39 18.39 0 0 0 2.1 0c.62 0 1.56-.08 2.56-.16a21.93 21.93 0 0 0 .42-4.2zm7.1 2.36a39.35 39.35 0 0 1 3.22 6.9l-2.52 1.18a22.43 22.43 0 0 0 -3.34-7.46l1.8-.76a22.11 22.11 0 0 0 -1.36-2.36l1.58-.66c.5.74 1.2 2 1.6 2.74zm1.82-.66a20 20 0 0 0 -1.62-2.76l1.58-.66a23.81 23.81 0 0 1 1.63 2.72z"/><path d="m284.5 201.88a15.31 15.31 0 0 0 -.46 1.6c-.48 2.2-1.18 6.34-.66 8.8.26-.6.6-1.56.92-2.28l1.26.78a49.7 49.7 0 0 0 -1.34 4.84 4.63 4.63 0 0 0 -.14 1c0 .2 0 .54.06.82l-2.22.22a22.08 22.08 0 0 1 -1.14-6.42 51.79 51.79 0 0 1 .66-7.9 10.38 10.38 0 0 0 .12-1.72zm12.71 5.76c-.81.1-1.83.18-2.95.24v.82c0 4.68-.36 7.54-4.3 10.06l-2.3-1.8a7.7 7.7 0 0 0 2.32-1.58c1.52-1.58 1.84-3.34 1.84-6.68v-.7c-.74 0-1.5 0-2.22 0s-2.08-.06-3.06-.1v-2.5a20.8 20.8 0 0 0 3 .2h2.24c0-1.1-.06-2.12-.1-2.66a8.79 8.79 0 0 0 -.22-1.36h2.9a10.07 10.07 0 0 0 -.1 1.34v2.54a25.91 25.91 0 0 0 3-.36z"/><path d="m302.3 203.56c1.64-.16 4.92-.44 8.54-.76 2-.16 4.22-.28 5.6-.34v2.56a20.45 20.45 0 0 0 -3.82.26 6 6 0 0 0 -4.18 5.54c0 3.26 3.06 4.42 6.4 4.6l-.92 2.74c-4.16-.28-8.08-2.52-8.08-6.8a7.92 7.92 0 0 1 2.92-6.1c-1.7.18-5.88.62-8.18 1.12l-.24-2.72c.8-.02 1.56-.06 1.96-.1z"/><path d="m323.44 205.54c0 1.28 0 2.78.12 4.2.28 2.86.88 4.8 2.12 4.8.94 0 1.72-2.32 2.1-3.88l2 2.4c-1.32 3.44-2.56 4.66-4.16 4.66-2.16 0-4.06-2-4.62-7.28-.18-1.82-.22-4.12-.22-5.34a11.48 11.48 0 0 0 -.14-2h3a15.69 15.69 0 0 0 -.2 2.44zm13.76 8.14-2.62 1c-.3-3.18-1.36-7.84-3.52-10.28l2.52-.84c1.88 2.3 3.42 7.08 3.62 10.12z"/><path d="m356.62 208.26a23 23 0 0 1 -3.06.8c.5 1.06 1.06 2.22 1.64 3.3l-1.18 1.5c-1.1-.2-3-.5-4.32-.66l.22-1.9c.78.1 1.56.16 2.1.22l-.9-2.06a49.76 49.76 0 0 1 -8.7.12l-.1-2.28a40.2 40.2 0 0 0 7.9 0l-.34-.78-.48-1.12a39.27 39.27 0 0 1 -6.82-.08l-.12-2.26a37.29 37.29 0 0 0 6 .22 17.81 17.81 0 0 0 -1-1.7l2.82-.54a16.93 16.93 0 0 0 .62 2 24 24 0 0 0 3.8-.92l.42 2.22a28.58 28.58 0 0 1 -3.4.8l.38.86.46 1a21.2 21.2 0 0 0 3.54-1zm-11.1 3.74a5.87 5.87 0 0 0 -.48 1.92c0 1.24.88 2.08 3.46 2.08a28.82 28.82 0 0 0 5.24-.44l-.08 2.54a35.08 35.08 0 0 1 -5.1.38c-3.7 0-6-1.26-6-4a10.28 10.28 0 0 1 .48-2.7z"/><path d="m374.08 217.48a15 15 0 0 0 -4-2.74v.7c0 1.7-1.28 3-3.9 3-3.16 0-4.84-1.2-4.84-3.3s1.84-3.4 4.9-3.4a12.16 12.16 0 0 1 1.22.06c0-.6-.06-1.22-.08-1.8h-1c-1.16 0-3.44-.1-4.76-.26v-2.34a35.93 35.93 0 0 0 4.78.36h.94v-2.06h-.94a33 33 0 0 1 -4.3-.3v-2.26a26.22 26.22 0 0 0 4.3.38h1v-.9a7.93 7.93 0 0 0 -.1-1.36h2.7a13.24 13.24 0 0 0 -.14 1.4v.78a41.5 41.5 0 0 0 4.72-.48l.06 2.28c-1.3.12-2.9.28-4.8.38v2.06c2-.08 3.66-.26 5.28-.46v2.34c-1.78.2-3.32.34-5.24.4 0 .74.08 1.54.14 2.3a15.32 15.32 0 0 1 5.54 3zm-6.52-3.56a10.61 10.61 0 0 0 -1.62-.14c-1.4 0-2.16.54-2.16 1.22s.7 1.22 2.06 1.22c1.06 0 1.74-.32 1.74-1.46 0-.22 0-.5-.02-.84z"/><path d="m395.84 206c-1.2-.06-3.06-.1-5.74-.1v2.94a4.88 4.88 0 0 1 .74 2.74c0 2.58-1.52 5.86-6.36 7.22l-2.1-2.12a9.05 9.05 0 0 0 4.84-2.26 4.28 4.28 0 0 1 -.9.1 3.49 3.49 0 0 1 -3.42-3.64 3.73 3.73 0 0 1 4-3.7 4.75 4.75 0 0 1 .78.06v-1.32c-3 0-6.06.16-8.5.3l-.06-2.4c2.26 0 5.86-.1 8.52-.14a5.08 5.08 0 0 0 0-.6 13.4 13.4 0 0 0 -.18-1.72h2.88c-.06.32-.12 1.38-.14 1.7v.6h5.74zm-9 6.32c.82 0 1.56-.62 1.3-2.34a1.41 1.41 0 0 0 -1.3-.7 1.52 1.52 0 1 0 0 3z"/><path d="m404.34 215.66a3.23 3.23 0 1 1 -3.24-3.24 3.24 3.24 0 0 1 3.24 3.24zm-1.44 0a1.79 1.79 0 1 0 -1.8 1.78 1.79 1.79 0 0 0 1.8-1.78z"/><path d="m11.52 258c-.86.66-1.76 1.28-2.68 1.86a44.37 44.37 0 0 0 5.9-1l1.46 1.56a51.1 51.1 0 0 1 -9 1.28l-.24 1h9.24a8.12 8.12 0 0 1 -.12 1c-.48 2.7-1 4.06-1.64 4.66a2.61 2.61 0 0 1 -1.92.7 24.57 24.57 0 0 1 -3 0 5 5 0 0 0 -.76-2.2c1.16.12 2.42.16 2.94.16a1.48 1.48 0 0 0 .88-.2 4.08 4.08 0 0 0 .9-2.2h-7l-.24.92-2.38-.34c.28-.84.58-1.92.86-3.06-1.08.52-2.18 1-3.28 1.44a15.32 15.32 0 0 0 -1.44-1.78 38.14 38.14 0 0 0 5.34-2.32l.1-.46.64.08c.62-.34 1.22-.7 1.8-1.06h-7v-2h6.12v-1.6h-4.58v-1.94h4.58v-2.06h2.38v2.06h4.2v1a26 26 0 0 0 2-2.28l1.92 1.06a29.46 29.46 0 0 1 -3.5 3.72h4.3v2zm-.8-2c.66-.52 1.3-1 1.9-1.6h-3.24v1.6z"/><path d="m33 258.52c-.9.78-2.76 2.48-3.22 3a2.06 2.06 0 0 1 .74.16 1.93 1.93 0 0 1 1.22 1.32c.18.54.36 1.3.54 1.8a1.26 1.26 0 0 0 1.4.92 20.53 20.53 0 0 0 3.88-.34l-.16 2.62a29 29 0 0 1 -3.88.28c-1.88 0-2.9-.4-3.38-1.7-.22-.58-.44-1.5-.58-2-.24-.7-.66-1-1.06-1a2.05 2.05 0 0 0 -1.28.8 49.46 49.46 0 0 0 -3.54 4l-2.36-1.64a15.13 15.13 0 0 0 1.38-1.22c1-1 5.06-5.06 6.88-7-1.4.06-3.76.26-4.9.36-.68.06-1.28.16-1.7.24l-.24-2.74c.46 0 1.18.06 1.9.06.94 0 5.44-.2 7.08-.42a6.36 6.36 0 0 0 1.12-.24l1.46 1.66c-.52.44-.94.8-1.3 1.08zm.6-6.34-.32 2.34c-2.08-.18-5.78-.6-8.14-1l.38-2.3a79.12 79.12 0 0 0 8.08.96z"/><path d="m53.9 253.66q-.72.45-1.38.9c-1.06.74-3.14 2.5-4.38 3.5a6.66 6.66 0 0 1 1.86-.22c3.36 0 5.92 2.1 5.92 5 0 3.12-2.38 5.6-7.16 5.6-2.76 0-4.84-1.26-4.84-3.24a3.33 3.33 0 0 1 3.56-3.08 4 4 0 0 1 4.22 3.38 2.89 2.89 0 0 0 1.62-2.7c0-1.78-1.8-3-4.1-3-3 0-5 1.62-7.14 4l-1.8-1.8c1.4-1.14 3.78-3.16 5-4.12s3.16-2.58 4.14-3.44c-1 0-3.74.14-4.78.22a13.07 13.07 0 0 0 -1.62.16l-.08-2.58c.56.06 1.24.1 1.8.1 1 0 5.28-.1 6.4-.2a9.55 9.55 0 0 0 1.52-.2zm-4.48 12.46c-.12-1.28-.86-2.12-1.94-2.12-.74 0-1.22.44-1.22.94 0 .74.84 1.24 2 1.24a10.44 10.44 0 0 0 1.16-.06z"/><path d="m70.06 256.16a35.65 35.65 0 0 1 -3.84.66c-.18.84-.38 1.72-.6 2.54a64.74 64.74 0 0 1 -3.14 9.16l-2.78-.92a44.12 44.12 0 0 0 3.42-8.92c.14-.54.3-1.1.42-1.66-.46 0-.9 0-1.3 0-1 0-1.7 0-2.4-.08l-.06-2.46a19.19 19.19 0 0 0 2.5.14c.58 0 1.16 0 1.76-.06.08-.42.14-.82.18-1.12a10.43 10.43 0 0 0 .08-2l3 .24c-.14.56-.32 1.44-.42 1.88l-.16.74c1.12-.16 2.24-.38 3.32-.64zm-.4 6.5a7 7 0 0 0 -.28 1.66c0 .86.5 1.52 2.62 1.52a25 25 0 0 0 4.12-.4l-.12 2.56a31.69 31.69 0 0 1 -4 .28c-3.34 0-5-1.16-5-3.16a13.2 13.2 0 0 1 .34-2.64zm-1.16-5a37.31 37.31 0 0 1 3.8-.2 34.29 34.29 0 0 1 3.48.16l-.06 2.4a28.38 28.38 0 0 0 -3.4-.26 33 33 0 0 0 -3.82.22zm5.2-2a22.39 22.39 0 0 0 -1.56-2.78l1.58-.66a27.51 27.51 0 0 1 1.58 2.78zm2.38-4.34a23.67 23.67 0 0 1 1.62 2.68l-1.58.68a21.2 21.2 0 0 0 -1.62-2.68z"/><path d="m84.9 251.88a15.31 15.31 0 0 0 -.46 1.6c-.48 2.2-1.18 6.34-.66 8.8.26-.6.6-1.56.92-2.28l1.26.78a49.7 49.7 0 0 0 -1.34 4.84 4.63 4.63 0 0 0 -.14 1c0 .2 0 .54.06.82l-2.22.22a22.08 22.08 0 0 1 -1.14-6.42 51.79 51.79 0 0 1 .66-7.9 10.38 10.38 0 0 0 .12-1.72zm12.7 5.76c-.8.1-1.82.18-2.94.24v.82c0 4.68-.36 7.54-4.3 10.06l-2.3-1.8a7.7 7.7 0 0 0 2.32-1.58c1.52-1.58 1.84-3.34 1.84-6.68v-.7c-.74 0-1.5 0-2.22 0s-2.08-.06-3.06-.1v-2.5a20.8 20.8 0 0 0 3 .2h2.24c0-1.1-.06-2.12-.1-2.66a8.79 8.79 0 0 0 -.22-1.36h2.9a10.07 10.07 0 0 0 -.1 1.34v2.54a25.91 25.91 0 0 0 3-.36z"/><path d="m102.64 253.6 8.56-.76c2-.16 4.2-.28 5.6-.34v2.56a20.45 20.45 0 0 0 -3.82.26 6 6 0 0 0 -4.18 5.54c0 3.26 3 4.44 6.4 4.6l-.92 2.74c-4.16-.26-8.08-2.5-8.08-6.8a7.85 7.85 0 0 1 2.92-6.1c-1.72.18-5.88.62-8.18 1.12l-.26-2.72c.82-.02 1.58-.06 1.96-.1zm13 6.1-1.52.68a15.43 15.43 0 0 0 -1.56-2.78l1.44-.6a26.21 26.21 0 0 1 1.64 2.7zm2.32-1-1.5.72a17.59 17.59 0 0 0 -1.64-2.7l1.46-.68a29.92 29.92 0 0 1 1.72 2.68z"/><path d="m135.08 258.6a7.37 7.37 0 0 1 1.92 4.76c0 3-2.68 5.14-7 5.14-3.12 0-5.32-1.36-5.32-4.66 0-.48.06-1.18.14-2a22.21 22.21 0 0 1 -3.8-.66l.14-2.4a16.86 16.86 0 0 0 3.9.78c.12-.88.22-1.8.34-2.7a24.76 24.76 0 0 1 -3.94-.7l.14-2.3a18.36 18.36 0 0 0 4.06.74c.08-.6.12-1.14.16-1.58a12.47 12.47 0 0 0 0-1.76l2.78.16c-.16.72-.26 1.24-.34 1.76-.06.34-.12.86-.22 1.5a29.07 29.07 0 0 0 3.64-.24l-.08 2.36a35.49 35.49 0 0 1 -3.86.18c-.12.88-.24 1.82-.34 2.7h.14a39.29 39.29 0 0 0 4-.24l-.06 2.36c-1.12.1-2.28.18-3.5.18h-.8c0 .58-.08 1.08-.08 1.44 0 1.62 1 2.52 3 2.52 2.76 0 4.28-1.26 4.28-2.9a5.5 5.5 0 0 0 -2-3.84z"/><path d="m150.32 255.72a29 29 0 0 1 -3.44.68 36.56 36.56 0 0 1 -4.24 8.48l-2.42-1.22a30.22 30.22 0 0 0 4-7c-.34 0-.68 0-1 0-.82 0-1.62 0-2.48-.06l-.18-2.32a25.18 25.18 0 0 0 2.64.14c.58 0 1.18 0 1.78-.06a16.86 16.86 0 0 0 .54-3.32l2.74.28c-.16.64-.4 1.64-.68 2.7a20.92 20.92 0 0 0 2.66-.62zm2.6 1.78c-.06.84 0 1.66 0 2.54 0 .56.06 1.52.12 2.5a13.19 13.19 0 0 1 4.1 2.54l-1.32 2.12a17.63 17.63 0 0 0 -2.68-2.1v.18c0 1.84-1 3.28-3.82 3.28-2.46 0-4.4-1.1-4.4-3.28 0-1.94 1.62-3.44 4.38-3.44.46 0 .92 0 1.34.08-.06-1.48-.16-3.22-.22-4.42zm-2.18 6.56a7 7 0 0 0 -1.6-.2c-1.14 0-1.88.48-1.88 1.18s.62 1.24 1.7 1.24c1.34 0 1.78-.78 1.78-1.84zm5.58-5.5a26.41 26.41 0 0 0 -4.76-2.82l1.28-2a35.64 35.64 0 0 1 4.88 2.68z"/><path d="m163.84 255.54c0 1.28 0 2.78.12 4.2.28 2.86.88 4.8 2.12 4.8.94 0 1.72-2.32 2.1-3.88l2 2.4c-1.32 3.44-2.56 4.66-4.16 4.66-2.16 0-4.06-2-4.62-7.28-.18-1.82-.22-4.12-.22-5.34a11.48 11.48 0 0 0 -.14-2h3a15.69 15.69 0 0 0 -.2 2.44zm13.76 8.14-2.62 1c-.3-3.18-1.36-7.84-3.52-10.28l2.52-.84c1.88 2.3 3.4 7.08 3.62 10.12z"/><path d="m184.74 268.76a37.54 37.54 0 0 0 -4.3-4.42l2.08-1.8a37.49 37.49 0 0 1 4.36 4.38z"/><path d="m202.2 251.24a31.15 31.15 0 0 1 -1.92 4.16v13.7h-2.4v-10c-.42.5-.84 1-1.24 1.44a16.25 16.25 0 0 0 -1.32-2.54 20.81 20.81 0 0 0 4.56-7.48zm6.34 4.72v2.1h5.18v2.16h-5.18v2.26h5.46v2.2h-5.44v4.44h-2.46v-13.12h-.76a22.21 22.21 0 0 1 -2.62 3.88 16.18 16.18 0 0 0 -1.82-1.66 19.85 19.85 0 0 0 4.24-7.54l2.3.58a23.64 23.64 0 0 1 -1 2.48h7.76v2.26z"/><path d="m231.1 253.66q-.72.45-1.38.9c-1.06.74-3.14 2.5-4.38 3.5a6.66 6.66 0 0 1 1.86-.22c3.36 0 5.92 2.1 5.92 5 0 3.12-2.38 5.6-7.16 5.6-2.76 0-4.84-1.26-4.84-3.24a3.33 3.33 0 0 1 3.56-3.08 4 4 0 0 1 4.22 3.38 2.89 2.89 0 0 0 1.62-2.7c0-1.78-1.8-3-4.1-3-3 0-5 1.62-7.14 4l-1.8-1.86c1.4-1.14 3.78-3.16 5-4.12s3.16-2.58 4.14-3.44c-1 0-3.74.14-4.78.22a13.07 13.07 0 0 0 -1.62.16l-.08-2.58c.56.06 1.24.1 1.8.1 1 0 5.28-.1 6.4-.2a9.55 9.55 0 0 0 1.52-.2zm-4.48 12.46c-.12-1.28-.86-2.12-1.94-2.12-.74 0-1.22.44-1.22.94 0 .74.84 1.24 2 1.24a10.44 10.44 0 0 0 1.16-.06z"/><path d="m247.26 256.16a35.65 35.65 0 0 1 -3.84.66c-.18.84-.38 1.72-.6 2.54a64.74 64.74 0 0 1 -3.14 9.16l-2.78-.92a44.12 44.12 0 0 0 3.42-8.92c.14-.54.3-1.1.42-1.66-.46 0-.9 0-1.3 0-1 0-1.7 0-2.4-.08l-.06-2.46a19.19 19.19 0 0 0 2.5.14c.58 0 1.16 0 1.76-.06.08-.42.14-.82.18-1.12a10.43 10.43 0 0 0 .08-2l3 .24c-.14.56-.32 1.44-.42 1.88l-.16.74c1.12-.16 2.24-.38 3.32-.64zm-.4 6.5a7 7 0 0 0 -.28 1.66c0 .86.5 1.52 2.62 1.52a25 25 0 0 0 4.12-.4l-.1 2.54a31.69 31.69 0 0 1 -4 .28c-3.34 0-5-1.16-5-3.16a13.2 13.2 0 0 1 .34-2.64zm-1.16-5a37.31 37.31 0 0 1 3.8-.2 34.29 34.29 0 0 1 3.48.16l-.06 2.4a28.38 28.38 0 0 0 -3.4-.26 33 33 0 0 0 -3.82.22zm5.2-2a22.39 22.39 0 0 0 -1.56-2.78l1.58-.66a27.51 27.51 0 0 1 1.58 2.78zm2.38-4.34a23.67 23.67 0 0 1 1.62 2.68l-1.58.68a21.2 21.2 0 0 0 -1.62-2.68z"/><path d="m262.1 251.88a15.31 15.31 0 0 0 -.46 1.6c-.48 2.2-1.18 6.34-.66 8.8.26-.6.6-1.56.92-2.28l1.26.78a49.7 49.7 0 0 0 -1.34 4.84 4.63 4.63 0 0 0 -.14 1c0 .2 0 .54.06.82l-2.22.22a22.08 22.08 0 0 1 -1.14-6.42 51.79 51.79 0 0 1 .66-7.9 10.38 10.38 0 0 0 .12-1.72zm12.7 5.76c-.8.1-1.82.18-2.94.24v.82c0 4.68-.36 7.54-4.3 10.06l-2.3-1.8a7.7 7.7 0 0 0 2.32-1.58c1.52-1.58 1.84-3.34 1.84-6.68v-.7c-.74 0-1.5 0-2.22 0s-2.08-.06-3.06-.1v-2.5a20.8 20.8 0 0 0 3 .2h2.24c0-1.1-.06-2.12-.1-2.66a8.79 8.79 0 0 0 -.22-1.36h2.94a10.07 10.07 0 0 0 -.1 1.34v2.54a25.91 25.91 0 0 0 3-.36z"/><path d="m279.84 253.6 8.56-.76c2-.16 4.2-.28 5.6-.34v2.56a20.45 20.45 0 0 0 -3.82.26 6 6 0 0 0 -4.18 5.54c0 3.26 3 4.44 6.4 4.6l-.92 2.74c-4.16-.26-8.08-2.5-8.08-6.8a7.85 7.85 0 0 1 2.92-6.1c-1.72.18-5.88.62-8.18 1.12l-.26-2.72c.82-.02 1.58-.06 1.96-.1zm13 6.1-1.52.68a15.43 15.43 0 0 0 -1.56-2.78l1.48-.62a26.21 26.21 0 0 1 1.6 2.72zm2.32-1-1.5.72a17.59 17.59 0 0 0 -1.64-2.7l1.46-.68a29.92 29.92 0 0 1 1.68 2.68z"/><path d="m312.28 258.6a7.37 7.37 0 0 1 1.92 4.76c0 3-2.68 5.14-7 5.14-3.12 0-5.32-1.36-5.32-4.66 0-.48.06-1.18.14-2a22.21 22.21 0 0 1 -3.8-.66l.14-2.4a16.86 16.86 0 0 0 3.9.78c.12-.88.22-1.8.34-2.7a24.76 24.76 0 0 1 -3.94-.7l.14-2.3a18.36 18.36 0 0 0 4.06.74c.08-.6.12-1.14.16-1.58a12.47 12.47 0 0 0 0-1.76l2.78.16c-.16.72-.26 1.24-.34 1.76-.06.34-.12.86-.22 1.5a29.07 29.07 0 0 0 3.64-.24l-.08 2.36a35.49 35.49 0 0 1 -3.8.2c-.12.88-.24 1.82-.34 2.7h.14a39.29 39.29 0 0 0 4-.24l-.06 2.36c-1.12.1-2.28.18-3.5.18h-.8c0 .58-.08 1.08-.08 1.44 0 1.62 1 2.52 3 2.52 2.76 0 4.28-1.26 4.28-2.9a5.5 5.5 0 0 0 -2-3.84z"/><path d="m327.52 255.72a29 29 0 0 1 -3.44.68 36.56 36.56 0 0 1 -4.24 8.48l-2.42-1.22a30.22 30.22 0 0 0 4-7c-.34 0-.68 0-1 0-.82 0-1.62 0-2.48-.06l-.18-2.32a25.18 25.18 0 0 0 2.64.14c.58 0 1.18 0 1.78-.06a16.86 16.86 0 0 0 .54-3.32l2.74.28c-.16.64-.4 1.64-.68 2.7a20.92 20.92 0 0 0 2.66-.62zm2.6 1.78c-.06.84 0 1.66 0 2.54 0 .56.06 1.52.12 2.5a13.19 13.19 0 0 1 4.1 2.54l-1.34 2.12a17.63 17.63 0 0 0 -2.68-2.1v.18c0 1.84-1 3.28-3.82 3.28-2.46 0-4.4-1.1-4.4-3.28 0-1.94 1.62-3.44 4.38-3.44.46 0 .92 0 1.34.08-.06-1.48-.16-3.22-.22-4.42zm-2.18 6.56a7 7 0 0 0 -1.6-.2c-1.14 0-1.88.48-1.88 1.18s.62 1.24 1.7 1.24c1.34 0 1.78-.78 1.78-1.84zm5.58-5.5a26.41 26.41 0 0 0 -4.76-2.82l1.28-2a35.64 35.64 0 0 1 4.88 2.68z"/><path d="m340.64 255.54c0 1.28 0 2.78.12 4.2.28 2.86.88 4.8 2.12 4.8.94 0 1.72-2.32 2.1-3.88l2 2.4c-1.32 3.44-2.56 4.66-4.16 4.66-2.16 0-4.06-2-4.62-7.28-.18-1.82-.22-4.12-.22-5.34a11.48 11.48 0 0 0 -.14-2h3a15.69 15.69 0 0 0 -.2 2.44zm13.76 8.14-2.62 1c-.3-3.18-1.36-7.84-3.52-10.28l2.52-.84c1.88 2.3 3.4 7.08 3.62 10.12z"/><path d="m361.54 268.76a37.54 37.54 0 0 0 -4.3-4.42l2.08-1.8a37.49 37.49 0 0 1 4.36 4.38z"/><path d="m376.46 250.34h6.62v2.16h-4.26v10.62h-2.36z"/><path d="m395.52 258c-.86.66-1.76 1.28-2.68 1.86a44.37 44.37 0 0 0 5.9-1l1.46 1.56a51.1 51.1 0 0 1 -9 1.28l-.24 1h9.24a8.12 8.12 0 0 1 -.12 1c-.48 2.7-1 4.06-1.64 4.66a2.61 2.61 0 0 1 -1.92.7 24.57 24.57 0 0 1 -3 0 5 5 0 0 0 -.76-2.2c1.16.12 2.42.16 2.94.16a1.48 1.48 0 0 0 .88-.2 4.08 4.08 0 0 0 .9-2.2h-7l-.24.92-2.38-.34c.28-.84.58-1.92.86-3.06-1.08.52-2.18 1-3.28 1.44a15.32 15.32 0 0 0 -1.44-1.78 38.14 38.14 0 0 0 5.34-2.32l.1-.46.64.08c.62-.34 1.22-.7 1.8-1.06h-7v-2h6.12v-1.6h-4.6v-1.94h4.6v-2.06h2.36v2.06h4.2v1a26 26 0 0 0 2-2.28l1.92 1.06a29.46 29.46 0 0 1 -3.48 3.72h4.34v2zm-.8-2c.66-.52 1.3-1 1.9-1.6h-3.24v1.6z"/><path d="m416.6 258.52c-.9.78-2.76 2.48-3.22 3a2.06 2.06 0 0 1 .74.16 1.93 1.93 0 0 1 1.22 1.34c.18.54.36 1.3.54 1.8a1.26 1.26 0 0 0 1.4.92 20.72 20.72 0 0 0 3.89-.34l-.17 2.6a29 29 0 0 1 -3.88.28c-1.88 0-2.9-.4-3.38-1.7-.22-.58-.44-1.5-.58-2-.24-.7-.66-1-1.06-1a2.05 2.05 0 0 0 -1.28.8 49.46 49.46 0 0 0 -3.54 4l-2.36-1.64a15.13 15.13 0 0 0 1.38-1.22c1-1 5.06-5.06 6.88-7-1.4.06-3.76.26-4.9.36-.68.06-1.28.16-1.7.24l-.24-2.74c.46 0 1.18.06 1.9.06.94 0 5.44-.2 7.08-.42a6.36 6.36 0 0 0 1.12-.24l1.46 1.66c-.52.44-.9.8-1.3 1.08zm.6-6.34-.32 2.34c-2.08-.18-5.78-.6-8.14-1l.38-2.3a79.12 79.12 0 0 0 8.08.96z"/><path d="m425.5 253.56c1.64-.16 4.92-.44 8.54-.76 2-.16 4.22-.28 5.6-.34v2.56a20.5 20.5 0 0 0 -3.83.26 6 6 0 0 0 -4.18 5.54c0 3.26 3.06 4.42 6.4 4.6l-.92 2.74c-4.16-.28-8.08-2.52-8.08-6.8a7.92 7.92 0 0 1 2.92-6.1c-1.7.18-5.88.62-8.18 1.12l-.24-2.72c.81-.02 1.57-.06 1.97-.1z"/><path d="m449.4 251.24a31.15 31.15 0 0 1 -1.92 4.16v13.7h-2.4v-10c-.42.5-.84 1-1.24 1.44a16.25 16.25 0 0 0 -1.32-2.54 20.81 20.81 0 0 0 4.56-7.48zm6.34 4.72v2.1h5.18v2.16h-5.18v2.26h5.45v2.2h-5.45v4.44h-2.44v-13.12h-.76a22.21 22.21 0 0 1 -2.62 3.88 16.18 16.18 0 0 0 -1.82-1.66 19.85 19.85 0 0 0 4.24-7.54l2.3.58a23.64 23.64 0 0 1 -1 2.48h7.76v2.26z"/><path d="m478.7 253.66q-.72.45-1.38.9c-1.06.74-3.14 2.5-4.38 3.5a6.66 6.66 0 0 1 1.86-.22c3.36 0 5.92 2.1 5.92 5 0 3.12-2.38 5.6-7.16 5.6-2.76 0-4.84-1.26-4.84-3.24a3.33 3.33 0 0 1 3.56-3.08 4 4 0 0 1 4.22 3.38 2.89 2.89 0 0 0 1.62-2.7c0-1.78-1.8-3-4.1-3-3 0-5 1.62-7.14 4l-1.8-1.86c1.4-1.14 3.78-3.16 5-4.12s3.16-2.58 4.14-3.44c-1 0-3.74.14-4.78.22a13.07 13.07 0 0 0 -1.62.16l-.08-2.58c.56.06 1.24.1 1.8.1 1 0 5.28-.1 6.4-.2a9.55 9.55 0 0 0 1.52-.2zm-4.48 12.46c-.12-1.28-.86-2.12-1.94-2.12-.74 0-1.22.44-1.22.94 0 .74.84 1.24 2 1.24a10.44 10.44 0 0 0 1.16-.06z"/><path d="m492.84 269.22h-6.64v-2.16h4.26v-10.62h2.38z"/><path d="m504.92 261.28a8.22 8.22 0 0 0 -.34 2c0 1.26 1.2 2.18 4.06 2.18a28.09 28.09 0 0 0 7-.78v2.78a30.24 30.24 0 0 1 -6.88.68c-4.54 0-6.82-1.52-6.82-4.24a12.74 12.74 0 0 1 .4-2.86zm-1.68-8.4a51.91 51.91 0 0 0 5.4.24c2 0 4.22-.12 5.74-.28v2.66c-1.38.1-3.84.24-5.72.24-2.08 0-3.8-.1-5.42-.22z"/><path d="m535 255.74c-.6.36-1.24.7-2 1.06a60.66 60.66 0 0 0 -5.52 2.94c-1.66 1.08-2.76 2.22-2.76 3.6s1.38 2.18 4.12 2.18a33.13 33.13 0 0 0 6.48-.72v2.86a38.74 38.74 0 0 1 -6.36.48c-3.94 0-6.92-1.1-6.92-4.5 0-2.2 1.38-3.82 3.28-5.22-.92-1.7-1.88-3.8-2.78-5.9l2.5-1a46.44 46.44 0 0 0 2.48 5.48c1.62-.94 3.34-1.82 4.28-2.34a13.68 13.68 0 0 0 1.82-1.2z"/><path d="m541.84 253.6 8.56-.76c2-.16 4.2-.28 5.6-.34v2.56a20.45 20.45 0 0 0 -3.82.26 6 6 0 0 0 -4.18 5.54c0 3.26 3 4.44 6.4 4.6l-.92 2.74c-4.16-.26-8.08-2.5-8.08-6.8a7.85 7.85 0 0 1 2.92-6.1c-1.72.18-5.88.62-8.18 1.12l-.26-2.72c.82-.02 1.58-.06 1.96-.1zm13 6.1-1.52.68a15.43 15.43 0 0 0 -1.56-2.78l1.48-.62a26.21 26.21 0 0 1 1.6 2.72zm2.32-1-1.5.72a17.59 17.59 0 0 0 -1.64-2.7l1.46-.68a29.92 29.92 0 0 1 1.68 2.68z"/><path d="m579.08 266.22v2.34h-18v-2.34h7.72v-4h-5.4v-2.3h5.42v-3.52h-4.14a16.48 16.48 0 0 1 -1.86 2.9 18.91 18.91 0 0 0 -2.14-1.42 17.21 17.21 0 0 0 3.54-7.16l2.46.54c-.28 1-.6 1.9-.94 2.82h3.08v-3.6h2.5v3.6h6.74v2.32h-6.74v3.52h6v2.3h-6v4z"/><path d="m595.68 267.48a15 15 0 0 0 -4-2.74v.7c0 1.7-1.28 3-3.9 3-3.16 0-4.84-1.2-4.84-3.3s1.84-3.4 4.9-3.4a12.16 12.16 0 0 1 1.22.06c0-.6-.06-1.22-.08-1.8h-1c-1.16 0-3.44-.1-4.76-.26v-2.34a35.93 35.93 0 0 0 4.78.36h1v-2.06h-1a33 33 0 0 1 -4.3-.3v-2.26a26.22 26.22 0 0 0 4.3.38h1v-.9a7.93 7.93 0 0 0 -.1-1.36h2.7a13.24 13.24 0 0 0 -.14 1.4v.78a41.5 41.5 0 0 0 4.72-.48l.06 2.28c-1.3.12-2.9.28-4.8.38v2.06c2-.08 3.66-.26 5.28-.46v2.34c-1.78.2-3.32.34-5.24.4 0 .74.08 1.54.14 2.3a15.32 15.32 0 0 1 5.54 3zm-6.52-3.56a10.61 10.61 0 0 0 -1.62-.14c-1.4 0-2.16.54-2.16 1.22s.7 1.22 2.06 1.22c1.06 0 1.74-.32 1.74-1.46 0-.22 0-.5-.02-.84z"/><path d="m619.45 266.24a5.29 5.29 0 0 1 -3.73 1.5c-1.48 0-2.48-1.1-2.48-3 0-2.16.7-5.06.7-6.86 0-1-.5-1.46-1.32-1.46-1.48 0-3.64 1.82-5.24 3.6v1.6c0 1.62 0 3.28.12 5.14 0 .36.1 1.08.14 1.52h-2.72c0-.42.06-1.14.06-1.46 0-1.54 0-2.68.08-4.36-.86 1.26-1.82 2.72-2.5 3.66l-1.56-2.2c1.12-1.36 3.12-4 4.24-5.66l.08-1.38-3.6.46-.24-2.54a16.84 16.84 0 0 0 1.72 0c.58 0 1.44-.14 2.28-.26 0-.74.08-1.3.08-1.52a10.56 10.56 0 0 0 -.08-1.76l2.9.08c-.12.56-.28 1.58-.44 2.82l.74.94c-.26.34-.68 1-1 1.5a3 3 0 0 1 0 .42c1.56-1.36 3.84-2.94 5.76-2.94a2.78 2.78 0 0 1 3.12 2.92c0 2.06-.66 5-.66 7 0 .52.26.86.76.86a4 4 0 0 0 2.55-1.4z"/><path d="m635.5 253.66q-.72.45-1.38.9c-1.06.74-3.14 2.5-4.38 3.5a6.66 6.66 0 0 1 1.86-.22c3.36 0 5.92 2.1 5.92 5 0 3.12-2.38 5.6-7.16 5.6-2.76 0-4.84-1.26-4.84-3.24a3.33 3.33 0 0 1 3.56-3.08 4 4 0 0 1 4.22 3.38 2.89 2.89 0 0 0 1.62-2.7c0-1.78-1.8-3-4.1-3-3 0-5 1.62-7.14 4l-1.8-1.86c1.4-1.14 3.78-3.16 5-4.12s3.16-2.58 4.14-3.44c-1 0-3.74.14-4.78.22a13.07 13.07 0 0 0 -1.62.16l-.08-2.58c.56.06 1.24.1 1.8.1 1 0 5.28-.1 6.4-.2a9.55 9.55 0 0 0 1.52-.2zm-4.5 12.46c-.12-1.28-.86-2.12-1.94-2.12-.74 0-1.22.44-1.22.94 0 .74.84 1.24 2 1.24a10.44 10.44 0 0 0 1.16-.06z"/><path d="m659.54 253.84a10.07 10.07 0 0 0 -.78 1 20.12 20.12 0 0 1 -4.82 5.48l-2.06-1.66a11.89 11.89 0 0 0 3.68-3.72h-10.42c-.84 0-1.5.06-2.44.14v-2.78a15.86 15.86 0 0 0 2.44.2h10.78a10 10 0 0 0 2-.18zm-8.16 2.7c0 5-.1 9-5.56 12l-2.32-1.9a7.9 7.9 0 0 0 2.1-1.1c2.54-1.76 3-3.88 3-7.16a11.09 11.09 0 0 0 -.14-1.8z"/><path d="m673.24 265.64a13.75 13.75 0 0 0 .18 2.62h-3.16a22.4 22.4 0 0 0 .14-2.62v-6.56a39.1 39.1 0 0 1 -6.88 2.72l-1.44-2.44a30.73 30.73 0 0 0 9.1-3.62 21.11 21.11 0 0 0 5.22-4.52l2.14 1.94a32.68 32.68 0 0 1 -5.3 4.3z"/><path d="m697.7 257.52a15.13 15.13 0 0 0 1.82-.12v2.6c-.5 0-1.26-.06-1.82-.06h-4.82a12.69 12.69 0 0 1 -1.28 5.14 9.6 9.6 0 0 1 -4 3.84l-2.34-1.7a8.17 8.17 0 0 0 3.62-2.86 8.59 8.59 0 0 0 1.24-4.42h-5.5c-.58 0-1.36 0-1.92.08v-2.62a15.23 15.23 0 0 0 1.92.12zm-10.56-2.72c-.68 0-1.54 0-2.14.06v-2.58a15 15 0 0 0 2.14.16h6.54a15.7 15.7 0 0 0 2.16-.16v2.58c-.68 0-1.46-.06-2.16-.06zm9.88-.46a27.49 27.49 0 0 0 -1.58-2.78l1.6-.66c.5.74 1.2 2 1.58 2.74zm2.4-.92a23.6 23.6 0 0 0 -1.6-2.76l1.58-.66a26.61 26.61 0 0 1 1.6 2.72z"/><path d="m721.54 253.84a10.07 10.07 0 0 0 -.78 1 20.12 20.12 0 0 1 -4.82 5.48l-2.06-1.66a11.89 11.89 0 0 0 3.68-3.72h-10.42c-.84 0-1.5.06-2.44.14v-2.78a15.86 15.86 0 0 0 2.44.2h10.78a10 10 0 0 0 2-.18zm-8.16 2.7c0 5-.1 9-5.56 12l-2.32-1.9a7.9 7.9 0 0 0 2.1-1.1c2.54-1.76 3-3.88 3-7.16a11.09 11.09 0 0 0 -.14-1.8z"/><path d="m739 255.74c-.6.36-1.24.7-2 1.06a60.66 60.66 0 0 0 -5.52 2.94c-1.66 1.08-2.76 2.22-2.76 3.6s1.38 2.18 4.12 2.18a33.13 33.13 0 0 0 6.48-.72v2.86a38.74 38.74 0 0 1 -6.36.48c-3.94 0-6.92-1.1-6.92-4.5 0-2.2 1.38-3.82 3.28-5.22-.92-1.7-1.88-3.8-2.78-5.9l2.5-1a46.44 46.44 0 0 0 2.48 5.48c1.62-.94 3.34-1.82 4.28-2.34a13.68 13.68 0 0 0 1.82-1.2z"/><path d="m755.88 264.22c1.42 1.6 3.66 2.52 6.83 2.86a9 9 0 0 0 -1.41 2.08c-3.8-.6-6.18-2-7.76-4.5-1.18 1.78-3.4 3.36-7.48 4.46a9.71 9.71 0 0 0 -1.48-1.92c3.36-.76 5.28-1.8 6.38-3h-6v-2.06h7.18a9.17 9.17 0 0 0 .2-1.26h-5.14v-1.88h5.14v-1.2h-5.46v-1.32h-1.78v-4.28h7.3v-1.74h2.44v1.74h7.33v4.26h-1.61v1.32h-5.84v1.22h5.44v1.92h-5.46a6.79 6.79 0 0 1 -.16 1.26h7.9v2.06zm-3.54-8.36v-1.14h2.38v1.14h5v-1.58h-12.26v1.58z"/><path d="m772.72 264.2-7.26 2.12-.6-2.24c.8-.18 1.78-.44 2.86-.72v-4h-2.22v-2.18h2.22v-3.48h-2.4v-2.2h7v2.2h-2.32v3.48h2.08v2.18h-2.08v3.42l2.38-.66zm8.88 2.8c.36 0 .44-.32.48-2.32a6.12 6.12 0 0 0 2 .88c-.2 2.74-.72 3.48-2.2 3.48h-1.5c-1.84 0-2.24-.68-2.24-2.7v-3.94h-1.24c-.36 3.26-1.28 5.58-5.54 6.84a7 7 0 0 0 -1.32-2c3.62-.9 4.26-2.54 4.52-4.88h-1.46v-11.16h9.76v11.2h-2.46v3.92c0 .58 0 .66.38.66zm-6.28-12.6h5.22v-1.24h-5.22zm0 3h5.22v-1.24h-5.22zm0 3h5.22v-1.24h-5.22z"/><path d="m803.54 254.6s0 .82-.06 1.14c-.4 8-.8 11-1.68 12a2.7 2.7 0 0 1 -2 1.12 20.34 20.34 0 0 1 -3.2 0 5.53 5.53 0 0 0 -.82-2.46c1.26.1 2.44.1 3 .1a1.18 1.18 0 0 0 .94-.32c.6-.62 1-3.24 1.32-9.18h-5.6c-.32 4.14-1.72 9-7.34 12.18a9.49 9.49 0 0 0 -1.86-1.94 12.2 12.2 0 0 0 6.56-10.24h-6v-2.4h6.12v-4.12h2.54v4.12z"/><path d="m815.72 264.5c0-.58.06-1.5.08-2.36-1.46.8-2.26 1.58-2.26 2.56s.94 1.4 2.88 1.4a30.29 30.29 0 0 0 5.62-.58l-.04 2.58a54.8 54.8 0 0 1 -5.6.32c-3.1 0-5.44-.74-5.44-3.3s2.4-4.12 4.66-5.28a1.55 1.55 0 0 0 -1.38-.68 4.9 4.9 0 0 0 -3.1 1.36 25.37 25.37 0 0 0 -1.84 2.18l-2.12-1.58a19.36 19.36 0 0 0 4.36-5.44h-.24c-.8 0-2.26 0-3.34-.14v-2.32a25.41 25.41 0 0 0 3.48.22h1a11 11 0 0 0 .4-2.26l2.6.22c-.1.48-.24 1.16-.48 2a45.74 45.74 0 0 0 5.6-.58v2.32a64.52 64.52 0 0 1 -6.46.52 12.1 12.1 0 0 1 -1.14 2 6.2 6.2 0 0 1 2.24-.4 2.7 2.7 0 0 1 2.64 1.54c1-.48 1.86-.82 2.68-1.18s1.46-.68 2.18-1l1 2.3a21 21 0 0 0 -2.36.84c-.88.34-2 .78-3.22 1.34 0 1.1.06 2.56.08 3.46z"/><path d="m837.68 264.7.18 2.2c-3.68.72-7.68 1.44-10.54 2l-.6-2.32 1.64-.26v-7.22h2.2v6.84l1.5-.24v-7.88h2.28v2.24h2.86v2.1h-2.86v3.14zm2.42-7.46c.4 5.44 1.4 9.54 2.64 9.54.38 0 .6-1.1.68-3.62a6.27 6.27 0 0 0 2 1.32c-.31 3.72-1.08 4.66-2.88 4.66-3 0-4.3-5.3-4.78-11.9h-10.66v-2.18h10.5c-.06-1.48-.1-3-.1-4.54h2.42v4.54h5v2.18zm-3.92-3.78h-7.56v-2.12h7.56zm6.88 1.3a14.67 14.67 0 0 0 -2.62-2.84l1.62-1.24a13.64 13.64 0 0 1 2.74 2.74z"/><path d="m861.3 260.2a13.66 13.66 0 0 0 5.31 2.48 9.34 9.34 0 0 0 -1.51 1.9c-.3-.08-.6-.18-.88-.28v4.84h-2.22v-.64h-2.38v.66h-2.08v-6.76h3a11.8 11.8 0 0 1 -2.36-2.2h-2.6a14.83 14.83 0 0 1 -2.64 2.2h3.06v6.74h-2.14v-.64h-2.4v.66h-2.06v-5c-.28.12-.56.22-.86.32a8.67 8.67 0 0 0 -1.4-1.82 17.49 17.49 0 0 0 5-2.5h-4.28v-2.08h6.46c.28-.36.54-.74.78-1.12h-6v-5.8h6.84v5.1l1.88.64v-5.7h6.84v5.8h-6.84a10.36 10.36 0 0 1 -.62 1.14h8.76v2.08zm-7.66-7.14h-2.42v2.08h2.42zm.22 11.3h-2.4v2.2h2.4zm8.18 2.2v-2.2h-2.38v2.2zm-2.12-11.42h2.42v-2.08h-2.42z"/><path d="m872.76 252.12a16.65 16.65 0 0 0 -.48 1.76 49 49 0 0 0 -1 7.26 9.56 9.56 0 0 0 .08 1.28c.28-.7.6-1.36.88-2l1.24 1a47.75 47.75 0 0 0 -1.42 4.86 5.82 5.82 0 0 0 -.12.92v.82l-2.28.16a25.28 25.28 0 0 1 -.78-6.48 54.92 54.92 0 0 1 .82-7.84 14.8 14.8 0 0 0 .2-1.94zm4.64 9.78a6.52 6.52 0 0 0 -.24 1.66c0 .88.76 1.4 2.76 1.4a22.83 22.83 0 0 0 5-.52l.06 2.68a27.53 27.53 0 0 1 -5.12.4c-3.42 0-5-1.24-5-3.26a12.21 12.21 0 0 1 .34-2.58zm6.92-8.48v2.58a54.82 54.82 0 0 1 -8.5 0v-2.56a40.41 40.41 0 0 0 8.5-.02z"/><path d="m891.94 268.76a37.54 37.54 0 0 0 -4.3-4.42l2.08-1.8a37.49 37.49 0 0 1 4.36 4.38z"/><path d="m13.54 313.7v-.8h-2.68v.82h-2.4v-6.18h-2.72v8h12.48v2.3h-12.48v1.26h-2.46v-11.56h-2.84v-2.3h2.84v-4.24h2.46v4.2h2.72v-4.6h2.4v4.64h2.68v-4.44h2.4v4.44h3v2.3h-3v6.16zm0-3v-3.14h-2.68v3.14z"/><path d="m34 309.62a14.22 14.22 0 0 0 5.48 2.7 10.67 10.67 0 0 0 -1.58 2 14.62 14.62 0 0 1 -3.38-1.62v6.32h-2.52v-7h1.5a12.07 12.07 0 0 1 -2.34-2.4h-2.06a13.53 13.53 0 0 1 -2.4 2.38h1.7v1.38c0 1.9-.58 4.42-4.56 5.88a8.79 8.79 0 0 0 -1.64-1.92c3.34-1.1 3.74-2.78 3.74-4.06v-.72a16 16 0 0 1 -3.64 1.86 11 11 0 0 0 -1.56-2 15 15 0 0 0 5.4-2.84h-3.14v-8.5h14.22v8.5zm-8.62-5.14h3.5v-1.48h-3.5zm0 3.22h3.5v-1.44h-3.5zm9.4-4.66h-3.5v1.44h3.5zm0 3.22h-3.5v1.44h3.5z"/><path d="m57.88 303.9v10h-2.5v-1h-4.52v6.24h-2.52v-6.24h-4.5v1.1h-2.4v-10.1h6.9v-3.46h2.52v3.46zm-9.54 6.64v-4.3h-4.5v4.3zm7 0v-4.3h-4.48v4.3z"/><path d="m69.86 315.86c.76-.1 1.32-.2 1.84-.32a5.36 5.36 0 0 0 4.5-5.3c0-2.74-1.48-4.78-4.14-5.24a43 43 0 0 1 -1.18 5.38c-1.18 4-2.9 6.44-5.06 6.44s-4-2.42-4-5.76c0-4.56 4-8.48 9.12-8.48 4.9 0 8 3.42 8 7.74 0 4.16-2.56 7.12-7.56 7.88zm-1.54-6a31.79 31.79 0 0 0 1.06-4.8 6.21 6.21 0 0 0 -5 5.74c0 2 .8 3 1.54 3s1.6-1.26 2.4-3.94z"/><path d="m91.5 300.9c0 .32 0 .72-.06 1.14.16 2.76 1.16 11.38 8.62 14.88a7.82 7.82 0 0 0 -1.84 2c-4.52-2.24-6.76-6.36-7.88-10a17.08 17.08 0 0 1 -7.4 10 8.33 8.33 0 0 0 -2-1.9c8-4.42 7.7-13.5 7.84-16.14z"/><path d="m106.76 302.12a16.65 16.65 0 0 0 -.48 1.76 49 49 0 0 0 -1 7.26 9.56 9.56 0 0 0 .08 1.28c.28-.7.6-1.36.88-2l1.24 1a47.75 47.75 0 0 0 -1.42 4.86 5.82 5.82 0 0 0 -.12.92v.82l-2.28.16a25.28 25.28 0 0 1 -.78-6.48 54.92 54.92 0 0 1 .82-7.84 14.8 14.8 0 0 0 .2-1.94zm4.64 9.78a6.52 6.52 0 0 0 -.24 1.66c0 .88.76 1.4 2.76 1.4a22.83 22.83 0 0 0 5-.52l.06 2.68a27.53 27.53 0 0 1 -5.12.4c-3.42 0-5-1.24-5-3.26a12.21 12.21 0 0 1 .34-2.58zm6.92-8.48v2.58a54.82 54.82 0 0 1 -8.5 0v-2.56a40.41 40.41 0 0 0 8.5-.02z"/><path d="m139 303.46a6.91 6.91 0 0 1 -1.68 2.3 13.83 13.83 0 0 0 3.4 1.1 7.3 7.3 0 0 0 -1.32 1.72 13.55 13.55 0 0 1 -3.78-1.56 16.2 16.2 0 0 1 -3.34 1.36 9.17 9.17 0 0 0 -1.16-1.64 2.43 2.43 0 0 1 -.42 1.18 1.42 1.42 0 0 1 -1 .52 13.74 13.74 0 0 1 -1.62 0 4.65 4.65 0 0 0 -.12-.66h-4.38v-2.2q-.3.24-.66.48a5.3 5.3 0 0 0 -1.24-1.26 5.49 5.49 0 0 0 2.2-2l.44.08v-.34h-2v-1.36h2v-.72h1.92v.72h1.76v-.72h1.92v.72h2v1.36h-2v.6h-1.92v-.6h-1.72v.6h-.62l-.16.28h5.68a7.85 7.85 0 0 0 2.5-3l2 .52a8.72 8.72 0 0 1 -.46.84h5.06v1.66zm.76 10.76s0 .5-.08.76c-.24 2.1-.5 3.14-.94 3.56a1.92 1.92 0 0 1 -1.22.56 12.79 12.79 0 0 1 -2 0 4.34 4.34 0 0 0 -.28-1.28l-.78.32a9.42 9.42 0 0 0 -1.14-1.84l1.58-.58a8.06 8.06 0 0 1 1.22 1.72h-.06.26a.63.63 0 0 0 .52-.16 3.5 3.5 0 0 0 .5-1.68h-10.48v.06h-2.24l1.44.62a6.4 6.4 0 0 1 -2.34 2.84l-1.82-1.22a5.69 5.69 0 0 0 2.22-2.46l.46.2v-7.1h13.52v1.46h-5.6v.64h5v1.18h-5v.62h5v1.18h-5v.64zm-11.48-7.22h.34a.47.47 0 0 0 .44-.18 5.25 5.25 0 0 0 .34-2.22h-4.78c-.14.16-.3.32-.46.48h4.12zm-1.62-.9h-1.5v.66h1.5zm.2 3.84v.64h3.38v-.58zm3.38 1.82h-3.38v.62h3.38zm-3.38 2.44h3.38v-.64h-3.38zm1.9 1.88a12.41 12.41 0 0 1 .58 2.46l-2 .36a14.76 14.76 0 0 0 -.48-2.54zm3.24-.08a11.31 11.31 0 0 1 .88 2.18l-1.86.5a12.5 12.5 0 0 0 -.8-2.28zm2-10.2a9.37 9.37 0 0 1 -1.14-1.22 7.83 7.83 0 0 1 -.66.54c-.18-.2-.5-.5-.84-.8-.06 1.06-.14 1.82-.22 2.4a13.32 13.32 0 0 0 2.86-.92zm.28-2.34a6.7 6.7 0 0 0 1.38 1.32 5.12 5.12 0 0 0 1.14-1.32z"/><path d="m150.88 301.64c-.12.52-.26 1.14-.36 1.64s-.26 1.32-.4 2c.66 0 1.26-.08 1.66-.08 2.1 0 3.58.94 3.58 3.78 0 2.34-.28 5.5-1.12 7.22a3.18 3.18 0 0 1 -3.26 1.82 11.06 11.06 0 0 1 -2.36-.28l-.44-2.62a11.4 11.4 0 0 0 2.42.42 1.44 1.44 0 0 0 1.48-.86 14.65 14.65 0 0 0 .82-5.42c0-1.58-.68-1.8-1.94-1.8-.32 0-.8 0-1.36.08-.76 3-2.2 7.66-4 10.58l-2.6-1a29.44 29.44 0 0 0 4-9.26c-.7.08-1.32.16-1.7.22-.56.06-1.58.2-2.2.3l-.22-2.68a18.39 18.39 0 0 0 2.1 0c.62 0 1.56-.08 2.56-.16a21.93 21.93 0 0 0 .42-4.2zm6.84 1.86a35.7 35.7 0 0 1 3.46 7.36l-2.5 1.18a22.87 22.87 0 0 0 -3.36-7.54z"/><path d="m181.44 316.24a5.24 5.24 0 0 1 -3.72 1.5c-1.48 0-2.48-1.1-2.48-3 0-2.16.7-5.06.7-6.86 0-1-.5-1.46-1.32-1.46-1.48 0-3.64 1.82-5.24 3.6v1.6c0 1.62 0 3.28.12 5.14 0 .36.1 1.08.14 1.52h-2.72c0-.42.06-1.14.06-1.46 0-1.54 0-2.68.08-4.36-.86 1.26-1.82 2.72-2.5 3.66l-1.56-2.2c1.12-1.36 3.12-4 4.24-5.66l.08-1.38-3.6.46-.24-2.54a16.84 16.84 0 0 0 1.72 0c.58 0 1.44-.14 2.28-.26 0-.74.08-1.3.08-1.52a10.56 10.56 0 0 0 -.08-1.76l2.9.08c-.12.56-.28 1.58-.44 2.82l.74.94c-.26.34-.68 1-1 1.5a3 3 0 0 1 0 .42c1.56-1.36 3.84-2.94 5.76-2.94a2.78 2.78 0 0 1 3.12 2.92c0 2.06-.66 5-.66 7 0 .52.26.86.76.86a4 4 0 0 0 2.54-1.4z"/><path d="m198.18 313.08a10.05 10.05 0 0 1 -3.16 3.06 34.94 34.94 0 0 0 6.56.88 9.82 9.82 0 0 0 -1.36 2.12 27.65 27.65 0 0 1 -7.82-1.7 31 31 0 0 1 -7.7 1.72 9.66 9.66 0 0 0 -1.22-2 33 33 0 0 0 6.5-1 11.39 11.39 0 0 1 -1.8-1.4 22.84 22.84 0 0 1 -2.66 1.26 15.37 15.37 0 0 0 -1.64-1.58 14.81 14.81 0 0 0 6.06-3.34c-.88-.24-1.12-.84-1.12-2v-1.38h2.18v1.38c0 .46.14.5.8.5h2.1c.5 0 .64-.12.7-.94a6.3 6.3 0 0 0 1.82.62c-.22 1.54-.78 2-2.26 2h-1.84.12a10.68 10.68 0 0 1 -.78.88h4.64l.4-.06zm-12-4.38h-2.28v-3.64h3.44a10.8 10.8 0 0 0 -1-1.72l.22-.1c-.54 0-1.08 0-1.62 0a6.24 6.24 0 0 0 -.46-1.72 94.59 94.59 0 0 0 14-1.14l1.52 1.62c-.8.16-1.64.3-2.56.44l1.8.56c-.5.72-1 1.44-1.5 2.06h3.26v3.94h-1.92a8.84 8.84 0 0 1 1.28 1.44l-1.7 1.28a15.11 15.11 0 0 0 -3.06-3.2l1.6-1.12c.46.34 1 .76 1.44 1.18v-1.68h-5.44a8 8 0 0 1 1.36.88l-1.2 1.32a11.87 11.87 0 0 0 -2.84-1.72l.44-.48h-4.8zm-1.7 1.86a6.27 6.27 0 0 0 2.54-2.82l1.78.76a7.48 7.48 0 0 1 -2.68 3.4zm7.18-5.5a8.92 8.92 0 0 0 -.92-2l-2 .12a5.84 5.84 0 0 1 .86 1.62l-.6.26zm-1.7 8.78a10.29 10.29 0 0 0 2.5 1.46 9.91 9.91 0 0 0 2.28-1.46zm5.5-8.78a20.56 20.56 0 0 0 1.38-2.54c-1.22.16-2.52.28-3.86.4a6.93 6.93 0 0 1 .8 1.74l-1.06.4z"/><path d="m219.22 305.6c-1 .28-2.16.56-3.36.8.76 1.6 1.7 3.48 2.56 5.06l-1.42 1.54c-1.08-.22-3-.54-4.5-.72l.22-2c.66.06 1.74.18 2.34.22-.48-1-1.16-2.38-1.74-3.62a44.5 44.5 0 0 1 -8.34 0l-.08-2.54a33.74 33.74 0 0 0 7.4.2c-.16-.32-.3-.64-.42-.94a15.37 15.37 0 0 0 -1-1.9l2.8-.54c.34 1 .72 2 1.16 3a29 29 0 0 0 3.88-1zm-10.82 5.5a8.89 8.89 0 0 0 -.54 2.36c0 1.44.74 2.42 3.54 2.42a21.9 21.9 0 0 0 5.4-.58l-.06 2.62a27.76 27.76 0 0 1 -5.34.48c-4 0-6.12-1.5-6.12-4.26a13.42 13.42 0 0 1 .56-3.26z"/><path d="m241.44 316.24a5.24 5.24 0 0 1 -3.72 1.5c-1.48 0-2.48-1.1-2.48-3 0-2.16.7-5.06.7-6.86 0-1-.5-1.46-1.32-1.46-1.48 0-3.64 1.82-5.24 3.6v1.6c0 1.62 0 3.28.12 5.14 0 .36.1 1.08.14 1.52h-2.72c0-.42.06-1.14.06-1.46 0-1.54 0-2.68.08-4.36-.86 1.26-1.82 2.72-2.5 3.66l-1.56-2.2c1.12-1.36 3.12-4 4.24-5.66l.08-1.38-3.6.46-.24-2.54a16.84 16.84 0 0 0 1.72 0c.58 0 1.44-.14 2.28-.26 0-.74.08-1.3.08-1.52a10.56 10.56 0 0 0 -.08-1.76l2.9.08c-.12.56-.28 1.58-.44 2.82l.74.94c-.26.34-.68 1-1 1.5a3 3 0 0 1 0 .42c1.56-1.36 3.84-2.94 5.76-2.94a2.78 2.78 0 0 1 3.12 2.92c0 2.06-.66 5-.66 7 0 .52.26.86.76.86a4 4 0 0 0 2.54-1.4z"/><path d="m257.5 303.66q-.72.45-1.38.9c-1.06.74-3.14 2.5-4.38 3.5a6.66 6.66 0 0 1 1.86-.22c3.36 0 5.92 2.1 5.92 5 0 3.12-2.38 5.6-7.16 5.6-2.76 0-4.84-1.26-4.84-3.24a3.33 3.33 0 0 1 3.56-3.08 4 4 0 0 1 4.22 3.38 2.89 2.89 0 0 0 1.62-2.7c0-1.78-1.8-3-4.1-3-3 0-5 1.62-7.14 4l-1.8-1.86c1.4-1.14 3.78-3.16 5-4.12s3.16-2.58 4.14-3.44c-1 0-3.74.14-4.78.22a13.07 13.07 0 0 0 -1.62.16l-.08-2.58c.56.06 1.24.1 1.8.1 1 0 5.28-.1 6.4-.2a9.55 9.55 0 0 0 1.52-.2zm-4.5 12.46c-.12-1.28-.86-2.12-1.94-2.12-.74 0-1.22.44-1.22.94 0 .74.84 1.24 2 1.24a10.44 10.44 0 0 0 1.16-.06z"/><path d="m277.56 317.48a15.3 15.3 0 0 0 -4.38-3.1v.68c0 1.74-.9 3.42-4.22 3.42-2.82 0-5.14-.92-5.14-3.62 0-2.06 1.76-3.7 5.4-3.7a11.37 11.37 0 0 1 1.18.06c-.06-1.54-.14-3.24-.14-4.28 0-1.2 0-2.38 0-3.22a12.57 12.57 0 0 0 -.2-2.32h3c-.08.58-.14 1.54-.18 2.32v1.44c1.56 0 3.88-.12 5.52-.3l.1 2.36c-1.66.16-4 .24-5.62.28 0 1.2.12 2.76.22 4.22a15.66 15.66 0 0 1 6 3.4zm-7.06-4a10.88 10.88 0 0 0 -1.64-.14c-1.54 0-2.46.52-2.46 1.36s1 1.34 2.38 1.34 1.74-.58 1.74-1.88c0-.16 0-.38-.02-.64z"/><path d="m292 308.44a17.77 17.77 0 0 0 -5.16 1c-.58.18-1.34.48-1.92.68l-.74-2.82a19.42 19.42 0 0 0 2.16-.34 27.44 27.44 0 0 1 6-.9c3.14 0 5.34 1.78 5.34 4.88 0 4.24-3.92 6.88-9.42 7.64l-1.44-2.48c4.92-.56 8.06-2.16 8.06-5.26 0-1.34-1-2.42-2.88-2.4zm4-6.26-.4 2.44c-2.32-.16-6.62-.54-8.9-.94l.4-2.4a55.94 55.94 0 0 0 8.9.9z"/><path d="m312.72 305.72a29 29 0 0 1 -3.44.68 36.56 36.56 0 0 1 -4.24 8.48l-2.42-1.22a30.22 30.22 0 0 0 4-7c-.34 0-.68 0-1 0-.82 0-1.62 0-2.48-.06l-.14-2.3a25.18 25.18 0 0 0 2.64.14c.58 0 1.18 0 1.78-.06a16.86 16.86 0 0 0 .54-3.32l2.74.28c-.16.64-.4 1.64-.68 2.7a20.92 20.92 0 0 0 2.66-.62zm2.6 1.78c-.06.84 0 1.66 0 2.54 0 .56.06 1.52.12 2.5a13.19 13.19 0 0 1 4.1 2.54l-1.32 2.12a17.63 17.63 0 0 0 -2.68-2.1v.18c0 1.84-1 3.28-3.82 3.28-2.46 0-4.4-1.1-4.4-3.28 0-1.94 1.62-3.44 4.38-3.44.46 0 .92 0 1.34.08-.06-1.48-.16-3.22-.22-4.42zm-2.18 6.56a7 7 0 0 0 -1.6-.2c-1.14 0-1.88.48-1.88 1.18s.62 1.24 1.7 1.24c1.34 0 1.78-.78 1.78-1.84zm5.58-5.5a26.41 26.41 0 0 0 -4.76-2.82l1.28-2a35.64 35.64 0 0 1 4.88 2.68z"/><path d="m328 301.2a35 35 0 0 1 -1.6 3.86v14h-2.3v-10.14c-.4.54-.82 1.08-1.22 1.56a14.26 14.26 0 0 0 -1.32-2.48 21.06 21.06 0 0 0 4.14-7.48zm8.1 5.06a21.61 21.61 0 0 0 4.88 8 9.74 9.74 0 0 0 -1.78 1.84 18.33 18.33 0 0 1 -1.6-2.12v1.76h-2.68v3.26h-2.32v-3.22h-2.62v-1.84a14.81 14.81 0 0 1 -1.78 2.26 9.69 9.69 0 0 0 -1.7-1.8 20.45 20.45 0 0 0 5-8.12h-4v-2.28h5.06v-3.46h2.32v3.46h5.52v2.26zm-3.5 7.38v-5.08a26 26 0 0 1 -2.44 5.08zm4.78 0a29.25 29.25 0 0 1 -2.46-5.22v5.22z"/><path d="m342.88 317.34a9.29 9.29 0 0 0 1-4.4l1.32.26c-.1 1.82-.3 3.68-1.12 4.8zm15.38-3.8a7.53 7.53 0 0 0 3.74 3.68 9.25 9.25 0 0 0 -1.5 1.88 8.63 8.63 0 0 1 -3.74-4.22 8.73 8.73 0 0 1 -4.44 4.28 8 8 0 0 0 -1.16-1.4 1.63 1.63 0 0 1 -.26.56 1.59 1.59 0 0 1 -1.2.7 7.78 7.78 0 0 1 -1.76.06 4.57 4.57 0 0 0 -.48-1.84 11.33 11.33 0 0 0 1.22.08.6.6 0 0 0 .54-.26 4.65 4.65 0 0 0 .34-1.74l-.64.24a11.72 11.72 0 0 0 -.92-2.56l.94-.32a11.55 11.55 0 0 1 .68 1.62c0-.6.08-1.34.12-2.2h-5.74v-10.9h7.36v1.92h-2.14v1.1h1.78v1.06a12.77 12.77 0 0 0 4.36-4.8h2a12.91 12.91 0 0 0 4.7 4.5 13.85 13.85 0 0 0 -1.18 2 9.09 9.09 0 0 1 -1.3-.92v1.1h-2v1.08h3.58v5.28zm-11.86-.28a19.59 19.59 0 0 1 .2 3.66l-1.08.14a23.67 23.67 0 0 0 -.14-3.7zm-.4-10.16v1.1h1.36v-1.1zm0 2.9v1.2h1.36v-1.2zm0 4.24h1.36v-1.24h-1.36zm1.74 2.82a16.47 16.47 0 0 1 .66 3.22l-1 .22a15 15 0 0 0 -.62-3.24zm4-2.82s0 .52 0 .78a49.13 49.13 0 0 1 -.48 6.28 7.06 7.06 0 0 0 3.68-3.76h-2.84v-5.28h3.4v-1.08h-2v-1.08a11.77 11.77 0 0 1 -1.54 1.14 11.17 11.17 0 0 0 -.94-1.72v.48h-1.74v1.2h1.72v1.8h-1.74v1.24zm3.62 1.58a10.8 10.8 0 0 0 .12-1.78v-.04h-1.46v1.84zm3.4-6.46a14.2 14.2 0 0 1 -2.34-2.84 14.94 14.94 0 0 1 -2.2 2.84zm-1.14 4.64v.08a17.54 17.54 0 0 1 -.08 1.76h1.64v-1.84z"/><path d="m372.92 314.5c0-.58.06-1.5.08-2.36-1.46.8-2.26 1.58-2.26 2.56s.94 1.4 2.88 1.4a30.29 30.29 0 0 0 5.62-.58l-.08 2.58a54.8 54.8 0 0 1 -5.6.32c-3.1 0-5.44-.74-5.44-3.3s2.4-4.12 4.66-5.28a1.55 1.55 0 0 0 -1.38-.68 4.9 4.9 0 0 0 -3.1 1.36 25.37 25.37 0 0 0 -1.84 2.18l-2.12-1.58a19.36 19.36 0 0 0 4.36-5.44h-.24c-.8 0-2.26 0-3.34-.14v-2.32a25.41 25.41 0 0 0 3.48.22h1a11 11 0 0 0 .4-2.26l2.6.22c-.1.48-.24 1.16-.48 2a45.74 45.74 0 0 0 5.6-.58v2.32a64.52 64.52 0 0 1 -6.46.52 12.1 12.1 0 0 1 -1.14 2 6.2 6.2 0 0 1 2.24-.4 2.7 2.7 0 0 1 2.64 1.54c1-.48 1.86-.82 2.68-1.18s1.46-.68 2.18-1l1 2.3a21 21 0 0 0 -2.36.84c-.88.34-2 .78-3.22 1.34 0 1.1.06 2.56.08 3.46z"/><path d="m390.2 301.24a31.15 31.15 0 0 1 -1.92 4.16v13.7h-2.4v-10c-.42.5-.84 1-1.24 1.44a16.25 16.25 0 0 0 -1.32-2.54 20.81 20.81 0 0 0 4.56-7.48zm6.34 4.72v2.1h5.18v2.16h-5.18v2.26h5.46v2.2h-5.45v4.44h-2.45v-13.12h-.76a22.21 22.21 0 0 1 -2.62 3.88 16.18 16.18 0 0 0 -1.82-1.66 19.85 19.85 0 0 0 4.24-7.54l2.3.58a23.64 23.64 0 0 1 -1 2.48h7.76v2.26z"/><path d="m409.7 301.38a32.34 32.34 0 0 0 -.8 4.1c.94-1.52 2.66-3.2 4.9-3.2 2.76 0 4.9 2.7 4.9 7.06 0 5.6-3.44 8.28-8.68 9.24l-1.5-2.3c4.4-.68 7.48-2.12 7.48-6.92 0-3.06-1-4.76-2.66-4.76-2.34 0-4.38 3.52-4.48 6.12a11.89 11.89 0 0 0 .1 2.1l-2.46.16a25.62 25.62 0 0 1 -.24-3.3 48 48 0 0 1 .56-6.34c.1-.72.14-1.52.16-2.08z"/><path d="m440.34 315.74v2.4h-18.18v-2.4h7.16v-15.06h2.56v5.72h7.06v2.42h-7.06v6.92z"/><path d="m447.36 302.44c-.18.5-.38 1.2-.48 1.62-.48 2.2-1.18 6.12-.66 8.58.26-.62.62-1.56.94-2.28l1.24.78a49.7 49.7 0 0 0 -1.34 4.84 6.27 6.27 0 0 0 -.12 1v.82l-2.2.22a21.42 21.42 0 0 1 -1.14-6.42 49 49 0 0 1 .66-7.7 17 17 0 0 0 .12-1.7zm9.62-.34c-.06.48-.08.92-.1 1.36v2.54c1.2-.1 2.33-.22 3.18-.38v2.6c-.83.1-1.94.18-3.14.24v.62c0 4.68-.38 7.54-4.32 10.06l-2.28-1.8a7.7 7.7 0 0 0 2.32-1.58c1.5-1.58 1.84-3.34 1.84-6.7v-.5c-.68 0-1.36 0-2 0-.86 0-2.06-.06-3.06-.12v-2.52a20.82 20.82 0 0 0 3 .22h2c0-1.08-.06-2.1-.1-2.66a9.65 9.65 0 0 0 -.22-1.36zm1.32 2.52a25.13 25.13 0 0 0 -1-2.84l1.36-.42a22.84 22.84 0 0 1 1.06 2.8zm2.38-3.9a24.38 24.38 0 0 1 1.11 2.78l-1.37.44a26.25 26.25 0 0 0 -1.1-2.8z"/><path d="m465.5 303.56c1.64-.16 4.92-.44 8.54-.76 2-.16 4.22-.28 5.6-.34v2.56a20.5 20.5 0 0 0 -3.83.26 6 6 0 0 0 -4.18 5.54c0 3.26 3.06 4.42 6.4 4.6l-.92 2.74c-4.16-.28-8.08-2.52-8.08-6.8a7.92 7.92 0 0 1 2.92-6.1c-1.7.18-5.88.62-8.18 1.12l-.24-2.72c.81-.02 1.57-.06 1.97-.1z"/><path d="m487 305.54c0 1.28 0 2.78.12 4.2.28 2.86.88 4.8 2.12 4.8.94 0 1.72-2.32 2.1-3.88l2 2.4c-1.32 3.44-2.56 4.66-4.16 4.66-2.16 0-4.06-2-4.62-7.28-.18-1.82-.22-4.12-.22-5.34a11.48 11.48 0 0 0 -.14-2h3a15.69 15.69 0 0 0 -.2 2.44zm13.76 8.14-2.62 1c-.3-3.18-1.36-7.84-3.52-10.28l2.52-.84c1.92 2.3 3.44 7.08 3.66 10.12z"/><path d="m519.42 308.26a23 23 0 0 1 -3.06.8c.5 1.06 1.06 2.22 1.64 3.3l-1.18 1.5c-1.1-.2-3-.5-4.32-.66l.22-1.9c.78.1 1.56.16 2.1.22l-.9-2.06a49.76 49.76 0 0 1 -8.7.12l-.1-2.28a40.2 40.2 0 0 0 7.9 0l-.34-.78-.48-1.12a39.27 39.27 0 0 1 -6.82-.08l-.12-2.26a37.29 37.29 0 0 0 6 .22 17.81 17.81 0 0 0 -1-1.7l2.82-.54a16.93 16.93 0 0 0 .62 2 24 24 0 0 0 3.8-.92l.42 2.22a28.58 28.58 0 0 1 -3.4.8l.38.86.46 1a21.2 21.2 0 0 0 3.54-1zm-11.1 3.74a5.87 5.87 0 0 0 -.48 1.92c0 1.24.88 2.08 3.46 2.08a28.82 28.82 0 0 0 5.24-.44l-.08 2.54a35.08 35.08 0 0 1 -5.1.38c-3.7 0-6-1.26-6-4a10.28 10.28 0 0 1 .48-2.7z"/><path d="m537.28 317.48a15 15 0 0 0 -4-2.74v.7c0 1.7-1.28 3-3.9 3-3.16 0-4.84-1.2-4.84-3.3s1.84-3.4 4.9-3.4a12.16 12.16 0 0 1 1.22.06c0-.6-.06-1.22-.08-1.8h-1c-1.16 0-3.44-.1-4.76-.26v-2.34a35.93 35.93 0 0 0 4.78.36h.94v-2.06h-.94a33 33 0 0 1 -4.3-.3v-2.26a26.22 26.22 0 0 0 4.3.38h1v-.9a7.93 7.93 0 0 0 -.1-1.36h2.7a13.24 13.24 0 0 0 -.14 1.4v.78a41.5 41.5 0 0 0 4.72-.48l.06 2.28c-1.3.12-2.9.28-4.8.38v2.06c2-.08 3.66-.26 5.28-.46v2.34c-1.78.2-3.32.34-5.24.4 0 .74.08 1.54.14 2.3a15.32 15.32 0 0 1 5.54 3zm-6.52-3.56a10.61 10.61 0 0 0 -1.62-.14c-1.4 0-2.16.54-2.16 1.22s.7 1.22 2.06 1.22c1.06 0 1.74-.32 1.74-1.46 0-.22 0-.5-.02-.84z"/><path d="m559 306c-1.2-.06-3.06-.1-5.74-.1v2.94a4.88 4.88 0 0 1 .74 2.74c0 2.58-1.52 5.86-6.36 7.22l-2.1-2.12a9.05 9.05 0 0 0 4.84-2.26 4.28 4.28 0 0 1 -.9.1 3.49 3.49 0 0 1 -3.42-3.64 3.73 3.73 0 0 1 4-3.7 4.75 4.75 0 0 1 .78.06v-1.32c-3 0-6.06.16-8.5.3l-.06-2.4c2.26 0 5.86-.1 8.52-.14a5.08 5.08 0 0 0 0-.6 13.4 13.4 0 0 0 -.18-1.72h2.88c-.06.32-.12 1.38-.14 1.7v.6h5.74zm-9 6.32c.82 0 1.56-.62 1.3-2.34a1.41 1.41 0 0 0 -1.3-.7 1.52 1.52 0 1 0 0 3z"/><path d="m567.54 315.66a3.23 3.23 0 1 1 -3.24-3.24 3.24 3.24 0 0 1 3.24 3.24zm-1.44 0a1.79 1.79 0 1 0 -1.8 1.78 1.79 1.79 0 0 0 1.8-1.78z"/></svg>