<svg viewBox="0 0 519.43 504.54" xmlns="http://www.w3.org/2000/svg"><path d="m0 2.86h3.93l1.53 9.39c.29 2 .6 4.08.88 6.13h.11c.39-2.05.8-4.13 1.22-6.13l2.24-9.39h3.27l2.24 9.39c.41 2 .8 4.05 1.22 6.13h.13c.29-2.08.57-4.13.86-6.13l1.51-9.39h3.66l-3.56 19.24h-4.78l-2.16-9.52c-.31-1.5-.6-3-.83-4.44h-.11c-.26 1.45-.52 2.94-.83 4.44l-2.11 9.52h-4.7z"/><path d="m24.86 1.35h3.79v5.23l-.15 2.73a6.63 6.63 0 0 1 4.57-2.13c3.15 0 4.5 2.18 4.5 5.85v9.07h-3.82v-8.61c0-2.23-.63-3-2.06-3-1.19 0-2 .57-3 1.64v10h-3.83z"/><path d="m40.25 18.15c0-3.12 2.52-4.76 8.37-5.38 0-1.43-.68-2.53-2.47-2.53a8.22 8.22 0 0 0 -4 1.38l-1.38-2.52a11.56 11.56 0 0 1 6.08-1.92c3.69 0 5.59 2.21 5.59 6.42v8.5h-3.12l-.32-1.56a6.87 6.87 0 0 1 -4.4 1.92 4.13 4.13 0 0 1 -4.35-4.31zm8.37-.15v-2.89c-3.54.46-4.73 1.43-4.73 2.73 0 1.14.8 1.63 1.92 1.63a3.87 3.87 0 0 0 2.81-1.47z"/><path d="m56.37 17v-6.44h-2.06v-2.84l2.24-.18.45-3.9h3.2v3.9h3.59v3h-3.6v6.46c0 1.67.68 2.45 2 2.45a4.45 4.45 0 0 0 1.43-.31l.62 2.78a9.41 9.41 0 0 1 -3.07.54c-3.48 0-4.8-2.18-4.8-5.46z"/><path d="m65.31 14.85c0-4.74 3.3-7.67 6.79-7.67 4 0 6.08 2.93 6.08 7a7.36 7.36 0 0 1 -.18 1.71h-9a3.82 3.82 0 0 0 4 3.64 6 6 0 0 0 3.28-1l1.3 2.34a9.18 9.18 0 0 1 -5.1 1.61c-4-.02-7.17-2.85-7.17-7.63zm9.6-1.49c0-2-.89-3.22-2.76-3.22-1.53 0-2.89 1.09-3.17 3.22z"/><path d="m79.12 7.54h3.88l2.13 7.25c.36 1.43.78 2.94 1.17 4.42h.13c.36-1.48.78-3 1.17-4.42l2.1-7.25h3.67l-4.87 14.56h-4.42z"/><path d="m94.35 14.85c0-4.74 3.31-7.67 6.79-7.67 4 0 6.08 2.93 6.08 7a6.87 6.87 0 0 1 -.18 1.75h-9a3.82 3.82 0 0 0 4 3.64 6 6 0 0 0 3.28-1l1.3 2.34a9.18 9.18 0 0 1 -5.1 1.61c-3.99-.06-7.17-2.89-7.17-7.67zm9.6-1.49c0-2-.89-3.22-2.76-3.22-1.53 0-2.89 1.09-3.17 3.22z"/><path d="m109.85 7.54h3.15l.26 2.57h.1c1.07-1.89 2.63-2.93 4.14-2.93a4.14 4.14 0 0 1 1.71.31l-.67 3.3a4.52 4.52 0 0 0 -1.51-.23c-1.14 0-2.52.75-3.36 2.86v8.68h-3.79z"/><path d="m137.28 21c.68 0 1.38.08 2.08.08 1.46 0 6.45 0 8.29-.08a10.79 10.79 0 0 0 -1 3h-7.45c-4.75 0-8-.67-10.16-3.69a11.77 11.77 0 0 1 -3.64 4.13 12.75 12.75 0 0 0 -2.34-2.15c2.65-1.64 4.23-4.4 4.83-7.88l3.1.47c-.19.83-.39 1.61-.6 2.36a5.71 5.71 0 0 0 3.74 3.25v-6.6h-10.13v-2.76h22.94v2.73h-9.65v2h8v2.68h-8zm7.18-11h-18.08v-9h18.08zm-3.15-6.86h-11.91v1.31h11.91zm0 3.35h-11.91v1.34h11.91z"/><path d="m173.42 10.3v3.35h-23.92v-3.35z"/><path d="m198.51 11.47a49.6 49.6 0 0 1 -4.78 3.14 13.24 13.24 0 0 0 5.79 5.23 13 13 0 0 0 -2.15 2.68c-4.63-2.47-7.21-7.26-8.69-13.32h-.05a16.55 16.55 0 0 1 -2.16 1.51c4.91 4.27 4.71 10.74 2.13 12.61a4.28 4.28 0 0 1 -3.17 1.09 21 21 0 0 1 -2.21-.05 6.46 6.46 0 0 0 -.88-3c1 .08 1.82.13 2.49.13a1.84 1.84 0 0 0 1.56-.55 3.39 3.39 0 0 0 .86-2.91 40.09 40.09 0 0 1 -9.93 5.15 13.89 13.89 0 0 0 -1.61-2.58 29.77 29.77 0 0 0 10.84-5.25 10 10 0 0 0 -.5-.91 38.45 38.45 0 0 1 -7.87 3.9 11.49 11.49 0 0 0 -1.56-2.34 27.82 27.82 0 0 0 8-3.38l-.62-.62a39.45 39.45 0 0 1 -6.16 2.21 17.62 17.62 0 0 0 -1.59-2.42 31.67 31.67 0 0 0 8-2.63h-3.8v-2.56h14v2.6h-3a23 23 0 0 0 1.07 3 30.7 30.7 0 0 0 3.61-2.83zm-19-3.54h-3v-5.8h9.36v-2.03h3.13v2h9.52v5.8h-3.17v-3h-15.85z"/><path d="m209.51 13.75c-.84.26-1.67.52-2.5.76v6.58c0 1.43-.23 2.21-1 2.7a6.77 6.77 0 0 1 -3.62.57 12.63 12.63 0 0 0 -.75-2.86c.91.05 1.82.05 2.13 0s.44-.11.44-.44v-5.72c-.86.26-1.71.49-2.47.7l-.67-3c.88-.18 2-.47 3.14-.76v-4.45h-2.73v-2.83h2.73v-4.9h2.79v4.9h2.37v2.83h-2.37v3.74l2.11-.6zm16.14 7.67v2.24h-17v-2.24zm-.49-17h-15.65v-2.21h6.32v-2.11h2.93v2.11h6.4zm-.88 8.91h-13.66v-8.03h13.66zm-13 7.23v-6.36h12.22v6.39zm10.29-13.72h-8.42v5h8.42zm-7.57 9.83h6.63v-1h-6.63zm0 2.39h6.63v-.94h-6.63zm6.35-8.06h-6.09v-3.33h6.09zm-1.95-2.13h-2.24v.93h2.24z"/><path d="m249.86 16.43a42.66 42.66 0 0 1 -4.78 2.94 17.3 17.3 0 0 0 6 2.24 13.77 13.77 0 0 0 -1.95 2.78c-5.87-1.35-9.33-4.45-11.49-9.36h-3v5.51l5.62-.83.13 2.73c-4 .65-8.27 1.3-11.42 1.77l-.7-2.84c.94-.1 2-.26 3.17-.39v-5.98h-4.29v-2.7h4.32v-11.3h16.41v2.48h-13.18v1.38h12.51v2.39h-12.51v1.3h12.51v2.45h-12.51v1.3h15.94v2.7h-2.78zm-8.94-1.43a12.1 12.1 0 0 0 2.05 2.7 36.35 36.35 0 0 0 4-2.7z"/><path d="m276.59 4.39c-1 .84-2 1.67-3 2.34a17 17 0 0 0 3.62 1.36 12.56 12.56 0 0 0 -1.85 2.44 19.9 19.9 0 0 1 -2.94-1.22v2.39a1.38 1.38 0 0 0 .06.62.33.33 0 0 0 .28.11h.44a1 1 0 0 0 .34 0 .44.44 0 0 0 .26-.31 9.09 9.09 0 0 0 .11-1.2 6.85 6.85 0 0 0 2.18 1.08 5.62 5.62 0 0 1 -.39 1.66 1.56 1.56 0 0 1 -1 .73 4 4 0 0 1 -1.25.18h-1.32a2.49 2.49 0 0 1 -1.72-.57c-.44-.44-.6-.94-.6-2.39v-1.47h-2.34a6 6 0 0 1 -2.86 5.15 12 12 0 0 0 -1.61-1.72v1.15h-2.73v-.32h-2.65c-.1.58-.21 1.12-.34 1.67h5.77s0 .73 0 1.09c-.28 3.74-.6 5.46-1.3 6.16a2.79 2.79 0 0 1 -2.08.89 31.7 31.7 0 0 1 -3.46 0 6.05 6.05 0 0 0 -.88-2.6c1.3.11 2.6.13 3.15.13a1.35 1.35 0 0 0 1-.23c.34-.31.54-1.25.73-3.23h-3.41l-.15.63-2.48-.39a64.81 64.81 0 0 0 1.36-6.42h4.78v-1.8h-4.31v-.19c-.6.29-1.19.52-1.82.76a15.61 15.61 0 0 0 -1.66-2.26 17.51 17.51 0 0 0 4.34-2 24.54 24.54 0 0 0 -2.39-1.56l1.74-1.64a19 19 0 0 1 2.79 1.66 13.14 13.14 0 0 0 1.53-1.66h-5.12v-2.41h6.79l.52-.13 1.9.93a15.14 15.14 0 0 1 -4.87 6.14h3.25v5.23a3.76 3.76 0 0 0 1.9-3.51v-1.86h5.15a18.1 18.1 0 0 1 -5.44-7l2.47-.7a14 14 0 0 0 1.51 2.52 21 21 0 0 0 2.46-2.39l2.21 1.59c-1 .86-2.16 1.77-3.12 2.47a14.22 14.22 0 0 0 1.4 1.17 21.25 21.25 0 0 0 2.81-2.65zm-1.9 11.44a11.55 11.55 0 0 1 -3 4.89 17 17 0 0 0 4.55 1.15 11.64 11.64 0 0 0 -1.82 2.49 16.26 16.26 0 0 1 -5.12-1.9 18.08 18.08 0 0 1 -5.36 1.9 9.63 9.63 0 0 0 -1.3-2.23 17.84 17.84 0 0 0 4.47-1.33 11.56 11.56 0 0 1 -2.11-2.91l1.69-.47h-2.5v-2.05h8.37l.47-.08zm-7.28 1.59a7.73 7.73 0 0 0 1.92 2 7.7 7.7 0 0 0 1.82-2z"/><path d="m283.5 10.56a15.12 15.12 0 0 1 -2.93 3.77 11.52 11.52 0 0 0 -2-2.14 15.38 15.38 0 0 0 4.43-5.79h-3.77v-2.63h4.26v-3.67h2.94v3.67h3.67v2.63h-3.67v1a49.22 49.22 0 0 1 4.11 2.86l-1.61 2.47c-.6-.65-1.56-1.59-2.5-2.45v5.44h-2.93zm-4.73 11a17.64 17.64 0 0 0 2.23-5.39l2.76 1.09a25.39 25.39 0 0 1 -2.18 5.67zm14.85-.42c1.22 0 1.4-.36 1.56-3a7.26 7.26 0 0 0 2.82 1.07c-.39 3.72-1.25 4.63-4.11 4.63h-4.68c-3.53 0-4.42-.86-4.42-3.56v-3.56h3v3.51c0 .78.26.88 1.67.88zm-3-6.45.52.47v-13.78h10.56v14h-10.3a37.66 37.66 0 0 1 2.76 2.75l-2.26 1.87a39.47 39.47 0 0 0 -3.43-3.61zm3.33-9.33h4.78v-1.54h-4.78zm0 3.8h4.78v-1.54h-4.78zm0 3.82h4.78v-1.59h-4.78zm6 2.88c1 1.62 2.54 3.83 3.25 5.18l-2.89 1.48c-.62-1.38-2.05-3.67-3.07-5.41z"/><path d="m326.85 13.34v11h-3.23v-1.49h-14.4v1.51h-3.15v-11h3.15v6.47h5.43v-7.83h-7.54v-9.48h3.07v6.42h4.47v-8.6h3.17v8.6h4.74v-6.42h3.25v9.48h-8v7.85h5.8v-6.51z"/><path d="m353.63 3.93v2.78h-23.54v-2.78h5.54a16.3 16.3 0 0 0 -1.95-2.86l2.94-1a14.21 14.21 0 0 1 2.38 3.36l-1.43.5h7.23a29.17 29.17 0 0 0 2.2-3.93l3.35 1c-.62 1-1.32 2-2 2.94zm-11.83 17.36c0 1.33-.26 2.06-1.15 2.5a8.18 8.18 0 0 1 -3.61.49 10.79 10.79 0 0 0 -1-2.62c1 .05 2 .05 2.34 0s.42-.1.42-.41v-2.25h-4.35v5.26h-2.93v-15.76h10.28zm-7.34-10.19v1.61h4.35v-1.61zm4.35 5.59v-1.69h-4.35v1.69zm8.06 2.68h-2.87v-10.61h2.84zm2.34-11.37h3v13c0 1.53-.29 2.28-1.33 2.78a10.26 10.26 0 0 1 -4.26.52 10.85 10.85 0 0 0 -1.12-2.91h3.12s.55-.1.55-.47z"/><path d="m360.05 15c-.16 3.17-.71 6.89-2.32 9.44a13.73 13.73 0 0 0 -2.44-1.85c1.71-2.78 1.87-6.84 1.87-9.83v-6.65h10.12v8.89zm7.75-10.84h-11.5v-2.81h11.5zm-7.7 4.71v3.3h4.19v-3.3zm20 3h-2.32v12.49h-3.06v-12.53h-3c-.23 4-1.2 9-4.65 12.48a7.62 7.62 0 0 0 -2.29-2.08c3.61-3.67 4-8.81 4-12.66v-7.18l2.13.5a29.53 29.53 0 0 0 6.27-2.55l2.73 2.34a43.06 43.06 0 0 1 -8.19 2.78v3.38h8.35z"/><path d="m396.94 13.44a25.33 25.33 0 0 0 9.26 7.15 14.76 14.76 0 0 0 -2.2 2.68 27.53 27.53 0 0 1 -8.45-7.15v8.27h-3.3v-8.11a28.51 28.51 0 0 1 -8.45 7 15.51 15.51 0 0 0 -2.29-2.67 25.24 25.24 0 0 0 9.31-7.13h-8.42v-3.11h9.85v-3.32h-7.9v-3.05h7.9v-3.9h3.3v3.9h8.14v3.05h-8.14v3.32h10v3.07z"/><path d="m417 6.11a20.76 20.76 0 0 1 -1 2.05h12v12.84c0 1.53-.28 2.36-1.35 2.83s-2.5.52-4.6.52a12.79 12.79 0 0 0 -.94-3c1.33.08 2.84.08 3.28.08s.6-.16.6-.52v-1.54h-9.39v5h-3.07v-11.37a19.41 19.41 0 0 1 -3.43 3 16.85 16.85 0 0 0 -2-2.37 20 20 0 0 0 6.47-7.59h-5.69v-2.84h7a25.58 25.58 0 0 0 1-3.15l3.2.73c-.26.81-.52 1.61-.83 2.42h12.68v2.91zm8 4.76h-9.39v1.66h9.39zm0 5.93v-1.69h-9.39v1.69z"/><path d="m456.33 4.08s0 1 0 1.41c-.34 11.62-.62 15.75-1.69 17.13a3.48 3.48 0 0 1 -2.5 1.43 29.42 29.42 0 0 1 -4.08.05 7.26 7.26 0 0 0 -1-3c1.66.15 3.2.15 3.87.15a1.39 1.39 0 0 0 1.07-.45c.75-.83 1.09-4.73 1.37-13.91h-5.56a22.52 22.52 0 0 1 -2.25 4.11 19.09 19.09 0 0 0 -2-1.46v12.14h-6.94v1.9h-2.81v-19.32h2.94a28.35 28.35 0 0 0 .75-4.18l3.38.47c-.44 1.3-.91 2.6-1.35 3.71h4v4.22a26.78 26.78 0 0 0 3.54-8.38l2.93.68a29.91 29.91 0 0 1 -1 3.3zm-15.58 2.92h-4.13v4.21h4.13zm0 12v-5.14h-4.13v5.14zm8.63-1.4a55.12 55.12 0 0 0 -3.61-6l2.42-1.37a62.7 62.7 0 0 1 3.81 5.71z"/><path d="m463.76 7.2v-1a23.9 23.9 0 0 1 -2.31 1.9h10.4v8.1h-8.4c-.05.34-.11.7-.18 1h9v7h-2.68v-.7h-4.39v.81h-2.6v-4.31a12.36 12.36 0 0 1 -2 3.8 9.81 9.81 0 0 0 -2-1.85c2.28-3 2.57-7.15 2.57-10.09v-3.51c-.29.18-.57.39-.86.57a8.82 8.82 0 0 0 -1.84-2.19 18 18 0 0 0 6.46-6.34h2.76a51.19 51.19 0 0 1 5.43 4.68l-2 2.29c-.37-.42-.84-.94-1.38-1.51v1.35zm5.31 6.8v-1h-5.36v1zm-5.33-3.77v.94h5.33v-.94zm5.26-5.11c-.75-.73-1.56-1.48-2.31-2.08-.55.68-1.15 1.38-1.82 2.08zm-3.87 14.33v1.84h4.39v-1.84zm11.12-1.59h-2.91v-14.64h2.91zm5.82-17.26v20.07c0 1.72-.34 2.57-1.38 3s-2.6.63-4.84.63a12.66 12.66 0 0 0 -1-3.15h3.56s.65-.15.65-.6v-19.95z"/><path d="m484.61 22.2a8.53 8.53 0 0 0 3.39-4.39l2.6.91a9.88 9.88 0 0 1 -3.6 5.12zm23.51-14.2h-22.49v-2.38h5.56a13.78 13.78 0 0 0 -.65-1.75h.13-3.77v-2.41h8.37v-1.38h3.07v1.38h8.4v2.39h-3.67l.39.08c-.39.67-.78 1.22-1.09 1.69h5.75zm-8.84 13.6c1 0 1.12-.29 1.25-2.14a8.06 8.06 0 0 0 2.62 1c-.34 2.89-1.17 3.62-3.59 3.62h-4.18c-3.28 0-4.09-.76-4.09-3.23v-2.73h2.81l-.31-.13 1.07-1h-6.5v-7.92h17.24v7.93h-8.45a16.47 16.47 0 0 1 2.7 1.59l-1.85 1.87a16.14 16.14 0 0 0 -3.67-2.23v2.6c0 .7.21.78 1.38.78zm-8-9.52h11.24v-1.08h-11.23zm0 3h11.24v-1.2h-11.23zm2.35-11.2a16 16 0 0 1 .62 1.69l-.34.08h5.77l-.36-.08c.23-.5.55-1.15.75-1.69zm11.16 13.62a18.93 18.93 0 0 1 4.21 4.7l-2.55 1.49a21.73 21.73 0 0 0 -4.08-4.87z"/><path d="m513 23.58c2-.65 3.2-1.77 3.36-3.14a1.28 1.28 0 0 1 -.29 0 2.31 2.31 0 0 1 -2.47-2.31 2.36 2.36 0 0 1 2.55-2.34c1.85 0 2.81 1.38 2.81 3.56 0 3-1.9 5.36-5.12 6.32z"/><path d="m24.23 80.2v3.2h-23.35v-3.2h7.34v-12.48h-6.84v-3h5.28a19.59 19.59 0 0 0 -1.88-3.51l2.76-1.11a18.08 18.08 0 0 1 2.31 4.16l-1 .42h6.34a27 27 0 0 0 2.37-4.63l3.44.95c-.78 1.33-1.58 2.65-2.34 3.72h5v3h-6.81v12.48zm-19.03-10.53a30.86 30.86 0 0 1 2.29 7.93l-3 .76a29.55 29.55 0 0 0 -2.08-8zm6.06 10.53h2.49v-12.48h-2.49zm6-2.6a46.53 46.53 0 0 0 2.42-8.11l3.36.75a75.66 75.66 0 0 1 -3 8.09z"/><path d="m34 78.46c1 1.74 2.83 2.47 5.48 2.57 3.12.13 9.26.06 12.85-.23a13.48 13.48 0 0 0 -1 3c-3.23.15-8.74.2-11.91.07s-5.13-.87-6.69-2.87c-1 1-2.1 2-3.43 3.12l-1.45-3.07a32.14 32.14 0 0 0 3.22-2.39v-5.66h-2.91v-2.83h5.84zm-1.84-11.65a20.09 20.09 0 0 0 -3.9-4.31l2.37-1.77a22.63 22.63 0 0 1 4.08 4.13zm5.07 5.07c-.34.16-.65.29-1 .42a9.48 9.48 0 0 0 -1.82-2.19 17.73 17.73 0 0 0 6.11-3.06h-5.2v-2.32h6.82v-1.27c-1.8.1-3.59.18-5.28.21a7.74 7.74 0 0 0 -.63-2.11 85.46 85.46 0 0 0 12.87-1.14l1.88 2c-1.72.34-3.75.6-5.91.81v1.48h6.84v2.32h-5.32a16.73 16.73 0 0 0 5.9 2.7 12.28 12.28 0 0 0 -1.79 2.27 16.22 16.22 0 0 1 -5.62-3.46v2.37h-2.93v-2.25a17.86 17.86 0 0 1 -3.85 2.7h7.3 2c-.13.63-.26 1.3-.42 2h4.24s0 .65-.08 1c-.23 2.89-.55 4.27-1.14 4.86a2.81 2.81 0 0 1 -1.88.78 23.42 23.42 0 0 1 -3.17 0 5.55 5.55 0 0 0 -.73-2.28c1.1.1 2.14.13 2.58.13a1.07 1.07 0 0 0 .86-.24 4.16 4.16 0 0 0 .57-2.08h-1.73l-.24 1-2.6-.39c.21-.67.42-1.56.6-2.44h-1.85c-.46 3.22-1.76 5.46-5.92 6.79a7.24 7.24 0 0 0 -1.56-2.32c3.27-.86 4.26-2.31 4.65-4.47h-2.55z"/><path d="m61.57 78.46c1 1.74 2.83 2.47 5.48 2.57 3.12.13 9.26.06 12.85-.23a13.48 13.48 0 0 0 -1 3c-3.23.15-8.74.2-11.91.07s-5.14-.87-6.7-2.87c-1 1-2.1 2-3.43 3.12l-1.45-3.07a32.14 32.14 0 0 0 3.22-2.39v-5.66h-2.91v-2.83h5.85zm-1.85-11.65a20.09 20.09 0 0 0 -3.9-4.31l2.37-1.77a22.63 22.63 0 0 1 4.08 4.13zm6.4 13.29h-2.68v-11.31h1.92v-8h11.21v8h1.9v8.68c0 1.2-.21 1.87-1 2.29a7.57 7.57 0 0 1 -3.25.42 8.22 8.22 0 0 0 -.62-2.24h-3.95v.78h-2.21v-6.53h6.79v5.59h1.07c.28 0 .36-.07.36-.33v-6.32h-9.54zm1.88-11.31h1.6v-4.06h4.19v-1.61h-5.79zm4 5.38h-2.35v1.83h2.35zm1.8-7.51h-2v2.13h2z"/><path d="m104.49 63.85a20.76 20.76 0 0 1 -6 6 37.17 37.17 0 0 0 9.2 2.65 14.75 14.75 0 0 0 -2 2.89c-.83-.16-1.61-.37-2.42-.57v9.46h-3.33v-.86h-9.41v1h-3.14v-9.6c-1 .29-2 .55-3 .75a12.27 12.27 0 0 0 -1.51-2.78 42.63 42.63 0 0 0 9.57-3 25.42 25.42 0 0 1 -3.12-2.73 27.4 27.4 0 0 1 -3.64 2.75 19.2 19.2 0 0 0 -2.29-2.31 21 21 0 0 0 8.27-7.72l2.94 1c-.36.57-.73 1.17-1.14 1.74h8.24l.52-.15zm-1.92 10.81a33.22 33.22 0 0 1 -7.18-3 38.13 38.13 0 0 1 -7.43 3zm-2.63 6.06v-3.25h-9.41v3.25zm-8.52-15.49a21.37 21.37 0 0 0 4 3.06 19.12 19.12 0 0 0 4-3.06z"/><path d="m127.37 67.51c.55 7.6 2.14 13.6 4 13.6.55 0 .86-1.38 1-4.68a8.19 8.19 0 0 0 2.71 1.82c-.47 4.92-1.51 6.11-4 6.11-4.45 0-6.4-7.69-7-16.85h-12.9v-3h12.76c0-1.41-.08-2.86-.08-4.29h3.33v4.29h4.11a18.53 18.53 0 0 0 -3.05-2.73l2.06-1.69a19.83 19.83 0 0 1 3.44 2.91l-1.75 1.5h2.44v3zm-8.21 11.68c1.58-.29 3.25-.6 4.83-.91l.24 2.75c-4.27.94-8.84 1.9-12.2 2.6l-.85-3.12c1.32-.2 3-.46 4.91-.78v-6.26h-3.93v-3h11.16v3h-4.16z"/><path d="m159.61 63.85a20.76 20.76 0 0 1 -6 6 37.17 37.17 0 0 0 9.2 2.65 14.75 14.75 0 0 0 -2 2.89c-.83-.16-1.61-.37-2.42-.57v9.46h-3.33v-.86h-9.41v1h-3.14v-9.6c-1 .29-2 .55-3 .75a12.27 12.27 0 0 0 -1.51-2.78 42.63 42.63 0 0 0 9.57-3 25.42 25.42 0 0 1 -3.12-2.73 27.4 27.4 0 0 1 -3.64 2.75 19.2 19.2 0 0 0 -2.29-2.31 21 21 0 0 0 8.27-7.72l2.94 1c-.36.57-.73 1.17-1.14 1.74h8.24l.52-.15zm-1.92 10.81a33.22 33.22 0 0 1 -7.18-3 38.13 38.13 0 0 1 -7.43 3zm-2.63 6.06v-3.25h-9.41v3.25zm-8.52-15.49a21.37 21.37 0 0 0 4 3.06 19.12 19.12 0 0 0 4-3.06z"/><path d="m173.52 76.17c-.31-.75-.85-1.92-1.43-3v11.17h-2.8v-9.73a22.28 22.28 0 0 1 -2.37 5.12 15.77 15.77 0 0 0 -1.35-2.73 26 26 0 0 0 3.48-8.71h-2.88v-2.86h3.12v-5.35h2.8v5.35h2.6v2.86h-2.6v1.15c.71 1 2.58 3.82 3 4.52zm7.08 1.07a10.72 10.72 0 0 1 -5.39 6.76 11.84 11.84 0 0 0 -1.58-2 8.36 8.36 0 0 0 3.61-3.25h-2.83v-2.11h4.05l.45-.08zm9.28-1.24c-1.28.94-2.65 1.9-3.82 2.63a11.53 11.53 0 0 0 4.31 2.8 11.78 11.78 0 0 0 -1.82 2.27 12.85 12.85 0 0 1 -4.78-4.16v2c0 1.3-.24 2-1.12 2.4a8.72 8.72 0 0 1 -3.59.44 8.31 8.31 0 0 0 -.78-2.52h2.19s.41-.08.41-.37v-5.73h-4.26v-2.11h6.24c-1.2-.49-2.52-1-3.67-1.33l.76-.83h-5.31v-2.26h6.19v-1h-4.52v-2.12h4.52v-1h-5.46v-2.11h2.76a18.06 18.06 0 0 0 -1.13-2.09l2.26-.83a15 15 0 0 1 1.58 2.6l-.67.28h4.18l-.52-.18a25.3 25.3 0 0 0 1.36-2.7l2.73.78-1.6 2.14h3.19v2.19h-5.72v1h5.1v2.11h-5.1v1h6.21v2.26h-6.48a21.39 21.39 0 0 1 3.25 1.41l-1.64 1.84a13.31 13.31 0 0 0 -1.32-.67v1.3a10.35 10.35 0 0 0 .89 1.56 26.85 26.85 0 0 0 2.92-2.68z"/><path d="m216.94 64.08s0 1 0 1.41c-.34 11.62-.63 15.75-1.69 17.13a3.48 3.48 0 0 1 -2.5 1.43 29.49 29.49 0 0 1 -4.08 0 7.26 7.26 0 0 0 -1-3c1.66.15 3.19.15 3.87.15a1.36 1.36 0 0 0 1.14-.44c.76-.83 1.1-4.73 1.38-13.91h-5.56a22.52 22.52 0 0 1 -2.32 4.15 20.22 20.22 0 0 0 -2-1.46v12.14h-6.94v1.9h-2.81v-19.32h2.94a28.35 28.35 0 0 0 .75-4.18l3.38.47c-.44 1.3-.91 2.6-1.35 3.71h4v4.22a27 27 0 0 0 3.51-8.38l2.94.68a29.91 29.91 0 0 1 -1 3.3zm-15.57 2.92h-4.13v4.21h4.13zm0 12v-5.14h-4.13v5.14zm8.63-1.4a56.76 56.76 0 0 0 -3.61-6l2.42-1.37a62.7 62.7 0 0 1 3.82 5.77z"/><path d="m231.63 67.18c-.07 1.11-.15 2.26-.28 3.38h10a11.84 11.84 0 0 1 -.1 1.35c-.47 7.07-1 10-2.05 11.13a3.83 3.83 0 0 1 -2.81 1.19 34.18 34.18 0 0 1 -4.45 0 7.18 7.18 0 0 0 -1.09-3c1.79.18 3.61.18 4.37.18a1.67 1.67 0 0 0 1.28-.41c.67-.57 1.14-2.83 1.5-7.56h-7.15c-1 4.39-3.14 8.45-8.34 11.07a9.8 9.8 0 0 0 -2.19-2.62c7-3.25 7.62-9.18 7.91-14.74h-7.44v-3h10v-4.15h3.21v4.24h10.27v3z"/><path d="m264.13 67.51c.55 7.6 2.14 13.6 4 13.6.55 0 .86-1.38 1-4.68a8.19 8.19 0 0 0 2.71 1.82c-.47 4.92-1.51 6.11-4 6.11-4.45 0-6.4-7.69-7-16.85h-12.9v-3h12.76c-.05-1.41-.08-2.86-.08-4.29h3.38v4.29h4.11a18.53 18.53 0 0 0 -3-2.73l2.06-1.69a19.36 19.36 0 0 1 3.33 2.91l-1.76 1.54h2.44v3zm-8.21 11.68c1.58-.29 3.25-.6 4.83-.91l.25 2.72c-4.27.94-8.84 1.9-12.2 2.6l-.85-3.12c1.32-.2 3-.46 4.91-.78v-6.23h-3.93v-3h11.16v3h-4.16z"/><path d="m299.57 76h-2.88v5c0 1.51-.21 2.32-1.23 2.81a10.36 10.36 0 0 1 -4.26.55 11.89 11.89 0 0 0 -.88-3h2.93s.53-.1.53-.44v-4.92h-8.95v-2.7h1.27a9.63 9.63 0 0 0 -1.48-2.11 20 20 0 0 0 4.29-1.5 14.28 14.28 0 0 0 -2.31-2.19l-.89.47a17.92 17.92 0 0 0 -1.71-1.73v18.12h-2.83v-8.81h-1.74c0 2.16-.29 6.19-2 8.84a12.4 12.4 0 0 0 -2.26-1.48c1.38-2.23 1.56-5.54 1.56-7.38h-1.23v-2.63h5.69v-3h-4.68v-8.63h2.68v5.91h2v-7.08h2.81v5.83a17 17 0 0 0 7.13-5.83l3 .78a13.4 13.4 0 0 1 -.94 1.2h3.43l.5-.1 1.92.88c-2.18 5.59-7 8.76-12.45 10.4h7.18v-3h2.91v3h2.88zm-11.13.19a17.72 17.72 0 0 1 2.84 3.66l-2.55 1.51a17.18 17.18 0 0 0 -2.63-3.8zm2.56-7.71a11.66 11.66 0 0 0 1.17-.84 13.24 13.24 0 0 0 -2.62-2.1c-.34.23-.65.49-1 .73a16.61 16.61 0 0 1 2.45 2.21zm.24-4.32a18.62 18.62 0 0 1 2.6 2 14.78 14.78 0 0 0 1.48-2z"/><path d="m310.86 78.77 2.47 2a46.34 46.34 0 0 1 -8.64 3.62 15.54 15.54 0 0 0 -2-2.29 34.65 34.65 0 0 0 7.93-3.28h-7.62v-2.88h4.39v-10.43h-3.61v-2.83h3.61v-2.52h3.07v2.52h8.19v-2.52h3.15v2.52h3.79v2.83h-3.79v10.43h4.45v2.83zm-.37-13.26v1.61h8.19v-1.61zm0 5.93h8.19v-1.74h-8.19zm0 4.5h8.19v-1.94h-8.19zm7.67 3a77.9 77.9 0 0 1 8.25 3.38l-3 2a50.39 50.39 0 0 0 -7.41-3.47z"/><path d="m339.17 61.43a40.76 40.76 0 0 1 -2.7 5.25v17.63h-3.1v-13.26a30 30 0 0 1 -2.57 2.76 22.21 22.21 0 0 0 -1.8-3.28 26.91 26.91 0 0 0 7.1-10.11zm10.32 19.73c1.25 0 1.46-.88 1.67-4.55a8.85 8.85 0 0 0 2.84 1.33c-.37 4.47-1.17 6.11-4.24 6.11h-4.45c-3.27 0-4.21-1-4.21-4.71v-18.59h3.12v8.9a44.7 44.7 0 0 0 6.55-4.55l2.29 2.7a63.28 63.28 0 0 1 -8.84 5v6.55c0 1.53.18 1.79 1.43 1.79z"/><path d="m380.69 75.24c-.44 5-.88 7.22-1.69 8.06a2.78 2.78 0 0 1 -1.95 1 22.42 22.42 0 0 1 -3.09 0 6.88 6.88 0 0 0 -.83-2.76 20.28 20.28 0 0 0 2.52.13 1.14 1.14 0 0 0 .86-.28c.41-.42.75-1.72 1.06-4.68h-15.47c-.41.31-.86.6-1.32.88l2.36.76a10.84 10.84 0 0 1 -3 5.87l-2.42-1.53a9.38 9.38 0 0 0 2.81-4.92c-.62.39-1.27.73-1.92 1.07a19.5 19.5 0 0 0 -1.62-2.7 23.72 23.72 0 0 0 10-8.92h-8.34v-2.7h4.36a22.4 22.4 0 0 0 -1.63-3.3l2.67-1a18 18 0 0 1 2 3.8l-1.3.54h3.77a30.09 30.09 0 0 0 1.79-4.44l3.09.86c-.44 1.22-.93 2.41-1.48 3.58h5.08c-.26 1.56-.65 3.33-1 4.76h3c-.28 1.56-.62 3.38-.93 4.79h2.78zm-14.14 3.09a18 18 0 0 1 .7 4.78l-2.68.34a17.84 17.84 0 0 0 -.52-4.81zm.65-6.33a25.64 25.64 0 0 1 -1.95 2.11h9.93c.16-.63.31-1.36.47-2.11zm3.2 5.9a20.83 20.83 0 0 1 1.24 4.21l-2.47.63a22.24 22.24 0 0 0 -1.17-4.36zm.05-10.63c-.39.7-.81 1.38-1.25 2h4c.15-.62.31-1.32.44-2zm2.88 14.12a14.35 14.35 0 0 0 -1.53-3.51l2.13-.73a13.59 13.59 0 0 1 1.69 3.43z"/><path d="m394.06 78-9.44 2.75-.78-2.91c1-.23 2.31-.57 3.72-.94v-5.25h-2.89v-2.84h2.89v-4.52h-3.12v-2.86h9.1v2.86h-3v4.52h2.7v2.84h-2.7v4.44l3.09-.85zm11.54 3.61c.47 0 .57-.42.62-3a7.93 7.93 0 0 0 2.58 1.15c-.26 3.56-.94 4.52-2.86 4.52h-1.94c-2.39 0-2.91-.88-2.91-3.51v-5.14h-1.59c-.47 4.23-1.66 7.25-7.2 8.89a9 9 0 0 0 -1.73-2.52c4.71-1.17 5.54-3.3 5.88-6.34h-1.9v-14.59h12.69v14.56h-3.24v5.09c0 .76 0 .86.5.86zm-8.16-16.41h6.78v-1.61h-6.78zm0 4h6.78v-1.66h-6.78zm0 3.95h6.78v-1.66h-6.78z"/><path d="m429 80.67c2.39.68 4.78 1.43 6.4 2l-2.68 1.71c-1.75-.7-4.76-1.71-7.72-2.57l1.35-1.12h-5.07l1.53 1a28.79 28.79 0 0 1 -8.81 2.67 14.83 14.83 0 0 0 -1.84-2 36.54 36.54 0 0 0 6.94-1.69h-3.74v-8.67h17.23v8.66zm6.4-13.67v2.19h-4.34l-.19 2h-15l.26-2h-3.8v-2.19h4.08l.26-2.08h14.77l-.18 2.08zm-19.82-.78h-2.78v-4.56h9.49v-1.58h3.1v1.58h9.54v4.55h-2.93v-2.13h-16.42zm2.73 8.17h11.11v-.76h-11.11zm0 2.31h11.11v-.78h-11.11zm0 2.34h11.11v-.8h-11.11zm.5-9.33h3.27l.11-.81h-3.28zm.41-3.23-.1.81h3.28l.07-.81zm9 3.23.07-.81h-3.51l-.1.81zm.28-3.23h-3.5l-.07.81h3.45z"/><path d="m462.91 64.08s0 1 0 1.41c-.34 11.62-.63 15.75-1.69 17.13a3.48 3.48 0 0 1 -2.5 1.43 29.46 29.46 0 0 1 -4.08 0 7.26 7.26 0 0 0 -1-3c1.66.15 3.19.15 3.87.15a1.39 1.39 0 0 0 1.15-.44c.75-.83 1.09-4.73 1.37-13.91h-5.56a22.52 22.52 0 0 1 -2.33 4.15 20.22 20.22 0 0 0 -2-1.46v12.14h-6.94v1.9h-2.81v-19.32h2.94a28.35 28.35 0 0 0 .75-4.18l3.38.47c-.44 1.3-.91 2.6-1.35 3.71h4v4.22a27 27 0 0 0 3.51-8.38l2.94.68a29.91 29.91 0 0 1 -1 3.3zm-15.58 2.92h-4.13v4.21h4.13zm0 12v-5.14h-4.13v5.14zm8.63-1.4a56.76 56.76 0 0 0 -3.61-6l2.42-1.37a62.7 62.7 0 0 1 3.82 5.77z"/><path d="m471.38 67.2v-1a25.18 25.18 0 0 1 -2.31 1.9h10.4v8.1h-8.4c-.05.34-.11.7-.18 1h9v7h-2.68v-.7h-4.4v.81h-2.6v-4.31a12.13 12.13 0 0 1 -2 3.8 9.61 9.61 0 0 0 -2-1.85c2.29-3 2.58-7.15 2.58-10.09v-3.51c-.29.18-.57.39-.86.57a8.65 8.65 0 0 0 -1.93-2.19 17.92 17.92 0 0 0 6.53-6.34h2.76a51.19 51.19 0 0 1 5.43 4.68l-2 2.29c-.36-.42-.83-.94-1.37-1.51v1.35zm5.3 6.84v-1h-5.35c0 .31 0 .65-.05 1zm-5.33-3.77v.94h5.33v-.94zm5.31-5.15c-.76-.73-1.56-1.48-2.32-2.08a27.61 27.61 0 0 1 -1.82 2.08zm-3.88 14.33v1.84h4.4v-1.84zm11.13-1.59h-2.91v-14.64h2.91zm5.77-17.26v20.07c0 1.72-.33 2.57-1.37 3s-2.6.63-4.84.63a12.66 12.66 0 0 0 -1-3.15h3.56s.65-.15.65-.6v-20z"/><path d="m493.27 82.2a8.58 8.58 0 0 0 3.41-4.39l2.6.91a9.88 9.88 0 0 1 -3.59 5.12zm23.51-14.2h-22.49v-2.38h5.56a17.71 17.71 0 0 0 -.65-1.75h.13-3.77v-2.41h8.37v-1.38h3.07v1.38h8.4v2.39h-3.67l.39.08c-.39.67-.78 1.22-1.09 1.69h5.75zm-8.84 13.6c1 0 1.11-.29 1.24-2.14a8.11 8.11 0 0 0 2.63 1c-.34 2.89-1.17 3.62-3.59 3.62h-4.22c-3.28 0-4.09-.76-4.09-3.23v-2.73h2.81l-.31-.13 1.07-1h-6.48v-7.92h17.23v7.93h-8.43a16.6 16.6 0 0 1 2.71 1.59l-1.87 1.92a16.14 16.14 0 0 0 -3.64-2.28v2.6c0 .7.21.78 1.38.78zm-8-9.52h11.24v-1.08h-11.18zm0 3h11.24v-1.2h-11.18zm2.34-11.2a16.35 16.35 0 0 1 .63 1.69l-.34.08h5.77l-.36-.08c.23-.5.55-1.15.75-1.69zm11.17 13.62a18.93 18.93 0 0 1 4.24 4.7l-2.55 1.49a21.73 21.73 0 0 0 -4.08-4.87z"/><path d="m24.41 139.45v3.12h-23.63v-3.12h9.91v-13.45h-8.51v-3.23h20.82v3.23h-8.78v13.44z"/><path d="m35.1 121.12a40.51 40.51 0 0 1 -2.5 5.41v17.81h-3.12v-13c-.54.65-1.09 1.3-1.61 1.87a20.8 20.8 0 0 0 -1.71-3.3 27.16 27.16 0 0 0 5.92-9.73zm8.24 6.13v2.75h6.74v2.81h-6.74v2.94h7.07v2.86h-7.07v5.77h-3.17v-17.13h-1a28.62 28.62 0 0 1 -3.4 5.05 21.43 21.43 0 0 0 -2.37-2.16 25.76 25.76 0 0 0 5.51-9.8l3 .75a31.32 31.32 0 0 1 -1.27 3.23h10.09v2.93z"/><path d="m76.13 140.9v2.73h-23v-2.73h9.78v-2h-7.5v-2.65h7.46v-2.16l-7.8.21-.13-2.76h3.69c.39-.78.81-1.64 1.14-2.44h-3.77v-1.87h-2.83v-5.41h9.7v-1.72h3.13v1.67h10v5.41h-2.89v1.87h-3.25a32.81 32.81 0 0 1 5.14 4.55l-2.42 1.69c-.34-.44-.78-.94-1.27-1.46l-5.31.17v2.26h8v2.65h-8v2zm-19.94-16.32v1.84h16.64v-1.84zm7.12 4.47c-.47.8-1 1.64-1.46 2.39l6.69-.13c-.5-.42-1-.81-1.46-1.14l1.66-1.12z"/><path d="m86.76 139.86a4.2 4.2 0 1 1 -4.21-4.21 4.21 4.21 0 0 1 4.21 4.21zm-1.87 0a2.33 2.33 0 1 0 -2.34 2.32 2.33 2.33 0 0 0 2.34-2.32z"/><path d="m119.08 132.4a25.65 25.65 0 0 1 -4.32 5.7c.71 2 1.51 3.19 2.29 3.19.55 0 .86-1.24 1-4.31a8 8 0 0 0 2.55 1.77c-.5 4.55-1.46 5.69-3.82 5.69-1.9 0-3.36-1.56-4.48-4.11a26 26 0 0 1 -4.81 3.17 13.78 13.78 0 0 0 -2-2.49 26.78 26.78 0 0 0 5.8-3.67 48 48 0 0 1 -1.33-7h-5.28v3c1.33-.24 2.68-.5 4-.73l.23 2.81-4.24.86v4.44c0 1.69-.36 2.52-1.4 3a11.31 11.31 0 0 1 -4.68.6 12.35 12.35 0 0 0 -1.09-3.12c1.45.07 3 .05 3.43 0s.62-.13.62-.54v-3.77c-1.66.33-3.27.67-4.65.93l-.75-3.12c1.48-.23 3.35-.52 5.4-.88v-3.49h-4.96v-2.93h4.91v-3c-1.4.24-2.83.42-4.16.57a11.9 11.9 0 0 0 -.88-2.6 65.29 65.29 0 0 0 10.32-2.18l2.08 2.63c-1.3.39-2.73.72-4.24 1v3.51h5c-.21-2.34-.29-4.76-.32-7.13h3.25a66.69 66.69 0 0 0 .26 7.13h7.08v2.93h-6.76c.2 1.56.46 3.07.75 4.4a21.65 21.65 0 0 0 2.47-3.54zm-1.9-5.72a20.75 20.75 0 0 0 -3.69-4.29l2.34-1.58a22.45 22.45 0 0 1 3.85 4.13z"/><path d="m136.73 131.36h-4.47v12.92h-2.86v-22.77c-.52 1.48-1.12 3-1.79 4.5v18.33h-2.94v-13a22.33 22.33 0 0 1 -1.61 2.13 22.6 22.6 0 0 0 -1.48-3.33 28.53 28.53 0 0 0 5.14-10l2.86.86-.15.5h7.3zm-4.47-7.56v1.48h2.13v-1.48zm2.13 5.22v-1.53h-2.13v1.51zm11.24 11.73c0 1.71-.37 2.55-1.41 3s-2.7.57-5.15.57a11 11 0 0 0 -1-3c1.58.1 3.38.08 3.9.05s.67-.15.67-.65v-9.36h-4.74v-9.9h7.73zm-5.28-17v1.48h2.31v-1.43zm2.31 5.22v-1.53h-2.31v1.56z"/><path d="m158.42 133.36c-.39 5.41-1.56 9.08-8.61 11a9.35 9.35 0 0 0 -1.79-2.73c6.16-1.45 6.78-4.13 7.12-8.32zm-8.71-3.66 4.11-.08a40.58 40.58 0 0 0 1.66-3.87h-6.63v-2.92h9.72v-2.75h3.18v2.75h9.82v2.92h-6.39a41.41 41.41 0 0 1 6.32 6.57l-2.81 1.68a23 23 0 0 0 -1.43-1.95c-6.29.34-12.95.62-17.45.81zm9.44-3.95c-.63 1.27-1.33 2.57-2 3.77l7.54-.24c-.72-.75-1.48-1.48-2.21-2.13l2.4-1.4zm9.33 15.57c.83 0 1-.55 1.12-4.16a7.84 7.84 0 0 0 2.81 1.22c-.29 4.66-1.07 5.85-3.64 5.85h-3.12c-2.92 0-3.64-.93-3.64-3.87v-7.13h3.12v7.07c0 .86.13 1 1 1z"/><path d="m191.07 120.36a29.78 29.78 0 0 0 7.73 9.26 14.75 14.75 0 0 0 -2.63 2.78c-.55-.49-1.09-1.06-1.66-1.66v.18c-.29 7.85-.6 10.92-1.51 12a3.14 3.14 0 0 1 -2.37 1.22 26.15 26.15 0 0 1 -3.92.08 7.6 7.6 0 0 0 -1-3.12c1.43.11 2.78.13 3.43.13a1.2 1.2 0 0 0 1-.36c.52-.55.81-2.86 1-8.3h-5.12c-.65 5-2.34 9.44-9.07 12a10.44 10.44 0 0 0 -2.06-2.86c5.88-1.89 7.23-5.3 7.75-9.1h-4.39v-1.82a19.85 19.85 0 0 1 -2.08 1.88 18.49 18.49 0 0 0 -2.65-2.5 21.53 21.53 0 0 0 7.67-9.72l3.32 1a31.16 31.16 0 0 1 -5.14 8.19h14a43.8 43.8 0 0 1 -5.44-8z"/><path d="m205 132.61c-1.07-.75-3.31-2-4.84-2.81l1.66-2.29c1.43.71 3.75 1.82 4.89 2.53zm-4.44 9.39a76.11 76.11 0 0 0 4.94-8.19l2.27 2.08c-1.38 2.73-3 5.69-4.61 8.22zm5.59-16.46a53.35 53.35 0 0 0 -4.73-2.86l1.74-2.23c1.46.72 3.72 1.87 4.84 2.6zm11.52 5.07v3.28h5.33v10.37h-3v-.93h-7.83v1.06h-2.78v-10.5h5.3v-3.28h-6.91v-3h6.91v-3c-1.71.26-3.43.44-5.07.59a11.06 11.06 0 0 0 -.85-2.65 51.26 51.26 0 0 0 12.23-2.47l2.39 2.44a33.1 33.1 0 0 1 -5.67 1.54v3.56h6.61v3zm2.37 6.09h-7.83v3.82h7.79z"/><path d="m248.59 140.7c0 1.66-.37 2.49-1.41 3s-2.65.57-5 .55a11.53 11.53 0 0 0 -1-3c1.46.08 3.17 0 3.64 0s.68-.15.68-.62v-3.9h-5.5v7.27h-3.12v-7.25h-5.3a14.94 14.94 0 0 1 -3.28 7.72 11.28 11.28 0 0 0 -2.44-2c2.83-3.12 3.07-7.75 3.07-11.39v-9.28h19.63zm-11.68-6.84v-3.2h-4.91v.47c0 .83 0 1.77-.07 2.73zm-4.89-9.1v3h4.89v-3zm13.5 0h-5.52v3h5.49zm0 9.1v-3.2h-5.52v3.2z"/><path d="m269.07 120.36a29.78 29.78 0 0 0 7.73 9.26 14.75 14.75 0 0 0 -2.63 2.78c-.55-.49-1.09-1.06-1.66-1.66v.18c-.29 7.85-.6 10.92-1.51 12a3.14 3.14 0 0 1 -2.37 1.22 26.15 26.15 0 0 1 -3.92.08 7.6 7.6 0 0 0 -1-3.12c1.43.11 2.78.13 3.43.13a1.23 1.23 0 0 0 1.05-.36c.51-.55.8-2.86 1-8.3h-5.12c-.65 5-2.34 9.44-9.07 12a10.44 10.44 0 0 0 -2.06-2.86c5.88-1.89 7.23-5.3 7.75-9.1h-4.39v-1.82a19.85 19.85 0 0 1 -2.08 1.88 18.49 18.49 0 0 0 -2.65-2.5 21.53 21.53 0 0 0 7.67-9.72l3.32 1a31.16 31.16 0 0 1 -5.14 8.19h14a43.8 43.8 0 0 1 -5.44-8z"/><path d="m287.92 126.73a31.47 31.47 0 0 1 -2.1 3.93h4.18v-3h3.12v3h7.47v8.06c0 1.43-.29 2.21-1.33 2.68a11.57 11.57 0 0 1 -4.34.47 10.86 10.86 0 0 0 -1-2.81c1.19.05 2.57.05 2.93.05s.55-.1.55-.44v-5.07h-4.32v10.74h-3.08v-10.74h-4.1v8.45h-3.1v-7.52a21 21 0 0 1 -3.3 2.86 21.32 21.32 0 0 0 -1.74-2.73 20.23 20.23 0 0 0 6.71-7.93h-5.8v-3h7.12a25.47 25.47 0 0 0 1.21-3.73l3.2.73c-.31 1-.65 2-1 3h12.68v3z"/><path d="m314.65 129.67s0 .86 0 1.22c-.13 8.22-.26 11.29-.94 12.25a2.47 2.47 0 0 1 -1.74 1.09 15.38 15.38 0 0 1 -2.78.11 7.54 7.54 0 0 0 -.81-2.81c.86.08 1.56.08 2 .08a.72.72 0 0 0 .75-.39c.34-.5.52-2.68.62-8.74h-2.13c-.31 4.94-1.19 9.15-3.64 12.06a8.84 8.84 0 0 0 -2.18-2.31c2.78-3.41 3-8.84 3-15.34h-2.52v-2.89h4.05v-3.9h3.07v3.9h4.14v2.86h-5.75c0 .94-.05 1.87-.08 2.78zm8.11-9.67c1.25 3.59 3.38 7.31 5.83 8.76a19.09 19.09 0 0 0 -1.51 3.15c-2.62-1.9-4.68-5.41-5.72-8.35-1 2.86-3 6.48-5.64 8.4a14.64 14.64 0 0 0 -1.41-3c2.53-1.8 4.55-5.83 5.44-9zm-4.76 16.51c3 1.3 6.94 3.43 8.81 5.15l-2.05 2.7a37.8 37.8 0 0 0 -8.61-5.46zm4.78-.62a19.51 19.51 0 0 0 -4.42-4l2-2a22.26 22.26 0 0 1 4.6 3.79z"/><path d="m346.09 136.54a24.81 24.81 0 0 0 8.4 4.88 14.19 14.19 0 0 0 -2.22 2.68 25.62 25.62 0 0 1 -8.52-6.06v6.32h-3.2v-6.19a25.32 25.32 0 0 1 -8.37 5.88 17.1 17.1 0 0 0 -2.14-2.6 23.38 23.38 0 0 0 8.19-4.91h-5.23v-9.94h7.57v-1.48h-9.78v-2.88h9.78v-2.14h3.2v2.14h10v2.88h-10v1.48h7.93v9.94zm-10.09-6.09h4.58v-1.53h-4.58zm0 3.77h4.58v-1.58h-4.58zm7.78-5.3v1.53h4.78v-1.53zm4.78 3.72h-4.78v1.58h4.78z"/><path d="m363.58 137.65a23.7 23.7 0 0 1 -5 5.78 22.56 22.56 0 0 0 -2.52-1.8 16 16 0 0 0 4.39-5zm16.07-12.14h-22.9v-2.94h9.75v-2.49h3.27v2.49h9.88zm-9.88 10.12v5.48c0 1.56-.28 2.34-1.43 2.78a14 14 0 0 1 -4.76.47 12.39 12.39 0 0 0 -1-3c1.32 0 3 .08 3.38 0s.57-.1.57-.44v-5.38h-6.84v-8.3h17.21v8.3zm-7-2.66h10.82v-3h-10.79zm12.64 3.67a41 41 0 0 1 4.71 5.49l-3 1.53a38.4 38.4 0 0 0 -4.49-5.67z"/><path d="m387.84 143.89a48.27 48.27 0 0 0 -5.59-5.74l2.71-2.34a48.93 48.93 0 0 1 5.66 5.69z"/><path d="m402.77 135.73a24.28 24.28 0 0 1 -1.56 6.71 14.8 14.8 0 0 0 -2.37-1.12 19.05 19.05 0 0 0 1.38-6zm20.8 5.07v2.81h-14.95v-2.81h2.67c.29-2.16.58-4.73.81-7.41h-2.57c.05.21.1.42.13.6l-2.19 1a11.87 11.87 0 0 0 -.34-1.33l-1.32.1v10.64h-2.68v-10.46l-3.77.23-.26-2.68 1.87-.08c.39-.49.81-1.06 1.22-1.66a25.48 25.48 0 0 0 -3.06-3.54l1.48-2.1.6.52a33.61 33.61 0 0 0 1.89-4.53l2.68 1c-.93 1.77-2 3.8-2.91 5.23.31.36.62.7.88 1a47.38 47.38 0 0 0 2.32-4.21l2.52 1.17c-1.43 2.26-3.22 4.88-4.86 7l2.49-.1c-.28-.65-.59-1.3-.91-1.88l2.06-.85a26.41 26.41 0 0 1 2.05 4.6v-2.55h2.94c.18-2.13.31-4.26.42-6.27h-2.94v-2.8h11.62c0 2.83 0 6-.08 9.07h2.06v2.86h-2.11c-.08 2.7-.16 5.25-.26 7.41zm-15.57-5.72a29.06 29.06 0 0 1 1.62 4.68l-2.29.83a31 31 0 0 0 -1.51-4.83zm7-1.69c-.23 2.7-.49 5.28-.72 7.41h3.72c.13-2.18.26-4.73.34-7.41zm.65-9.13c-.13 2-.25 4.14-.44 6.27h3.15c.05-2.11.08-4.24.08-6.27z"/><path d="m428.77 135.73a24.28 24.28 0 0 1 -1.56 6.71 14.8 14.8 0 0 0 -2.37-1.12 19.05 19.05 0 0 0 1.38-6zm20.23-11.26s0 1 0 1.43c-.34 11.39-.7 15.5-1.8 16.88a3.24 3.24 0 0 1 -2.49 1.43 24.77 24.77 0 0 1 -4.06.07 7.44 7.44 0 0 0 -1-3.12c1.64.16 3.12.16 3.83.16a1.29 1.29 0 0 0 1.09-.44c.78-.81 1.17-4.6 1.45-13.47h-7.17a21.86 21.86 0 0 1 -2.21 3.35 21.12 21.12 0 0 0 -2.45-1.71 20.92 20.92 0 0 1 2 4.86l-2.38 1.09c-.08-.41-.21-.88-.36-1.4l-1.49.1v10.69h-2.73v-10.48l-3.84.26-.26-2.7 1.92-.08c.39-.5.81-1 1.2-1.61a24.92 24.92 0 0 0 -3.12-3.57l1.45-2.13.63.55a31 31 0 0 0 1.89-4.53l2.73 1c-.93 1.79-2 3.79-2.93 5.25.33.36.65.75.91 1.09a43.33 43.33 0 0 0 2.39-4.26l2.62 1.09a80.94 80.94 0 0 1 -5 7l2.62-.1a18.7 18.7 0 0 0 -.91-1.79l2.19-1 .18.32a20.81 20.81 0 0 0 4.29-8.66l3.17.67a30.14 30.14 0 0 1 -1.27 3.72zm-14.7 10.66a28.83 28.83 0 0 1 1.7 4.87l-2.44.86a26.59 26.59 0 0 0 -1.53-5zm6.09 2.65a25.05 25.05 0 0 0 -3.17-6l2.47-1.25a24.72 24.72 0 0 1 3.38 5.82z"/><path d="m457 143.89a48.27 48.27 0 0 0 -5.59-5.74l2.71-2.34a48.93 48.93 0 0 1 5.66 5.69z"/><path d="m485.08 122.68c2.58 2.1 5.67 5.09 7 7.33l-2.68 2.05a17.1 17.1 0 0 0 -1.66-2.36c-6.87.36-14.12.65-19 .83l-.18-3.12c1.19 0 2.55-.08 4-.1a44.62 44.62 0 0 0 3.82-7.41l3.62 1.1c-1.09 2-2.4 4.24-3.64 6.14l8.81-.37c-.83-.83-1.69-1.61-2.49-2.31zm-13.73 10.22h17.32v11.41h-3.33v-1h-10.81v1h-3.18zm3.18 2.93v4.5h10.81v-4.5z"/><path d="m500.66 120.49h3.25v23.59h-3.25v-5.33c-2 .85-4 1.69-5.67 2.39l-1.38-3.14c1.77-.52 4.42-1.43 7.05-2.37v-6.29h-6.14v-3.1h6.14zm13.52 20.31c1 0 1.14-1 1.32-5.23a9.19 9.19 0 0 0 3 1.41c-.31 5-1.07 6.86-4 6.86h-3.5c-3 0-3.82-1.06-3.82-4.73v-18.59h3.2v7.8a51 51 0 0 0 5.33-3.95l2.24 2.78a77.74 77.74 0 0 1 -7.57 4.42v7.59c0 1.46.16 1.64 1.09 1.64z"/><path d="m23.37 188.24a21.52 21.52 0 0 1 -5.27 10.43 21.83 21.83 0 0 0 6.83 2.65 13.33 13.33 0 0 0 -2.15 3 22.65 22.65 0 0 1 -7.41-3.32 24.61 24.61 0 0 1 -6.74 3.31 12.26 12.26 0 0 0 -1.82-2.73 20.05 20.05 0 0 0 6.06-2.71 21.68 21.68 0 0 1 -4.29-6.37 19.35 19.35 0 0 1 -6.08 11.5 14 14 0 0 0 -2.24-2.66c5.15-4.42 5.67-10.92 5.67-15.15v-1.75h-4.14v-3h13.58l.54-.13 2.42.39c-.34 1.82-.81 3.87-1.27 5.9h3.61l.57-.13zm-14.27-3.85v1.07c1.22 4.65 3.22 8.48 6.37 11.28a16.61 16.61 0 0 0 4-6.31h-3.12l-.28 1.14-3.25-.49c.57-2.08 1.17-4.58 1.64-6.69z"/><path d="m32.86 187.8c.86 1.25 2.84 4.65 3.28 5.49l-2.08 2.52c-.31-1-.86-2.26-1.43-3.56v12.11h-2.83v-9.25a24 24 0 0 1 -2.08 4.68 17.93 17.93 0 0 0 -1.59-2.94 30.57 30.57 0 0 0 3.25-9h-2.76v-2.86h3.18v-4.89h2.83v4.84h2.73v2.86zm16.54-3.12v19.37h-3.22v-1.14h-6.58v1.3h-3.1v-19.53h3.8a35.2 35.2 0 0 0 .91-4.55l3.67.39c-.45 1.43-.94 2.89-1.41 4.16zm-9.8 2.91v4.66h6.58v-4.66zm6.58 12.41v-4.81h-6.58v4.81z"/><path d="m62 195.91c-.47-.86-1.25-2.1-2-3.25v11.68h-3v-10.4a22.25 22.25 0 0 1 -3.31 6 16.54 16.54 0 0 0 -1.53-3 23.82 23.82 0 0 0 4.39-8.61h-3.69v-2.91h4.14v-5.38h3v5.38h3.41v2.91h-3.41v.42c.78.78 3.36 3.72 4 4.44zm10.19-7.54a27.14 27.14 0 0 0 4.81 9.34 12.19 12.19 0 0 0 -2.31 2.39 25.49 25.49 0 0 1 -3.07-6.19v10.43h-3.16v-10.53a23.27 23.27 0 0 1 -4.47 7 15 15 0 0 0 -1.75-2.83 24.28 24.28 0 0 0 5.76-9.61h-3.81v-2.91h4.27v-5.38h3.12v5.38h4.57v2.91z"/><path d="m102 184.08s0 1 0 1.41c-.34 11.62-.63 15.75-1.69 17.13a3.48 3.48 0 0 1 -2.5 1.43 29.49 29.49 0 0 1 -4.08 0 7.26 7.26 0 0 0 -1-3c1.66.15 3.19.15 3.87.15a1.36 1.36 0 0 0 1.14-.44c.76-.83 1.1-4.73 1.38-13.91h-5.57a22.52 22.52 0 0 1 -2.29 4.15 20.22 20.22 0 0 0 -2-1.46v12.14h-6.94v1.9h-2.81v-19.32h2.94a28.35 28.35 0 0 0 .75-4.18l3.38.47c-.44 1.3-.91 2.6-1.35 3.71h4v4.22a27 27 0 0 0 3.51-8.38l2.94.68a29.91 29.91 0 0 1 -1 3.3zm-15.55 2.92h-4.13v4.21h4.13zm0 12v-5.09h-4.13v5.09zm8.63-1.4a56.76 56.76 0 0 0 -3.61-6l2.42-1.37a62.7 62.7 0 0 1 3.82 5.77z"/><path d="m112.35 193.7c-.78.24-1.59.5-2.37.73v6.71c0 1.43-.23 2.18-1 2.65a6.43 6.43 0 0 1 -3.54.57 10.73 10.73 0 0 0 -.78-2.81c.94.06 1.85.06 2.16.06s.44-.11.44-.47v-5.88l-2.44.68-.68-3c.89-.18 2-.46 3.12-.75v-4.39h-2.65v-2.8h2.65v-4.9h2.74v4.9h2v2.84h-2v3.64l2-.55zm2.91-1.38c0 3.67-.37 8.77-2.65 12a10.93 10.93 0 0 0 -2.29-1.54c2.1-3 2.29-7.23 2.29-10.48v-7.7h5.64v-4.44h3v1.27h5.93v2.13h-5.93v1h4.92.41l1.9.36a26.15 26.15 0 0 1 -1.27 4.22l-2.29-.5a15.88 15.88 0 0 0 .52-1.84h-4.63v1l3.43-.29.18 1.64-3.61.34v.1c0 .6.16.68 1 .68h2.81c.63 0 .76-.16.83-1.07a7 7 0 0 0 2 .65c-.21 1.64-.86 2.11-2.55 2.11h-3.45c-2.5 0-3.18-.47-3.2-2.24l-2.5.24-.18-1.72 2.68-.23v-1.17h-3zm13.13 4a21.9 21.9 0 0 1 -2.65 2 7.79 7.79 0 0 0 3.27 3.12 8.76 8.76 0 0 0 -1.64 2.08c-2.78-1.63-4.31-4.94-5.17-8.91a11.76 11.76 0 0 1 -1.51 1c3.23 2.62 3 6.68 1.64 8a2.71 2.71 0 0 1 -2.08.83c-.42 0-.88 0-1.35 0a4.43 4.43 0 0 0 -.63-2.13c.6.05 1.07.07 1.49.07a1 1 0 0 0 .91-.39 2.22 2.22 0 0 0 .33-1.56 22 22 0 0 1 -5.72 3.12 5.9 5.9 0 0 0 -1.09-1.58 17.91 17.91 0 0 0 6.37-3.25c-.08-.18-.18-.37-.28-.55a21.11 21.11 0 0 1 -4.22 2.19 6 6 0 0 0 -1-1.49 15.62 15.62 0 0 0 4.35-1.82c-.13-.15-.32-.28-.47-.44a18.68 18.68 0 0 1 -2.63 1 10.89 10.89 0 0 0 -.91-1.5 18 18 0 0 0 4.14-1.51h-3.75v-2h12.64v2h-4.16a15.82 15.82 0 0 0 .67 2.08c.68-.52 1.38-1.12 1.85-1.56z"/><path d="m130.68 203.32a9.34 9.34 0 0 0 1.76-4.6l2.08.62c-.31 1.85-.75 3.83-1.84 5zm.57-7.8c1.3 0 2.88-.08 4.63-.13v-1.25h-4v-2.34h4v-1.14h-4.06v-9.8h11v9.8h-4.21v1.14h4.16v2.34h-4.16v1.15l4.57-.18-.05 2.39c-4.21.26-8.66.49-11.8.62zm2.88-6.94h2.19v-5.64h-2.19v1.06l1.23-.36a17.29 17.29 0 0 1 .83 3.74l-1.38.42a16.09 16.09 0 0 0 -.68-3.62zm2.47 10.06a26.66 26.66 0 0 1 .55 4.55l-2 .24a22.69 22.69 0 0 0 -.44-4.55zm2.55-.23a23.5 23.5 0 0 1 1.12 4.31l-1.9.39a22.19 22.19 0 0 0 -1.06-4.34zm1.28-15.47h-2.24v4.29a26.67 26.67 0 0 0 1-3.59l1.25.44zm0 5.64v-3.69c-.42 1.09-.84 2.21-1.17 3l-1.07-.39v1.12zm1.24 9.28a16.46 16.46 0 0 1 2 4l-2 .81a18.64 18.64 0 0 0 -1.9-4.16zm8.48-9.57v4h4.16v11.93h-3v-.91h-4.81v1h-2.81v-12h3.4v-12.21h3v5.33h5v2.86zm1.2 6.82h-4.81v5.43h4.81z"/><path d="m160.26 203.58c2-.65 3.2-1.77 3.36-3.14a1.28 1.28 0 0 1 -.29 0 2.31 2.31 0 0 1 -2.47-2.31 2.36 2.36 0 0 1 2.55-2.34c1.85 0 2.81 1.38 2.81 3.56 0 3-1.9 5.36-5.12 6.32z"/><path d="m188.86 197c-3.43 1.53-7.28 3.17-10.21 4.39l-1-3.3c1-.34 2.15-.75 3.45-1.27l-.52-15.19 3.23-.13.47 14.07c1.3-.55 2.62-1.09 3.92-1.61zm10.77 7.31a45.44 45.44 0 0 0 -4.86-6.27 18.69 18.69 0 0 1 -7.91 6.32 17.57 17.57 0 0 0 -2.47-2.73c8.24-3.12 10.92-9.41 11.88-20.1l3.41.31c-.55 5.33-1.48 9.67-3.17 13.21a57.18 57.18 0 0 1 5.77 6.68zm-9.75-13.31a26.36 26.36 0 0 0 -3.88-6.45l2.81-1.4a26.24 26.24 0 0 1 4.11 6.24z"/><path d="m217.39 201h9.61v2.78h-22.12v-2.78h9.28v-3.1h-7.16v-2.7h7.2v-3h-5.87v-2.06c-.94.65-1.9 1.25-2.89 1.8a11.46 11.46 0 0 0 -2-2.5 28.37 28.37 0 0 0 10.56-9.44h3.19a27.52 27.52 0 0 0 11.13 9.1 15.21 15.21 0 0 0 -2.05 2.78 33 33 0 0 1 -2.81-1.74v2h-6.08v3h7.28v2.7h-7.28zm5.07-11.52a31.26 31.26 0 0 1 -6.71-6.45 29.87 29.87 0 0 1 -6.5 6.45z"/><path d="m246.92 197.32v-1h-3.48v1.06h-3.12v-8h-3.54v10.42h16.22v3h-16.22v1.64h-3.2v-15.13h-3.69v-3h3.69v-5.46h3.2v5.46h3.54v-6h3.12v6h3.48v-5.77h3.08v5.77h3.85v3h-3.85v8zm0-3.93v-4.08h-3.48v4.08z"/><path d="m273 192a18.43 18.43 0 0 0 7.12 3.51 14.18 14.18 0 0 0 -2.05 2.65 19.35 19.35 0 0 1 -4.4-2.1v8.21h-3.27v-9.15h2a15.47 15.47 0 0 1 -3-3.12h-2.68a17.61 17.61 0 0 1 -3.12 3.1h2.21v1.79c0 2.47-.75 5.75-5.93 7.64a11.17 11.17 0 0 0 -2.13-2.49c4.34-1.43 4.86-3.62 4.86-5.28v-.94a20.52 20.52 0 0 1 -4.73 2.42 14.2 14.2 0 0 0 -2-2.55 19.3 19.3 0 0 0 7-3.69h-4.13v-11h18.54v11zm-11.21-6.68h4.55v-1.87h-4.55zm0 4.19h4.55v-1.88h-4.55zm12.21-6.05h-4.55v1.87h4.55zm0 4.18h-4.55v1.88h4.55z"/><path d="m305.29 195.24c-.44 5-.88 7.22-1.69 8.06a2.78 2.78 0 0 1 -2 1 22.42 22.42 0 0 1 -3.09.05 6.72 6.72 0 0 0 -.83-2.76 20.28 20.28 0 0 0 2.52.13 1.14 1.14 0 0 0 .86-.28c.41-.42.75-1.72 1.06-4.68h-15.42c-.41.31-.86.6-1.32.88l2.36.76a10.84 10.84 0 0 1 -3 5.87l-2.42-1.53a9.38 9.38 0 0 0 2.81-4.92c-.62.39-1.27.73-1.92 1.07a19.5 19.5 0 0 0 -1.62-2.7 23.72 23.72 0 0 0 10-8.92h-8.34v-2.71h4.37a23.53 23.53 0 0 0 -1.64-3.3l2.68-1a18.42 18.42 0 0 1 2 3.8l-1.3.54h3.77a29 29 0 0 0 1.79-4.44l3.1.86c-.45 1.22-.94 2.41-1.49 3.58h5.1c-.26 1.56-.65 3.33-1 4.76h3c-.29 1.56-.63 3.38-.94 4.79h2.78zm-14.14 3.09a18 18 0 0 1 .7 4.78l-2.68.34a17.84 17.84 0 0 0 -.52-4.81zm.65-6.37a25.64 25.64 0 0 1 -1.95 2.11h9.93c.16-.63.31-1.36.47-2.11zm3.2 5.9a21.56 21.56 0 0 1 1.25 4.21l-2.47.63a23.05 23.05 0 0 0 -1.2-4.32zm.05-10.63c-.39.7-.81 1.38-1.25 2.05h4c.16-.62.31-1.32.44-2.05zm2.89 14.12a14.81 14.81 0 0 0 -1.54-3.51l2.13-.73a13.26 13.26 0 0 1 1.69 3.43z"/><path d="m331.61 201.53h-3.8v2.81h-2.94v-2.81h-6.55v-2.32h2.39v-2.21h-1.06v-2.36h5.22v-1.51h-9.33a16.32 16.32 0 0 1 -1 1.61h3l.47-.08 1.64.78c-1.56 4.89-5.18 7.62-9.44 8.95a9.85 9.85 0 0 0 -1.72-2.16 15.36 15.36 0 0 0 4.5-1.92 14.77 14.77 0 0 0 -2.11-1.95 14.87 14.87 0 0 1 -1.35.88 15.81 15.81 0 0 0 -1.82-1.85 12.89 12.89 0 0 0 5-4.26h-3.8v-2.42h3.28v-1.71h-3.77v-2.47h3.77v-1.53c-.49.47-1 .93-1.61 1.38a9.06 9.06 0 0 0 -2.26-1.77 14 14 0 0 0 4.39-4.63l2.94.55c-.37.62-.76 1.22-1.17 1.79h15.83v2.42h-2.44v1.79h3.59v2.47h-3.59v1.69h3.27v2.42h-3.27v1.51h3.13v2.38h-3.15v2.21h3.8zm-19.06-4.6a16.12 16.12 0 0 1 2.23 1.82 10.23 10.23 0 0 0 1.46-2h-3.54zm2.39-10.38h1.58v-1.79h-1.58zm0 4.16h1.58v-1.71h-1.58zm5.82-4.16v-1.79h-1.69v1.79zm-1.69 2.45v1.69h1.69v-1.69zm5.8 10.19v-2.19h-1.64v2.21zm.11-14.45h-1.67v1.79h1.69zm0 4.26h-1.67v1.69h1.69z"/><path d="m350.92 182.68c2.58 2.1 5.67 5.09 7 7.33l-2.68 2.05a17.1 17.1 0 0 0 -1.66-2.36c-6.87.36-14.12.65-19 .83l-.18-3.12c1.19 0 2.55-.08 4-.1a44.62 44.62 0 0 0 3.82-7.41l3.57 1.14c-1.09 2.05-2.4 4.24-3.64 6.14l8.81-.37c-.83-.83-1.69-1.61-2.5-2.31zm-13.73 10.22h17.32v11.41h-3.33v-1h-10.81v1h-3.18zm3.18 2.93v4.5h10.81v-4.5z"/><path d="m362 203.58c2-.65 3.2-1.77 3.36-3.14a1.28 1.28 0 0 1 -.29 0 2.31 2.31 0 0 1 -2.47-2.31 2.36 2.36 0 0 1 2.55-2.34c1.85 0 2.81 1.38 2.81 3.56 0 3-1.9 5.36-5.12 6.32z"/><path d="m386.2 194.69v6.06c0 1.43-.23 2.18-1 2.65a6.46 6.46 0 0 1 -3.59.6 10.23 10.23 0 0 0 -.8-2.84h2.15s.45-.1.45-.44v-5.2l-2.4.68-.7-3c.89-.18 1.93-.47 3.1-.76v-4.6h-2.81v-2.84h2.81v-4.91h2.8v4.91h2.6v2.86h-2.6v3.85l2.34-.62.42 2.78zm11.8 6.55c.59 0 1.17.08 1.82.08h5.22a9.21 9.21 0 0 0 -.83 2.71h-4.52c-3.41 0-6-.63-7.81-3.77a11.34 11.34 0 0 1 -2.73 4.08 15.39 15.39 0 0 0 -2.26-1.85c2.16-1.71 3.23-4.6 3.62-8.13l2.8.33a23.28 23.28 0 0 1 -.49 2.63 5.85 5.85 0 0 0 2.26 3v-6.78h-6.08v-2.5h15.37v2.5h-6.37v2.28h5v2.42h-5zm5-11.39h-12.71v-9h12.79zm-3-6.81h-7v1.3h7zm0 3.3h-7v1.33h7z"/><path d="m414.91 181a48.2 48.2 0 0 1 -2.47 5.41v17.89h-3v-13.15c-.55.71-1.1 1.33-1.64 1.93a18.39 18.39 0 0 0 -1.67-3.23 27.15 27.15 0 0 0 5.93-9.72zm6.09 17.25a23.89 23.89 0 0 1 -5.18 6 17.88 17.88 0 0 0 -2.41-1.95 16.33 16.33 0 0 0 4.7-5zm9.8-5v3h-16.91v-3h3.49v-5.18h-2.84v-3h2.84v-4.86h3v4.86h3.78v-4.89h3v4.89h3.38v3h-3.38v5.18zm-10.38 0h3.78v-5.18h-3.78zm5.83 4.05a32.41 32.41 0 0 1 4.42 5.36l-2.6 1.64a28.58 28.58 0 0 0 -4.29-5.62z"/><path d="m440.65 186.66a34 34 0 0 1 -2 3.14v14.61h-2.88v-11.12a25.48 25.48 0 0 1 -2 1.92 19.3 19.3 0 0 0 -1.61-2.89 21.75 21.75 0 0 0 5.79-6.68zm-.44-5.49a31.7 31.7 0 0 1 -6.22 6.34 24.28 24.28 0 0 0 -1.61-2.26 21.83 21.83 0 0 0 5.1-5.15zm10 20a12.75 12.75 0 0 0 2 .13h4.57a9.27 9.27 0 0 0 -.85 2.78h-4c-3.54 0-6.29-.85-8.19-4.05a11.58 11.58 0 0 1 -2.76 4.34 13.57 13.57 0 0 0 -2.34-2c2.45-2.08 3.33-5.64 3.56-10l3 .23a34.89 34.89 0 0 1 -.44 3.64 7.49 7.49 0 0 0 2.58 3.83v-9.44h.93a18.93 18.93 0 0 0 -1.66-1.17c2.52-1.95 3.9-5.31 4.42-9.34l2.89.34a26.61 26.61 0 0 1 -1 4.34 35.47 35.47 0 0 1 4 4.16l-2 2.04a27.76 27.76 0 0 0 -3.06-3.54 13.81 13.81 0 0 1 -2.16 3.15h.54v3.66h5v2.6h-5zm-3.09-12.46a20 20 0 0 0 -2.08-1.84 15.11 15.11 0 0 1 -3.15 4.47 14.12 14.12 0 0 0 -2.18-2.11c2.31-2 3.72-5.35 4.37-9.1l2.93.45a27.28 27.28 0 0 1 -1 3.79 24.72 24.72 0 0 1 2.47 1.93z"/><path d="m463.63 189.83c0 4.21-.36 10.42-2.7 14.38a10.52 10.52 0 0 0 -2.6-1.51c2.18-3.69 2.34-9 2.34-12.87v-7.83h9.15v-1.9h3.1v1.9h9.33v2.6h-4.11v1.3h3.86v1.87h-3.85v2.76h-10.57v-2.76h-3.9v-1.87h3.9v-1.3h-3.95zm12.61 10.79c2.32.62 5 1.48 6.55 2.08l-2.79 1.71a53.49 53.49 0 0 0 -6.08-2.18l2-1.61h-6.13l2.08 1.51a33.5 33.5 0 0 1 -6.95 2.28 18.63 18.63 0 0 0 -1.87-1.92 33.76 33.76 0 0 0 6.09-1.87h-4.19v-6.55h6.45v-.89h-7.65v-2h18.57v2h-8v.89h6.66v6.55zm-8.55-4h3.64v-1h-3.64zm0 2.5h3.64v-1h-3.64zm7.41-14.56h-4.6v1.3h4.6zm0 3.17h-4.6v1.09h4.6zm-.89 7.85v1h3.7v-1zm3.7 2.5h-3.7v1h3.7z"/><path d="m508.12 189.26v2.86h-22.91v-2.86h10.46v-3h-5.67a18.21 18.21 0 0 1 -2.14 2.93 17.51 17.51 0 0 0 -2.83-1.63 18.63 18.63 0 0 0 4.42-7.44l3.09.78a21.71 21.71 0 0 1 -1 2.52h4.14v-3.38h3.27v3.38h7.59v2.84h-7.59v3zm-19.92 4.74h17.42v10.43h-3.33v-1.2h-10.91v1.28h-3.18zm3.18 2.86v3.51h10.91v-3.51z"/><path d="m516.28 203.89a48.27 48.27 0 0 0 -5.59-5.74l2.71-2.34a48.93 48.93 0 0 1 5.66 5.69z"/><path d="m10.4 252.32v9.44c0 1.12-.16 1.77-.86 2.16a5.28 5.28 0 0 1 -2.78.44 10.68 10.68 0 0 0 -.7-2.34h1.43s.28-.11.28-.31v-1.8h-2.77v4.42h-2.61v-12h-1.53v-4h1.48v-7.39h8.16v7.39h1.56v2.94h12.38v2h-12.44v-.94zm-.65-1.95h-6.68v1h6.68zm-5.2-2.1h.91v-4.14h2.73v-1.06h-3.64zm3.22 5.22h-2.77v1.15h2.77zm0 4.37v-1.19h-2.77v1.19zm.42-9.59v-2.39h-1.09v2.39zm16.54 13.6v2.18h-13.24v-2.18h3.33a10.29 10.29 0 0 0 -1-2.14l1.58-.57h-2.4v-5.07h10.58v5.07h-2.44l1.56.37c-.47.83-.94 1.63-1.35 2.34zm-.73-11.55h-11.42v-8.06h2.89v-2.16h2.16v2.16h1.12v-2.16h2.18v2.16h3zm-9.1-5h1.1v-1.12h-1.15zm0 3h1.1v-1.12h-1.15zm.59 9h5.51v-1.43h-5.56zm.65 1.82a10 10 0 0 1 1.17 2.71h1.69a20.4 20.4 0 0 0 1-2.71zm2.66-13.83v-1.12h-1.17v1.12zm-1.12 1.87v1.15h1.12v-1.13zm3.92-3h-1.19v1.12h1.14zm0 3h-1.19v1.15h1.14z"/><path d="m25.58 262.13c.86-1.38 1.1-3.59 1.17-5.83l1.69.31c-.13 2.4-.33 4.81-1.3 6.32zm22.16-5.57a16.77 16.77 0 0 1 -.5 2.76 28.65 28.65 0 0 1 3 3.53l-2 1.51a28.52 28.52 0 0 0 -2-2.65 8 8 0 0 1 -2.37 2.71 10.76 10.76 0 0 0 -1.66-1.64l-.73.78a16.53 16.53 0 0 0 -1.59-2 7.8 7.8 0 0 1 -2.44 2.91 10.81 10.81 0 0 0 -1.82-1.74 2.3 2.3 0 0 1 -.34.75 2 2 0 0 1 -1.48.89 13.86 13.86 0 0 1 -2.21.1 6.21 6.21 0 0 0 -.6-2.31 12.09 12.09 0 0 0 1.53.08.67.67 0 0 0 .65-.32 6 6 0 0 0 .39-2.36l-.7.26a15.18 15.18 0 0 0 -1.09-3.36l1.14-.36a15.41 15.41 0 0 1 .73 1.74c.05-.75.08-1.64.11-2.65h-6.85v-14.19h9.09v2.42h-2.7v1.58h2.24v2.27h-2.26v1.58h2.31v2.26h-2.31v1.67h3s0 .65 0 1c-.13 5-.23 7.59-.54 8.84 2-1.3 2.81-3.44 3-6.22l2.55.16a21.13 21.13 0 0 1 -.44 2.55 24.07 24.07 0 0 1 2.31 2.6 8.56 8.56 0 0 0 2-5.33zm-17.74.13a28.69 28.69 0 0 1 .23 4.79l-1.4.15a27.87 27.87 0 0 0 -.13-4.78zm-.65-13.26v1.57h1.61v-1.61zm1.61 3.88h-1.63v1.58h1.61zm-1.61 5.51h1.61v-1.67h-1.63zm2.21 3.61a22.72 22.72 0 0 1 .75 4.21l-1.3.24a18.72 18.72 0 0 0 -.73-4.21zm8.11-9.62a14.9 14.9 0 0 1 -2.67 1.93 9.42 9.42 0 0 0 -1.38-2.58 15.13 15.13 0 0 0 5.88-6.06h2.75a15.64 15.64 0 0 0 6.24 5.83 20.79 20.79 0 0 0 -1.56 2.73 18.4 18.4 0 0 1 -2.44-1.74v1.58h-6.84zm-2.67 2.84h5.59v6.35h-5.59zm2 4.39h1.46v-2.47h-1.41zm6.71-7.8a17.57 17.57 0 0 1 -2.71-3.41 15.27 15.27 0 0 1 -2.68 3.41zm-2.21 3.41h5.8v6.35h-5.8zm2 4.39h1.64v-2.47h-1.59z"/><path d="m61.07 246.84a35 35 0 0 1 -2.78 4v13.57h-3.09v-10.19c-.73.7-1.43 1.35-2.13 1.93a32 32 0 0 0 -2.07-2.68 25.31 25.31 0 0 0 7.15-7.78zm-1-5.54a35.08 35.08 0 0 1 -7.07 6.84 17.73 17.73 0 0 0 -1.71-2.52 23.31 23.31 0 0 0 5.87-5.54zm15.33 10.35h-3.56v9.12c0 1.67-.31 2.53-1.46 3a14.23 14.23 0 0 1 -5.07.53 13 13 0 0 0 -.93-3.15c1.48.08 3.19.08 3.66.05s.65-.1.65-.49v-9h-7.69v-2.94h14.4zm-.65-7.15h-12.64v-2.94h12.64z"/><path d="m83.59 260.07 3.74-.62.16 2.6c-3.41.65-7.1 1.27-9.83 1.74l-.6-2.76c1.1-.13 2.42-.33 3.85-.54v-6.89h-3.53v-2.6h3.53v-1.9h-2.39v-.8l-.18.18a8.07 8.07 0 0 0 -1.9-2 17.05 17.05 0 0 0 4.47-6.3h2.47a26.08 26.08 0 0 1 4.47 4.53l-1.63 2.21v2.23h-2.63v1.85h3.41v2.63h-3.41zm-4-5.48a26.85 26.85 0 0 1 1 4.44l-2.13.6a23.69 23.69 0 0 0 -.89-4.52zm6-8.09a24.68 24.68 0 0 0 -2.96-3.5 25.7 25.7 0 0 1 -2.42 3.48zm-1.72 12.25a29.89 29.89 0 0 0 1-4.4l2.34.57c-.52 1.54-1 3.25-1.45 4.37zm16.13 2.31c0 1.43-.26 2.26-1.19 2.76a8.56 8.56 0 0 1 -3.9.54 10 10 0 0 0 -.94-3c1.07.08 2.24.05 2.6.05s.47-.1.47-.41v-1.6h-5.75v4.94h-3v-16.1h1a22.21 22.21 0 0 0 -2.36-1.48 14.53 14.53 0 0 0 2.49-5.38l2.84.65a21.22 21.22 0 0 1 -2.81 6.21h3.15v-8.16h3v8.16h4.4zm-8.71-10.06v1.61h5.77v-1.61zm5.77 5.9v-1.77h-5.77v1.77zm1.53-8.66a26.17 26.17 0 0 0 -3-5.77l2.49-1.2a26.15 26.15 0 0 1 3.15 5.62z"/><path d="m108.6 263.89a48.27 48.27 0 0 0 -5.59-5.74l2.71-2.34a48.93 48.93 0 0 1 5.66 5.69z"/><path d="m121 252.66h9.91v11.57h-3.09v-1.17h-3.88v1.3h-2.94zm2.94 3v4.47h3.88v-4.47zm15.89-5.13h-15.24v-9.41h15.24zm-3.15-6.44h-9.1v3.51h9.1zm6.66 8.6v11.6h-3.12v-1.2h-4.14v1.3h-3v-11.7zm-3.12 7.44v-4.47h-4.14v4.47z"/><path d="m149.58 250.4v2.11h4.92v11.88h-2.76v-9.28h-2.26a36.42 36.42 0 0 1 -1.59 9.31 15 15 0 0 0 -2.57-.92c1.4-3.74 1.64-9.46 1.64-13.1v-9.65h2.65v6.14h1.64v-6.79h2.67v6.79h1.72v2.63h-6zm20 8.84h-3.4v5.15h-2.89v-5.15h-8.11v-2.57h2.29a12 12 0 0 0 -1.59-1.33 8.94 8.94 0 0 0 3.72-2.5h-3.54v-10.34h4.08a17.45 17.45 0 0 0 .81-2.45l3.41.57c-.37.65-.73 1.28-1.1 1.88h5.67v10.34h-6.13a8.92 8.92 0 0 1 -4.16 3.83h4.65v-3.31h2.89v3.31h3.4zm-10.79-12.66h2.37v-1.77h-2.37zm2.08 3.92a10.42 10.42 0 0 0 .29-1.79h-2.37v1.79zm5.23-1.79h-2.34a16 16 0 0 1 -.18 1.79h2.52zm0-3.9h-2.34v1.77h2.34z"/><path d="m193.62 255.76c0 1.3-.26 1.92-1.19 2.31a9.72 9.72 0 0 1 -3.46.39 25.26 25.26 0 0 0 7 2.31 14.2 14.2 0 0 0 -1.97 2.73 22.33 22.33 0 0 1 -8.43-4.21v5.1h-3.33v-5.18a22 22 0 0 1 -8.63 4.48 12.14 12.14 0 0 0 -1.92-2.6c4.31-.86 8.34-2.81 10.55-5.33v-1.82h-5v4.6h-3.24v-7.23h8.24v-1.25h-9.9v-2.65h5.51a16.09 16.09 0 0 0 -1.33-2.73h-.44a15.61 15.61 0 0 1 -2.16 2.6 19.68 19.68 0 0 0 -2.57-1.69 14.9 14.9 0 0 0 4-5.69l2.94.8c-.19.44-.39.94-.63 1.41h5.62v2.13a13.71 13.71 0 0 0 2.47-4.34l3 .75c-.18.47-.39 1-.62 1.46h7.22v2.57h-4.23a12.63 12.63 0 0 1 .91 1.79l-2.76.89a13.2 13.2 0 0 0 -1.33-2.68h-1.24a14.55 14.55 0 0 1 -1.15 1.51v1.22h9.36v2.65h-9.36v1.25h8.06zm-11.39-8.35v-1.41h.45l-.78-.47a11.23 11.23 0 0 0 1-.88h-3.2a17 17 0 0 1 .88 1.82l-2.34.91zm3.33 8.81a15.94 15.94 0 0 0 3.25 2.16 12 12 0 0 0 -1-2.31c.86.08 1.92.05 2.21.05s.41-.08.41-.36v-1.82h-4.86z"/><path d="m220.87 243.51a20.13 20.13 0 0 1 -4.16 6.73 18 18 0 0 0 5.64 2.94 15.2 15.2 0 0 0 -2 2.6l-.19-.08v8.61h-3v-.81h-5.33v.81h-2.83v-8.5l-.65.28a13.47 13.47 0 0 0 -.89-1.35v4.53h-6.76v2.13h-2.23v-19.79h9v4.92a17.24 17.24 0 0 0 4.45-6.5l2.91.8a15.66 15.66 0 0 1 -.83 1.82h4.34l.52-.13zm-20.18.75v4.61h1.23v-4.61zm0 12.35h1.23v-5.2h-1.23zm4.45-12.35h-1.3v4.61h1.3zm0 12.35v-5.2h-1.3v5.2zm2.31-3.27a20.61 20.61 0 0 0 5.1-3.15 20.18 20.18 0 0 1 -1.92-2.57 16.61 16.61 0 0 1 -1.93 1.92 12.94 12.94 0 0 0 -1.25-1.3zm10.72 1.4a19.78 19.78 0 0 1 -3.57-2.49 25.82 25.82 0 0 1 -3.56 2.49zm-1 6.06v-3.35h-5.33v3.35zm-4.71-15.57-.15.2a16.38 16.38 0 0 0 2.23 2.89 16.81 16.81 0 0 0 2.29-3.09z"/><path d="m229.24 263.89a48.27 48.27 0 0 0 -5.59-5.74l2.71-2.34a48.93 48.93 0 0 1 5.64 5.69z"/><path d="m254.12 259.16.11 2.89c-4.63.65-9.6 1.25-13.11 1.71l-.49-3.06c1.51-.16 3.35-.34 5.36-.58v-3.35h-4.32v-2.77h4.33v-2.52h3.06v2.52h4.24v2.76h-4.24v3zm-3-14.22a26.68 26.68 0 0 1 3.74 5.75l-2.44 1.4a14 14 0 0 0 -.62-1.35c-3.85.21-7.86.39-10.74.52l-.19-2.89 2.27-.05c.44-1.22.88-2.63 1.19-3.87h-3.4v-2.73h13.17v2.73h-6.32c-.49 1.27-1 2.6-1.59 3.79 1.31 0 2.68-.08 4.06-.13-.47-.7-1-1.38-1.43-2zm6.88 12.92h-3v-14.64h3zm6-17.05v19.86c0 1.74-.36 2.63-1.4 3.09a12.46 12.46 0 0 1 -4.91.6 12.56 12.56 0 0 0 -1-3.17c1.56.08 3.15.08 3.67.08s.62-.16.62-.6v-19.86z"/><path d="m288.83 260.75c0 1.69-.33 2.55-1.45 3.07s-2.71.52-5 .52a10.87 10.87 0 0 0 -1-3.12h3.67s.62-.16.62-.57v-4.65a17.75 17.75 0 0 0 -1.74 2.24 12.93 12.93 0 0 1 -5.59-7 12.23 12.23 0 0 1 -5.93 7.2 13.85 13.85 0 0 0 -1.4-1.85v7.75h-3.15v-18.49h9.21c-.08-.65-.13-1.33-.19-2h-4.39v-2.71h7.07a37.89 37.89 0 0 0 .44 4.71h8.84zm-17.83-5.1a10.62 10.62 0 0 0 5-6.78h-5zm9.72-6.78a10.72 10.72 0 0 0 4.94 6.5v-6.5z"/><path d="m305.27 248.71a23.92 23.92 0 0 0 10.73 7.29 18.87 18.87 0 0 0 -1.92 2.81c-.93-.41-1.92-.91-2.91-1.45v7h-3.17v-.71h-8.55v.73h-3v-6.81a27.54 27.54 0 0 1 -2.86 1.46 15.75 15.75 0 0 0 -1.74-2.63 24.59 24.59 0 0 0 10.24-7.67zm-9.6-1h-3v-5.59h9.41v-2.08h3.17v2.08h9.59v5.59h-3.17v-2.71h-16zm6.35-1.28a21.92 21.92 0 0 1 -6.63 5.93 18.93 18.93 0 0 0 -2.14-2.47 15.14 15.14 0 0 0 5.78-4.47zm6 14.43v-2.75h-8.55v2.75zm.21-5.46a21.7 21.7 0 0 1 -4.39-3.92 22 22 0 0 1 -4.16 3.92zm-.73-10a37.75 37.75 0 0 1 6.53 4.76l-2.34 2a35.53 35.53 0 0 0 -6.37-5z"/><path d="m322.14 247.2v-1a25.18 25.18 0 0 1 -2.31 1.9h10.4v8.09h-8.4c-.05.34-.11.7-.18 1h9v7h-2.68v-.73h-4.4v.81h-2.6v-4.27a12.13 12.13 0 0 1 -2 3.8 9.61 9.61 0 0 0 -2-1.85c2.29-3 2.58-7.15 2.58-10.09v-3.53c-.29.18-.57.39-.86.57a8.65 8.65 0 0 0 -1.85-2.19 17.92 17.92 0 0 0 6.53-6.34h2.76a51.19 51.19 0 0 1 5.43 4.68l-2 2.29c-.36-.42-.83-.94-1.37-1.51v1.35zm5.3 6.84v-1h-5.35v1zm-5.33-3.77v.94h5.33v-.94zm5.31-5.15c-.76-.73-1.56-1.48-2.32-2.08a27.61 27.61 0 0 1 -1.82 2.08zm-3.88 14.33v1.84h4.4v-1.84zm11.13-1.59h-2.91v-14.64h2.91zm5.77-17.26v20.07c0 1.72-.33 2.57-1.37 3s-2.6.63-4.84.63a12.66 12.66 0 0 0 -1-3.15c1.56.05 3.06.05 3.56.05s.65-.15.65-.6v-20z"/><path d="m351.78 241.12a40.51 40.51 0 0 1 -2.5 5.41v17.81h-3.12v-13c-.54.65-1.09 1.3-1.61 1.87a20.8 20.8 0 0 0 -1.71-3.3 27.16 27.16 0 0 0 5.92-9.73zm8.24 6.13v2.75h6.74v2.81h-6.76v2.94h7.07v2.86h-7.07v5.77h-3.17v-17.13h-1a28.62 28.62 0 0 1 -3.4 5.05 21.43 21.43 0 0 0 -2.37-2.16 25.76 25.76 0 0 0 5.51-9.8l3 .75a31.32 31.32 0 0 1 -1.27 3.23h10.09v2.93z"/><path d="m391.54 248.24a21.62 21.62 0 0 1 -5.28 10.43 21.8 21.8 0 0 0 6.84 2.65 13.37 13.37 0 0 0 -2.16 3 22.65 22.65 0 0 1 -7.41-3.31 24.61 24.61 0 0 1 -6.74 3.31 12.26 12.26 0 0 0 -1.82-2.73 20.05 20.05 0 0 0 6.03-2.69 21.68 21.68 0 0 1 -4.29-6.37 19.29 19.29 0 0 1 -6.05 11.47 14 14 0 0 0 -2.24-2.66c5.15-4.42 5.67-10.92 5.67-15.15v-1.75h-4.09v-3h13.58l.54-.13 2.42.39c-.34 1.82-.81 3.87-1.27 5.9h3.61l.57-.13zm-14.28-3.85v1.07c1.22 4.65 3.23 8.48 6.37 11.28a16.61 16.61 0 0 0 3.95-6.31h-3.07l-.28 1.14-3.25-.49c.57-2.08 1.17-4.58 1.64-6.69z"/><path d="m418 251h-18.9v1.87c0 3.44-.47 8.56-2.89 11.83a12.56 12.56 0 0 0 -2.41-1.95c2.08-2.91 2.28-7 2.28-9.9v-4.34h3.25a11.41 11.41 0 0 0 -.83-1.3c1.56-.24 3.28-.55 5-.94-1.38-.36-2.73-.7-4-1l1.36-1h-4.96v-2.41h8.66v-1.76h3.09v1.75h9.1v2.41h-4.21l.57.32a20.28 20.28 0 0 1 -3 1.53c1.46.44 2.79.88 3.88 1.27l-1.3 1.1h5.31zm-15 4.39a12.62 12.62 0 0 1 -1.59 2 18.44 18.44 0 0 0 -2.26-1.64 11.16 11.16 0 0 0 3.07-4.76l2.7.65c-.15.44-.34.91-.54 1.35h2.88v-1.71h3v1.72h6.29v2.42h-6.29v1.67h5.51v2.34h-5.51v2h7.56v2.5h-18.28v-2.5h7.67v-2h-5.46v-2.34h5.46v-1.67zm7.85-6.91c-1.12-.39-2.39-.81-3.77-1.23-1.48.47-3.07.89-4.6 1.23zm-7.49-4.22c1.22.29 2.5.63 3.75 1a24.16 24.16 0 0 0 2.52-1z"/><path d="m420 252.66h9.91v11.57h-3.09v-1.17h-3.88v1.3h-2.94zm2.94 3v4.47h3.88v-4.47zm15.89-5.13h-15.24v-9.41h15.24zm-3.15-6.44h-9.1v3.51h9.1zm6.66 8.6v11.6h-3.12v-1.2h-4.14v1.3h-3v-11.7zm-3.12 7.44v-4.47h-4.14v4.47z"/><path d="m448.73 250.27v14.09h-3v-23.29h10v9.2zm0-7v1.32h4.09v-1.32zm4.09 4.75v-1.42h-4.09v1.4zm7.61 10.48v5.36h-2.7v-5.36h-2.5a8.46 8.46 0 0 1 -3.32 5.83 11.54 11.54 0 0 0 -2-1.77 6.1 6.1 0 0 0 2.65-4.06h-2.56v-2.5h2.73v-2h-2.37v-2.4h12.56v2.4h-2.45v2h2.86v2.52zm-2.7-2.52v-2h-2.42v2zm9.91 4.76c0 1.58-.29 2.44-1.22 2.94s-2.29.6-4.27.6a10.68 10.68 0 0 0 -.94-3.07h2.84s.54-.15.54-.52v-10.4h-7.15v-9.25h10.2zm-7.26-17.47v1.32h4.21v-1.32zm4.21 4.81v-1.48h-4.21v1.49z"/><path d="m493.77 244.39c-1 .84-2 1.67-3 2.34a16.75 16.75 0 0 0 3.62 1.36 12.56 12.56 0 0 0 -1.85 2.44 19.9 19.9 0 0 1 -2.94-1.22v2.39a1.63 1.63 0 0 0 .05.62.36.36 0 0 0 .29.11h.44a1 1 0 0 0 .34 0 .46.46 0 0 0 .26-.31 8 8 0 0 0 .1-1.2 6.91 6.91 0 0 0 2.16 1.15 6 6 0 0 1 -.39 1.66 1.58 1.58 0 0 1 -1 .73 4 4 0 0 1 -1.25.18h-1.32a2.49 2.49 0 0 1 -1.72-.57c-.44-.44-.6-.94-.6-2.39v-1.51h-2.34a6 6 0 0 1 -2.86 5.15 12 12 0 0 0 -1.61-1.72v1.15h-2.73v-.32h-2.65c-.11.58-.21 1.12-.34 1.67h5.77s0 .73 0 1.09c-.29 3.74-.6 5.46-1.3 6.16a2.79 2.79 0 0 1 -2.08.89 27.29 27.29 0 0 1 -3.46 0 6.05 6.05 0 0 0 -.88-2.6c1.3.11 2.6.13 3.14.13a1.37 1.37 0 0 0 1-.23c.33-.31.54-1.25.72-3.23h-3.34l-.16.63-2.47-.39a64.81 64.81 0 0 0 1.36-6.42h4.78v-1.83h-4.31v-.19c-.6.29-1.2.52-1.82.76a15.61 15.61 0 0 0 -1.66-2.26 17.51 17.51 0 0 0 4.34-2 24.54 24.54 0 0 0 -2.39-1.56l1.74-1.64a19.55 19.55 0 0 1 2.73 1.64 13.14 13.14 0 0 0 1.53-1.66h-5.12v-2.39h6.79l.52-.13 1.89.93a15 15 0 0 1 -4.86 6.14h3.33v5.23a3.78 3.78 0 0 0 1.9-3.51v-1.86h5.15a18.1 18.1 0 0 1 -5.44-7l2.47-.7a14 14 0 0 0 1.51 2.52 21 21 0 0 0 2.42-2.37l2.21 1.59c-1 .86-2.16 1.77-3.12 2.47a14.22 14.22 0 0 0 1.4 1.17 21.89 21.89 0 0 0 2.81-2.65zm-1.9 11.44a11.55 11.55 0 0 1 -3 4.89 17 17 0 0 0 4.55 1.15 11 11 0 0 0 -1.82 2.49 16.26 16.26 0 0 1 -5.12-1.9 18.08 18.08 0 0 1 -5.36 1.9 9.63 9.63 0 0 0 -1.3-2.23 17.84 17.84 0 0 0 4.47-1.33 11.6 11.6 0 0 1 -2.16-2.91l1.69-.47h-2.49v-2.05h8.37l.47-.08zm-7.28 1.59a7.73 7.73 0 0 0 1.92 2 7.7 7.7 0 0 0 1.82-2z"/><path d="m514.25 254.17v1.56h4.4v2.6h-4.4v2.81c0 1.53-.31 2.26-1.42 2.73a12.94 12.94 0 0 1 -4.5.47 13.73 13.73 0 0 0 -1.12-2.89c1.33.05 2.88.05 3.3.05s.55-.1.55-.41v-2.76h-7.73a16.1 16.1 0 0 1 3.15 3l-2.39 1.92a17.49 17.49 0 0 0 -3.93-3.9l1.38-1h-4.78v-2.6h14.3v-1.56h-15.29v-2.63h10.16v-1.48h-7.54v-2.55h7.54v-1.24h1.57c-.55-.34-1.12-.71-1.51-.91a7.13 7.13 0 0 0 .93-.89h-3.48a11.64 11.64 0 0 1 .78 1.64l-2.65 1.09a15.53 15.53 0 0 0 -1.2-2.73h-.26a22.76 22.76 0 0 1 -2.42 3 18.57 18.57 0 0 0 -2.57-1.72 15.68 15.68 0 0 0 4.13-5.85l3 .78c-.19.44-.39.86-.63 1.3h5.7v2.11a13.53 13.53 0 0 0 2.42-4.19l3 .75a10.42 10.42 0 0 1 -.55 1.33h7.18v2.52h-4.37a12.5 12.5 0 0 1 1 1.64l-2.65 1.12a15.23 15.23 0 0 0 -1.61-2.76h-1a13 13 0 0 1 -1.53 2v1h7.79v2.55h-7.88v1.48h10.27v2.63z"/><path d="m24 304.08s0 1 0 1.41c-.34 11.62-.63 15.75-1.69 17.13a3.48 3.48 0 0 1 -2.5 1.43 29.49 29.49 0 0 1 -4.08.05 7.26 7.26 0 0 0 -1-3c1.66.15 3.19.15 3.87.15a1.36 1.36 0 0 0 1.14-.44c.76-.83 1.1-4.73 1.38-13.91h-5.57a22.52 22.52 0 0 1 -2.29 4.1 20.22 20.22 0 0 0 -2-1.46v12.14h-6.94v1.9h-2.81v-19.32h2.94a28.35 28.35 0 0 0 .75-4.18l3.38.47c-.44 1.3-.91 2.6-1.35 3.71h4v4.22a27 27 0 0 0 3.51-8.38l2.94.68a29.91 29.91 0 0 1 -1 3.3zm-15.55 2.92h-4.13v4.21h4.13zm0 12v-5.09h-4.13v5.09zm8.63-1.4a56.76 56.76 0 0 0 -3.61-6l2.42-1.37a62.7 62.7 0 0 1 3.82 5.77z"/><path d="m50 312.38c-3.14 7.72-10.61 10.79-19.52 12a12.84 12.84 0 0 0 -1.3-2.84 33.82 33.82 0 0 0 10.14-2.47 28.24 28.24 0 0 0 -3.83-2.73 30 30 0 0 1 -3.71 1.56 9.11 9.11 0 0 0 -1.9-2.39c5-1.51 8.53-3.74 10.61-6a34.65 34.65 0 0 1 -12.07 4.65 10.48 10.48 0 0 0 -1.42-2.64 34.69 34.69 0 0 0 8.76-2.58 30.23 30.23 0 0 0 -3.48-2.23 30.59 30.59 0 0 1 -3 1.35 10.74 10.74 0 0 0 -2.08-2.29c4.6-1.45 7.8-3.64 9.59-5.77l3.36.7c-.39.44-.81.89-1.25 1.33h5.2l.52-.13 2 1.14a18 18 0 0 1 -5.36 6l3.12.72a20 20 0 0 1 -1.61 1.72h4.65l.55-.13zm-14.17-7.8c-.31.23-.62.44-1 .67a22.33 22.33 0 0 1 3.59 2.26 16.15 16.15 0 0 0 3.58-2.93zm3.72 9.42c-.45.32-.89.6-1.38.89a22.82 22.82 0 0 1 3.9 2.65 12.61 12.61 0 0 0 3.59-3.54z"/><path d="m55.2 308c-.5.54-1 1.12-1.61 1.64a9 9 0 0 0 -1.72-2.34 18.53 18.53 0 0 0 4.94-7.21h2.47a28.27 28.27 0 0 1 5 4.92l-1.9 2.73a25.19 25.19 0 0 0 -3.82-4.53 26 26 0 0 1 -2.4 3.67h5.62v2.57h-6.58zm7.8 10.36c0 1.17-.16 1.95-.91 2.36a5.83 5.83 0 0 1 -3 .47 9.2 9.2 0 0 0 -.7-2.6 13.63 13.63 0 0 0 1.61 0c.24 0 .29-.08.29-.31v-4.45h-2.18v10.48h-2.76v-10.48h-2.15v-2.68h9.8zm6.16 2.47a19.75 19.75 0 0 1 -5.88 3.61 16.73 16.73 0 0 0 -2.08-2 15.91 15.91 0 0 0 5.44-3.22zm-1.25-15.42c.1-.57.18-1.15.26-1.72h-4.99v-2.6h13.18v2.6h-4.86c-.18.6-.36 1.17-.55 1.72h4.68v13.75h-11.57v-13.75zm4.81 2.29h-5.8v1.63h5.8zm0 3.74h-5.8v1.66h5.8zm0 3.8h-5.8v1.66h5.8zm0 4.13a34.88 34.88 0 0 1 4.42 3.33l-2.44 1.74a31.32 31.32 0 0 0 -4.26-3.54z"/><path d="m86.4 317.32c-2.29 1.35-4.81 2.78-6.94 3.92l-1.17-3.12c.72-.31 1.61-.73 2.57-1.17v-7.77h-2.34v-2.94h2.34v-5.82h2.89v5.82h2v3h-2v6.27l1.76-.88zm15.6-8.64a33.3 33.3 0 0 1 -3.45 9.05c.44 2.32 1 3.72 1.66 3.72.36 0 .57-1 .65-3.28a7 7 0 0 0 2.08 1.72c-.44 3.46-1.2 4.45-3.15 4.45-1.45 0-2.54-1.38-3.35-3.59a18.45 18.45 0 0 1 -3.64 3.43 13.68 13.68 0 0 0 -2.21-1.95 17.1 17.1 0 0 0 3.33-2.76c-2.76.73-5.67 1.51-7.91 2.08l-.72-2.88c2.26-.42 5.66-1.2 8.94-1.93l.23 2.06c.39-.47.76-.94 1.1-1.43a75.44 75.44 0 0 1 -1.1-10.92h-8.37v-2.81h8.29c0-1.2 0-2.37 0-3.56h2.94v3.56h2.68a23.21 23.21 0 0 0 -2.26-2.05l1.74-1.51a16.55 16.55 0 0 1 2.86 2.52l-1.12 1h1.15v2.81h-5c.11 2.36.26 4.57.5 6.55a32.15 32.15 0 0 0 1.43-4.86zm-8.5-.49v7.9h-6.66v-7.9zm-2.42 2.37h-2v3.17h2z"/><path d="m109.46 307.2v-1a25.18 25.18 0 0 1 -2.31 1.9h10.4v8.09h-8.4c-.05.34-.11.7-.18 1h9v7h-2.68v-.73h-4.4v.81h-2.6v-4.27a12.13 12.13 0 0 1 -2 3.8 9.61 9.61 0 0 0 -2-1.85c2.29-3 2.58-7.15 2.58-10.09v-3.53c-.29.18-.57.39-.86.57a8.65 8.65 0 0 0 -1.85-2.19 17.92 17.92 0 0 0 6.53-6.34h2.76a51.19 51.19 0 0 1 5.43 4.68l-2 2.29c-.36-.42-.83-.94-1.37-1.51v1.35zm5.3 6.84v-1h-5.35v1zm-5.33-3.77v.94h5.33v-.94zm5.31-5.15c-.76-.73-1.56-1.48-2.32-2.08a27.61 27.61 0 0 1 -1.82 2.08zm-3.88 14.33v1.84h4.4v-1.84zm11.14-1.59h-2.91v-14.64h2.91zm5.77-17.26v20.07c0 1.72-.33 2.57-1.37 3s-2.6.63-4.84.63a12.66 12.66 0 0 0 -1-3.15c1.56.05 3.06.05 3.56.05s.65-.15.65-.6v-20z"/><path d="m130.31 322.21a8.65 8.65 0 0 0 3.41-4.4l2.6.91a9.88 9.88 0 0 1 -3.59 5.12zm23.51-14.21h-22.49v-2.39h5.56a17.71 17.71 0 0 0 -.65-1.75h.13-3.77v-2.39h8.4v-1.38h3v1.38h8.4v2.39h-3.67l.39.08c-.39.67-.78 1.22-1.09 1.69h5.75zm-8.82 13.61c1 0 1.11-.29 1.24-2.14a8.11 8.11 0 0 0 2.63 1c-.34 2.89-1.17 3.62-3.59 3.62h-4.18c-3.28 0-4.09-.76-4.09-3.23v-2.73h2.81l-.31-.13 1.07-1h-6.5v-7.88h17.23v7.88h-8.45a16.6 16.6 0 0 1 2.71 1.59l-1.87 1.92a16.14 16.14 0 0 0 -3.67-2.23v2.6c0 .7.21.78 1.38.78zm-8-9.52h11.24v-1.09h-11.24zm0 3h11.24v-1.17h-11.24zm2.34-11.2a16.35 16.35 0 0 1 .63 1.69l-.34.08h5.77l-.36-.08c.23-.5.54-1.15.75-1.69zm11.16 13.65a19 19 0 0 1 4.24 4.71l-2.55 1.48a21.73 21.73 0 0 0 -4.08-4.87z"/><path d="m179.35 317.81a35.73 35.73 0 0 1 -4.29 2.39 17.41 17.41 0 0 0 5.64 1.74 10.46 10.46 0 0 0 -1.69 2.48c-5.41-1-8.66-3.49-10.61-7.62a19.49 19.49 0 0 1 -3.07 1.84v2.26c1.69-.2 3.46-.44 5.2-.67l.11 2.42c-3.67.52-7.54 1-10.4 1.45l-.44-2.52 2.57-.29v-1.45a29.3 29.3 0 0 1 -4.29 1.09 13.23 13.23 0 0 0 -1.64-2.24 29.4 29.4 0 0 0 8-2.18h-7.6v-2.44h10.16v-1.33h-1a7.78 7.78 0 0 0 -.76-1.79h1.41s.31-.08.31-.28v-1.07h-2.13v3.8h-2.63v-3.8h-1.95v3.22h-2.34v-5.09h4.29v-.91h-5.33v-2.08h1.59c-.52-.31-1.2-.7-1.61-.91a11.37 11.37 0 0 0 2-3.75l2.27.58c-.13.36-.26.7-.42 1.06h1.48v-1.66h2.63v1.66h4.31v2h-4.31v1h5v2.08h-5v.91h4.6v2.94c0 1-.18 1.45-.86 1.76a3.18 3.18 0 0 1 -1.22.26h2.76v1.36h10.14v2.44h-2.6zm-17.19-13.05v-1h-2.47a9.66 9.66 0 0 1 -.65 1zm11.47 5h-2.76v-8.66h2.76zm-2.5 6.73a9.69 9.69 0 0 0 1.85 2.24 31.72 31.72 0 0 0 3.69-2.24zm8.14-5.85c0 1.33-.26 2-1.2 2.37a10.92 10.92 0 0 1 -4 .41 9.6 9.6 0 0 0 -.91-2.44c1.17.05 2.41.05 2.78 0s.49-.1.49-.44v-10.28h2.81z"/><path d="m191.1 301.12a40.51 40.51 0 0 1 -2.5 5.41v17.81h-3.12v-13c-.54.65-1.09 1.3-1.61 1.87a20.8 20.8 0 0 0 -1.71-3.3 27.16 27.16 0 0 0 5.92-9.73zm8.24 6.13v2.75h6.74v2.81h-6.74v2.94h7.07v2.86h-7.07v5.77h-3.17v-17.13h-1a28.62 28.62 0 0 1 -3.4 5.05 21.43 21.43 0 0 0 -2.37-2.16 25.76 25.76 0 0 0 5.51-9.8l3 .75a31.32 31.32 0 0 1 -1.27 3.23h10.09v2.93z"/><path d="m218.14 321c0 1.43-.21 2.29-1.07 2.81a7 7 0 0 1 -3.61.57 10.61 10.61 0 0 0 -.83-3c.93.05 1.9 0 2.21 0s.44-.11.44-.47v-5.15h-2.73a27 27 0 0 1 -1.82 8.61 12.56 12.56 0 0 0 -2.5-1.43c1.62-3.54 1.72-8.74 1.72-12.53v-9.41h8.19zm-2.86-8.11v-3.15h-2.55v.71 2.44zm-2.55-9v3h2.55v-3zm19.61 6.68a24 24 0 0 1 -3.12 8.71 12.26 12.26 0 0 0 3.84 2.73 12.32 12.32 0 0 0 -1.92 2.42 16.37 16.37 0 0 1 -3.69-2.84 14.57 14.57 0 0 1 -3.41 2.79 9.81 9.81 0 0 0 -1.53-2.08v2.13h-2.94v-23.43h12v5c0 1.35-.29 2.08-1.38 2.5a13.94 13.94 0 0 1 -4.47.39 10.72 10.72 0 0 0 -.91-2.6c1.3.08 2.83.08 3.25.05s.55-.1.55-.42v-2.08h-6.06v6.16h7.45l.47-.11zm-9.83 11.39a12.13 12.13 0 0 0 3.17-2.65 26.57 26.57 0 0 1 -3-6.45h-.15zm2.78-9.1a20.35 20.35 0 0 0 2 4.05 18.08 18.08 0 0 0 1.69-4.05z"/><path d="m256.78 305.25a13.06 13.06 0 0 1 -2.6 3.8 20.6 20.6 0 0 0 4.78 1.53 12 12 0 0 0 -1.95 2.63 18.89 18.89 0 0 1 -5.3-2.24 20.89 20.89 0 0 1 -5.31 2.19 8.23 8.23 0 0 0 -.73-1.1 29.46 29.46 0 0 1 -1.27 4.35l-2.08-1a32.09 32.09 0 0 0 .83-3.58h-1.38v9.17c0 1.4-.2 2.23-1.11 2.7a7.63 7.63 0 0 1 -3.67.55 10.33 10.33 0 0 0 -.88-2.94h2.34s.41-.08.41-.39v-5.57a15.6 15.6 0 0 1 -3.25 4.81 17.23 17.23 0 0 0 -1.4-3 16.3 16.3 0 0 0 3.69-5.35h-3.25v-2.71h5.95a37.85 37.85 0 0 0 -5-2.52l1.95-2c.62.24 1.35.52 2.05.84a18.13 18.13 0 0 0 1.64-1.64h-6.24v-2.6h8.4l.46-.11 2 1.25a19.18 19.18 0 0 1 -3.8 4.29 13.33 13.33 0 0 1 1.9 1.15l-1.27 1.32h1.25l.41-.13 1.87.63-.1.59a15.8 15.8 0 0 0 3.17-1.19 14.68 14.68 0 0 1 -1.84-2.16 15.13 15.13 0 0 1 -1.17 1.12 21.28 21.28 0 0 0 -2.53-1.74 15.51 15.51 0 0 0 5-6.19l2.89.78a17.73 17.73 0 0 1 -1 1.82h7.67v2.57zm1.22 9.31s-.05.81-.11 1.17c-.41 4.5-.88 6.5-1.63 7.33a2.85 2.85 0 0 1 -1.9.91 18.58 18.58 0 0 1 -2.91 0 6.78 6.78 0 0 0 -.84-2.86 20.43 20.43 0 0 0 2.24.13 1.07 1.07 0 0 0 .83-.28c.37-.34.7-1.46 1-3.88h-3c-.88 3.1-2.73 5.62-6.83 7.23a8.74 8.74 0 0 0 -1.85-2.31c3.12-1.14 4.63-2.81 5.44-4.84h-3.15v-2.57h3.8c.13-.75.2-1.51.26-2.31h3.09c-.08.78-.16 1.56-.26 2.31zm-8.53-9.31a10 10 0 0 0 2.16 2.21 7.85 7.85 0 0 0 1.71-2.21z"/><path d="m268.76 319.86a4.2 4.2 0 1 1 -4.21-4.21 4.21 4.21 0 0 1 4.21 4.21zm-1.87 0a2.33 2.33 0 1 0 -2.34 2.32 2.33 2.33 0 0 0 2.34-2.32z"/><path d="m23.4 372.4a25.65 25.65 0 0 1 -4.32 5.7c.71 2 1.51 3.19 2.29 3.19.55 0 .86-1.24 1-4.31a8 8 0 0 0 2.55 1.77c-.5 4.55-1.46 5.69-3.82 5.69-1.9 0-3.36-1.56-4.48-4.11a26 26 0 0 1 -4.81 3.17 13.78 13.78 0 0 0 -2.06-2.5 26.78 26.78 0 0 0 5.8-3.67 48 48 0 0 1 -1.33-7h-5.28v3c1.33-.24 2.68-.5 4-.73l.23 2.81-4.24.86v4.44c0 1.69-.36 2.52-1.4 3a11.31 11.31 0 0 1 -4.68.6 12.35 12.35 0 0 0 -1.09-3.12c1.45.07 3 0 3.43 0s.62-.13.62-.54v-3.77c-1.66.33-3.27.67-4.65.93l-.75-3.12c1.48-.23 3.35-.52 5.4-.88v-3.49h-4.9v-2.93h4.91v-3c-1.4.24-2.83.42-4.16.57a11.9 11.9 0 0 0 -.88-2.6 65.29 65.29 0 0 0 10.32-2.18l2.08 2.63c-1.3.39-2.73.72-4.24 1v3.51h5c-.21-2.34-.29-4.76-.32-7.13h3.25a66.69 66.69 0 0 0 .26 7.13h7.08v2.93h-6.76c.2 1.56.46 3.07.75 4.4a21.65 21.65 0 0 0 2.47-3.54zm-1.9-5.72a20.75 20.75 0 0 0 -3.69-4.29l2.34-1.58a22.45 22.45 0 0 1 3.85 4.13z"/><path d="m42.61 371.36h-4.47v12.93h-2.86v-22.78c-.52 1.48-1.12 3-1.79 4.5v18.33h-2.94v-13a22.33 22.33 0 0 1 -1.61 2.13 22.6 22.6 0 0 0 -1.48-3.33 28.53 28.53 0 0 0 5.14-10l2.86.86-.15.5h7.3zm-4.47-7.56v1.48h2.13v-1.48zm2.13 5.2v-1.53h-2.13v1.53zm11.24 11.73c0 1.71-.37 2.55-1.41 3s-2.7.57-5.15.57a11 11 0 0 0 -1-3c1.58.1 3.38.08 3.9.05s.67-.15.67-.65v-9.36h-4.74v-9.9h7.73zm-5.28-16.93v1.48h2.31v-1.48zm2.31 5.2v-1.53h-2.31v1.53z"/><path d="m70.75 368.48a67.59 67.59 0 0 1 8.65 7l-2.62 2.37a60.24 60.24 0 0 0 -8-7.05v13.47h-3.34v-12.65a31 31 0 0 1 -8.27 6.4 18.07 18.07 0 0 0 -2.17-2.81 27.3 27.3 0 0 0 11.25-10.21h-10.38v-3.17h22.55v3.17h-8.09a24.46 24.46 0 0 1 -1.51 2.39v2.71z"/><path d="m89.8 361.09a40.44 40.44 0 0 1 -2.49 5.36v17.86h-2.94v-13.31a21.9 21.9 0 0 1 -1.77 2.08 18.92 18.92 0 0 0 -1.6-3.17 27.78 27.78 0 0 0 5.91-9.75zm16 20.62v2.29h-16.75v-2.24h6.84v-1.17h-5.28v-2.21h5.28v-1.07h-5.89v-2.31h5.93v-.91h-5.68v-5.7h5.64v-.88h-3.51v-3.15h-3v-2.21h3v-2.1h2.83v2.1h4.32v-2.1h3v2.1h3v2.21h-3v3.15h-3.6v.88h5.82v5.7h-5.82v.91h6v2.23h-6v1.07h5.43v2.21h-5.43v1.17zm-9.9-9.62v-1.66h-2.82v1.66zm-.68-6.55h4.32v-1.15h-4.33zm3.72 4.89v1.66h2.83v-1.66z"/><path d="m118.87 362.29c-.73 2.26-1.61 5.12-2.42 7.15a7.74 7.74 0 0 1 2 5.3c0 1.72-.37 2.81-1.2 3.38a3.29 3.29 0 0 1 -1.53.6 12.91 12.91 0 0 1 -1.8 0 6.67 6.67 0 0 0 -.7-2.75h1.22a1.36 1.36 0 0 0 .76-.23 1.79 1.79 0 0 0 .46-1.46 6.83 6.83 0 0 0 -1.92-4.57c.55-1.67 1.14-4 1.61-5.83h-2.29v20.41h-2.88v-23.09h6.13l.45-.13zm14 12.92a45.28 45.28 0 0 1 -3.51 3 9.9 9.9 0 0 0 4.08 3.41 11 11 0 0 0 -2 2.63c-3.82-2-5.85-5.91-7-11h-1.87v6.75c1.22-.21 2.5-.44 3.74-.68l.24 2.71c-3 .7-6.19 1.35-8.63 1.9l-1-3c.78-.11 1.69-.26 2.71-.42v-19.29h12.06v12.09h-4.52a18.36 18.36 0 0 0 1 2.76 21.67 21.67 0 0 0 2.34-2.58zm-10.28-11.31v2.1h6v-2.1zm0 6.76h6v-2.18h-6z"/><path d="m146.69 369.67s0 .86 0 1.22c-.13 8.22-.26 11.29-.94 12.25a2.47 2.47 0 0 1 -1.74 1.09 15.38 15.38 0 0 1 -2.78.11 7.54 7.54 0 0 0 -.81-2.81c.86.08 1.56.08 2 .08a.72.72 0 0 0 .75-.39c.34-.5.52-2.68.62-8.74h-2.13c-.31 4.94-1.19 9.15-3.64 12.06a8.84 8.84 0 0 0 -2.18-2.31c2.78-3.41 3-8.84 3-15.34h-2.52v-2.89h4.05v-3.9h3.07v3.9h4.14v2.86h-5.75c0 .94-.05 1.87-.08 2.78zm8.11-9.67c1.25 3.59 3.38 7.31 5.83 8.76a19.09 19.09 0 0 0 -1.51 3.15c-2.63-1.9-4.68-5.41-5.72-8.35-1 2.86-3 6.48-5.64 8.4a14.64 14.64 0 0 0 -1.41-3c2.53-1.8 4.55-5.83 5.44-9zm-4.75 16.51c3 1.3 6.94 3.43 8.81 5.15l-2.05 2.7a37.8 37.8 0 0 0 -8.61-5.46zm4.78-.62a19.51 19.51 0 0 0 -4.42-4l2-1.95a22.26 22.26 0 0 1 4.6 3.79z"/><path d="m172.93 378a34.44 34.44 0 0 1 -7.86 6.37 26.7 26.7 0 0 0 -2.6-2.21 24 24 0 0 0 7.1-5.49zm-4.42-2h-3.12v-14.3h18.35v14.17h-3.22v-.7h-12zm0-11.33v7.54h12v-7.54zm10 12a53.38 53.38 0 0 1 7.26 5.87l-2.84 1.9a55.78 55.78 0 0 0 -7-6.11z"/><path d="m212.45 364.39c-1 .84-2 1.67-3 2.34a16.75 16.75 0 0 0 3.62 1.36 12.56 12.56 0 0 0 -1.85 2.44 19.9 19.9 0 0 1 -2.94-1.22v2.39a1.63 1.63 0 0 0 .05.62.36.36 0 0 0 .29.11h.44a1 1 0 0 0 .34 0 .46.46 0 0 0 .26-.31 8 8 0 0 0 .1-1.2 6.91 6.91 0 0 0 2.24 1.08 5.62 5.62 0 0 1 -.39 1.66 1.58 1.58 0 0 1 -1 .73 4 4 0 0 1 -1.25.18h-1.36a2.49 2.49 0 0 1 -1.72-.57c-.44-.44-.6-.94-.6-2.39v-1.51h-2.34a6 6 0 0 1 -2.86 5.15 12 12 0 0 0 -1.61-1.72v1.15h-2.73v-.32h-2.65c-.11.58-.21 1.12-.34 1.67h5.85s0 .73 0 1.09c-.29 3.74-.6 5.46-1.3 6.16a2.79 2.79 0 0 1 -2.08.89 27.29 27.29 0 0 1 -3.46 0 6.05 6.05 0 0 0 -.88-2.6c1.3.11 2.6.13 3.14.13a1.37 1.37 0 0 0 1-.23c.33-.31.54-1.25.72-3.23h-3.35l-.16.63-2.47-.39a64.81 64.81 0 0 0 1.36-6.42h4.78v-1.76h-4.29v-.19c-.6.29-1.2.52-1.82.76a15.61 15.61 0 0 0 -1.66-2.26 17.51 17.51 0 0 0 4.34-2 24.54 24.54 0 0 0 -2.39-1.56l1.74-1.64a19.55 19.55 0 0 1 2.73 1.64 13.14 13.14 0 0 0 1.53-1.66h-5.12v-2.39h6.64l.52-.13 1.89.93a15 15 0 0 1 -4.86 6.14h3.33v5.23a3.78 3.78 0 0 0 1.9-3.51v-1.86h5.22a18.1 18.1 0 0 1 -5.44-7l2.47-.7a14 14 0 0 0 1.51 2.52 21 21 0 0 0 2.42-2.37l2.21 1.59c-1 .86-2.16 1.77-3.12 2.47a14.22 14.22 0 0 0 1.4 1.17 21.89 21.89 0 0 0 2.81-2.65zm-1.9 11.44a11.55 11.55 0 0 1 -3 4.89 17 17 0 0 0 4.55 1.15 11.31 11.31 0 0 0 -1.82 2.49 16.26 16.26 0 0 1 -5.12-1.9 18.08 18.08 0 0 1 -5.36 1.9 9.63 9.63 0 0 0 -1.3-2.23 17.84 17.84 0 0 0 4.5-1.33 11.6 11.6 0 0 1 -2.16-2.91l1.69-.47h-2.53v-2.05h8.37l.47-.08zm-7.28 1.59a7.73 7.73 0 0 0 1.92 2 7.7 7.7 0 0 0 1.82-2z"/><path d="m219.88 370.56a14.91 14.91 0 0 1 -2.94 3.77 11.14 11.14 0 0 0 -2-2.14 15.58 15.58 0 0 0 4.42-5.79h-3.77v-2.63h4.26v-3.67h2.94v3.67h3.67v2.63h-3.67v1a49.22 49.22 0 0 1 4.11 2.86l-1.61 2.47c-.6-.65-1.56-1.59-2.5-2.45v5.44h-2.94zm-4.73 11a17.89 17.89 0 0 0 2.26-5.36l2.76 1.09a25.4 25.4 0 0 1 -2.19 5.67zm14.85-.42c1.22 0 1.4-.36 1.56-3a7.26 7.26 0 0 0 2.78 1.09c-.39 3.72-1.25 4.63-4.11 4.63h-4.68c-3.54 0-4.42-.86-4.42-3.56v-3.56h3v3.51c0 .78.26.88 1.67.88zm-3-6.45.52.47v-13.78h10.56v14h-10.3c1 .93 2.13 2 2.76 2.75l-2.26 1.87a39.47 39.47 0 0 0 -3.43-3.61zm3.33-9.33h4.78v-1.51h-4.78zm0 3.8h4.78v-1.51h-4.78zm0 3.82h4.78v-1.56h-4.78zm6 2.88c1 1.62 2.55 3.83 3.25 5.18l-2.88 1.48c-.63-1.38-2.06-3.67-3.07-5.41z"/><path d="m247.26 367.2v-1a25.18 25.18 0 0 1 -2.31 1.9h10.4v8.09h-8.35c0 .34-.11.7-.18 1h9v7h-2.68v-.73h-4.4v.81h-2.6v-4.27a12.13 12.13 0 0 1 -2 3.8 9.61 9.61 0 0 0 -2-1.85c2.29-3 2.58-7.15 2.58-10.09v-3.53c-.29.18-.57.39-.86.57a8.65 8.65 0 0 0 -1.85-2.19 17.92 17.92 0 0 0 6.53-6.34h2.76a51.19 51.19 0 0 1 5.43 4.68l-2 2.29c-.36-.42-.83-.94-1.37-1.51v1.35zm5.3 6.84v-1h-5.35c0 .31 0 .65-.05 1zm-5.33-3.77v.94h5.33v-.94zm5.31-5.15c-.76-.73-1.56-1.48-2.32-2.08a27.61 27.61 0 0 1 -1.82 2.08zm-3.88 14.33v1.84h4.4v-1.84zm11.13-1.59h-2.91v-14.64h2.91zm5.77-17.26v20.07c0 1.72-.33 2.57-1.37 3s-2.6.63-4.84.63a12.66 12.66 0 0 0 -1-3.15c1.56.05 3.06.05 3.56.05s.65-.15.65-.6v-20z"/><path d="m269.15 382.21a8.65 8.65 0 0 0 3.41-4.4l2.6.91a9.88 9.88 0 0 1 -3.59 5.12zm23.51-14.21h-22.49v-2.39h5.56a17.71 17.71 0 0 0 -.65-1.75h.13-3.77v-2.39h8.37v-1.38h3.07v1.38h8.4v2.39h-3.67l.39.08c-.39.67-.78 1.22-1.09 1.69h5.75zm-8.84 13.6c1 0 1.11-.29 1.24-2.14a8.11 8.11 0 0 0 2.63 1c-.34 2.89-1.17 3.62-3.59 3.62h-4.18c-3.28 0-4.09-.76-4.09-3.23v-2.73h2.81l-.31-.13 1.07-1h-6.5v-7.88h17.23v7.89h-8.45a16.6 16.6 0 0 1 2.71 1.59l-1.87 1.92a16.14 16.14 0 0 0 -3.67-2.23v2.6c0 .7.21.78 1.38.78zm-8-9.52h11.24v-1.08h-11.23zm0 3h11.24v-1.17h-11.23zm2.34-11.2a16.35 16.35 0 0 1 .63 1.69l-.34.08h5.77l-.36-.08c.23-.5.55-1.15.75-1.69zm11.16 13.65a18.79 18.79 0 0 1 4.24 4.71l-2.56 1.45a21.73 21.73 0 0 0 -4.08-4.87z"/><path d="m299.62 383.58c2-.65 3.2-1.77 3.36-3.14a1.28 1.28 0 0 1 -.29 0 2.31 2.31 0 0 1 -2.47-2.31 2.36 2.36 0 0 1 2.55-2.34c1.85 0 2.81 1.38 2.81 3.56 0 3-1.9 5.36-5.12 6.32z"/><path d="m343.67 368.92a33 33 0 0 1 -4.42 9.23c.67 1.9 1.43 3 2.13 3s.83-1.33 1-4.6a8.37 8.37 0 0 0 2.65 1.82c-.47 4.86-1.51 6-3.95 6-1.66 0-3-1.28-4.08-3.38a24.88 24.88 0 0 1 -4.08 3.53 21.67 21.67 0 0 0 -2.42-2.36 22.32 22.32 0 0 0 2.34-1.64c-3.85.86-8 1.74-11.05 2.39l-.58-3.17c2.92-.49 7.42-1.35 11.58-2.21l.28 2.81a21.25 21.25 0 0 0 2.63-2.65 57.26 57.26 0 0 1 -1.82-10.77h-12.57v-3.07h12.4c0-1.27-.1-2.49-.1-3.74h3.3v3.74h4.16a19.2 19.2 0 0 0 -3.09-1.95l1.84-1.92a16.67 16.67 0 0 1 4 2.47l-1.3 1.4h1.92v3.07h-7.31a56.8 56.8 0 0 0 1 7.13 30.47 30.47 0 0 0 2.44-5.88zm-11.44-.34v8.19h-9.67v-8.19zm-3 2.6h-3.88v3h3.88z"/><path d="m371 381.06h-10.15v3.3h-3.17v-3.3h-9.88v-2.65h9.88v-1.35h-7.41v-9.75h18.44v9.75h-7.86v1.35h10.15zm-12.35-14.77h-9.28v-5.2h9.28zm-2.89-3.35h-3.64v1.51h3.64zm-2.44 8.14h4.39v-1.38h-4.39zm4.39 3.61v-1.4h-4.39v1.4zm11.86-8.4h-9.37v-5.2h9.34zm-4 3.41h-4.69v1.38h4.69zm0 3.59h-4.69v1.4h4.69zm1.11-10.35h-3.72v1.51h3.72z"/><path d="m377.81 375.73a24.28 24.28 0 0 1 -1.56 6.71 14.8 14.8 0 0 0 -2.37-1.12 19.05 19.05 0 0 0 1.38-6zm4.6-7.25a22 22 0 0 1 2.29 5.52l-2.19 1a11.87 11.87 0 0 0 -.34-1.33l-1.32.1v10.64h-2.68v-10.47l-3.77.23-.26-2.68 1.87-.08c.39-.49.81-1.06 1.22-1.66a25.48 25.48 0 0 0 -3.06-3.54l1.48-2.1.6.52a33.61 33.61 0 0 0 1.89-4.53l2.68 1c-.93 1.77-2 3.8-2.91 5.23.31.36.62.7.88 1a47.38 47.38 0 0 0 2.32-4.21l2.52 1.17c-1.43 2.26-3.22 4.88-4.86 7l2.49-.1c-.28-.65-.59-1.3-.91-1.88zm.67 6.6a29.06 29.06 0 0 1 1.62 4.68l-2.29.83a31 31 0 0 0 -1.51-4.83zm11.68 6.29a2.08 2.08 0 0 0 .67-.08.69.69 0 0 0 .4-.54 18.78 18.78 0 0 0 .15-2.16 8.24 8.24 0 0 0 2.65 1.38 9 9 0 0 1 -.49 2.73 1.9 1.9 0 0 1 -1.22 1.12 6.18 6.18 0 0 1 -1.85.26h-2.24a3.62 3.62 0 0 1 -2.18-.65c-.6-.47-.88-1-.88-3.33v-2.94h-1.95v1.4h-2.73v-11h2.73v6.81h1.95v-8.57c-1.75.21-3.49.36-5.13.47a10.19 10.19 0 0 0 -.8-2.45c2-.15 4-.39 5.93-.7v-3h2.91v2.5a26.87 26.87 0 0 0 3.17-.88l2.15 2.26a33.58 33.58 0 0 1 -5.36 1.33v9h1.95v-6.81h2.81v10.58h-2.81v-1h-1.95v3c0 .57.05 1 .21 1.09a1.2 1.2 0 0 0 .65.13z"/><path d="m407 374.69v6.06c0 1.43-.23 2.18-1 2.65a6.46 6.46 0 0 1 -3.59.6 10.23 10.23 0 0 0 -.8-2.84h2.15s.45-.1.45-.44v-5.2l-2.4.68-.7-3c.89-.18 1.93-.47 3.1-.76v-4.6h-2.81v-2.84h2.81v-4.91h2.79v4.91h2.6v2.86h-2.6v3.85l2.34-.62.42 2.78zm11.83 6.55c.6.05 1.17.08 1.83.08h5.22a9.21 9.21 0 0 0 -.83 2.71h-4.53c-3.4 0-6-.62-7.8-3.77a11.34 11.34 0 0 1 -2.73 4.08 15.39 15.39 0 0 0 -2.26-1.85c2.16-1.71 3.23-4.6 3.62-8.13l2.8.33a23.28 23.28 0 0 1 -.49 2.63 5.85 5.85 0 0 0 2.26 3v-6.78h-6.11v-2.5h15.37v2.5h-6.35v2.28h5v2.42h-5zm5.05-11.39h-12.79v-9h12.79zm-3-6.81h-7v1.3h7zm0 3.3h-7v1.33h7z"/><path d="m436.23 361a48.2 48.2 0 0 1 -2.47 5.41v17.89h-3v-13.15c-.55.71-1.1 1.33-1.64 1.93a19 19 0 0 0 -1.66-3.23 27.28 27.28 0 0 0 5.92-9.72zm6.06 17.21a24.11 24.11 0 0 1 -5.18 6 17.21 17.21 0 0 0 -2.41-2 16.33 16.33 0 0 0 4.7-5zm9.8-5v3h-16.88v-3h3.49v-5.18h-2.83v-3h2.83v-4.86h3v4.86h3.78v-4.89h3v4.89h3.38v3h-3.36v5.18zm-10.38 0h3.78v-5.18h-3.78zm5.83 4a32.41 32.41 0 0 1 4.46 5.49l-2.6 1.64a28.58 28.58 0 0 0 -4.29-5.62z"/><path d="m478.35 377.81a35.73 35.73 0 0 1 -4.29 2.39 17.41 17.41 0 0 0 5.64 1.74 10.77 10.77 0 0 0 -1.69 2.48c-5.41-1-8.66-3.49-10.61-7.62a19.49 19.49 0 0 1 -3.07 1.84v2.26c1.69-.2 3.46-.44 5.21-.67l.1 2.42c-3.67.52-7.54 1-10.4 1.45l-.44-2.52 2.57-.29v-1.45a29.3 29.3 0 0 1 -4.29 1.09 13.23 13.23 0 0 0 -1.64-2.24 29.4 29.4 0 0 0 8-2.18h-7.6v-2.44h10.16v-1.33h-1a7.78 7.78 0 0 0 -.76-1.79h1.41s.31-.08.31-.28v-1.07h-2.13v3.8h-2.63v-3.8h-2v3.22h-2.34v-5.09h4.29v-.91h-5.33v-2.08h1.59c-.52-.31-1.2-.7-1.61-.91a11.37 11.37 0 0 0 2-3.75l2.27.58c-.13.36-.26.7-.42 1.06h1.48v-1.66h2.63v1.66h4.31v2h-4.31v1h5v2.08h-5v.91h4.6v2.94c0 1-.18 1.45-.86 1.76a3.18 3.18 0 0 1 -1.22.26h2.76v1.36h10.14v2.44h-2.6zm-17.19-13.05v-1h-2.47a9.66 9.66 0 0 1 -.65 1zm11.47 5h-2.76v-8.66h2.76zm-2.5 6.73a9.69 9.69 0 0 0 1.85 2.24 31.72 31.72 0 0 0 3.69-2.24zm8.14-5.85c0 1.33-.26 2-1.19 2.37a11 11 0 0 1 -4 .41 9.6 9.6 0 0 0 -.91-2.44c1.17.05 2.41.05 2.78 0s.49-.1.49-.44v-10.28h2.81z"/><path d="m490.62 361.12a40.51 40.51 0 0 1 -2.5 5.41v17.81h-3.12v-13c-.54.65-1.09 1.3-1.61 1.87a20.8 20.8 0 0 0 -1.71-3.3 27.16 27.16 0 0 0 5.92-9.73zm8.24 6.13v2.75h6.74v2.81h-6.74v2.94h7.07v2.86h-7.07v5.77h-3.17v-17.13h-1a28.62 28.62 0 0 1 -3.4 5.05 21.43 21.43 0 0 0 -2.37-2.16 25.76 25.76 0 0 0 5.51-9.8l3 .75a31.32 31.32 0 0 1 -1.27 3.23h10.09v2.93z"/><path d="m512.3 383.58c2-.65 3.2-1.77 3.36-3.14a1.28 1.28 0 0 1 -.29 0 2.31 2.31 0 0 1 -2.47-2.31 2.36 2.36 0 0 1 2.55-2.34c1.85 0 2.81 1.38 2.81 3.56 0 3-1.9 5.36-5.12 6.32z"/><path d="m13.88 424.19q-.47 1.44-.93 2.73h10.27v14.17c0 1.45-.26 2.21-1.2 2.7a9.81 9.81 0 0 1 -4 .52 11 11 0 0 0 -1-2.81c1 .05 2.18 0 2.54 0s.47-.11.47-.47v-11.23h-3.03v13.76h-3.09v-13.76h-2.86v13.76h-3.05v-13.76h-2.8v14.56h-3.2v-17.44h7.57c.26-.89.47-1.82.65-2.73h-9.44v-3.19h23.58v3.15z"/><path d="m40.38 441c.67.05 1.38.08 2.08.08 1.45 0 6.45 0 8.29-.08a10.79 10.79 0 0 0 -1 3h-7.45c-4.76 0-8-.67-10.16-3.69a11.81 11.81 0 0 1 -3.64 4.14 12.45 12.45 0 0 0 -2.34-2.16c2.65-1.64 4.23-4.4 4.83-7.88l3.1.47c-.19.83-.39 1.61-.6 2.36a5.71 5.71 0 0 0 3.74 3.25v-6.6h-10.14v-2.73h22.91v2.73h-9.62v1.95h8v2.68h-8zm7.17-11h-18.07v-9h18.07zm-3.14-6.86h-11.91v1.33h11.91zm0 3.35h-11.91v1.36h11.91z"/><path d="m70.75 437.81a18.94 18.94 0 0 0 6.39 3.61 11.49 11.49 0 0 0 -2 2.5 19.19 19.19 0 0 1 -6.14-4.29v4.71h-3v-6.53h-2.33v6.53h-3v-4.45a18.86 18.86 0 0 1 -5.67 4.11 12.17 12.17 0 0 0 -2-2.34 17.87 17.87 0 0 0 6.06-3.82h-3.5v-2.34h5.15v-1.56h-7.36v-2.57h7.36v-1.43h-4.89v-2.32h4.89v-1.53h-6.94v-2.55h5.17a16.6 16.6 0 0 0 -2-2.24l2.83-1.3a14.45 14.45 0 0 1 2.84 3.12l-.89.42h6a23.54 23.54 0 0 0 2.51-3.54l3.32 1c-.7.88-1.4 1.69-2.1 2.44h4.94v2.55h-7.39v1.53h5.33v3.75h2.55v2.57h-2.55v3.9zm-7.08-10.22h2.33v-1.53h-2.33zm0 3.75h2.33v-1.43h-2.33zm2.33 4.13v-1.56h-2.33v1.56zm3-5.56v1.43h2.32v-1.43zm2.32 4h-2.32v1.56h2.32z"/><path d="m86.55 438.77 2.66 2.06a43.83 43.83 0 0 1 -8.38 3.51 24.36 24.36 0 0 0 -2.13-2.34 33.93 33.93 0 0 0 7.78-3.2h-7.48v-2.86h23.1v2.86zm12-4h-15.9v-13.77h15.92zm-3.2-11.37h-9.65v1.56h9.67zm0 3.72h-9.65v1.56h9.67zm0 3.75h-9.65v1.56h9.67zm-1.09 8.08a84.75 84.75 0 0 1 8.19 3.36l-3.12 2.1a51 51 0 0 0 -7.47-3.4z"/><path d="m116 420h8.6v2.81h-5.53v13.8h-3.07z"/><path d="m150 425.93s0 1 0 1.38c-.23 10.63-.44 14.4-1.27 15.6a3 3 0 0 1 -2.06 1.3 17.62 17.62 0 0 1 -3.22.1 7.19 7.19 0 0 0 -.91-3c1.14.1 2.13.13 2.63.13a.94.94 0 0 0 .83-.44c.55-.7.81-3.87 1-12.27h-2.34c-.34 7-1.53 12.33-5.9 15.78a10 10 0 0 0 -1.82-2.05c-3.74.39-7.49.78-10.3 1l-.36-2.6 5.28-.36v-1.5h-4.58v-2.2h4.58v-1h-4.56v-8h4.47v-1h-5.12v-2.3h5.12v-1c-1.51.1-3 .18-4.4.21a9.7 9.7 0 0 0 -.67-2.19 81.39 81.39 0 0 0 11.2-1.27l1.36 2.31c-1.38.29-3 .52-4.68.7v1.28h5v1.43h2.44c0-1.72 0-3.51 0-5.44h3c0 1.9 0 3.72-.05 5.44zm-20.49 4.91h2v-1.14h-2zm2 3v-1.17h-2v1.17zm2.81 6.45c1.48-.11 3-.24 4.52-.37 2-2.81 2.65-6.52 2.83-11.18h-2.36v-2h-5v1h4.6v8h-4.6v1h4.69v2.26h-4.7zm2-9.47v-1.12h-2v1.14zm-2 1.85v1.17h2v-1.17z"/><path d="m161.38 441.11c0 1.3-.18 2.19-.93 2.65a5.87 5.87 0 0 1 -3.25.55 11.21 11.21 0 0 0 -.78-2.86c.8.05 1.61.05 1.89.05s.34-.1.34-.44v-5.3h-2.13a30.13 30.13 0 0 1 -1.56 8.55 10.51 10.51 0 0 0 -2.37-1.33c1.38-3.58 1.49-8.81 1.49-12.58v-9.4h7.3zm-2.73-8.19v-3.22h-2v.7 2.52zm-2-9.15v3.12h2v-3.12zm8.29 6.66a27.35 27.35 0 0 0 -3.28-5.36 36.9 36.9 0 0 0 2.84-5l2.7.63c-.8 1.48-1.74 3-2.6 4.31a27.5 27.5 0 0 1 2.86 4.32zm6.29-.73c-.26.54-.54 1.06-.8 1.56h5.95v12.95h-2.86v-.86h-8.16v1h-2.76v-13.09h4.5a20.29 20.29 0 0 0 .52-2l1.56.21a30.35 30.35 0 0 0 -3-4.47 38.45 38.45 0 0 0 2.86-4.87l2.68.63c-.78 1.45-1.77 2.94-2.63 4.21a27.46 27.46 0 0 1 3 4.21l-1.17.5zm2.29 4.08h-2.63l2 1a17.77 17.77 0 0 1 -1.61 2.21 21.14 21.14 0 0 1 2 1.75l-1.72 1.74a17.24 17.24 0 0 0 -1.95-1.8 20.1 20.1 0 0 1 -2.68 2.14 11.44 11.44 0 0 0 -1.58-1.62v1.64h8.16zm-8.16 0v5.38a13.89 13.89 0 0 0 2.44-1.87c-.7-.49-1.43-1-2.08-1.4l1.61-1.54c.65.37 1.33.83 2 1.3a14.37 14.37 0 0 0 1.33-1.87zm9.15-3.43a28 28 0 0 0 -3.88-5.31 47.13 47.13 0 0 0 3.1-4.94l2.78.68a48.53 48.53 0 0 1 -2.73 4.21 30.75 30.75 0 0 1 3.28 4.14z"/><path d="m184 430.56a14.91 14.91 0 0 1 -2.94 3.77 11.14 11.14 0 0 0 -2-2.14 15.58 15.58 0 0 0 4.42-5.79h-3.77v-2.63h4.29v-3.67h2.94v3.67h3.67v2.63h-3.67v1a49.22 49.22 0 0 1 4.11 2.86l-1.61 2.47c-.6-.65-1.56-1.59-2.5-2.45v5.44h-2.94zm-4.73 11a17.64 17.64 0 0 0 2.26-5.36l2.76 1.09a25.4 25.4 0 0 1 -2.19 5.67zm14.85-.42c1.22 0 1.4-.36 1.56-3a7.26 7.26 0 0 0 2.78 1.09c-.39 3.72-1.25 4.63-4.11 4.63h-4.68c-3.54 0-4.42-.86-4.42-3.56v-3.56h3v3.51c0 .78.26.88 1.67.88zm-3-6.45.52.47v-13.78h10.56v14h-10.3c1 .93 2.13 2 2.76 2.75l-2.26 1.87a39.47 39.47 0 0 0 -3.43-3.61zm3.33-9.33h4.78v-1.51h-4.78zm0 3.8h4.78v-1.51h-4.78zm0 3.82h4.78v-1.56h-4.78zm6 2.88c1 1.62 2.55 3.83 3.25 5.18l-2.88 1.48c-.63-1.38-2.06-3.67-3.07-5.41z"/><path d="m213.38 431.1c1 1 3.38 3.77 4 4.47l-1.76 2.58c-.5-.89-1.33-2.19-2.19-3.41v9.6h-3.12v-9.26a23 23 0 0 1 -3.64 6.21 13.36 13.36 0 0 0 -1.56-2.91 23.31 23.31 0 0 0 4.45-7.72h-3.88v-2.86h4.63v-3.38c-1.27.21-2.52.39-3.72.55a10.35 10.35 0 0 0 -.83-2.42 46.26 46.26 0 0 0 9.54-2.24l2 2.42a32.2 32.2 0 0 1 -3.88 1.09v4h3.77v2.86h-3.77zm14.85-8.58v20.41h-3.23v-1.87h-4.16v2.05h-3v-20.59zm-3.23 15.58v-12.61h-4.16v12.61z"/><path d="m255 425.93s0 1 0 1.38c-.23 10.63-.44 14.4-1.27 15.6a3 3 0 0 1 -2.06 1.3 17.62 17.62 0 0 1 -3.22.1 7.19 7.19 0 0 0 -.91-3c1.14.1 2.13.13 2.63.13a.94.94 0 0 0 .83-.44c.55-.7.81-3.87 1-12.27h-2.34c-.34 7-1.53 12.33-5.9 15.78a10 10 0 0 0 -1.82-2.05c-3.74.39-7.49.78-10.3 1l-.36-2.6 5.28-.36v-1.5h-4.56v-2.2h4.58v-1h-4.47v-8h4.47v-1h-5.12v-2.3h5.12v-1c-1.51.1-3 .18-4.4.21a9.7 9.7 0 0 0 -.67-2.19 81.39 81.39 0 0 0 11.2-1.27l1.36 2.31c-1.38.29-3 .52-4.68.7v1.28h5v1.43h2.44c0-1.72 0-3.51 0-5.44h3c0 1.9 0 3.72-.05 5.44zm-20.49 4.91h2v-1.14h-2zm2 3v-1.17h-2v1.17zm2.81 6.45c1.48-.11 3-.24 4.52-.37 2-2.81 2.65-6.52 2.83-11.18h-2.36v-2h-5v1h4.69v8h-4.6v1h4.7v2.26h-4.7zm2-9.47v-1.12h-2v1.14zm-2 1.85v1.17h2v-1.17z"/><path d="m281.32 436.41h-10.27v4.23c0 1.85-.47 2.66-1.69 3.15a17.52 17.52 0 0 1 -5.77.52 11.78 11.78 0 0 0 -1.28-3.07c1.93.08 4.11.08 4.68.08s.84-.21.84-.73v-4.18h-10.27v-3h10.27v-3h-8.51v-3h8.51v-3c-2.71.24-5.44.39-8 .5a9.69 9.69 0 0 0 -.78-2.73c6.27-.26 13.4-1 17.66-2.08l2.29 2.5a61.53 61.53 0 0 1 -7.91 1.38v3.4h8.74v3h-8.74v3h10.27z"/><path d="m290.78 421a52.5 52.5 0 0 1 -2.08 5.25v18.1h-2.83v-13a26.23 26.23 0 0 1 -1.59 2.13 20.82 20.82 0 0 0 -1.5-3.36 28.16 28.16 0 0 0 5.14-10zm15.55 6.47a32.33 32.33 0 0 1 -2.33 10.26 11.17 11.17 0 0 0 3.69 4.08 12.76 12.76 0 0 0 -1.84 2.45 12.89 12.89 0 0 1 -3.38-3.82 14.34 14.34 0 0 1 -3.9 3.82 16.74 16.74 0 0 0 -1.85-2.08 11.14 11.14 0 0 0 1-.7h-5v1.84h-2.66v-11.52h2.6v-4.23h-3v-2.79h3v-4.36h2.92v4.36h2.7v2.79h-2.7v4.23h2c-.23-.33-.47-.65-.62-.85 1.79-2.58 2.78-6.66 3.33-10.85l2.75.47c-.23 1.43-.49 2.91-.8 4.29h5.3v2.6zm-10.87 7h-2.67v4.45h2.67zm2.71 6.73a12.2 12.2 0 0 0 3-3.51 30.1 30.1 0 0 1 -1.53-5.51 11.26 11.26 0 0 1 -.91 1.43 10.37 10.37 0 0 0 -.52-.91zm3.38-13.7-.24.76a36.47 36.47 0 0 0 1.23 6 35.65 35.65 0 0 0 1.19-6.79z"/><path d="m320.37 444.49h-8.63v-2.81h5.54v-13.8h3.09z"/><path d="m355.27 424.08s0 1 0 1.41c-.34 11.62-.62 15.75-1.69 17.13a3.48 3.48 0 0 1 -2.5 1.43 29.46 29.46 0 0 1 -4.08.05 7.26 7.26 0 0 0 -1-3c1.66.15 3.2.15 3.87.15a1.39 1.39 0 0 0 1.15-.44c.75-.83 1.09-4.73 1.37-13.91h-5.56a22.52 22.52 0 0 1 -2.33 4.1 20.22 20.22 0 0 0 -2-1.46v12.14h-6.94v1.9h-2.81v-19.32h2.94a28.35 28.35 0 0 0 .75-4.18l3.38.47c-.44 1.3-.91 2.6-1.35 3.71h4v4.22a27 27 0 0 0 3.53-8.38l2.94.68a29.91 29.91 0 0 1 -1 3.3zm-15.58 2.92h-4.13v4.21h4.13zm0 12v-5.09h-4.13v5.09zm8.63-1.4a56.76 56.76 0 0 0 -3.61-6l2.42-1.37a62.7 62.7 0 0 1 3.82 5.77z"/><path d="m365.14 421a50.09 50.09 0 0 1 -2 5.05v18.33h-2.94v-13a20.78 20.78 0 0 1 -1.61 2.13 22.6 22.6 0 0 0 -1.48-3.33 28.86 28.86 0 0 0 5.14-10zm14.86 17.1a10.18 10.18 0 0 1 -3.51 3.17 40.28 40.28 0 0 0 5.72.67 11.85 11.85 0 0 0 -1.61 2.48 30.13 30.13 0 0 1 -7.6-1.62 39.37 39.37 0 0 1 -7.41 1.67 9 9 0 0 0 -1.48-2.24 46.59 46.59 0 0 0 5.85-.94 11.18 11.18 0 0 1 -1.79-1.4c-.73.36-1.54.7-2.4 1a7.57 7.57 0 0 0 -1.69-1.87 16 16 0 0 0 6.06-3c-.54-.31-.73-.86-.75-1.77a11.62 11.62 0 0 1 -2.5 2.55l-1.82-1.46a6.79 6.79 0 0 0 1.35-1h-1.92v-3.72h2.36v-6.42h4.29c.08-.29.13-.6.21-.91h-5.95v-2.21h15.93v2.21h-6.78l-.42.91h5.57v6.42h2.18v3.72h-1.64a9.4 9.4 0 0 1 1 1.32l-2 1.07a12.92 12.92 0 0 0 -1.67-2.11c-.23 1.33-.83 1.75-2.31 1.75h-2.18a7.92 7.92 0 0 1 -.78.75h5.27l.53-.1zm-8.16-5.26v1.3c0 .55.15.63.85.63h2.31c.52 0 .65-.16.76-.89a6.21 6.21 0 0 0 1.69.55c-.24-.23-.5-.49-.73-.7l1.9-1c.18.15.36.31.54.49v-.83h-4.5a6.63 6.63 0 0 1 1 1l-1.87 1.09a9.93 9.93 0 0 0 -2.16-2.13h-4.47v1.25a9.22 9.22 0 0 0 .65-.81l1.64.88v-.91zm-2.21-7.09v.78h7.2v-.78zm7.2 2h-7.2v.84h7.2zm-7.2 2.89h7.2v-.81h-7.2zm1 8.24a10.52 10.52 0 0 0 2.58 1.41 11.49 11.49 0 0 0 2.63-1.41z"/><path d="m406.75 422.86c-.06 5.41-.11 9.91.59 9.91.29 0 .37-1.28.39-3a14.18 14.18 0 0 0 1.67 1.76c-.21 2.63-.65 3.9-2.29 3.9-2.68 0-3-4.31-3.09-10.11h-1.77a28 28 0 0 1 -.44 3.09 14.56 14.56 0 0 1 2.39 1.72l-1.33 2.21a13.4 13.4 0 0 0 -1.82-1.46 8.65 8.65 0 0 1 -3.22 4 6.9 6.9 0 0 0 -1.49-1.79v1.25c-4 .28-8.21.54-11.17.75l-.16-2.16 4.5-.21v-1.22h-3.51v-1.82h3.49v-1.14h2.51c-.39-.31-.5-.86-.5-1.74v-.71h-1.32c-.55 1.8-2 2.92-4.16 3.54a8.24 8.24 0 0 0 -1.15-1.79c1.48-.29 2.6-.78 3-1.75h-2.7v-1.95h4.34v-.93h-3.51v-1.82h3.54v-1.3h2.8v1.3h3.62v1.82h-3.62v.93h4.53v1.95h-3.07v.71c0 .49 0 .52.29.52h.62c.29 0 .36-.13.44-.89a6.6 6.6 0 0 0 1.8.63c-.16 1.4-.71 1.84-1.9 1.84h-1.35a3.74 3.74 0 0 1 -1.36-.18v1h3.66v1.82h-3.65v1.07l4-.24v.47a7.12 7.12 0 0 0 2.48-3.25c-.71-.41-1.44-.75-2.11-1.06l1.25-2c.46.18 1 .41 1.48.65.08-.58.15-1.2.21-1.85h-2.32v-2.47h2.45c0-.88.05-1.79.05-2.78h2.63c0 1 0 1.9-.08 2.78zm0 13.36s0 .81-.13 1.2c-.36 3.54-.81 5.28-1.56 6a3.33 3.33 0 0 1 -2.29.89c-.8.07-2.21.07-3.71 0a6.15 6.15 0 0 0 -.89-2.79c1.33.13 2.71.16 3.28.16a1.45 1.45 0 0 0 1-.26c.36-.29.62-1.14.88-2.89h-6c-1.17 3.07-3.85 4.92-10.74 5.86a8.65 8.65 0 0 0 -1.4-2.53c5.3-.57 7.64-1.61 8.76-3.33h-7.15v-2.34h8.09c.08-.41.15-.83.21-1.3h3.12c-.05.45-.11.89-.18 1.3z"/><path d="m414 443.58c2-.65 3.2-1.77 3.36-3.14a1.28 1.28 0 0 1 -.29 0 2.31 2.31 0 0 1 -2.47-2.31 2.36 2.36 0 0 1 2.55-2.34c1.85 0 2.81 1.38 2.81 3.56 0 3-1.9 5.36-5.12 6.32z"/><path d="m22 495.39a35.73 35.73 0 0 0 -3.35-3 11 11 0 0 1 -1.75 2.23 15.09 15.09 0 0 0 -2-1.32 22.77 22.77 0 0 0 9.93 7.25 14 14 0 0 0 -2.29 2.84 25 25 0 0 1 -8.42-6.58v7.56h-3.3v-7.37a25.29 25.29 0 0 1 -8.35 6.43 18.91 18.91 0 0 0 -2.18-2.66 23.07 23.07 0 0 0 10.53-8.37v-6h-9.47v-3h9.47v-3.2h3.25v3.2h9.8v3h-9.8v5.83l.39.6a11.65 11.65 0 0 0 3.27-6.27l3 .55a24.31 24.31 0 0 1 -.86 2.78c1.48 1.14 3.28 2.52 4.24 3.4zm-13.42-8.32a24.37 24.37 0 0 1 -.94 2.81c.94.81 1.93 1.66 2.53 2.29l-2.08 2.16a18.66 18.66 0 0 0 -1.75-1.82 13.8 13.8 0 0 1 -3 3.56 17.84 17.84 0 0 0 -2.34-2.07 12.55 12.55 0 0 0 4.6-7.54z"/><path d="m32 487.2v-1a25.18 25.18 0 0 1 -2.31 1.9h10.4v8.09h-8.4c-.05.34-.11.7-.18 1h9v7h-2.73v-.73h-4.4v.81h-2.6v-4.27a12.13 12.13 0 0 1 -2 3.8 9.61 9.61 0 0 0 -2-1.85c2.29-3 2.58-7.15 2.58-10.09v-3.53c-.29.18-.57.39-.86.57a8.65 8.65 0 0 0 -1.85-2.19 17.92 17.92 0 0 0 6.53-6.34h2.76a51.19 51.19 0 0 1 5.43 4.68l-2 2.29c-.36-.42-.83-.94-1.37-1.51v1.35zm5.3 6.84v-1h-5.37c0 .31 0 .65-.05 1zm-5.3-3.77v.94h5.33v-.94zm5.31-5.15c-.76-.73-1.56-1.48-2.32-2.08a27.61 27.61 0 0 1 -1.82 2.08zm-3.88 14.33v1.84h4.4v-1.84zm11.13-1.59h-2.96v-14.64h2.91zm5.77-17.26v20.07c0 1.72-.33 2.57-1.37 3s-2.6.63-4.84.63a12.66 12.66 0 0 0 -1-3.15c1.56.05 3.06.05 3.56.05s.65-.15.65-.6v-20z"/><path d="m59.28 498.33c1.07 1.74 3 2.44 5.72 2.55 3 .13 8.89.05 12.35-.21a15.77 15.77 0 0 0 -1 3.12c-3.12.16-8.35.21-11.44.08s-5.33-.86-7-2.89c-1.15 1-2.29 2-3.72 3.12l-1.51-3.22a34.1 34.1 0 0 0 3.56-2.39v-5.49h-3v-2.83h6zm-1.79-11.67a19.75 19.75 0 0 0 -4.19-4.11l2.29-1.87a20.69 20.69 0 0 1 4.34 3.92zm4.51 1.17a19.87 19.87 0 0 0 -2.58-1.46 14.1 14.1 0 0 0 3.69-6.06l2.89.69a17.09 17.09 0 0 1 -.81 2h1.82v-2.9h3.07v2.9h5.67v2.63h-5.63v2.21h6.74v2.57h-16.72v-2.57zm1.76-2.21a15.34 15.34 0 0 1 -1.71 2.21h5v-2.21zm-1.54 13.78v-7.57h13.08v7.57zm3-2.47h6.84v-2.66h-6.83z"/><path d="m101.5 493.34v11h-3.22v-1.49h-14.4v1.51h-3.15v-11h3.15v6.47h5.43v-7.83h-7.54v-9.44h3.07v6.42h4.47v-8.6h3.17v8.6h4.73v-6.42h3.25v9.44h-8v7.85h5.8v-6.47z"/><path d="m113.49 486.81h-8.58v-2.44h8.58zm-.68 16.19h-4.52v1h-2.39v-8.87h6.91zm-6.81-15h6.89v2.37h-6.89zm0 3.56h6.89v2.32h-6.89zm6.81-8.32h-6.66v-2.34h6.66zm-4.5 14.33v3h2v-3zm20.59 1.82a16.79 16.79 0 0 1 -2.68 1.43 9.77 9.77 0 0 0 3.25 1.46 8.07 8.07 0 0 0 -1.58 2.16 9.64 9.64 0 0 1 -5.12-3.59l.15 2c-2.68.47-5.48 1-7.67 1.32l-.73-2.31 2.08-.29v-1.37c-.75.31-1.5.57-2.26.81a16.22 16.22 0 0 0 -1.4-1.93 22.84 22.84 0 0 0 4.08-1.3h-3.59v-2.1h3.69v-.86h-2.52v-1.82h2.52v-.83h-2.86v-1.87h2.86v-1.15h-2.49v-4.55h6.21v4.55h-1v1.15h2.76v-1.15h-.81v-4.55h6.3v4.55h-2.71v1.15h3.2v1.84h-3.2v.86h2.89v1.85h-2.89v.86h3.56v2.1h-5.25a7.6 7.6 0 0 0 1.07 1.64c.88-.49 1.9-1.12 2.57-1.56zm-.08-15.47h-15.12v-2.21h5.85v-1.61h3.14v1.61h6.11zm-10.32 3.67v-1.36h-1.66v1.36zm.73 13.57 3.38-.5a12.54 12.54 0 0 1 -1.43-2.86h-.42a10.17 10.17 0 0 1 -1.53 1.1zm.62-8.17h2.76v-.83h-2.76zm0 2.71h2.76v-.86h-2.76zm4.16-8.11h1.75v-1.36h-1.76z"/><path d="m144.59 501h9.62v2.78h-22.13v-2.78h9.28v-3.1h-7.2v-2.7h7.2v-3h-5.87v-2.06c-.94.65-1.9 1.25-2.89 1.8a11.46 11.46 0 0 0 -1.95-2.5 28.37 28.37 0 0 0 10.56-9.44h3.19a27.52 27.52 0 0 0 11.13 9.1 15.21 15.21 0 0 0 -2.05 2.78 33 33 0 0 1 -2.81-1.74v2h-6.08v3h7.28v2.7h-7.28zm5.07-11.52a31.26 31.26 0 0 1 -6.66-6.48 29.87 29.87 0 0 1 -6.5 6.45z"/><path d="m174.12 497.32v-1h-3.48v1.06h-3.12v-8h-3.52v10.42h16.23v3h-16.23v1.64h-3.2v-15.13h-3.69v-3h3.69v-5.46h3.2v5.46h3.54v-6h3.12v6h3.48v-5.77h3.12v5.77h3.85v3h-3.85v8zm0-3.93v-4.08h-3.48v4.08z"/><path d="m200.15 492a18.36 18.36 0 0 0 7.12 3.51 14.18 14.18 0 0 0 -2.05 2.65 19.35 19.35 0 0 1 -4.4-2.1v8.22h-3.22v-9.16h2a15.47 15.47 0 0 1 -3-3.12h-2.68a17.61 17.61 0 0 1 -3.12 3.1h2.21v1.79c0 2.47-.75 5.75-5.93 7.64a11.17 11.17 0 0 0 -2.13-2.49c4.34-1.43 4.86-3.62 4.86-5.28v-.94a20.73 20.73 0 0 1 -4.73 2.42 14.2 14.2 0 0 0 -2-2.55 19.3 19.3 0 0 0 7-3.69h-4.13v-11h18.54v11zm-11.21-6.68h4.55v-1.87h-4.55zm0 4.19h4.55v-1.88h-4.55zm12.22-6.06h-4.55v1.87h4.55zm0 4.18h-4.55v1.88h4.55z"/><path d="m231.19 484a9 9 0 0 1 -2.18 3 17.76 17.76 0 0 0 4.42 1.43 9.55 9.55 0 0 0 -1.72 2.24 17.34 17.34 0 0 1 -4.91-2 21.19 21.19 0 0 1 -4.34 1.77 11.77 11.77 0 0 0 -1.51-2.13 3.07 3.07 0 0 1 -.55 1.53 1.84 1.84 0 0 1 -1.35.68 17.66 17.66 0 0 1 -2.11 0 4.92 4.92 0 0 0 -.15-.85h-5.7v-2.86c-.26.2-.54.41-.85.62a7 7 0 0 0 -1.62-1.64 7.07 7.07 0 0 0 2.86-2.65l.58.1v-.44h-2.66v-1.8h2.66v-.93h2.49v.93h2.24v-.93h2.49v.93h2.63v1.77h-2.63v.78h-2.49v-.78h-2.24v.78h-.8l-.21.37h7.38a10.19 10.19 0 0 0 3.25-3.85l2.63.67a11.93 11.93 0 0 1 -.6 1.1h6.58v2.16zm1 14s-.05.65-.1 1c-.32 2.73-.65 4.08-1.23 4.63a2.48 2.48 0 0 1 -1.58.73 16.7 16.7 0 0 1 -2.58 0 5.39 5.39 0 0 0 -.36-1.67l-1 .42a11.77 11.77 0 0 0 -1.49-2.39l2.06-.76a10.62 10.62 0 0 1 1.58 2.24h-.07.33a.83.83 0 0 0 .68-.21 4.61 4.61 0 0 0 .65-2.19h-13.7v.08h-2.91l1.87.81a8.37 8.37 0 0 1 -3 3.69l-2.37-1.59a7.45 7.45 0 0 0 2.89-3.2l.59.26v-9.23h17.55v1.82h-7.28v.84h6.53v1.53h-6.53v.81h6.55v1.53h-6.55v.85zm-15-9.36h.45a.6.6 0 0 0 .57-.23c.21-.24.34-1 .44-2.89h-6.21q-.28.32-.6.63h5.35zm-2.1-1.17h-1.95v.86h1.95zm.26 5v.84h4.39v-.84zm4.39 2.37h-4.39v.81h4.39zm-4.38 3.16h4.39v-.83h-4.39zm2.47 2.45a16 16 0 0 1 .75 3.19l-2.6.47a19.48 19.48 0 0 0 -.62-3.3zm4.18-.11a14.85 14.85 0 0 1 1.15 2.84l-2.42.65a16.3 16.3 0 0 0 -1-3zm2.68-13.28a13 13 0 0 1 -1.48-1.59 10.57 10.57 0 0 1 -.86.7 14.66 14.66 0 0 0 -1.09-1c-.08 1.38-.18 2.37-.29 3.12a16.89 16.89 0 0 0 3.72-1.24zm.37-3.05a8.4 8.4 0 0 0 1.79 1.72 6.56 6.56 0 0 0 1.48-1.72z"/><path d="m259.35 501.09v2.52h-12.58v-1.22c-4.22.49-8.61 1-11.7 1.3l-.34-2.45c1-.08 2.21-.18 3.51-.31a12 12 0 0 0 -.68-2.21l1.41-.36h-2.42v-4.74h10.24v4.74h-2l1 .23c-.34.62-.6 1.2-.83 1.69l2.39-.26v1.07h.84v-6.66h10.27v6.66zm-11.35-8.32h-12.88v-2.21h12.88zm-.21-3.1h-12v-8.76h1.79v6.81h.94v-.91h-.62v-1.09h.62v-.81h-.52v-1.09h.55v-.82h-.55v-1.1h.6v-1.09h1.14v1.09h.71v1.1h-.71v.83h.63v1.09h-.63v.81h.71v1.09h-.71v.91h1.12v-7.64h1.77v7.64h1.09v-.91h-.62v-1.09h.62v-.81h-.54v-1.09h.54v-.83h-.62v-1.1h.62v-1.09h1.22v1.09h.76v1.1h-.76v.83h.65v1.09h-.65v.81h.76v1.09h-.76v.91h1.06v-6.73h1.82zm-7.79 8.69a9.17 9.17 0 0 1 .67 2l-1.71.5c1.3-.13 2.73-.29 4.18-.42l-.7-.18c.18-.55.44-1.3.62-1.92zm-.89-1.77h5.07v-1.17h-5.07zm9-5.46c.55 0 1.17-.05 1.85-.11.28-.88.6-1.95.8-2.91h-2.52v-2.34h3.76v-1.61h-3.2v-2.24h3.2v-1.82h2.78v1.82h3.46v2.24h-3.44v1.61h4.08v2.34h-5.3c-.34.94-.73 1.9-1.07 2.76l2.76-.16c-.26-.41-.52-.83-.78-1.19l2.05-1.07a22.46 22.46 0 0 1 2.71 4.63l-2.25 1.19a10.11 10.11 0 0 0 -.6-1.4l-8.09.73zm2.19 10h.93v-4.33h-.93zm2.47-4.29v4.29h1v-4.33zm2.49 0v4.29h1v-4.33z"/><path d="m284.78 500.28v3h-23.38v-3h3.9v-18.82h16v18.82zm-16.41-15.83v3.27h9.7v-3.27zm9.7 6.13h-9.7v3.33h9.7zm-9.7 9.7h9.7v-3.38h-9.7z"/><path d="m302.2 493.1c-.78.5-1.61.94-2.42 1.38h8.63v9.83h-3.07v-.65h-9.9v.7h-3.1v-6.68c-1.35.49-2.75.91-4.13 1.3a18.53 18.53 0 0 0 -1.56-2.65 49.86 49.86 0 0 0 9.78-3.23h-8.9v-2.65h8.35v-1.45h-6.21v-2.52h6.21v-.7h-2.88v-1.54h-5.44v-2.7h5.44v-1.44h3v1.41h6v-1.41h3v1.41h5.59v2.7h-5.59v1.54h-3v-1.54h-6v.79h3v1.43h5.74v1.43a18.4 18.4 0 0 0 2.45-2.55l2.55 1.46a33.31 33.31 0 0 1 -3.75 3.66h4.79v2.65zm3.14 3.72h-9.9v1.25h9.9zm0 4.5v-1.32h-9.9v1.33zm-6.34-10.87h2.36c.73-.47 1.41-1 2.08-1.48h-4.44z"/><path d="m319.28 498.33c1.07 1.74 3 2.44 5.72 2.55 3 .13 8.89.05 12.35-.21a15.77 15.77 0 0 0 -1 3.12c-3.12.16-8.35.21-11.44.08s-5.33-.86-7-2.89c-1.15 1-2.29 2-3.69 3.12l-1.51-3.22a37.29 37.29 0 0 0 3.53-2.39v-5.49h-3v-2.83h6zm-1.79-11.67a19.75 19.75 0 0 0 -4.19-4.11l2.29-1.87a20.69 20.69 0 0 1 4.34 3.92zm9.25 6.65a19.67 19.67 0 0 1 -5.07 5.67 12.61 12.61 0 0 0 -2.13-2.44 17.27 17.27 0 0 0 5.8-6h-5.2v-2.81h6.6v-7.33h3.07v7.33h6.81v2.81h-5.35a16.79 16.79 0 0 0 5.87 5.83 12.46 12.46 0 0 0 -2.14 2.53 18.75 18.75 0 0 1 -5.2-5.95v7.12h-3.07zm-3.9-6.21a18.55 18.55 0 0 0 -2-4.92l2.63-1a19.89 19.89 0 0 1 2.21 4.81zm13.6-5c-1 1.76-2.08 3.69-2.94 5l-2.42-1a28.57 28.57 0 0 0 2.32-5.1z"/><path d="m362.54 484.08s0 1 0 1.41c-.34 11.62-.63 15.75-1.69 17.13a3.48 3.48 0 0 1 -2.5 1.43 29.49 29.49 0 0 1 -4.08.05 7.26 7.26 0 0 0 -1-3c1.66.15 3.19.15 3.87.15a1.36 1.36 0 0 0 1.14-.44c.76-.83 1.1-4.73 1.38-13.91h-5.56a22.52 22.52 0 0 1 -2.29 4.11 20.22 20.22 0 0 0 -2-1.46v12.14h-6.94v1.9h-2.87v-19.33h3a28.35 28.35 0 0 0 .75-4.18l3.38.47c-.44 1.3-.91 2.6-1.35 3.71h4v4.22a27 27 0 0 0 3.51-8.38l2.94.68a29.91 29.91 0 0 1 -1 3.3zm-15.54 2.92h-4.13v4.21h4.13zm0 12v-5.09h-4.13v5.09zm8.63-1.4a56.76 56.76 0 0 0 -3.61-6l2.42-1.37a62.7 62.7 0 0 1 3.82 5.77z"/><path d="m374.92 492.32v9.44c0 1.12-.16 1.77-.86 2.16a5.28 5.28 0 0 1 -2.78.44 10.68 10.68 0 0 0 -.7-2.34h1.43s.28-.11.28-.31v-1.8h-2.78v4.42h-2.6v-12h-1.53v-4.05h1.48v-7.39h8.14v7.39h1.56v2.94h12.44v2.05h-12.4v-.94zm-.65-1.95h-6.68v1h6.68zm-5.2-2.1h.93v-4.14h2.73v-1.06h-3.64zm3.22 5.22h-2.78v1.15h2.78zm0 4.37v-1.19h-2.78v1.19zm.42-9.59v-2.39h-1.09v2.39zm16.54 13.6v2.18h-13.25v-2.18h3.33a10.29 10.29 0 0 0 -1-2.14l1.58-.57h-2.49v-5.07h10.68v5.07h-2.44l1.56.37c-.47.83-.94 1.63-1.35 2.34zm-.78-11.55h-11.37v-8.06h2.9v-2.16h2.16v2.16h1.12v-2.16h2.18v2.16h3zm-9.1-5h1.11v-1.12h-1.11zm0 3h1.11v-1.12h-1.11zm.59 9h5.54v-1.43h-5.5zm.65 1.82a10 10 0 0 1 1.17 2.71h1.77a20.4 20.4 0 0 0 1-2.71zm2.66-13.83v-1.12h-1.12v1.12zm-1.12 1.87v1.15h1.12v-1.13zm3.92-3h-1.14v1.12h1.14zm0 3h-1.14v1.15h1.14z"/><path d="m391.14 502.13c.86-1.38 1.1-3.59 1.17-5.83l1.69.31c-.13 2.4-.33 4.81-1.3 6.32zm22.16-5.57a16.77 16.77 0 0 1 -.5 2.76 27.81 27.81 0 0 1 3 3.53l-1.94 1.51a30.77 30.77 0 0 0 -2-2.65 8 8 0 0 1 -2.37 2.71 10.76 10.76 0 0 0 -1.66-1.64l-.73.78a16.53 16.53 0 0 0 -1.59-2 7.8 7.8 0 0 1 -2.44 2.91 10.81 10.81 0 0 0 -1.82-1.74 2.3 2.3 0 0 1 -.34.75 2 2 0 0 1 -1.48.89 13.86 13.86 0 0 1 -2.21.1 6.21 6.21 0 0 0 -.6-2.31 12.15 12.15 0 0 0 1.54.08.67.67 0 0 0 .64-.32 6 6 0 0 0 .39-2.36l-.7.26a15.18 15.18 0 0 0 -1.09-3.36l1.14-.36a15.41 15.41 0 0 1 .73 1.74c.05-.75.08-1.64.11-2.65h-6.92v-14.19h9.07v2.42h-2.7v1.58h2.24v2.27h-2.24v1.58h2.31v2.26h-2.31v1.67h3s0 .65 0 1c-.13 5-.23 7.59-.54 8.84 2-1.3 2.81-3.44 3-6.22l2.55.16a17.81 17.81 0 0 1 -.44 2.55 24.07 24.07 0 0 1 2.31 2.6 8.56 8.56 0 0 0 2-5.33zm-17.76.13a28.69 28.69 0 0 1 .23 4.79l-1.4.15a27.87 27.87 0 0 0 -.13-4.78zm-.65-13.26v1.57h1.61v-1.61zm1.61 3.88h-1.61v1.58h1.61zm-1.61 5.51h1.61v-1.67h-1.61zm2.21 3.61a22.72 22.72 0 0 1 .75 4.21l-1.3.24a18.72 18.72 0 0 0 -.73-4.21zm8.11-9.62a14.9 14.9 0 0 1 -2.65 1.93 9.42 9.42 0 0 0 -1.38-2.58 15.13 15.13 0 0 0 5.88-6.06h2.75a15.64 15.64 0 0 0 6.24 5.83 20.79 20.79 0 0 0 -1.56 2.73 19.08 19.08 0 0 1 -2.44-1.74v1.58h-6.84zm-2.63 2.84h5.59v6.35h-5.59zm2 4.39h1.46v-2.47h-1.46zm6.71-7.8a17.57 17.57 0 0 1 -2.81-3.41 15.27 15.27 0 0 1 -2.68 3.41zm-2.21 3.41h5.8v6.35h-5.8zm2 4.39h1.64v-2.47h-1.64z"/><path d="m425.8 499.86a4.2 4.2 0 1 1 -4.21-4.21 4.21 4.21 0 0 1 4.21 4.21zm-1.87 0a2.33 2.33 0 1 0 -2.34 2.32 2.33 2.33 0 0 0 2.34-2.32z"/></svg>