<svg xmlns="http://www.w3.org/2000/svg" viewBox="0 0 519.26 770"><title>statement-zh-sp</title><g id="Layer_2" data-name="Layer 2"><g id="レイヤー_1" data-name="レイヤー 1"><path d="M1.89,3.51h6.3c4.25,0,7.52,1.54,7.52,6.26,0,4.56-3.29,6.62-7.41,6.62H5.73v7.09H1.89ZM8,13.23c2.64,0,3.91-1.16,3.91-3.46s-1.4-3.1-4-3.1H5.73v6.56Z"/><path d="M27.66,18.36H21.44l-1.35,5.12H16.2l6.14-20h4.51l6.17,20H29Zm-.83-3.11-.57-2.18c-.6-2.08-1.12-4.38-1.69-6.54h-.1C24,8.72,23.41,11,22.84,13.07l-.57,2.18Z"/><path d="M45.72,23.48l-3.94-7.55H39.11v7.55H35.28v-20H42c4,0,7.2,1.46,7.2,6.05a5.73,5.73,0,0,1-3.65,5.75L50,23.48ZM39.11,12.77H41.6c2.46,0,3.81-1.08,3.81-3.21S44.06,6.67,41.6,6.67H39.11Z"/><path d="M56.76,6.83H51.37V3.51H66.05V6.83H60.6V23.48H56.76Z"/><path d="M73.43,16.17,67.68,3.51h4.07l1.92,4.86c.54,1.48,1.06,2.89,1.65,4.43h.11c.59-1.54,1.16-3,1.71-4.43l1.92-4.86h4L77.27,16.17v7.31H73.43Z"/><path d="M88.39,14A26.61,26.61,0,0,1,92.25,0l2.38,1.05A27,27,0,0,0,91.47,14a26.87,26.87,0,0,0,3.16,12.92l-2.38,1.06A26.65,26.65,0,0,1,88.39,14Z"/><path d="M98.86,3.51h3.91l5.58,10.64,1.91,4.31h.13c-.2-2.07-.49-4.72-.49-7v-8h3.63v20h-3.89L104.09,12.8l-1.94-4.3H102c.18,2.16.47,4.67.47,7v8H98.86Z"/><path d="M117.05,16c0-4.91,3.3-8,6.77-8,4,0,6.07,3,6.07,7.24a7.24,7.24,0,0,1-.19,1.8h-8.94c.31,2.49,1.87,3.78,4,3.78a5.82,5.82,0,0,0,3.26-1l1.3,2.43a8.94,8.94,0,0,1-5.08,1.67C120.22,23.86,117.05,20.92,117.05,16Zm9.57-1.53c0-2.06-.88-3.35-2.75-3.35-1.53,0-2.88,1.13-3.16,3.35Z"/><path d="M131.67,8.37h3.81l1.58,7.48c.29,1.45.47,2.91.73,4.4h.1c.29-1.49.55-3,.91-4.4l1.74-7.48h3.39l1.82,7.48c.34,1.45.59,2.91.91,4.4h.13c.25-1.49.44-2.95.72-4.4l1.58-7.48h3.53L149,23.48h-4.48L143,16.9c-.31-1.43-.55-2.81-.83-4.4h-.13c-.29,1.59-.49,3-.81,4.4l-1.47,6.58h-4.36Z"/><path d="M163.79,16.17,158,3.51h4.07L164,8.37c.55,1.48,1.06,2.89,1.66,4.43h.1c.6-1.54,1.17-3,1.71-4.43l1.92-4.86h4l-5.79,12.66v7.31h-3.83Z"/><path d="M173.35,16c0-5,3.35-8,7-8s7,2.92,7,8-3.34,7.91-7,7.91S173.35,21,173.35,16Zm10.06,0c0-2.86-1.11-4.72-3.08-4.72s-3.09,1.86-3.09,4.72,1.12,4.67,3.09,4.67S183.41,18.79,183.41,16Z"/><path d="M190.48,8.37h3.12l.25,2.67H194c1.06-2,2.62-3,4.12-3a4.12,4.12,0,0,1,1.71.32l-.67,3.43a4.51,4.51,0,0,0-1.51-.24c-1.14,0-2.51.78-3.34,3v9h-3.79Z"/><path d="M201.79,1.94h3.7v13h.11l5-6.53h4.14l-5,6.18,5.5,8.93h-4.12l-3.53-6.26-2.1,2.49v3.77h-3.7Z"/><path d="M238.49,23.86a15.25,15.25,0,0,1-4.77-2.1,9.06,9.06,0,0,1-5.88,2.1c-4,0-6.28-2.56-6.28-5.67,0-2.78,1.69-4.4,3.61-5.66A9.73,9.73,0,0,1,224,8.21a4.88,4.88,0,0,1,5-5.08,4.13,4.13,0,0,1,4.46,4.35c0,2.64-2.08,4.29-4.13,5.77a24.38,24.38,0,0,0,4.15,4.16,15.33,15.33,0,0,0,2.36-5.07h3.45A22.33,22.33,0,0,1,236,19.19a11.36,11.36,0,0,0,3.39,1.43ZM228.3,20.81a5,5,0,0,0,2.8-1,27.62,27.62,0,0,1-4.33-4.67A3.89,3.89,0,0,0,225.19,18,2.85,2.85,0,0,0,228.3,20.81Zm-.49-9.93c1.5-1,2.67-1.92,2.67-3.37,0-1-.44-1.73-1.45-1.73s-1.92.94-1.92,2.43A6.48,6.48,0,0,0,227.81,10.88Z"/><path d="M249.92,6.83h-5.39V3.51H259.2V6.83h-5.44V23.48h-3.84Z"/><path d="M259.72,19.38c0-3.24,2.51-4.94,8.34-5.59-.05-1.48-.67-2.61-2.46-2.61a8,8,0,0,0-4,1.43L260.24,10a11.24,11.24,0,0,1,6.06-2c3.68,0,5.58,2.3,5.58,6.67v8.82h-3.12l-.28-1.61h-.08a6.7,6.7,0,0,1-4.38,2A4.21,4.21,0,0,1,259.72,19.38Zm8.34-.11V16.22c-3.52.49-4.71,1.49-4.71,2.84,0,1.19.8,1.7,1.91,1.7A3.77,3.77,0,0,0,268.06,19.27Z"/><path d="M275.4,3.78a2.27,2.27,0,0,1,4.53,0,2.27,2.27,0,0,1-4.53,0Zm.36,4.59h3.79V23.48h-3.79Z"/><path d="M284.68,8.37h3.11l.26,1.56h.1A6.76,6.76,0,0,1,292.43,8c3.58,0,5.7,3,5.7,7.69,0,5.19-3,8.18-6.17,8.18a5.28,5.28,0,0,1-3.6-1.64l.1,2.48v4.59h-3.78Zm9.54,7.37c0-2.89-.88-4.48-2.88-4.48a4,4,0,0,0-2.88,1.56v6.64a4,4,0,0,0,2.65,1.14C292.87,20.6,294.22,19,294.22,15.74Z"/><path d="M300.46,16c0-4.91,3.29-8,6.77-8,4,0,6.06,3,6.06,7.24a7.32,7.32,0,0,1-.18,1.8h-8.94c.31,2.49,1.87,3.78,4,3.78a5.82,5.82,0,0,0,3.26-1l1.3,2.43a9,9,0,0,1-5.08,1.67C303.62,23.86,300.46,20.92,300.46,16ZM310,14.42c0-2.06-.88-3.35-2.75-3.35-1.53,0-2.88,1.13-3.16,3.35Z"/><path d="M316.07,3.78a2.27,2.27,0,0,1,4.53,0,2.27,2.27,0,0,1-4.53,0Zm.36,4.59h3.78V23.48h-3.78Z"/><path d="M326.72,26.88A26.87,26.87,0,0,0,329.88,14a27,27,0,0,0-3.16-12.91l2.36-1A26.44,26.44,0,0,1,333,14a26.48,26.48,0,0,1-3.88,14Z"/><path d="M352.74,22.35c.68.06,1.38.08,2.08.08,1.45,0,6.43,0,8.27-.08a11.17,11.17,0,0,0-1,3.08h-7.39c-4.74,0-8-.7-10.14-3.83a11.93,11.93,0,0,1-3.63,4.29,12.43,12.43,0,0,0-2.33-2.24c2.65-1.7,4.23-4.57,4.82-8.18l3.09.48c-.18.87-.39,1.68-.6,2.46a5.79,5.79,0,0,0,3.74,3.37V14.93H339.5V12.09h22.86v2.84h-9.62v2h8v2.78h-8Zm7.16-11.44h-18V1.54h18Zm-3.14-7.13H344.89V5.16h11.87Zm0,3.48H344.89V8.67h11.87Z"/><path d="M386.91,16.49a.31.31,0,0,0,.28-.13,1.77,1.77,0,0,0,.16-.84c0-.51.07-1.59.07-3a7,7,0,0,0,1.9,1.08,23.22,23.22,0,0,1-.29,3.64,2.42,2.42,0,0,1-.72,1.38,2.21,2.21,0,0,1-1.38.4h-1.14a2.33,2.33,0,0,1-1.68-.65c-.39-.48-.57-1.05-.57-3v-2l-1,2.13a19.38,19.38,0,0,0-1.5-1.46,11.25,11.25,0,0,1-3.35,5.51,8.12,8.12,0,0,0-1.09-1.4v0c-4,.43-8.22.86-11.25,1.16l-.18-2.62,4.54-.32V14.79h-3.81V12.55h3.81V11.1h2.56c-.54-.33-.67-1-.67-2.19V7.8h-1.3C370,10,369,11.37,366,12.09a5.52,5.52,0,0,0-1.22-1.89c2.18-.4,2.88-1.13,3.11-2.4h-2.59V5.59h4.36V4.27h-3.45V2.11h3.45V.65h2.72V2.11h3.45V4.27h-3.45V5.59h4.17V7.8h-2.85V8.91c0,.48.05.54.34.54h.59c.32,0,.39-.14.44-1.24a5.49,5.49,0,0,0,1.85.75c-.19,1.95-.76,2.41-2,2.41h-1.3a3.33,3.33,0,0,1-1.27-.19v1.37h3.52v2.24h-3.52v1.43l4.15-.37v.83a10.06,10.06,0,0,0,2.15-4.42c-.7-.52-1.43-1-2.08-1.43l1.25-2.38q.61.36,1.32.81c.08-.76.13-1.54.16-2.35h-2.18V4.08h2.25c0-1.11.06-2.24.06-3.46h2.77c0,1.19,0,2.35-.05,3.46h4.12V15.31a4.49,4.49,0,0,0,.05,1,.22.22,0,0,0,.24.13Zm-22,8.13a13.32,13.32,0,0,0,3-4.72l3,.8a15.36,15.36,0,0,1-3.06,5.13Zm10.4-4.1a30.07,30.07,0,0,1,.59,4.67l-3.06.4a33.41,33.41,0,0,0-.41-4.78Zm5.18-.22a26.48,26.48,0,0,1,1.4,4.64l-3.08.62a25,25,0,0,0-1.22-4.77Zm1.61-13.39a36.64,36.64,0,0,1-.39,4.05,23.06,23.06,0,0,1,1.87,1.54V6.91Zm3.63,12.88a38.68,38.68,0,0,1,3.16,5l-3.16,1.05a32.65,32.65,0,0,0-3-5.13Z"/><path d="M410.18,17.68a13.32,13.32,0,0,1-4.09,4.13,43.21,43.21,0,0,0,8.5,1.19,13.09,13.09,0,0,0-1.76,2.86,34.77,34.77,0,0,1-10.14-2.29,39.43,39.43,0,0,1-10,2.32,13.35,13.35,0,0,0-1.58-2.65,41.38,41.38,0,0,0,8.42-1.37A15.39,15.39,0,0,1,397.22,20a30.56,30.56,0,0,1-3.45,1.7,20.37,20.37,0,0,0-2.12-2.14A19,19,0,0,0,399.5,15c-1.14-.33-1.45-1.14-1.45-2.68V10.5h2.83v1.86c0,.62.18.68,1,.68h2.72c.65,0,.83-.16.91-1.27a8.14,8.14,0,0,0,2.36.84c-.28,2.08-1,2.64-2.93,2.64h-2.38l.15.06a14,14,0,0,1-1,1.18h6l.51-.08ZM394.6,11.77h-2.93V6.86h4.46a14.87,14.87,0,0,0-1.32-2.32l.28-.14c-.7,0-1.4.06-2.1.06a8.67,8.67,0,0,0-.59-2.33C398.78,2,406.29,1.49,410.54.6l2,2.13c-1,.21-2.12.4-3.32.59l2.34.76c-.65,1-1.32,1.94-1.95,2.78h4.18v5.29h-2.49A11.8,11.8,0,0,1,413,14.09l-2.21,1.73a20,20,0,0,0-4-4.32L408.91,10c.6.46,1.25,1,1.87,1.59V9.31h-7a10.3,10.3,0,0,1,1.76,1.19l-1.56,1.78A15.42,15.42,0,0,0,400.25,10l.57-.65H394.6Zm-2.2,2.51a8.37,8.37,0,0,0,3.29-3.81l2.31,1a10,10,0,0,1-3.48,4.59Zm9.31-7.42a12.55,12.55,0,0,0-1.2-2.7l-2.64.16A7.93,7.93,0,0,1,399,6.51l-.77.35ZM399.5,18.71a13.48,13.48,0,0,0,3.24,2,13.15,13.15,0,0,0,3-2Zm7.13-11.85a28.48,28.48,0,0,0,1.79-3.43c-1.58.22-3.27.38-5,.54a9.47,9.47,0,0,1,1,2.35l-1.37.54Z"/><path d="M440.22,6.7s0,1,0,1.43c-.24,11-.44,14.95-1.27,16.19a2.89,2.89,0,0,1-2.05,1.35,16.57,16.57,0,0,1-3.21.11,7.87,7.87,0,0,0-.91-3.08c1.14.11,2.12.14,2.62.14a1,1,0,0,0,.88-.46c.54-.73.8-4,1-12.74h-2.34c-.33,7.23-1.53,12.79-5.88,16.38a10.12,10.12,0,0,0-1.82-2.13c-3.73.4-7.46.81-10.26,1.05l-.37-2.7c1.46-.1,3.27-.24,5.27-.37V20.25h-4.57V18h4.57V16.93h-4.46V8.58h4.46v-1h-5.11V5.21h5.11V4.13c-1.51.11-3,.19-4.38.22a10.37,10.37,0,0,0-.68-2.27A79.21,79.21,0,0,0,427.94.76l1.34,2.4c-1.37.3-3,.54-4.66.73V5.21h5V6.7H432c0-1.79,0-3.65,0-5.65H435c0,2,0,3.86-.05,5.65Zm-20.43,5.1h2V10.61h-2Zm2,3.13V13.71h-2v1.22Zm2.8,6.69c1.47-.11,3-.24,4.51-.38,2-2.91,2.64-6.77,2.82-11.6h-2.36V7.53h-5v1h4.59v8.35h-4.59V18h4.69v2.27h-4.69Zm2-9.82V10.61h-2V11.8Zm-2,1.91v1.22h2V13.71Z"/><path d="M466.46,17.57H456.21V22c0,1.92-.46,2.76-1.68,3.27s-3.11.57-5.76.54a12.5,12.5,0,0,0-1.27-3.19c1.92.09,4.1.09,4.67.09s.83-.22.83-.76V17.57H442.76V14.44H453V11.28h-8.48V8.21H453V5.05c-2.7.24-5.42.4-8,.51a11.25,11.25,0,0,0-.78-2.83c6.25-.27,13.35-1,17.61-2.16l2.23,2.67a58.86,58.86,0,0,1-7.89,1.43V8.21h8.72v3.07h-8.72v3.16h10.25Z"/><path d="M478.56,14.9c-1.12.33-2.23.65-3.35.95v6.26c0,1.59-.31,2.4-1.19,2.89s-2.13.59-4,.59a11.44,11.44,0,0,0-.91-3c1,.05,2.13.05,2.46.05s.5-.13.5-.54V16.74l-2.78.73-.85-3.19c1-.22,2.3-.51,3.63-.86V8.77h-3.35v-3h3.35V.65h3.13v5.1h2.93v3h-2.93v3.86l3-.78Zm14-9h-4.12V21.62c0,1.89-.41,2.84-1.61,3.4s-2.9.65-5.31.65a12.63,12.63,0,0,0-1.22-3.51c1.61.11,3.55.08,4.07.08s.73-.16.73-.67V5.89h-6.56V2.67h14Z"/><path d="M500.67,19.57c1.06,1.81,3,2.54,5.7,2.65,3,.13,8.87.05,12.31-.22a18.29,18.29,0,0,0-1,3.24c-3.11.16-8.32.22-11.4.08s-5.32-.89-7-3c-1.14,1.06-2.28,2.11-3.71,3.24l-1.5-3.34a35,35,0,0,0,3.55-2.49V14h-3V11.1h6ZM498.88,7.45a20.15,20.15,0,0,0-4.18-4.26L497,1.24a21.08,21.08,0,0,1,4.33,4.08Zm4.53,1.22a19.39,19.39,0,0,0-2.56-1.52A14.69,14.69,0,0,0,504.53.86l2.88.71c-.24.7-.5,1.4-.81,2.08h1.82v-3h3.06v3h5.65V6.37h-5.65v2.3h6.71v2.67H501.52V8.67Zm1.77-2.3a16.76,16.76,0,0,1-1.71,2.3h4.95V6.37ZM503.6,20.68V12.82h13v7.86Zm3-2.57h6.82V15.36H506.6Z"/><path d="M24.29,75.85H21.08v8.58c0,1.62-.39,2.43-1.58,2.92a15.2,15.2,0,0,1-5.06.48,12.75,12.75,0,0,0-1.09-2.89H6.12v1.68H3.19V77.47H14.34v7.42c1.27,0,2.49,0,2.85,0,.52-.06.67-.16.67-.57v-8.5H.8V73H3.08a10.52,10.52,0,0,0-1.27-2.27c4.59-.51,6.77-1.43,7.91-3H2.1V64.92h8.58a19.17,19.17,0,0,0,.23-2.32H14.1c0,.83-.13,1.59-.23,2.32h9V67.7H14.1c3,1,6.35,2.34,8.51,3.29l-2,2h3.71ZM19.83,73c-2-1-5.1-2.22-7.85-3.22C10.63,71.31,8.45,72.34,4.74,73Zm-8.42,7H6.12v2.51h5.29Z"/><path d="M47.62,73.2v2.43h2.62v3H47.62v5.64c0,1.62-.26,2.49-1.3,3a11.24,11.24,0,0,1-4.46.54,12.08,12.08,0,0,0-.93-3.19c1.3.06,2.7.06,3.11.06s.55-.11.55-.46V78.6H39.17a21.28,21.28,0,0,1,3.11,4l-2.46,1.65a22.06,22.06,0,0,0-3-4.24l2.23-1.43H36V77.17c-.75.24-1.53.51-2.28.76v9.9H30.85v-9L27,80l-.73-3.08c1.27-.3,2.88-.73,4.62-1.22v-5H29.11a23,23,0,0,1-1,3.42A16.51,16.51,0,0,0,26,72.72,33.9,33.9,0,0,0,27.45,64l2.57.43q-.16,1.62-.39,3.24h1.22V62.65h2.82V67.7h2.15v2.53h5.71V67.94H36.94V65h4.59v-2.4h3.06V65h4.77v2.92H44.59v2.29h5.88v3Zm-3,0H35.38V70.75H33.67v4.13l2.39-.71.2,1.46h8.33Z"/><path d="M76.29,81.87H69.24c2.54,1.27,5.34,2.75,7,3.8l-3,2.19a66.51,66.51,0,0,0-7.13-4.24L68,81.87H60.19l2.28,1.73A46.21,46.21,0,0,1,55,87.83a25.37,25.37,0,0,0-2.38-2.21,32.14,32.14,0,0,0,6.79-3.75h-6.9v-3h2.41L54.46,64.4l1.73.49a23.17,23.17,0,0,0,3.06-2l2,2V63h2.62v2.37h4V68h-4V69.8h3.87v9.07h3.21c0-.67.08-1.43.13-2.18H68.59V74h2.56c0-.76.06-1.51.08-2.29H68.61V69.1h2.67c0-.73,0-1.43,0-2.13h-3V64.19h5.86c0,4.72-.13,10.63-.36,14.68h2.49Zm-18.64-3h3.52V73.23h2.44v5.64h1.48V72.31H61.22V65.38c-1.24.62-2.64,1.26-3.91,1.78l0,1.94h2.93v2.65H57.44L57.49,74h2.8v2.65H57.57Z"/><path d="M93.5,81.52c1.78,2,4.74,3,9.12,3.37a12.69,12.69,0,0,0-1.84,3c-5.34-.65-8.48-2.4-10.5-5.94-1.37,2.89-4.25,4.81-10.65,5.89a9.67,9.67,0,0,0-1.53-2.89c4.92-.68,7.36-1.76,8.66-3.4h-8.2V78.71H88c.1-.51.18-1,.26-1.65H78.72V74.2h9.9V72.83H81v-2.7h7.67V68.75H79.76V65.92h4.48a10.92,10.92,0,0,0-1.35-2.25l2.72-1.1a10.43,10.43,0,0,1,1.92,3.08l-.59.27h6.43l-.73-.22a17.87,17.87,0,0,0,1.76-3.16l3.32.86c-.62.95-1.24,1.81-1.76,2.52h4.79v2.83h-9v1.38h7.94v2.7H91.78V74.2h10v2.86H91.47c0,.57-.13,1.11-.23,1.65h10.84v2.81Z"/><path d="M114.41,68.21a39.68,39.68,0,0,1-2.18,11.93A18,18,0,0,1,115,83l-1.84,2.59a21.45,21.45,0,0,0-2.3-2.57,14.81,14.81,0,0,1-4.72,4.94,11.26,11.26,0,0,0-1.84-2.53A10.9,10.9,0,0,0,108.55,81c-.46-.4-.93-.76-1.4-1.11l-.2.84-2.52-1.38c.57-2.21,1.22-5.23,1.84-8.36h-2V68h2.57c.33-1.86.64-3.69.88-5.34l2.9.27c-.26,1.59-.57,3.32-.91,5.07H112l.52-.08Zm-5.31,2.73c-.39,2-.83,4-1.25,5.91.63.43,1.27.86,1.92,1.35a32.2,32.2,0,0,0,1.56-7.26Zm19.21,5.39H122.6v7.91c0,1.62-.28,2.49-1.29,3a9.73,9.73,0,0,1-4.33.6,14.24,14.24,0,0,0-1.12-3.16c1.33,0,2.7.08,3.11,0s.58-.11.58-.48V76.33h-5.47v-3h5.47V70.18h1A23.33,23.33,0,0,0,123,66.94h-8.06V64h10.14l.62-.19,2,1.6a40.58,40.58,0,0,1-5.11,6.39v1.54h5.71Z"/><path d="M154.07,80.33h-2.69V85h-3.14V83.92h-4.67v.84c0,1.59-.36,2.24-1.37,2.7a13.35,13.35,0,0,1-4.59.45,9.84,9.84,0,0,0-1-2.53c1.24.05,2.77.05,3.19.05s.65-.19.65-.67v-.84h-7.89V81.6h7.89V80.33H130.17V77.87h10.27V76.71h-7.68V74.55h7.68V73.37h-7V68h7V66.91h-9.67V64.38h9.67V62.62h3.13v1.76h9.91v2.53h-9.91V68h7.37v5.35h-7.37v1.18h7.81v3.32h2.69Zm-13.63-9V70h-4.07v1.3Zm3.13-1.3v1.3h4.2V70Zm0,7.83h4.67V76.71h-4.67Zm4.67,2.46h-4.67V81.6h4.67Z"/><path d="M166.07,77.36c-.93.27-1.84.59-2.8.89v9.61h-2.82V79.14c-1.41.43-2.7.87-3.89,1.19l-.76-3c1.3-.3,2.88-.73,4.65-1.24V70.88h-1.74a26.6,26.6,0,0,1-1,3.46,22,22,0,0,0-2.18-1.49,34.47,34.47,0,0,0,1.48-8.69l2.57.46c-.11,1.08-.24,2.13-.39,3.21h1.22V62.65h2.82v5.18h2.15v3h-2.15v4.35l2.39-.7Zm14-10.55s0,1.08-.05,1.45c-.5,12-1,16.44-1.95,17.79a2.82,2.82,0,0,1-2,1.41,14.92,14.92,0,0,1-2.93.08,9.22,9.22,0,0,0-.86-3.13,21.88,21.88,0,0,0,2.31.1,1.05,1.05,0,0,0,1-.51c.65-.86,1.12-4.53,1.53-14.23h-.13c-1.27,6.81-3.94,13.83-8.11,17.42a11.31,11.31,0,0,0-2.52-1.87c4.15-3.1,6.74-9.23,8-15.55h-1.22c-1.14,4.4-3.32,9.24-5.94,11.83a10.85,10.85,0,0,0-2.36-1.81c2.57-2.11,4.59-6.1,5.73-10h-1.32a20.29,20.29,0,0,1-2.67,4.84,16.66,16.66,0,0,0-2.33-1.81c2-2.35,3.47-6.21,4.25-10.18l2.8.54c-.26,1.24-.6,2.46-1,3.65Z"/><path d="M205.39,66.78s0,1.08,0,1.46C205,80.3,204.75,84.59,203.68,86a3.42,3.42,0,0,1-2.49,1.49,27.82,27.82,0,0,1-4.07,0,7.66,7.66,0,0,0-1-3.13c1.66.16,3.19.16,3.87.16a1.36,1.36,0,0,0,1.14-.45c.75-.87,1.09-4.92,1.37-14.45h-5.55A23.57,23.57,0,0,1,194.66,74a18.23,18.23,0,0,0-2-1.51v12.6h-6.93v2h-2.8V67h2.93a29.17,29.17,0,0,0,.75-4.35l3.37.49c-.44,1.35-.9,2.7-1.34,3.86h4v4.37a28.58,28.58,0,0,0,3.49-8.69l2.93.7a32,32,0,0,1-1,3.43Zm-15.52,3h-4.13v4.38h4.13Zm0,12.45V76.93h-4.13v5.29Zm8.6-1.46a57.16,57.16,0,0,0-3.6-6.23l2.41-1.43a63,63,0,0,1,3.81,6Z"/><path d="M212.8,70V69a25.41,25.41,0,0,1-2.3,2h10.37v8.4h-8.38c-.05.35-.1.73-.18,1.08h8.94V87.7h-2.67v-.76H214.2v.84h-2.59V83.33a13,13,0,0,1-2,3.94,9.41,9.41,0,0,0-2-1.92c2.28-3.1,2.57-7.42,2.57-10.47V71.21c-.29.18-.57.4-.86.59a9,9,0,0,0-1.84-2.27A18.29,18.29,0,0,0,214,63h2.75a52.4,52.4,0,0,1,5.42,4.85l-2,2.38c-.37-.43-.83-1-1.38-1.57V70Zm5.29,7.1v-1h-5.34c0,.33,0,.68-.05,1Zm-5.31-3.92v1h5.31v-1Zm5.29-5.34c-.76-.76-1.56-1.54-2.31-2.16-.55.7-1.14,1.43-1.82,2.16ZM214.2,82.73v1.92h4.38V82.73Zm11.1-1.65h-2.9V65.89h2.9Zm5.75-17.92V84c0,1.78-.33,2.67-1.37,3.16s-2.59.65-4.82.65a13.63,13.63,0,0,0-1-3.27c1.55,0,3.06,0,3.55,0s.65-.16.65-.62V63.16Z"/><path d="M233.59,85.59A8.89,8.89,0,0,0,237,81l2.59,1A10.27,10.27,0,0,1,236,87.29ZM257,70.85H234.6V68.37h5.55a18.72,18.72,0,0,0-.65-1.81l.13,0h-3.76V64.05h8.35V62.62h3.06v1.43h8.37v2.49H252l.39.08c-.39.7-.78,1.27-1.09,1.75H257ZM248.21,85c1,0,1.12-.29,1.25-2.21a8,8,0,0,0,2.61,1c-.33,3-1.16,3.76-3.57,3.76h-4.18c-3.26,0-4.07-.79-4.07-3.35V81.35h2.8l-.31-.13,1.06-1.08h-6.48V72h17.19v8.18h-8.42a16,16,0,0,1,2.69,1.65l-1.86,2a16.66,16.66,0,0,0-3.66-2.32v2.7c0,.73.21.81,1.37.81Zm-8-9.88h11.2V73.93h-11.2Zm0,3.08h11.2V77h-11.2Zm2.34-11.63a16.54,16.54,0,0,1,.62,1.75l-.34.08h5.76l-.37-.08c.24-.51.55-1.19.76-1.75Zm11.12,14.17a19.26,19.26,0,0,1,4.22,4.88l-2.54,1.54a22.21,22.21,0,0,0-4.07-5Z"/><path d="M269.93,64.27a33,33,0,0,1-7,11,20,20,0,0,0-3-2.4,23.08,23.08,0,0,0,6.46-9.63Zm7.21,12.63a62.85,62.85,0,0,1,6,9.31L279.89,88a18.65,18.65,0,0,0-1.07-2.16c-6.22.43-12.75.84-17.31,1l-.42-3.37,3.61-.14a68.82,68.82,0,0,0,4.43-10.9l3.71.89a103.23,103.23,0,0,1-4.62,9.85c2.8-.13,5.83-.3,8.84-.46-.93-1.51-2-3-2.93-4.37Zm-.36-13.63a36.06,36.06,0,0,0,6.81,9.2A16.88,16.88,0,0,0,281,75.28a55.65,55.65,0,0,1-7.31-10.69Z"/><path d="M308,83.76c0,1.83-.31,2.8-1.43,3.37s-2.72.65-5,.62a13.46,13.46,0,0,0-1-3.48,33.85,33.85,0,0,0,3.66,0c.46,0,.64-.13.64-.59V67.29H286.78V64.24H308ZM302.28,72H287V69.21h15.24ZM291.37,83.14v1.94h-3V74h12.57v9.13Zm0-6.37v3.61h6.53V76.77Z"/><path d="M319.78,83.16a4.19,4.19,0,1,1-4.2-4.37A4.29,4.29,0,0,1,319.78,83.16Zm-1.87,0a2.32,2.32,0,1,0-2.33,2.41A2.37,2.37,0,0,0,317.91,83.16Z"/><path d="M.75,140c0-4.94,3-8,6.09-8a4.92,4.92,0,0,1,3.69,1.65l-.16-2.38v-5.32h3.81v21.54H11.1l-.32-1.56h-.07a5.94,5.94,0,0,1-4,1.94C3.08,147.86.75,144.89.75,140ZM10.37,143v-6.64a3.76,3.76,0,0,0-2.7-1.13c-1.63,0-3,1.62-3,4.64s1.08,4.7,3,4.7A3.22,3.22,0,0,0,10.37,143Z"/><path d="M17.37,140c0-5,3.34-8,7-8s7,2.92,7,8-3.34,7.91-7,7.91S17.37,145,17.37,140Zm10.05,0c0-2.86-1.11-4.72-3.08-4.72s-3.09,1.86-3.09,4.72,1.12,4.67,3.09,4.67S27.42,142.79,27.42,140Z"/><path d="M35,142.19V135.5H33v-2.94l2.23-.19.44-4.05h3.18v4.05h3.58v3.13H38.85v6.69c0,1.73.68,2.54,2,2.54a4.15,4.15,0,0,0,1.43-.32l.62,2.89a9,9,0,0,1-3.06.56C36.37,147.86,35,145.6,35,142.19Z"/><path d="M54.67,145.89h-.08l-.34,1.59h-3V125.94h3.78v5.43L55,133.8A6.07,6.07,0,0,1,59,132c3.58,0,5.73,3,5.73,7.67,0,5.21-3,8.2-6.17,8.2A5.55,5.55,0,0,1,54.67,145.89Zm6.14-6.15c0-2.89-.88-4.48-2.88-4.48a4.07,4.07,0,0,0-2.88,1.56v6.64a3.94,3.94,0,0,0,2.65,1.14C59.46,144.6,60.81,143,60.81,139.74Z"/><path d="M67.24,153.26l.7-3a3.7,3.7,0,0,0,1,.19,2.82,2.82,0,0,0,2.72-2.29l.26-.9-5.65-14.84h3.83l2.31,7c.44,1.35.8,2.8,1.22,4.26h.13l1-4.26,2-7h3.66L75.3,147.94c-1.27,3.57-2.83,5.62-6.07,5.62A5.87,5.87,0,0,1,67.24,153.26Z"/><path d="M87.89,140c0-4.94,3-8,6.1-8a4.91,4.91,0,0,1,3.68,1.65l-.16-2.38v-5.32h3.81v21.54H98.24l-.31-1.56h-.08a5.92,5.92,0,0,1-4,1.94C90.23,147.86,87.89,144.89,87.89,140ZM97.51,143v-6.64a3.75,3.75,0,0,0-2.69-1.13c-1.64,0-3,1.62-3,4.64s1.09,4.7,3,4.7A3.21,3.21,0,0,0,97.51,143Z"/><path d="M104.51,140c0-5,3.34-8,7-8s7,2.92,7,8-3.35,7.91-7,7.91S104.51,145,104.51,140Zm10.06,0c0-2.86-1.12-4.72-3.09-4.72s-3.08,1.86-3.08,4.72,1.11,4.67,3.08,4.67S114.57,142.79,114.57,140Z"/><path d="M122.19,142.19V135.5h-2v-2.94l2.23-.19.44-4.05H126v4.05h3.58v3.13H126v6.69c0,1.73.67,2.54,2,2.54a4.15,4.15,0,0,0,1.42-.32l.63,2.89a9.09,9.09,0,0,1-3.06.56C123.51,147.86,122.19,145.6,122.19,142.19Z"/><path d="M151.17,146.35c.67.06,1.37.08,2.07.08,1.45,0,6.43,0,8.27-.08a11.51,11.51,0,0,0-1,3.08h-7.38c-4.75,0-8-.7-10.14-3.83a12,12,0,0,1-3.63,4.29,12.43,12.43,0,0,0-2.33-2.24c2.64-1.7,4.22-4.57,4.82-8.18l3.08.48c-.18.87-.39,1.68-.59,2.46a5.75,5.75,0,0,0,3.73,3.37v-6.85H137.92v-2.84h22.87v2.84h-9.62v2h8v2.78h-8Zm7.15-11.44h-18v-9.37h18Zm-3.13-7.13H143.31v1.38h11.88Zm0,3.48H143.31v1.41h11.88Z"/><path d="M185.33,140.49a.33.33,0,0,0,.29-.13,1.83,1.83,0,0,0,.15-.84c0-.51.08-1.59.08-3a6.74,6.74,0,0,0,1.89,1.08,23.45,23.45,0,0,1-.28,3.64,2.37,2.37,0,0,1-.73,1.38,2.18,2.18,0,0,1-1.37.4h-1.14a2.34,2.34,0,0,1-1.69-.65c-.39-.48-.57-1-.57-3v-2l-1,2.13a16.33,16.33,0,0,0-1.5-1.46,11.23,11.23,0,0,1-3.34,5.51,8.65,8.65,0,0,0-1.09-1.4v.05c-4,.43-8.22.86-11.25,1.16l-.19-2.62c1.28-.08,2.83-.19,4.54-.32v-1.65h-3.81v-2.24h3.81V135.1h2.57c-.55-.33-.68-1-.68-2.19V131.8h-1.29c-.31,2.22-1.25,3.57-4.25,4.29a5.83,5.83,0,0,0-1.22-1.89c2.18-.4,2.87-1.13,3.11-2.4h-2.59v-2.21h4.35v-1.32h-3.45v-2.16h3.45v-1.46h2.72v1.46h3.45v2.16h-3.45v1.32H175v2.21h-2.85v1.11c0,.48.05.54.33.54h.6c.31,0,.39-.14.44-1.24a5.43,5.43,0,0,0,1.84.75c-.18,1.95-.75,2.41-2,2.41h-1.3a3.36,3.36,0,0,1-1.27-.19v1.37h3.53v2.24h-3.53v1.43l4.15-.37v.83a10,10,0,0,0,2.15-4.42c-.7-.52-1.42-1-2.07-1.43l1.24-2.38c.42.24.86.51,1.33.81.07-.76.13-1.54.15-2.35h-2.18v-2.83h2.26c0-1.11,0-2.24,0-3.46h2.78c0,1.19,0,2.35-.06,3.46h4.13v11.23a4.49,4.49,0,0,0,0,1.05.22.22,0,0,0,.23.13Zm-22,8.13a13,13,0,0,0,3-4.72l3,.8a15.19,15.19,0,0,1-3.06,5.13Zm10.4-4.1a31.46,31.46,0,0,1,.6,4.67l-3.06.4a33.54,33.54,0,0,0-.42-4.78Zm5.19-.22a27.36,27.36,0,0,1,1.4,4.64l-3.09.62a24.27,24.27,0,0,0-1.22-4.77Zm1.6-13.39a34.37,34.37,0,0,1-.39,4.05A21.44,21.44,0,0,1,182,136.5v-5.59Zm3.63,12.88a38.81,38.81,0,0,1,3.17,5l-3.17,1.05a31.15,31.15,0,0,0-3-5.13Z"/><path d="M208.61,141.68a13.35,13.35,0,0,1-4.1,4.13A43.32,43.32,0,0,0,213,147a13.49,13.49,0,0,0-1.76,2.86,34.84,34.84,0,0,1-10.14-2.29,39.33,39.33,0,0,1-10,2.32,12.88,12.88,0,0,0-1.58-2.65,41.6,41.6,0,0,0,8.43-1.37,15,15,0,0,1-2.34-1.89,30.44,30.44,0,0,1-3.44,1.7,21.5,21.5,0,0,0-2.13-2.14,19,19,0,0,0,7.86-4.5c-1.14-.33-1.46-1.14-1.46-2.68V134.5h2.83v1.86c0,.62.18.68,1,.68h2.72c.65,0,.83-.16.91-1.27a8,8,0,0,0,2.36.84c-.29,2.08-1,2.64-2.93,2.64H201l.16.06a14,14,0,0,1-1,1.18h6l.52-.08ZM193,135.77H190.1v-4.91h4.46a14.17,14.17,0,0,0-1.33-2.32l.29-.14c-.7,0-1.4.06-2.1.06a8.68,8.68,0,0,0-.6-2.33c6.38-.13,13.9-.64,18.15-1.53l2.05,2.13c-1,.21-2.13.4-3.32.59l2.33.76c-.65,1-1.32,1.94-1.94,2.78h4.17v5.29h-2.49a11.8,11.8,0,0,1,1.66,1.94l-2.2,1.73a19.82,19.82,0,0,0-4-4.32l2.08-1.51c.59.46,1.24,1,1.86,1.59v-2.27h-7a10.3,10.3,0,0,1,1.76,1.19l-1.55,1.78a15.83,15.83,0,0,0-3.68-2.32l.57-.65H193Zm-2.21,2.51a8.39,8.39,0,0,0,3.3-3.81l2.3,1a10,10,0,0,1-3.47,4.59Zm9.31-7.42a12,12,0,0,0-1.19-2.7l-2.65.16a8,8,0,0,1,1.12,2.19l-.78.35Zm-2.2,11.85a13.48,13.48,0,0,0,3.24,2,13.08,13.08,0,0,0,3-2Zm7.12-11.85a27.11,27.11,0,0,0,1.79-3.43c-1.58.22-3.26.38-5,.54a9.53,9.53,0,0,1,1,2.35l-1.38.54Z"/><path d="M238.65,130.7s0,1.05,0,1.43c-.23,11-.44,15-1.27,16.19a2.87,2.87,0,0,1-2,1.35,16.54,16.54,0,0,1-3.21.11,7.71,7.71,0,0,0-.91-3.08c1.14.11,2.13.14,2.62.14a.93.93,0,0,0,.88-.46c.55-.73.81-4,1-12.74h-2.33c-.34,7.23-1.53,12.79-5.89,16.38a10.36,10.36,0,0,0-1.81-2.13c-3.73.4-7.47.81-10.27,1.05l-.36-2.7,5.26-.37v-1.62h-4.56V142h4.56v-1h-4.46v-8.35h4.46v-1.05h-5.11v-2.32h5.11v-1.08c-1.5.11-3,.19-4.38.22a10.34,10.34,0,0,0-.67-2.27,79.05,79.05,0,0,0,11.17-1.32l1.35,2.4c-1.38.3-3,.54-4.67.73v1.32h5v1.49h2.44c0-1.79,0-3.65,0-5.65h3c0,2,0,3.86-.05,5.65Zm-20.43,5.1h2v-1.19h-2Zm2,3.13v-1.22h-2v1.22Zm2.8,6.69c1.48-.11,3-.24,4.51-.38,2-2.91,2.65-6.77,2.83-11.6H228v-2.11h-5v1.05h4.59v8.35H223v1h4.69v2.27H223Zm2-9.82v-1.19h-2v1.19Zm-2,1.91v1.22h2v-1.22Z"/><path d="M249.51,146.46c0,1.35-.18,2.27-.94,2.75s-1.73.57-3.24.57a11.56,11.56,0,0,0-.78-3c.81.05,1.61.05,1.9.05s.33-.1.33-.45V140.9h-2.12a32.34,32.34,0,0,1-1.56,8.88,10.22,10.22,0,0,0-2.36-1.38c1.38-3.72,1.48-9.15,1.48-13.06v-9.77h7.29Zm-2.73-8.5v-3.35h-2v.73c0,.81,0,1.7,0,2.62Zm-2-9.5v3.23h2v-3.23Zm8.27,6.91a28.52,28.52,0,0,0-3.26-5.57,38.92,38.92,0,0,0,2.82-5.15l2.7.65c-.8,1.54-1.74,3.1-2.59,4.48a28.69,28.69,0,0,1,2.85,4.48Zm6.28-.76c-.26.57-.55,1.11-.81,1.62h5.94v13.44h-2.85v-.89H253.5v1h-2.75V136.23h4.49c.2-.73.41-1.49.51-2.11l1.56.22a31.61,31.61,0,0,0-3-4.64,38.81,38.81,0,0,0,2.85-5l2.67.65c-.77,1.51-1.76,3-2.61,4.37a29.14,29.14,0,0,1,3,4.37l-1.17.52Zm2.28,4.24H259l2,1.05a18.57,18.57,0,0,1-1.61,2.29,19.74,19.74,0,0,1,2,1.81l-1.71,1.81a18,18,0,0,0-1.95-1.86,19.91,19.91,0,0,1-2.67,2.21,11.72,11.72,0,0,0-1.58-1.67v1.7h8.14Zm-8.14,0v5.58a13.76,13.76,0,0,0,2.44-1.94c-.7-.51-1.43-1-2.08-1.46l1.61-1.59c.65.38,1.32.86,2,1.35a13.89,13.89,0,0,0,1.32-1.94Zm9.12-3.57a28.62,28.62,0,0,0-3.86-5.5,49.8,49.8,0,0,0,3.09-5.13l2.77.7a48,48,0,0,1-2.72,4.37,31,31,0,0,1,3.27,4.3Z"/><path d="M290.57,129.1c-1,.87-2,1.73-3,2.43a16.86,16.86,0,0,0,3.6,1.41,13.49,13.49,0,0,0-1.84,2.53,19.32,19.32,0,0,1-2.93-1.27v2.49a1.57,1.57,0,0,0,.06.65.32.32,0,0,0,.28.1h.44a1.53,1.53,0,0,0,.34,0,.51.51,0,0,0,.26-.33,8.37,8.37,0,0,0,.1-1.24,6.71,6.71,0,0,0,2.15,1.19,6.1,6.1,0,0,1-.39,1.73,1.59,1.59,0,0,1-.95.75,3.79,3.79,0,0,1-1.25.19h-1.32a2.42,2.42,0,0,1-1.71-.59c-.44-.46-.6-1-.6-2.49v-1.56h-2.33a6.34,6.34,0,0,1-2.85,5.34,12.75,12.75,0,0,0-1.61-1.78v1.19h-2.72v-.32h-2.65c-.1.59-.2,1.16-.33,1.72h5.75s0,.76-.05,1.14c-.29,3.88-.6,5.66-1.3,6.39a2.72,2.72,0,0,1-2.07.92,28.77,28.77,0,0,1-3.45,0,6.42,6.42,0,0,0-.88-2.7c1.3.11,2.59.13,3.14.13a1.31,1.31,0,0,0,1-.24c.33-.32.54-1.29.72-3.35h-3.34l-.16.65-2.46-.4a66.43,66.43,0,0,0,1.35-6.67h4.77v-1.89h-4.28V135c-.6.3-1.19.54-1.81.78a16.3,16.3,0,0,0-1.66-2.34,17,17,0,0,0,4.33-2.06,25,25,0,0,0-2.39-1.62l1.74-1.7a19.18,19.18,0,0,1,2.72,1.7,13.57,13.57,0,0,0,1.53-1.72h-5.11v-2.51h6.77l.52-.14,1.89,1a15.47,15.47,0,0,1-4.85,6.37h3.32v5.43a4,4,0,0,0,1.89-3.64v-1.92h5.13a18.65,18.65,0,0,1-5.41-7.29l2.46-.73a14.45,14.45,0,0,0,1.5,2.62,20.5,20.5,0,0,0,2.41-2.46l2.21,1.65c-1,.89-2.15,1.84-3.11,2.56a13.59,13.59,0,0,0,1.4,1.22,22.88,22.88,0,0,0,2.8-2.75ZM288.67,141a11.93,11.93,0,0,1-3,5.07,16.28,16.28,0,0,0,4.54,1.19,11.9,11.9,0,0,0-1.81,2.59,15.79,15.79,0,0,1-5.11-2,17.84,17.84,0,0,1-5.34,2,10.2,10.2,0,0,0-1.3-2.32,17.5,17.5,0,0,0,4.46-1.37,11.79,11.79,0,0,1-2.15-3l1.68-.48h-2.49v-2.14h8.35l.47-.08Zm-7.25,1.65a8,8,0,0,0,1.91,2.07,7.84,7.84,0,0,0,1.82-2.07Z"/><path d="M297.46,135.5a15.47,15.47,0,0,1-2.93,3.91,11.25,11.25,0,0,0-2-2.21,16,16,0,0,0,4.4-6h-3.75v-2.72h4.25v-3.81h2.93v3.81H304v2.72h-3.65v1a50.07,50.07,0,0,1,4.09,3l-1.6,2.56c-.6-.67-1.56-1.64-2.49-2.53v5.64h-2.93Zm-4.72,11.39a19.18,19.18,0,0,0,2.26-5.56l2.74,1.13a27.58,27.58,0,0,1-2.17,5.89Zm14.8-.43c1.22,0,1.4-.38,1.56-3.11a7.19,7.19,0,0,0,2.77,1.14c-.39,3.86-1.24,4.8-4.09,4.8h-4.67c-3.53,0-4.41-.89-4.41-3.69v-3.7h3v3.64c0,.81.25.92,1.65.92Zm-3-6.69.51.48V126h10.53v14.52H305.31c1,1,2.13,2.11,2.75,2.86l-2.23,2a38.11,38.11,0,0,0-3.42-3.75Zm3.31-9.7h4.77v-1.56h-4.77Zm0,4h4.77v-1.57h-4.77Zm0,4h4.77v-1.62h-4.77Zm6,3c1,1.67,2.54,4,3.24,5.37l-2.87,1.54c-.63-1.43-2-3.81-3.06-5.61Z"/><path d="M323.71,132v-1a25.41,25.41,0,0,1-2.3,2h10.37v8.4H323.4c0,.35-.1.73-.18,1.08h8.95v7.26H329.5v-.76h-4.39v.84h-2.59v-4.45a12.94,12.94,0,0,1-2,3.94,9.7,9.7,0,0,0-2-1.92c2.29-3.1,2.57-7.42,2.57-10.47v-3.67c-.28.18-.57.4-.86.59a9,9,0,0,0-1.84-2.27,18.29,18.29,0,0,0,6.51-6.58h2.75a52.4,52.4,0,0,1,5.42,4.85l-2,2.38c-.37-.43-.83-1-1.38-1.57V132Zm5.29,7.1v-1h-5.34c0,.33,0,.68-.05,1Zm-5.31-3.92v1H329v-1Zm5.29-5.34c-.75-.76-1.56-1.54-2.31-2.16-.54.7-1.14,1.43-1.81,2.16Zm-3.87,14.87v1.92h4.39v-1.92Zm11.1-1.65h-2.9V127.89h2.9ZM342,125.16V146c0,1.78-.34,2.67-1.38,3.16s-2.59.65-4.82.65a13.63,13.63,0,0,0-1-3.27c1.55.05,3.06.05,3.55.05s.65-.16.65-.62V125.16Z"/><path d="M344.5,147.59a8.89,8.89,0,0,0,3.4-4.56l2.59.95a10.27,10.27,0,0,1-3.58,5.31Zm23.44-14.74H345.51v-2.48h5.55a16.39,16.39,0,0,0-.65-1.81l.13,0h-3.76v-2.49h8.35v-1.43h3.06v1.43h8.37v2.49h-3.65l.39.08c-.39.7-.78,1.27-1.09,1.75h5.73ZM359.12,147c1,0,1.12-.29,1.25-2.21a8,8,0,0,0,2.62,1c-.34,3-1.17,3.76-3.58,3.76h-4.18c-3.26,0-4.07-.79-4.07-3.35v-2.84H354l-.31-.13,1.07-1.08h-6.49V134h17.19v8.18H357a16,16,0,0,1,2.69,1.65l-1.86,2a16.66,16.66,0,0,0-3.66-2.32v2.7c0,.73.21.81,1.37.81Zm-8-9.88h11.2v-1.16h-11.2Zm0,3.08h11.2V139h-11.2Zm2.34-11.63a16.54,16.54,0,0,1,.62,1.75l-.34.08h5.76l-.37-.08c.24-.51.55-1.19.76-1.75Zm11.12,14.17a19.26,19.26,0,0,1,4.22,4.88l-2.54,1.54a21.94,21.94,0,0,0-4.07-5Z"/><path d="M376.25,149.35a48.9,48.9,0,0,0-5.57-6l2.7-2.43a50.13,50.13,0,0,1,5.65,5.91Z"/><path d="M390.87,146.7a18.82,18.82,0,0,0,2.72-6.26l2.8,1.05a23.41,23.41,0,0,1-2.74,6.8Zm10.71-8.15h-8.12V125.76H412v12.79h-9.8A20.39,20.39,0,0,1,407,142l-2.2,2.18a21.61,21.61,0,0,0-5.06-3.86Zm-5.21-7.75h4.87v-2.26h-4.87Zm0,5h4.87v-2.38h-4.87Zm9.15,10.66c1.06,0,1.27-.4,1.43-3.08a8.51,8.51,0,0,0,2.77,1.19c-.34,3.84-1.24,4.81-3.94,4.81h-4.3c-3.43,0-4.28-.95-4.28-3.81v-4.43h3.11v4.4c0,.81.23.92,1.53.92ZM409,128.54h-4.75v2.26H409Zm0,4.85h-4.75v2.38H409Zm2.49,6.89a23.79,23.79,0,0,1,3.42,6.53l-3,1.32a24.41,24.41,0,0,0-3.16-6.66Z"/><path d="M431.18,134.88c-1.11.89-2.28,1.73-3.47,2.51a55,55,0,0,0,7.64-1.38l1.9,2.11a64,64,0,0,1-11.62,1.73l-.31,1.37h12a10.44,10.44,0,0,1-.16,1.35c-.62,3.65-1.24,5.48-2.12,6.29a3.35,3.35,0,0,1-2.49.95,31,31,0,0,1-3.89,0,6.84,6.84,0,0,0-1-3c1.51.16,3.14.21,3.82.21a1.84,1.84,0,0,0,1.14-.27,5.62,5.62,0,0,0,1.16-3h-9.1l-.31,1.25-3.08-.46c.36-1.14.75-2.59,1.11-4.13q-2.1,1-4.25,1.94a20.41,20.41,0,0,0-1.89-2.46,48.17,48.17,0,0,0,6.92-3.13l.13-.62.83.11c.8-.46,1.58-.94,2.33-1.43h-9.07v-2.7h8V130h-6V127.4h6v-2.78h3.06v2.78h5.44v1.38a36.46,36.46,0,0,0,2.57-3.08l2.49,1.43a39.42,39.42,0,0,1-4.57,5.05H440v2.7Zm-1-2.7c.86-.7,1.69-1.4,2.47-2.16h-4.2v2.16Z"/><path d="M464.64,140.9c0,1.35-.25,2-1.19,2.4a9.16,9.16,0,0,1-3.45.41,25.06,25.06,0,0,0,6.95,2.4,14.51,14.51,0,0,0-1.94,2.83,21.82,21.82,0,0,1-8.4-4.37v5.29h-3.32v-5.37a21.78,21.78,0,0,1-8.61,4.64,12.74,12.74,0,0,0-1.92-2.7c4.31-.89,8.33-2.91,10.53-5.53V139h-5v4.78h-3.27v-7.51h8.22V135h-9.88v-2.76h5.5a17.43,17.43,0,0,0-1.32-2.83h-.44a16.69,16.69,0,0,1-2.16,2.7,20.64,20.64,0,0,0-2.56-1.76,15.48,15.48,0,0,0,4-5.91l2.93.84c-.18.46-.39,1-.62,1.46h5.6v2.21a14.21,14.21,0,0,0,2.46-4.51l3,.79c-.18.48-.39,1-.63,1.51h7.21v2.67h-4.22a12.83,12.83,0,0,1,.9,1.86l-2.74.92A14.24,14.24,0,0,0,459,129.4h-1.24a14.12,14.12,0,0,1-1.14,1.57v1.26h9.33V135h-9.33v1.29h8Zm-11.35-8.67V130.8h.44q-.42-.28-.78-.48a10.38,10.38,0,0,0,1-.92h-3.19a15.63,15.63,0,0,1,.88,1.89l-2.33.94Zm3.32,9.15a15.68,15.68,0,0,0,3.24,2.24,12.8,12.8,0,0,0-1-2.4c.85.08,1.92.06,2.2.06s.42-.08.42-.38V139h-4.85Z"/><path d="M491.81,128.19a21.26,21.26,0,0,1-4.15,7,18.17,18.17,0,0,0,5.63,3,14.73,14.73,0,0,0-2,2.7l-.19-.09v8.94h-3v-.84h-5.32v.84H480V141l-.65.3a11.19,11.19,0,0,0-.88-1.4v4.69h-6.74v2.22h-2.23V126.21h9v5.11a18,18,0,0,0,4.44-6.75l2.9.83a16.66,16.66,0,0,1-.83,1.89h4.33l.52-.13Zm-20.12.78v4.78h1.22V129Zm0,12.82h1.22v-5.4h-1.22ZM476.12,129h-1.29v4.78h1.29Zm0,12.82v-5.4h-1.29v5.4Zm2.31-3.4a20.56,20.56,0,0,0,5.08-3.27,23.2,23.2,0,0,1-1.92-2.67,17.51,17.51,0,0,1-1.91,2,13.89,13.89,0,0,0-1.25-1.35Zm10.68,1.46a19.18,19.18,0,0,1-3.55-2.6,25.43,25.43,0,0,1-3.55,2.6Zm-1,6.29v-3.49h-5.32v3.49ZM483.44,130l-.16.21a17.5,17.5,0,0,0,2.23,3,18,18,0,0,0,2.28-3.21Z"/><path d="M518,128.78s0,1.08,0,1.46c-.34,12.06-.63,16.35-1.69,17.78a3.42,3.42,0,0,1-2.49,1.49,27.82,27.82,0,0,1-4.07.05,7.66,7.66,0,0,0-1-3.13c1.66.16,3.19.16,3.86.16a1.34,1.34,0,0,0,1.14-.45c.76-.87,1.09-4.92,1.38-14.45h-5.55a23.57,23.57,0,0,1-2.28,4.27,18.45,18.45,0,0,0-2-1.51v12.6h-6.92v2h-2.8V129h2.93a29.17,29.17,0,0,0,.75-4.35l3.37.49c-.44,1.35-.9,2.7-1.35,3.86h4v4.37a28.34,28.34,0,0,0,3.5-8.69l2.93.7a32,32,0,0,1-1,3.43Zm-15.53,3h-4.12v4.38h4.12Zm0,12.45v-5.29h-4.12v5.29Zm8.61-1.46a58.86,58.86,0,0,0-3.6-6.23l2.41-1.43a67.22,67.22,0,0,1,3.81,6Z"/><path d="M23.23,194.5a35.2,35.2,0,0,1-2.54,10.31,11.67,11.67,0,0,0,4,4.51,11.4,11.4,0,0,0-2,2.57A13.35,13.35,0,0,1,19,207.81a15.71,15.71,0,0,1-4.41,4.13,13.31,13.31,0,0,0-1.32-2.24l-1.79,1.84a22.83,22.83,0,0,0-2.72-1.73,18.63,18.63,0,0,1-6.56,2.13,7.53,7.53,0,0,0-1.09-2.46,16.6,16.6,0,0,0,4.9-1c-.46-.19-.93-.41-1.4-.59l-.21.35-2.46-.62c.44-.68.94-1.52,1.45-2.41l-2.77,0-.1-2.38c1.19,0,2.61,0,4.14,0,.21-.38.39-.73.57-1.08H1.5v-5H6.09v-.83H2v-2.86H.39v-2.27H2v-2.84H6.09v-1.32H8.71v1.32H13v2.84H14.7v2.27H13v2.86H8.71v.83h4.82v.87c1.48-2.86,2.31-6.86,2.78-11l2.93.41c-.19,1.54-.44,3.05-.73,4.5H24.6v3ZM4,199.82H6.09v-1.13H4ZM4.56,190v1H6.09v-1Zm1.53,3.91v-1H4.56v1Zm-.34,12c.86.29,1.72.64,2.57,1a6.67,6.67,0,0,0,1.17-1.83l-3.29,0Zm6.51-.9a8.49,8.49,0,0,1-1.53,3.05c.81.44,1.56.84,2.18,1.22a12.18,12.18,0,0,0,4.56-4.48,34.09,34.09,0,0,1-1.55-5.24,14.29,14.29,0,0,1-1,1.78,13.58,13.58,0,0,0-1.38-1.59v2H7.78l.23,0-.52,1,7.24-.11L14.65,205ZM8.71,190v1h1.63v-1Zm1.63,3.91v-1H8.71v1Zm-1.63,4.81v1.13h2.15v-1.13Zm9.07-4.19-.05.17a41.59,41.59,0,0,0,1.4,6.34,36.66,36.66,0,0,0,1.22-6.51Z"/><path d="M35,187.67a46.18,46.18,0,0,1-2.44,5.21v18.87H29.6V197.47A26.61,26.61,0,0,1,27.48,200a23,23,0,0,0-1.64-3.35,27.89,27.89,0,0,0,6.25-10Zm15.66,20v3H33.88v-3h8.5a73.76,73.76,0,0,0,2.49-12.1l3.37.57a108.37,108.37,0,0,1-2.88,11.53Zm-10.14-16.2V187H43.6v4.51h6.48v3.05H34.4v-3.05Zm-2.75,15.33a60.85,60.85,0,0,0-1.55-10.55l2.77-.51a66.31,66.31,0,0,1,1.84,10.39Z"/><path d="M75.12,205a33.14,33.14,0,0,1-4.28,2.48,16.87,16.87,0,0,0,5.63,1.81,11.1,11.1,0,0,0-1.69,2.57c-5.39-1.08-8.63-3.62-10.57-7.91a20.13,20.13,0,0,1-3.06,1.92v2.34c1.68-.21,3.44-.46,5.18-.7l.11,2.51c-3.66.54-7.52,1.08-10.37,1.51l-.45-2.62,2.57-.29v-1.51a28.94,28.94,0,0,1-4.28,1.13A13.9,13.9,0,0,0,52.28,206a28.51,28.51,0,0,0,8-2.27H52.72v-2.54H62.81v-1.37h-1A8.6,8.6,0,0,0,61,197.9c.59,0,1.22,0,1.4,0s.31-.08.31-.29v-1.11H60.6v3.94H58v-3.94H56v3.35H53.71v-5.3H58v-.94H52.67v-2.16h1.58c-.52-.32-1.19-.73-1.61-.94a12.1,12.1,0,0,0,2-3.89l2.25.59c-.13.38-.26.73-.41,1.11H58v-1.73H60.6v1.73h4.31v2.05H60.6v1.08h5v2.16h-5v.94h4.59v3.06c0,1-.18,1.51-.85,1.83a3.42,3.42,0,0,1-1.22.27h2.74v1.4H76v2.54h-2.6ZM58,191.48V190.4H55.52a9.36,9.36,0,0,1-.65,1.08Zm11.44,5.21H66.67v-9h2.75Zm-2.49,7A9.42,9.42,0,0,0,68.77,206a30.66,30.66,0,0,0,3.68-2.32ZM75,197.61c0,1.37-.26,2-1.19,2.45a10.39,10.39,0,0,1-4,.44A10.26,10.26,0,0,0,69,198c1.16,0,2.41,0,2.77,0s.49-.11.49-.46V186.81H75Z"/><path d="M86.83,187.7a42.38,42.38,0,0,1-2.49,5.62v18.49H81.23v-13.5c-.54.67-1.09,1.35-1.6,1.94a23.21,23.21,0,0,0-1.71-3.42,28.54,28.54,0,0,0,5.91-10.1Zm8.22,6.37v2.84h6.72v2.91H95.05v3.05h7v3h-7v6H91.89V194.07h-1a30.22,30.22,0,0,1-3.39,5.24,21,21,0,0,0-2.36-2.24,27,27,0,0,0,5.49-10.18l3,.78A31.61,31.61,0,0,1,92.35,191h10.06v3Z"/><path d="M114.41,188.27a33,33,0,0,1-7,11,19.39,19.39,0,0,0-3-2.4,23.08,23.08,0,0,0,6.46-9.63Zm7.21,12.63a62,62,0,0,1,6,9.31L124.37,212a17.16,17.16,0,0,0-1.07-2.16c-6.22.43-12.75.84-17.31,1.05l-.42-3.37,3.61-.14a68.82,68.82,0,0,0,4.43-10.9l3.71.89a104.39,104.39,0,0,1-4.62,9.85c2.8-.13,5.83-.3,8.84-.46-.93-1.51-2-3-2.93-4.37Zm-.36-13.63a36.06,36.06,0,0,0,6.81,9.2,16.88,16.88,0,0,0-2.59,2.81,55.65,55.65,0,0,1-7.31-10.69Z"/><path d="M152.52,207.76c0,1.83-.31,2.8-1.43,3.37s-2.72.65-5,.62a13.57,13.57,0,0,0-1-3.48,33.85,33.85,0,0,0,3.66,0c.46,0,.64-.13.64-.59V191.29H131.26v-3h21.26ZM146.76,196H131.52v-2.81h15.24Zm-10.91,11.12v1.94h-3V198h12.57v9.13Zm0-6.37v3.61h6.53v-3.61Z"/><path d="M164.26,207.16a4.19,4.19,0,1,1-4.2-4.37A4.29,4.29,0,0,1,164.26,207.16Zm-1.87,0a2.32,2.32,0,1,0-2.33,2.41A2.37,2.37,0,0,0,162.39,207.16Z"/><path d="M10,321.39c-.18.38-.39.73-.59,1.11H21.57v13.41H18.46v-1H9.07v1H6.12V327a20.05,20.05,0,0,1-4,3.24,18.67,18.67,0,0,0-1.95-2.59,17.59,17.59,0,0,0,6.33-6.29H1v-2.54H7.8c.18-.37.34-.78.5-1.16H2.8v-2.42H9.13c.1-.38.2-.76.28-1.17-2.15.09-4.3.11-6.33.09a8.31,8.31,0,0,0-.57-2.41,125.66,125.66,0,0,0,18.18-1.08L22.5,313a85.62,85.62,0,0,1-9.69,1c-.11.43-.24.86-.37,1.3H22.61v2.42h-11c-.13.38-.28.79-.44,1.16H24v2.54Zm8.43,3.54H9.07v1.16h9.39Zm0,3.16H9.07v1.18h9.39Zm0,4.42v-1.24H9.07v1.24Z"/><path d="M34.58,311.67a43.59,43.59,0,0,1-2.49,5.56v18.55H29.16V322a26.51,26.51,0,0,1-1.76,2.16,20.45,20.45,0,0,0-1.64-3.32,28.84,28.84,0,0,0,5.89-10.13Zm7.72,16.17c-2.8,1.3-5.85,2.62-8.29,3.65l-1.25-3.16c.76-.24,1.66-.57,2.62-.92l-.15-15.22,3,0,.13,14.17L41.73,325Zm6.17,8A48.84,48.84,0,0,0,45,330.7,17.19,17.19,0,0,1,37.56,336a14.89,14.89,0,0,0-2-2.78c8.89-3,10.6-9.28,10.86-21.48l3.14.08c-.23,6.91-.93,12.12-2.85,16.06a53.94,53.94,0,0,1,4.2,5.67Zm-6.63-14.33a32.92,32.92,0,0,0-2.57-6.43l2.57-1.1a30.1,30.1,0,0,1,2.8,6.26Z"/><path d="M67.94,319.34a67.28,67.28,0,0,1,8.63,7.32L74,329.11A60.68,60.68,0,0,0,66,321.8v14H62.65V322.61a31.27,31.27,0,0,1-8.24,6.64,19.85,19.85,0,0,0-2.13-2.92,27.59,27.59,0,0,0,11.17-10.61H53.11v-3.29H75.59v3.29H67.52a27.87,27.87,0,0,1-1.5,2.49V321Z"/><path d="M101.79,332.14c0,1.67-.33,2.59-1.32,3.1s-2.44.62-4.59.62a11.34,11.34,0,0,0-1.06-3.18c1.37.08,2.88.08,3.32.05s.62-.19.62-.62V314.94h-16v20.89h-3V311.89h22Zm-4.56-12.61H84.29v-2.7H97.23Zm-8.87,11.09v1.78H85.51V321.61H96.06v9Zm0-6.37V328h4.85v-3.73Z"/><path d="M107.93,335c2-.67,3.19-1.83,3.35-3.26a1.32,1.32,0,0,1-.29,0,2.33,2.33,0,0,1-2.46-2.4,2.4,2.4,0,0,1,2.54-2.43c1.84,0,2.8,1.43,2.8,3.7a6.75,6.75,0,0,1-5.11,6.56Z"/><path d="M147.7,332c2.38.7,4.76,1.48,6.37,2.05l-2.67,1.78c-1.73-.73-4.74-1.78-7.7-2.67l1.35-1.16H140l1.52,1.08a27.85,27.85,0,0,1-8.76,2.75,14.68,14.68,0,0,0-1.84-2.08,34.8,34.8,0,0,0,6.92-1.75h-3.73v-9H151.3v9Zm6.42-14.2v2.27h-4.33l-.18,2.13H134.68l.26-2.13h-3.78V317.8h4.07l.25-2.16h14.73L150,317.8ZM134.37,317H131.6v-4.72h9.46v-1.65h3.08v1.65h9.52V317h-2.88v-2.21H134.37Zm2.72,8.48h11.07v-.78H137.09Zm0,2.4h11.07v-.81H137.09Zm0,2.43h11.07v-.84H137.09Zm.49-9.69h3.27l.1-.84h-3.26Zm.42-3.35-.1.84h3.26l.08-.84Zm8.94,3.35.08-.84h-3.5l-.1.84Zm.29-3.35h-3.45l-.08.84h3.45Z"/><path d="M162.57,330.19a18.42,18.42,0,0,1-3.73,5.7,18.68,18.68,0,0,0-2.59-1.89,13.24,13.24,0,0,0,3.31-4.67Zm5.89-18.52v17.44H157.88V311.67Zm-7.65,5h4.59v-2.19h-4.59Zm0,4.77h4.59v-2.24h-4.59Zm0,4.78h4.59V324h-4.59Zm5.65,3.1a20.25,20.25,0,0,1,2.9,4.67l-2.82,1.38a22.18,22.18,0,0,0-2.78-4.88Zm6.95-15.46v15.2h-3v-15.2Zm6.17-2.73V332c0,1.89-.37,2.78-1.43,3.29s-2.8.62-5.16.62a13.94,13.94,0,0,0-1.06-3.32c1.69,0,3.34,0,3.89,0s.7-.16.7-.64V311.16Z"/><path d="M189.55,327.49c-.26-.81-.8-2.08-1.32-3.29v11.61h-2.75v-10a23.24,23.24,0,0,1-2.07,5.07,18.54,18.54,0,0,0-1.3-2.73,29.14,29.14,0,0,0,3.17-9.09h-2.57v-2.92h2.77v-5.56h2.75v5.56h2.36v2.92h-2.36v1.43c.62.94,2,3.35,2.59,4.4v-5.21h5.32v8.15H192.9v1.84h-2.08v-4.16Zm.63,4.75h16.41v2.7H190.18Zm3-13.49c.44-1.24.91-2.95,1.3-4.54h-3.84v-2.67H206v2.67h-8.71c-.16.65-.34,1.3-.5,2h3.11s0,.83,0,1.18l0,3.08,1.87-.46a20.93,20.93,0,0,0,1,3.21,24.59,24.59,0,0,0,.72-3.67h-2.95v-2.37h3.6l.44-.06,1.51.33a30.5,30.5,0,0,1-1.82,8.74,8.66,8.66,0,0,0,2.65,2.73,9.81,9.81,0,0,0-1.74,2.16,9.69,9.69,0,0,1-2.2-2.38,11.13,11.13,0,0,1-2,2.35,7.7,7.7,0,0,0-1.34-1.78,4.17,4.17,0,0,1-.39,1.35,2.22,2.22,0,0,1-1.66,1.08,15.53,15.53,0,0,1-2.6.11,6.09,6.09,0,0,0-.64-2.43,17,17,0,0,0,1.89.05.65.65,0,0,0,.72-.35c.34-.59.42-3.18.5-10.47h-1.27l-.18.59Zm-.28,3.1v3.86h1.16v-3.86Zm7-1.21c-.05,4.23-.13,6.77-.31,8.26a9.07,9.07,0,0,0,2-2.73A28.63,28.63,0,0,1,199.87,320.64Z"/><path d="M232.3,326.36c-.44,5.24-.88,7.5-1.69,8.37a2.74,2.74,0,0,1-1.94,1,22.42,22.42,0,0,1-3.09,0,7.16,7.16,0,0,0-.83-2.86,20.36,20.36,0,0,0,2.52.13,1.07,1.07,0,0,0,.85-.29c.42-.44.76-1.79,1.07-4.86H213.76a14.59,14.59,0,0,1-1.32.91l2.36.79a11.48,11.48,0,0,1-3,6.1l-2.41-1.59a9.93,9.93,0,0,0,2.8-5.11c-.63.41-1.28.76-1.92,1.11a20.61,20.61,0,0,0-1.61-2.81,24,24,0,0,0,9.93-9.25h-8.32v-2.81h4.35a23.17,23.17,0,0,0-1.63-3.43l2.67-1.08a19.26,19.26,0,0,1,2,3.94l-1.3.57h3.76a32.16,32.16,0,0,0,1.79-4.62l3.08.89c-.44,1.27-.93,2.51-1.48,3.73h5.09c-.26,1.62-.65,3.45-1,4.94h3c-.29,1.62-.63,3.51-.94,5h2.78Zm-14.1,3.21a19.81,19.81,0,0,1,.7,5l-2.67.35a19.57,19.57,0,0,0-.52-5Zm.64-6.61a24.62,24.62,0,0,1-1.94,2.18h9.9c.16-.64.31-1.4.47-2.18Zm3.19,6.13a21.55,21.55,0,0,1,1.25,4.37l-2.47.65a23.87,23.87,0,0,0-1.19-4.49Zm.05-11c-.38.72-.8,1.43-1.24,2.13h4c.15-.65.31-1.38.44-2.13ZM225,332.7a15.65,15.65,0,0,0-1.53-3.64l2.13-.76a14.29,14.29,0,0,1,1.68,3.57Z"/><path d="M241.76,320.83c.9,1,3.11,3.8,3.63,4.48l-1.77,2.61c-.39-.86-1.14-2.13-1.86-3.34v11.23h-3V325.14a23.44,23.44,0,0,1-2.93,6.08,15.92,15.92,0,0,0-1.45-3,26.65,26.65,0,0,0,4-9h-3.35v-3h3.71v-5.54h3v5.54H245v3h-3.24Zm16.3-8.75v23.35H255v-1.38h-6.09v1.54h-3V312.08Zm-9.2,3v3.35H255V315.1Zm0,6.24v3.43H255v-3.43Zm6.09,9.8v-3.46h-6.09v3.46Z"/><path d="M268.89,311.67a42.17,42.17,0,0,1-2.48,5.56v18.55h-2.93V322a24.62,24.62,0,0,1-1.77,2.16,19.6,19.6,0,0,0-1.63-3.32A29.14,29.14,0,0,0,266,310.7Zm7.73,16.17c-2.8,1.3-5.86,2.62-8.3,3.65l-1.24-3.16c.75-.24,1.66-.57,2.62-.92l-.16-15.22,3,0,.13,14.17,3.37-1.29Zm6.17,8a49.11,49.11,0,0,0-3.45-5.16,17.1,17.1,0,0,1-7.46,5.32,15.37,15.37,0,0,0-2-2.78c8.89-3,10.6-9.28,10.86-21.48l3.14.08c-.24,6.91-.94,12.12-2.86,16.06a52.56,52.56,0,0,1,4.2,5.67Zm-6.64-14.33a32.83,32.83,0,0,0-2.56-6.43l2.56-1.1a30.1,30.1,0,0,1,2.8,6.26Z"/><path d="M296.19,317.05a2.46,2.46,0,1,1,2.46,2.51A2.47,2.47,0,0,1,296.19,317.05Zm0,12.87a2.46,2.46,0,1,1,2.46,2.51A2.46,2.46,0,0,1,296.19,329.92Z"/><path d="M335.41,323.42a26.84,26.84,0,0,1-4.31,5.91c.7,2.08,1.51,3.32,2.29,3.32.54,0,.85-1.3,1-4.48a7.89,7.89,0,0,0,2.54,1.83c-.49,4.73-1.45,5.91-3.81,5.91-1.89,0-3.34-1.62-4.46-4.26a27.22,27.22,0,0,1-4.79,3.29,14.26,14.26,0,0,0-2.05-2.59,26.56,26.56,0,0,0,5.78-3.8,51.94,51.94,0,0,1-1.32-7.24H321v3.08c1.33-.24,2.67-.51,4-.76l.23,2.92-4.23.89v4.61c0,1.76-.36,2.62-1.4,3.14a10.86,10.86,0,0,1-4.66.62,13.31,13.31,0,0,0-1.09-3.24c1.45.08,3,.05,3.42,0s.62-.13.62-.56v-3.92c-1.66.35-3.26.7-4.64,1l-.75-3.24c1.48-.25,3.34-.54,5.39-.92v-3.62H313v-3.05h4.9v-3.08c-1.4.25-2.82.44-4.14.6a12.39,12.39,0,0,0-.89-2.7,63.57,63.57,0,0,0,10.3-2.27l2.07,2.73c-1.3.4-2.72.75-4.23,1.08v3.64h5c-.21-2.43-.28-4.94-.31-7.4h3.24a69,69,0,0,0,.26,7.4h7v3.05h-6.74c.21,1.62.47,3.19.75,4.56a22.25,22.25,0,0,0,2.47-3.67Zm-1.89-5.94a21.63,21.63,0,0,0-3.69-4.46l2.34-1.64a22.88,22.88,0,0,1,3.83,4.29Z"/><path d="M353.52,322.34h-4.45v13.41h-2.86V312.11c-.51,1.54-1.11,3.13-1.78,4.67v19H341.5v-13.5a21.43,21.43,0,0,1-1.61,2.21,22.66,22.66,0,0,0-1.48-3.45,30,30,0,0,0,5.13-10.42l2.86.89-.16.51h7.28Zm-4.45-7.86V316h2.12v-1.54Zm2.12,5.43v-1.6h-2.12v1.6Zm11.2,12.17c0,1.78-.36,2.65-1.4,3.11s-2.7.59-5.13.59a12.06,12.06,0,0,0-1-3.1c1.58.1,3.37.08,3.89.05s.68-.16.68-.68v-9.71h-4.75V312.05h7.7Zm-5.26-17.6V316h2.31v-1.54Zm2.31,5.43v-1.6h-2.31v1.6Z"/><path d="M389.71,313.46c-.93,2.59-2.07,5.64-3.14,8a8.84,8.84,0,0,1,2.65,6.27c0,2-.42,3.34-1.45,4a3.87,3.87,0,0,1-1.82.73,12.69,12.69,0,0,1-2.25,0,8.24,8.24,0,0,0-.78-3.1,11.72,11.72,0,0,0,1.63.05,2.08,2.08,0,0,0,1-.24c.49-.3.67-.95.67-1.84a7.87,7.87,0,0,0-2.67-5.53c.75-1.95,1.63-4.67,2.28-6.75h-3.29v20.68h-3V312.7a33.26,33.26,0,0,1-2.78,5.75h1.92v2.81h-3.86c-.54.7-1.09,1.32-1.66,2h4.67V335.4h-2.93v-1h-4.18v1.37h-2.8v-8.18c-.44.3-.88.57-1.29.81a17.06,17.06,0,0,0-1.79-2.67,23.79,23.79,0,0,0,6.19-4.45h-5.52v-2.81H370v-2.21h-3.39v-2.76H370v-2.62h2.85v2.62h2.68v1.38a26.56,26.56,0,0,0,1.27-3l2.72.78v-.51H387l.47-.11Zm-14.8,12.31h-4.18v1.72h4.18Zm0,6V329.9h-4.18v1.91Zm-1.51-13.36c.5-.7,1-1.43,1.43-2.21h-1.95v2.21Z"/><path d="M405.21,332.35c.67,0,1.37.08,2.07.08,1.45,0,6.43,0,8.27-.08a11.16,11.16,0,0,0-1,3.08h-7.39c-4.75,0-8-.7-10.14-3.83a12,12,0,0,1-3.63,4.29,12.43,12.43,0,0,0-2.33-2.24c2.64-1.7,4.22-4.56,4.82-8.18l3.08.48c-.18.87-.38,1.68-.59,2.46a5.75,5.75,0,0,0,3.73,3.37v-6.85H392v-2.84h22.87v2.84h-9.62v2h8v2.78h-8Zm7.15-11.44h-18v-9.37h18Zm-3.13-7.13H397.35v1.38h11.88Zm0,3.48H397.35v1.41h11.88Z"/><path d="M440.85,316.7s0,1.05,0,1.43c-.23,11-.44,14.95-1.27,16.19a2.87,2.87,0,0,1-2,1.35,16.65,16.65,0,0,1-3.22.11,7.71,7.71,0,0,0-.91-3.08c1.14.11,2.13.14,2.62.14a.93.93,0,0,0,.88-.46c.55-.73.81-4,1-12.74h-2.33c-.34,7.23-1.53,12.79-5.89,16.38a10.06,10.06,0,0,0-1.81-2.13c-3.73.4-7.47.81-10.27,1.05l-.36-2.7,5.26-.37v-1.62h-4.56V328h4.56v-1.05H418v-8.35h4.46v-1.05h-5.1v-2.32h5.1v-1.08c-1.5.11-3,.19-4.38.22a10.34,10.34,0,0,0-.67-2.27,79.05,79.05,0,0,0,11.17-1.32l1.35,2.4a47,47,0,0,1-4.67.73v1.32h5v1.49h2.44c0-1.79,0-3.65,0-5.65h3c0,2,0,3.86-.05,5.65Zm-20.43,5.1h2v-1.19h-2Zm2,3.13v-1.22h-2v1.22Zm2.8,6.69c1.48-.11,3-.24,4.51-.38,2-2.91,2.65-6.77,2.83-11.6h-2.36v-2.11h-5v1.05h4.59v8.35h-4.59V328h4.7v2.27h-4.7Zm2-9.82v-1.19h-2v1.19Zm-2,1.91v1.22h2v-1.22Z"/><path d="M451.71,332.46c0,1.35-.18,2.27-.94,2.75s-1.73.57-3.24.57a11.53,11.53,0,0,0-.77-3c.8.05,1.6.05,1.89.05s.34-.1.34-.46v-5.5h-2.13a32.34,32.34,0,0,1-1.56,8.88A10.16,10.16,0,0,0,443,334.4c1.37-3.72,1.47-9.15,1.47-13.06v-9.77h7.29ZM449,324v-3.35h-2v.73c0,.81,0,1.7,0,2.62Zm-2-9.51v3.24h2v-3.24Zm8.27,6.91A29.42,29.42,0,0,0,452,315.8a38.92,38.92,0,0,0,2.82-5.15l2.7.65c-.8,1.54-1.74,3.1-2.59,4.48a28,28,0,0,1,2.85,4.48Zm6.27-.75c-.26.57-.55,1.11-.81,1.62h5.94v13.44h-2.85v-.89H455.7v1H453V322.23h4.49c.2-.73.41-1.49.52-2.11l1.55.22a31.61,31.61,0,0,0-3-4.64,40.19,40.19,0,0,0,2.86-5.05l2.67.65c-.78,1.51-1.77,3.05-2.62,4.37a29.14,29.14,0,0,1,3,4.37l-1.17.52Zm2.28,4.24h-2.62l2,1a17.55,17.55,0,0,1-1.61,2.29,19.74,19.74,0,0,1,2,1.81l-1.71,1.81A18,18,0,0,0,460,330a19.31,19.31,0,0,1-2.67,2.21,11.72,11.72,0,0,0-1.58-1.67v1.7h8.14Zm-8.14,0v5.59a13.92,13.92,0,0,0,2.44-1.95c-.7-.51-1.43-1-2.08-1.46l1.61-1.59c.65.38,1.32.87,2,1.35a14.5,14.5,0,0,0,1.32-1.94Zm9.13-3.57a29.19,29.19,0,0,0-3.87-5.5,49.8,49.8,0,0,0,3.09-5.13l2.77.7a48,48,0,0,1-2.72,4.37,31,31,0,0,1,3.27,4.3Z"/><path d="M473.74,321.5a15.47,15.47,0,0,1-2.93,3.91,11.25,11.25,0,0,0-2-2.21,16,16,0,0,0,4.41-6h-3.76v-2.73h4.25v-3.8h2.93v3.8h3.65v2.73h-3.65v1a48.39,48.39,0,0,1,4.09,3l-1.6,2.56c-.6-.67-1.56-1.64-2.49-2.53v5.64h-2.93ZM469,332.89a19.18,19.18,0,0,0,2.26-5.56l2.74,1.13a27,27,0,0,1-2.17,5.89Zm14.8-.43c1.22,0,1.4-.38,1.56-3.11a7.19,7.19,0,0,0,2.77,1.14c-.39,3.86-1.24,4.8-4.09,4.8h-4.67c-3.53,0-4.41-.89-4.41-3.69v-3.7h3v3.64c0,.81.26.92,1.66.92Zm-3-6.69.51.48V312h10.53v14.52H481.59c1,1,2.13,2.11,2.75,2.86l-2.23,1.95a38.11,38.11,0,0,0-3.42-3.75Zm3.31-9.7h4.77v-1.56h-4.77Zm0,3.95h4.77v-1.57h-4.77Zm0,4h4.77v-1.62h-4.77Zm6,3c1,1.67,2.54,4,3.24,5.37l-2.87,1.54c-.63-1.43-2.05-3.81-3.06-5.62Z"/><path d="M516.59,313.86a31.79,31.79,0,0,1-7.16,14.06,23.69,23.69,0,0,0,9.78,4.86,16,16,0,0,0-2.18,3.08,24.42,24.42,0,0,1-10.14-5.48,29.31,29.31,0,0,1-10,5.56,12.57,12.57,0,0,0-2-3.13,28.93,28.93,0,0,0,9.74-4.91A33.17,33.17,0,0,1,499,317.15l3.08-.91a26,26,0,0,0,4.95,9.34,24.76,24.76,0,0,0,5.45-9.51h-16v-3.15h17.27l.54-.17Z"/><path d="M24.06,378.7s0,1.05,0,1.43c-.23,11-.44,14.95-1.27,16.19a2.87,2.87,0,0,1-2.05,1.35,16.54,16.54,0,0,1-3.21.11,7.71,7.71,0,0,0-.91-3.08c1.14.11,2.13.14,2.62.14a.93.93,0,0,0,.88-.46c.55-.73.81-4,1-12.74H18.72c-.34,7.23-1.53,12.79-5.89,16.38A10.36,10.36,0,0,0,11,395.89c-3.74.4-7.47.81-10.27,1.05l-.36-2.7,5.26-.37v-1.62H1.09V390H5.65v-1.05H1.19v-8.35H5.65v-1.05H.54v-2.32H5.65v-1.08c-1.5.11-3,.19-4.38.22a10.34,10.34,0,0,0-.67-2.27,79.05,79.05,0,0,0,11.17-1.32l1.35,2.4c-1.38.3-3,.54-4.67.73v1.32h5v1.49h2.44c0-1.79,0-3.65,0-5.65h3c0,2,0,3.86-.05,5.65ZM3.63,383.8h2v-1.19h-2Zm2,3.13v-1.22h-2v1.22Zm2.8,6.69c1.48-.11,3-.24,4.51-.38,2-2.91,2.65-6.77,2.83-11.6H13.43v-2.11h-5v1.05H13v8.35H8.45V390h4.69v2.27H8.45Zm2-9.82v-1.19h-2v1.19Zm-2,1.91v1.22h2v-1.22Z"/><path d="M50.29,389.57H40.05V394c0,1.92-.47,2.76-1.69,3.27a16.75,16.75,0,0,1-5.75.54,12.88,12.88,0,0,0-1.27-3.19c1.92.09,4.09.09,4.66.09s.83-.22.83-.76v-4.35H26.59v-3.13H36.83v-3.16H28.36v-3.07h8.47v-3.16c-2.69.24-5.41.4-7.95.51a11.25,11.25,0,0,0-.78-2.83c6.25-.27,13.35-1,17.6-2.16l2.23,2.67a59,59,0,0,1-7.88,1.43v3.54h8.71v3.07H40.05v3.16H50.29Z"/><path d="M59.72,373.57A57.36,57.36,0,0,1,57.65,379v18.79H54.82v-13.5a24.87,24.87,0,0,1-1.58,2.21,22.28,22.28,0,0,0-1.5-3.48,29.91,29.91,0,0,0,5.13-10.36Zm15.5,6.72A35,35,0,0,1,72.89,391a11.39,11.39,0,0,0,3.68,4.24,12.83,12.83,0,0,0-1.84,2.54,13.34,13.34,0,0,1-3.37-4,14.4,14.4,0,0,1-3.89,4,16.37,16.37,0,0,0-1.84-2.16c.34-.22.7-.46,1-.73h-5v1.91H59.07V384.8h2.6v-4.4h-3v-2.89h3V373h2.9v4.54h2.69v2.89H64.57v4.4h2c-.23-.36-.47-.68-.62-.9,1.79-2.67,2.77-6.91,3.32-11.25l2.74.49c-.23,1.48-.49,3-.8,4.45h5.29v2.7Zm-10.83,7.23H61.72v4.62h2.67Zm2.69,7a12.73,12.73,0,0,0,3-3.64,32.47,32.47,0,0,1-1.53-5.72,11.92,11.92,0,0,1-.91,1.48,6.36,6.36,0,0,0-.52-.94Zm3.37-14.22c-.07.27-.15.51-.23.78a37.8,37.8,0,0,0,1.22,6.26,37.35,37.35,0,0,0,1.19-7Z"/><path d="M101.71,376.78s0,1.08,0,1.46c-.34,12.06-.62,16.35-1.69,17.78a3.42,3.42,0,0,1-2.49,1.49,27.82,27.82,0,0,1-4.07.05,7.66,7.66,0,0,0-1-3.13c1.66.16,3.19.16,3.87.16a1.36,1.36,0,0,0,1.14-.45c.75-.87,1.09-4.92,1.37-14.45H93.26A23.57,23.57,0,0,1,91,384a16.67,16.67,0,0,0-2-1.51v12.6H82.06v2h-2.8V377h2.93a29.17,29.17,0,0,0,.75-4.35l3.37.49c-.44,1.35-.9,2.7-1.34,3.86h4v4.37a28.34,28.34,0,0,0,3.5-8.69l2.93.7a29.88,29.88,0,0,1-1,3.43Zm-15.52,3H82.06v4.38h4.13Zm0,12.45v-5.29H82.06v5.29Zm8.6-1.46a57.16,57.16,0,0,0-3.6-6.23l2.41-1.43a63,63,0,0,1,3.81,6Z"/><path d="M109.12,380v-1a25.41,25.41,0,0,1-2.3,2h10.37v8.4h-8.38c0,.35-.1.73-.18,1.08h9v7.26h-2.67v-.76h-4.39v.84h-2.59v-4.45a13,13,0,0,1-2,3.94,9.41,9.41,0,0,0-2-1.92c2.28-3.1,2.57-7.42,2.57-10.47v-3.67l-.86.59a9,9,0,0,0-1.84-2.27,18.29,18.29,0,0,0,6.51-6.58H113a52.4,52.4,0,0,1,5.42,4.85l-2,2.38c-.37-.43-.83-1-1.38-1.57V380Zm5.29,7.1v-1h-5.34c0,.33,0,.68,0,1Zm-5.31-3.92v1h5.31v-1Zm5.29-5.34c-.76-.76-1.56-1.54-2.31-2.16-.54.7-1.14,1.43-1.82,2.16Zm-3.87,14.87v1.92h4.39v-1.92Zm11.1-1.64h-2.9v-15.2h2.9Zm5.76-17.93V394c0,1.78-.34,2.67-1.38,3.16s-2.59.65-4.82.65a13.63,13.63,0,0,0-1-3.27c1.55,0,3.06,0,3.55,0s.65-.16.65-.62V373.16Z"/><path d="M129.91,395.59a8.89,8.89,0,0,0,3.4-4.56l2.59,1a10.27,10.27,0,0,1-3.58,5.31Zm23.44-14.74H130.92v-2.48h5.55a18.72,18.72,0,0,0-.65-1.81l.13,0h-3.76v-2.49h8.35v-1.43h3.06v1.43H152v2.49h-3.65l.39.08c-.39.7-.78,1.27-1.09,1.75h5.73ZM144.53,395c1,0,1.12-.29,1.25-2.21a8,8,0,0,0,2.61,1c-.33,3-1.16,3.76-3.57,3.76h-4.18c-3.26,0-4.07-.79-4.07-3.35v-2.84h2.8l-.31-.13,1.06-1.08h-6.48V382h17.19v8.18h-8.42a16,16,0,0,1,2.69,1.65l-1.86,2a16.66,16.66,0,0,0-3.66-2.32v2.7c0,.73.21.81,1.37.81Zm-8-9.88h11.2v-1.16h-11.2Zm0,3.08h11.2V387h-11.2Zm2.34-11.63a16.54,16.54,0,0,1,.62,1.75l-.34.08H145l-.37-.08c.24-.51.55-1.19.76-1.75ZM150,390.71a19.26,19.26,0,0,1,4.22,4.88l-2.54,1.54a22.21,22.21,0,0,0-4.07-5.05Z"/><path d="M169.39,373.24c0,.43,0,1-.08,1.54.21,3.73,1.5,15.36,11.17,20.08a10.66,10.66,0,0,0-2.38,2.73c-5.86-3-8.76-8.58-10.21-13.55a23,23,0,0,1-9.6,13.55A10.68,10.68,0,0,0,155.7,395c10.34-6,10-18.22,10.16-21.79Z"/><path d="M182.24,384.47h21V387h-21Z"/><path d="M215.53,382.83c.9,1,3.11,3.8,3.63,4.48l-1.77,2.61c-.39-.86-1.14-2.13-1.86-3.34v11.23h-3V387.14a23.44,23.44,0,0,1-2.93,6.08,15.92,15.92,0,0,0-1.45-3,26.65,26.65,0,0,0,4-9h-3.35v-3h3.71v-5.54h3v5.54h3.24v3h-3.24Zm16.3-8.75v23.35h-3.11v-1.38h-6.09v1.54h-3V374.08Zm-9.2,3v3.35h6.09V377.1Zm0,6.24v3.43h6.09v-3.43Zm6.09,9.8v-3.46h-6.09v3.46Z"/><path d="M243,373.65a45.9,45.9,0,0,1-2.41,5.21v18.89h-2.93V383.5a28.06,28.06,0,0,1-2.15,2.54,21.49,21.49,0,0,0-1.61-3.27,28.92,28.92,0,0,0,6.25-10.09Zm15.63,3.86v2.59H242.07v-2.59Zm-15,11.58h13.53v8.64h-3.11v-1h-7.46v1.08h-3Zm13.17-5.19H244.12v-2.48h12.75Zm-12.75,1.35h12.65v2.52H244.12Zm12.28-9.06H244.53v-2.52H256.4Zm-9.74,15.38v2.65h7.46v-2.65Z"/><path d="M271.1,391.25a34.34,34.34,0,0,1-7.83,6.61,28.89,28.89,0,0,0-2.59-2.29,24.11,24.11,0,0,0,7.07-5.7Zm-4.41-2.14h-3.11V374.27h18.3V389h-3.21v-.73h-12Zm0-11.76v7.82h12v-7.82Zm10,12.49a54.53,54.53,0,0,1,7.23,6.1l-2.82,2a58,58,0,0,0-7-6.34Z"/><path d="M296,378.88a23.4,23.4,0,0,1-1,2.14h12v13.33c0,1.59-.28,2.46-1.34,2.94s-2.49.54-4.59.54a13.63,13.63,0,0,0-.94-3.1c1.33.08,2.83.08,3.27.08s.6-.16.6-.54v-1.62h-9.36v5.16h-3.06V386.06a19.27,19.27,0,0,1-3.42,3.16,17.49,17.49,0,0,0-2-2.45,20.78,20.78,0,0,0,6.46-7.89h-5.68v-3h7a29.55,29.55,0,0,0,1-3.26l3.19.75c-.26.84-.52,1.67-.83,2.51h12.65v3Zm8,4.94h-9.36v1.73H304Zm0,6.16v-1.76h-9.36V390Z"/><path d="M323.67,378.21a36.5,36.5,0,0,1-2.44,12.06,21.83,21.83,0,0,1,3,2.84l-1.79,2.75a21.13,21.13,0,0,0-2.72-2.8,14.52,14.52,0,0,1-5.37,4.77,12.24,12.24,0,0,0-1.81-2.64,11.2,11.2,0,0,0,4.79-4.1c-.59-.46-1.22-.92-1.81-1.35l-.26,1-2.59-1.29c.62-2.24,1.35-5.29,2-8.45h-2.28v-3h2.9c.36-1.87.7-3.7,1-5.35l3,.3c-.31,1.59-.65,3.29-1,5.05h3l.54-.08Zm-6.1,2.78c-.44,2-.88,3.94-1.32,5.78.8.51,1.63,1.05,2.46,1.64A27.84,27.84,0,0,0,320.5,381Zm17.89-5.61V396.7H332.4v-1.59h-4.56v2h-2.93V375.38Zm-3.06,16.68V378.4h-4.56v13.66Z"/><path d="M351.48,392.11l.2,3.16c-4.35.86-9.1,1.75-12.49,2.43l-.49-3.4c.59-.08,1.22-.19,1.89-.3V378.21h3v15.3l1.89-.32V372.65h3.19v8h2.95v3.08h-2.95v8.93Zm7.59,2.05c.83,0,1-.94,1.12-4.45a9.49,9.49,0,0,0,2.88,1.4c-.32,4.46-1.12,6.18-3.71,6.18h-3.14c-2.85,0-3.65-1.1-3.65-4.88V372.65h3.21v9a36.56,36.56,0,0,0,4.23-3.24l2.46,2.65a49.91,49.91,0,0,1-6.69,3.88v7.48c0,1.49.13,1.7,1,1.7Z"/><path d="M378.69,380.58l0,4a21.51,21.51,0,0,0,4.23-3.37l3,2a38.19,38.19,0,0,1-7.23,5.18l0,5.51c0,1.94-.39,2.86-1.55,3.37s-3,.65-5.45.65a13.83,13.83,0,0,0-1.22-3.35c1.77.08,3.63.06,4.2.06s.73-.19.73-.73l0-3.81a57,57,0,0,1-9.38,3.48,19.69,19.69,0,0,0-1.69-3,52.81,52.81,0,0,0,11.05-4.05l0-5.86H365.29v-3.15h10.09l0-4.81,3.29,0,0,4.83H388v3.15Z"/><path d="M401,374.4a26.74,26.74,0,0,1,3.13,6.27l-2.82,1.18a9.87,9.87,0,0,0-.47-1.43c-3.42.25-6.95.46-9.59.62L391,378c.62,0,1.3,0,2-.05a44.55,44.55,0,0,0,1.9-5.43l3.21.68c-.6,1.56-1.3,3.18-1.94,4.61l3.44-.16c-.38-.75-.8-1.51-1.21-2.21Zm1.29,20.17c0,1.4-.25,2.18-1.11,2.64a7.32,7.32,0,0,1-3.63.54,12.82,12.82,0,0,0-1-2.83c.9.05,1.94,0,2.28,0s.41-.08.41-.41V392.7h-3.89v5.11h-2.85v-15.5h9.77ZM395.33,385v1.4h3.89V385Zm3.89,5.37v-1.59h-3.89v1.59Zm8.84-5.59c-3,0-3.76-.94-3.76-3.91V372.7h3.06v3.86a39.62,39.62,0,0,0,4.67-2.24l2,2.32a45.31,45.31,0,0,1-6.64,2.54v1.59c0,1,.16,1.08,1.14,1.08h2.83c.83,0,1-.4,1.11-2.75a8.3,8.3,0,0,0,2.73,1.19c-.34,3.45-1.15,4.45-3.53,4.45Zm3.42,10.1c.89,0,1.07-.52,1.2-3.24a9.59,9.59,0,0,0,2.69,1.19c-.33,3.8-1.11,4.85-3.6,4.85h-3.68c-3,0-3.79-.91-3.79-3.88v-8.48h3v3.65a30,30,0,0,0,4.87-2.54l2.05,2.35a39.37,39.37,0,0,1-6.92,2.86v2.16c0,.94.18,1.08,1.19,1.08Z"/><path d="M434.06,394c2.38.7,4.77,1.48,6.38,2.05l-2.67,1.78c-1.74-.73-4.75-1.78-7.7-2.67l1.35-1.16h-5.06l1.53,1.08a27.85,27.85,0,0,1-8.76,2.75,16,16,0,0,0-1.84-2.08,34.8,34.8,0,0,0,6.92-1.75h-3.74v-9h17.19v9Zm6.43-14.2v2.27h-4.33L436,384.2H421l.26-2.13h-3.78V379.8h4.07l.26-2.16h14.72l-.2,2.16ZM420.73,379H418v-4.72h9.46v-1.65h3.09v1.65H440V379h-2.88v-2.21H420.73Zm2.73,8.48h11.07v-.78H423.46Zm0,2.4h11.07v-.81H423.46Zm0,2.43h11.07v-.84H423.46Zm.49-9.69h3.26l.11-.84h-3.27Zm.41-3.35-.1.84h3.27l.07-.84Zm8.95,3.35.07-.84h-3.49l-.11.84Zm.28-3.35h-3.45l-.07.84h3.44Z"/><path d="M452.67,391.19l-9.41,2.86-.78-3c1-.24,2.31-.59,3.71-1v-5.43h-2.88v-2.94h2.88V377h-3.11v-3h9.07v3h-3v4.7h2.69v2.94h-2.69v4.62l3.08-.89Zm11.51,3.75c.47,0,.57-.43.62-3.13a7.75,7.75,0,0,0,2.57,1.19c-.26,3.7-.94,4.7-2.85,4.7h-1.95c-2.38,0-2.9-.92-2.9-3.65v-5.29h-1.58c-.47,4.4-1.66,7.53-7.18,9.24a9.5,9.5,0,0,0-1.72-2.65c4.7-1.21,5.53-3.43,5.86-6.59h-1.89V373.65h12.65v15.11h-3.19v5.29c0,.79.06.89.5.89Zm-8.14-17h6.76v-1.67H456Zm0,4.1h6.76v-1.67H456Zm0,4.11h6.76v-1.68H456Z"/><path d="M483,386a13.39,13.39,0,0,0,10.16,8.77,14.37,14.37,0,0,0-2.12,3.13,14.9,14.9,0,0,1-10-8.61c-1.4,3.48-4.36,6.69-10.45,8.64a12.2,12.2,0,0,0-1.89-2.89c6.58-2,9-5.53,9.85-9h-8.37v-3.3H479v-4.94h-9.62V374.4h23v3.32H482.22v4.94h9.38V386Z"/><path d="M494.45,396A10.93,10.93,0,0,0,497.2,390l2.72.78c-.49,2.65-1.25,5.29-3,6.91Zm23.85-9.52s0,.83,0,1.27c-.34,5.64-.68,8-1.43,8.93a2.78,2.78,0,0,1-1.94,1,20.15,20.15,0,0,1-3.17.08,7.5,7.5,0,0,0-.85-3,18.24,18.24,0,0,0,2.44.1,1,1,0,0,0,.88-.29c.36-.46.65-1.89.88-5.37H497.82V373.67h18.59v2.76H508.6v1.67h6.9v2.54h-6.9v1.67h6.9v2.49h-6.9v1.7Zm-17.45-10.07v1.67h4.69v-1.67Zm4.69,4.21h-4.69v1.67h4.69Zm-4.69,5.86h4.69v-1.7h-4.69Zm2.62,4.26a25.26,25.26,0,0,1,1,5.53l-2.75.49a26.2,26.2,0,0,0-.85-5.59Zm4.25-.27a23.21,23.21,0,0,1,1.56,4.91l-2.54.71a22.82,22.82,0,0,0-1.4-5Zm3.53,4a17.45,17.45,0,0,0-1.79-3.86l2.23-.78a17,17,0,0,1,1.94,3.75Z"/><path d="M10.08,441.64a34.25,34.25,0,0,1-2.77,4.13v14.09H4.23V449.31c-.73.72-1.43,1.4-2.13,2A33.85,33.85,0,0,0,0,448.52a26,26,0,0,0,7.13-8.07Zm-.95-5.75A35.52,35.52,0,0,1,2,443a19.3,19.3,0,0,0-1.71-2.62,23.38,23.38,0,0,0,5.85-5.75Zm15.24,10.74H20.82v9.48c0,1.73-.31,2.62-1.45,3.1s-2.75.54-5.06.54a13.86,13.86,0,0,0-.93-3.26c1.47.08,3.19.08,3.65.05s.65-.11.65-.51v-9.4H10v-3.05H24.37Zm-.65-7.42H11.12v-3h12.6Z"/><path d="M37.15,440c-.47,4.48-1.9,7.31-8.48,8.8a9.13,9.13,0,0,0-1.66-2.7c5.65-1,6.56-2.92,7-6.1H30.4v3.13h-3v-6.05h9.39v-2.43h3.16v2.43h9.62v5.59H46.35V440H42.69v4.26c0,.73.16.84,1,.84H46c.65,0,.78-.27.88-2a7.89,7.89,0,0,0,2.65,1.1c-.32,2.84-1.15,3.59-3.22,3.59H43.19c-2.91,0-3.53-.86-3.53-3.53V440Zm12.62,16.22v2.91H27.09v-2.91h9.67v-4H29.81v-2.89H47.57v2.89H39.92v4Z"/><path d="M75.79,438.78s0,1.08,0,1.46c-.34,12.06-.62,16.35-1.69,17.78a3.42,3.42,0,0,1-2.49,1.49,27.82,27.82,0,0,1-4.07.05,7.66,7.66,0,0,0-1-3.13c1.66.16,3.19.16,3.87.16a1.36,1.36,0,0,0,1.14-.45c.75-.87,1.09-4.92,1.37-14.45H67.34A23.57,23.57,0,0,1,65.06,446a16.67,16.67,0,0,0-2-1.51v12.6H56.14v2h-2.8V439h2.93a29.17,29.17,0,0,0,.75-4.35l3.38.49c-.45,1.35-.91,2.7-1.35,3.86h4v4.37a28.34,28.34,0,0,0,3.5-8.69l2.93.7a29.88,29.88,0,0,1-1,3.43Zm-15.52,3H56.14v4.38h4.13Zm0,12.45v-5.29H56.14v5.29Zm8.6-1.46a57.16,57.16,0,0,0-3.6-6.23l2.41-1.43a63,63,0,0,1,3.81,6Z"/><path d="M77.92,458.75A10,10,0,0,0,79.68,454l2.07.64c-.31,1.92-.75,4-1.84,5.21Zm.57-8.09,4.61-.14v-1.29h-4V446.8h4v-1.19h-4V435.43H90v10.18h-4.2v1.19H90v2.43H85.82v1.18c1.51-.05,3.06-.13,4.56-.19l0,2.49c-4.2.27-8.63.51-11.77.64Zm2.87-7.21h2.18v-5.86H81.36v1.14l1.22-.38a17.94,17.94,0,0,1,.83,3.88l-1.37.44a17.33,17.33,0,0,0-.68-3.76Zm2.47,10.45a29.59,29.59,0,0,1,.54,4.72l-2,.24a23,23,0,0,0-.44-4.72Zm2.54-.25a25,25,0,0,1,1.11,4.48l-1.89.41A23.67,23.67,0,0,0,84.53,454Zm1.27-16.06H85.41v4.46a28.51,28.51,0,0,0,1-3.73l1.25.46Zm0,5.86v-3.83c-.42,1.13-.83,2.29-1.17,3.07l-1.06-.4v1.16Zm1.24,9.64a17.42,17.42,0,0,1,2,4.18l-1.95.84A19.28,19.28,0,0,0,87,453.79Zm8.45-9.94v4.16h4.15V459.7h-3v-.95h-4.8v1.06h-2.8v-12.5h3.4V434.65h3v5.53h5v3Zm1.2,7.07h-4.8v5.65h4.8Z"/><path d="M128.07,449.6H117.81v6.48c0,1.86-.39,2.73-1.64,3.24a14.9,14.9,0,0,1-5.39.57,14.53,14.53,0,0,0-1.29-3.32c1.79.08,3.78.08,4.38.08s.72-.14.72-.62V449.6H104.3v-3.21h10.29v-4.26h1.53a32.62,32.62,0,0,0,3.71-2.7H107v-3.16h16l.71-.16,2.35,1.83a40.17,40.17,0,0,1-8.29,6.72v1.73h10.26Z"/><path d="M138.34,455.16a4.19,4.19,0,1,1-4.2-4.37A4.29,4.29,0,0,1,138.34,455.16Zm-1.87,0a2.32,2.32,0,1,0-2.33,2.41A2.37,2.37,0,0,0,136.47,455.16Z"/><path d="M14,580.3h9.6v2.89H1.56V580.3h9.25v-3.21H3.63v-2.81h7.18v-3.11H5V569a29.4,29.4,0,0,1-2.88,1.86,11.75,11.75,0,0,0-1.94-2.59,28.68,28.68,0,0,0,10.52-9.77h3.19A27.72,27.72,0,0,0,24.94,568a15.63,15.63,0,0,0-2.05,2.89c-.93-.54-1.87-1.14-2.8-1.81v2.1H14v3.11h7.26v2.81H14Zm5.06-12a32,32,0,0,1-6.69-6.69,30.63,30.63,0,0,1-6.48,6.69Z"/><path d="M44.3,572.15a15.3,15.3,0,0,0,5.68,7.2,7.16,7.16,0,0,0-1.89,2.43,18.15,18.15,0,0,1-5.11-6v4.4c0,1.59-.31,2.46-1.22,2.94a8.31,8.31,0,0,1-4.15.68,11.24,11.24,0,0,0-1.06-3.11c1.3.06,2.49.06,2.9.06s.55-.17.55-.57V566.07H33.88v-2.43H31.34v4.54h2.54v2.94H31.34v4.62c.93-.3,1.87-.57,2.8-.87l.31,2,4.3-2.67.94,2.64c-1.95,1.46-4.13,3-6,4.16l-1.42-2.62c-2.31.81-4.62,1.57-6.51,2.19l-.8-3.05,3.42-.92v-5.48H25.69v-2.94h2.72v-4.54h-2.9v-3h8.65v2.49H40v-4.54h3v4.54h4.09a18.17,18.17,0,0,0-3.16-2.76l1.71-1.67a18.09,18.09,0,0,1,3.45,2.81l-1.55,1.62h2v2.91H43v1a30,30,0,0,0,1.09,4.46A25.7,25.7,0,0,0,46.76,567l2.7,1.48A52.66,52.66,0,0,1,46,573.12Zm-7.8,1.08a21.41,21.41,0,0,0-2.39-4.84l2.39-1.1A20.78,20.78,0,0,1,39,572Z"/><path d="M61,564.88c-.32.73-.65,1.43-1,2.14h12v13.33c0,1.59-.28,2.46-1.35,2.94s-2.49.54-4.58.54a13.63,13.63,0,0,0-.94-3.1c1.32.08,2.83.08,3.27.08s.59-.16.59-.54v-1.62H59.57v5.16H56.51V572.06a19.33,19.33,0,0,1-3.43,3.16,17.41,17.41,0,0,0-2-2.45,20.78,20.78,0,0,0,6.46-7.89H51.84v-3h7a25.81,25.81,0,0,0,1-3.26l3.19.75c-.26.84-.51,1.67-.83,2.51H74.84v3Zm8,4.94H59.57v1.73h9.35Zm0,6.16v-1.76H59.57V576Z"/><path d="M100.81,573.74H95.47v10.07H92.36V573.74H86.94v-3h5.42v-5.4H90.77a22.7,22.7,0,0,1-2.25,4.16,21,21,0,0,0-2.36-1.57v1.4H77.84v-2.45h8.32v.38a13.91,13.91,0,0,0,1-1.6H76.59v-2.53H87.2v2.45a25.63,25.63,0,0,0,2.41-7l3.08.62c-.23,1.08-.52,2.16-.85,3.19h8.42v2.94H95.47v5.4h5.34ZM86.08,582.4H80.43v1.06H77.76v-9.21h8.32Zm-8.24-11.87h8.32v2.4H77.84Zm8.37-8.64H78v-2.43h8.22Zm-5.78,14.9v3.1h3v-3.1Z"/><path d="M125.51,571.39c-3.14,8-10.58,11.2-19.47,12.47a12.53,12.53,0,0,0-1.3-2.94,32.6,32.6,0,0,0,10.11-2.57,27.72,27.72,0,0,0-3.81-2.83,33.21,33.21,0,0,1-3.7,1.62,9.2,9.2,0,0,0-1.9-2.48c5-1.57,8.51-3.89,10.58-6.24a33.42,33.42,0,0,1-12,4.83,11.4,11.4,0,0,0-1.42-2.75,33.54,33.54,0,0,0,8.73-2.67,28.68,28.68,0,0,0-3.47-2.32,29.29,29.29,0,0,1-3,1.4,11,11,0,0,0-2.08-2.38c4.59-1.51,7.78-3.78,9.57-6l3.34.73c-.39.46-.8.92-1.24,1.38h5.18l.52-.14,2,1.19a18.15,18.15,0,0,1-5.34,6.18l3.11.76a20.57,20.57,0,0,1-1.6,1.78h4.64l.54-.14Zm-14.13-8.1c-.31.24-.62.46-1,.7a22.21,22.21,0,0,1,3.58,2.35,16.24,16.24,0,0,0,3.58-3.05Zm3.73,9.8c-.44.32-.88.62-1.37.92a22.86,22.86,0,0,1,3.89,2.75,12.9,12.9,0,0,0,3.58-3.67Z"/><path d="M135.85,559.84a45.11,45.11,0,0,1-2.41,5v19h-3.22V569.61a25.15,25.15,0,0,1-2.69,3,22.38,22.38,0,0,0-1.71-3.27,28.15,28.15,0,0,0,7.07-10.52Zm7.1,9.77c.73,6,2.1,10,4.17,10.26.6,0,.91-1.3,1.12-4.3a10.56,10.56,0,0,0,2.51,1.84c-.64,5.21-2,6.45-3.5,6.37-4.38-.43-6.42-5.51-7.36-13.74l-5.1.73-.45-3.11,5.24-.72c-.18-2.43-.34-5.08-.41-7.91h3.13c0,2.64.16,5.18.34,7.47l7.39-1,.44,3Zm4.64-4.78A22.56,22.56,0,0,0,144,560.3l2.31-1.49a24.27,24.27,0,0,1,3.73,4.35Z"/><path d="M161.25,578.44c-2.85,1-6,2.07-8.45,2.91l-.7-3.27c.9-.24,2-.54,3.16-.89v-6.34h-2.62v-2.94h2.62v-4.75h-2.85v-3H161v3h-2.77v4.75h2.33v2.94h-2.33v5.4c.86-.27,1.71-.54,2.54-.84Zm15.4,1.64V583H160v-2.92h7.15v-2.56h-5.36v-2.89h5.36v-2.32H162V559.76h13.53v12.55h-5.21v2.32h5.5v2.89h-5.5v2.56Zm-11.93-15.36h2.67v-2.24h-2.67Zm0,4.86h2.67v-2.32h-2.67Zm7.83-7.1H170v2.24h2.56Zm0,4.78H170v2.32h2.56Z"/><path d="M197.05,563.59c-.42.78-.81,1.51-1.14,2.1h5.15v14.63c0,1.6-.31,2.46-1.32,3a11,11,0,0,1-4.48.54,13.62,13.62,0,0,0-.88-2.72h-6.33v1.48h-2.72v-8.47h10.16v6.69c.91,0,1.71,0,2,0s.57-.14.57-.54V572a2,2,0,0,1-2.07,1.08h-2.1c-2.31,0-2.77-.73-2.77-2.91v-1.73H189c-.24,3-1.2,4.72-5.14,5.67a6.66,6.66,0,0,0-1.11-1.89v11.55h-2.93V565.69h4.61a18.2,18.2,0,0,0-.8-2.1H179v-2.92h9.64v-2h3.14v2h9.9v2.92Zm-14.26,8.26c2.77-.57,3.37-1.54,3.55-3.4h-3.55Zm9.72-6.16c.31-.64.67-1.4,1-2.1H187a13.37,13.37,0,0,1,.83,2.1Zm.21,10.8h-4.67v2.27h4.67Zm5.36-8h-4.3v1.7c0,.56.08.65.52.65h1.35c.44,0,.54-.19.62-1.49a7.52,7.52,0,0,0,1.81.76Z"/><path d="M211.69,570.07c1,1.08,3.37,3.91,3.94,4.64l-1.76,2.67c-.5-.92-1.33-2.27-2.18-3.53v10h-3.11V574.2a24.42,24.42,0,0,1-3.63,6.45,14.71,14.71,0,0,0-1.56-3,24.19,24.19,0,0,0,4.44-8H204v-3h4.62v-3.51c-1.27.22-2.52.4-3.71.57a11.2,11.2,0,0,0-.83-2.51,44.66,44.66,0,0,0,9.52-2.33l2,2.52a31.68,31.68,0,0,1-3.86,1.13v4.13h3.76v3h-3.76Zm14.8-8.91v21.19H223.3v-2h-4.14v2.14h-3V561.16Zm-3.19,16.17V564.24h-4.14v13.09Z"/><path d="M252.41,577a33.14,33.14,0,0,1-4.28,2.48,17,17,0,0,0,5.63,1.81,10.75,10.75,0,0,0-1.68,2.57c-5.4-1.08-8.64-3.62-10.58-7.91a20.13,20.13,0,0,1-3.06,1.92v2.34c1.68-.21,3.45-.46,5.18-.7l.11,2.51c-3.66.54-7.52,1.08-10.37,1.51l-.44-2.62,2.56-.29v-1.51a29.14,29.14,0,0,1-4.27,1.13,14,14,0,0,0-1.64-2.32,28.51,28.51,0,0,0,8-2.27H230v-2.54H240.1v-1.37h-1a8.6,8.6,0,0,0-.75-1.87c.6,0,1.22,0,1.4,0s.31-.08.31-.29v-1.11h-2.13v3.94h-2.61v-3.94h-1.95v3.35H231v-5.3h4.28v-.94H230v-2.16h1.58c-.52-.32-1.19-.73-1.6-.94a12.08,12.08,0,0,0,2-3.89l2.25.59c-.13.38-.26.73-.41,1.11h1.48v-1.73h2.61v1.73h4.31v2h-4.31v1.08h5v2.16h-5v.94h4.59v3.06c0,1-.18,1.51-.85,1.83a3.37,3.37,0,0,1-1.22.27h2.75v1.4h10.11v2.54h-2.6Zm-17.13-13.55V562.4h-2.47a9.32,9.32,0,0,1-.64,1.08Zm11.43,5.21H244v-9h2.75Zm-2.49,7a9.42,9.42,0,0,0,1.84,2.32,29.89,29.89,0,0,0,3.68-2.32Zm8.11-6.07c0,1.37-.25,2-1.19,2.45a10.39,10.39,0,0,1-4,.44,9.88,9.88,0,0,0-.9-2.54c1.16,0,2.41,0,2.77,0s.49-.11.49-.46V558.81h2.8Z"/><path d="M263.61,559.7a43.72,43.72,0,0,1-2.49,5.62v18.49H258v-13.5c-.55.67-1.09,1.35-1.61,1.94a23.21,23.21,0,0,0-1.71-3.42,28.4,28.4,0,0,0,5.91-10.1Zm8.22,6.37v2.84h6.71v2.91h-6.71v3h7.05v3h-7.05v6h-3.17V566.07h-1a30.23,30.23,0,0,1-3.4,5.24,20.15,20.15,0,0,0-2.36-2.24,27.2,27.2,0,0,0,5.5-10.18l3,.78a31.55,31.55,0,0,1-1.27,3.35h10.06v3.05Z"/><path d="M290.67,560.27a32.81,32.81,0,0,1-7,11,18.83,18.83,0,0,0-2.95-2.4,23.07,23.07,0,0,0,6.45-9.63Zm7.21,12.63a62.85,62.85,0,0,1,6,9.31L300.62,584a18.45,18.45,0,0,0-1.06-2.16c-6.22.43-12.75.84-17.32,1.05l-.41-3.37,3.6-.14a67,67,0,0,0,4.43-10.9l3.71.89a104.37,104.37,0,0,1-4.61,9.85c2.8-.13,5.83-.3,8.84-.46-.94-1.51-2-3.05-2.93-4.37Zm-.37-13.63a36.09,36.09,0,0,0,6.82,9.2,16.46,16.46,0,0,0-2.59,2.81,55.65,55.65,0,0,1-7.31-10.69Z"/><path d="M327.22,579.76c0,1.83-.31,2.8-1.43,3.37s-2.72.65-5,.62a13.57,13.57,0,0,0-1-3.48,33.85,33.85,0,0,0,3.66.05c.46,0,.64-.13.64-.59V563.29H306v-3h21.26ZM321.46,568H306.22v-2.81h15.24Zm-10.91,11.12v1.94h-3V570h12.57v9.13Zm0-6.37v3.61h6.53v-3.61Z"/><path d="M337.35,575.63c-.34-.84-.91-2.11-1.48-3.32v11.5h-2.8v-10.1a23.1,23.1,0,0,1-2.36,5.32,15.5,15.5,0,0,0-1.35-2.84,27.39,27.39,0,0,0,3.48-9H330v-3h3.11v-5.56h2.8v5.56h2.57v3h-2.57v1.27c.73,1.05,2.65,4.16,3.06,4.91Zm6.14,3.26a16.94,16.94,0,0,1-4,4.32,13.26,13.26,0,0,0-1.89-1.94,13.52,13.52,0,0,0,3.57-3.75Zm4.07-1.56V581c0,1.27-.2,2-1,2.43a7.64,7.64,0,0,1-3.3.43,10,10,0,0,0-.8-2.59,18.59,18.59,0,0,0,1.89,0c.31,0,.39-.08.39-.33v-3.64h-6.17v-2.59h15.25v2.59ZM343,562.27h-4.33V559.7h15v2.57H349.2v1.26h3.86v6.86H339.42v-6.86H343Zm-2.77,11.41v-2.32h12.15v2.32Zm1.71-5.61h1.35v-2.21h-1.35Zm3.45-2.21v2.21h1.42v-2.21Zm1.42-3.59h-1.4v1.26h1.4Zm3.73,15.3a24.55,24.55,0,0,1,3.43,4l-2.31,1.67a26.2,26.2,0,0,0-3.32-4.13Zm-.12-11.71h-1.54v2.21h1.54Z"/><path d="M363.32,575.68c-.34-.86-.93-2.16-1.53-3.37v11.5H359v-10.1a23.1,23.1,0,0,1-2.36,5.32,15.5,15.5,0,0,0-1.35-2.84,27.39,27.39,0,0,0,3.48-9h-2.88v-3H359v-5.56h2.8v5.56h2.59v3h-2.59v1.32c.73,1,2.7,4.16,3.14,4.92Zm10.09-4.18h5.7v2.64h-7.47c-.05.52-.1,1-.15,1.49h6.43s0,.73-.08,1.1c-.26,3.73-.55,5.46-1.19,6.13a2.51,2.51,0,0,1-1.82.89,21.07,21.07,0,0,1-3,.06,6.76,6.76,0,0,0-.75-2.68c1,.09,1.87.11,2.28.11s.6,0,.81-.24.46-1.08.62-2.78h-3.86a8.78,8.78,0,0,1-5.42,5.69,9.39,9.39,0,0,0-1.71-2.43c3.78-1.43,4.64-3.86,4.92-7.34H365V571.5h5.42v-2.24h3Zm5.93-5.35v4.48h-2.8v-2h-9.12v2.05h-2.7v-4.54h3a20.92,20.92,0,0,0-.62-2.45l.78-.17H365V561h5.37v-2.35h3V561h5.7v2.56h-2c-.37,1-.68,1.87-1,2.62Zm-9.51-2.62a16.21,16.21,0,0,1,.7,2.54l-.34.08h3.14a17.9,17.9,0,0,0,.67-2.62Z"/><path d="M388.46,568.83c.91,1,3.11,3.8,3.63,4.48l-1.76,2.61c-.39-.86-1.14-2.13-1.87-3.34v11.23h-2.95V573.14a23.76,23.76,0,0,1-2.93,6.08,16.55,16.55,0,0,0-1.45-3,26.83,26.83,0,0,0,4-9H381.8v-3h3.71v-5.54h2.95v5.54h3.24v3h-3.24Zm16.31-8.75v23.35h-3.11v-1.38h-6.09v1.54h-3V560.08Zm-9.2,3v3.35h6.09V563.1Zm0,6.24v3.43h6.09v-3.43Zm6.09,9.8v-3.46h-6.09v3.46Z"/><path d="M415.6,559.67a42.24,42.24,0,0,1-2.49,5.56v18.55h-2.93V570a24.57,24.57,0,0,1-1.76,2.16,21.23,21.23,0,0,0-1.63-3.32,29,29,0,0,0,5.88-10.13Zm7.73,16.17c-2.8,1.3-5.86,2.62-8.3,3.65l-1.24-3.16c.75-.24,1.66-.57,2.61-.92l-.15-15.22,3,0,.13,14.17,3.37-1.29Zm6.17,8a49.11,49.11,0,0,0-3.45-5.16,17.07,17.07,0,0,1-7.47,5.32,14.89,14.89,0,0,0-2-2.78c8.89-3,10.6-9.28,10.86-21.48l3.14.08c-.23,6.91-.93,12.12-2.85,16.06a53.94,53.94,0,0,1,4.2,5.67Zm-6.64-14.33a32.31,32.31,0,0,0-2.57-6.43l2.57-1.1a30.1,30.1,0,0,1,2.8,6.26Z"/><path d="M456.82,562.78s0,1.08,0,1.46c-.34,12.06-.62,16.35-1.68,17.78a3.46,3.46,0,0,1-2.49,1.49,27.85,27.85,0,0,1-4.07,0,7.81,7.81,0,0,0-1-3.13c1.65.16,3.18.16,3.86.16a1.35,1.35,0,0,0,1.14-.45c.75-.87,1.09-4.92,1.37-14.45h-5.54a23.57,23.57,0,0,1-2.29,4.27,17.31,17.31,0,0,0-2-1.51v12.6h-6.92v2h-2.8V563h2.92a30.57,30.57,0,0,0,.76-4.35l3.37.49c-.44,1.35-.91,2.7-1.35,3.86h4v4.37a28.59,28.59,0,0,0,3.5-8.69l2.93.7a34.51,34.51,0,0,1-1,3.43Zm-15.53,3h-4.12v4.38h4.12Zm0,12.45v-5.29h-4.12v5.29Zm8.6-1.46a57.16,57.16,0,0,0-3.6-6.23l2.41-1.43a63,63,0,0,1,3.81,6Z"/><path d="M468.14,578.44c-2.85,1-6,2.07-8.45,2.91l-.7-3.27c.91-.24,2-.54,3.16-.89v-6.34h-2.62v-2.94h2.62v-4.75H459.3v-3h8.56v3h-2.78v4.75h2.34v2.94h-2.34v5.4c.86-.27,1.71-.54,2.54-.84Zm15.4,1.64V583H466.87v-2.92H474v-2.56h-5.37v-2.89H474v-2.32h-5.19V559.76h13.53v12.55h-5.21v2.32h5.5v2.89h-5.5v2.56Zm-11.92-15.36h2.67v-2.24h-2.67Zm0,4.86h2.67v-2.32h-2.67Zm7.82-7.1h-2.56v2.24h2.56Zm0,4.78h-2.56v2.32h2.56Z"/><path d="M485,581.08a10.73,10.73,0,0,0,3.34-6l2.78.92c-.6,2.62-1.61,5.26-3.53,6.91Zm7.54-15.82a32.79,32.79,0,0,1-5.81,3,13.11,13.11,0,0,0-1.71-2.78,23.76,23.76,0,0,0,10.3-6.8h3.18a23.53,23.53,0,0,0,10.84,6.53,17.69,17.69,0,0,0-1.89,2.94,34.13,34.13,0,0,1-5.81-2.94v1.57h-9.1Zm12.7,3.92a34.61,34.61,0,0,1-4.07,6.5,14.79,14.79,0,0,0-2.38-1.51,21.67,21.67,0,0,0,2.25-3.48H488.64V568h14.05l.5-.14Zm-6.11,11.39c.9,0,1.09-.35,1.19-2.86a7.68,7.68,0,0,0,2.72,1.18c-.36,3.62-1.17,4.54-3.63,4.54h-3.71c-3.13,0-3.88-.89-3.88-3.7v-4.37h3.05v4.34c0,.76.19.87,1.2.87Zm-4-8.56a17.61,17.61,0,0,1,5,3.46l-2.1,2.26a17.21,17.21,0,0,0-4.84-3.61Zm5.13-7.75a21.11,21.11,0,0,1-3.24-2.83,19,19,0,0,1-3.08,2.83Zm4.18,10.4a21.79,21.79,0,0,1,4.69,6.23l-2.75,1.78a21.87,21.87,0,0,0-4.48-6.45Z"/><path d="M513.32,583c2-.67,3.19-1.83,3.34-3.26a1.19,1.19,0,0,1-.28,0,2.33,2.33,0,0,1-2.46-2.4,2.4,2.4,0,0,1,2.54-2.43c1.84,0,2.8,1.43,2.8,3.7a6.76,6.76,0,0,1-5.11,6.56Z"/><path d="M9.07,621.73a42.35,42.35,0,0,1-2.54,5.59v18.49h-3V632.12c-.6.78-1.19,1.51-1.79,2.16A22.81,22.81,0,0,0,0,630.77a28.53,28.53,0,0,0,6.06-10ZM24.68,642v3H7.8v-3Zm-1.87-2.65H9.62V622.35H22.81Zm-3.37-14H12.81v3.94h6.63Zm0,6.91H12.81v4.1h6.63Z"/><path d="M43,640.92c2.59.92,5.47,2,7.23,2.81l-2.64,2.13a69.49,69.49,0,0,0-7.42-3.18L42,640.92H34.29l2.41,1.76a31.4,31.4,0,0,1-7.82,3.21,23.75,23.75,0,0,0-2.08-2.22A26,26,0,0,0,34,640.92H26.9v-2.65H50v2.65Zm-6.27-15.68H27.68v-2.67h9.08v-2H40v2h9.44v2.67H40v1.13h6.61v10.85H30.69V626.37h6.07Zm6.68,3H33.67v1.14h9.77Zm0,3H33.67v1.13h9.77Zm0,2.92H33.67v1.21h9.77Z"/><path d="M76.13,641.68v3.15H52.57v-3.15h3.18v-12H59v12h4.51V625.51h-10v-3.13h22v3.13H66.75v5.94h7.33v3.13H66.75v7.1Z"/><path d="M82.5,636.66a39.85,39.85,0,0,0-4.38-3l1.82-2.16a37.4,37.4,0,0,1,4.43,2.72Zm-3.91,6.66a64.31,64.31,0,0,0,5.18-6.1l1.84,2.32c-1.47,2.08-3.18,4.3-4.82,6.27Zm5.6-18.38H78.77v-2.81h5.42v-1.48h3v1.48h6v-1.48h3v1.48h5.57v2.81H96.17v1.78h-3v-1.78h-6v1.78h-3Zm-2.67,1.3c1.37.73,3.42,1.89,4.46,2.61l-1.84,2.41c-1-.73-3-2-4.38-2.84ZM100.88,629a17,17,0,0,1-4.2,4.45,41.13,41.13,0,0,0,6.1,1.84,12.54,12.54,0,0,0-1.87,2.56c-.36-.08-.75-.19-1.11-.3v8.24h-3v-1.08H89.87v1.08H87V638l-1,.27a9.86,9.86,0,0,0-1.51-2.53,32.39,32.39,0,0,0,6.66-2.16c-.75-.52-1.5-1.08-2.2-1.65a19.63,19.63,0,0,1-2.33,2.1,11,11,0,0,0-2.13-1.91,21,21,0,0,0,5.73-6.08l3,.63c-.26.4-.55.81-.83,1.21h6.14l.49-.14Zm-1.65,8.36a31.38,31.38,0,0,1-5.29-2.15,32.59,32.59,0,0,1-5,2.15Zm-2.47,4.89v-2.46H89.87v2.46Zm-5.8-12a15,15,0,0,0,2.87,1.89,15.05,15.05,0,0,0,2.49-1.89Z"/><path d="M121.26,642c2.38.7,4.77,1.48,6.37,2L125,645.83c-1.73-.73-4.74-1.78-7.7-2.67l1.35-1.16h-5l1.53,1.08a27.92,27.92,0,0,1-8.77,2.75,14.68,14.68,0,0,0-1.84-2.08,34.9,34.9,0,0,0,6.93-1.75h-3.74v-9h17.19v9Zm6.43-14.2v2.27h-4.33l-.19,2.13H108.24l.26-2.13h-3.78V627.8h4.07l.26-2.16h14.72l-.21,2.16ZM107.93,627h-2.77v-4.72h9.46v-1.65h3.09v1.65h9.51V627h-2.88v-2.21H107.93Zm2.72,8.48h11.07v-.78H110.65Zm0,2.4h11.07v-.81H110.65Zm0,2.43h11.07v-.84H110.65Zm.5-9.69h3.26l.11-.84h-3.27Zm.41-3.35-.1.84h3.26l.08-.84Zm8.94,3.35.08-.84h-3.5l-.1.84Zm.29-3.35h-3.45l-.08.84h3.45Z"/><path d="M153.55,624.78s0,1.08,0,1.46c-.34,12.06-.62,16.35-1.69,17.78a3.42,3.42,0,0,1-2.49,1.49,27.82,27.82,0,0,1-4.07,0,7.66,7.66,0,0,0-1-3.13c1.66.16,3.19.16,3.87.16a1.36,1.36,0,0,0,1.14-.45c.75-.87,1.09-4.92,1.37-14.45H145.1a23.57,23.57,0,0,1-2.28,4.27,18.23,18.23,0,0,0-2-1.51v12.6H133.9v2h-2.8V625H134a29.17,29.17,0,0,0,.75-4.35l3.37.49c-.44,1.35-.9,2.7-1.34,3.86h4v4.37a28.58,28.58,0,0,0,3.49-8.69l2.93.7a29.88,29.88,0,0,1-1,3.43Zm-15.52,3H133.9v4.38H138Zm0,12.45v-5.29H133.9v5.29Zm8.6-1.46a57.16,57.16,0,0,0-3.6-6.23l2.41-1.43a63,63,0,0,1,3.81,6Z"/><path d="M164.18,621.67a43.59,43.59,0,0,1-2.49,5.56v18.55h-2.93V632a26.51,26.51,0,0,1-1.76,2.16,20.45,20.45,0,0,0-1.64-3.32,28.84,28.84,0,0,0,5.89-10.13Zm15.94,21.41v2.32H163.43v-2.32h6.81v-1.21H165v-2.3h5.26v-1.11h-5.91v-2.32h5.91v-.94h-5.62v-5.91h5.62v-.92h-3.49V625.1h-3v-2.29h3v-2.19h2.82v2.19h4.3v-2.19h3v2.19h3v2.29h-3v3.27h-3.63v.92h5.8v5.91h-5.8v.94h6v2.32h-6v1.11h5.42v2.3h-5.42v1.21Zm-9.88-10v-1.73h-2.8v1.73Zm-.67-6.8h4.3V625.1h-4.3Zm3.71,5.07v1.73h2.82v-1.73Z"/><path d="M191.6,626.88a23.4,23.4,0,0,1-1,2.14h12v13.33c0,1.59-.29,2.46-1.35,2.94s-2.49.54-4.59.54a13.6,13.6,0,0,0-.93-3.1c1.32.08,2.82.08,3.26.08s.6-.16.6-.54v-1.62H190.2v5.16h-3.06V634.06a18.93,18.93,0,0,1-3.42,3.16,18.13,18.13,0,0,0-2-2.45,20.66,20.66,0,0,0,6.45-7.89h-5.67v-3h7a27.55,27.55,0,0,0,1-3.26l3.19.75c-.26.84-.52,1.67-.83,2.51h12.65v3Zm8,4.94H190.2v1.73h9.36Zm0,6.16v-1.76H190.2V638Z"/><path d="M215.84,624.83c-1.25,3.4-3.14,7.29-5.37,9.67a22.55,22.55,0,0,0-2.8-1.89,21.61,21.61,0,0,0,4.72-8.61ZM228.38,633c-2.54,8.31-7.7,11.44-17,13a11.6,11.6,0,0,0-1.64-3.21c8.58-1,13.28-3.56,15.38-10.77Zm-6.94-12.34v13.09c0,1.7-.32,2.62-1.43,3.11a12.22,12.22,0,0,1-4.8.62,12.63,12.63,0,0,0-1.08-3.32c1.47,0,3.08,0,3.55,0s.62-.11.62-.49v-13Zm5.31,3a36.64,36.64,0,0,1,5.39,8.88L229,634.23a36,36,0,0,0-5.11-9.1Z"/><path d="M256.51,628.5A35.52,35.52,0,0,1,254,638.81a11.67,11.67,0,0,0,4,4.51,11.74,11.74,0,0,0-2,2.57,13.45,13.45,0,0,1-3.78-4.08,15.71,15.71,0,0,1-4.41,4.13,13.31,13.31,0,0,0-1.32-2.24l-1.79,1.84a22.83,22.83,0,0,0-2.72-1.73,18.63,18.63,0,0,1-6.56,2.13,7.53,7.53,0,0,0-1.09-2.46,16.6,16.6,0,0,0,4.9-1c-.46-.19-.93-.41-1.4-.59l-.21.35-2.46-.62c.44-.68.93-1.52,1.45-2.41l-2.77,0-.1-2.38c1.19,0,2.61,0,4.14,0,.21-.38.39-.73.57-1.08h-3.68v-5h4.59v-.83H235.3v-2.86h-1.63v-2.27h1.63v-2.84h4.07v-1.32H242v1.32h4.3v2.84H248v2.27h-1.69v2.86H242v.83h4.82v.87c1.48-2.86,2.31-6.86,2.78-11l2.93.41c-.19,1.54-.45,3.05-.73,4.5h6.09v3Zm-19.19,5.32h2.05v-1.13h-2.05Zm.52-9.85v1h1.53v-1Zm1.53,3.91v-1h-1.53v1Zm-.34,12c.86.29,1.72.64,2.57,1a6.67,6.67,0,0,0,1.17-1.83l-3.29,0Zm6.51-.9a8.49,8.49,0,0,1-1.53,3c.81.44,1.56.84,2.18,1.22a12.18,12.18,0,0,0,4.56-4.48,34.09,34.09,0,0,1-1.55-5.24,14.29,14.29,0,0,1-1,1.78,13.58,13.58,0,0,0-1.38-1.59v2h-5.75l.23,0-.52,1,7.23-.11-.07,2.27ZM242,624v1h1.63v-1Zm1.63,3.91v-1H242v1ZM242,632.69v1.13h2.15v-1.13Zm9.07-4.19-.05.17a41.59,41.59,0,0,0,1.4,6.34,36.66,36.66,0,0,0,1.22-6.51Z"/><path d="M269.49,641.16a4.19,4.19,0,1,1-4.2-4.37A4.29,4.29,0,0,1,269.49,641.16Zm-1.87,0a2.32,2.32,0,1,0-2.33,2.41A2.37,2.37,0,0,0,267.62,641.16Z"/><path d="M310,633.42a26.84,26.84,0,0,1-4.31,5.91c.7,2.08,1.51,3.32,2.28,3.32.55,0,.86-1.3,1-4.48a7.89,7.89,0,0,0,2.54,1.83c-.49,4.73-1.45,5.91-3.81,5.91-1.89,0-3.34-1.62-4.46-4.26a26.93,26.93,0,0,1-4.8,3.29,14.18,14.18,0,0,0-2-2.59,26.56,26.56,0,0,0,5.78-3.8,51.94,51.94,0,0,1-1.32-7.24h-5.27v3.08c1.33-.24,2.67-.51,4-.76l.24,2.92-4.23.89v4.61c0,1.76-.36,2.62-1.4,3.14a10.86,10.86,0,0,1-4.66.62,13.31,13.31,0,0,0-1.09-3.24c1.45.08,2.95,0,3.42,0s.62-.13.62-.56v-3.92l-4.64,1-.75-3.24c1.48-.25,3.34-.54,5.39-.92v-3.62h-4.9v-3h4.9v-3.08c-1.4.25-2.82.44-4.15.6a12.36,12.36,0,0,0-.88-2.7,63.2,63.2,0,0,0,10.29-2.27l2.08,2.73c-1.3.4-2.72.75-4.23,1.08v3.64h5c-.21-2.43-.28-4.94-.31-7.4h3.24a69,69,0,0,0,.26,7.4h7.05v3h-6.74c.21,1.62.47,3.19.75,4.56a22.9,22.9,0,0,0,2.47-3.67Zm-1.9-5.94a21.24,21.24,0,0,0-3.68-4.46l2.34-1.64a22.88,22.88,0,0,1,3.83,4.29Z"/><path d="M327.6,632.34h-4.45v13.41h-2.86V622.11c-.51,1.54-1.11,3.13-1.78,4.67v19h-2.93v-13.5a21.43,21.43,0,0,1-1.61,2.21,22.66,22.66,0,0,0-1.48-3.45,30,30,0,0,0,5.13-10.42l2.86.89-.16.51h7.28Zm-4.45-7.86V626h2.12v-1.54Zm2.12,5.43v-1.6h-2.12v1.6Zm11.2,12.17c0,1.78-.36,2.65-1.4,3.11s-2.69.59-5.13.59a12.06,12.06,0,0,0-1-3.1c1.58.1,3.37.08,3.89.05s.68-.16.68-.68v-9.71h-4.75V622.05h7.7Zm-5.26-17.6V626h2.31v-1.54Zm2.31,5.43v-1.6h-2.31v1.6Z"/><path d="M362.47,624.78s0,1.08,0,1.46c-.33,12.06-.62,16.35-1.68,17.78a3.44,3.44,0,0,1-2.49,1.49,27.85,27.85,0,0,1-4.07,0,7.81,7.81,0,0,0-1-3.13c1.66.16,3.19.16,3.86.16a1.35,1.35,0,0,0,1.14-.45c.75-.87,1.09-4.92,1.38-14.45H354a24.21,24.21,0,0,1-2.28,4.27,18.45,18.45,0,0,0-2-1.51v12.6h-6.92v2H340V625H343a30.51,30.51,0,0,0,.75-4.35l3.37.49c-.44,1.35-.91,2.7-1.35,3.86h4v4.37a28.59,28.59,0,0,0,3.5-8.69l2.93.7a32,32,0,0,1-1,3.43Zm-15.53,3h-4.12v4.38h4.12Zm0,12.45v-5.29h-4.12v5.29Zm8.61-1.46a59.08,59.08,0,0,0-3.61-6.23l2.41-1.43a65.27,65.27,0,0,1,3.82,6Z"/><path d="M377,620.92h2.82v11.74c0,5.4-.67,10.12-5.78,13.07a12.56,12.56,0,0,0-2.18-2.25,9,9,0,0,0,4.83-6.64c-1,.87-2.08,1.73-3,2.49l-1.58-2.7c1.22-.76,3.06-2,4.85-3.27l.05.11v-3.59l-1.53,1a30,30,0,0,0-2.26-5v2.86h-2.15v3.49l2-.76.57,2.83c-.83.35-1.68.68-2.54,1v7.18c0,1.49-.26,2.3-1,2.81a6.36,6.36,0,0,1-3.57.59,11.5,11.5,0,0,0-.81-3,18.08,18.08,0,0,0,2.15,0c.32,0,.44-.11.44-.46v-6l-2.38.91-.75-3c.88-.3,1.94-.65,3.13-1.08v-4.51h-2.8v-3h2.8v-5.07h2.83v5.07h2.1l-.23-.4,2.28-1.3c.62,1,1.24,2.19,1.79,3.27Zm9.46,21.78c.52,0,.62-.78.7-3.51a7.54,7.54,0,0,0,2.59,1.27c-.28,3.67-1,5.1-3,5.1h-2.26c-2.33,0-3-.94-3-4.32V620.92h2.91v7.88a38.16,38.16,0,0,0,2.1-5.1l2.74,1.46c-1.06,2-2.23,4.26-3.19,5.69l-1.65-1v3l.75-.75a36.35,36.35,0,0,1,4.64,4.75l-2,2.27a34.15,34.15,0,0,0-3.42-4v6.13c0,1.24.07,1.43.62,1.43Z"/><path d="M399.66,642.05v3.78h-2.93v-3.78h-5.52v-2.8h5.52V637.9h-4.51v-9.77h12.16v9.77h-4.72v1.35H405v2.8Zm-1.89-14.95H392v-5.78h5.81Zm-2.26-3.78h-1.35v1.76h1.35Zm-.75,8.56h2.15v-1.41h-2.15Zm0,3.67h2.15v-1.46h-2.15Zm9.83-8.45h-5.86v-5.78h5.86Zm-2.88,3.37H399.5v1.41h2.21Zm0,3.62H399.5v1.46h2.21Zm.57-10.77H400.9v1.76h1.38Zm12.65,8.91a27.79,27.79,0,0,1-3.58,7.37c.44,1.51.94,2.37,1.48,2.43s.7-1.27.83-3.7a8.87,8.87,0,0,0,2.23,1.81c-.65,4.69-2,5.75-3.09,5.72-1.55-.08-2.74-1.32-3.63-3.51a16.78,16.78,0,0,1-3.94,3.21,11,11,0,0,0-2.23-2.24,16.29,16.29,0,0,0,5.22-4.21,58.87,58.87,0,0,1-1.12-7.91l-2.15.27-.31-3,2.25-.29c-.13-2.3-.23-4.78-.28-7.43h2.93c0,2.46.1,4.86.23,7.08l5.52-.71.31,3-5.6.73c.16,1.78.34,3.42.55,4.88a25.2,25.2,0,0,0,2.05-4.83Zm-2.13-5.29a22.1,22.1,0,0,0-2.43-4.67L412.7,621a19.25,19.25,0,0,1,2.57,4.53Z"/><path d="M431.13,642.35c.67,0,1.37.08,2.07.08,1.45,0,6.43,0,8.27-.08a11.16,11.16,0,0,0-1,3.08h-7.39c-4.75,0-8-.7-10.14-3.83a12,12,0,0,1-3.63,4.29,12.43,12.43,0,0,0-2.33-2.24c2.64-1.7,4.22-4.56,4.82-8.18l3.08.48c-.18.87-.38,1.68-.59,2.46a5.75,5.75,0,0,0,3.73,3.37v-6.85H417.88v-2.84h22.87v2.84h-9.62v2h8v2.78h-8Zm7.15-11.44h-18v-9.37h18Zm-3.13-7.13H423.27v1.38h11.88Zm0,3.48H423.27v1.41h11.88Z"/><path d="M466,642.08c0,1.76-.37,2.67-1.46,3.19s-2.74.56-5.08.56a11.47,11.47,0,0,0-1-3.24,37.1,37.1,0,0,0,3.79.06c.49,0,.65-.14.65-.62V628.26H447.61v17.55h-3.08V625.13h7.15a39.5,39.5,0,0,0,1.38-4.51l3.91.57c-.54,1.35-1.19,2.75-1.81,3.94H466Zm-13-2V642h-2.78V630.88h10.11v9.2Zm0-6.39v3.59h4.51v-3.59Z"/><path d="M486.18,638.52v-1.08h-3.47v1.11H479.6V630.2h-3.53V641h16.18v3.1H476.07v1.7h-3.19V630.2H469.2v-3.1h3.68v-5.67h3.19v5.67h3.53v-6.26h3.11v6.26h3.47v-6h3.11v6h3.84v3.1h-3.84v8.32Zm0-4.08V630.2h-3.47v4.24Z"/><path d="M512.13,633a18.29,18.29,0,0,0,7.1,3.65,14.27,14.27,0,0,0-2.05,2.75,18.7,18.7,0,0,1-4.38-2.19v8.53h-3.21v-9.5h1.94a16,16,0,0,1-3-3.24h-2.67a18.14,18.14,0,0,1-3.11,3.21h2.2v1.87c0,2.56-.75,6-5.91,7.93a11.45,11.45,0,0,0-2.13-2.59c4.33-1.48,4.85-3.75,4.85-5.48v-1a20.61,20.61,0,0,1-4.72,2.51,14.76,14.76,0,0,0-2-2.65,19.1,19.1,0,0,0,7-3.83h-4.12V621.54h18.48V633ZM501,626.07h4.53v-1.94H501Zm0,4.35h4.53v-1.94H501Zm12.18-6.29H508.6v1.94h4.54Zm0,4.35H508.6v1.94h4.54Z"/><path d="M9.57,689.61H.39v-2.53H9.57Zm-.81,16.77H4v1.08H1.45v-9.21H8.76Zm13.77-6.19H19.62l2.08.49c-.49,1.3-1,2.56-1.45,3.51h3.91v2.75H9.67v-2.75h3.55a15.43,15.43,0,0,0-1.11-3.46l1.91-.54H11.15v-6.42a9.62,9.62,0,0,1-1.07.73,11.27,11.27,0,0,0-1.37-2v.83H1.53v-2.45H8.71v1.1a9.88,9.88,0,0,0,2.59-2.26,12.15,12.15,0,0,0-1.71-1.46l1.64-1.84a14.63,14.63,0,0,1,1.52,1.11,15.5,15.5,0,0,0,.7-1.56H10.08v-2.46h4.46l.44-.08.21.08h.05v0l1.48.54a19.6,19.6,0,0,1-2.2,5.85h4.64a24.07,24.07,0,0,1-2.46-6.72l2.61-.51c.16.67.34,1.32.55,2a20.88,20.88,0,0,0,1.61-1.46L23,684.89c-.88.54-1.71,1.08-2.46,1.51a10.6,10.6,0,0,0,.67,1.3c.62-.54,1.3-1.16,1.74-1.62l1.66,1.86-2.28,1.4A8.88,8.88,0,0,0,25,691.53,10.27,10.27,0,0,0,23,694l-.49-.33ZM8.71,696.93H1.53v-2.4H8.71Zm-.05-11h-7v-2.43h7ZM4,700.76v3.11H6.25v-3.11Zm9.54-9.39a13.77,13.77,0,0,1-2.08,2.16H22.35A11,11,0,0,1,19.88,691v1.38H13.51Zm.41,6.4h5.63V696H13.92Zm3.68,6a31.9,31.9,0,0,0,1.17-3.62h-4a16,16,0,0,1,1.2,3.57l-1.46.43h4.59Z"/><path d="M30.15,700.57v2.32H27.29V684.08h9.05v16.49Zm0-13.58v3.81h3.34V687Zm3.34,10.67v-4H30.15v4Zm16.31,6.48c0,1.7-.34,2.56-1.35,3.07s-2.52.6-4.67.6a11.41,11.41,0,0,0-1.09-3.11c1.4.08,3,.06,3.43,0s.62-.16.62-.62v-4.75H40.65a13.88,13.88,0,0,1-5,8.66,11.6,11.6,0,0,0-2.3-2.13c4.35-3.35,4.74-8.37,4.74-12.47V683.7H49.8Zm-3.06-7.67V693H41.16v.41a29.18,29.18,0,0,1-.13,3.05Zm-5.58-9.8v3.46h5.58v-3.46Z"/><path d="M58.76,689.05a2.47,2.47,0,1,1,2.47,2.51A2.47,2.47,0,0,1,58.76,689.05Zm0,12.87a2.47,2.47,0,1,1,2.47,2.51A2.47,2.47,0,0,1,58.76,701.92Z"/><path d="M78,701.71c1,1.8,2.82,2.56,5.47,2.67,3.11.13,9.23,0,12.81-.24a14.26,14.26,0,0,0-1,3.13c-3.22.16-8.71.21-11.88.08s-5.16-.92-6.71-3c-1,1-2.1,2.08-3.42,3.24l-1.46-3.19A30.63,30.63,0,0,0,75,701.92V696h-2.9V693.1H78Zm-1.84-12.1a21.11,21.11,0,0,0-3.89-4.48l2.36-1.83a22.83,22.83,0,0,1,4.07,4.29Zm5.05,5.27c-.33.16-.65.29-1,.43A9.87,9.87,0,0,0,78.38,693a17.65,17.65,0,0,0,6.1-3.18H79.29v-2.41h6.79v-1.32c-1.79.11-3.58.19-5.26.22a8.25,8.25,0,0,0-.62-2.19A80.79,80.79,0,0,0,93,683l1.87,2.11c-1.71.35-3.74.62-5.89.84v1.53h6.82v2.41H90.52a16.2,16.2,0,0,0,5.88,2.8A12.16,12.16,0,0,0,94.61,695a16.06,16.06,0,0,1-5.6-3.59v2.46H86.08v-2.35a17.59,17.59,0,0,1-3.83,2.81h7.28v0l2,0c-.13.64-.26,1.35-.42,2h4.23s0,.67-.08,1.05c-.23,3-.54,4.43-1.14,5a2.79,2.79,0,0,1-1.87.81,25.06,25.06,0,0,1-3.16,0,6,6,0,0,0-.73-2.38c1.09.11,2.13.14,2.57.14s.65,0,.86-.25a4.42,4.42,0,0,0,.57-2.15H90.62l-.23,1-2.6-.4c.21-.7.42-1.62.6-2.54H86.55c-.47,3.35-1.76,5.67-5.91,7a7.45,7.45,0,0,0-1.56-2.41c3.27-.89,4.25-2.4,4.64-4.64H81.18Z"/><path d="M103.89,701.71c1,1.8,2.82,2.56,5.47,2.67,3.11.13,9.23,0,12.81-.24a14.26,14.26,0,0,0-1,3.13c-3.22.16-8.71.21-11.88.08s-5.16-.92-6.71-3c-1,1-2.1,2.08-3.42,3.24l-1.46-3.19a30.63,30.63,0,0,0,3.22-2.48V696H98.05V693.1h5.84Zm-1.84-12.1a21.11,21.11,0,0,0-3.89-4.48l2.36-1.83a22.83,22.83,0,0,1,4.07,4.29Zm6.37,13.8h-2.67V691.66h1.92V683.4h11.18v8.26h1.89v9c0,1.24-.21,1.94-1,2.38a7.37,7.37,0,0,1-3.24.43,9.6,9.6,0,0,0-.62-2.32H112V702h-2.2V695.2h6.76V701h1.07c.28,0,.36-.08.36-.35v-6.56h-9.52Zm1.92-11.75h1.56v-4.21h4.17v-1.67h-5.73Zm3.94,5.59H112v1.86h2.33Zm1.79-7.8h-2v2.21h2Z"/><path d="M139.22,699.71a24.47,24.47,0,0,0,8.37,5.07,14.4,14.4,0,0,0-2.2,2.78,25.56,25.56,0,0,1-8.5-6.29v6.56H133.7v-6.42a25.35,25.35,0,0,1-8.35,6.1,17.21,17.21,0,0,0-2.13-2.7,23.24,23.24,0,0,0,8.17-5.1h-5.24V689.4h7.55v-1.54H124v-3h9.75v-2.21h3.19v2.21h10v3h-10v1.54h7.9v10.31Zm-10.09-6.32h4.57V691.8h-4.57Zm0,3.92h4.57v-1.65h-4.57Zm7.76-5.51v1.59h4.77V691.8Zm4.77,3.86h-4.77v1.65h4.77Z"/><path d="M156.66,700.87a24,24,0,0,1-5,6,22.24,22.24,0,0,0-2.51-1.86,16.56,16.56,0,0,0,4.38-5.18Zm16-12.61H149.84v-3h9.72v-2.59h3.27v2.59h9.85Zm-9.85,10.5v5.7c0,1.62-.28,2.43-1.42,2.89a13.63,13.63,0,0,1-4.75.48,13.22,13.22,0,0,0-1-3.07c1.32,0,2.95.08,3.37,0s.57-.11.57-.46v-5.59H152.8v-8.61h17.13v8.61Zm-7-2.75h10.79v-3.1H155.88Zm12.6,3.81a41.63,41.63,0,0,1,4.69,5.69l-3,1.59a40.83,40.83,0,0,0-4.48-5.88Z"/><path d="M180.84,707.35a49.69,49.69,0,0,0-5.57-6L178,699a50.13,50.13,0,0,1,5.65,5.91Z"/><path d="M196.76,698.87a26,26,0,0,1-1.56,7,13.63,13.63,0,0,0-2.36-1.16,20.22,20.22,0,0,0,1.38-6.27Zm20.74,5.27v2.91H202.59v-2.91h2.67c.29-2.24.57-4.92.81-7.7H203.5c.05.22.1.43.13.62l-2.18,1a13.06,13.06,0,0,0-.34-1.38l-1.32.11v11h-2.67V697l-3.76.24-.26-2.78,1.87-.08c.39-.51.8-1.11,1.22-1.73a26.35,26.35,0,0,0-3.06-3.67l1.48-2.18.59.54a36.15,36.15,0,0,0,1.9-4.7l2.67,1c-.94,1.84-2,4-2.91,5.43.31.38.62.73.88,1.08.88-1.51,1.71-3,2.31-4.37l2.52,1.21c-1.43,2.35-3.22,5.08-4.85,7.26l2.49-.1c-.29-.68-.6-1.35-.91-1.95l2-.89a28.24,28.24,0,0,1,2,4.78v-2.65h2.93c.19-2.21.32-4.42.42-6.5h-2.93v-2.92H215.4c0,2.94,0,6.21-.08,9.42h2.05v3h-2.1c-.08,2.81-.16,5.46-.26,7.7ZM202,698.2a31,31,0,0,1,1.61,4.86l-2.28.86a33.21,33.21,0,0,0-1.51-5Zm7-1.76c-.23,2.81-.49,5.48-.73,7.7H212c.13-2.27.26-4.92.34-7.7Zm.65-9.47c-.13,2.08-.26,4.29-.44,6.5h3.14c0-2.18.07-4.4.07-6.5Z"/><path d="M222.68,698.87a26,26,0,0,1-1.56,7,13.63,13.63,0,0,0-2.36-1.16,20.22,20.22,0,0,0,1.38-6.27Zm20.17-11.69s0,1.08,0,1.49c-.34,11.82-.7,16.09-1.79,17.52a3.18,3.18,0,0,1-2.49,1.48,23.32,23.32,0,0,1-4,.08,7.88,7.88,0,0,0-1-3.24,36.61,36.61,0,0,0,3.81.17,1.25,1.25,0,0,0,1.09-.46c.78-.84,1.17-4.78,1.45-14h-7.15a23.07,23.07,0,0,1-2.2,3.49,19.82,19.82,0,0,0-2.44-1.79,21.8,21.8,0,0,1,2,5.05l-2.33,1.14a14.23,14.23,0,0,0-.37-1.46l-1.47.11v11.09h-2.73V697l-3.83.27-.26-2.81,1.92-.08c.39-.51.8-1.08,1.19-1.67a25,25,0,0,0-3.11-3.7l1.45-2.21.62.57a33.79,33.79,0,0,0,1.9-4.7l2.72,1c-.94,1.86-2,3.94-2.93,5.45.33.38.65.78.9,1.13a40.94,40.94,0,0,0,2.39-4.42l2.62,1.13a87.7,87.7,0,0,1-4.95,7.32l2.62-.11c-.29-.65-.6-1.3-.91-1.86l2.18-1,.18.32a21.7,21.7,0,0,0,4.27-9l3.17.7a32.29,32.29,0,0,1-1.27,3.86ZM228.2,698.25a31.35,31.35,0,0,1,1.68,5.08l-2.43.89a28.16,28.16,0,0,0-1.53-5.21Zm6.07,2.75a25.83,25.83,0,0,0-3.17-6.23l2.47-1.3a26,26,0,0,1,3.37,6Z"/><path d="M250.83,707.35a49,49,0,0,0-5.58-6L248,699a50.13,50.13,0,0,1,5.65,5.91Z"/><path d="M269.15,690.64c.86,1.29,2.83,4.83,3.27,5.69L270.35,699c-.31-1-.86-2.35-1.43-3.7v12.58h-2.83v-9.61a24.28,24.28,0,0,1-2.07,4.86,19.05,19.05,0,0,0-1.58-3.05,32.38,32.38,0,0,0,3.24-9.39h-2.75v-3h3.16v-5h2.83v5h2.72v3Zm16.49-3.24v20.11h-3.21v-1.19h-6.56v1.35h-3.09V687.4h3.79a37.59,37.59,0,0,0,.91-4.72l3.65.4c-.44,1.49-.93,3-1.4,4.32Zm-9.77,3v4.83h6.56v-4.83Zm6.56,12.85v-5h-6.56v5Z"/><path d="M298.21,699.06c-.47-.89-1.24-2.19-2-3.37v12.12h-3V697a23.43,23.43,0,0,1-3.29,6.26,17.5,17.5,0,0,0-1.53-3.1,25.24,25.24,0,0,0,4.38-8.94h-3.66v-3h4.1v-5.59h3v5.59h3.39v3h-3.39v.43c.78.81,3.34,3.86,3.94,4.62Zm10.16-7.83a28.47,28.47,0,0,0,4.75,9.69,12.77,12.77,0,0,0-2.31,2.49,27.36,27.36,0,0,1-3.06-6.43v10.83h-3.11V696.87a24.37,24.37,0,0,1-4.46,7.24,15.48,15.48,0,0,0-1.74-2.94,25.8,25.8,0,0,0,5.71-9.94h-3.76v-3h4.25v-5.59h3.11v5.59h4.56v3Z"/><path d="M320.29,707.35a49.69,49.69,0,0,0-5.57-6l2.7-2.43a50.13,50.13,0,0,1,5.65,5.91Z"/><path d="M348.81,685.32c2.56,2.19,5.65,5.29,7,7.61l-2.67,2.14a17.46,17.46,0,0,0-1.66-2.46c-6.84.38-14.07.67-18.9.86l-.18-3.24c1.19,0,2.54-.08,4-.1a46.23,46.23,0,0,0,3.81-7.7l3.56,1.19c-1.09,2.13-2.39,4.4-3.63,6.37,2.8-.11,5.8-.24,8.79-.38-.83-.86-1.69-1.67-2.49-2.4Zm-13.69,10.61h17.27v11.85h-3.32v-1H338.28v1.08h-3.16Zm3.16,3.05v4.67h10.79V699Z"/><path d="M363.81,683.05h3.24v24.49h-3.24V702c-2,.89-4,1.76-5.65,2.49l-1.37-3.3c1.76-.54,4.41-1.48,7-2.45V692.2H357.7V689h6.11Zm13.48,21.09c1,0,1.14-1.08,1.33-5.43a9,9,0,0,0,2.95,1.46c-.31,5.15-1.06,7.12-4,7.12h-3.48c-2.95,0-3.81-1.1-3.81-4.91v-19.3h3.19v8.1a51.88,51.88,0,0,0,5.31-4.1l2.23,2.88a74.54,74.54,0,0,1-7.54,4.59v7.89c0,1.51.16,1.7,1.09,1.7Z"/><path d="M406.53,686.78s0,1.08,0,1.46c-.34,12.06-.63,16.35-1.69,17.78a3.42,3.42,0,0,1-2.49,1.49,27.82,27.82,0,0,1-4.07,0,7.66,7.66,0,0,0-1-3.13c1.66.16,3.19.16,3.86.16a1.34,1.34,0,0,0,1.14-.45c.76-.87,1.09-4.92,1.38-14.45h-5.55A23.57,23.57,0,0,1,395.8,694a18.45,18.45,0,0,0-2-1.51v12.6h-6.92v2h-2.8V687H387a29.17,29.17,0,0,0,.75-4.35l3.37.49c-.44,1.35-.9,2.7-1.34,3.86h4v4.37a28.34,28.34,0,0,0,3.5-8.69l2.93.7a32,32,0,0,1-1,3.43Zm-15.53,3h-4.12v4.38H391Zm0,12.45v-5.29h-4.12v5.29Zm8.61-1.46a58.86,58.86,0,0,0-3.6-6.23l2.41-1.43a67.22,67.22,0,0,1,3.81,6Z"/><path d="M432.79,702.11H427v2.62c0,1.48-.26,2.24-1.32,2.67a13.26,13.26,0,0,1-4.46.43,12.29,12.29,0,0,0-.88-2.8c1.24.05,2.72.05,3.13.05s.55-.11.55-.46v-2.51h-7.31a18.12,18.12,0,0,1,2.77,2.48l-2.28,2.06a19,19,0,0,0-3.89-3.59l1.09-.95h-5.19v-2.54H424v-1c-5.11.11-10,.19-13.64.22l-.08-2.29c2.44,0,5.63,0,9.13,0v-1H412v-7.77h7.47v-1h-9.52v-2.43h9.52v-1.7h3v1.7h9.46v2.43h-9.46v1h7.82v7.77h-1.73a27.47,27.47,0,0,1,3.34,2.16L430,699.33c-.31-.27-.67-.59-1.09-.89l-1.89,0v1.08h5.78Zm-17.94-11.42h4.59v-1h-4.59Zm4.59,2.86v-1h-4.59v1Zm3-3.86v1h4.82v-1Zm4.82,3.86v-1h-4.82v1Zm-4.82,2.92,3.26,0c-.36-.16-.72-.35-1.06-.48l.52-.44h-2.72Z"/><path d="M449.92,701.68a22.48,22.48,0,0,0,8.22,2.94,15,15,0,0,0-2.08,2.92,21.9,21.9,0,0,1-8.71-4.57v4.86h-3v-4.69a24.26,24.26,0,0,1-8.68,4.37,15.08,15.08,0,0,0-2-2.67,26.67,26.67,0,0,0,8.19-3.16h-7.44V699h9.9v-1.18h-7.47v-2.33h7.47v-1.21h-8.76V691.8h4.92a11.47,11.47,0,0,0-.88-2.11l.31-.05H434.5V687H438a24.92,24.92,0,0,0-1.61-3.35l2.65-.94a21,21,0,0,1,2,3.81l-1.27.48h2.36v-4.4h2.87V687h1.92v-4.4h2.9V687h2.31l-.93-.29a22.24,22.24,0,0,0,1.63-3.92l3.24.81c-.72,1.24-1.42,2.46-2,3.4h3.37v2.62h-4.87c-.42.78-.83,1.51-1.22,2.16h5.08v2.51h-9v1.21h7.78v2.33h-7.78V699h10.09v2.65Zm-7.05-12a13.39,13.39,0,0,1,.88,2.08l-.44.08h4.85c.31-.65.62-1.43.91-2.16Z"/><path d="M482.19,683.51v24.3h-2.93v-1.27H463.21v1.32h-2.77V683.51Zm-2.93,20.6V685.94H463.21v18.17Zm-.57-3.86h-3.34V702c0,1-.21,1.37-.93,1.59a12.77,12.77,0,0,1-3.17.21,7.52,7.52,0,0,0-.62-1.59,17.43,17.43,0,0,0,1.81,0c.26,0,.37-.08.37-.32v-1.62h-4.59a11.17,11.17,0,0,1,1.74,2.19l-2,1a12.51,12.51,0,0,0-1.79-2.43l1.63-.81h-4v-1.73h9.08v-.78h2.54v.78h1.37a11.81,11.81,0,0,0-.75-.92c-4.28.17-8.55.3-11.72.35l-.1-1.7h5.78v-.89H464.8v-5.5h5.13v-.81h-5.86v-1.73h5.86v-1h2.51v1h5.92v1.73h-5.92v.81h5.22v5.5h-1.3a15.45,15.45,0,0,1,2.15,2.11l-1.37,1h1.55ZM467.13,692h2.8v-.78h-2.8Zm2.8,2v-.78h-2.8V694Zm2.51-2.83V692h2.75v-.78Zm2.75,2.05h-2.75V694h2.75Zm-2.75,3h2.08l-.29-.25.88-.62h-2.67Z"/><path d="M508.94,693.1c-1.22,1.1-2.64,2.32-3.84,3.21a15.59,15.59,0,0,0,4.1,6.48,10.73,10.73,0,0,0-2.1,2.43,18.55,18.55,0,0,1-4.41-7.59c1.12,3.81.5,7.61-.93,9a3.48,3.48,0,0,1-2.9,1.22,14.58,14.58,0,0,1-1.82-.06,6.29,6.29,0,0,0-.78-2.94c.83.08,1.48.13,2.05.13a1.21,1.21,0,0,0,1.27-.7,5.56,5.56,0,0,0,.7-3.51,28.56,28.56,0,0,1-6.87,5,10.5,10.5,0,0,0-1.84-2.21,21.65,21.65,0,0,0,8.14-5.86,12,12,0,0,0-.46-1.21,30.07,30.07,0,0,1-4.93,3.7,11.9,11.9,0,0,0-1-1.49,3.3,3.3,0,0,1-1.09,2.41,3.72,3.72,0,0,1-1.5.56,10.74,10.74,0,0,1-1.66.06,7,7,0,0,0-.68-2.73c.47,0,.81,0,1.14,0a1.28,1.28,0,0,0,.73-.25c.29-.21.39-.75.39-1.51a7.41,7.41,0,0,0-1.79-4.72c.52-1.7,1.06-4,1.48-5.89h-2v21.19h-2.68V683.78h5.63l.44-.13,2,1.21c-.67,2.3-1.53,5.24-2.25,7.34a8.55,8.55,0,0,1,1.89,5.4,21,21,0,0,0,4.67-3.18,7.52,7.52,0,0,0-.78-1,29.23,29.23,0,0,1-3.06,1.94,16.51,16.51,0,0,0-1.79-2.27,20.59,20.59,0,0,0,5.5-3.48h-4.49v-2.78h3a18.83,18.83,0,0,0-1.4-3.19l2.49-.89a15.39,15.39,0,0,1,1.74,3.84l-.6.24H503l-.65-.22a25,25,0,0,0,1.61-4l2.93.89c-.6,1.19-1.17,2.38-1.69,3.32h3.29v2.78h-5.13c.26,1.43.57,2.81.94,4.13A30.24,30.24,0,0,0,507,691Zm-6.51,3.69a52.7,52.7,0,0,1-1.5-6.61,18.17,18.17,0,0,1-1.66,1.62A13,13,0,0,1,502.43,696.79Z"/><path d="M512.8,707c2-.67,3.19-1.83,3.34-3.26a1.19,1.19,0,0,1-.28,0,2.33,2.33,0,0,1-2.46-2.4,2.4,2.4,0,0,1,2.54-2.43c1.84,0,2.8,1.43,2.8,3.7a6.76,6.76,0,0,1-5.11,6.56Z"/><path d="M23.33,757.42a26.8,26.8,0,0,1-4.3,5.91c.7,2.08,1.5,3.32,2.28,3.32.54,0,.86-1.3,1-4.48A8,8,0,0,0,24.84,764c-.5,4.73-1.46,5.91-3.82,5.91-1.89,0-3.34-1.62-4.45-4.26a27.29,27.29,0,0,1-4.8,3.29,14.26,14.26,0,0,0-2-2.59,26.32,26.32,0,0,0,5.78-3.8,51.94,51.94,0,0,1-1.32-7.24H8.92v3.08c1.32-.24,2.67-.51,4-.76l.23,2.92-4.22.89v4.61c0,1.76-.36,2.62-1.4,3.14a10.91,10.91,0,0,1-4.67.62,13.31,13.31,0,0,0-1.09-3.24c1.45.08,3,0,3.42,0s.63-.13.63-.56v-3.92l-4.64,1-.76-3.24c1.48-.25,3.35-.54,5.4-.92v-3.62H.91v-3h4.9v-3.08c-1.4.25-2.83.44-4.15.6a12.92,12.92,0,0,0-.88-2.7,63.2,63.2,0,0,0,10.29-2.27l2.07,2.73c-1.29.4-2.72.75-4.22,1.08v3.64h5c-.21-2.43-.29-4.94-.32-7.4h3.25a69,69,0,0,0,.25,7.4h7.06v3H17.4c.2,1.62.46,3.19.75,4.56a22.19,22.19,0,0,0,2.46-3.67Zm-1.89-5.94A21.24,21.24,0,0,0,17.76,747l2.33-1.64a22.61,22.61,0,0,1,3.84,4.29Z"/><path d="M40.93,756.34H36.47v13.41H33.62V746.11c-.52,1.54-1.12,3.13-1.79,4.67v19H28.9v-13.5a20,20,0,0,1-1.61,2.21,22.57,22.57,0,0,0-1.47-3.45A30,30,0,0,0,31,744.65l2.85.89-.15.51h7.28Zm-4.46-7.86V750H38.6v-1.54Zm2.13,5.43v-1.6H36.47v1.6Zm11.2,12.17c0,1.78-.37,2.65-1.4,3.11s-2.7.59-5.14.59a11.66,11.66,0,0,0-1-3.1c1.58.1,3.37.08,3.89.05s.67-.16.67-.68v-9.71H42.1V746.05h7.7Zm-5.27-17.6V750h2.31v-1.54Zm2.31,5.43v-1.6H44.53v1.6Z"/><path d="M62,750.88c-.31.73-.65,1.43-1,2.14H73v13.33c0,1.59-.29,2.46-1.35,2.94s-2.49.54-4.59.54a13.6,13.6,0,0,0-.93-3.1c1.32.08,2.82.08,3.26.08s.6-.16.6-.54v-1.62H60.6v5.16H57.54V758.06a18.93,18.93,0,0,1-3.42,3.16,17.41,17.41,0,0,0-2-2.45,20.66,20.66,0,0,0,6.45-7.89H52.88v-3h7a27.55,27.55,0,0,0,1-3.26l3.19.75c-.26.84-.52,1.67-.83,2.51H75.87v3Zm8,4.94H60.6v1.73H70ZM70,762v-1.76H60.6V762Z"/><path d="M88.16,746.4a26.74,26.74,0,0,1,3.13,6.27l-2.82,1.18a11.26,11.26,0,0,0-.47-1.43c-3.42.25-7,.46-9.59.62l-.26-3c.62,0,1.29,0,2,0a42.83,42.83,0,0,0,1.89-5.43l3.22.68c-.6,1.56-1.3,3.18-2,4.61l3.45-.16c-.39-.75-.8-1.51-1.22-2.21Zm1.29,20.17c0,1.4-.26,2.18-1.11,2.64a7.34,7.34,0,0,1-3.63.54,12.35,12.35,0,0,0-1-2.83c.91.05,2,0,2.28,0s.42-.08.42-.41V764.7H82.53v5.11H79.68v-15.5h9.77ZM82.53,757v1.4h3.89V757Zm3.89,5.37v-1.59H82.53v1.59Zm8.84-5.59c-3,0-3.76-.94-3.76-3.91V744.7h3.06v3.86a39.62,39.62,0,0,0,4.67-2.24l2,2.32a45.75,45.75,0,0,1-6.64,2.54v1.59c0,1,.15,1.08,1.14,1.08h2.83c.82,0,1-.4,1.11-2.75a8.25,8.25,0,0,0,2.72,1.19c-.33,3.45-1.14,4.45-3.52,4.45Zm3.42,10.1c.88,0,1.06-.52,1.19-3.24a9.78,9.78,0,0,0,2.7,1.19c-.34,3.8-1.11,4.85-3.6,4.85H95.28c-3,0-3.78-.91-3.78-3.88v-8.48h3v3.65a30.09,30.09,0,0,0,4.88-2.54l2,2.35a39.16,39.16,0,0,1-6.93,2.86v2.16c0,.94.18,1.08,1.2,1.08Z"/><path d="M126.93,750.24s0,1.1-.07,1.53c-.52,10.75-1,14.8-2.18,16.2a3.47,3.47,0,0,1-2.65,1.51,24.66,24.66,0,0,1-4.14.06,7.67,7.67,0,0,0-1.07-3.32c1.64.13,3.17.13,3.84.13a1.49,1.49,0,0,0,1.22-.43c.78-.84,1.29-4.37,1.71-12.39h-7.26c-.41,5.59-2.23,12.15-9.51,16.44a12.75,12.75,0,0,0-2.41-2.62c6.42-3.64,8.16-9.1,8.6-13.82h-7.8v-3.29h7.93v-5.56h3.29v5.56Z"/><path d="M154,761.11h-2.88v5.27c0,1.56-.2,2.4-1.22,2.91a9.93,9.93,0,0,1-4.25.57,12.67,12.67,0,0,0-.88-3.13c1.22,0,2.54,0,2.93,0s.52-.1.52-.46v-5.21h-8.92v-2.8h1.27a10.52,10.52,0,0,0-1.48-2.19,20.11,20.11,0,0,0,4.28-1.56,14.22,14.22,0,0,0-2.31-2.27l-.88.48a20.57,20.57,0,0,0-1.68-1.75v18.81h-2.83v-9.15H134v0c0,2.24-.29,6.42-2,9.18a11.34,11.34,0,0,0-2.25-1.54c1.37-2.32,1.55-5.75,1.55-7.67H130v-2.75h5.68v-3.08H131v-9h2.67V752h2v-7.34h2.83v6.05a17.05,17.05,0,0,0,7.1-6.05l3,.81a12.15,12.15,0,0,1-.93,1.24h3.42l.49-.11,1.92.92c-2.18,5.8-7,9.1-12.42,10.8h7.16v-3.13h2.9v3.13H154Zm-11.1.19a18.25,18.25,0,0,1,2.83,3.81l-2.54,1.57a18.08,18.08,0,0,0-2.62-3.95Zm2.55-8c.41-.27.8-.57,1.16-.86a12.89,12.89,0,0,0-2.62-2.19c-.33.24-.64.51-1,.76A17.49,17.49,0,0,1,145.47,753.34Zm.23-4.48a18.14,18.14,0,0,1,2.59,2,14,14,0,0,0,1.48-2Z"/><path d="M173.51,758.93v6.91h6.22v3.08H164.39v-3.08h6v-6.91h-7v-3.11h7v-6c-1.81.33-3.65.57-5.39.78a12.84,12.84,0,0,0-.88-2.67,30.51,30.51,0,0,1-1.61,3.24v18.63h-3.08V756a26.75,26.75,0,0,1-2.1,2.48,24.27,24.27,0,0,0-1.82-3.37A28.1,28.1,0,0,0,162,744.7l3.06,1c-.28.73-.57,1.43-.9,2.16a66.12,66.12,0,0,0,13-2.86l2.26,2.7a42.27,42.27,0,0,1-5.86,1.54v6.58H180v3.11Z"/><path d="M190.33,745.57a44.5,44.5,0,0,1-2.12,4.94v19.24h-3.09V755.64c-.6.83-1.22,1.59-1.81,2.26a21.6,21.6,0,0,0-1.66-3.34,28.1,28.1,0,0,0,5.78-10ZM206.07,750h-1.56v16c0,1.86-.39,2.72-1.5,3.24a14.61,14.61,0,0,1-5.26.59,12.67,12.67,0,0,0-1-3.29c1.68.08,3.5.08,4,.08s.67-.16.67-.68V750H190.1v-3.08h16Zm-12.78,12.69v1.75h-2.88V752.94H199v9.77Zm0-7v4.21h2.87v-4.21Z"/><path d="M212.47,755.5a15.71,15.71,0,0,1-2.93,3.91,11.25,11.25,0,0,0-2-2.21,16,16,0,0,0,4.4-6h-3.76v-2.73h4.26v-3.8h2.93v3.8h3.65v2.73H215.4v1a50.07,50.07,0,0,1,4.09,3l-1.61,2.56c-.59-.67-1.55-1.64-2.48-2.53v5.64h-2.93Zm-4.72,11.39a18.89,18.89,0,0,0,2.25-5.56l2.75,1.13a27.06,27.06,0,0,1-2.18,5.89Zm14.8-.43c1.22,0,1.4-.38,1.56-3.11a7.19,7.19,0,0,0,2.77,1.14c-.39,3.86-1.24,4.8-4.1,4.8h-4.66c-3.53,0-4.41-.89-4.41-3.69v-3.7h3v3.64c0,.81.26.92,1.66.92Zm-3-6.69.52.48V746h10.53v14.52H220.32c1,1,2.13,2.11,2.75,2.86l-2.23,1.95a40.8,40.8,0,0,0-3.42-3.75Zm3.32-9.7h4.77v-1.56h-4.77Zm0,3.95h4.77v-1.57h-4.77Zm0,4h4.77v-1.62h-4.77Zm6,3c1,1.67,2.54,4,3.24,5.37l-2.88,1.54c-.62-1.43-2-3.81-3.06-5.62Z"/><path d="M241.16,745.54a53.17,53.17,0,0,1-2,5.24v19h-2.93v-13.5a20,20,0,0,1-1.61,2.21,22.57,22.57,0,0,0-1.47-3.45,30,30,0,0,0,5.13-10.42Zm16.72,13.33a32.37,32.37,0,0,1-3.58,2.87,11,11,0,0,0,3.92,4.5,10.72,10.72,0,0,0-2,2.51c-3.45-2.43-5.32-6.88-6.41-12.33h-.51a16.69,16.69,0,0,1-1.45,1.1c4.17,3.7,4.12,9.45,2.12,11.23a3.68,3.68,0,0,1-2.75,1.11c-.52,0-1.16,0-1.81-.08a7.26,7.26,0,0,0-.65-2.59,31,31,0,0,1-3.34,1.7,11.25,11.25,0,0,0-1.64-2.27,25.18,25.18,0,0,0,8.25-4.56c-.13-.32-.29-.62-.44-.95a32.1,32.1,0,0,1-6,3.35,10.18,10.18,0,0,0-1.4-2,23.47,23.47,0,0,0,6.17-3,7.43,7.43,0,0,0-.62-.65,26.17,26.17,0,0,1-4,1.92,19.23,19.23,0,0,0-1.71-2.08,25.35,25.35,0,0,0,5.34-2.24h-3.94v-4.19a9,9,0,0,0-1.89-1.43,17,17,0,0,0,5.16-6.15l2.9.54c-.18.35-.39.73-.6,1.08h4l.54-.19,1.82,1.35c-.5.84-1.09,1.75-1.71,2.59H257v6.4h-4.54a30.06,30.06,0,0,0,.83,3,29.71,29.71,0,0,0,2.52-2.43Zm-13.63-4.61h3.34v-2h-3.34Zm1.27-5.67c-.37.49-.73,1-1.12,1.43h4a11.62,11.62,0,0,0,1-1.43Zm3,16.09a36.82,36.82,0,0,1-3.62,2.43,14.94,14.94,0,0,0,1.73.11,1.44,1.44,0,0,0,1.27-.54A3,3,0,0,0,248.57,764.68ZM254,752.21h-3.7v2H254Z"/><path d="M269.18,746a43.77,43.77,0,0,1-2.7,5.45v18.3H263.4V756a28,28,0,0,1-2.57,2.86,23.2,23.2,0,0,0-1.79-3.4,27.77,27.77,0,0,0,7.08-10.5Zm10.29,20.48c1.25,0,1.45-.91,1.66-4.72a8.74,8.74,0,0,0,2.85,1.38c-.36,4.64-1.16,6.34-4.22,6.34h-4.44c-3.26,0-4.2-1.08-4.2-4.89v-19.3h3.12v9.24a44.47,44.47,0,0,0,6.53-4.73l2.28,2.81a62.31,62.31,0,0,1-8.81,5.21v6.8c0,1.59.18,1.86,1.42,1.86Z"/><path d="M309,760.36c-.44,5.24-.88,7.5-1.68,8.37a2.75,2.75,0,0,1-1.95,1,22.31,22.31,0,0,1-3.08,0,7.5,7.5,0,0,0-.83-2.86,20.14,20.14,0,0,0,2.51.13,1.09,1.09,0,0,0,.86-.29c.41-.44.75-1.79,1.06-4.86H290.49c-.42.32-.86.62-1.33.91l2.36.79a11.48,11.48,0,0,1-3,6.1l-2.41-1.59a9.93,9.93,0,0,0,2.8-5.11c-.62.41-1.27.76-1.92,1.11a19.61,19.61,0,0,0-1.61-2.81,24,24,0,0,0,9.93-9.25H287v-2.81h4.36a23.25,23.25,0,0,0-1.64-3.43l2.67-1.08a18.3,18.3,0,0,1,2,3.94l-1.3.57h3.76a31,31,0,0,0,1.79-4.62l3.08.89c-.44,1.27-.93,2.51-1.47,3.73h5.08c-.26,1.62-.65,3.45-1,4.94h3c-.29,1.62-.62,3.51-.93,5h2.77Zm-14.1,3.21a19.81,19.81,0,0,1,.7,5l-2.67.35a19.13,19.13,0,0,0-.52-5Zm.65-6.61a26.46,26.46,0,0,1-1.95,2.18h9.91c.15-.64.31-1.4.46-2.18Zm3.19,6.13a22.16,22.16,0,0,1,1.24,4.37l-2.46.65a24.74,24.74,0,0,0-1.2-4.49Zm.05-11c-.39.72-.81,1.43-1.25,2.13h4c.15-.65.31-1.38.44-2.13Zm2.87,14.65a15.58,15.58,0,0,0-1.52-3.64l2.12-.76a14.34,14.34,0,0,1,1.69,3.57Z"/><path d="M321.3,763.19l-9.41,2.86-.77-3c1-.24,2.3-.59,3.7-1v-5.43H312v-2.94h2.87V749h-3.11v-3h9.08v3h-3v4.7h2.69v2.94h-2.69v4.62l3.08-.89Zm11.52,3.75c.46,0,.57-.43.62-3.13A7.7,7.7,0,0,0,336,765c-.25,3.7-.93,4.7-2.85,4.7h-1.94c-2.39,0-2.91-.92-2.91-3.65v-5.29h-1.58c-.46,4.4-1.66,7.53-7.18,9.24a9.47,9.47,0,0,0-1.71-2.65c4.69-1.21,5.52-3.43,5.86-6.59H321.8V745.65h12.65v15.11h-3.19v5.29c0,.79.05.89.49.89Zm-8.14-17h6.76v-1.67h-6.76Zm0,4.1h6.76v-1.67h-6.76Zm0,4.11h6.76v-1.68h-6.76Z"/><path d="M354.54,766c2.38.7,4.77,1.48,6.37,2l-2.67,1.78c-1.73-.73-4.74-1.78-7.7-2.67l1.35-1.16h-5.05l1.53,1.08a27.92,27.92,0,0,1-8.77,2.75,14.68,14.68,0,0,0-1.84-2.08,34.62,34.62,0,0,0,6.92-1.75H341v-9h17.19v9ZM361,751.8v2.27h-4.32l-.19,2.13H341.52l.26-2.13H338V751.8h4.07l.26-2.16h14.72l-.21,2.16ZM341.21,751h-2.77v-4.72h9.46v-1.65H351v1.65h9.52V751h-2.88v-2.21H341.21Zm2.72,8.48H355v-.78H343.93Zm0,2.4H355v-.81H343.93Zm0,2.43H355v-.84H343.93Zm.49-9.69h3.27l.1-.84h-3.26Zm.42-3.35-.1.84H348l.08-.84Zm8.94,3.35.08-.84h-3.5l-.1.84Zm.29-3.35h-3.45l-.08.84H354Z"/><path d="M371.62,765.16a4.19,4.19,0,1,1-4.2-4.37A4.29,4.29,0,0,1,371.62,765.16Zm-1.87,0a2.32,2.32,0,1,0-2.33,2.41A2.37,2.37,0,0,0,369.75,765.16Z"/></g></g></svg>